<?xml version="1.0" encoding="utf-8"?>
<!-- Generator: Adobe Illustrator 24.3.0, SVG Export Plug-In . SVG Version: 6.00 Build 0)  -->
<svg version="1.1" id="Layer_1" xmlns="http://www.w3.org/2000/svg" xmlns:xlink="http://www.w3.org/1999/xlink" x="0px" y="0px"
	 viewBox="0 0 241.6 43.3" style="enable-background:new 0 0 241.6 43.3;" xml:space="preserve">
<style type="text/css">
	.st0{fill:#212121;}
</style>
<g>
	<g>
		<path class="st0" d="M-0.2,0.2h12.4c9.7,0,16.2,3.3,16.2,12.7c0,9.1-6.5,13.4-16,13.4H5.3v17.2h-5.5V0.2z M11.7,21.8
			c7.6,0,11.2-2.7,11.2-8.9c0-6.2-3.8-8.3-11.4-8.3H5.3v17.2H11.7z"/>
		<path class="st0" d="M37.2,0.2h5.5v18.1h20.1V0.2h5.5v43.3h-5.5V23.1H42.7v20.4h-5.5V0.2z"/>
		<path class="st0" d="M89.1,0.2h6.2L110,43.5h-5.8l-7.6-24.2c-1.6-4.8-2.9-9.6-4.3-14.6H92c-1.3,5-2.7,9.8-4.3,14.6l-7.6,24.2h-5.6
			L89.1,0.2z M82.1,25.9h19.9v4.4H82.1V25.9z"/>
		<path class="st0" d="M116.1,0.2h5.5v43.3h-5.5V0.2z"/>
		<path class="st0" d="M133.5,0.2h10.8c13.3,0,20.5,7.7,20.5,21.5s-7.1,21.8-20.2,21.8h-11.1L133.5,0.2L133.5,0.2z M143.9,39
			C154,39,159,32.6,159,21.7s-5-17-15.2-17H139V39L143.9,39L143.9,39z"/>
		<path class="st0" d="M174,0.2h13.6c8.8,0,15.2,3.2,15.2,12.2c0,8.7-6.3,12.8-15.2,12.8h-8v18.3H174V0.2z M186.8,20.7
			c6.7,0,10.5-2.7,10.5-8.4c0-5.7-3.7-7.7-10.5-7.7h-7.3v16.1L186.8,20.7L186.8,20.7z M186.5,23.7l4.3-2.8l13.2,22.7h-6.2
			L186.5,23.7z"/>
		<path class="st0" d="M220.5,0.2h6.2l14.6,43.3h-5.8L228,19.3c-1.6-4.8-3-9.6-4.3-14.6h-0.3c-1.3,5-2.7,9.8-4.3,14.6l-7.6,24.2
			h-5.6L220.5,0.2z M213.6,25.9h19.9v4.4h-19.9V25.9z"/>
	</g>
</g>
</svg>
