<?xml version="1.0" encoding="UTF-8" standalone="no"?>
<!DOCTYPE svg PUBLIC "-//W3C//DTD SVG 1.1//EN"
 "http://www.w3.org/Graphics/SVG/1.1/DTD/svg11.dtd">
<!-- Generated by graphviz version 2.43.0 (0)
 -->
<!-- Title: G Pages: 1 -->
<svg width="178pt" height="171pt"
 viewBox="0.00 0.00 178.00 171.00" xmlns="http://www.w3.org/2000/svg" xmlns:xlink="http://www.w3.org/1999/xlink">
<g id="graph0" class="graph" transform="scale(1 1) rotate(0) translate(4 167)">
<title>G</title>
<polygon fill="white" stroke="transparent" points="-4,4 -4,-167 174,-167 174,4 -4,4"/>
<g id="clust1" class="cluster">
<title>cluster0</title>
<polygon fill="lightgrey" stroke="lightgrey" points="8,-8 8,-155 162,-155 162,-8 8,-8"/>
<text text-anchor="middle" x="85" y="-139.8" font-family="Times,serif" font-size="14.00">docker&#45;network</text>
</g>
<!-- imageserver -->
<g id="node1" class="node">
<title>imageserver</title>
<ellipse fill="white" stroke="white" cx="85" cy="-106" rx="68.79" ry="18"/>
<text text-anchor="middle" x="85" y="-102.3" font-family="Times,serif" font-size="14.00">imageserver</text>
</g>
<!-- phaidra_api -->
<g id="node2" class="node">
<title>phaidra_api</title>
<ellipse fill="white" stroke="white" cx="85" cy="-34" rx="64.99" ry="18"/>
<text text-anchor="middle" x="85" y="-30.3" font-family="Times,serif" font-size="14.00">phaidra_api</text>
</g>
<!-- imageserver&#45;&gt;phaidra_api -->
<g id="edge1" class="edge">
<title>imageserver&#45;&gt;phaidra_api</title>
<path fill="none" stroke="black" d="M79.12,-88.05C78.3,-80.35 78.06,-71.03 78.39,-62.36"/>
<polygon fill="black" stroke="black" points="81.89,-62.49 79.09,-52.28 74.91,-62.01 81.89,-62.49"/>
</g>
<!-- phaidra_api&#45;&gt;imageserver -->
<g id="edge2" class="edge">
<title>phaidra_api&#45;&gt;imageserver</title>
<path fill="none" stroke="black" d="M90.91,-52.28C91.71,-60.03 91.94,-69.36 91.59,-78.01"/>
<polygon fill="black" stroke="black" points="88.09,-77.83 90.88,-88.05 95.08,-78.33 88.09,-77.83"/>
</g>
</g>
</svg>
