<?xml version="1.0" encoding="UTF-8" standalone="no"?>
<!-- Created with Inkscape (http://www.inkscape.org/) -->

<svg
   width="182.17232mm"
   height="185.5334mm"
   viewBox="0 0 182.17232 185.5334"
   version="1.1"
   fill="currentColor"
   id="svg274"
   inkscape:version="1.2.2 (b0a8486541, 2022-12-01)"
   sodipodi:docname="new_logo_version_1.svg"
   xml:space="preserve"
   xmlns:inkscape="http://www.inkscape.org/namespaces/inkscape"
   xmlns:sodipodi="http://sodipodi.sourceforge.net/DTD/sodipodi-0.dtd"
   xmlns="http://www.w3.org/2000/svg"
   xmlns:svg="http://www.w3.org/2000/svg"><sodipodi:namedview
     id="namedview276"
     pagecolor="#ffffff"
     bordercolor="#ffffff"
     borderopacity="1.0"
     inkscape:showpageshadow="2"
     inkscape:pageopacity="0.0"
     inkscape:pagecheckerboard="0"
     inkscape:deskcolor="#d1d1d1"
     inkscape:document-units="mm"
     showgrid="false"
     inkscape:zoom="0.914906"
     inkscape:cx="396.76207"
     inkscape:cy="560.71334"
     inkscape:window-width="2560"
     inkscape:window-height="1371"
     inkscape:window-x="0"
     inkscape:window-y="32"
     inkscape:window-maximized="1"
     inkscape:current-layer="layer1" /><defs
     id="defs271" /><g
     inkscape:label="Layer 1"
     inkscape:groupmode="layer"
     id="layer1"
     transform="translate(-13.841966,-37.365394)"><path
       stroke="currentColor"
       style="stroke-width:0.352778"
       d="m 100.96284,222.45203 c -0.0746,-0.24253 -0.22884,-2.82222 -0.34268,-5.73264 -0.346,-8.84594 -1.782246,-12.33229 -7.429153,-18.03349 -3.075615,-3.10519 -3.971636,-3.78381 -6.886998,-5.21603 -5.981771,-2.93862 -4.572198,-2.7939 -28.646466,-2.94119 l -21.414521,-0.13102 -3.103535,-3.69694 c -1.706943,-2.03331 -3.156451,-3.84999 -3.221127,-4.03705 -0.161953,-0.46841 46.948099,-0.44095 50.201825,0.0293 5.00392,0.72315 11.711605,3.71386 15.193835,6.77437 0.82786,0.72761 1.622383,1.32292 1.765607,1.32292 0.431998,0 -0.100933,-7.43836 -0.687832,-9.60043 -1.097791,-4.04412 -1.799128,-5.00284 -8.615927,-11.77784 -3.592174,-3.57016 -6.714084,-6.49119 -6.937576,-6.49119 -0.223495,0 -1.732739,1.3589 -3.353876,3.01977 -1.621137,1.66087 -3.226357,3.169 -3.567162,3.35139 -0.340801,0.18239 -2.357067,0.33162 -4.480588,0.33162 h -3.860948 l -0.446793,1.07865 c -0.245738,0.59327 -1.123859,1.77531 -1.951384,2.62677 -3.406863,3.5054 -9.032243,3.33083 -12.648304,-0.39251 -2.18112,-2.24582 -2.971163,-5.08624 -2.293541,-8.24588 0.54263,-2.5302 2.183305,-4.52376 4.865859,-5.91243 3.784865,-1.9593 7.695029,-1.33458 10.652725,1.70198 l 1.690031,1.73509 h 3.276608 3.276607 l 2.159906,-2.14071 2.159903,-2.14071 -3.914302,-3.8484 -3.914302,-3.84839 -7.842137,-0.008 -7.842134,-0.008 -0.687179,1.34698 c -2.863649,5.61322 -10.537824,6.46609 -14.783315,1.64296 -4.187524,-4.75728 -2.189305,-12.41505 3.769378,-14.44538 4.091679,-1.39417 8.558247,0.13551 10.809692,3.70203 l 0.860164,1.36259 9.706727,-0.0467 9.706723,-0.0467 14.555209,14.26639 14.555201,14.26639 0.10683,-4.93889 0.10683,-4.93888 -18.033978,-17.90348 -18.033979,-17.90347 h -8.74461 -8.74461 l -1.017968,1.61047 c -1.882966,2.97893 -5.416068,4.65071 -8.952055,4.23589 -4.096585,-0.48059 -7.300971,-3.70463 -7.944014,-7.99276 -0.465613,-3.10492 1.420361,-6.95466 4.37504,-8.93054 1.301991,-0.87068 1.993906,-1.06408 4.233334,-1.1833 2.400484,-0.1278 2.877354,-0.0395 4.61724,0.85539 1.322516,0.68018 2.377261,1.58759 3.312766,2.84999 l 1.372489,1.85208 10.269178,0.005 c 5.648046,0.003 10.481705,0.14011 10.741459,0.30475 0.259757,0.16465 6.685647,6.39316 14.27976,13.84113 17.894748,17.5504 17.946158,17.59941 18.256198,17.4078 0.14533,-0.0898 0.18113,-2.3458 0.0795,-5.01328 l -0.1847,-4.84996 -16.451538,-16.54089 C 75.891924,115.93936 67.601251,107.64467 66.516558,106.60421 l -1.972176,-1.89176 h -6.170803 -6.170806 l -0.852855,1.32292 c -1.016747,1.57714 -5.384026,3.96875 -7.247273,3.96875 -1.521731,0 -4.429315,-1.10712 -5.946266,-2.26416 -2.831592,-2.15976 -3.944482,-7.21434 -2.324989,-10.559772 0.880546,-1.818965 3.07592,-3.909028 4.964285,-4.726146 3.576975,-1.547806 9.279989,0.60083 11.139579,4.196884 0.513363,0.992731 0.561862,1.005967 3.686147,1.005967 h 3.165941 v -4.165441 -4.165441 l -1.402045,-0.618582 c -3.04939,-1.345389 -5.286763,-5.553206 -4.773309,-8.977147 0.496094,-3.308209 2.817195,-6.371893 5.683603,-7.501949 0.561506,-0.221369 2.052793,-0.417057 3.313973,-0.434862 6.140813,-0.0867 10.43287,5.824166 8.659252,11.925204 -0.478946,1.647507 -0.976602,2.419071 -2.511609,3.893964 l -1.91431,1.839345 v 3.085641 3.085645 l 7.831544,7.9019 c 4.307349,4.34604 7.961834,7.85847 8.121078,7.80539 0.159244,-0.0531 0.306719,-2.91805 0.327724,-6.36659 l 0.03819,-6.270069 -1.993262,-1.841422 -1.993261,-1.841419 -0.01157,-9.263035 -0.01157,-9.263037 -1.308351,-0.66747 c -5.288682,-2.698073 -6.517763,-9.604674 -2.487358,-13.977147 1.976607,-2.144364 3.869503,-2.989034 6.6984,-2.989034 5.200424,0 9.130107,3.956278 9.130107,9.191899 0,2.897277 -1.811302,6.084949 -4.248294,7.476492 l -1.390717,0.794109 -0.0028,7.320139 c -0.0014,4.026077 0.125935,7.320139 0.283175,7.320139 0.15724,0 1.189115,1.044992 2.293056,2.322199 l 2.007164,2.322198 0.03593,11.700718 0.03593,11.70072 5.921608,5.73264 c 3.256993,3.15295 6.09832,5.73264 6.31417,5.73264 0.28496,0 0.39246,-8.06575 0.39246,-29.44611 V 71.573018 l -1.852079,-1.185194 c -2.738314,-1.752315 -3.971657,-4.139964 -3.959874,-7.665977 0.0075,-2.250642 0.156746,-2.908202 0.978002,-4.309574 2.096862,-3.578022 6.596851,-5.547486 10.357511,-4.533068 2.21738,0.598124 4.73207,2.466626 5.92223,4.400417 0.93062,1.512066 1.06054,2.048183 1.06862,4.409722 0.0122,3.561201 -1.21114,5.939707 -3.95955,7.69848 l -1.85208,1.185194 v 29.446102 c 0,21.38036 0.1075,29.44611 0.39246,29.44611 0.21585,0 3.05718,-2.57969 6.31407,-5.73264 l 5.9216,-5.73264 0.0359,-11.70072 0.0359,-11.700718 2.00716,-2.322198 c 1.10394,-1.277207 2.13582,-2.322199 2.29306,-2.322199 0.15724,0 0.28467,-3.294062 0.28317,-7.320139 l -0.003,-7.320139 -1.39072,-0.794109 c -2.43688,-1.391543 -4.24818,-4.579215 -4.24818,-7.476492 0,-5.235621 3.92968,-9.191899 9.1301,-9.191899 9.426,0 12.57765,12.697868 4.21107,16.966181 l -1.30835,0.66747 -0.0116,9.263037 -0.0116,9.263035 -1.99326,1.841419 -1.99326,1.841422 0.0382,6.270069 c 0.021,3.44854 0.16848,6.3135 0.32772,6.36659 0.15925,0.0531 3.81373,-3.45935 8.12108,-7.80539 l 7.83152,-7.9019 v -3.085645 -3.085641 l -1.91431,-1.839345 c -1.535,-1.474893 -2.03266,-2.246457 -2.51161,-3.893964 -1.28827,-4.431496 0.49488,-8.757285 4.51259,-10.947227 1.53154,-0.8348 2.25203,-1.004726 4.14667,-0.977977 1.26118,0.01781 2.75246,0.213493 3.31397,0.434862 2.86641,1.130056 5.18751,4.19374 5.6836,7.501949 0.51346,3.423941 -1.72392,7.631758 -4.77331,8.977147 l -1.40204,0.618582 v 4.165441 4.165441 h 3.16594 c 3.12428,0 3.17278,-0.01323 3.68615,-1.005967 0.71394,-1.380606 2.84597,-3.187545 4.76007,-4.03424 5.5826,-2.469451 12.17603,2.03381 12.11723,8.275984 -0.0241,2.55935 -1.36674,5.52647 -3.09843,6.84729 -1.51695,1.15704 -4.42453,2.26416 -5.94627,2.26416 -1.86324,0 -6.23052,-2.39161 -7.24727,-3.96875 l -0.85285,-1.32292 h -6.17081 -6.1708 l -1.97218,1.89176 c -1.08469,1.04046 -9.37536,9.33515 -18.42371,18.43263 l -16.45154,16.54089 -0.1847,4.84996 c -0.10159,2.66748 -0.0658,4.92346 0.0795,5.01328 0.31004,0.19162 0.36145,0.1426 18.2562,-17.40779 7.59411,-7.44798 14.02,-13.67649 14.27976,-13.84113 0.25975,-0.16464 5.09341,-0.30179 10.74146,-0.30476 l 10.26917,-0.005 1.37249,-1.85208 c 0.93551,-1.2624 1.99025,-2.16981 3.31277,-2.84999 1.73989,-0.89484 2.21676,-0.98319 4.61724,-0.85539 2.23943,0.11922 2.93134,0.31262 4.23333,1.1833 2.95468,1.97588 4.84066,5.82562 4.37504,8.93054 -0.64304,4.28813 -3.84743,7.51217 -7.94401,7.99276 -3.53599,0.41482 -7.06909,-1.25696 -8.95205,-4.23589 l -1.01797,-1.61047 h -8.74461 -8.74461 l -18.03398,17.90347 -18.03398,17.90348 0.10683,4.93888 0.10683,4.93889 14.5552,-14.26639 14.55521,-14.2664 9.70672,0.0467 9.70673,0.0467 0.86016,-1.36258 c 3.76566,-5.9652 12.9776,-5.47386 15.92193,0.84924 1.53816,3.30328 1.00577,7.22592 -1.34286,9.8941 -3.37271,3.8316 -9.05225,4.26087 -12.70558,0.9603 -0.7648,-0.69095 -1.69978,-1.86242 -2.07773,-2.60326 l -0.68718,-1.34698 -7.84213,0.008 -7.84214,0.008 -3.9143,3.8484 -3.91431,3.8484 2.15991,2.1407 2.1599,2.14071 h 3.27661 3.27661 l 1.69003,-1.73509 c 2.9577,-3.03656 6.86786,-3.66128 10.65272,-1.70198 2.68256,1.38867 4.32323,3.38223 4.86586,5.91243 0.67763,3.15964 -0.11242,6.00006 -2.29354,8.24588 -3.61606,3.72334 -9.24144,3.89792 -12.6483,0.39251 -0.82753,-0.85146 -1.70565,-2.0335 -1.95138,-2.62676 l -0.4468,-1.07866 h -3.86095 c -2.12352,0 -4.13978,-0.14923 -4.48058,-0.33162 -0.34081,-0.18239 -1.94603,-1.69051 -3.56717,-3.35139 -1.62113,-1.66086 -3.13038,-3.01976 -3.35387,-3.01976 -0.22349,0 -3.3454,2.92103 -6.93758,6.49118 -4.54488,4.51701 -6.76503,6.98857 -7.29999,8.12665 -1.22678,2.60987 -1.84378,5.39808 -2.06465,9.33016 l -0.20576,3.66326 2.07304,-1.68852 c 2.51957,-2.05221 7.44851,-4.47609 11.26228,-5.53838 2.7798,-0.77429 3.20562,-0.7878 28.3285,-0.89905 l 25.50627,-0.11295 -3.24374,4.0525 -3.24374,4.0525 -21.55698,0.12472 c -23.69354,0.13708 -23.0621,0.083 -28.04578,2.40279 -4.6839,2.18027 -8.54418,5.58692 -11.44409,10.09928 -2.81889,4.38629 -3.76294,8.2473 -3.76294,15.38979 v 4.02961 l -1.63674,0.22435 c -2.8048,0.38444 -6.13256,0.26968 -6.28221,-0.21664 z M 59.20901,169.02839 c 0.768311,-0.73609 0.989443,-1.27045 0.989443,-2.39095 0,-2.66918 -1.863316,-3.92141 -4.312405,-2.89811 -2.237306,0.9348 -2.608993,3.65031 -0.73709,5.38513 1.243802,1.15272 2.794906,1.11602 4.060052,-0.0961 z m 95.99727,0.0961 c 1.8719,-1.73482 1.50022,-4.45033 -0.73709,-5.38513 -2.43291,-1.01654 -4.3124,0.22848 -4.3124,2.85662 0,2.89153 3.02392,4.40574 5.04949,2.52851 z M 41.413036,125.41615 c 1.739471,-1.57425 0.576196,-4.9256 -1.868926,-5.3843 -1.576089,-0.29568 -2.783287,0.47277 -3.325989,2.11717 -1.072416,3.24945 2.63683,5.58223 5.194915,3.26713 z m 131.896364,0.46297 c 0.0277,0 0.31686,-0.56167 0.64261,-1.24816 0.48987,-1.03232 0.52188,-1.46151 0.18511,-2.48194 -1.16534,-3.53102 -5.98867,-2.52689 -5.98867,1.24673 0,2.13175 1.81911,3.37413 4.05462,2.76915 0.5808,-0.15718 1.07865,-0.28578 1.10633,-0.28578 z M 63.881449,83.350826 c 1.057882,-0.693155 1.39645,-2.014393 0.900928,-3.515836 -1.192026,-3.61188 -6.347813,-2.717197 -6.347813,1.101535 0,1.217065 0.178809,1.625483 0.970139,2.215878 1.167797,0.871273 3.305256,0.966011 4.476746,0.198423 z m 87.014631,-0.181842 c 0.84759,-0.60354 1.0246,-0.981111 1.0246,-2.185561 0,-2.786264 -2.8227,-4.375415 -5.10987,-2.876801 -1.00653,0.659501 -1.74268,2.629204 -1.40448,3.757927 0.5966,1.991131 3.54238,2.691084 5.48975,1.304435 z M 107.28653,65.113143 c 0.5424,-0.471285 0.99739,-1.320662 1.11995,-2.09075 0.17124,-1.075909 0.0541,-1.44931 -0.68708,-2.190514 -1.15557,-1.155569 -2.46171,-1.466812 -3.81068,-0.908052 -1.52277,0.630752 -2.21424,1.818797 -1.93253,3.32039 0.45784,2.440531 3.44324,3.491215 5.31034,1.868926 z M 93.0848,221.96693 c -10.034115,-1.39972 -23.41498,-6.13259 -32.556838,-11.51549 -6.171851,-3.6341 -15.498954,-10.90916 -15.498954,-12.08905 0,-0.76479 30.395937,-0.75385 34.012167,0.0122 7.831162,1.65902 14.630001,7.94548 16.914044,15.63934 0.660262,2.22412 1.161012,8.00106 0.714399,8.24174 -0.171295,0.0923 -1.784463,-0.0376 -3.584818,-0.28879 z m 20.10287,-3.39545 c 0.18755,-4.44481 1.25004,-7.70524 3.57072,-10.95738 3.07634,-4.31111 6.89124,-7.16406 11.70256,-8.7517 2.4146,-0.79676 2.83968,-0.81759 19.1382,-0.93759 16.11314,-0.11864 16.66875,-0.10066 16.66875,0.53944 0,0.84277 -6.56886,6.28501 -11.81806,9.79115 -7.47273,4.99133 -16.08665,8.91837 -24.82272,11.31654 -4.8207,1.32335 -11.43042,2.61551 -13.37899,2.61551 H 113.0351 Z M 22.482935,169.88814 c -4.10882,-8.35576 -6.766886,-17.49968 -8.178341,-28.13402 -0.605616,-4.56291 -0.62003,-19.02955 -0.0232,-23.28334 1.819395,-12.96731 6.20728,-25.402778 12.918777,-36.612415 4.360635,-7.283193 14.824768,-19.157792 21.633311,-24.549277 13.412716,-10.621137 29.081327,-17.313647 45.584413,-19.470399 6.124905,-0.80045 18.579495,-0.551026 24.341665,0.487483 19.15046,3.451463 36.92728,12.939727 50.84031,27.135695 12.90817,13.170673 20.91285,28.329718 24.63806,46.658913 1.35345,6.65937 1.78079,10.79342 1.77633,17.18402 -0.0111,15.91298 -3.17443,29.79122 -9.6122,42.17084 l -1.78868,3.43959 h -4.5283 c -2.49056,0 -4.52829,-0.0821 -4.52829,-0.18251 0,-0.10038 0.80466,-1.60993 1.78814,-3.35455 4.19978,-7.45013 6.94055,-14.91827 8.78998,-23.9513 0.96073,-4.69241 1.1577,-6.59737 1.43369,-13.86599 0.34493,-9.08398 -0.0166,-13.60651 -1.75645,-21.96926 -1.12206,-5.39348 -4.0593,-13.9539 -6.53641,-19.050005 -9.77631,-20.112651 -28.74913,-36.384783 -50.75941,-43.53406 -8.78403,-2.853187 -14.27207,-3.707276 -23.86788,-3.714494 -10.437163,-0.0079 -16.928264,1.158146 -27.340278,4.91114 -5.290837,1.907074 -9.081488,3.824543 -15.522222,7.851793 -5.472525,3.421849 -8.006327,5.415639 -13.128593,10.330581 -5.412222,5.193161 -9.211223,9.640711 -12.628362,14.784222 C 28.71356,94.18206 24.70615,104.76549 22.603578,118.62687 c -1.251445,8.25026 -1.450725,13.3518 -0.712667,18.24414 2.010081,13.32415 2.762215,16.76531 4.961184,22.69838 1.554518,4.19427 4.271733,10.02135 5.998711,12.86427 0.683149,1.12458 1.242088,2.14299 1.242088,2.26313 0,0.12014 -2.056043,0.21844 -4.568985,0.21844 h -4.568985 z"
       id="path368" /></g></svg>
