<?xml version="1.0" encoding="utf-8"?>
<!-- Generator: Adobe Illustrator 24.3.0, SVG Export Plug-In . SVG Version: 6.00 Build 0)  -->
<svg version="1.1" id="Layer_4_xA0_Image_1_" xmlns="http://www.w3.org/2000/svg" xmlns:xlink="http://www.w3.org/1999/xlink"
	 x="0px" y="0px" viewBox="0 0 518 518" style="enable-background:new 0 0 518 518;" xml:space="preserve">
<style type="text/css">
	.st0{fill:#212121;}
	.st1{fill:none;stroke:#212121;stroke-width:35;stroke-miterlimit:10;}
</style>
<g>
	<g>
		<g>
			<g>
				<path class="st0" d="M259,122.62c-17.12,0-31.05-13.94-31.05-31.08S241.88,60.46,259,60.46s31.05,13.94,31.05,31.08
					S276.12,122.62,259,122.62z M259,80.8c-5.92,0-10.74,4.82-10.74,10.75c0,5.93,4.82,10.75,10.74,10.75
					c5.92,0,10.74-4.82,10.74-10.75C269.74,85.62,264.92,80.8,259,80.8z"/>
			</g>
		</g>
	</g>
	<g>
		<g>
			<g>
				<path class="st0" d="M91.84,289.94c-17.12,0-31.05-13.94-31.05-31.08c0-17.14,13.93-31.08,31.05-31.08s31.05,13.94,31.05,31.08
					C122.89,275.99,108.96,289.94,91.84,289.94z M91.84,248.11c-5.92,0-10.74,4.82-10.74,10.75c0,5.93,4.82,10.75,10.74,10.75
					c5.92,0,10.74-4.82,10.74-10.75C102.58,252.93,97.76,248.11,91.84,248.11z"/>
			</g>
		</g>
	</g>
	<g>
		<g>
			<g>
				<path class="st0" d="M426.16,289.94c-17.12,0-31.05-13.94-31.05-31.08c0-17.14,13.93-31.08,31.05-31.08s31.05,13.94,31.05,31.08
					C457.21,275.99,443.28,289.94,426.16,289.94z M426.16,248.11c-5.92,0-10.74,4.82-10.74,10.75c0,5.93,4.82,10.75,10.74,10.75
					c5.92,0,10.74-4.82,10.74-10.75C436.9,252.93,432.08,248.11,426.16,248.11z"/>
			</g>
		</g>
	</g>
	<g>
		<g>
			<g>
				<path class="st0" d="M112.74,206.28c-17.12,0-31.05-13.94-31.05-31.08s13.93-31.08,31.05-31.08s31.05,13.94,31.05,31.08
					S129.86,206.28,112.74,206.28z M112.74,164.45c-5.92,0-10.74,4.82-10.74,10.75c0,5.93,4.82,10.75,10.74,10.75
					c5.92,0,10.74-4.82,10.74-10.75C123.47,169.27,118.66,164.45,112.74,164.45z"/>
			</g>
		</g>
	</g>
	<g>
		<g>
			<g>
				<path class="st0" d="M405.26,206.28c-17.12,0-31.05-13.94-31.05-31.08s13.93-31.08,31.05-31.08s31.05,13.94,31.05,31.08
					S422.39,206.28,405.26,206.28z M405.26,164.45c-5.92,0-10.74,4.82-10.74,10.75c0,5.93,4.82,10.75,10.74,10.75
					S416,181.13,416,175.2C416,169.27,411.18,164.45,405.26,164.45z"/>
			</g>
		</g>
	</g>
	<g>
		<g>
			<g>
				<path class="st0" d="M175.42,143.54c-17.12,0-31.05-13.94-31.05-31.08s13.93-31.08,31.05-31.08s31.05,13.94,31.05,31.08
					S192.54,143.54,175.42,143.54z M175.42,101.71c-5.92,0-10.74,4.82-10.74,10.75c0,5.93,4.82,10.75,10.74,10.75
					s10.74-4.82,10.74-10.75C186.16,106.53,181.34,101.71,175.42,101.71z"/>
			</g>
		</g>
	</g>
	<g>
		<g>
			<g>
				<path class="st0" d="M342.58,143.54c-17.12,0-31.05-13.94-31.05-31.08s13.93-31.08,31.05-31.08s31.05,13.94,31.05,31.08
					S359.7,143.54,342.58,143.54z M342.58,101.71c-5.92,0-10.74,4.82-10.74,10.75c0,5.93,4.82,10.75,10.74,10.75
					c5.92,0,10.74-4.82,10.74-10.75C353.32,106.53,348.5,101.71,342.58,101.71z"/>
			</g>
		</g>
	</g>
	<g>
		<g>
			<g>
				<rect x="112.74" y="248.69" class="st0" width="292.53" height="20.33"/>
			</g>
		</g>
	</g>
	<g>
		<g>
			<g>
				<path class="st1" d="M112.74,196.11"/>
			</g>
		</g>
	</g>
	<g>
		<g>
			<g>
				<rect x="248.84" y="112.46" class="st0" width="20.31" height="386.91"/>
			</g>
		</g>
	</g>
	<g>
		<g>
			<g>
				<polygon class="st0" points="306.22,185.37 211.77,185.37 177.42,133.78 194.32,122.5 222.65,165.03 295.35,165.03 
					323.68,122.5 340.58,133.78 				"/>
			</g>
		</g>
	</g>
	<g>
		<g>
			<g>
				<polygon class="st0" points="185.58,258.86 165.26,258.86 165.26,222.47 122.77,194.12 134.04,177.2 185.58,211.59 				"/>
			</g>
		</g>
	</g>
	<g>
		<g>
			<g>
				<polygon class="st0" points="352.74,258.86 332.42,258.86 332.42,211.59 383.96,177.2 395.23,194.12 352.74,222.47 				"/>
			</g>
		</g>
	</g>
	<g>
		<g>
			<g>
				<path class="st0" d="M227.37,497.31l-11.99-2.2c-36.22-6.65-70.97-21.92-100.5-44.16c-29.08-21.89-53.18-50.56-69.7-82.9
					l-7.56-14.79h137.8c28.64,0,51.95,23.32,51.95,51.99V497.31z M71.56,373.59c30.28,49.35,79.4,85.29,135.49,98.96v-67.3
					c0-17.46-14.19-31.66-31.63-31.66H71.56z"/>
			</g>
		</g>
	</g>
	<g>
		<g>
			<g>
				<path class="st0" d="M290.63,497.31v-92.06c0-28.67,23.3-51.99,51.95-51.99h137.8l-7.56,14.79
					c-16.52,32.34-40.62,61.01-69.7,82.9c-29.53,22.23-64.29,37.5-100.5,44.16L290.63,497.31z M342.58,373.59
					c-17.44,0-31.63,14.2-31.63,31.66v67.3c56.09-13.67,105.21-49.61,135.49-98.96H342.58z"/>
			</g>
		</g>
	</g>
	<g>
		<g>
			<g>
				<path class="st0" d="M269.16,405.25h-20.31c0-40.52-32.94-73.49-73.42-73.49H30.13l-2.09-7.4c-6-21.22-9.04-43.26-9.04-65.51
					c0-32.42,6.35-63.88,18.87-93.51c12.09-28.61,29.39-54.3,51.43-76.35c22.04-22.06,47.7-39.38,76.28-51.48
					C195.17,24.99,226.6,18.63,259,18.63c32.39,0,63.83,6.35,93.42,18.88c28.58,12.1,54.25,29.42,76.28,51.48
					c22.04,22.06,39.34,47.75,51.43,76.35c12.52,29.62,18.87,61.08,18.87,93.51c0,22.25-3.04,44.29-9.04,65.51l-2.09,7.4H342.58
					C302.09,331.76,269.16,364.73,269.16,405.25z M45.63,311.43h129.79c36.43,0,68.07,20.91,83.58,51.37
					c15.51-30.46,47.15-51.37,83.58-51.37h129.79c4.2-17.13,6.32-34.78,6.32-52.58c0-121.25-98.55-219.89-219.69-219.89
					c-121.13,0-219.69,98.64-219.69,219.89C39.31,276.66,41.44,294.31,45.63,311.43z"/>
			</g>
		</g>
	</g>
</g>
</svg>
