<svg width="24" height="24" viewBox="0 0 15 16" ><path d="M10.64 3.648h1.568l-0.64-1.952-0.096-0.416q-0.032-0.144-0.032-0.176h-0.032l-0.016 0.176q0 0-0.032 0.16t-0.080 0.256zM6.576 12.864q0 0.096-0.096 0.208l-2.848 2.848q-0.080 0.080-0.208 0.080-0.096 0-0.192-0.080l-2.864-2.864q-0.128-0.144-0.064-0.304 0.064-0.176 0.272-0.176h1.712v-12.288q0-0.128 0.080-0.208t0.208-0.080h1.712q0.128 0 0.208 0.080t0.080 0.208v12.288h1.712q0.128 0 0.208 0.080t0.080 0.208zM14.032 13.92v2.080h-5.216v-0.8l3.296-4.72q0.112-0.176 0.192-0.256l0.096-0.080v-0.016q-0.016 0-0.048 0t-0.080 0q-0.096 0.032-0.256 0.032h-2.080v1.024h-1.072v-2.048h5.072v0.8l-3.296 4.736q-0.064 0.064-0.192 0.224l-0.096 0.112v0.016l0.128-0.016q0.080-0.032 0.256-0.032h2.224v-1.056h1.072zM14.832 5.904v0.96h-2.576v-0.96h0.672l-0.416-1.28h-2.176l-0.416 1.28h0.672v0.96h-2.56v-0.96h0.624l2.048-5.904h1.456l2.048 5.904h0.624z"/></svg>
