<svg width="24" height="24" viewBox="0 0 14 16" ><path d="M12.016 11.728q0-0.576-0.384-1.040t-0.928-0.48q-0.464 0-0.736 0.336t-0.272 0.832 0.32 0.848 0.928 0.352q0.448 0 0.768-0.24t0.304-0.608zM6.576 12.864q0 0.096-0.096 0.208l-2.848 2.848q-0.080 0.080-0.208 0.080-0.096 0-0.192-0.080l-2.864-2.864q-0.128-0.144-0.064-0.304 0.064-0.176 0.272-0.176h1.712v-12.288q0-0.128 0.080-0.208t0.208-0.080h1.712q0.128 0 0.208 0.080t0.080 0.208v12.288h1.712q0.128 0 0.208 0.080t0.080 0.208zM13.264 12.24q0 0.56-0.112 1.088t-0.368 1.024-0.608 0.848-0.88 0.576-1.136 0.224q-0.56 0-0.96-0.144-0.224-0.064-0.384-0.128l0.352-1.008q0.144 0.064 0.272 0.096 0.336 0.112 0.672 0.112 0.752 0 1.2-0.528t0.592-1.296h-0.016q-0.176 0.208-0.544 0.336t-0.752 0.128q-0.944 0-1.552-0.64t-0.592-1.552q0-0.928 0.64-1.584t1.616-0.656q1.104 0 1.84 0.848t0.72 2.256zM13.008 5.84v1.024h-4.192v-1.024h1.488v-3.856q0-0.064 0-0.176t0.016-0.144v-0.144h-0.032l-0.048 0.112q-0.080 0.112-0.24 0.272l-0.56 0.512-0.72-0.768 1.712-1.648h1.088v5.84h1.488z"/></svg>
