<?xml version="1.0" encoding="UTF-8" standalone="no"?>
<!DOCTYPE svg PUBLIC "-//W3C//DTD SVG 1.1//EN"
 "http://www.w3.org/Graphics/SVG/1.1/DTD/svg11.dtd">
<!-- Generated by graphviz version 2.43.0 (0)
 -->
<!-- Title: G Pages: 1 -->
<svg width="1410pt" height="1992pt"
 viewBox="0.00 0.00 1409.70 1992.26" xmlns="http://www.w3.org/2000/svg" xmlns:xlink="http://www.w3.org/1999/xlink">
<g id="graph0" class="graph" transform="scale(1 1) rotate(0) translate(4 1988.26)">
<title>G</title>
<polygon fill="white" stroke="transparent" points="-4,4 -4,-1988.26 1405.7,-1988.26 1405.7,4 -4,4"/>
<g id="clust1" class="cluster">
<title>cluster_host</title>
<polygon fill="none" stroke="red" points="229.72,-38.26 229.72,-1976.26 1393.7,-1976.26 1393.7,-38.26 229.72,-38.26"/>
<text text-anchor="middle" x="811.71" y="-1961.06" font-family="Times,serif" font-size="14.00">PHAIDRA server firewall</text>
</g>
<g id="clust2" class="cluster">
<title>cluster_host_storage</title>
<polygon fill="none" stroke="blue" points="462.7,-545.26 462.7,-1945.26 1053.7,-1945.26 1053.7,-545.26 462.7,-545.26"/>
<text text-anchor="middle" x="758.2" y="-1930.06" font-family="Times,serif" font-size="14.00">PHAIDRA server filesystem</text>
</g>
<g id="clust3" class="cluster">
<title>cluster_named_volumes</title>
<polygon fill="none" stroke="turquoise" points="535.7,-947.26 535.7,-1914.26 981.7,-1914.26 981.7,-947.26 535.7,-947.26"/>
<text text-anchor="middle" x="758.7" y="-1899.06" font-family="Times,serif" font-size="14.00">Named volumes under $HOME/.local/share/docker/volumes/</text>
</g>
<g id="clust4" class="cluster">
<title>cluster_bind_mounts</title>
<polygon fill="none" stroke="blue" points="470.7,-553.26 470.7,-939.26 1045.7,-939.26 1045.7,-553.26 470.7,-553.26"/>
<text text-anchor="middle" x="758.2" y="-924.06" font-family="Times,serif" font-size="14.00">Bind mounts under $PATH/phaidra&#45;docker/</text>
</g>
<g id="clust5" class="cluster">
<title>cluster_docker_network_host</title>
<polygon fill="none" stroke="green" points="302.71,-98.26 302.71,-537.26 1385.7,-537.26 1385.7,-98.26 302.71,-98.26"/>
<text text-anchor="middle" x="844.21" y="-522.06" font-family="Times,serif" font-size="14.00">PHAIDRA docker network</text>
</g>
<!-- USER -->
<g id="node1" class="node">
<title>USER</title>
<polygon fill="none" stroke="black" points="193.59,-290.8 193.59,-305.72 139.27,-316.26 62.45,-316.26 8.13,-305.72 8.13,-290.8 62.45,-280.26 139.27,-280.26 193.59,-290.8"/>
<polygon fill="none" stroke="black" points="197.59,-287.51 197.59,-309.01 139.66,-320.26 62.07,-320.26 4.13,-309.01 4.13,-287.51 62.07,-276.26 139.66,-276.26 197.59,-287.51"/>
<polygon fill="none" stroke="black" points="201.58,-284.21 201.58,-312.31 140.04,-324.26 61.68,-324.26 0.14,-312.31 0.14,-284.21 61.68,-272.26 140.04,-272.26 201.58,-284.21"/>
<text text-anchor="middle" x="100.86" y="-294.56" font-family="Times,serif" font-size="14.00">PHAIDRA USER</text>
</g>
<!-- WEBSERVER -->
<g id="node28" class="node">
<title>WEBSERVER</title>
<polygon fill="none" stroke="green" points="369.71,-316.26 310.71,-316.26 310.71,-312.26 306.71,-312.26 306.71,-308.26 310.71,-308.26 310.71,-288.26 306.71,-288.26 306.71,-284.26 310.71,-284.26 310.71,-280.26 369.71,-280.26 369.71,-316.26"/>
<polyline fill="none" stroke="green" points="310.71,-312.26 314.71,-312.26 314.71,-308.26 310.71,-308.26 "/>
<polyline fill="none" stroke="green" points="310.71,-288.26 314.71,-288.26 314.71,-284.26 310.71,-284.26 "/>
<text text-anchor="middle" x="340.21" y="-294.56" font-family="Times,serif" font-size="14.00">Nginx</text>
</g>
<!-- USER&#45;&#45;WEBSERVER -->
<g id="edge36" class="edge">
<title>USER&#45;&#45;WEBSERVER</title>
<path fill="none" stroke="red" d="M201.83,-298.26C241.23,-298.26 283.45,-298.26 310.53,-298.26"/>
</g>
<!-- ADMIN -->
<g id="node2" class="node">
<title>ADMIN</title>
<polygon fill="none" stroke="black" points="438.69,-60.8 438.69,-75.72 381,-86.26 299.42,-86.26 241.73,-75.72 241.73,-60.8 299.42,-50.26 381,-50.26 438.69,-60.8"/>
<polygon fill="none" stroke="black" points="442.69,-57.47 442.69,-79.05 381.36,-90.26 299.06,-90.26 237.73,-79.05 237.73,-57.47 299.06,-46.26 381.36,-46.26 442.69,-57.47"/>
<text text-anchor="middle" x="340.21" y="-64.56" font-family="Times,serif" font-size="14.00">Developer/Admin</text>
</g>
<!-- HS_FEDORA -->
<g id="node3" class="node">
<title>HS_FEDORA</title>
<polygon fill="none" stroke="turquoise" points="940.2,-1385.76 937.2,-1389.76 916.2,-1389.76 913.2,-1385.76 576.2,-1385.76 576.2,-1228.76 940.2,-1228.76 940.2,-1385.76"/>
<text text-anchor="start" x="704.2" y="-1366.06" font-family="Times,serif" font-size="14.00">phaidra_fedora</text>
<text text-anchor="start" x="622.7" y="-1345.06" font-family="Times,serif" font-size="14.00">&#45;&#45;&#45;&#45;&#45;&#45;&#45;&#45;&#45;&#45;&#45;&#45;&#45;&#45;&#45;&#45;&#45;&#45;&#45;&#45;&#45;&#45;&#45;&#45;&#45;&#45;&#45;&#45;&#45;&#45;&#45;&#45;&#45;&#45;&#45;&#45;&#45;&#45;&#45;&#45;&#45;&#45;&#45;&#45;&#45;&#45;&#45;&#45;&#45;&#45;&#45;&#45;&#45;&#45;&#45;&#45;&#45;&#45;&#45;&#45;</text>
<text text-anchor="start" x="588.2" y="-1324.06" font-family="Times,serif" font-size="14.00">fedora&#45;container: /usr/local/tomcat/fcrepo&#45;home</text>
<text text-anchor="start" x="622.7" y="-1303.06" font-family="Times,serif" font-size="14.00">&#45;&#45;&#45;&#45;&#45;&#45;&#45;&#45;&#45;&#45;&#45;&#45;&#45;&#45;&#45;&#45;&#45;&#45;&#45;&#45;&#45;&#45;&#45;&#45;&#45;&#45;&#45;&#45;&#45;&#45;&#45;&#45;&#45;&#45;&#45;&#45;&#45;&#45;&#45;&#45;&#45;&#45;&#45;&#45;&#45;&#45;&#45;&#45;&#45;&#45;&#45;&#45;&#45;&#45;&#45;&#45;&#45;&#45;&#45;&#45;</text>
<text text-anchor="start" x="628.2" y="-1282.06" font-family="Times,serif" font-size="14.00">pixelgecko&#45;container: /mnt/fedora:ro</text>
<text text-anchor="start" x="622.7" y="-1261.06" font-family="Times,serif" font-size="14.00">&#45;&#45;&#45;&#45;&#45;&#45;&#45;&#45;&#45;&#45;&#45;&#45;&#45;&#45;&#45;&#45;&#45;&#45;&#45;&#45;&#45;&#45;&#45;&#45;&#45;&#45;&#45;&#45;&#45;&#45;&#45;&#45;&#45;&#45;&#45;&#45;&#45;&#45;&#45;&#45;&#45;&#45;&#45;&#45;&#45;&#45;&#45;&#45;&#45;&#45;&#45;&#45;&#45;&#45;&#45;&#45;&#45;&#45;&#45;&#45;</text>
<text text-anchor="start" x="655.2" y="-1240.06" font-family="Times,serif" font-size="14.00">api&#45;container: /mnt/fedora:ro</text>
</g>
<!-- C_FEDORA -->
<g id="node16" class="node">
<title>C_FEDORA</title>
<g id="a_node16"><a xlink:href="https://fedora.lyrasis.org/" xlink:title="fedora">
<polygon fill="none" stroke="green" points="1175.7,-270.26 1113.7,-270.26 1113.7,-266.26 1109.7,-266.26 1109.7,-262.26 1113.7,-262.26 1113.7,-242.26 1109.7,-242.26 1109.7,-238.26 1113.7,-238.26 1113.7,-234.26 1175.7,-234.26 1175.7,-270.26"/>
<polyline fill="none" stroke="green" points="1113.7,-266.26 1117.7,-266.26 1117.7,-262.26 1113.7,-262.26 "/>
<polyline fill="none" stroke="green" points="1113.7,-242.26 1117.7,-242.26 1117.7,-238.26 1113.7,-238.26 "/>
<text text-anchor="middle" x="1144.7" y="-248.56" font-family="Times,serif" font-size="14.00">fedora</text>
</a>
</g>
</g>
<!-- HS_FEDORA&#45;&#45;C_FEDORA -->
<g id="edge1" class="edge">
<title>HS_FEDORA&#45;&#45;C_FEDORA</title>
<path fill="none" stroke="turquoise" d="M940.26,-1291.08C983.98,-1278.2 1026.02,-1256.47 1053.7,-1220.26 1084.78,-1179.6 1049.14,-344.16 1073.7,-299.26 1082.34,-283.46 1098.84,-272 1113.65,-264.35"/>
</g>
<!-- C_API -->
<g id="node17" class="node">
<title>C_API</title>
<g id="a_node17"><a xlink:href="https://github.com/phaidra/phaidra-api" xlink:title="api">
<polygon fill="none" stroke="green" points="785.2,-344.26 731.2,-344.26 731.2,-340.26 727.2,-340.26 727.2,-336.26 731.2,-336.26 731.2,-316.26 727.2,-316.26 727.2,-312.26 731.2,-312.26 731.2,-308.26 785.2,-308.26 785.2,-344.26"/>
<polyline fill="none" stroke="green" points="731.2,-340.26 735.2,-340.26 735.2,-336.26 731.2,-336.26 "/>
<polyline fill="none" stroke="green" points="731.2,-316.26 735.2,-316.26 735.2,-312.26 731.2,-312.26 "/>
<text text-anchor="middle" x="758.2" y="-322.56" font-family="Times,serif" font-size="14.00">api</text>
</a>
</g>
</g>
<!-- HS_FEDORA&#45;&#45;C_API -->
<g id="edge3" class="edge">
<title>HS_FEDORA&#45;&#45;C_API</title>
<path fill="none" stroke="turquoise" d="M576.03,-1299.07C523.56,-1286.1 474.58,-1260.4 452.7,-1211.26 443.11,-1189.72 443.11,-383.8 452.7,-362.26 497.02,-262.74 664.7,-298.97 730.99,-317.79"/>
</g>
<!-- C_PIXELGECKO -->
<g id="node24" class="node">
<title>C_PIXELGECKO</title>
<polygon fill="none" stroke="green" points="1360.7,-506.26 1268.7,-506.26 1268.7,-502.26 1264.7,-502.26 1264.7,-498.26 1268.7,-498.26 1268.7,-478.26 1264.7,-478.26 1264.7,-474.26 1268.7,-474.26 1268.7,-470.26 1360.7,-470.26 1360.7,-506.26"/>
<polyline fill="none" stroke="green" points="1268.7,-502.26 1272.7,-502.26 1272.7,-498.26 1268.7,-498.26 "/>
<polyline fill="none" stroke="green" points="1268.7,-478.26 1272.7,-478.26 1272.7,-474.26 1268.7,-474.26 "/>
<text text-anchor="middle" x="1314.7" y="-484.56" font-family="Times,serif" font-size="14.00">pixelgecko</text>
</g>
<!-- HS_FEDORA&#45;&#45;C_PIXELGECKO -->
<g id="edge11" class="edge">
<title>HS_FEDORA&#45;&#45;C_PIXELGECKO</title>
<path fill="none" stroke="turquoise" d="M940.34,-1282.39C981.61,-1269.45 1022.45,-1249.87 1053.7,-1220.26 1275.7,-1009.95 1308.41,-597.92 1312.99,-506.51"/>
</g>
<!-- HS_API_LOGS -->
<g id="node4" class="node">
<title>HS_API_LOGS</title>
<polygon fill="none" stroke="turquoise" points="905.7,-1119.76 902.7,-1123.76 881.7,-1123.76 878.7,-1119.76 610.7,-1119.76 610.7,-1046.76 905.7,-1046.76 905.7,-1119.76"/>
<text text-anchor="start" x="698.7" y="-1100.06" font-family="Times,serif" font-size="14.00">phaidra_api_logs</text>
<text text-anchor="start" x="623.2" y="-1079.06" font-family="Times,serif" font-size="14.00">&#45;&#45;&#45;&#45;&#45;&#45;&#45;&#45;&#45;&#45;&#45;&#45;&#45;&#45;&#45;&#45;&#45;&#45;&#45;&#45;&#45;&#45;&#45;&#45;&#45;&#45;&#45;&#45;&#45;&#45;&#45;&#45;&#45;&#45;&#45;&#45;&#45;&#45;&#45;&#45;&#45;&#45;&#45;&#45;&#45;&#45;&#45;&#45;&#45;&#45;&#45;&#45;&#45;&#45;&#45;&#45;&#45;&#45;&#45;&#45;</text>
<text text-anchor="start" x="650.2" y="-1058.06" font-family="Times,serif" font-size="14.00">api&#45;container: /var/log/phaidra</text>
</g>
<!-- HS_API_LOGS&#45;&#45;C_API -->
<g id="edge2" class="edge">
<title>HS_API_LOGS&#45;&#45;C_API</title>
<path fill="none" stroke="turquoise" d="M610.54,-1103.72C545.77,-1103.39 478.61,-1087.44 452.7,-1029.26 445.16,-1012.33 445.16,-379.19 452.7,-362.26 497.02,-262.74 664.7,-298.97 730.99,-317.79"/>
</g>
<!-- HS_MARIADB_PHAIDRA -->
<g id="node5" class="node">
<title>HS_MARIADB_PHAIDRA</title>
<polygon fill="none" stroke="turquoise" points="919.2,-1567.76 916.2,-1571.76 895.2,-1571.76 892.2,-1567.76 597.2,-1567.76 597.2,-1494.76 919.2,-1494.76 919.2,-1567.76"/>
<text text-anchor="start" x="666.7" y="-1548.06" font-family="Times,serif" font-size="14.00">phaidra_mariadb_phaidra</text>
<text text-anchor="start" x="622.7" y="-1527.06" font-family="Times,serif" font-size="14.00">&#45;&#45;&#45;&#45;&#45;&#45;&#45;&#45;&#45;&#45;&#45;&#45;&#45;&#45;&#45;&#45;&#45;&#45;&#45;&#45;&#45;&#45;&#45;&#45;&#45;&#45;&#45;&#45;&#45;&#45;&#45;&#45;&#45;&#45;&#45;&#45;&#45;&#45;&#45;&#45;&#45;&#45;&#45;&#45;&#45;&#45;&#45;&#45;&#45;&#45;&#45;&#45;&#45;&#45;&#45;&#45;&#45;&#45;&#45;&#45;</text>
<text text-anchor="start" x="609.2" y="-1506.06" font-family="Times,serif" font-size="14.00">mariadb&#45;phaidra&#45;container: /var/lib/mysql</text>
</g>
<!-- C_MARIADB_PHAIDRA -->
<g id="node18" class="node">
<title>C_MARIADB_PHAIDRA</title>
<g id="a_node18"><a xlink:href="https://mariadb.org/" xlink:title="mariadb&#45;phaidra">
<polygon fill="none" stroke="green" points="1212.2,-398.26 1077.2,-398.26 1077.2,-394.26 1073.2,-394.26 1073.2,-390.26 1077.2,-390.26 1077.2,-370.26 1073.2,-370.26 1073.2,-366.26 1077.2,-366.26 1077.2,-362.26 1212.2,-362.26 1212.2,-398.26"/>
<polyline fill="none" stroke="green" points="1077.2,-394.26 1081.2,-394.26 1081.2,-390.26 1077.2,-390.26 "/>
<polyline fill="none" stroke="green" points="1077.2,-370.26 1081.2,-370.26 1081.2,-366.26 1077.2,-366.26 "/>
<text text-anchor="middle" x="1144.7" y="-376.56" font-family="Times,serif" font-size="14.00">mariadb&#45;phaidra</text>
</a>
</g>
</g>
<!-- HS_MARIADB_PHAIDRA&#45;&#45;C_MARIADB_PHAIDRA -->
<g id="edge5" class="edge">
<title>HS_MARIADB_PHAIDRA&#45;&#45;C_MARIADB_PHAIDRA</title>
<path fill="none" stroke="turquoise" d="M919.51,-1544.55C969.6,-1539.86 1020.41,-1524.31 1053.7,-1486.26 1093.18,-1441.14 1039.32,-456.38 1073.7,-407.26 1076.02,-403.95 1078.8,-401.05 1081.9,-398.5"/>
</g>
<!-- HS_MONGODB_PHAIDRA -->
<g id="node6" class="node">
<title>HS_MONGODB_PHAIDRA</title>
<polygon fill="none" stroke="turquoise" points="905.7,-1476.76 902.7,-1480.76 881.7,-1480.76 878.7,-1476.76 610.7,-1476.76 610.7,-1403.76 905.7,-1403.76 905.7,-1476.76"/>
<text text-anchor="start" x="663.7" y="-1457.06" font-family="Times,serif" font-size="14.00">phaidra_mongodb_phaidra</text>
<text text-anchor="start" x="623.2" y="-1436.06" font-family="Times,serif" font-size="14.00">&#45;&#45;&#45;&#45;&#45;&#45;&#45;&#45;&#45;&#45;&#45;&#45;&#45;&#45;&#45;&#45;&#45;&#45;&#45;&#45;&#45;&#45;&#45;&#45;&#45;&#45;&#45;&#45;&#45;&#45;&#45;&#45;&#45;&#45;&#45;&#45;&#45;&#45;&#45;&#45;&#45;&#45;&#45;&#45;&#45;&#45;&#45;&#45;&#45;&#45;&#45;&#45;&#45;&#45;&#45;&#45;&#45;&#45;&#45;&#45;</text>
<text text-anchor="start" x="626.2" y="-1415.06" font-family="Times,serif" font-size="14.00">phaidra&#45;mongodb&#45;container: /data/db</text>
</g>
<!-- C_MONGODB_PHAIDRA -->
<g id="node19" class="node">
<title>C_MONGODB_PHAIDRA</title>
<g id="a_node19"><a xlink:href="https://www.mongodb.com/" xlink:title="mongodb&#45;phaidra">
<polygon fill="none" stroke="green" points="1215.7,-344.26 1073.7,-344.26 1073.7,-340.26 1069.7,-340.26 1069.7,-336.26 1073.7,-336.26 1073.7,-316.26 1069.7,-316.26 1069.7,-312.26 1073.7,-312.26 1073.7,-308.26 1215.7,-308.26 1215.7,-344.26"/>
<polyline fill="none" stroke="green" points="1073.7,-340.26 1077.7,-340.26 1077.7,-336.26 1073.7,-336.26 "/>
<polyline fill="none" stroke="green" points="1073.7,-316.26 1077.7,-316.26 1077.7,-312.26 1073.7,-312.26 "/>
<text text-anchor="middle" x="1144.7" y="-322.56" font-family="Times,serif" font-size="14.00">mongodb&#45;phaidra</text>
</a>
</g>
</g>
<!-- HS_MONGODB_PHAIDRA&#45;&#45;C_MONGODB_PHAIDRA -->
<g id="edge6" class="edge">
<title>HS_MONGODB_PHAIDRA&#45;&#45;C_MONGODB_PHAIDRA</title>
<path fill="none" stroke="turquoise" d="M906.07,-1454.54C960.35,-1451.45 1017.41,-1436.7 1053.7,-1395.26 1091.84,-1351.7 1040.49,-400.69 1073.7,-353.26 1076.02,-349.95 1078.8,-347.05 1081.9,-344.5"/>
</g>
<!-- HS_OPENLDAP -->
<g id="node7" class="node">
<title>HS_OPENLDAP</title>
<polygon fill="none" stroke="turquoise" points="908.2,-1658.76 905.2,-1662.76 884.2,-1662.76 881.2,-1658.76 608.2,-1658.76 608.2,-1585.76 908.2,-1585.76 908.2,-1658.76"/>
<text text-anchor="start" x="694.7" y="-1639.06" font-family="Times,serif" font-size="14.00">phaidra_openldap</text>
<text text-anchor="start" x="622.7" y="-1618.06" font-family="Times,serif" font-size="14.00">&#45;&#45;&#45;&#45;&#45;&#45;&#45;&#45;&#45;&#45;&#45;&#45;&#45;&#45;&#45;&#45;&#45;&#45;&#45;&#45;&#45;&#45;&#45;&#45;&#45;&#45;&#45;&#45;&#45;&#45;&#45;&#45;&#45;&#45;&#45;&#45;&#45;&#45;&#45;&#45;&#45;&#45;&#45;&#45;&#45;&#45;&#45;&#45;&#45;&#45;&#45;&#45;&#45;&#45;&#45;&#45;&#45;&#45;&#45;&#45;</text>
<text text-anchor="start" x="620.2" y="-1597.06" font-family="Times,serif" font-size="14.00">openldap&#45;container: /bitnami/openldap</text>
</g>
<!-- C_OPENLDAP -->
<g id="node21" class="node">
<title>C_OPENLDAP</title>
<g id="a_node21"><a xlink:href="https://www.openldap.org/" xlink:title="openldap">
<polygon fill="none" stroke="green" points="1185.7,-452.26 1103.7,-452.26 1103.7,-448.26 1099.7,-448.26 1099.7,-444.26 1103.7,-444.26 1103.7,-424.26 1099.7,-424.26 1099.7,-420.26 1103.7,-420.26 1103.7,-416.26 1185.7,-416.26 1185.7,-452.26"/>
<polyline fill="none" stroke="green" points="1103.7,-448.26 1107.7,-448.26 1107.7,-444.26 1103.7,-444.26 "/>
<polyline fill="none" stroke="green" points="1103.7,-424.26 1107.7,-424.26 1107.7,-420.26 1103.7,-420.26 "/>
<text text-anchor="middle" x="1144.7" y="-430.56" font-family="Times,serif" font-size="14.00">openldap</text>
</a>
</g>
</g>
<!-- HS_OPENLDAP&#45;&#45;C_OPENLDAP -->
<g id="edge7" class="edge">
<title>HS_OPENLDAP&#45;&#45;C_OPENLDAP</title>
<path fill="none" stroke="turquoise" d="M908.4,-1636.43C961.98,-1633.06 1017.95,-1618.14 1053.7,-1577.26 1094.52,-1530.58 1038.16,-512.08 1073.7,-461.26 1080.72,-451.23 1092.02,-444.92 1103.51,-440.96"/>
</g>
<!-- HS_SOLR -->
<g id="node8" class="node">
<title>HS_SOLR</title>
<polygon fill="none" stroke="turquoise" points="905.7,-1028.76 902.7,-1032.76 881.7,-1032.76 878.7,-1028.76 610.7,-1028.76 610.7,-955.76 905.7,-955.76 905.7,-1028.76"/>
<text text-anchor="start" x="714.2" y="-1009.06" font-family="Times,serif" font-size="14.00">phaidra_solr</text>
<text text-anchor="start" x="623.2" y="-988.06" font-family="Times,serif" font-size="14.00">&#45;&#45;&#45;&#45;&#45;&#45;&#45;&#45;&#45;&#45;&#45;&#45;&#45;&#45;&#45;&#45;&#45;&#45;&#45;&#45;&#45;&#45;&#45;&#45;&#45;&#45;&#45;&#45;&#45;&#45;&#45;&#45;&#45;&#45;&#45;&#45;&#45;&#45;&#45;&#45;&#45;&#45;&#45;&#45;&#45;&#45;&#45;&#45;&#45;&#45;&#45;&#45;&#45;&#45;&#45;&#45;&#45;&#45;&#45;&#45;</text>
<text text-anchor="start" x="674.7" y="-967.06" font-family="Times,serif" font-size="14.00">solr&#45;container: /var/solr</text>
</g>
<!-- C_SOLR -->
<g id="node22" class="node">
<title>C_SOLR</title>
<g id="a_node22"><a xlink:href="https://solr.apache.org/" xlink:title="solr">
<polygon fill="none" stroke="green" points="1171.7,-216.26 1117.7,-216.26 1117.7,-212.26 1113.7,-212.26 1113.7,-208.26 1117.7,-208.26 1117.7,-188.26 1113.7,-188.26 1113.7,-184.26 1117.7,-184.26 1117.7,-180.26 1171.7,-180.26 1171.7,-216.26"/>
<polyline fill="none" stroke="green" points="1117.7,-212.26 1121.7,-212.26 1121.7,-208.26 1117.7,-208.26 "/>
<polyline fill="none" stroke="green" points="1117.7,-188.26 1121.7,-188.26 1121.7,-184.26 1117.7,-184.26 "/>
<text text-anchor="middle" x="1144.7" y="-194.56" font-family="Times,serif" font-size="14.00">solr</text>
</a>
</g>
</g>
<!-- HS_SOLR&#45;&#45;C_SOLR -->
<g id="edge9" class="edge">
<title>HS_SOLR&#45;&#45;C_SOLR</title>
<path fill="none" stroke="turquoise" d="M905.71,-1004.25C960.1,-1000.42 1017.35,-984.97 1053.7,-943.26 1106.14,-883.1 1027.64,-290.43 1073.7,-225.26 1083.7,-211.11 1102.2,-204.38 1117.67,-201.17"/>
</g>
<!-- HS_PIXELGECKO -->
<g id="node9" class="node">
<title>HS_PIXELGECKO</title>
<polygon fill="none" stroke="turquoise" points="948.7,-1882.76 945.7,-1886.76 924.7,-1886.76 921.7,-1882.76 567.7,-1882.76 567.7,-1767.76 948.7,-1767.76 948.7,-1882.76"/>
<text text-anchor="start" x="689.7" y="-1863.06" font-family="Times,serif" font-size="14.00">phaidra_pixelgecko</text>
<text text-anchor="start" x="623.2" y="-1842.06" font-family="Times,serif" font-size="14.00">&#45;&#45;&#45;&#45;&#45;&#45;&#45;&#45;&#45;&#45;&#45;&#45;&#45;&#45;&#45;&#45;&#45;&#45;&#45;&#45;&#45;&#45;&#45;&#45;&#45;&#45;&#45;&#45;&#45;&#45;&#45;&#45;&#45;&#45;&#45;&#45;&#45;&#45;&#45;&#45;&#45;&#45;&#45;&#45;&#45;&#45;&#45;&#45;&#45;&#45;&#45;&#45;&#45;&#45;&#45;&#45;&#45;&#45;&#45;&#45;</text>
<text text-anchor="start" x="596.7" y="-1821.06" font-family="Times,serif" font-size="14.00">pixelgecko&#45;container: /mnt/converted_images</text>
<text text-anchor="start" x="623.2" y="-1800.06" font-family="Times,serif" font-size="14.00">&#45;&#45;&#45;&#45;&#45;&#45;&#45;&#45;&#45;&#45;&#45;&#45;&#45;&#45;&#45;&#45;&#45;&#45;&#45;&#45;&#45;&#45;&#45;&#45;&#45;&#45;&#45;&#45;&#45;&#45;&#45;&#45;&#45;&#45;&#45;&#45;&#45;&#45;&#45;&#45;&#45;&#45;&#45;&#45;&#45;&#45;&#45;&#45;&#45;&#45;&#45;&#45;&#45;&#45;&#45;&#45;&#45;&#45;&#45;&#45;</text>
<text text-anchor="start" x="580.2" y="-1779.06" font-family="Times,serif" font-size="14.00">imageserver&#45;container: /mnt/converted_images:ro</text>
</g>
<!-- C_IMAGESERVER -->
<g id="node23" class="node">
<title>C_IMAGESERVER</title>
<g id="a_node23"><a xlink:href="https://github.com/ruven/iipsrv" xlink:title="imageserver">
<polygon fill="none" stroke="green" points="1197.7,-506.26 1091.7,-506.26 1091.7,-502.26 1087.7,-502.26 1087.7,-498.26 1091.7,-498.26 1091.7,-478.26 1087.7,-478.26 1087.7,-474.26 1091.7,-474.26 1091.7,-470.26 1197.7,-470.26 1197.7,-506.26"/>
<polyline fill="none" stroke="green" points="1091.7,-502.26 1095.7,-502.26 1095.7,-498.26 1091.7,-498.26 "/>
<polyline fill="none" stroke="green" points="1091.7,-478.26 1095.7,-478.26 1095.7,-474.26 1091.7,-474.26 "/>
<text text-anchor="middle" x="1144.7" y="-484.56" font-family="Times,serif" font-size="14.00">imageserver</text>
</a>
</g>
</g>
<!-- HS_PIXELGECKO&#45;&#45;C_IMAGESERVER -->
<g id="edge10" class="edge">
<title>HS_PIXELGECKO&#45;&#45;C_IMAGESERVER</title>
<path fill="none" stroke="turquoise" d="M948.93,-1819.05C988.82,-1808.71 1026.88,-1790.44 1053.7,-1759.26 1074.33,-1735.28 1071.47,-1506.82 1073.7,-1475.26 1101.37,-1083.71 1135.41,-604.8 1142.41,-506.43"/>
</g>
<!-- HS_PIXELGECKO&#45;&#45;C_PIXELGECKO -->
<g id="edge12" class="edge">
<title>HS_PIXELGECKO&#45;&#45;C_PIXELGECKO</title>
<path fill="none" stroke="turquoise" d="M948.76,-1814.78C987.58,-1804.46 1025.22,-1787.28 1053.7,-1759.26 1243.37,-1572.68 1304.4,-648.02 1312.68,-506.46"/>
</g>
<!-- HS_DBGATE -->
<g id="node10" class="node">
<title>HS_DBGATE</title>
<polygon fill="none" stroke="turquoise" points="905.7,-1210.76 902.7,-1214.76 881.7,-1214.76 878.7,-1210.76 610.7,-1210.76 610.7,-1137.76 905.7,-1137.76 905.7,-1210.76"/>
<text text-anchor="start" x="702.7" y="-1191.06" font-family="Times,serif" font-size="14.00">phaidra_dbgate</text>
<text text-anchor="start" x="623.2" y="-1170.06" font-family="Times,serif" font-size="14.00">&#45;&#45;&#45;&#45;&#45;&#45;&#45;&#45;&#45;&#45;&#45;&#45;&#45;&#45;&#45;&#45;&#45;&#45;&#45;&#45;&#45;&#45;&#45;&#45;&#45;&#45;&#45;&#45;&#45;&#45;&#45;&#45;&#45;&#45;&#45;&#45;&#45;&#45;&#45;&#45;&#45;&#45;&#45;&#45;&#45;&#45;&#45;&#45;&#45;&#45;&#45;&#45;&#45;&#45;&#45;&#45;&#45;&#45;&#45;&#45;</text>
<text text-anchor="start" x="647.2" y="-1149.06" font-family="Times,serif" font-size="14.00">dbgate&#45;container: /root/.dbgate</text>
</g>
<!-- C_DBGATE -->
<g id="node25" class="node">
<title>C_DBGATE</title>
<polygon fill="none" stroke="green" points="791.2,-398.26 725.2,-398.26 725.2,-394.26 721.2,-394.26 721.2,-390.26 725.2,-390.26 725.2,-370.26 721.2,-370.26 721.2,-366.26 725.2,-366.26 725.2,-362.26 791.2,-362.26 791.2,-398.26"/>
<polyline fill="none" stroke="green" points="725.2,-394.26 729.2,-394.26 729.2,-390.26 725.2,-390.26 "/>
<polyline fill="none" stroke="green" points="725.2,-370.26 729.2,-370.26 729.2,-366.26 725.2,-366.26 "/>
<text text-anchor="middle" x="758.2" y="-376.56" font-family="Times,serif" font-size="14.00">dbgate</text>
</g>
<!-- HS_DBGATE&#45;&#45;C_DBGATE -->
<g id="edge13" class="edge">
<title>HS_DBGATE&#45;&#45;C_DBGATE</title>
<path fill="none" stroke="turquoise" d="M610.54,-1194.72C545.77,-1194.39 478.61,-1178.44 452.7,-1120.26 440,-1091.74 440,-586.78 452.7,-558.26 501.96,-447.65 656.68,-401.82 725.1,-386.61"/>
</g>
<!-- HS_MARIADB_FEDORA -->
<g id="node11" class="node">
<title>HS_MARIADB_FEDORA</title>
<polygon fill="none" stroke="turquoise" points="914.7,-1749.76 911.7,-1753.76 890.7,-1753.76 887.7,-1749.76 601.7,-1749.76 601.7,-1676.76 914.7,-1676.76 914.7,-1749.76"/>
<text text-anchor="start" x="671.7" y="-1730.06" font-family="Times,serif" font-size="14.00">phaidra_mariadb_fedora</text>
<text text-anchor="start" x="623.2" y="-1709.06" font-family="Times,serif" font-size="14.00">&#45;&#45;&#45;&#45;&#45;&#45;&#45;&#45;&#45;&#45;&#45;&#45;&#45;&#45;&#45;&#45;&#45;&#45;&#45;&#45;&#45;&#45;&#45;&#45;&#45;&#45;&#45;&#45;&#45;&#45;&#45;&#45;&#45;&#45;&#45;&#45;&#45;&#45;&#45;&#45;&#45;&#45;&#45;&#45;&#45;&#45;&#45;&#45;&#45;&#45;&#45;&#45;&#45;&#45;&#45;&#45;&#45;&#45;&#45;&#45;</text>
<text text-anchor="start" x="614.2" y="-1688.06" font-family="Times,serif" font-size="14.00">mariadb&#45;fedora&#45;container: /var/lib/mysql</text>
</g>
<!-- C_MARIADB_FEDORA -->
<g id="node27" class="node">
<title>C_MARIADB_FEDORA</title>
<g id="a_node27"><a xlink:href="https://mariadb.org/" xlink:title="mariadb&#45;fedora">
<polygon fill="none" stroke="green" points="1377.7,-307.26 1251.7,-307.26 1251.7,-303.26 1247.7,-303.26 1247.7,-299.26 1251.7,-299.26 1251.7,-279.26 1247.7,-279.26 1247.7,-275.26 1251.7,-275.26 1251.7,-271.26 1377.7,-271.26 1377.7,-307.26"/>
<polyline fill="none" stroke="green" points="1251.7,-303.26 1255.7,-303.26 1255.7,-299.26 1251.7,-299.26 "/>
<polyline fill="none" stroke="green" points="1251.7,-279.26 1255.7,-279.26 1255.7,-275.26 1251.7,-275.26 "/>
<text text-anchor="middle" x="1314.7" y="-285.56" font-family="Times,serif" font-size="14.00">mariadb&#45;fedora</text>
</a>
</g>
</g>
<!-- HS_MARIADB_FEDORA&#45;&#45;C_MARIADB_FEDORA -->
<g id="edge14" class="edge">
<title>HS_MARIADB_FEDORA&#45;&#45;C_MARIADB_FEDORA</title>
<path fill="none" stroke="turquoise" d="M914.82,-1726.13C966.06,-1721.81 1018.79,-1706.6 1053.7,-1668.26 1079.48,-1639.95 1068.71,-1362.22 1073.7,-1324.26 1124.76,-935.97 1145.47,-838.21 1251.7,-461.26 1267.84,-403.98 1293.6,-338.34 1306.23,-307.31"/>
</g>
<!-- BIND_MARIADB_PHAIDRA_INIT -->
<g id="node12" class="node">
<title>BIND_MARIADB_PHAIDRA_INIT</title>
<polygon fill="none" stroke="blue" points="1037.7,-816.76 1034.7,-820.76 1013.7,-820.76 1010.7,-816.76 478.7,-816.76 478.7,-743.76 1037.7,-743.76 1037.7,-816.76"/>
<text text-anchor="start" x="584.2" y="-797.06" font-family="Times,serif" font-size="14.00">container_components/mariadb/phaidradb.sql.gz</text>
<text text-anchor="start" x="623.2" y="-776.06" font-family="Times,serif" font-size="14.00">&#45;&#45;&#45;&#45;&#45;&#45;&#45;&#45;&#45;&#45;&#45;&#45;&#45;&#45;&#45;&#45;&#45;&#45;&#45;&#45;&#45;&#45;&#45;&#45;&#45;&#45;&#45;&#45;&#45;&#45;&#45;&#45;&#45;&#45;&#45;&#45;&#45;&#45;&#45;&#45;&#45;&#45;&#45;&#45;&#45;&#45;&#45;&#45;&#45;&#45;&#45;&#45;&#45;&#45;&#45;&#45;&#45;&#45;&#45;&#45;</text>
<text text-anchor="start" x="491.2" y="-755.06" font-family="Times,serif" font-size="14.00">mariadb&#45;phaidra&#45;container: /docker&#45;entrypoint&#45;initdb.d/phaidradb.sql.gz:ro</text>
</g>
<!-- BIND_MARIADB_PHAIDRA_INIT&#45;&#45;C_MARIADB_PHAIDRA -->
<g id="edge4" class="edge">
<title>BIND_MARIADB_PHAIDRA_INIT&#45;&#45;C_MARIADB_PHAIDRA</title>
<path fill="none" stroke="blue" d="M1037.77,-750.22C1043.4,-745.68 1048.73,-740.7 1053.7,-735.26 1102.94,-681.34 1030.57,-466.19 1073.7,-407.26 1076.16,-403.9 1079.1,-400.95 1082.36,-398.37"/>
</g>
<!-- BIND_OPENLDAP_INIT -->
<g id="node13" class="node">
<title>BIND_OPENLDAP_INIT</title>
<polygon fill="none" stroke="blue" points="905.7,-907.76 902.7,-911.76 881.7,-911.76 878.7,-907.76 610.7,-907.76 610.7,-834.76 905.7,-834.76 905.7,-907.76"/>
<text text-anchor="start" x="643.2" y="-888.06" font-family="Times,serif" font-size="14.00">container_components/openldap</text>
<text text-anchor="start" x="623.2" y="-867.06" font-family="Times,serif" font-size="14.00">&#45;&#45;&#45;&#45;&#45;&#45;&#45;&#45;&#45;&#45;&#45;&#45;&#45;&#45;&#45;&#45;&#45;&#45;&#45;&#45;&#45;&#45;&#45;&#45;&#45;&#45;&#45;&#45;&#45;&#45;&#45;&#45;&#45;&#45;&#45;&#45;&#45;&#45;&#45;&#45;&#45;&#45;&#45;&#45;&#45;&#45;&#45;&#45;&#45;&#45;&#45;&#45;&#45;&#45;&#45;&#45;&#45;&#45;&#45;&#45;</text>
<text text-anchor="start" x="657.7" y="-846.06" font-family="Times,serif" font-size="14.00">openldap&#45;container: /ldifs:ro</text>
</g>
<!-- BIND_OPENLDAP_INIT&#45;&#45;C_OPENLDAP -->
<g id="edge8" class="edge">
<title>BIND_OPENLDAP_INIT&#45;&#45;C_OPENLDAP</title>
<path fill="none" stroke="blue" d="M905.71,-884.86C959.76,-881.62 1016.77,-866.95 1053.7,-826.26 1108.29,-766.11 1025.93,-526.96 1073.7,-461.26 1080.82,-451.46 1092.01,-445.22 1103.37,-441.24"/>
</g>
<!-- BIND_NGINX_SITE_CONFIG -->
<g id="node14" class="node">
<title>BIND_NGINX_SITE_CONFIG</title>
<polygon fill="none" stroke="blue" points="913.2,-725.76 910.2,-729.76 889.2,-729.76 886.2,-725.76 603.2,-725.76 603.2,-652.76 913.2,-652.76 913.2,-725.76"/>
<text text-anchor="start" x="621.7" y="-706.06" font-family="Times,serif" font-size="14.00">webserver_configs/nginx&#45;docker/demo</text>
<text text-anchor="start" x="622.7" y="-685.06" font-family="Times,serif" font-size="14.00">&#45;&#45;&#45;&#45;&#45;&#45;&#45;&#45;&#45;&#45;&#45;&#45;&#45;&#45;&#45;&#45;&#45;&#45;&#45;&#45;&#45;&#45;&#45;&#45;&#45;&#45;&#45;&#45;&#45;&#45;&#45;&#45;&#45;&#45;&#45;&#45;&#45;&#45;&#45;&#45;&#45;&#45;&#45;&#45;&#45;&#45;&#45;&#45;&#45;&#45;&#45;&#45;&#45;&#45;&#45;&#45;&#45;&#45;&#45;&#45;</text>
<text text-anchor="start" x="615.2" y="-664.06" font-family="Times,serif" font-size="14.00">nginx&#45;container: /etc/nginx/templates:ro</text>
</g>
<!-- BIND_NGINX_SERVER_CONFIG -->
<g id="node15" class="node">
<title>BIND_NGINX_SERVER_CONFIG</title>
<polygon fill="none" stroke="blue" points="946.2,-634.76 943.2,-638.76 922.2,-638.76 919.2,-634.76 570.2,-634.76 570.2,-561.76 946.2,-561.76 946.2,-634.76"/>
<text text-anchor="start" x="582.2" y="-615.06" font-family="Times,serif" font-size="14.00">webserver_configs/nginx&#45;docker/demo/nginx.conf</text>
<text text-anchor="start" x="622.7" y="-594.06" font-family="Times,serif" font-size="14.00">&#45;&#45;&#45;&#45;&#45;&#45;&#45;&#45;&#45;&#45;&#45;&#45;&#45;&#45;&#45;&#45;&#45;&#45;&#45;&#45;&#45;&#45;&#45;&#45;&#45;&#45;&#45;&#45;&#45;&#45;&#45;&#45;&#45;&#45;&#45;&#45;&#45;&#45;&#45;&#45;&#45;&#45;&#45;&#45;&#45;&#45;&#45;&#45;&#45;&#45;&#45;&#45;&#45;&#45;&#45;&#45;&#45;&#45;&#45;&#45;</text>
<text text-anchor="start" x="613.7" y="-573.06" font-family="Times,serif" font-size="14.00">nginx&#45;container: /etc/nginx/nginx.conf:ro</text>
</g>
<!-- C_FEDORA&#45;&#45;C_MARIADB_FEDORA -->
<g id="edge17" class="edge">
<title>C_FEDORA&#45;&#45;C_MARIADB_FEDORA</title>
<path fill="none" stroke="orange" d="M1175.73,-258.87C1196.78,-263.51 1225.67,-269.87 1251.57,-275.58"/>
</g>
<!-- C_API&#45;&#45;C_FEDORA -->
<g id="edge18" class="edge">
<title>C_API&#45;&#45;C_FEDORA</title>
<path fill="none" stroke="orange" d="M785.33,-322.44C836.89,-314.75 955.26,-296.33 1053.7,-275.26 1073.73,-270.97 1096.03,-265.28 1113.43,-260.63"/>
</g>
<!-- C_API&#45;&#45;C_MARIADB_PHAIDRA -->
<g id="edge19" class="edge">
<title>C_API&#45;&#45;C_MARIADB_PHAIDRA</title>
<path fill="none" stroke="orange" d="M785.45,-326.91C837.21,-328.57 955.91,-334.31 1053.7,-353.26 1065.55,-355.56 1078.07,-358.78 1089.88,-362.21"/>
</g>
<!-- C_API&#45;&#45;C_MONGODB_PHAIDRA -->
<g id="edge20" class="edge">
<title>C_API&#45;&#45;C_MONGODB_PHAIDRA</title>
<path fill="none" stroke="orange" d="M785.33,-326.26C843.81,-326.26 986.91,-326.26 1073.56,-326.26"/>
</g>
<!-- C_UI -->
<g id="node20" class="node">
<title>C_UI</title>
<g id="a_node20"><a xlink:href="https://github.com/phaidra/phaidra-ui" xlink:title="ui">
<polygon fill="none" stroke="green" points="1171.7,-162.26 1117.7,-162.26 1117.7,-158.26 1113.7,-158.26 1113.7,-154.26 1117.7,-154.26 1117.7,-134.26 1113.7,-134.26 1113.7,-130.26 1117.7,-130.26 1117.7,-126.26 1171.7,-126.26 1171.7,-162.26"/>
<polyline fill="none" stroke="green" points="1117.7,-158.26 1121.7,-158.26 1121.7,-154.26 1117.7,-154.26 "/>
<polyline fill="none" stroke="green" points="1117.7,-134.26 1121.7,-134.26 1121.7,-130.26 1117.7,-130.26 "/>
<text text-anchor="middle" x="1144.7" y="-140.56" font-family="Times,serif" font-size="14.00">ui</text>
</a>
</g>
</g>
<!-- C_API&#45;&#45;C_UI -->
<g id="edge21" class="edge">
<title>C_API&#45;&#45;C_UI</title>
<path fill="none" stroke="orange" d="M785.49,-318.42C839.38,-301.53 964.76,-257.92 1053.7,-193.26 1064.39,-185.49 1062.8,-178.73 1073.7,-171.26 1087.03,-162.13 1103.87,-155.51 1117.69,-151.11"/>
</g>
<!-- C_API&#45;&#45;C_OPENLDAP -->
<g id="edge22" class="edge">
<title>C_API&#45;&#45;C_OPENLDAP</title>
<path fill="none" stroke="orange" d="M785.27,-320.27C840.96,-309.09 973,-291.43 1053.7,-353.26 1074.02,-368.83 1055.72,-389.04 1073.7,-407.26 1081.84,-415.51 1092.78,-421.29 1103.59,-425.32"/>
</g>
<!-- C_API&#45;&#45;C_SOLR -->
<g id="edge23" class="edge">
<title>C_API&#45;&#45;C_SOLR</title>
<path fill="none" stroke="orange" d="M785.31,-321.09C837.82,-310.14 959.26,-281.96 1053.7,-238.26 1063.32,-233.81 1064.26,-230.08 1073.7,-225.26 1087.74,-218.09 1104.14,-211.67 1117.54,-206.89"/>
</g>
<!-- C_API&#45;&#45;C_IMAGESERVER -->
<g id="edge24" class="edge">
<title>C_API&#45;&#45;C_IMAGESERVER</title>
<path fill="none" stroke="orange" d="M785.27,-319.44C842.13,-306.28 978.22,-284.4 1053.7,-353.26 1089.76,-386.16 1042.52,-423.7 1073.7,-461.26 1078.53,-467.07 1084.76,-471.64 1091.51,-475.22"/>
</g>
<!-- C_MONGODB_PHAIDRA&#45;&#45;C_PIXELGECKO -->
<g id="edge25" class="edge">
<title>C_MONGODB_PHAIDRA&#45;&#45;C_PIXELGECKO</title>
<path fill="none" stroke="orange" d="M1201.57,-344.33C1206.57,-346.96 1211.36,-349.93 1215.7,-353.26 1257.94,-385.74 1290.09,-441.27 1304.83,-469.94"/>
</g>
<!-- C_LAM -->
<g id="node26" class="node">
<title>C_LAM</title>
<polygon fill="none" stroke="green" points="1341.7,-198.26 1287.7,-198.26 1287.7,-194.26 1283.7,-194.26 1283.7,-190.26 1287.7,-190.26 1287.7,-170.26 1283.7,-170.26 1283.7,-166.26 1287.7,-166.26 1287.7,-162.26 1341.7,-162.26 1341.7,-198.26"/>
<polyline fill="none" stroke="green" points="1287.7,-194.26 1291.7,-194.26 1291.7,-190.26 1287.7,-190.26 "/>
<polyline fill="none" stroke="green" points="1287.7,-170.26 1291.7,-170.26 1291.7,-166.26 1287.7,-166.26 "/>
<text text-anchor="middle" x="1314.7" y="-176.56" font-family="Times,serif" font-size="14.00">lam</text>
</g>
<!-- C_OPENLDAP&#45;&#45;C_LAM -->
<g id="edge26" class="edge">
<title>C_OPENLDAP&#45;&#45;C_LAM</title>
<path fill="none" stroke="orange" d="M1186.04,-426.01C1196.99,-422 1207.94,-416.05 1215.7,-407.26 1259.63,-357.47 1223.09,-322.18 1251.7,-262.26 1263.23,-238.1 1282.54,-214.1 1296.55,-198.37"/>
</g>
<!-- C_DBGATE&#45;&#45;C_MARIADB_PHAIDRA -->
<g id="edge27" class="edge">
<title>C_DBGATE&#45;&#45;C_MARIADB_PHAIDRA</title>
<path fill="none" stroke="orange" d="M791.32,-380.26C853.95,-380.26 993.54,-380.26 1077.01,-380.26"/>
</g>
<!-- C_DBGATE&#45;&#45;C_MONGODB_PHAIDRA -->
<g id="edge28" class="edge">
<title>C_DBGATE&#45;&#45;C_MONGODB_PHAIDRA</title>
<path fill="none" stroke="orange" d="M791.31,-379.41C845.75,-377.51 959.44,-371.53 1053.7,-353.26 1065.55,-350.96 1078.07,-347.74 1089.88,-344.31"/>
</g>
<!-- C_DBGATE&#45;&#45;C_MARIADB_FEDORA -->
<g id="edge29" class="edge">
<title>C_DBGATE&#45;&#45;C_MARIADB_FEDORA</title>
<path fill="none" stroke="orange" d="M791.46,-387.46C850.23,-398.58 975.86,-412.9 1053.7,-353.26 1074.02,-337.69 1053,-314.31 1073.7,-299.26 1101.02,-279.39 1189.87,-280.66 1251.44,-284.28"/>
</g>
<!-- WEBSERVER&#45;&#45;BIND_NGINX_SITE_CONFIG -->
<g id="edge15" class="edge">
<title>WEBSERVER&#45;&#45;BIND_NGINX_SITE_CONFIG</title>
<path fill="none" stroke="blue" d="M341.49,-316.53C343.46,-374.8 358.07,-557.49 462.7,-644.26 501.52,-676.45 553.48,-690.65 602.96,-695.89"/>
</g>
<!-- WEBSERVER&#45;&#45;BIND_NGINX_SERVER_CONFIG -->
<g id="edge16" class="edge">
<title>WEBSERVER&#45;&#45;BIND_NGINX_SERVER_CONFIG</title>
<path fill="none" stroke="blue" d="M344.58,-316.39C354.11,-362.15 385.68,-482.81 462.7,-541.26 493.71,-564.79 531.72,-579.44 570,-588.39"/>
</g>
<!-- WEBSERVER&#45;&#45;C_FEDORA -->
<g id="edge30" class="edge">
<title>WEBSERVER&#45;&#45;C_FEDORA</title>
<path fill="none" stroke="magenta" d="M369.77,-296.62C493.88,-289.51 985.81,-261.31 1113.36,-254"/>
</g>
<!-- WEBSERVER&#45;&#45;C_API -->
<g id="edge31" class="edge">
<title>WEBSERVER&#45;&#45;C_API</title>
<path fill="none" stroke="magenta" d="M369.8,-300.18C446.72,-305.36 657.19,-319.53 731.11,-324.5"/>
</g>
<!-- WEBSERVER&#45;&#45;C_UI -->
<g id="edge32" class="edge">
<title>WEBSERVER&#45;&#45;C_UI</title>
<path fill="none" stroke="magenta" d="M369.97,-299.77C392.68,-299.35 423.62,-294.91 442.7,-276.26 469.84,-249.74 433.75,-217.79 462.7,-193.26 563.52,-107.8 1005.44,-134.05 1117.7,-142.23"/>
</g>
<!-- WEBSERVER&#45;&#45;C_SOLR -->
<g id="edge33" class="edge">
<title>WEBSERVER&#45;&#45;C_SOLR</title>
<path fill="none" stroke="magenta" d="M370.11,-296.86C391.44,-294.71 420.51,-289.39 442.7,-276.26 454.36,-269.36 450.61,-259.37 462.7,-253.26 580.35,-193.82 1007,-196.13 1117.45,-197.78"/>
</g>
<!-- WEBSERVER&#45;&#45;C_DBGATE -->
<g id="edge34" class="edge">
<title>WEBSERVER&#45;&#45;C_DBGATE</title>
<path fill="none" stroke="magenta" d="M370.15,-314.69C394.14,-327.49 429.57,-344.51 462.7,-353.26 555.53,-377.78 669.88,-380.89 724.78,-380.78"/>
</g>
<!-- WEBSERVER&#45;&#45;C_LAM -->
<g id="edge35" class="edge">
<title>WEBSERVER&#45;&#45;C_LAM</title>
<path fill="none" stroke="magenta" d="M370.03,-300.29C393.09,-300.21 424.48,-296 442.7,-276.26 488.02,-227.16 412.77,-171.66 462.7,-127.26 712.81,95.16 894.57,-22.94 1215.7,-117.26 1245.39,-125.98 1274.6,-146.78 1293.29,-162.11"/>
</g>
</g>
</svg>
