<?xml version="1.0" encoding="UTF-8" standalone="no"?>
<!DOCTYPE svg PUBLIC "-//W3C//DTD SVG 1.1//EN"
 "http://www.w3.org/Graphics/SVG/1.1/DTD/svg11.dtd">
<!-- Generated by graphviz version 2.43.0 (0)
 -->
<!-- Title: G Pages: 1 -->
<svg width="1786pt" height="2063pt"
 viewBox="0.00 0.00 1785.72 2063.00" xmlns="http://www.w3.org/2000/svg" xmlns:xlink="http://www.w3.org/1999/xlink">
<g id="graph0" class="graph" transform="scale(1 1) rotate(0) translate(4 2059)">
<title>G</title>
<polygon fill="white" stroke="transparent" points="-4,4 -4,-2059 1781.72,-2059 1781.72,4 -4,4"/>
<g id="clust1" class="cluster">
<title>cluster_host</title>
<polygon fill="none" stroke="red" points="221.72,-8 221.72,-2047 1769.72,-2047 1769.72,-8 221.72,-8"/>
<text text-anchor="middle" x="995.72" y="-2031.8" font-family="Times,serif" font-size="14.00">PHAIDRA server firewall</text>
</g>
<g id="clust2" class="cluster">
<title>cluster_host_storage</title>
<polygon fill="none" stroke="blue" points="420.72,-463 420.72,-2016 1215.72,-2016 1215.72,-463 420.72,-463"/>
<text text-anchor="middle" x="818.22" y="-2000.8" font-family="Times,serif" font-size="14.00">PHAIDRA server filesystem</text>
</g>
<g id="clust3" class="cluster">
<title>cluster_named_volumes</title>
<polygon fill="none" stroke="turquoise" points="428.72,-1270 428.72,-1985 1207.72,-1985 1207.72,-1270 428.72,-1270"/>
<text text-anchor="middle" x="818.22" y="-1969.8" font-family="Times,serif" font-size="14.00">Named volumes</text>
</g>
<g id="clust4" class="cluster">
<title>cluster_bind_mounts</title>
<polygon fill="none" stroke="blue" points="495.22,-471 495.22,-1262 1141.22,-1262 1141.22,-471 495.22,-471"/>
<text text-anchor="middle" x="818.22" y="-1246.8" font-family="Times,serif" font-size="14.00">Bind mounts</text>
</g>
<g id="clust5" class="cluster">
<title>cluster_docker_network_host</title>
<polygon fill="none" stroke="green" points="229.72,-16 229.72,-455 1761.72,-455 1761.72,-16 229.72,-16"/>
<text text-anchor="middle" x="995.72" y="-439.8" font-family="Times,serif" font-size="14.00">PHAIDRA docker containers</text>
</g>
<!-- USER -->
<g id="node1" class="node">
<title>USER</title>
<polygon fill="none" stroke="black" points="193.59,-398.54 193.59,-413.46 139.27,-424 62.45,-424 8.13,-413.46 8.13,-398.54 62.45,-388 139.27,-388 193.59,-398.54"/>
<polygon fill="none" stroke="black" points="197.59,-395.25 197.59,-416.75 139.66,-428 62.07,-428 4.13,-416.75 4.13,-395.25 62.07,-384 139.66,-384 197.59,-395.25"/>
<polygon fill="none" stroke="black" points="201.58,-391.95 201.58,-420.05 140.04,-432 61.68,-432 0.14,-420.05 0.14,-391.95 61.68,-380 140.04,-380 201.58,-391.95"/>
<text text-anchor="middle" x="100.86" y="-402.3" font-family="Times,serif" font-size="14.00">PHAIDRA USER</text>
</g>
<!-- WEBSERVER -->
<g id="node34" class="node">
<title>WEBSERVER</title>
<polygon fill="none" stroke="green" points="400.72,-424 237.72,-424 237.72,-420 233.72,-420 233.72,-416 237.72,-416 237.72,-396 233.72,-396 233.72,-392 237.72,-392 237.72,-388 400.72,-388 400.72,-424"/>
<polyline fill="none" stroke="green" points="237.72,-420 241.72,-420 241.72,-416 237.72,-416 "/>
<polyline fill="none" stroke="green" points="237.72,-396 241.72,-396 241.72,-392 237.72,-392 "/>
<text text-anchor="middle" x="319.22" y="-402.3" font-family="Times,serif" font-size="14.00">phaidra&#45;shib&#45;httpd&#45;1</text>
</g>
<!-- USER&#45;&#45;WEBSERVER -->
<g id="edge43" class="edge">
<title>USER&#45;&#45;WEBSERVER</title>
<path fill="none" stroke="red" d="M201.81,-406C213.77,-406 225.86,-406 237.5,-406"/>
</g>
<!-- HS_FEDORA -->
<g id="node2" class="node">
<title>HS_FEDORA</title>
<polygon fill="none" stroke="turquoise" points="1134.22,-1722 1131.22,-1726 1110.22,-1726 1107.22,-1722 502.22,-1722 502.22,-1628 1134.22,-1628 1134.22,-1722"/>
<text text-anchor="start" x="514.22" y="-1703.8" font-family="Times,serif" font-weight="bold" font-size="14.00">host:</text>
<text text-anchor="start" x="673.22" y="-1702.8" font-family="Times,serif" font-size="14.00">$HOME/.local/share/docker/volumes/phaidra&#45;shib_fedora/_data</text>
<text text-anchor="start" x="514.22" y="-1681.8" font-family="Times,serif" font-size="14.00">fedora&#45;container:</text>
<text text-anchor="start" x="673.22" y="-1681.8" font-family="Times,serif" font-size="14.00">/usr/local/tomcat/fcrepo&#45;home</text>
<text text-anchor="start" x="514.22" y="-1660.8" font-family="Times,serif" font-size="14.00">pixelgecko&#45;container:</text>
<text text-anchor="start" x="673.22" y="-1660.8" font-family="Times,serif" font-size="14.00"> /mnt/fedora:ro</text>
<text text-anchor="start" x="514.22" y="-1639.8" font-family="Times,serif" font-size="14.00">api&#45;container:</text>
<text text-anchor="start" x="673.22" y="-1639.8" font-family="Times,serif" font-size="14.00"> /mnt/fedora:ro</text>
</g>
<!-- C_FEDORA -->
<g id="node22" class="node">
<title>C_FEDORA</title>
<g id="a_node22"><a xlink:href="https://fedora.lyrasis.org/" xlink:title="phaidra&#45;shib&#45;fedora&#45;1">
<polygon fill="none" stroke="green" points="1445.22,-370 1275.22,-370 1275.22,-366 1271.22,-366 1271.22,-362 1275.22,-362 1275.22,-342 1271.22,-342 1271.22,-338 1275.22,-338 1275.22,-334 1445.22,-334 1445.22,-370"/>
<polyline fill="none" stroke="green" points="1275.22,-366 1279.22,-366 1279.22,-362 1275.22,-362 "/>
<polyline fill="none" stroke="green" points="1275.22,-342 1279.22,-342 1279.22,-338 1275.22,-338 "/>
<text text-anchor="middle" x="1360.22" y="-348.3" font-family="Times,serif" font-size="14.00">phaidra&#45;shib&#45;fedora&#45;1</text>
</a>
</g>
</g>
<!-- HS_FEDORA&#45;&#45;C_FEDORA -->
<g id="edge1" class="edge">
<title>HS_FEDORA&#45;&#45;C_FEDORA</title>
<path fill="none" stroke="turquoise" d="M1134.44,-1674.08C1165.31,-1661.98 1193.41,-1644.28 1215.72,-1619 1261.32,-1567.35 1192.09,-432.32 1235.72,-379 1245.73,-366.77 1259.88,-359.29 1275.04,-354.84"/>
</g>
<!-- C_API -->
<g id="node23" class="node">
<title>C_API</title>
<g id="a_node23"><a xlink:href="https://github.com/phaidra/phaidra-api" xlink:title="phaidra&#45;shib&#45;api&#45;1">
<polygon fill="none" stroke="green" points="891.22,-370 745.22,-370 745.22,-366 741.22,-366 741.22,-362 745.22,-362 745.22,-342 741.22,-342 741.22,-338 745.22,-338 745.22,-334 891.22,-334 891.22,-370"/>
<polyline fill="none" stroke="green" points="745.22,-366 749.22,-366 749.22,-362 745.22,-362 "/>
<polyline fill="none" stroke="green" points="745.22,-342 749.22,-342 749.22,-338 745.22,-338 "/>
<text text-anchor="middle" x="818.22" y="-348.3" font-family="Times,serif" font-size="14.00">phaidra&#45;shib&#45;api&#45;1</text>
</a>
</g>
</g>
<!-- HS_FEDORA&#45;&#45;C_API -->
<g id="edge3" class="edge">
<title>HS_FEDORA&#45;&#45;C_API</title>
<path fill="none" stroke="turquoise" d="M501.98,-1689.5C462.01,-1675.31 428.79,-1650.58 410.72,-1610 397.91,-1581.22 397.91,-504.78 410.72,-476 464.65,-354.91 642.84,-342.6 744.84,-346.1"/>
</g>
<!-- C_PIXELGECKO -->
<g id="node30" class="node">
<title>C_PIXELGECKO</title>
<polygon fill="none" stroke="green" points="1737.22,-424 1537.22,-424 1537.22,-420 1533.22,-420 1533.22,-416 1537.22,-416 1537.22,-396 1533.22,-396 1533.22,-392 1537.22,-392 1537.22,-388 1737.22,-388 1737.22,-424"/>
<polyline fill="none" stroke="green" points="1537.22,-420 1541.22,-420 1541.22,-416 1537.22,-416 "/>
<polyline fill="none" stroke="green" points="1537.22,-396 1541.22,-396 1541.22,-392 1537.22,-392 "/>
<text text-anchor="middle" x="1637.22" y="-402.3" font-family="Times,serif" font-size="14.00">phaidra&#45;shib&#45;pixelgecko&#45;1</text>
</g>
<!-- HS_FEDORA&#45;&#45;C_PIXELGECKO -->
<g id="edge12" class="edge">
<title>HS_FEDORA&#45;&#45;C_PIXELGECKO</title>
<path fill="none" stroke="turquoise" d="M1134.54,-1663.93C1163.97,-1653.34 1191.7,-1638.77 1215.72,-1619 1617.97,-1287.89 1636.23,-550.13 1636.36,-424.39"/>
</g>
<!-- HS_API_LOGS -->
<g id="node3" class="node">
<title>HS_API_LOGS</title>
<polygon fill="none" stroke="turquoise" points="1113.22,-1884 1110.22,-1888 1089.22,-1888 1086.22,-1884 523.22,-1884 523.22,-1832 1113.22,-1832 1113.22,-1884"/>
<text text-anchor="start" x="535.22" y="-1865.8" font-family="Times,serif" font-weight="bold" font-size="14.00">host:</text>
<text text-anchor="start" x="640.22" y="-1864.8" font-family="Times,serif" font-size="14.00">$HOME/.local/share/docker/volumes/phaidra&#45;shib_api_logs/_data</text>
<text text-anchor="start" x="535.22" y="-1843.8" font-family="Times,serif" font-size="14.00">api&#45;container:</text>
<text text-anchor="start" x="640.22" y="-1843.8" font-family="Times,serif" font-size="14.00">/var/log/phaidra</text>
</g>
<!-- HS_API_LOGS&#45;&#45;C_API -->
<g id="edge2" class="edge">
<title>HS_API_LOGS&#45;&#45;C_API</title>
<path fill="none" stroke="turquoise" d="M523.21,-1861.27C467.27,-1854.31 422.41,-1840.24 410.72,-1814 403.16,-1797.02 403.16,-492.98 410.72,-476 464.65,-354.91 642.84,-342.6 744.84,-346.1"/>
</g>
<!-- HS_MARIADB_PHAIDRA -->
<g id="node4" class="node">
<title>HS_MARIADB_PHAIDRA</title>
<polygon fill="none" stroke="turquoise" points="1193.22,-1610 1190.22,-1614 1169.22,-1614 1166.22,-1610 443.22,-1610 443.22,-1558 1193.22,-1558 1193.22,-1610"/>
<text text-anchor="start" x="455.22" y="-1591.8" font-family="Times,serif" font-weight="bold" font-size="14.00">host:</text>
<text text-anchor="start" x="657.22" y="-1590.8" font-family="Times,serif" font-size="14.00">$HOME/.local/share/docker/volumes/phaidra&#45;shib_mariadb_phaidra/_data</text>
<text text-anchor="start" x="455.22" y="-1569.8" font-family="Times,serif" font-size="14.00">mariadb&#45;phaidra&#45;container:</text>
<text text-anchor="start" x="657.22" y="-1569.8" font-family="Times,serif" font-size="14.00">/var/lib/mysql</text>
</g>
<!-- C_MARIADB_PHAIDRA -->
<g id="node24" class="node">
<title>C_MARIADB_PHAIDRA</title>
<g id="a_node24"><a xlink:href="https://mariadb.org/" xlink:title="phaidra&#45;shib&#45;mariadb&#45;phaidra&#45;1">
<polygon fill="none" stroke="green" points="1481.22,-262 1239.22,-262 1239.22,-258 1235.22,-258 1235.22,-254 1239.22,-254 1239.22,-234 1235.22,-234 1235.22,-230 1239.22,-230 1239.22,-226 1481.22,-226 1481.22,-262"/>
<polyline fill="none" stroke="green" points="1239.22,-258 1243.22,-258 1243.22,-254 1239.22,-254 "/>
<polyline fill="none" stroke="green" points="1239.22,-234 1243.22,-234 1243.22,-230 1239.22,-230 "/>
<text text-anchor="middle" x="1360.22" y="-240.3" font-family="Times,serif" font-size="14.00">phaidra&#45;shib&#45;mariadb&#45;phaidra&#45;1</text>
</a>
</g>
</g>
<!-- HS_MARIADB_PHAIDRA&#45;&#45;C_MARIADB_PHAIDRA -->
<g id="edge6" class="edge">
<title>HS_MARIADB_PHAIDRA&#45;&#45;C_MARIADB_PHAIDRA</title>
<path fill="none" stroke="turquoise" d="M930.55,-1610.01C1021.13,-1623.87 1145.13,-1624.9 1215.72,-1549 1264.08,-1497.01 1190.76,-325.96 1235.72,-271 1238.36,-267.77 1241.29,-264.87 1244.45,-262.28"/>
</g>
<!-- HS_MONGODB_PHAIDRA -->
<g id="node5" class="node">
<title>HS_MONGODB_PHAIDRA</title>
<polygon fill="none" stroke="turquoise" points="1199.72,-1470 1196.72,-1474 1175.72,-1474 1172.72,-1470 436.72,-1470 436.72,-1418 1199.72,-1418 1199.72,-1470"/>
<text text-anchor="start" x="449.22" y="-1451.8" font-family="Times,serif" font-weight="bold" font-size="14.00">host:</text>
<text text-anchor="start" x="657.22" y="-1450.8" font-family="Times,serif" font-size="14.00">$HOME/.local/share/docker/volumes/phaidra&#45;shib_mongodb_phaidra/_data</text>
<text text-anchor="start" x="449.22" y="-1429.8" font-family="Times,serif" font-size="14.00">phaidra&#45;mongodb&#45;container:</text>
<text text-anchor="start" x="657.22" y="-1429.8" font-family="Times,serif" font-size="14.00">/data/db</text>
</g>
<!-- C_MONGODB_PHAIDRA -->
<g id="node25" class="node">
<title>C_MONGODB_PHAIDRA</title>
<g id="a_node25"><a xlink:href="https://www.mongodb.com/" xlink:title="phaidra&#45;shib&#45;mongodb&#45;phaidra&#45;1">
<polygon fill="none" stroke="green" points="1484.72,-154 1235.72,-154 1235.72,-150 1231.72,-150 1231.72,-146 1235.72,-146 1235.72,-126 1231.72,-126 1231.72,-122 1235.72,-122 1235.72,-118 1484.72,-118 1484.72,-154"/>
<polyline fill="none" stroke="green" points="1235.72,-150 1239.72,-150 1239.72,-146 1235.72,-146 "/>
<polyline fill="none" stroke="green" points="1235.72,-126 1239.72,-126 1239.72,-122 1235.72,-122 "/>
<text text-anchor="middle" x="1360.22" y="-132.3" font-family="Times,serif" font-size="14.00">phaidra&#45;shib&#45;mongodb&#45;phaidra&#45;1</text>
</a>
</g>
</g>
<!-- HS_MONGODB_PHAIDRA&#45;&#45;C_MONGODB_PHAIDRA -->
<g id="edge7" class="edge">
<title>HS_MONGODB_PHAIDRA&#45;&#45;C_MONGODB_PHAIDRA</title>
<path fill="none" stroke="turquoise" d="M931,-1470.07C1021.53,-1483.86 1145.23,-1484.76 1215.72,-1409 1262.88,-1358.32 1191.88,-216.58 1235.72,-163 1238.36,-159.77 1241.29,-156.88 1244.45,-154.28"/>
</g>
<!-- HS_OPENLDAP -->
<g id="node6" class="node">
<title>HS_OPENLDAP</title>
<polygon fill="none" stroke="turquoise" points="1138.72,-1330 1135.72,-1334 1114.72,-1334 1111.72,-1330 497.72,-1330 497.72,-1278 1138.72,-1278 1138.72,-1330"/>
<text text-anchor="start" x="510.22" y="-1311.8" font-family="Times,serif" font-weight="bold" font-size="14.00">host:</text>
<text text-anchor="start" x="658.22" y="-1310.8" font-family="Times,serif" font-size="14.00">$HOME/.local/share/docker/volumes/phaidra&#45;shib_openldap/_data</text>
<text text-anchor="start" x="510.22" y="-1289.8" font-family="Times,serif" font-size="14.00">openldap&#45;container:</text>
<text text-anchor="start" x="658.22" y="-1289.8" font-family="Times,serif" font-size="14.00">/bitnami/openldap</text>
</g>
<!-- C_OPENLDAP -->
<g id="node27" class="node">
<title>C_OPENLDAP</title>
<g id="a_node27"><a xlink:href="https://www.openldap.org/" xlink:title="phaidra&#45;shib&#45;openldap&#45;1">
<polygon fill="none" stroke="green" points="1454.72,-316 1265.72,-316 1265.72,-312 1261.72,-312 1261.72,-308 1265.72,-308 1265.72,-288 1261.72,-288 1261.72,-284 1265.72,-284 1265.72,-280 1454.72,-280 1454.72,-316"/>
<polyline fill="none" stroke="green" points="1265.72,-312 1269.72,-312 1269.72,-308 1265.72,-308 "/>
<polyline fill="none" stroke="green" points="1265.72,-288 1269.72,-288 1269.72,-284 1265.72,-284 "/>
<text text-anchor="middle" x="1360.22" y="-294.3" font-family="Times,serif" font-size="14.00">phaidra&#45;shib&#45;openldap&#45;1</text>
</a>
</g>
</g>
<!-- HS_OPENLDAP&#45;&#45;C_OPENLDAP -->
<g id="edge8" class="edge">
<title>HS_OPENLDAP&#45;&#45;C_OPENLDAP</title>
<path fill="none" stroke="turquoise" d="M938.34,-1330.03C1028.14,-1341.94 1147.15,-1339.87 1215.72,-1266 1251.3,-1227.68 1202.5,-365.38 1235.72,-325 1243.6,-315.42 1254.02,-308.76 1265.47,-304.19"/>
</g>
<!-- HS_SOLR -->
<g id="node7" class="node">
<title>HS_SOLR</title>
<polygon fill="none" stroke="turquoise" points="1100.22,-1540 1097.22,-1544 1076.22,-1544 1073.22,-1540 536.22,-1540 536.22,-1488 1100.22,-1488 1100.22,-1540"/>
<text text-anchor="start" x="548.22" y="-1521.8" font-family="Times,serif" font-weight="bold" font-size="14.00">host:</text>
<text text-anchor="start" x="658.22" y="-1520.8" font-family="Times,serif" font-size="14.00">$HOME/.local/share/docker/volumes/phaidra&#45;shib_solr/_data</text>
<text text-anchor="start" x="548.22" y="-1499.8" font-family="Times,serif" font-size="14.00">solr&#45;container:</text>
<text text-anchor="start" x="658.22" y="-1499.8" font-family="Times,serif" font-size="14.00">/var/solr</text>
</g>
<!-- C_SOLR -->
<g id="node28" class="node">
<title>C_SOLR</title>
<g id="a_node28"><a xlink:href="https://solr.apache.org/" xlink:title="phaidra&#45;shib&#45;solr&#45;1">
<polygon fill="none" stroke="green" points="1435.72,-208 1284.72,-208 1284.72,-204 1280.72,-204 1280.72,-200 1284.72,-200 1284.72,-180 1280.72,-180 1280.72,-176 1284.72,-176 1284.72,-172 1435.72,-172 1435.72,-208"/>
<polyline fill="none" stroke="green" points="1284.72,-204 1288.72,-204 1288.72,-200 1284.72,-200 "/>
<polyline fill="none" stroke="green" points="1284.72,-180 1288.72,-180 1288.72,-176 1284.72,-176 "/>
<text text-anchor="middle" x="1360.22" y="-186.3" font-family="Times,serif" font-size="14.00">phaidra&#45;shib&#45;solr&#45;1</text>
</a>
</g>
</g>
<!-- HS_SOLR&#45;&#45;C_SOLR -->
<g id="edge10" class="edge">
<title>HS_SOLR&#45;&#45;C_SOLR</title>
<path fill="none" stroke="turquoise" d="M930.55,-1540C1021.13,-1553.87 1145.12,-1554.89 1215.72,-1479 1263.48,-1427.66 1191.32,-271.27 1235.72,-217 1247.81,-202.22 1265.95,-194.37 1284.63,-190.44"/>
</g>
<!-- HS_PIXELGECKO -->
<g id="node8" class="node">
<title>HS_PIXELGECKO</title>
<polygon fill="none" stroke="turquoise" points="1155.72,-1813.5 1152.72,-1817.5 1131.72,-1817.5 1128.72,-1813.5 480.72,-1813.5 480.72,-1740.5 1155.72,-1740.5 1155.72,-1813.5"/>
<text text-anchor="start" x="493.22" y="-1794.8" font-family="Times,serif" font-weight="bold" font-size="14.00">host:</text>
<text text-anchor="start" x="665.22" y="-1793.8" font-family="Times,serif" font-size="14.00">$HOME/.local/share/docker/volumes/phaidra&#45;shib_pixelgecko/_data</text>
<text text-anchor="start" x="493.22" y="-1772.8" font-family="Times,serif" font-size="14.00">pixelgecko&#45;container:</text>
<text text-anchor="start" x="665.22" y="-1772.8" font-family="Times,serif" font-size="14.00">/mnt/converted_images</text>
<text text-anchor="start" x="493.22" y="-1751.8" font-family="Times,serif" font-size="14.00">imageserver&#45;container:</text>
<text text-anchor="start" x="665.22" y="-1751.8" font-family="Times,serif" font-size="14.00">/mnt/converted_images:ro</text>
</g>
<!-- C_IMAGESERVER -->
<g id="node29" class="node">
<title>C_IMAGESERVER</title>
<g id="a_node29"><a xlink:href="https://github.com/ruven/iipsrv" xlink:title="phaidra&#45;shib&#45;imageserver&#45;1">
<polygon fill="none" stroke="green" points="1466.72,-424 1253.72,-424 1253.72,-420 1249.72,-420 1249.72,-416 1253.72,-416 1253.72,-396 1249.72,-396 1249.72,-392 1253.72,-392 1253.72,-388 1466.72,-388 1466.72,-424"/>
<polyline fill="none" stroke="green" points="1253.72,-420 1257.72,-420 1257.72,-416 1253.72,-416 "/>
<polyline fill="none" stroke="green" points="1253.72,-396 1257.72,-396 1257.72,-392 1253.72,-392 "/>
<text text-anchor="middle" x="1360.22" y="-402.3" font-family="Times,serif" font-size="14.00">phaidra&#45;shib&#45;imageserver&#45;1</text>
</a>
</g>
</g>
<!-- HS_PIXELGECKO&#45;&#45;C_IMAGESERVER -->
<g id="edge11" class="edge">
<title>HS_PIXELGECKO&#45;&#45;C_IMAGESERVER</title>
<path fill="none" stroke="turquoise" d="M1155.9,-1773.79C1178.09,-1763.21 1198.43,-1749.22 1215.72,-1731 1240.09,-1705.32 1232.45,-1448.25 1235.72,-1413 1272.91,-1011.81 1342.25,-523.56 1356.59,-424.16"/>
</g>
<!-- HS_PIXELGECKO&#45;&#45;C_PIXELGECKO -->
<g id="edge13" class="edge">
<title>HS_PIXELGECKO&#45;&#45;C_PIXELGECKO</title>
<path fill="none" stroke="turquoise" d="M1155.94,-1755.51C1176.67,-1748.85 1196.78,-1740.76 1215.72,-1731 1374.31,-1649.24 1408.66,-1594.4 1484.72,-1433 1574.32,-1242.86 1626.42,-546.63 1634.97,-424.39"/>
</g>
<!-- HS_DBGATE -->
<g id="node9" class="node">
<title>HS_DBGATE</title>
<polygon fill="none" stroke="turquoise" points="1123.22,-1400 1120.22,-1404 1099.22,-1404 1096.22,-1400 513.22,-1400 513.22,-1348 1123.22,-1348 1123.22,-1400"/>
<text text-anchor="start" x="525.22" y="-1381.8" font-family="Times,serif" font-weight="bold" font-size="14.00">host:</text>
<text text-anchor="start" x="658.22" y="-1380.8" font-family="Times,serif" font-size="14.00">$HOME/.local/share/docker/volumes/phaidra&#45;shib_dbgate/_data</text>
<text text-anchor="start" x="525.22" y="-1359.8" font-family="Times,serif" font-size="14.00">dbgate&#45;container:</text>
<text text-anchor="start" x="658.22" y="-1359.8" font-family="Times,serif" font-size="14.00">/root/.dbgate</text>
</g>
<!-- C_DBGATE -->
<g id="node31" class="node">
<title>C_DBGATE</title>
<polygon fill="none" stroke="green" points="904.72,-262 731.72,-262 731.72,-258 727.72,-258 727.72,-254 731.72,-254 731.72,-234 727.72,-234 727.72,-230 731.72,-230 731.72,-226 904.72,-226 904.72,-262"/>
<polyline fill="none" stroke="green" points="731.72,-258 735.72,-258 735.72,-254 731.72,-254 "/>
<polyline fill="none" stroke="green" points="731.72,-234 735.72,-234 735.72,-230 731.72,-230 "/>
<text text-anchor="middle" x="818.22" y="-240.3" font-family="Times,serif" font-size="14.00">phaidra&#45;shib&#45;dbgate&#45;1</text>
</g>
<!-- HS_DBGATE&#45;&#45;C_DBGATE -->
<g id="edge14" class="edge">
<title>HS_DBGATE&#45;&#45;C_DBGATE</title>
<path fill="none" stroke="turquoise" d="M513.21,-1375.93C461.97,-1368.57 421.7,-1354.66 410.72,-1330 399.47,-1304.73 399.47,-359.27 410.72,-334 461.35,-220.33 627.46,-218.67 731.32,-229.89"/>
</g>
<!-- HS_MARIADB_FEDORA -->
<g id="node10" class="node">
<title>HS_MARIADB_FEDORA</title>
<polygon fill="none" stroke="turquoise" points="1184.22,-1954 1181.22,-1958 1160.22,-1958 1157.22,-1954 452.22,-1954 452.22,-1902 1184.22,-1902 1184.22,-1954"/>
<text text-anchor="start" x="464.22" y="-1935.8" font-family="Times,serif" font-weight="bold" font-size="14.00">host:</text>
<text text-anchor="start" x="657.22" y="-1934.8" font-family="Times,serif" font-size="14.00">$HOME/.local/share/docker/volumes/phaidra&#45;shib_mariadb_fedora/_data</text>
<text text-anchor="start" x="464.22" y="-1913.8" font-family="Times,serif" font-size="14.00">mariadb&#45;fedora&#45;container:</text>
<text text-anchor="start" x="657.22" y="-1913.8" font-family="Times,serif" font-size="14.00">/var/lib/mysql</text>
</g>
<!-- C_MARIADB_FEDORA -->
<g id="node33" class="node">
<title>C_MARIADB_FEDORA</title>
<g id="a_node33"><a xlink:href="https://mariadb.org/" xlink:title="phaidra&#45;shib&#45;mariadb&#45;fedora&#45;1">
<polygon fill="none" stroke="green" points="1753.72,-370 1520.72,-370 1520.72,-366 1516.72,-366 1516.72,-362 1520.72,-362 1520.72,-342 1516.72,-342 1516.72,-338 1520.72,-338 1520.72,-334 1753.72,-334 1753.72,-370"/>
<polyline fill="none" stroke="green" points="1520.72,-366 1524.72,-366 1524.72,-362 1520.72,-362 "/>
<polyline fill="none" stroke="green" points="1520.72,-342 1524.72,-342 1524.72,-338 1520.72,-338 "/>
<text text-anchor="middle" x="1637.22" y="-348.3" font-family="Times,serif" font-size="14.00">phaidra&#45;shib&#45;mariadb&#45;fedora&#45;1</text>
</a>
</g>
</g>
<!-- HS_MARIADB_FEDORA&#45;&#45;C_MARIADB_FEDORA -->
<g id="edge15" class="edge">
<title>HS_MARIADB_FEDORA&#45;&#45;C_MARIADB_FEDORA</title>
<path fill="none" stroke="turquoise" d="M958.91,-1954.01C1043.28,-1961.32 1147.36,-1954.18 1215.72,-1893 1343.59,-1778.56 1401.27,-502.2 1520.72,-379 1523.95,-375.67 1527.5,-372.72 1531.29,-370.11"/>
</g>
<!-- BIND_MARIADB_PHAIDRA_INIT -->
<g id="node11" class="node">
<title>BIND_MARIADB_PHAIDRA_INIT</title>
<polygon fill="none" stroke="blue" points="1133.22,-1161 1130.22,-1165 1109.22,-1165 1106.22,-1161 503.22,-1161 503.22,-1109 1133.22,-1109 1133.22,-1161"/>
<text text-anchor="start" x="515.22" y="-1142.8" font-family="Times,serif" font-weight="bold" font-size="14.00">host:</text>
<text text-anchor="start" x="717.22" y="-1141.8" font-family="Times,serif" font-size="14.00">$REPO/container_components/mariadb/phaidradb.sql.gz</text>
<text text-anchor="start" x="515.22" y="-1120.8" font-family="Times,serif" font-size="14.00">mariadb&#45;phaidra&#45;container:</text>
<text text-anchor="start" x="717.22" y="-1120.8" font-family="Times,serif" font-size="14.00">/docker&#45;entrypoint&#45;initdb.d/phaidradb.sql.gz:ro</text>
</g>
<!-- BIND_MARIADB_PHAIDRA_INIT&#45;&#45;C_MARIADB_PHAIDRA -->
<g id="edge5" class="edge">
<title>BIND_MARIADB_PHAIDRA_INIT&#45;&#45;C_MARIADB_PHAIDRA</title>
<path fill="none" stroke="blue" d="M931.75,-1161.06C1022.1,-1174.63 1145.16,-1175.22 1215.72,-1100 1247.24,-1066.4 1206.4,-306.54 1235.72,-271 1238.38,-267.78 1241.32,-264.9 1244.49,-262.31"/>
</g>
<!-- BIND_OPENLDAP_INIT -->
<g id="node12" class="node">
<title>BIND_OPENLDAP_INIT</title>
<polygon fill="none" stroke="blue" points="1047.22,-1231 1044.22,-1235 1023.22,-1235 1020.22,-1231 589.22,-1231 589.22,-1179 1047.22,-1179 1047.22,-1231"/>
<text text-anchor="start" x="601.22" y="-1212.8" font-family="Times,serif" font-weight="bold" font-size="14.00">host:</text>
<text text-anchor="start" x="749.22" y="-1211.8" font-family="Times,serif" font-size="14.00">$REPO/container_components/openldap</text>
<text text-anchor="start" x="601.22" y="-1190.8" font-family="Times,serif" font-size="14.00">openldap&#45;container:</text>
<text text-anchor="start" x="749.22" y="-1190.8" font-family="Times,serif" font-size="14.00">/ldifs:ro</text>
</g>
<!-- BIND_OPENLDAP_INIT&#45;&#45;C_OPENLDAP -->
<g id="edge9" class="edge">
<title>BIND_OPENLDAP_INIT&#45;&#45;C_OPENLDAP</title>
<path fill="none" stroke="blue" d="M931.76,-1231.07C1022.12,-1244.64 1145.18,-1245.24 1215.72,-1170 1247.84,-1135.74 1205.85,-361.23 1235.72,-325 1243.61,-315.43 1254.03,-308.77 1265.49,-304.21"/>
</g>
<!-- BIND_HTTPD_CONFIG -->
<g id="node13" class="node">
<title>BIND_HTTPD_CONFIG</title>
<polygon fill="none" stroke="blue" points="1059.72,-671 1056.72,-675 1035.72,-675 1032.72,-671 576.72,-671 576.72,-619 1059.72,-619 1059.72,-671"/>
<text text-anchor="start" x="589.22" y="-652.8" font-family="Times,serif" font-weight="bold" font-size="14.00">host:</text>
<text text-anchor="start" x="711.22" y="-651.8" font-family="Times,serif" font-size="14.00">$REPO/webserver_configs/phaidra&#45;shib.conf:ro</text>
<text text-anchor="start" x="589.22" y="-630.8" font-family="Times,serif" font-size="14.00">httpd&#45;container:</text>
<text text-anchor="start" x="711.22" y="-630.8" font-family="Times,serif" font-size="14.00">/usr/local/apache2/conf/httpd.conf:ro</text>
</g>
<!-- BIND_HTTPD_CERT -->
<g id="node14" class="node">
<title>BIND_HTTPD_CERT</title>
<polygon fill="none" stroke="blue" points="1047.72,-531 1044.72,-535 1023.72,-535 1020.72,-531 588.72,-531 588.72,-479 1047.72,-479 1047.72,-531"/>
<text text-anchor="start" x="601.22" y="-512.8" font-family="Times,serif" font-weight="bold" font-size="14.00">host:</text>
<text text-anchor="start" x="723.22" y="-511.8" font-family="Times,serif" font-size="14.00">$REPO/encryption/webserver/fullchain.pem</text>
<text text-anchor="start" x="601.22" y="-490.8" font-family="Times,serif" font-size="14.00">httpd&#45;container:</text>
<text text-anchor="start" x="723.22" y="-490.8" font-family="Times,serif" font-size="14.00">/usr/local/apache2/conf/server.crt:ro</text>
</g>
<!-- BIND_HTTPD_KEY -->
<g id="node15" class="node">
<title>BIND_HTTPD_KEY</title>
<polygon fill="none" stroke="blue" points="1042.72,-1091 1039.72,-1095 1018.72,-1095 1015.72,-1091 593.72,-1091 593.72,-1039 1042.72,-1039 1042.72,-1091"/>
<text text-anchor="start" x="606.22" y="-1072.8" font-family="Times,serif" font-weight="bold" font-size="14.00">host:</text>
<text text-anchor="start" x="728.22" y="-1071.8" font-family="Times,serif" font-size="14.00">$REPO/encryption/webserver/privkey.pem</text>
<text text-anchor="start" x="606.22" y="-1050.8" font-family="Times,serif" font-size="14.00">httpd&#45;container:</text>
<text text-anchor="start" x="728.22" y="-1050.8" font-family="Times,serif" font-size="14.00">/usr/local/apache2/conf/server.key:ro</text>
</g>
<!-- BIND_SHIB_ENCRYPTION_KEY -->
<g id="node16" class="node">
<title>BIND_SHIB_ENCRYPTION_KEY</title>
<polygon fill="none" stroke="blue" points="1068.72,-1021 1065.72,-1025 1044.72,-1025 1041.72,-1021 567.72,-1021 567.72,-969 1068.72,-969 1068.72,-1021"/>
<text text-anchor="start" x="580.22" y="-1002.8" font-family="Times,serif" font-weight="bold" font-size="14.00">host:</text>
<text text-anchor="start" x="702.22" y="-1001.8" font-family="Times,serif" font-size="14.00">$REPO/encryption/shibboleth/sp&#45;encrypt&#45;key.pem</text>
<text text-anchor="start" x="580.22" y="-980.8" font-family="Times,serif" font-size="14.00">httpd&#45;container:</text>
<text text-anchor="start" x="702.22" y="-980.8" font-family="Times,serif" font-size="14.00">/etc/shibboleth/sp&#45;encrypt&#45;key.pem:ro</text>
</g>
<!-- BIND_SHIB_ENCRYPTION_CERT -->
<g id="node17" class="node">
<title>BIND_SHIB_ENCRYPTION_CERT</title>
<polygon fill="none" stroke="blue" points="1071.72,-951 1068.72,-955 1047.72,-955 1044.72,-951 564.72,-951 564.72,-899 1071.72,-899 1071.72,-951"/>
<text text-anchor="start" x="577.22" y="-932.8" font-family="Times,serif" font-weight="bold" font-size="14.00">host:</text>
<text text-anchor="start" x="699.22" y="-931.8" font-family="Times,serif" font-size="14.00">$REPO/encryption/shibboleth/sp&#45;encrypt&#45;cert.pem</text>
<text text-anchor="start" x="577.22" y="-910.8" font-family="Times,serif" font-size="14.00">httpd&#45;container:</text>
<text text-anchor="start" x="699.22" y="-910.8" font-family="Times,serif" font-size="14.00">/etc/shibboleth/sp&#45;encrypt&#45;cert.pem:ro</text>
</g>
<!-- BIND_SHIB_SIGNING_KEY -->
<g id="node18" class="node">
<title>BIND_SHIB_SIGNING_KEY</title>
<polygon fill="none" stroke="blue" points="1067.22,-881 1064.22,-885 1043.22,-885 1040.22,-881 569.22,-881 569.22,-829 1067.22,-829 1067.22,-881"/>
<text text-anchor="start" x="581.22" y="-862.8" font-family="Times,serif" font-weight="bold" font-size="14.00">host:</text>
<text text-anchor="start" x="703.22" y="-861.8" font-family="Times,serif" font-size="14.00">$REPO/encryption/shibboleth/sp&#45;signing&#45;key.pem</text>
<text text-anchor="start" x="581.22" y="-840.8" font-family="Times,serif" font-size="14.00">httpd&#45;container:</text>
<text text-anchor="start" x="703.22" y="-840.8" font-family="Times,serif" font-size="14.00">/etc/shibboleth/sp&#45;signing&#45;key.pem:ro</text>
</g>
<!-- BIND_SHIB_SIGNING_CERT -->
<g id="node19" class="node">
<title>BIND_SHIB_SIGNING_CERT</title>
<polygon fill="none" stroke="blue" points="1070.22,-811 1067.22,-815 1046.22,-815 1043.22,-811 566.22,-811 566.22,-759 1070.22,-759 1070.22,-811"/>
<text text-anchor="start" x="578.22" y="-792.8" font-family="Times,serif" font-weight="bold" font-size="14.00">host:</text>
<text text-anchor="start" x="700.22" y="-791.8" font-family="Times,serif" font-size="14.00">$REPO/encryption/shibboleth/sp&#45;signing&#45;cert.pem</text>
<text text-anchor="start" x="578.22" y="-770.8" font-family="Times,serif" font-size="14.00">httpd&#45;container:</text>
<text text-anchor="start" x="700.22" y="-770.8" font-family="Times,serif" font-size="14.00">/etc/shibboleth/sp&#45;signing&#45;cert.pem:ro</text>
</g>
<!-- BIND_API_CODE -->
<g id="node20" class="node">
<title>BIND_API_CODE</title>
<polygon fill="none" stroke="blue" points="997.72,-601 994.72,-605 973.72,-605 970.72,-601 638.72,-601 638.72,-549 997.72,-549 997.72,-601"/>
<text text-anchor="start" x="651.22" y="-582.8" font-family="Times,serif" font-weight="bold" font-size="14.00">host:</text>
<text text-anchor="start" x="756.22" y="-581.8" font-family="Times,serif" font-size="14.00">$REPO/components/phaidra&#45;api</text>
<text text-anchor="start" x="651.22" y="-560.8" font-family="Times,serif" font-size="14.00">api&#45;container:</text>
<text text-anchor="start" x="756.22" y="-560.8" font-family="Times,serif" font-size="14.00">/usr/local/phaidra/phaidra&#45;api:ro</text>
</g>
<!-- BIND_API_CODE&#45;&#45;C_API -->
<g id="edge4" class="edge">
<title>BIND_API_CODE&#45;&#45;C_API</title>
<path fill="none" stroke="blue" d="M638.6,-584.23C538.39,-584.34 429.9,-574.06 410.72,-531 350.09,-394.86 612.13,-362.25 745.05,-354.45"/>
</g>
<!-- BIND_DOCUMENTATION -->
<g id="node21" class="node">
<title>BIND_DOCUMENTATION</title>
<polygon fill="none" stroke="blue" points="936.22,-741 933.22,-745 912.22,-745 909.22,-741 700.22,-741 700.22,-689 936.22,-689 936.22,-741"/>
<text text-anchor="start" x="712.22" y="-722.8" font-family="Times,serif" font-weight="bold" font-size="14.00">host:</text>
<text text-anchor="start" x="834.22" y="-721.8" font-family="Times,serif" font-size="14.00">$REPO/docs</text>
<text text-anchor="start" x="712.22" y="-700.8" font-family="Times,serif" font-size="14.00">httpd&#45;container:</text>
<text text-anchor="start" x="834.22" y="-700.8" font-family="Times,serif" font-size="14.00">/mnt/docs:ro</text>
</g>
<!-- C_FEDORA&#45;&#45;C_MARIADB_FEDORA -->
<g id="edge24" class="edge">
<title>C_FEDORA&#45;&#45;C_MARIADB_FEDORA</title>
<path fill="none" stroke="orange" d="M1445.23,-352C1469,-352 1495.3,-352 1520.58,-352"/>
</g>
<!-- C_API&#45;&#45;C_FEDORA -->
<g id="edge25" class="edge">
<title>C_API&#45;&#45;C_FEDORA</title>
<path fill="none" stroke="orange" d="M891.49,-352C990.93,-352 1169.57,-352 1274.96,-352"/>
</g>
<!-- C_API&#45;&#45;C_MARIADB_PHAIDRA -->
<g id="edge26" class="edge">
<title>C_API&#45;&#45;C_MARIADB_PHAIDRA</title>
<path fill="none" stroke="orange" d="M891.23,-360.7C975.74,-367.19 1116.88,-366.02 1215.72,-303 1229.86,-293.98 1222.01,-280.66 1235.72,-271 1240.48,-267.65 1245.57,-264.71 1250.88,-262.12"/>
</g>
<!-- C_API&#45;&#45;C_MONGODB_PHAIDRA -->
<g id="edge27" class="edge">
<title>C_API&#45;&#45;C_MONGODB_PHAIDRA</title>
<path fill="none" stroke="orange" d="M891.54,-359.39C980.74,-364.17 1130.94,-357.36 1215.72,-271 1249.92,-236.17 1201.76,-198.07 1235.72,-163 1238.93,-159.69 1242.44,-156.74 1246.18,-154.11"/>
</g>
<!-- C_UI -->
<g id="node26" class="node">
<title>C_UI</title>
<g id="a_node26"><a xlink:href="https://github.com/phaidra/phaidra-ui" xlink:title="phaidra&#45;shib&#45;ui&#45;1">
<polygon fill="none" stroke="green" points="1428.72,-100 1291.72,-100 1291.72,-96 1287.72,-96 1287.72,-92 1291.72,-92 1291.72,-72 1287.72,-72 1287.72,-68 1291.72,-68 1291.72,-64 1428.72,-64 1428.72,-100"/>
<polyline fill="none" stroke="green" points="1291.72,-96 1295.72,-96 1295.72,-92 1291.72,-92 "/>
<polyline fill="none" stroke="green" points="1291.72,-72 1295.72,-72 1295.72,-68 1291.72,-68 "/>
<text text-anchor="middle" x="1360.22" y="-78.3" font-family="Times,serif" font-size="14.00">phaidra&#45;shib&#45;ui&#45;1</text>
</a>
</g>
</g>
<!-- C_API&#45;&#45;C_UI -->
<g id="edge28" class="edge">
<title>C_API&#45;&#45;C_UI</title>
<path fill="none" stroke="orange" d="M891.61,-360.15C981.59,-365.85 1133.34,-360.13 1215.72,-271 1264.96,-217.72 1186.85,-162.61 1235.72,-109 1249.92,-93.43 1270.83,-85.74 1291.43,-82.21"/>
</g>
<!-- C_API&#45;&#45;C_OPENLDAP -->
<g id="edge29" class="edge">
<title>C_API&#45;&#45;C_OPENLDAP</title>
<path fill="none" stroke="orange" d="M891.49,-344.77C988.05,-335.12 1159.31,-317.99 1265.64,-307.36"/>
</g>
<!-- C_API&#45;&#45;C_SOLR -->
<g id="edge30" class="edge">
<title>C_API&#45;&#45;C_SOLR</title>
<path fill="none" stroke="orange" d="M891.4,-365.51C979.4,-377.51 1127.29,-382.56 1215.72,-303 1244.9,-276.75 1207.79,-244.56 1235.72,-217 1248.84,-204.05 1266.65,-196.69 1284.66,-192.65"/>
</g>
<!-- C_API&#45;&#45;C_IMAGESERVER -->
<g id="edge31" class="edge">
<title>C_API&#45;&#45;C_IMAGESERVER</title>
<path fill="none" stroke="orange" d="M891.49,-359.23C984.46,-368.52 1146.67,-384.75 1253.51,-395.43"/>
</g>
<!-- C_MONGODB_PHAIDRA&#45;&#45;C_PIXELGECKO -->
<g id="edge32" class="edge">
<title>C_MONGODB_PHAIDRA&#45;&#45;C_PIXELGECKO</title>
<path fill="none" stroke="orange" d="M1474.34,-154.04C1478.06,-156.69 1481.55,-159.66 1484.72,-163 1551.8,-233.52 1454.16,-308 1520.72,-379 1525.51,-384.11 1531.06,-388.34 1537.1,-391.83"/>
</g>
<!-- C_LAM -->
<g id="node32" class="node">
<title>C_LAM</title>
<polygon fill="none" stroke="green" points="1712.22,-188 1562.22,-188 1562.22,-184 1558.22,-184 1558.22,-180 1562.22,-180 1562.22,-160 1558.22,-160 1558.22,-156 1562.22,-156 1562.22,-152 1712.22,-152 1712.22,-188"/>
<polyline fill="none" stroke="green" points="1562.22,-184 1566.22,-184 1566.22,-180 1562.22,-180 "/>
<polyline fill="none" stroke="green" points="1562.22,-160 1566.22,-160 1566.22,-156 1562.22,-156 "/>
<text text-anchor="middle" x="1637.22" y="-166.3" font-family="Times,serif" font-size="14.00">phaidra&#45;shib&#45;lam&#45;1</text>
</g>
<!-- C_OPENLDAP&#45;&#45;C_LAM -->
<g id="edge33" class="edge">
<title>C_OPENLDAP&#45;&#45;C_LAM</title>
<path fill="none" stroke="orange" d="M1454.78,-281.46C1465.06,-278.49 1475.23,-275.03 1484.72,-271 1535.06,-249.62 1586.55,-211.01 1614.65,-188.22"/>
</g>
<!-- C_DBGATE&#45;&#45;C_MARIADB_PHAIDRA -->
<g id="edge34" class="edge">
<title>C_DBGATE&#45;&#45;C_MARIADB_PHAIDRA</title>
<path fill="none" stroke="orange" d="M904.79,-244C994.97,-244 1137.74,-244 1239.17,-244"/>
</g>
<!-- C_DBGATE&#45;&#45;C_MONGODB_PHAIDRA -->
<g id="edge35" class="edge">
<title>C_DBGATE&#45;&#45;C_MONGODB_PHAIDRA</title>
<path fill="none" stroke="orange" d="M904.79,-226.89C1004.26,-206.99 1167.73,-174.3 1269.11,-154.02"/>
</g>
<!-- C_DBGATE&#45;&#45;C_MARIADB_FEDORA -->
<g id="edge36" class="edge">
<title>C_DBGATE&#45;&#45;C_MARIADB_FEDORA</title>
<path fill="none" stroke="orange" d="M847.52,-225.95C912.77,-185.53 1080.11,-88.66 1235.72,-55 1289.8,-43.3 1441.05,-21.02 1484.72,-55 1536.11,-94.98 1492.73,-138.21 1520.72,-197 1546.69,-251.54 1593.24,-306.01 1618.59,-333.55"/>
</g>
<!-- WEBSERVER&#45;&#45;BIND_HTTPD_CONFIG -->
<g id="edge16" class="edge">
<title>WEBSERVER&#45;&#45;BIND_HTTPD_CONFIG</title>
<path fill="none" stroke="blue" d="M323.14,-424.3C330.76,-465.47 355.41,-565.27 420.72,-610 466.12,-641.09 521.63,-656.23 576.58,-662.33"/>
</g>
<!-- WEBSERVER&#45;&#45;BIND_HTTPD_CERT -->
<g id="edge17" class="edge">
<title>WEBSERVER&#45;&#45;BIND_HTTPD_CERT</title>
<path fill="none" stroke="blue" d="M347.6,-424.01C367.15,-435.96 394.53,-450.89 420.72,-459 473.93,-475.48 532.81,-486.15 588.55,-493.03"/>
</g>
<!-- WEBSERVER&#45;&#45;BIND_HTTPD_KEY -->
<g id="edge18" class="edge">
<title>WEBSERVER&#45;&#45;BIND_HTTPD_KEY</title>
<path fill="none" stroke="blue" d="M320.28,-424.01C320.99,-517.33 329.26,-944.86 420.72,-1030 490.4,-1094.86 599.89,-1100.05 686.18,-1091.01"/>
</g>
<!-- WEBSERVER&#45;&#45;BIND_SHIB_ENCRYPTION_KEY -->
<g id="edge19" class="edge">
<title>WEBSERVER&#45;&#45;BIND_SHIB_ENCRYPTION_KEY</title>
<path fill="none" stroke="blue" d="M320.69,-424.26C323.31,-511.61 339.22,-885.63 420.72,-960 489.76,-1023 596.52,-1029.2 681.88,-1021.03"/>
</g>
<!-- WEBSERVER&#45;&#45;BIND_SHIB_ENCRYPTION_CERT -->
<g id="edge20" class="edge">
<title>WEBSERVER&#45;&#45;BIND_SHIB_ENCRYPTION_CERT</title>
<path fill="none" stroke="blue" d="M321.19,-424.07C325.87,-504.19 348.99,-826.18 420.72,-890 488.75,-950.52 591.77,-958.01 675.75,-951.03"/>
</g>
<!-- WEBSERVER&#45;&#45;BIND_SHIB_SIGNING_KEY -->
<g id="edge21" class="edge">
<title>WEBSERVER&#45;&#45;BIND_SHIB_SIGNING_KEY</title>
<path fill="none" stroke="blue" d="M321.87,-424.11C328.88,-496.89 358.76,-766.71 420.72,-820 486.73,-876.78 583.82,-886.14 665.39,-881.02"/>
</g>
<!-- WEBSERVER&#45;&#45;BIND_SHIB_SIGNING_CERT -->
<g id="edge22" class="edge">
<title>WEBSERVER&#45;&#45;BIND_SHIB_SIGNING_CERT</title>
<path fill="none" stroke="blue" d="M322.81,-424.09C332.45,-488.78 368.42,-707.07 420.72,-750 461.58,-783.54 513.43,-800.16 566.05,-806.98"/>
</g>
<!-- WEBSERVER&#45;&#45;BIND_DOCUMENTATION -->
<g id="edge23" class="edge">
<title>WEBSERVER&#45;&#45;BIND_DOCUMENTATION</title>
<path fill="none" stroke="blue" d="M320.66,-424.16C322.93,-474.41 336.85,-615.76 420.72,-680 499.31,-740.2 614.1,-743.98 699.97,-735.64"/>
</g>
<!-- WEBSERVER&#45;&#45;C_FEDORA -->
<g id="edge37" class="edge">
<title>WEBSERVER&#45;&#45;C_FEDORA</title>
<path fill="none" stroke="magenta" d="M400.78,-407.76C558,-410.28 916.51,-411.46 1215.72,-379 1235.13,-376.89 1255.84,-373.61 1275.32,-370.05"/>
</g>
<!-- WEBSERVER&#45;&#45;C_API -->
<g id="edge38" class="edge">
<title>WEBSERVER&#45;&#45;C_API</title>
<path fill="none" stroke="magenta" d="M400.84,-395.39C407.56,-394.56 414.26,-393.75 420.72,-393 533.97,-379.82 665.67,-366.63 745.17,-358.89"/>
</g>
<!-- WEBSERVER&#45;&#45;C_UI -->
<g id="edge39" class="edge">
<title>WEBSERVER&#45;&#45;C_UI</title>
<path fill="none" stroke="magenta" d="M324.09,-387.81C333.32,-349.23 360.51,-259.3 420.72,-217 694.82,-24.42 1126.18,-52.71 1291.58,-72.41"/>
</g>
<!-- WEBSERVER&#45;&#45;C_SOLR -->
<g id="edge40" class="edge">
<title>WEBSERVER&#45;&#45;C_SOLR</title>
<path fill="none" stroke="magenta" d="M336.24,-387.68C354.49,-368.23 386.29,-338.48 420.72,-325 585.61,-260.46 1073.9,-377.03 1215.72,-271 1236.22,-255.68 1216.41,-233.79 1235.72,-217 1249.3,-205.19 1266.86,-198.18 1284.44,-194.1"/>
</g>
<!-- WEBSERVER&#45;&#45;C_DBGATE -->
<g id="edge41" class="edge">
<title>WEBSERVER&#45;&#45;C_DBGATE</title>
<path fill="none" stroke="magenta" d="M330.47,-387.84C346.19,-361.91 378.88,-314.97 420.72,-293 518.37,-241.74 647.67,-235.25 731.64,-237.7"/>
</g>
<!-- WEBSERVER&#45;&#45;C_LAM -->
<g id="edge42" class="edge">
<title>WEBSERVER&#45;&#45;C_LAM</title>
<path fill="none" stroke="magenta" d="M322.59,-387.84C331.59,-321.85 365.96,-96.43 420.72,-54 514.19,18.43 1374.38,9.49 1484.72,-33 1547.27,-57.09 1600.04,-120.28 1623.37,-151.71"/>
</g>
</g>
</svg>
