<?xml version="1.0" encoding="UTF-8" standalone="no"?>
<!DOCTYPE svg PUBLIC "-//W3C//DTD SVG 1.1//EN"
 "http://www.w3.org/Graphics/SVG/1.1/DTD/svg11.dtd">
<!-- Generated by graphviz version 2.43.0 (0)
 -->
<!-- Title: G Pages: 1 -->
<svg width="1855pt" height="2114pt"
 viewBox="0.00 0.00 1854.72 2113.80" xmlns="http://www.w3.org/2000/svg" xmlns:xlink="http://www.w3.org/1999/xlink">
<g id="graph0" class="graph" transform="scale(1 1) rotate(0) translate(4 2109.8)">
<title>G</title>
<polygon fill="white" stroke="transparent" points="-4,4 -4,-2109.8 1850.72,-2109.8 1850.72,4 -4,4"/>
<g id="clust1" class="cluster">
<title>cluster_host</title>
<polygon fill="none" stroke="red" points="8,-16.8 8,-2097.8 1838.72,-2097.8 1838.72,-16.8 8,-16.8"/>
<text text-anchor="middle" x="923.36" y="-2082.6" font-family="Times,serif" font-size="14.00">PHAIDRA server firewall</text>
</g>
<g id="clust2" class="cluster">
<title>cluster_host_storage</title>
<polygon fill="none" stroke="blue" points="462.72,-491.8 462.72,-2066.8 1266.72,-2066.8 1266.72,-491.8 462.72,-491.8"/>
<text text-anchor="middle" x="864.72" y="-2051.6" font-family="Times,serif" font-size="14.00">PHAIDRA server filesystem</text>
</g>
<g id="clust3" class="cluster">
<title>cluster_named_volumes</title>
<polygon fill="none" stroke="turquoise" points="470.72,-1088.8 470.72,-2035.8 1258.72,-2035.8 1258.72,-1088.8 470.72,-1088.8"/>
<text text-anchor="middle" x="864.72" y="-2020.6" font-family="Times,serif" font-size="14.00">Named volumes</text>
</g>
<g id="clust4" class="cluster">
<title>cluster_bind_mounts</title>
<polygon fill="none" stroke="blue" points="541.22,-499.8 541.22,-1080.8 1188.22,-1080.8 1188.22,-499.8 541.22,-499.8"/>
<text text-anchor="middle" x="864.72" y="-1065.6" font-family="Times,serif" font-size="14.00">Bind mounts</text>
</g>
<g id="clust5" class="cluster">
<title>cluster_docker_network_host</title>
<polygon fill="none" stroke="green" points="245.72,-24.8 245.72,-483.8 1830.72,-483.8 1830.72,-24.8 245.72,-24.8"/>
<text text-anchor="middle" x="1038.22" y="-468.6" font-family="Times,serif" font-size="14.00">PHAIDRA docker containers</text>
</g>
<!-- USER -->
<g id="node1" class="node">
<title>USER</title>
<polygon fill="none" stroke="black" points="209.59,-265.35 209.59,-280.26 155.27,-290.8 78.45,-290.8 24.13,-280.26 24.13,-265.35 78.45,-254.8 155.27,-254.8 209.59,-265.35"/>
<polygon fill="none" stroke="black" points="213.59,-262.05 213.59,-283.56 155.66,-294.8 78.07,-294.8 20.13,-283.56 20.13,-262.05 78.07,-250.8 155.66,-250.8 213.59,-262.05"/>
<polygon fill="none" stroke="black" points="217.58,-258.75 217.58,-286.86 156.04,-298.8 77.68,-298.8 16.14,-286.86 16.14,-258.75 77.68,-246.8 156.04,-246.8 217.58,-258.75"/>
<text text-anchor="middle" x="116.86" y="-269.1" font-family="Times,serif" font-size="14.00">PHAIDRA USER</text>
</g>
<!-- WEBSERVER -->
<g id="node35" class="node">
<title>WEBSERVER</title>
<polygon fill="none" stroke="green" points="434.22,-290.8 262.22,-290.8 262.22,-286.8 258.22,-286.8 258.22,-282.8 262.22,-282.8 262.22,-262.8 258.22,-262.8 258.22,-258.8 262.22,-258.8 262.22,-254.8 434.22,-254.8 434.22,-290.8"/>
<polyline fill="none" stroke="green" points="262.22,-286.8 266.22,-286.8 266.22,-282.8 262.22,-282.8 "/>
<polyline fill="none" stroke="green" points="262.22,-262.8 266.22,-262.8 266.22,-258.8 262.22,-258.8 "/>
<text text-anchor="middle" x="348.22" y="-269.1" font-family="Times,serif" font-size="14.00">phaidra&#45;demo&#45;httpd&#45;1</text>
</g>
<!-- USER&#45;&#45;WEBSERVER -->
<g id="edge49" class="edge">
<title>USER&#45;&#45;WEBSERVER</title>
<path fill="none" stroke="red" d="M217.79,-272.8C232.52,-272.8 247.58,-272.8 261.97,-272.8"/>
</g>
<!-- HS_FEDORA -->
<g id="node2" class="node">
<title>HS_FEDORA</title>
<polygon fill="none" stroke="turquoise" points="1185.22,-1772.8 1182.22,-1776.8 1161.22,-1776.8 1158.22,-1772.8 544.22,-1772.8 544.22,-1678.8 1185.22,-1678.8 1185.22,-1772.8"/>
<text text-anchor="start" x="556.72" y="-1754.6" font-family="Times,serif" font-weight="bold" font-size="14.00">host:</text>
<text text-anchor="start" x="715.72" y="-1753.6" font-family="Times,serif" font-size="14.00">$HOME/.local/share/docker/volumes/phaidra&#45;demo_fedora/_data</text>
<text text-anchor="start" x="556.72" y="-1732.6" font-family="Times,serif" font-size="14.00">fedora&#45;container:</text>
<text text-anchor="start" x="715.72" y="-1732.6" font-family="Times,serif" font-size="14.00">/usr/local/tomcat/fcrepo&#45;home</text>
<text text-anchor="start" x="556.72" y="-1711.6" font-family="Times,serif" font-size="14.00">pixelgecko&#45;container:</text>
<text text-anchor="start" x="715.72" y="-1711.6" font-family="Times,serif" font-size="14.00"> /mnt/fedora:ro</text>
<text text-anchor="start" x="556.72" y="-1690.6" font-family="Times,serif" font-size="14.00">api&#45;container:</text>
<text text-anchor="start" x="715.72" y="-1690.6" font-family="Times,serif" font-size="14.00"> /mnt/fedora:ro</text>
</g>
<!-- C_FEDORA -->
<g id="node22" class="node">
<title>C_FEDORA</title>
<g id="a_node22"><a xlink:href="https://fedora.lyrasis.org/" xlink:title="phaidra&#45;demo&#45;fedora&#45;1">
<polygon fill="none" stroke="green" points="1505.22,-236.8 1326.22,-236.8 1326.22,-232.8 1322.22,-232.8 1322.22,-228.8 1326.22,-228.8 1326.22,-208.8 1322.22,-208.8 1322.22,-204.8 1326.22,-204.8 1326.22,-200.8 1505.22,-200.8 1505.22,-236.8"/>
<polyline fill="none" stroke="green" points="1326.22,-232.8 1330.22,-232.8 1330.22,-228.8 1326.22,-228.8 "/>
<polyline fill="none" stroke="green" points="1326.22,-208.8 1330.22,-208.8 1330.22,-204.8 1326.22,-204.8 "/>
<text text-anchor="middle" x="1415.72" y="-215.1" font-family="Times,serif" font-size="14.00">phaidra&#45;demo&#45;fedora&#45;1</text>
</a>
</g>
</g>
<!-- HS_FEDORA&#45;&#45;C_FEDORA -->
<g id="edge1" class="edge">
<title>HS_FEDORA&#45;&#45;C_FEDORA</title>
<path fill="none" stroke="turquoise" d="M1185.5,-1725.07C1216.35,-1712.88 1244.4,-1695.1 1266.72,-1669.8 1319.07,-1610.48 1236.45,-306.9 1286.72,-245.8 1296.82,-233.53 1310.97,-225.94 1326.2,-221.41"/>
</g>
<!-- C_API -->
<g id="node23" class="node">
<title>C_API</title>
<g id="a_node23"><a xlink:href="https://github.com/phaidra/phaidra-api" xlink:title="phaidra&#45;demo&#45;api&#45;1">
<polygon fill="none" stroke="green" points="942.22,-364.8 787.22,-364.8 787.22,-360.8 783.22,-360.8 783.22,-356.8 787.22,-356.8 787.22,-336.8 783.22,-336.8 783.22,-332.8 787.22,-332.8 787.22,-328.8 942.22,-328.8 942.22,-364.8"/>
<polyline fill="none" stroke="green" points="787.22,-360.8 791.22,-360.8 791.22,-356.8 787.22,-356.8 "/>
<polyline fill="none" stroke="green" points="787.22,-336.8 791.22,-336.8 791.22,-332.8 787.22,-332.8 "/>
<text text-anchor="middle" x="864.72" y="-343.1" font-family="Times,serif" font-size="14.00">phaidra&#45;demo&#45;api&#45;1</text>
</a>
</g>
</g>
<!-- HS_FEDORA&#45;&#45;C_API -->
<g id="edge3" class="edge">
<title>HS_FEDORA&#45;&#45;C_API</title>
<path fill="none" stroke="turquoise" d="M544.01,-1740.7C504.03,-1726.37 470.84,-1701.48 452.72,-1660.8 439.66,-1631.47 439.66,-534.14 452.72,-504.8 507.89,-380.94 683.72,-352.82 786.99,-347.27"/>
</g>
<!-- C_PIXELGECKO -->
<g id="node30" class="node">
<title>C_PIXELGECKO</title>
<polygon fill="none" stroke="green" points="1806.22,-452.8 1597.22,-452.8 1597.22,-448.8 1593.22,-448.8 1593.22,-444.8 1597.22,-444.8 1597.22,-424.8 1593.22,-424.8 1593.22,-420.8 1597.22,-420.8 1597.22,-416.8 1806.22,-416.8 1806.22,-452.8"/>
<polyline fill="none" stroke="green" points="1597.22,-448.8 1601.22,-448.8 1601.22,-444.8 1597.22,-444.8 "/>
<polyline fill="none" stroke="green" points="1597.22,-424.8 1601.22,-424.8 1601.22,-420.8 1597.22,-420.8 "/>
<text text-anchor="middle" x="1701.72" y="-431.1" font-family="Times,serif" font-size="14.00">phaidra&#45;demo&#45;pixelgecko&#45;1</text>
</g>
<!-- HS_FEDORA&#45;&#45;C_PIXELGECKO -->
<g id="edge14" class="edge">
<title>HS_FEDORA&#45;&#45;C_PIXELGECKO</title>
<path fill="none" stroke="turquoise" d="M1185.51,-1714.68C1214.92,-1704.06 1242.65,-1689.5 1266.72,-1669.8 1370.82,-1584.62 1653.56,-600.74 1695.49,-453.26"/>
</g>
<!-- HS_API_LOGS -->
<g id="node3" class="node">
<title>HS_API_LOGS</title>
<polygon fill="none" stroke="turquoise" points="1164.22,-1934.8 1161.22,-1938.8 1140.22,-1938.8 1137.22,-1934.8 565.22,-1934.8 565.22,-1882.8 1164.22,-1882.8 1164.22,-1934.8"/>
<text text-anchor="start" x="577.72" y="-1916.6" font-family="Times,serif" font-weight="bold" font-size="14.00">host:</text>
<text text-anchor="start" x="682.72" y="-1915.6" font-family="Times,serif" font-size="14.00">$HOME/.local/share/docker/volumes/phaidra&#45;demo_api_logs/_data</text>
<text text-anchor="start" x="577.72" y="-1894.6" font-family="Times,serif" font-size="14.00">api&#45;container:</text>
<text text-anchor="start" x="682.72" y="-1894.6" font-family="Times,serif" font-size="14.00">/var/log/phaidra</text>
</g>
<!-- HS_API_LOGS&#45;&#45;C_API -->
<g id="edge2" class="edge">
<title>HS_API_LOGS&#45;&#45;C_API</title>
<path fill="none" stroke="turquoise" d="M565.14,-1912.31C509.19,-1905.29 464.45,-1891.13 452.72,-1864.8 445.04,-1847.55 445.04,-522.06 452.72,-504.8 507.89,-380.94 683.72,-352.82 786.99,-347.27"/>
</g>
<!-- HS_MARIADB_PHAIDRA -->
<g id="node4" class="node">
<title>HS_MARIADB_PHAIDRA</title>
<polygon fill="none" stroke="turquoise" points="1244.22,-1590.8 1241.22,-1594.8 1220.22,-1594.8 1217.22,-1590.8 485.22,-1590.8 485.22,-1538.8 1244.22,-1538.8 1244.22,-1590.8"/>
<text text-anchor="start" x="497.72" y="-1572.6" font-family="Times,serif" font-weight="bold" font-size="14.00">host:</text>
<text text-anchor="start" x="699.72" y="-1571.6" font-family="Times,serif" font-size="14.00">$HOME/.local/share/docker/volumes/phaidra&#45;demo_mariadb_phaidra/_data</text>
<text text-anchor="start" x="497.72" y="-1550.6" font-family="Times,serif" font-size="14.00">mariadb&#45;phaidra&#45;container:</text>
<text text-anchor="start" x="699.72" y="-1550.6" font-family="Times,serif" font-size="14.00">/var/lib/mysql</text>
</g>
<!-- C_MARIADB_PHAIDRA -->
<g id="node24" class="node">
<title>C_MARIADB_PHAIDRA</title>
<g id="a_node24"><a xlink:href="https://mariadb.org/" xlink:title="phaidra&#45;demo&#45;mariadb&#45;phaidra&#45;1">
<polygon fill="none" stroke="green" points="1541.22,-344.8 1290.22,-344.8 1290.22,-340.8 1286.22,-340.8 1286.22,-336.8 1290.22,-336.8 1290.22,-316.8 1286.22,-316.8 1286.22,-312.8 1290.22,-312.8 1290.22,-308.8 1541.22,-308.8 1541.22,-344.8"/>
<polyline fill="none" stroke="green" points="1290.22,-340.8 1294.22,-340.8 1294.22,-336.8 1290.22,-336.8 "/>
<polyline fill="none" stroke="green" points="1290.22,-316.8 1294.22,-316.8 1294.22,-312.8 1290.22,-312.8 "/>
<text text-anchor="middle" x="1415.72" y="-323.1" font-family="Times,serif" font-size="14.00">phaidra&#45;demo&#45;mariadb&#45;phaidra&#45;1</text>
</a>
</g>
</g>
<!-- HS_MARIADB_PHAIDRA&#45;&#45;C_MARIADB_PHAIDRA -->
<g id="edge6" class="edge">
<title>HS_MARIADB_PHAIDRA&#45;&#45;C_MARIADB_PHAIDRA</title>
<path fill="none" stroke="turquoise" d="M975.99,-1590.85C1067.76,-1605.29 1194.65,-1607.11 1266.72,-1529.8 1311.28,-1482.01 1245.13,-404.2 1286.72,-353.8 1289.47,-350.47 1292.51,-347.49 1295.79,-344.82"/>
</g>
<!-- HS_MONGODB_PHAIDRA -->
<g id="node5" class="node">
<title>HS_MONGODB_PHAIDRA</title>
<polygon fill="none" stroke="turquoise" points="1250.72,-1380.8 1247.72,-1384.8 1226.72,-1384.8 1223.72,-1380.8 478.72,-1380.8 478.72,-1328.8 1250.72,-1328.8 1250.72,-1380.8"/>
<text text-anchor="start" x="490.72" y="-1362.6" font-family="Times,serif" font-weight="bold" font-size="14.00">host:</text>
<text text-anchor="start" x="698.72" y="-1361.6" font-family="Times,serif" font-size="14.00">$HOME/.local/share/docker/volumes/phaidra&#45;demo_mongodb_phaidra/_data</text>
<text text-anchor="start" x="490.72" y="-1340.6" font-family="Times,serif" font-size="14.00">phaidra&#45;mongodb&#45;container:</text>
<text text-anchor="start" x="698.72" y="-1340.6" font-family="Times,serif" font-size="14.00">/data/db</text>
</g>
<!-- C_MONGODB_PHAIDRA -->
<g id="node25" class="node">
<title>C_MONGODB_PHAIDRA</title>
<g id="a_node25"><a xlink:href="https://www.mongodb.com/" xlink:title="phaidra&#45;demo&#45;mongodb&#45;phaidra&#45;1">
<polygon fill="none" stroke="green" points="1544.72,-290.8 1286.72,-290.8 1286.72,-286.8 1282.72,-286.8 1282.72,-282.8 1286.72,-282.8 1286.72,-262.8 1282.72,-262.8 1282.72,-258.8 1286.72,-258.8 1286.72,-254.8 1544.72,-254.8 1544.72,-290.8"/>
<polyline fill="none" stroke="green" points="1286.72,-286.8 1290.72,-286.8 1290.72,-282.8 1286.72,-282.8 "/>
<polyline fill="none" stroke="green" points="1286.72,-262.8 1290.72,-262.8 1290.72,-258.8 1286.72,-258.8 "/>
<text text-anchor="middle" x="1415.72" y="-269.1" font-family="Times,serif" font-size="14.00">phaidra&#45;demo&#45;mongodb&#45;phaidra&#45;1</text>
</a>
</g>
</g>
<!-- HS_MONGODB_PHAIDRA&#45;&#45;C_MONGODB_PHAIDRA -->
<g id="edge7" class="edge">
<title>HS_MONGODB_PHAIDRA&#45;&#45;C_MONGODB_PHAIDRA</title>
<path fill="none" stroke="turquoise" d="M975.94,-1380.8C1067.68,-1395.21 1194.55,-1397.02 1266.72,-1319.8 1305.42,-1278.4 1250.59,-343.47 1286.72,-299.8 1289.47,-296.48 1292.52,-293.5 1295.81,-290.83"/>
</g>
<!-- HS_OPENLDAP -->
<g id="node6" class="node">
<title>HS_OPENLDAP</title>
<polygon fill="none" stroke="turquoise" points="1189.72,-1660.8 1186.72,-1664.8 1165.72,-1664.8 1162.72,-1660.8 539.72,-1660.8 539.72,-1608.8 1189.72,-1608.8 1189.72,-1660.8"/>
<text text-anchor="start" x="551.72" y="-1642.6" font-family="Times,serif" font-weight="bold" font-size="14.00">host:</text>
<text text-anchor="start" x="699.72" y="-1641.6" font-family="Times,serif" font-size="14.00">$HOME/.local/share/docker/volumes/phaidra&#45;demo_openldap/_data</text>
<text text-anchor="start" x="551.72" y="-1620.6" font-family="Times,serif" font-size="14.00">openldap&#45;container:</text>
<text text-anchor="start" x="699.72" y="-1620.6" font-family="Times,serif" font-size="14.00">/bitnami/openldap</text>
</g>
<!-- C_OPENLDAP -->
<g id="node27" class="node">
<title>C_OPENLDAP</title>
<g id="a_node27"><a xlink:href="https://www.openldap.org/" xlink:title="phaidra&#45;demo&#45;openldap&#45;1">
<polygon fill="none" stroke="green" points="1514.72,-398.8 1316.72,-398.8 1316.72,-394.8 1312.72,-394.8 1312.72,-390.8 1316.72,-390.8 1316.72,-370.8 1312.72,-370.8 1312.72,-366.8 1316.72,-366.8 1316.72,-362.8 1514.72,-362.8 1514.72,-398.8"/>
<polyline fill="none" stroke="green" points="1316.72,-394.8 1320.72,-394.8 1320.72,-390.8 1316.72,-390.8 "/>
<polyline fill="none" stroke="green" points="1316.72,-370.8 1320.72,-370.8 1320.72,-366.8 1316.72,-366.8 "/>
<text text-anchor="middle" x="1415.72" y="-377.1" font-family="Times,serif" font-size="14.00">phaidra&#45;demo&#45;openldap&#45;1</text>
</a>
</g>
</g>
<!-- HS_OPENLDAP&#45;&#45;C_OPENLDAP -->
<g id="edge10" class="edge">
<title>HS_OPENLDAP&#45;&#45;C_OPENLDAP</title>
<path fill="none" stroke="turquoise" d="M976,-1660.85C1067.77,-1675.3 1194.65,-1677.12 1266.72,-1599.8 1311.88,-1551.35 1244.57,-458.89 1286.72,-407.8 1294.67,-398.17 1305.11,-391.43 1316.61,-386.78"/>
</g>
<!-- HS_SOLR -->
<g id="node7" class="node">
<title>HS_SOLR</title>
<polygon fill="none" stroke="turquoise" points="1151.22,-1520.8 1148.22,-1524.8 1127.22,-1524.8 1124.22,-1520.8 578.22,-1520.8 578.22,-1468.8 1151.22,-1468.8 1151.22,-1520.8"/>
<text text-anchor="start" x="590.72" y="-1502.6" font-family="Times,serif" font-weight="bold" font-size="14.00">host:</text>
<text text-anchor="start" x="700.72" y="-1501.6" font-family="Times,serif" font-size="14.00">$HOME/.local/share/docker/volumes/phaidra&#45;demo_solr/_data</text>
<text text-anchor="start" x="590.72" y="-1480.6" font-family="Times,serif" font-size="14.00">solr&#45;container:</text>
<text text-anchor="start" x="700.72" y="-1480.6" font-family="Times,serif" font-size="14.00">/var/solr</text>
</g>
<!-- C_SOLR -->
<g id="node28" class="node">
<title>C_SOLR</title>
<g id="a_node28"><a xlink:href="https://solr.apache.org/" xlink:title="phaidra&#45;demo&#45;solr&#45;1">
<polygon fill="none" stroke="green" points="1495.72,-182.8 1335.72,-182.8 1335.72,-178.8 1331.72,-178.8 1331.72,-174.8 1335.72,-174.8 1335.72,-154.8 1331.72,-154.8 1331.72,-150.8 1335.72,-150.8 1335.72,-146.8 1495.72,-146.8 1495.72,-182.8"/>
<polyline fill="none" stroke="green" points="1335.72,-178.8 1339.72,-178.8 1339.72,-174.8 1335.72,-174.8 "/>
<polyline fill="none" stroke="green" points="1335.72,-154.8 1339.72,-154.8 1339.72,-150.8 1335.72,-150.8 "/>
<text text-anchor="middle" x="1415.72" y="-161.1" font-family="Times,serif" font-size="14.00">phaidra&#45;demo&#45;solr&#45;1</text>
</a>
</g>
</g>
<!-- HS_SOLR&#45;&#45;C_SOLR -->
<g id="edge12" class="edge">
<title>HS_SOLR&#45;&#45;C_SOLR</title>
<path fill="none" stroke="turquoise" d="M976.02,-1520.87C1067.8,-1535.33 1194.69,-1537.16 1266.72,-1459.8 1314.73,-1408.24 1241.91,-246.17 1286.72,-191.8 1298.86,-177.08 1316.81,-169.11 1335.45,-165.05"/>
</g>
<!-- HS_PIXELGECKO -->
<g id="node8" class="node">
<title>HS_PIXELGECKO</title>
<polygon fill="none" stroke="turquoise" points="1206.72,-1864.3 1203.72,-1868.3 1182.72,-1868.3 1179.72,-1864.3 522.72,-1864.3 522.72,-1791.3 1206.72,-1791.3 1206.72,-1864.3"/>
<text text-anchor="start" x="534.72" y="-1845.6" font-family="Times,serif" font-weight="bold" font-size="14.00">host:</text>
<text text-anchor="start" x="706.72" y="-1844.6" font-family="Times,serif" font-size="14.00">$HOME/.local/share/docker/volumes/phaidra&#45;demo_pixelgecko/_data</text>
<text text-anchor="start" x="534.72" y="-1823.6" font-family="Times,serif" font-size="14.00">pixelgecko&#45;container:</text>
<text text-anchor="start" x="706.72" y="-1823.6" font-family="Times,serif" font-size="14.00">/mnt/converted_images</text>
<text text-anchor="start" x="534.72" y="-1802.6" font-family="Times,serif" font-size="14.00">imageserver&#45;container:</text>
<text text-anchor="start" x="706.72" y="-1802.6" font-family="Times,serif" font-size="14.00">/mnt/converted_images:ro</text>
</g>
<!-- C_IMAGESERVER -->
<g id="node29" class="node">
<title>C_IMAGESERVER</title>
<g id="a_node29"><a xlink:href="https://github.com/ruven/iipsrv" xlink:title="phaidra&#45;demo&#45;imageserver&#45;1">
<polygon fill="none" stroke="green" points="1526.72,-452.8 1304.72,-452.8 1304.72,-448.8 1300.72,-448.8 1300.72,-444.8 1304.72,-444.8 1304.72,-424.8 1300.72,-424.8 1300.72,-420.8 1304.72,-420.8 1304.72,-416.8 1526.72,-416.8 1526.72,-452.8"/>
<polyline fill="none" stroke="green" points="1304.72,-448.8 1308.72,-448.8 1308.72,-444.8 1304.72,-444.8 "/>
<polyline fill="none" stroke="green" points="1304.72,-424.8 1308.72,-424.8 1308.72,-420.8 1304.72,-420.8 "/>
<text text-anchor="middle" x="1415.72" y="-431.1" font-family="Times,serif" font-size="14.00">phaidra&#45;demo&#45;imageserver&#45;1</text>
</a>
</g>
</g>
<!-- HS_PIXELGECKO&#45;&#45;C_IMAGESERVER -->
<g id="edge13" class="edge">
<title>HS_PIXELGECKO&#45;&#45;C_IMAGESERVER</title>
<path fill="none" stroke="turquoise" d="M1207.16,-1824.6C1229.23,-1813.97 1249.48,-1799.98 1266.72,-1781.8 1291.55,-1755.64 1283.37,-1493.72 1286.72,-1457.8 1324.81,-1049.69 1397.18,-553.13 1412.02,-452.92"/>
</g>
<!-- HS_PIXELGECKO&#45;&#45;C_PIXELGECKO -->
<g id="edge15" class="edge">
<title>HS_PIXELGECKO&#45;&#45;C_PIXELGECKO</title>
<path fill="none" stroke="turquoise" d="M1207.21,-1811.33C1228.12,-1803.49 1248.18,-1793.77 1266.72,-1781.8 1469.04,-1651.24 1460.59,-1542.41 1544.72,-1316.8 1668.33,-985.34 1695.44,-546.45 1699.95,-452.84"/>
</g>
<!-- HS_DBGATE -->
<g id="node9" class="node">
<title>HS_DBGATE</title>
<polygon fill="none" stroke="turquoise" points="1174.22,-1450.8 1171.22,-1454.8 1150.22,-1454.8 1147.22,-1450.8 555.22,-1450.8 555.22,-1398.8 1174.22,-1398.8 1174.22,-1450.8"/>
<text text-anchor="start" x="567.72" y="-1432.6" font-family="Times,serif" font-weight="bold" font-size="14.00">host:</text>
<text text-anchor="start" x="700.72" y="-1431.6" font-family="Times,serif" font-size="14.00">$HOME/.local/share/docker/volumes/phaidra&#45;demo_dbgate/_data</text>
<text text-anchor="start" x="567.72" y="-1410.6" font-family="Times,serif" font-size="14.00">dbgate&#45;container:</text>
<text text-anchor="start" x="700.72" y="-1410.6" font-family="Times,serif" font-size="14.00">/root/.dbgate</text>
</g>
<!-- C_DBGATE -->
<g id="node31" class="node">
<title>C_DBGATE</title>
<polygon fill="none" stroke="green" points="955.72,-290.8 773.72,-290.8 773.72,-286.8 769.72,-286.8 769.72,-282.8 773.72,-282.8 773.72,-262.8 769.72,-262.8 769.72,-258.8 773.72,-258.8 773.72,-254.8 955.72,-254.8 955.72,-290.8"/>
<polyline fill="none" stroke="green" points="773.72,-286.8 777.72,-286.8 777.72,-282.8 773.72,-282.8 "/>
<polyline fill="none" stroke="green" points="773.72,-262.8 777.72,-262.8 777.72,-258.8 773.72,-258.8 "/>
<text text-anchor="middle" x="864.72" y="-269.1" font-family="Times,serif" font-size="14.00">phaidra&#45;demo&#45;dbgate&#45;1</text>
</g>
<!-- HS_DBGATE&#45;&#45;C_DBGATE -->
<g id="edge16" class="edge">
<title>HS_DBGATE&#45;&#45;C_DBGATE</title>
<path fill="none" stroke="turquoise" d="M555.06,-1426.95C503.87,-1419.52 463.73,-1405.53 452.72,-1380.8 440.83,-1354.11 440.83,-355.5 452.72,-328.8 506.69,-207.64 695.44,-231.56 797.69,-254.71"/>
</g>
<!-- HS_MARIADB_FEDORA -->
<g id="node10" class="node">
<title>HS_MARIADB_FEDORA</title>
<polygon fill="none" stroke="turquoise" points="1235.22,-2004.8 1232.22,-2008.8 1211.22,-2008.8 1208.22,-2004.8 494.22,-2004.8 494.22,-1952.8 1235.22,-1952.8 1235.22,-2004.8"/>
<text text-anchor="start" x="506.72" y="-1986.6" font-family="Times,serif" font-weight="bold" font-size="14.00">host:</text>
<text text-anchor="start" x="699.72" y="-1985.6" font-family="Times,serif" font-size="14.00">$HOME/.local/share/docker/volumes/phaidra&#45;demo_mariadb_fedora/_data</text>
<text text-anchor="start" x="506.72" y="-1964.6" font-family="Times,serif" font-size="14.00">mariadb&#45;fedora&#45;container:</text>
<text text-anchor="start" x="699.72" y="-1964.6" font-family="Times,serif" font-size="14.00">/var/lib/mysql</text>
</g>
<!-- C_MARIADB_FEDORA -->
<g id="node33" class="node">
<title>C_MARIADB_FEDORA</title>
<g id="a_node33"><a xlink:href="https://mariadb.org/" xlink:title="phaidra&#45;demo&#45;mariadb&#45;fedora&#45;1">
<polygon fill="none" stroke="green" points="1822.72,-208.8 1580.72,-208.8 1580.72,-204.8 1576.72,-204.8 1576.72,-200.8 1580.72,-200.8 1580.72,-180.8 1576.72,-180.8 1576.72,-176.8 1580.72,-176.8 1580.72,-172.8 1822.72,-172.8 1822.72,-208.8"/>
<polyline fill="none" stroke="green" points="1580.72,-204.8 1584.72,-204.8 1584.72,-200.8 1580.72,-200.8 "/>
<polyline fill="none" stroke="green" points="1580.72,-180.8 1584.72,-180.8 1584.72,-176.8 1580.72,-176.8 "/>
<text text-anchor="middle" x="1701.72" y="-187.1" font-family="Times,serif" font-size="14.00">phaidra&#45;demo&#45;mariadb&#45;fedora&#45;1</text>
</a>
</g>
</g>
<!-- HS_MARIADB_FEDORA&#45;&#45;C_MARIADB_FEDORA -->
<g id="edge17" class="edge">
<title>HS_MARIADB_FEDORA&#45;&#45;C_MARIADB_FEDORA</title>
<path fill="none" stroke="turquoise" d="M1002.59,-2004.81C1088.64,-2012.88 1196.3,-2006.58 1266.72,-1943.8 1786.83,-1480.12 1339.58,-1061.53 1580.72,-407.8 1609.63,-329.45 1663.64,-245.23 1688.1,-209.03"/>
</g>
<!-- HS_DATABASE_DUMPS -->
<g id="node11" class="node">
<title>HS_DATABASE_DUMPS</title>
<polygon fill="none" stroke="turquoise" points="1243.72,-1310.8 1240.72,-1314.8 1219.72,-1314.8 1216.72,-1310.8 485.72,-1310.8 485.72,-1258.8 1243.72,-1258.8 1243.72,-1310.8"/>
<text text-anchor="start" x="497.72" y="-1292.6" font-family="Times,serif" font-weight="bold" font-size="14.00">host:</text>
<text text-anchor="start" x="636.72" y="-1291.6" font-family="Times,serif" font-size="14.00">$HOME/.local/share/docker/volumes/phaidra&#45;demo_chronos_database_dumps/_data</text>
<text text-anchor="start" x="497.72" y="-1270.6" font-family="Times,serif" font-size="14.00">chronos&#45;container:</text>
<text text-anchor="start" x="636.72" y="-1270.6" font-family="Times,serif" font-size="14.00">/mnt/database&#45;dumps</text>
</g>
<!-- HS_SITEMAPS -->
<g id="node12" class="node">
<title>HS_SITEMAPS</title>
<polygon fill="none" stroke="turquoise" points="1216.22,-1170.3 1213.22,-1174.3 1192.22,-1174.3 1189.22,-1170.3 513.22,-1170.3 513.22,-1097.3 1216.22,-1097.3 1216.22,-1170.3"/>
<text text-anchor="start" x="525.72" y="-1151.6" font-family="Times,serif" font-weight="bold" font-size="14.00">host:</text>
<text text-anchor="start" x="664.72" y="-1150.6" font-family="Times,serif" font-size="14.00">$HOME/.local/share/docker/volumes/phaidra&#45;demo_chronos_sitemaps/_data</text>
<text text-anchor="start" x="525.72" y="-1129.6" font-family="Times,serif" font-size="14.00">chronos&#45;container:</text>
<text text-anchor="start" x="664.72" y="-1129.6" font-family="Times,serif" font-size="14.00">/mnt/sitemaps</text>
<text text-anchor="start" x="525.72" y="-1108.6" font-family="Times,serif" font-size="14.00">httpd&#45;container:</text>
<text text-anchor="start" x="664.72" y="-1108.6" font-family="Times,serif" font-size="14.00">/mnt/sitemaps:ro</text>
</g>
<!-- HS_OAI_LOGS -->
<g id="node13" class="node">
<title>HS_OAI_LOGS</title>
<polygon fill="none" stroke="turquoise" points="1212.22,-1240.8 1209.22,-1244.8 1188.22,-1244.8 1185.22,-1240.8 517.22,-1240.8 517.22,-1188.8 1212.22,-1188.8 1212.22,-1240.8"/>
<text text-anchor="start" x="529.72" y="-1222.6" font-family="Times,serif" font-weight="bold" font-size="14.00">host:</text>
<text text-anchor="start" x="668.72" y="-1221.6" font-family="Times,serif" font-size="14.00">$HOME/.local/share/docker/volumes/phaidra&#45;demo_chronos_oai_logs/_data</text>
<text text-anchor="start" x="529.72" y="-1200.6" font-family="Times,serif" font-size="14.00">chronos&#45;container:</text>
<text text-anchor="start" x="668.72" y="-1200.6" font-family="Times,serif" font-size="14.00">/mnt/oai&#45;logs</text>
</g>
<!-- BIND_MARIADB_PHAIDRA_INIT -->
<g id="node14" class="node">
<title>BIND_MARIADB_PHAIDRA_INIT</title>
<polygon fill="none" stroke="blue" points="1179.72,-979.8 1176.72,-983.8 1155.72,-983.8 1152.72,-979.8 549.72,-979.8 549.72,-927.8 1179.72,-927.8 1179.72,-979.8"/>
<text text-anchor="start" x="561.72" y="-961.6" font-family="Times,serif" font-weight="bold" font-size="14.00">host:</text>
<text text-anchor="start" x="763.72" y="-960.6" font-family="Times,serif" font-size="14.00">$REPO/container_components/mariadb/phaidradb.sql.gz</text>
<text text-anchor="start" x="561.72" y="-939.6" font-family="Times,serif" font-size="14.00">mariadb&#45;phaidra&#45;container:</text>
<text text-anchor="start" x="763.72" y="-939.6" font-family="Times,serif" font-size="14.00">/docker&#45;entrypoint&#45;initdb.d/phaidradb.sql.gz:ro</text>
</g>
<!-- BIND_MARIADB_PHAIDRA_INIT&#45;&#45;C_MARIADB_PHAIDRA -->
<g id="edge5" class="edge">
<title>BIND_MARIADB_PHAIDRA_INIT&#45;&#45;C_MARIADB_PHAIDRA</title>
<path fill="none" stroke="blue" d="M977.91,-979.87C1069.27,-993.77 1194.54,-994.82 1266.72,-918.8 1309.98,-873.25 1246.3,-401.88 1286.72,-353.8 1289.5,-350.5 1292.57,-347.54 1295.87,-344.89"/>
</g>
<!-- BIND_OPENLDAP_INIT -->
<g id="node15" class="node">
<title>BIND_OPENLDAP_INIT</title>
<polygon fill="none" stroke="blue" points="1093.72,-1049.8 1090.72,-1053.8 1069.72,-1053.8 1066.72,-1049.8 635.72,-1049.8 635.72,-997.8 1093.72,-997.8 1093.72,-1049.8"/>
<text text-anchor="start" x="647.72" y="-1031.6" font-family="Times,serif" font-weight="bold" font-size="14.00">host:</text>
<text text-anchor="start" x="795.72" y="-1030.6" font-family="Times,serif" font-size="14.00">$REPO/container_components/openldap</text>
<text text-anchor="start" x="647.72" y="-1009.6" font-family="Times,serif" font-size="14.00">openldap&#45;container:</text>
<text text-anchor="start" x="795.72" y="-1009.6" font-family="Times,serif" font-size="14.00">/ldifs:ro</text>
</g>
<!-- BIND_OPENLDAP_INIT&#45;&#45;C_OPENLDAP -->
<g id="edge11" class="edge">
<title>BIND_OPENLDAP_INIT&#45;&#45;C_OPENLDAP</title>
<path fill="none" stroke="blue" d="M977.48,-1049.82C1068.89,-1063.79 1194.46,-1064.98 1266.72,-988.8 1311.18,-941.94 1245.18,-457.26 1286.72,-407.8 1294.68,-398.33 1305.06,-391.66 1316.45,-387.04"/>
</g>
<!-- BIND_HTTPD_CONFIG -->
<g id="node16" class="node">
<title>BIND_HTTPD_CONFIG</title>
<polygon fill="none" stroke="blue" points="1100.72,-769.8 1097.72,-773.8 1076.72,-773.8 1073.72,-769.8 628.72,-769.8 628.72,-717.8 1100.72,-717.8 1100.72,-769.8"/>
<text text-anchor="start" x="640.72" y="-751.6" font-family="Times,serif" font-weight="bold" font-size="14.00">host:</text>
<text text-anchor="start" x="762.72" y="-750.6" font-family="Times,serif" font-size="14.00">$REPO/webserver_configs/phaidra&#45;demo.conf</text>
<text text-anchor="start" x="640.72" y="-729.6" font-family="Times,serif" font-size="14.00">httpd&#45;container:</text>
<text text-anchor="start" x="762.72" y="-729.6" font-family="Times,serif" font-size="14.00">/usr/local/apache2/conf/httpd.conf:ro</text>
</g>
<!-- BIND_API_CODE -->
<g id="node17" class="node">
<title>BIND_API_CODE</title>
<polygon fill="none" stroke="blue" points="1044.22,-839.8 1041.22,-843.8 1020.22,-843.8 1017.22,-839.8 685.22,-839.8 685.22,-787.8 1044.22,-787.8 1044.22,-839.8"/>
<text text-anchor="start" x="697.72" y="-821.6" font-family="Times,serif" font-weight="bold" font-size="14.00">host:</text>
<text text-anchor="start" x="802.72" y="-820.6" font-family="Times,serif" font-size="14.00">$REPO/components/phaidra&#45;api</text>
<text text-anchor="start" x="697.72" y="-799.6" font-family="Times,serif" font-size="14.00">api&#45;container:</text>
<text text-anchor="start" x="802.72" y="-799.6" font-family="Times,serif" font-size="14.00">/usr/local/phaidra/phaidra&#45;api:ro</text>
</g>
<!-- BIND_API_CODE&#45;&#45;C_API -->
<g id="edge4" class="edge">
<title>BIND_API_CODE&#45;&#45;C_API</title>
<path fill="none" stroke="blue" d="M685.12,-823.35C583.25,-823.73 472.24,-813.62 452.72,-769.8 440.74,-742.91 440.74,-531.7 452.72,-504.8 507.89,-380.94 683.72,-352.82 786.99,-347.27"/>
</g>
<!-- BIND_DOCUMENTATION -->
<g id="node18" class="node">
<title>BIND_DOCUMENTATION</title>
<polygon fill="none" stroke="blue" points="982.72,-699.8 979.72,-703.8 958.72,-703.8 955.72,-699.8 746.72,-699.8 746.72,-647.8 982.72,-647.8 982.72,-699.8"/>
<text text-anchor="start" x="758.72" y="-681.6" font-family="Times,serif" font-weight="bold" font-size="14.00">host:</text>
<text text-anchor="start" x="880.72" y="-680.6" font-family="Times,serif" font-size="14.00">$REPO/docs</text>
<text text-anchor="start" x="758.72" y="-659.6" font-family="Times,serif" font-size="14.00">httpd&#45;container:</text>
<text text-anchor="start" x="880.72" y="-659.6" font-family="Times,serif" font-size="14.00">/mnt/docs:ro</text>
</g>
<!-- BIND_CHRONOS -->
<g id="node19" class="node">
<title>BIND_CHRONOS</title>
<polygon fill="none" stroke="blue" points="1084.72,-909.8 1081.72,-913.8 1060.72,-913.8 1057.72,-909.8 644.72,-909.8 644.72,-857.8 1084.72,-857.8 1084.72,-909.8"/>
<text text-anchor="start" x="656.72" y="-891.6" font-family="Times,serif" font-weight="bold" font-size="14.00">host:</text>
<text text-anchor="start" x="795.72" y="-890.6" font-family="Times,serif" font-size="14.00">$REPO/container_components/chronos</text>
<text text-anchor="start" x="656.72" y="-869.6" font-family="Times,serif" font-size="14.00">chronos&#45;container:</text>
<text text-anchor="start" x="795.72" y="-869.6" font-family="Times,serif" font-size="14.00">/mnt/chronos:ro</text>
</g>
<!-- BIND_MONGODB_INIT_OAI -->
<g id="node20" class="node">
<title>BIND_MONGODB_INIT_OAI</title>
<polygon fill="none" stroke="blue" points="1157.72,-629.8 1154.72,-633.8 1133.72,-633.8 1130.72,-629.8 571.72,-629.8 571.72,-577.8 1157.72,-577.8 1157.72,-629.8"/>
<text text-anchor="start" x="583.72" y="-611.6" font-family="Times,serif" font-weight="bold" font-size="14.00">host:</text>
<text text-anchor="start" x="732.72" y="-610.6" font-family="Times,serif" font-size="14.00">$REPO/container_components/mongodb/init_oai_sets.json</text>
<text text-anchor="start" x="583.72" y="-589.6" font-family="Times,serif" font-size="14.00">mongodb&#45;container:</text>
<text text-anchor="start" x="732.72" y="-589.6" font-family="Times,serif" font-size="14.00">/mnt/init_oai_sets.json:ro</text>
</g>
<!-- BIND_MONGODB_INIT_OAI&#45;&#45;C_MONGODB_PHAIDRA -->
<g id="edge9" class="edge">
<title>BIND_MONGODB_INIT_OAI&#45;&#45;C_MONGODB_PHAIDRA</title>
<path fill="none" stroke="blue" d="M982.19,-629.87C1072.63,-642.6 1194.43,-642.03 1266.72,-568.8 1308.83,-526.15 1247.26,-344.93 1286.72,-299.8 1289.64,-296.47 1292.85,-293.49 1296.3,-290.82"/>
</g>
<!-- BIND_MONGODB_INIT -->
<g id="node21" class="node">
<title>BIND_MONGODB_INIT</title>
<polygon fill="none" stroke="blue" points="1180.22,-559.8 1177.22,-563.8 1156.22,-563.8 1153.22,-559.8 549.22,-559.8 549.22,-507.8 1180.22,-507.8 1180.22,-559.8"/>
<text text-anchor="start" x="561.72" y="-541.6" font-family="Times,serif" font-weight="bold" font-size="14.00">host:</text>
<text text-anchor="start" x="710.72" y="-540.6" font-family="Times,serif" font-size="14.00">$REPO/container_components/mongodb/mongodb&#45;after&#45;entry.sh</text>
<text text-anchor="start" x="561.72" y="-519.6" font-family="Times,serif" font-size="14.00">mongodb&#45;container:</text>
<text text-anchor="start" x="710.72" y="-519.6" font-family="Times,serif" font-size="14.00">/docker&#45;entrypoint&#45;initdb.d/mongodb&#45;after&#45;entry.sh:ro</text>
</g>
<!-- BIND_MONGODB_INIT&#45;&#45;C_MONGODB_PHAIDRA -->
<g id="edge8" class="edge">
<title>BIND_MONGODB_INIT&#45;&#45;C_MONGODB_PHAIDRA</title>
<path fill="none" stroke="blue" d="M1180.35,-540.2C1212.63,-529.08 1242.42,-512.31 1266.72,-487.8 1296.31,-457.97 1258.57,-330.99 1286.72,-299.8 1289.69,-296.52 1292.95,-293.57 1296.44,-290.94"/>
</g>
<!-- C_FEDORA&#45;&#45;C_MARIADB_FEDORA -->
<g id="edge25" class="edge">
<title>C_FEDORA&#45;&#45;C_MARIADB_FEDORA</title>
<path fill="none" stroke="orange" d="M1505.41,-210.06C1529.26,-207.71 1555.45,-205.13 1580.69,-202.64"/>
</g>
<!-- C_API&#45;&#45;C_FEDORA -->
<g id="edge26" class="edge">
<title>C_API&#45;&#45;C_FEDORA</title>
<path fill="none" stroke="orange" d="M942.28,-364.21C1030.66,-379.51 1175.53,-389.18 1266.72,-314.8 1291.47,-294.62 1263.32,-267.53 1286.72,-245.8 1297.71,-235.6 1311.54,-228.87 1326.01,-224.49"/>
</g>
<!-- C_API&#45;&#45;C_MARIADB_PHAIDRA -->
<g id="edge27" class="edge">
<title>C_API&#45;&#45;C_MARIADB_PHAIDRA</title>
<path fill="none" stroke="orange" d="M942.35,-344.01C1032.43,-340.73 1183.19,-335.24 1290.14,-331.34"/>
</g>
<!-- C_API&#45;&#45;C_MONGODB_PHAIDRA -->
<g id="edge28" class="edge">
<title>C_API&#45;&#45;C_MONGODB_PHAIDRA</title>
<path fill="none" stroke="orange" d="M942.36,-353.07C1025.15,-357.06 1159.59,-355.32 1266.72,-314.8 1277.11,-310.87 1276.6,-304.39 1286.72,-299.8 1294.17,-296.43 1302.05,-293.47 1310.1,-290.87"/>
</g>
<!-- C_UI -->
<g id="node26" class="node">
<title>C_UI</title>
<g id="a_node26"><a xlink:href="https://github.com/phaidra/phaidra-ui" xlink:title="phaidra&#45;demo&#45;ui&#45;1">
<polygon fill="none" stroke="green" points="1488.72,-128.8 1342.72,-128.8 1342.72,-124.8 1338.72,-124.8 1338.72,-120.8 1342.72,-120.8 1342.72,-100.8 1338.72,-100.8 1338.72,-96.8 1342.72,-96.8 1342.72,-92.8 1488.72,-92.8 1488.72,-128.8"/>
<polyline fill="none" stroke="green" points="1342.72,-124.8 1346.72,-124.8 1346.72,-120.8 1342.72,-120.8 "/>
<polyline fill="none" stroke="green" points="1342.72,-100.8 1346.72,-100.8 1346.72,-96.8 1342.72,-96.8 "/>
<text text-anchor="middle" x="1415.72" y="-107.1" font-family="Times,serif" font-size="14.00">phaidra&#45;demo&#45;ui&#45;1</text>
</a>
</g>
</g>
<!-- C_API&#45;&#45;C_UI -->
<g id="edge29" class="edge">
<title>C_API&#45;&#45;C_UI</title>
<path fill="none" stroke="orange" d="M942.47,-362.89C1033.1,-376.97 1182.2,-383.8 1266.72,-299.8 1318.18,-248.66 1237.65,-191.24 1286.72,-137.8 1301.01,-122.25 1321.81,-114.43 1342.5,-110.78"/>
</g>
<!-- C_API&#45;&#45;C_OPENLDAP -->
<g id="edge30" class="edge">
<title>C_API&#45;&#45;C_OPENLDAP</title>
<path fill="none" stroke="orange" d="M942.35,-351.55C1040.1,-357.6 1209.29,-368.08 1316.44,-374.72"/>
</g>
<!-- C_API&#45;&#45;C_SOLR -->
<g id="edge31" class="edge">
<title>C_API&#45;&#45;C_SOLR</title>
<path fill="none" stroke="orange" d="M937.6,-364.87C1026.86,-382.59 1178.13,-396.45 1266.72,-314.8 1307.45,-277.27 1248.48,-231.87 1286.72,-191.8 1299.58,-178.33 1317.33,-170.72 1335.53,-166.6"/>
</g>
<!-- C_API&#45;&#45;C_IMAGESERVER -->
<g id="edge32" class="edge">
<title>C_API&#45;&#45;C_IMAGESERVER</title>
<path fill="none" stroke="orange" d="M942.35,-359.09C1036.56,-374.19 1197.13,-399.93 1304.56,-417.15"/>
</g>
<!-- C_MONGODB_PHAIDRA&#45;&#45;C_PIXELGECKO -->
<g id="edge33" class="edge">
<title>C_MONGODB_PHAIDRA&#45;&#45;C_PIXELGECKO</title>
<path fill="none" stroke="orange" d="M1523.28,-290.87C1530.68,-293.46 1537.91,-296.42 1544.72,-299.8 1604.4,-329.42 1659.71,-387.26 1685.49,-416.68"/>
</g>
<!-- C_LAM -->
<g id="node32" class="node">
<title>C_LAM</title>
<polygon fill="none" stroke="green" points="1781.22,-97.8 1622.22,-97.8 1622.22,-93.8 1618.22,-93.8 1618.22,-89.8 1622.22,-89.8 1622.22,-69.8 1618.22,-69.8 1618.22,-65.8 1622.22,-65.8 1622.22,-61.8 1781.22,-61.8 1781.22,-97.8"/>
<polyline fill="none" stroke="green" points="1622.22,-93.8 1626.22,-93.8 1626.22,-89.8 1622.22,-89.8 "/>
<polyline fill="none" stroke="green" points="1622.22,-69.8 1626.22,-69.8 1626.22,-65.8 1622.22,-65.8 "/>
<text text-anchor="middle" x="1701.72" y="-76.1" font-family="Times,serif" font-size="14.00">phaidra&#45;demo&#45;lam&#45;1</text>
</g>
<!-- C_OPENLDAP&#45;&#45;C_LAM -->
<g id="edge34" class="edge">
<title>C_OPENLDAP&#45;&#45;C_LAM</title>
<path fill="none" stroke="orange" d="M1514.96,-372.89C1526.07,-368.48 1536.38,-362.32 1544.72,-353.8 1604.87,-292.41 1534.08,-235.99 1580.72,-163.8 1599.84,-134.22 1633.39,-112.06 1660.17,-97.95"/>
</g>
<!-- C_DBGATE&#45;&#45;C_MARIADB_PHAIDRA -->
<g id="edge35" class="edge">
<title>C_DBGATE&#45;&#45;C_MARIADB_PHAIDRA</title>
<path fill="none" stroke="orange" d="M955.76,-281.66C1046.79,-290.61 1188.2,-304.52 1290,-314.54"/>
</g>
<!-- C_DBGATE&#45;&#45;C_MONGODB_PHAIDRA -->
<g id="edge36" class="edge">
<title>C_DBGATE&#45;&#45;C_MONGODB_PHAIDRA</title>
<path fill="none" stroke="orange" d="M955.76,-272.8C1045.81,-272.8 1185.13,-272.8 1286.67,-272.8"/>
</g>
<!-- C_DBGATE&#45;&#45;C_MARIADB_FEDORA -->
<g id="edge37" class="edge">
<title>C_DBGATE&#45;&#45;C_MARIADB_FEDORA</title>
<path fill="none" stroke="orange" d="M956.09,-270.79C1046.81,-263.83 1184.57,-239.03 1266.72,-155.8 1290.05,-132.17 1260.28,-103.9 1286.72,-83.8 1332.37,-49.11 1489.96,-66.83 1544.72,-83.8 1552.09,-86.09 1632.77,-142.72 1675.11,-172.65"/>
</g>
<!-- C_CHRONOS -->
<g id="node34" class="node">
<title>C_CHRONOS</title>
<polygon fill="none" stroke="green" points="442.72,-421.8 253.72,-421.8 253.72,-417.8 249.72,-417.8 249.72,-413.8 253.72,-413.8 253.72,-393.8 249.72,-393.8 249.72,-389.8 253.72,-389.8 253.72,-385.8 442.72,-385.8 442.72,-421.8"/>
<polyline fill="none" stroke="green" points="253.72,-417.8 257.72,-417.8 257.72,-413.8 253.72,-413.8 "/>
<polyline fill="none" stroke="green" points="253.72,-393.8 257.72,-393.8 257.72,-389.8 253.72,-389.8 "/>
<text text-anchor="middle" x="348.22" y="-400.1" font-family="Times,serif" font-size="14.00">phaidra&#45;demo&#45;chronos&#45;1</text>
</g>
<!-- C_CHRONOS&#45;&#45;HS_DATABASE_DUMPS -->
<g id="edge21" class="edge">
<title>C_CHRONOS&#45;&#45;HS_DATABASE_DUMPS</title>
<path fill="none" stroke="turquoise" d="M350.32,-422C357.57,-539.68 400.35,-1190.26 462.72,-1249.8 534.75,-1318.57 650.84,-1321.62 739.62,-1310.82"/>
</g>
<!-- C_CHRONOS&#45;&#45;HS_SITEMAPS -->
<g id="edge22" class="edge">
<title>C_CHRONOS&#45;&#45;HS_SITEMAPS</title>
<path fill="none" stroke="turquoise" d="M349.44,-422.09C351.02,-520.88 363.7,-990 462.72,-1084.8 477.79,-1099.23 494.78,-1110.97 513.03,-1120.45"/>
</g>
<!-- C_CHRONOS&#45;&#45;HS_OAI_LOGS -->
<g id="edge23" class="edge">
<title>C_CHRONOS&#45;&#45;HS_OAI_LOGS</title>
<path fill="none" stroke="turquoise" d="M348.98,-421.82C347.97,-528.07 348.46,-1072 462.72,-1179.8 534.52,-1247.54 649.17,-1251.18 737.52,-1240.84"/>
</g>
<!-- C_CHRONOS&#45;&#45;BIND_CHRONOS -->
<g id="edge24" class="edge">
<title>C_CHRONOS&#45;&#45;BIND_CHRONOS</title>
<path fill="none" stroke="blue" d="M351.1,-421.98C359.37,-498.28 395.19,-791.45 462.72,-848.8 530.5,-906.37 629.98,-915.35 712.89,-909.83"/>
</g>
<!-- C_CHRONOS&#45;&#45;C_API -->
<g id="edge48" class="edge">
<title>C_CHRONOS&#45;&#45;C_API</title>
<path fill="none" stroke="orange" d="M424.05,-385.8C436.89,-383.15 450.15,-380.68 462.72,-378.8 574.79,-362.07 705.88,-353.69 786.87,-349.8"/>
</g>
<!-- C_CHRONOS&#45;&#45;C_MARIADB_PHAIDRA -->
<g id="edge45" class="edge">
<title>C_CHRONOS&#45;&#45;C_MARIADB_PHAIDRA</title>
<path fill="none" stroke="orange" d="M409.63,-421.81C564.83,-464.32 985.09,-555.33 1266.72,-388.8 1282.14,-379.68 1272.24,-364.35 1286.72,-353.8 1291.31,-350.46 1296.22,-347.51 1301.35,-344.91"/>
</g>
<!-- C_CHRONOS&#45;&#45;C_MONGODB_PHAIDRA -->
<g id="edge44" class="edge">
<title>C_CHRONOS&#45;&#45;C_MONGODB_PHAIDRA</title>
<path fill="none" stroke="orange" d="M442.97,-390.57C449.65,-389.89 456.28,-389.29 462.72,-388.8 485,-387.13 1249.11,-387.55 1266.72,-373.8 1293.58,-352.84 1261.97,-323.21 1286.72,-299.8 1290.27,-296.45 1294.13,-293.47 1298.21,-290.82"/>
</g>
<!-- C_CHRONOS&#45;&#45;C_SOLR -->
<g id="edge47" class="edge">
<title>C_CHRONOS&#45;&#45;C_SOLR</title>
<path fill="none" stroke="orange" d="M366.43,-385.59C387.06,-365.18 423.77,-333.19 462.72,-319.8 504.98,-305.28 1232.73,-328.8 1266.72,-299.8 1303.86,-268.12 1252.63,-226.75 1286.72,-191.8 1299.65,-178.55 1317.32,-171 1335.4,-166.87"/>
</g>
<!-- C_CHRONOS&#45;&#45;C_MARIADB_FEDORA -->
<g id="edge46" class="edge">
<title>C_CHRONOS&#45;&#45;C_MARIADB_FEDORA</title>
<path fill="none" stroke="orange" d="M369.56,-385.65C390.34,-366.17 422.38,-333.47 442.72,-299.8 455.96,-277.9 443.46,-262.66 462.72,-245.8 745.21,1.49 913.6,-101.39 1286.72,-59.8 1315.21,-56.63 1519.02,-47.11 1544.72,-59.8 1568.32,-71.45 1561.72,-88.6 1580.72,-106.8 1608.08,-133.02 1644.25,-157.17 1669.7,-172.78"/>
</g>
<!-- WEBSERVER&#45;&#45;HS_SITEMAPS -->
<g id="edge20" class="edge">
<title>WEBSERVER&#45;&#45;HS_SITEMAPS</title>
<path fill="none" stroke="turquoise" d="M373.15,-290.84C395.8,-309.52 428.39,-340.96 442.72,-376.8 457.33,-413.34 436.23,-1055.71 462.72,-1084.8 477.36,-1100.88 494.34,-1113.78 512.87,-1124.04"/>
</g>
<!-- WEBSERVER&#45;&#45;BIND_HTTPD_CONFIG -->
<g id="edge18" class="edge">
<title>WEBSERVER&#45;&#45;BIND_HTTPD_CONFIG</title>
<path fill="none" stroke="blue" d="M372.9,-290.94C395.36,-309.7 427.82,-341.19 442.72,-376.8 456.98,-410.9 436.94,-682.32 462.72,-708.8 535.11,-783.16 658.45,-783.03 749.27,-769.81"/>
</g>
<!-- WEBSERVER&#45;&#45;BIND_DOCUMENTATION -->
<g id="edge19" class="edge">
<title>WEBSERVER&#45;&#45;BIND_DOCUMENTATION</title>
<path fill="none" stroke="blue" d="M372.78,-290.99C395.15,-309.79 427.54,-341.31 442.72,-376.8 465.69,-430.49 421.66,-597.29 462.72,-638.8 535.09,-711.96 656.88,-712.54 747.29,-699.83"/>
</g>
<!-- WEBSERVER&#45;&#45;C_FEDORA -->
<g id="edge38" class="edge">
<title>WEBSERVER&#45;&#45;C_FEDORA</title>
<path fill="none" stroke="magenta" d="M414.81,-254.79C430.4,-251.18 447.06,-247.87 462.72,-245.8 778.08,-204.27 1157.07,-209.91 1325.98,-215.28"/>
</g>
<!-- WEBSERVER&#45;&#45;C_API -->
<g id="edge39" class="edge">
<title>WEBSERVER&#45;&#45;C_API</title>
<path fill="none" stroke="magenta" d="M419.49,-290.87C433.74,-294.15 448.66,-297.32 462.72,-299.8 574.88,-319.65 706.23,-333.24 787.21,-340.52"/>
</g>
<!-- WEBSERVER&#45;&#45;C_UI -->
<g id="edge40" class="edge">
<title>WEBSERVER&#45;&#45;C_UI</title>
<path fill="none" stroke="magenta" d="M357.94,-254.31C373.77,-223.18 410.5,-161.2 462.72,-135.8 761.21,9.34 1176.98,-57.78 1342.54,-93.51"/>
</g>
<!-- WEBSERVER&#45;&#45;C_SOLR -->
<g id="edge41" class="edge">
<title>WEBSERVER&#45;&#45;C_SOLR</title>
<path fill="none" stroke="magenta" d="M372.45,-254.73C394.36,-238.85 428.82,-216.75 462.72,-206.8 775.06,-115.16 1169.62,-139.58 1335.53,-155.78"/>
</g>
<!-- WEBSERVER&#45;&#45;C_DBGATE -->
<g id="edge42" class="edge">
<title>WEBSERVER&#45;&#45;C_DBGATE</title>
<path fill="none" stroke="magenta" d="M434.47,-272.8C528.14,-272.8 677.96,-272.8 773.55,-272.8"/>
</g>
<!-- WEBSERVER&#45;&#45;C_LAM -->
<g id="edge43" class="edge">
<title>WEBSERVER&#45;&#45;C_LAM</title>
<path fill="none" stroke="magenta" d="M351.71,-254.79C359.05,-209.49 385.2,-91 462.72,-42.8 614.46,51.52 1088.07,-40.88 1266.72,-42.8 1390.3,-44.14 1421.87,-35.37 1544.72,-48.8 1570.66,-51.64 1598.71,-56.6 1623.77,-61.74"/>
</g>
</g>
</svg>
