<?xml version="1.0" encoding="UTF-8" standalone="no"?>
<!DOCTYPE svg PUBLIC "-//W3C//DTD SVG 1.1//EN"
 "http://www.w3.org/Graphics/SVG/1.1/DTD/svg11.dtd">
<!-- Generated by graphviz version 2.43.0 (0)
 -->
<!-- Title: G Pages: 1 -->
<svg width="1848pt" height="1573pt"
 viewBox="0.00 0.00 1847.72 1573.00" xmlns="http://www.w3.org/2000/svg" xmlns:xlink="http://www.w3.org/1999/xlink">
<g id="graph0" class="graph" transform="scale(1 1) rotate(0) translate(4 1569)">
<title>G</title>
<polygon fill="white" stroke="transparent" points="-4,4 -4,-1569 1843.72,-1569 1843.72,4 -4,4"/>
<g id="clust1" class="cluster">
<title>cluster_host</title>
<polygon fill="none" stroke="red" points="8,-8 8,-1557 1831.72,-1557 1831.72,-8 8,-8"/>
<text text-anchor="middle" x="919.86" y="-1541.8" font-family="Times,serif" font-size="14.00">PHAIDRA server firewall</text>
</g>
<g id="clust2" class="cluster">
<title>cluster_host_storage</title>
<polygon fill="none" stroke="blue" points="237.72,-463 237.72,-1526 1041.72,-1526 1041.72,-463 237.72,-463"/>
<text text-anchor="middle" x="639.72" y="-1510.8" font-family="Times,serif" font-size="14.00">PHAIDRA server filesystem</text>
</g>
<g id="clust3" class="cluster">
<title>cluster_named_volumes</title>
<polygon fill="none" stroke="turquoise" points="245.72,-780 245.72,-1495 1033.72,-1495 1033.72,-780 245.72,-780"/>
<text text-anchor="middle" x="639.72" y="-1479.8" font-family="Times,serif" font-size="14.00">Named volumes</text>
</g>
<g id="clust4" class="cluster">
<title>cluster_bind_mounts</title>
<polygon fill="none" stroke="blue" points="316.72,-471 316.72,-772 962.72,-772 962.72,-471 316.72,-471"/>
<text text-anchor="middle" x="639.72" y="-756.8" font-family="Times,serif" font-size="14.00">Bind mounts</text>
</g>
<g id="clust5" class="cluster">
<title>cluster_docker_network_host</title>
<polygon fill="none" stroke="green" points="545.72,-16 545.72,-455 1823.72,-455 1823.72,-16 545.72,-16"/>
<text text-anchor="middle" x="1184.72" y="-439.8" font-family="Times,serif" font-size="14.00">PHAIDRA docker containers</text>
</g>
<!-- USER -->
<g id="node1" class="node">
<title>USER</title>
<polygon fill="none" stroke="black" points="209.59,-182.54 209.59,-197.46 155.27,-208 78.45,-208 24.13,-197.46 24.13,-182.54 78.45,-172 155.27,-172 209.59,-182.54"/>
<polygon fill="none" stroke="black" points="213.59,-179.25 213.59,-200.75 155.66,-212 78.07,-212 20.13,-200.75 20.13,-179.25 78.07,-168 155.66,-168 213.59,-179.25"/>
<polygon fill="none" stroke="black" points="217.58,-175.95 217.58,-204.05 156.04,-216 77.68,-216 16.14,-204.05 16.14,-175.95 77.68,-164 156.04,-164 217.58,-175.95"/>
<text text-anchor="middle" x="116.86" y="-186.3" font-family="Times,serif" font-size="14.00">PHAIDRA USER</text>
</g>
<!-- WEBSERVER -->
<g id="node27" class="node">
<title>WEBSERVER</title>
<polygon fill="none" stroke="green" points="725.72,-208 553.72,-208 553.72,-204 549.72,-204 549.72,-200 553.72,-200 553.72,-180 549.72,-180 549.72,-176 553.72,-176 553.72,-172 725.72,-172 725.72,-208"/>
<polyline fill="none" stroke="green" points="553.72,-204 557.72,-204 557.72,-200 553.72,-200 "/>
<polyline fill="none" stroke="green" points="553.72,-180 557.72,-180 557.72,-176 553.72,-176 "/>
<text text-anchor="middle" x="639.72" y="-186.3" font-family="Times,serif" font-size="14.00">phaidra&#45;demo&#45;httpd&#45;1</text>
</g>
<!-- USER&#45;&#45;WEBSERVER -->
<g id="edge36" class="edge">
<title>USER&#45;&#45;WEBSERVER</title>
<path fill="none" stroke="red" d="M217.67,-190C315,-190 461.44,-190 553.47,-190"/>
</g>
<!-- HS_FEDORA -->
<g id="node2" class="node">
<title>HS_FEDORA</title>
<polygon fill="none" stroke="turquoise" points="960.22,-1022 957.22,-1026 936.22,-1026 933.22,-1022 319.22,-1022 319.22,-928 960.22,-928 960.22,-1022"/>
<text text-anchor="start" x="331.72" y="-1003.8" font-family="Times,serif" font-weight="bold" font-size="14.00">host:</text>
<text text-anchor="start" x="490.72" y="-1002.8" font-family="Times,serif" font-size="14.00">$HOME/.local/share/docker/volumes/phaidra&#45;demo_fedora/_data</text>
<text text-anchor="start" x="331.72" y="-981.8" font-family="Times,serif" font-size="14.00">fedora&#45;container:</text>
<text text-anchor="start" x="490.72" y="-981.8" font-family="Times,serif" font-size="14.00">/usr/local/tomcat/fcrepo&#45;home</text>
<text text-anchor="start" x="331.72" y="-960.8" font-family="Times,serif" font-size="14.00">pixelgecko&#45;container:</text>
<text text-anchor="start" x="490.72" y="-960.8" font-family="Times,serif" font-size="14.00"> /mnt/fedora:ro</text>
<text text-anchor="start" x="331.72" y="-939.8" font-family="Times,serif" font-size="14.00">api&#45;container:</text>
<text text-anchor="start" x="490.72" y="-939.8" font-family="Times,serif" font-size="14.00"> /mnt/fedora:ro</text>
</g>
<!-- C_FEDORA -->
<g id="node15" class="node">
<title>C_FEDORA</title>
<g id="a_node15"><a xlink:href="https://fedora.lyrasis.org/" xlink:title="phaidra&#45;demo&#45;fedora&#45;1">
<polygon fill="none" stroke="green" points="1498.22,-154 1319.22,-154 1319.22,-150 1315.22,-150 1315.22,-146 1319.22,-146 1319.22,-126 1315.22,-126 1315.22,-122 1319.22,-122 1319.22,-118 1498.22,-118 1498.22,-154"/>
<polyline fill="none" stroke="green" points="1319.22,-150 1323.22,-150 1323.22,-146 1319.22,-146 "/>
<polyline fill="none" stroke="green" points="1319.22,-126 1323.22,-126 1323.22,-122 1319.22,-122 "/>
<text text-anchor="middle" x="1408.72" y="-132.3" font-family="Times,serif" font-size="14.00">phaidra&#45;demo&#45;fedora&#45;1</text>
</a>
</g>
</g>
<!-- HS_FEDORA&#45;&#45;C_FEDORA -->
<g id="edge1" class="edge">
<title>HS_FEDORA&#45;&#45;C_FEDORA</title>
<path fill="none" stroke="turquoise" d="M960.68,-972.55C991.18,-960.58 1019.11,-943.33 1041.72,-919 1064.77,-894.21 1051.3,-647.21 1061.72,-615 1108.59,-470.23 1185.93,-465.77 1243.72,-325 1271.73,-256.77 1227.29,-214.87 1279.72,-163 1290.54,-152.3 1304.46,-145.35 1319.12,-140.92"/>
</g>
<!-- C_API -->
<g id="node16" class="node">
<title>C_API</title>
<g id="a_node16"><a xlink:href="https://github.com/phaidra/phaidra-api" xlink:title="phaidra&#45;demo&#45;api&#45;1">
<polygon fill="none" stroke="green" points="1230.22,-316 1075.22,-316 1075.22,-312 1071.22,-312 1071.22,-308 1075.22,-308 1075.22,-288 1071.22,-288 1071.22,-284 1075.22,-284 1075.22,-280 1230.22,-280 1230.22,-316"/>
<polyline fill="none" stroke="green" points="1075.22,-312 1079.22,-312 1079.22,-308 1075.22,-308 "/>
<polyline fill="none" stroke="green" points="1075.22,-288 1079.22,-288 1079.22,-284 1075.22,-284 "/>
<text text-anchor="middle" x="1152.72" y="-294.3" font-family="Times,serif" font-size="14.00">phaidra&#45;demo&#45;api&#45;1</text>
</a>
</g>
</g>
<!-- HS_FEDORA&#45;&#45;C_API -->
<g id="edge3" class="edge">
<title>HS_FEDORA&#45;&#45;C_API</title>
<path fill="none" stroke="turquoise" d="M960.23,-973.4C991.02,-961.34 1019.13,-943.83 1041.72,-919 1075.33,-882.06 1048.72,-518.22 1061.72,-470 1077.95,-409.8 1117.72,-346.78 1138.54,-316.46"/>
</g>
<!-- C_PIXELGECKO -->
<g id="node23" class="node">
<title>C_PIXELGECKO</title>
<polygon fill="none" stroke="green" points="1799.22,-424 1590.22,-424 1590.22,-420 1586.22,-420 1586.22,-416 1590.22,-416 1590.22,-396 1586.22,-396 1586.22,-392 1590.22,-392 1590.22,-388 1799.22,-388 1799.22,-424"/>
<polyline fill="none" stroke="green" points="1590.22,-420 1594.22,-420 1594.22,-416 1590.22,-416 "/>
<polyline fill="none" stroke="green" points="1590.22,-396 1594.22,-396 1594.22,-392 1590.22,-392 "/>
<text text-anchor="middle" x="1694.72" y="-402.3" font-family="Times,serif" font-size="14.00">phaidra&#45;demo&#45;pixelgecko&#45;1</text>
</g>
<!-- HS_FEDORA&#45;&#45;C_PIXELGECKO -->
<g id="edge12" class="edge">
<title>HS_FEDORA&#45;&#45;C_PIXELGECKO</title>
<path fill="none" stroke="turquoise" d="M960.43,-946.14C988.45,-938.91 1015.93,-929.98 1041.72,-919 1335.89,-793.69 1610.17,-499.93 1677.84,-424.11"/>
</g>
<!-- HS_API_LOGS -->
<g id="node3" class="node">
<title>HS_API_LOGS</title>
<polygon fill="none" stroke="turquoise" points="939.22,-910 936.22,-914 915.22,-914 912.22,-910 340.22,-910 340.22,-858 939.22,-858 939.22,-910"/>
<text text-anchor="start" x="352.72" y="-891.8" font-family="Times,serif" font-weight="bold" font-size="14.00">host:</text>
<text text-anchor="start" x="457.72" y="-890.8" font-family="Times,serif" font-size="14.00">$HOME/.local/share/docker/volumes/phaidra&#45;demo_api_logs/_data</text>
<text text-anchor="start" x="352.72" y="-869.8" font-family="Times,serif" font-size="14.00">api&#45;container:</text>
<text text-anchor="start" x="457.72" y="-869.8" font-family="Times,serif" font-size="14.00">/var/log/phaidra</text>
</g>
<!-- HS_API_LOGS&#45;&#45;C_API -->
<g id="edge2" class="edge">
<title>HS_API_LOGS&#45;&#45;C_API</title>
<path fill="none" stroke="turquoise" d="M754.4,-910.01C845.4,-923.45 969.37,-923.88 1041.72,-849 1071.02,-818.67 1050.58,-510.67 1061.72,-470 1078.2,-409.87 1117.86,-346.82 1138.6,-316.48"/>
</g>
<!-- HS_MARIADB_PHAIDRA -->
<g id="node4" class="node">
<title>HS_MARIADB_PHAIDRA</title>
<polygon fill="none" stroke="turquoise" points="1019.22,-1232 1016.22,-1236 995.22,-1236 992.22,-1232 260.22,-1232 260.22,-1180 1019.22,-1180 1019.22,-1232"/>
<text text-anchor="start" x="272.72" y="-1213.8" font-family="Times,serif" font-weight="bold" font-size="14.00">host:</text>
<text text-anchor="start" x="474.72" y="-1212.8" font-family="Times,serif" font-size="14.00">$HOME/.local/share/docker/volumes/phaidra&#45;demo_mariadb_phaidra/_data</text>
<text text-anchor="start" x="272.72" y="-1191.8" font-family="Times,serif" font-size="14.00">mariadb&#45;phaidra&#45;container:</text>
<text text-anchor="start" x="474.72" y="-1191.8" font-family="Times,serif" font-size="14.00">/var/lib/mysql</text>
</g>
<!-- C_MARIADB_PHAIDRA -->
<g id="node17" class="node">
<title>C_MARIADB_PHAIDRA</title>
<g id="a_node17"><a xlink:href="https://mariadb.org/" xlink:title="phaidra&#45;demo&#45;mariadb&#45;phaidra&#45;1">
<polygon fill="none" stroke="green" points="1534.22,-316 1283.22,-316 1283.22,-312 1279.22,-312 1279.22,-308 1283.22,-308 1283.22,-288 1279.22,-288 1279.22,-284 1283.22,-284 1283.22,-280 1534.22,-280 1534.22,-316"/>
<polyline fill="none" stroke="green" points="1283.22,-312 1287.22,-312 1287.22,-308 1283.22,-308 "/>
<polyline fill="none" stroke="green" points="1283.22,-288 1287.22,-288 1287.22,-284 1283.22,-284 "/>
<text text-anchor="middle" x="1408.72" y="-294.3" font-family="Times,serif" font-size="14.00">phaidra&#45;demo&#45;mariadb&#45;phaidra&#45;1</text>
</a>
</g>
</g>
<!-- HS_MARIADB_PHAIDRA&#45;&#45;C_MARIADB_PHAIDRA -->
<g id="edge6" class="edge">
<title>HS_MARIADB_PHAIDRA&#45;&#45;C_MARIADB_PHAIDRA</title>
<path fill="none" stroke="turquoise" d="M755.18,-1232.01C846.01,-1245.24 969.35,-1245.37 1041.72,-1171 1067.65,-1144.36 1047.61,-871.4 1061.72,-837 1108.35,-723.35 1193.82,-741.24 1243.72,-629 1271.36,-566.84 1233.83,-375.22 1279.72,-325 1282.71,-321.73 1285.98,-318.8 1289.49,-316.18"/>
</g>
<!-- HS_MONGODB_PHAIDRA -->
<g id="node5" class="node">
<title>HS_MONGODB_PHAIDRA</title>
<polygon fill="none" stroke="turquoise" points="1025.72,-1162 1022.72,-1166 1001.72,-1166 998.72,-1162 253.72,-1162 253.72,-1110 1025.72,-1110 1025.72,-1162"/>
<text text-anchor="start" x="265.72" y="-1143.8" font-family="Times,serif" font-weight="bold" font-size="14.00">host:</text>
<text text-anchor="start" x="473.72" y="-1142.8" font-family="Times,serif" font-size="14.00">$HOME/.local/share/docker/volumes/phaidra&#45;demo_mongodb_phaidra/_data</text>
<text text-anchor="start" x="265.72" y="-1121.8" font-family="Times,serif" font-size="14.00">phaidra&#45;mongodb&#45;container:</text>
<text text-anchor="start" x="473.72" y="-1121.8" font-family="Times,serif" font-size="14.00">/data/db</text>
</g>
<!-- C_MONGODB_PHAIDRA -->
<g id="node18" class="node">
<title>C_MONGODB_PHAIDRA</title>
<g id="a_node18"><a xlink:href="https://www.mongodb.com/" xlink:title="phaidra&#45;demo&#45;mongodb&#45;phaidra&#45;1">
<polygon fill="none" stroke="green" points="1537.72,-262 1279.72,-262 1279.72,-258 1275.72,-258 1275.72,-254 1279.72,-254 1279.72,-234 1275.72,-234 1275.72,-230 1279.72,-230 1279.72,-226 1537.72,-226 1537.72,-262"/>
<polyline fill="none" stroke="green" points="1279.72,-258 1283.72,-258 1283.72,-254 1279.72,-254 "/>
<polyline fill="none" stroke="green" points="1279.72,-234 1283.72,-234 1283.72,-230 1279.72,-230 "/>
<text text-anchor="middle" x="1408.72" y="-240.3" font-family="Times,serif" font-size="14.00">phaidra&#45;demo&#45;mongodb&#45;phaidra&#45;1</text>
</a>
</g>
</g>
<!-- HS_MONGODB_PHAIDRA&#45;&#45;C_MONGODB_PHAIDRA -->
<g id="edge7" class="edge">
<title>HS_MONGODB_PHAIDRA&#45;&#45;C_MONGODB_PHAIDRA</title>
<path fill="none" stroke="turquoise" d="M754.05,-1162.04C845.14,-1175.61 969.44,-1176.19 1041.72,-1101 1074.1,-1067.32 1038.05,-721.28 1061.72,-681 1109.97,-598.92 1192.51,-648.27 1243.72,-568 1315.24,-455.9 1189.89,-369.03 1279.72,-271 1282.71,-267.73 1285.99,-264.81 1289.5,-262.19"/>
</g>
<!-- HS_OPENLDAP -->
<g id="node6" class="node">
<title>HS_OPENLDAP</title>
<polygon fill="none" stroke="turquoise" points="964.72,-1302 961.72,-1306 940.72,-1306 937.72,-1302 314.72,-1302 314.72,-1250 964.72,-1250 964.72,-1302"/>
<text text-anchor="start" x="326.72" y="-1283.8" font-family="Times,serif" font-weight="bold" font-size="14.00">host:</text>
<text text-anchor="start" x="474.72" y="-1282.8" font-family="Times,serif" font-size="14.00">$HOME/.local/share/docker/volumes/phaidra&#45;demo_openldap/_data</text>
<text text-anchor="start" x="326.72" y="-1261.8" font-family="Times,serif" font-size="14.00">openldap&#45;container:</text>
<text text-anchor="start" x="474.72" y="-1261.8" font-family="Times,serif" font-size="14.00">/bitnami/openldap</text>
</g>
<!-- C_OPENLDAP -->
<g id="node20" class="node">
<title>C_OPENLDAP</title>
<g id="a_node20"><a xlink:href="https://www.openldap.org/" xlink:title="phaidra&#45;demo&#45;openldap&#45;1">
<polygon fill="none" stroke="green" points="1507.72,-370 1309.72,-370 1309.72,-366 1305.72,-366 1305.72,-362 1309.72,-362 1309.72,-342 1305.72,-342 1305.72,-338 1309.72,-338 1309.72,-334 1507.72,-334 1507.72,-370"/>
<polyline fill="none" stroke="green" points="1309.72,-366 1313.72,-366 1313.72,-362 1309.72,-362 "/>
<polyline fill="none" stroke="green" points="1309.72,-342 1313.72,-342 1313.72,-338 1309.72,-338 "/>
<text text-anchor="middle" x="1408.72" y="-348.3" font-family="Times,serif" font-size="14.00">phaidra&#45;demo&#45;openldap&#45;1</text>
</a>
</g>
</g>
<!-- HS_OPENLDAP&#45;&#45;C_OPENLDAP -->
<g id="edge8" class="edge">
<title>HS_OPENLDAP&#45;&#45;C_OPENLDAP</title>
<path fill="none" stroke="turquoise" d="M756,-1302.05C846.68,-1315.09 969.41,-1314.94 1041.72,-1241 1065.7,-1216.48 1052.62,-966.06 1061.72,-933 1108.9,-761.68 1186.77,-745.33 1243.72,-577 1272.39,-492.27 1217.37,-443.13 1279.72,-379 1288.03,-370.45 1298.32,-364.27 1309.42,-359.85"/>
</g>
<!-- HS_SOLR -->
<g id="node7" class="node">
<title>HS_SOLR</title>
<polygon fill="none" stroke="turquoise" points="926.22,-1092 923.22,-1096 902.22,-1096 899.22,-1092 353.22,-1092 353.22,-1040 926.22,-1040 926.22,-1092"/>
<text text-anchor="start" x="365.72" y="-1073.8" font-family="Times,serif" font-weight="bold" font-size="14.00">host:</text>
<text text-anchor="start" x="475.72" y="-1072.8" font-family="Times,serif" font-size="14.00">$HOME/.local/share/docker/volumes/phaidra&#45;demo_solr/_data</text>
<text text-anchor="start" x="365.72" y="-1051.8" font-family="Times,serif" font-size="14.00">solr&#45;container:</text>
<text text-anchor="start" x="475.72" y="-1051.8" font-family="Times,serif" font-size="14.00">/var/solr</text>
</g>
<!-- C_SOLR -->
<g id="node21" class="node">
<title>C_SOLR</title>
<g id="a_node21"><a xlink:href="https://solr.apache.org/" xlink:title="phaidra&#45;demo&#45;solr&#45;1">
<polygon fill="none" stroke="green" points="1488.72,-208 1328.72,-208 1328.72,-204 1324.72,-204 1324.72,-200 1328.72,-200 1328.72,-180 1324.72,-180 1324.72,-176 1328.72,-176 1328.72,-172 1488.72,-172 1488.72,-208"/>
<polyline fill="none" stroke="green" points="1328.72,-204 1332.72,-204 1332.72,-200 1328.72,-200 "/>
<polyline fill="none" stroke="green" points="1328.72,-180 1332.72,-180 1332.72,-176 1328.72,-176 "/>
<text text-anchor="middle" x="1408.72" y="-186.3" font-family="Times,serif" font-size="14.00">phaidra&#45;demo&#45;solr&#45;1</text>
</a>
</g>
</g>
<!-- HS_SOLR&#45;&#45;C_SOLR -->
<g id="edge10" class="edge">
<title>HS_SOLR&#45;&#45;C_SOLR</title>
<path fill="none" stroke="turquoise" d="M754.4,-1092.01C845.4,-1105.45 969.37,-1105.88 1041.72,-1031 1071.02,-1000.67 1044.3,-690.4 1061.72,-652 1108.35,-549.25 1192.72,-575.65 1243.72,-475 1296.05,-371.72 1200.74,-301.65 1279.72,-217 1292.5,-203.3 1310.34,-195.63 1328.65,-191.52"/>
</g>
<!-- HS_PIXELGECKO -->
<g id="node8" class="node">
<title>HS_PIXELGECKO</title>
<polygon fill="none" stroke="turquoise" points="981.72,-1393.5 978.72,-1397.5 957.72,-1397.5 954.72,-1393.5 297.72,-1393.5 297.72,-1320.5 981.72,-1320.5 981.72,-1393.5"/>
<text text-anchor="start" x="309.72" y="-1374.8" font-family="Times,serif" font-weight="bold" font-size="14.00">host:</text>
<text text-anchor="start" x="481.72" y="-1373.8" font-family="Times,serif" font-size="14.00">$HOME/.local/share/docker/volumes/phaidra&#45;demo_pixelgecko/_data</text>
<text text-anchor="start" x="309.72" y="-1352.8" font-family="Times,serif" font-size="14.00">pixelgecko&#45;container:</text>
<text text-anchor="start" x="481.72" y="-1352.8" font-family="Times,serif" font-size="14.00">/mnt/converted_images</text>
<text text-anchor="start" x="309.72" y="-1331.8" font-family="Times,serif" font-size="14.00">imageserver&#45;container:</text>
<text text-anchor="start" x="481.72" y="-1331.8" font-family="Times,serif" font-size="14.00">/mnt/converted_images:ro</text>
</g>
<!-- C_IMAGESERVER -->
<g id="node22" class="node">
<title>C_IMAGESERVER</title>
<g id="a_node22"><a xlink:href="https://github.com/ruven/iipsrv" xlink:title="phaidra&#45;demo&#45;imageserver&#45;1">
<polygon fill="none" stroke="green" points="1519.72,-424 1297.72,-424 1297.72,-420 1293.72,-420 1293.72,-416 1297.72,-416 1297.72,-396 1293.72,-396 1293.72,-392 1297.72,-392 1297.72,-388 1519.72,-388 1519.72,-424"/>
<polyline fill="none" stroke="green" points="1297.72,-420 1301.72,-420 1301.72,-416 1297.72,-416 "/>
<polyline fill="none" stroke="green" points="1297.72,-396 1301.72,-396 1301.72,-392 1297.72,-392 "/>
<text text-anchor="middle" x="1408.72" y="-402.3" font-family="Times,serif" font-size="14.00">phaidra&#45;demo&#45;imageserver&#45;1</text>
</a>
</g>
</g>
<!-- HS_PIXELGECKO&#45;&#45;C_IMAGESERVER -->
<g id="edge11" class="edge">
<title>HS_PIXELGECKO&#45;&#45;C_IMAGESERVER</title>
<path fill="none" stroke="turquoise" d="M981.81,-1354.13C1004.04,-1343.45 1024.41,-1329.35 1041.72,-1311 1069.06,-1282.02 1045.99,-989.6 1061.72,-953 1108.28,-844.68 1177.64,-857.64 1243.72,-760 1323.63,-641.92 1383.01,-478.68 1401.59,-424.38"/>
</g>
<!-- HS_PIXELGECKO&#45;&#45;C_PIXELGECKO -->
<g id="edge13" class="edge">
<title>HS_PIXELGECKO&#45;&#45;C_PIXELGECKO</title>
<path fill="none" stroke="turquoise" d="M981.8,-1337.31C1002.66,-1330.21 1022.83,-1321.54 1041.72,-1311 1431.91,-1093.24 1648.42,-532.76 1687.33,-424.32"/>
</g>
<!-- HS_DBGATE -->
<g id="node9" class="node">
<title>HS_DBGATE</title>
<polygon fill="none" stroke="turquoise" points="949.22,-840 946.22,-844 925.22,-844 922.22,-840 330.22,-840 330.22,-788 949.22,-788 949.22,-840"/>
<text text-anchor="start" x="342.72" y="-821.8" font-family="Times,serif" font-weight="bold" font-size="14.00">host:</text>
<text text-anchor="start" x="475.72" y="-820.8" font-family="Times,serif" font-size="14.00">$HOME/.local/share/docker/volumes/phaidra&#45;demo_dbgate/_data</text>
<text text-anchor="start" x="342.72" y="-799.8" font-family="Times,serif" font-size="14.00">dbgate&#45;container:</text>
<text text-anchor="start" x="475.72" y="-799.8" font-family="Times,serif" font-size="14.00">/root/.dbgate</text>
</g>
<!-- C_DBGATE -->
<g id="node24" class="node">
<title>C_DBGATE</title>
<polygon fill="none" stroke="green" points="1243.72,-262 1061.72,-262 1061.72,-258 1057.72,-258 1057.72,-254 1061.72,-254 1061.72,-234 1057.72,-234 1057.72,-230 1061.72,-230 1061.72,-226 1243.72,-226 1243.72,-262"/>
<polyline fill="none" stroke="green" points="1061.72,-258 1065.72,-258 1065.72,-254 1061.72,-254 "/>
<polyline fill="none" stroke="green" points="1061.72,-234 1065.72,-234 1065.72,-230 1061.72,-230 "/>
<text text-anchor="middle" x="1152.72" y="-240.3" font-family="Times,serif" font-size="14.00">phaidra&#45;demo&#45;dbgate&#45;1</text>
</g>
<!-- HS_DBGATE&#45;&#45;C_DBGATE -->
<g id="edge14" class="edge">
<title>HS_DBGATE&#45;&#45;C_DBGATE</title>
<path fill="none" stroke="turquoise" d="M760.33,-840.05C850.98,-852.08 971.54,-850.15 1041.72,-776 1080.32,-735.22 1027.32,-315.38 1061.72,-271 1064.32,-267.65 1067.32,-264.7 1070.61,-262.1"/>
</g>
<!-- HS_MARIADB_FEDORA -->
<g id="node10" class="node">
<title>HS_MARIADB_FEDORA</title>
<polygon fill="none" stroke="turquoise" points="1010.22,-1464 1007.22,-1468 986.22,-1468 983.22,-1464 269.22,-1464 269.22,-1412 1010.22,-1412 1010.22,-1464"/>
<text text-anchor="start" x="281.72" y="-1445.8" font-family="Times,serif" font-weight="bold" font-size="14.00">host:</text>
<text text-anchor="start" x="474.72" y="-1444.8" font-family="Times,serif" font-size="14.00">$HOME/.local/share/docker/volumes/phaidra&#45;demo_mariadb_fedora/_data</text>
<text text-anchor="start" x="281.72" y="-1423.8" font-family="Times,serif" font-size="14.00">mariadb&#45;fedora&#45;container:</text>
<text text-anchor="start" x="474.72" y="-1423.8" font-family="Times,serif" font-size="14.00">/var/lib/mysql</text>
</g>
<!-- C_MARIADB_FEDORA -->
<g id="node26" class="node">
<title>C_MARIADB_FEDORA</title>
<g id="a_node26"><a xlink:href="https://mariadb.org/" xlink:title="phaidra&#45;demo&#45;mariadb&#45;fedora&#45;1">
<polygon fill="none" stroke="green" points="1815.72,-154 1573.72,-154 1573.72,-150 1569.72,-150 1569.72,-146 1573.72,-146 1573.72,-126 1569.72,-126 1569.72,-122 1573.72,-122 1573.72,-118 1815.72,-118 1815.72,-154"/>
<polyline fill="none" stroke="green" points="1573.72,-150 1577.72,-150 1577.72,-146 1573.72,-146 "/>
<polyline fill="none" stroke="green" points="1573.72,-126 1577.72,-126 1577.72,-122 1573.72,-122 "/>
<text text-anchor="middle" x="1694.72" y="-132.3" font-family="Times,serif" font-size="14.00">phaidra&#45;demo&#45;mariadb&#45;fedora&#45;1</text>
</a>
</g>
</g>
<!-- HS_MARIADB_FEDORA&#45;&#45;C_MARIADB_FEDORA -->
<g id="edge15" class="edge">
<title>HS_MARIADB_FEDORA&#45;&#45;C_MARIADB_FEDORA</title>
<path fill="none" stroke="turquoise" d="M1010.39,-1420.99C1021.23,-1415.69 1031.71,-1409.72 1041.72,-1403 1072.24,-1382.51 1608.43,-307.29 1684.72,-154.09"/>
</g>
<!-- BIND_MARIADB_PHAIDRA_INIT -->
<g id="node11" class="node">
<title>BIND_MARIADB_PHAIDRA_INIT</title>
<polygon fill="none" stroke="blue" points="954.72,-671 951.72,-675 930.72,-675 927.72,-671 324.72,-671 324.72,-619 954.72,-619 954.72,-671"/>
<text text-anchor="start" x="336.72" y="-652.8" font-family="Times,serif" font-weight="bold" font-size="14.00">host:</text>
<text text-anchor="start" x="538.72" y="-651.8" font-family="Times,serif" font-size="14.00">$REPO/container_components/mariadb/phaidradb.sql.gz</text>
<text text-anchor="start" x="336.72" y="-630.8" font-family="Times,serif" font-size="14.00">mariadb&#45;phaidra&#45;container:</text>
<text text-anchor="start" x="538.72" y="-630.8" font-family="Times,serif" font-size="14.00">/docker&#45;entrypoint&#45;initdb.d/phaidradb.sql.gz:ro</text>
</g>
<!-- BIND_MARIADB_PHAIDRA_INIT&#45;&#45;C_MARIADB_PHAIDRA -->
<g id="edge5" class="edge">
<title>BIND_MARIADB_PHAIDRA_INIT&#45;&#45;C_MARIADB_PHAIDRA</title>
<path fill="none" stroke="blue" d="M954.96,-641.83C985.24,-634.42 1014.7,-624.11 1041.72,-610 1188.02,-533.64 1138.3,-410.05 1279.72,-325 1285.37,-321.61 1291.37,-318.63 1297.59,-316.03"/>
</g>
<!-- BIND_OPENLDAP_INIT -->
<g id="node12" class="node">
<title>BIND_OPENLDAP_INIT</title>
<polygon fill="none" stroke="blue" points="868.72,-741 865.72,-745 844.72,-745 841.72,-741 410.72,-741 410.72,-689 868.72,-689 868.72,-741"/>
<text text-anchor="start" x="422.72" y="-722.8" font-family="Times,serif" font-weight="bold" font-size="14.00">host:</text>
<text text-anchor="start" x="570.72" y="-721.8" font-family="Times,serif" font-size="14.00">$REPO/container_components/openldap</text>
<text text-anchor="start" x="422.72" y="-700.8" font-family="Times,serif" font-size="14.00">openldap&#45;container:</text>
<text text-anchor="start" x="570.72" y="-700.8" font-family="Times,serif" font-size="14.00">/ldifs:ro</text>
</g>
<!-- BIND_OPENLDAP_INIT&#45;&#45;C_OPENLDAP -->
<g id="edge9" class="edge">
<title>BIND_OPENLDAP_INIT&#45;&#45;C_OPENLDAP</title>
<path fill="none" stroke="blue" d="M868.74,-722.4C927.24,-717.06 988.6,-704.77 1041.72,-680 1156.8,-626.35 1175.52,-585.09 1243.72,-478 1268.87,-438.51 1244.37,-409.69 1279.72,-379 1288.38,-371.48 1298.61,-365.88 1309.44,-361.73"/>
</g>
<!-- BIND_HTTPD_CONFIG -->
<g id="node13" class="node">
<title>BIND_HTTPD_CONFIG</title>
<polygon fill="none" stroke="blue" points="875.72,-531 872.72,-535 851.72,-535 848.72,-531 403.72,-531 403.72,-479 875.72,-479 875.72,-531"/>
<text text-anchor="start" x="415.72" y="-512.8" font-family="Times,serif" font-weight="bold" font-size="14.00">host:</text>
<text text-anchor="start" x="537.72" y="-511.8" font-family="Times,serif" font-size="14.00">$REPO/webserver_configs/phaidra&#45;demo.conf</text>
<text text-anchor="start" x="415.72" y="-490.8" font-family="Times,serif" font-size="14.00">httpd&#45;container:</text>
<text text-anchor="start" x="537.72" y="-490.8" font-family="Times,serif" font-size="14.00">/usr/local/apache2/conf/httpd.conf:ro</text>
</g>
<!-- BIND_API_CODE -->
<g id="node14" class="node">
<title>BIND_API_CODE</title>
<polygon fill="none" stroke="blue" points="819.22,-601 816.22,-605 795.22,-605 792.22,-601 460.22,-601 460.22,-549 819.22,-549 819.22,-601"/>
<text text-anchor="start" x="472.72" y="-582.8" font-family="Times,serif" font-weight="bold" font-size="14.00">host:</text>
<text text-anchor="start" x="577.72" y="-581.8" font-family="Times,serif" font-size="14.00">$REPO/components/phaidra&#45;api</text>
<text text-anchor="start" x="472.72" y="-560.8" font-family="Times,serif" font-size="14.00">api&#45;container:</text>
<text text-anchor="start" x="577.72" y="-560.8" font-family="Times,serif" font-size="14.00">/usr/local/phaidra/phaidra&#45;api:ro</text>
</g>
<!-- BIND_API_CODE&#45;&#45;C_API -->
<g id="edge4" class="edge">
<title>BIND_API_CODE&#45;&#45;C_API</title>
<path fill="none" stroke="blue" d="M804.23,-601C884.11,-604.48 976.76,-593.59 1041.72,-540 1066.68,-519.41 1049.71,-500.05 1061.72,-470 1084.98,-411.79 1121.95,-347.37 1140.43,-316.49"/>
</g>
<!-- C_FEDORA&#45;&#45;C_MARIADB_FEDORA -->
<g id="edge17" class="edge">
<title>C_FEDORA&#45;&#45;C_MARIADB_FEDORA</title>
<path fill="none" stroke="orange" d="M1498.41,-136C1522.26,-136 1548.45,-136 1573.69,-136"/>
</g>
<!-- C_API&#45;&#45;C_FEDORA -->
<g id="edge18" class="edge">
<title>C_API&#45;&#45;C_FEDORA</title>
<path fill="none" stroke="orange" d="M1230.4,-281.02C1235.23,-278.17 1239.74,-274.86 1243.72,-271 1280.04,-235.77 1241.97,-196.68 1279.72,-163 1290.82,-153.1 1304.62,-146.49 1319.01,-142.15"/>
</g>
<!-- C_API&#45;&#45;C_MARIADB_PHAIDRA -->
<g id="edge19" class="edge">
<title>C_API&#45;&#45;C_MARIADB_PHAIDRA</title>
<path fill="none" stroke="orange" d="M1230.27,-298C1246.93,-298 1264.96,-298 1282.94,-298"/>
</g>
<!-- C_API&#45;&#45;C_MONGODB_PHAIDRA -->
<g id="edge20" class="edge">
<title>C_API&#45;&#45;C_MONGODB_PHAIDRA</title>
<path fill="none" stroke="orange" d="M1230.34,-281.54C1246.64,-278.05 1263.75,-274.4 1279.72,-271 1293.38,-268.1 1307.87,-265.03 1321.99,-262.04"/>
</g>
<!-- C_UI -->
<g id="node19" class="node">
<title>C_UI</title>
<g id="a_node19"><a xlink:href="https://github.com/phaidra/phaidra-ui" xlink:title="phaidra&#45;demo&#45;ui&#45;1">
<polygon fill="none" stroke="green" points="1481.72,-80 1335.72,-80 1335.72,-76 1331.72,-76 1331.72,-72 1335.72,-72 1335.72,-52 1331.72,-52 1331.72,-48 1335.72,-48 1335.72,-44 1481.72,-44 1481.72,-80"/>
<polyline fill="none" stroke="green" points="1335.72,-76 1339.72,-76 1339.72,-72 1335.72,-72 "/>
<polyline fill="none" stroke="green" points="1335.72,-52 1339.72,-52 1339.72,-48 1335.72,-48 "/>
<text text-anchor="middle" x="1408.72" y="-58.3" font-family="Times,serif" font-size="14.00">phaidra&#45;demo&#45;ui&#45;1</text>
</a>
</g>
</g>
<!-- C_API&#45;&#45;C_UI -->
<g id="edge21" class="edge">
<title>C_API&#45;&#45;C_UI</title>
<path fill="none" stroke="orange" d="M1230.44,-281.72C1235.33,-278.72 1239.83,-275.18 1243.72,-271 1293.94,-216.98 1231.16,-164.51 1279.72,-109 1294.14,-92.52 1314.85,-81.81 1335.42,-74.86"/>
</g>
<!-- C_API&#45;&#45;C_OPENLDAP -->
<g id="edge22" class="edge">
<title>C_API&#45;&#45;C_OPENLDAP</title>
<path fill="none" stroke="orange" d="M1230.34,-314.46C1246.64,-317.95 1263.75,-321.6 1279.72,-325 1293.38,-327.9 1307.87,-330.97 1321.99,-333.96"/>
</g>
<!-- C_API&#45;&#45;C_SOLR -->
<g id="edge23" class="edge">
<title>C_API&#45;&#45;C_SOLR</title>
<path fill="none" stroke="orange" d="M1228.87,-279.97C1234.12,-277.37 1239.13,-274.4 1243.72,-271 1266.91,-253.84 1255.84,-233.18 1279.72,-217 1294.11,-207.26 1311.32,-200.93 1328.4,-196.84"/>
</g>
<!-- C_API&#45;&#45;C_IMAGESERVER -->
<g id="edge24" class="edge">
<title>C_API&#45;&#45;C_IMAGESERVER</title>
<path fill="none" stroke="orange" d="M1176.45,-316.27C1200.65,-334.81 1240.75,-363 1279.72,-379 1287.92,-382.36 1296.58,-385.33 1305.39,-387.94"/>
</g>
<!-- C_MONGODB_PHAIDRA&#45;&#45;C_PIXELGECKO -->
<g id="edge25" class="edge">
<title>C_MONGODB_PHAIDRA&#45;&#45;C_PIXELGECKO</title>
<path fill="none" stroke="orange" d="M1516.28,-262.07C1523.68,-264.66 1530.91,-267.62 1537.72,-271 1597.4,-300.61 1652.71,-358.46 1678.49,-387.88"/>
</g>
<!-- C_LAM -->
<g id="node25" class="node">
<title>C_LAM</title>
<polygon fill="none" stroke="green" points="1774.22,-80 1615.22,-80 1615.22,-76 1611.22,-76 1611.22,-72 1615.22,-72 1615.22,-52 1611.22,-52 1611.22,-48 1615.22,-48 1615.22,-44 1774.22,-44 1774.22,-80"/>
<polyline fill="none" stroke="green" points="1615.22,-76 1619.22,-76 1619.22,-72 1615.22,-72 "/>
<polyline fill="none" stroke="green" points="1615.22,-52 1619.22,-52 1619.22,-48 1615.22,-48 "/>
<text text-anchor="middle" x="1694.72" y="-58.3" font-family="Times,serif" font-size="14.00">phaidra&#45;demo&#45;lam&#45;1</text>
</g>
<!-- C_OPENLDAP&#45;&#45;C_LAM -->
<g id="edge26" class="edge">
<title>C_OPENLDAP&#45;&#45;C_LAM</title>
<path fill="none" stroke="orange" d="M1507.83,-344.39C1519.03,-339.94 1529.39,-333.69 1537.72,-325 1605.05,-254.73 1512.43,-184.6 1573.72,-109 1584.43,-95.79 1599.36,-86.28 1615.06,-79.44"/>
</g>
<!-- C_DBGATE&#45;&#45;C_MARIADB_PHAIDRA -->
<g id="edge27" class="edge">
<title>C_DBGATE&#45;&#45;C_MARIADB_PHAIDRA</title>
<path fill="none" stroke="orange" d="M1237.76,-262.05C1251.77,-265.04 1266.15,-268.12 1279.72,-271 1293.38,-273.9 1307.87,-276.97 1321.99,-279.96"/>
</g>
<!-- C_DBGATE&#45;&#45;C_MONGODB_PHAIDRA -->
<g id="edge28" class="edge">
<title>C_DBGATE&#45;&#45;C_MONGODB_PHAIDRA</title>
<path fill="none" stroke="orange" d="M1243.99,-244C1255.54,-244 1267.53,-244 1279.54,-244"/>
</g>
<!-- C_DBGATE&#45;&#45;C_MARIADB_FEDORA -->
<g id="edge29" class="edge">
<title>C_DBGATE&#45;&#45;C_MARIADB_FEDORA</title>
<path fill="none" stroke="orange" d="M1163.97,-225.57C1182.4,-194.57 1224.44,-133.02 1279.72,-109 1332.31,-86.15 1480.6,-104.09 1537.72,-109 1559.63,-110.88 1583.08,-114.22 1604.97,-117.93"/>
</g>
<!-- WEBSERVER&#45;&#45;BIND_HTTPD_CONFIG -->
<g id="edge16" class="edge">
<title>WEBSERVER&#45;&#45;BIND_HTTPD_CONFIG</title>
<path fill="none" stroke="blue" d="M639.72,-208.15C639.72,-298.4 639.72,-388.66 639.72,-478.91"/>
</g>
<!-- WEBSERVER&#45;&#45;C_FEDORA -->
<g id="edge30" class="edge">
<title>WEBSERVER&#45;&#45;C_FEDORA</title>
<path fill="none" stroke="magenta" d="M725.73,-184.01C872.1,-173.71 1170.25,-152.72 1319.08,-142.24"/>
</g>
<!-- WEBSERVER&#45;&#45;C_API -->
<g id="edge31" class="edge">
<title>WEBSERVER&#45;&#45;C_API</title>
<path fill="none" stroke="magenta" d="M725.96,-208.02C823.36,-228.6 981.34,-261.99 1075.02,-281.79"/>
</g>
<!-- WEBSERVER&#45;&#45;C_UI -->
<g id="edge32" class="edge">
<title>WEBSERVER&#45;&#45;C_UI</title>
<path fill="none" stroke="magenta" d="M725.73,-175.81C877.75,-150.44 1193.52,-97.75 1335.65,-74.03"/>
</g>
<!-- WEBSERVER&#45;&#45;C_SOLR -->
<g id="edge33" class="edge">
<title>WEBSERVER&#45;&#45;C_SOLR</title>
<path fill="none" stroke="magenta" d="M725.73,-190C875.31,-190 1183.44,-190 1328.68,-190"/>
</g>
<!-- WEBSERVER&#45;&#45;C_DBGATE -->
<g id="edge34" class="edge">
<title>WEBSERVER&#45;&#45;C_DBGATE</title>
<path fill="none" stroke="magenta" d="M725.96,-199.01C818.82,-208.82 966.73,-224.45 1061.5,-234.47"/>
</g>
<!-- WEBSERVER&#45;&#45;C_LAM -->
<g id="edge35" class="edge">
<title>WEBSERVER&#45;&#45;C_LAM</title>
<path fill="none" stroke="magenta" d="M711.39,-171.94C794.95,-150.69 938.28,-114.55 1061.72,-85 1158.4,-61.86 1180.95,-46.18 1279.72,-35 1393.66,-22.1 1423.48,-25.19 1537.72,-35 1563.05,-37.18 1590.45,-41.3 1615.1,-45.69"/>
</g>
</g>
</svg>
