<?xml version="1.0" encoding="UTF-8" standalone="no"?>
<!DOCTYPE svg PUBLIC "-//W3C//DTD SVG 1.1//EN"
 "http://www.w3.org/Graphics/SVG/1.1/DTD/svg11.dtd">
<!-- Generated by graphviz version 2.43.0 (0)
 -->
<!-- Title: G Pages: 1 -->
<svg width="3034pt" height="526pt"
 viewBox="0.00 0.00 3033.86 526.00" xmlns="http://www.w3.org/2000/svg" xmlns:xlink="http://www.w3.org/1999/xlink">
<g id="graph0" class="graph" transform="scale(1 1) rotate(0) translate(4 522)">
<title>G</title>
<polygon fill="white" stroke="transparent" points="-4,4 -4,-522 3029.86,-522 3029.86,4 -4,4"/>
<g id="clust1" class="cluster">
<title>cluster_host</title>
<polygon fill="none" stroke="red" points="209.86,-8 209.86,-510 3017.86,-510 3017.86,-8 209.86,-8"/>
<text text-anchor="middle" x="1613.86" y="-494.8" font-family="Times,serif" font-size="14.00">PHAIDRA server firewall</text>
</g>
<g id="clust2" class="cluster">
<title>cluster_host_storage</title>
<polygon fill="none" stroke="blue" points="673.86,-365 673.86,-479 2736.86,-479 2736.86,-365 673.86,-365"/>
<text text-anchor="middle" x="1705.36" y="-463.8" font-family="Times,serif" font-size="14.00">PHAIDRA server mounted directories</text>
</g>
<g id="clust3" class="cluster">
<title>cluster_named_volumes</title>
<polygon fill="none" stroke="turquoise" points="1181.86,-373 1181.86,-448 2728.86,-448 2728.86,-373 1181.86,-373"/>
<text text-anchor="middle" x="1955.36" y="-432.8" font-family="Times,serif" font-size="14.00">Named volumes under $HOME/.local/share/docker/volumes/</text>
</g>
<g id="clust4" class="cluster">
<title>cluster_bind_mounts</title>
<polygon fill="none" stroke="blue" points="681.86,-373 681.86,-448 1173.86,-448 1173.86,-373 681.86,-373"/>
<text text-anchor="middle" x="927.86" y="-432.8" font-family="Times,serif" font-size="14.00">Bind mounts under $PATH/phaidra&#45;docker/container_components/</text>
</g>
<g id="clust5" class="cluster">
<title>cluster_docker_network_host</title>
<polygon fill="none" stroke="green" points="317.86,-16 317.86,-357 3009.86,-357 3009.86,-16 317.86,-16"/>
<text text-anchor="middle" x="1663.86" y="-341.8" font-family="Times,serif" font-size="14.00">PHAIDRA docker network</text>
</g>
<g id="clust6" class="cluster">
<title>cluster_docker_phaidra_system</title>
<polygon fill="none" stroke="green" points="1018.86,-24 1018.86,-243 1803.86,-243 1803.86,-24 1018.86,-24"/>
<text text-anchor="middle" x="1411.36" y="-227.8" font-family="Times,serif" font-size="14.00">PHAIDRA container system</text>
</g>
<g id="clust7" class="cluster">
<title>cluster_docker_network_volumes</title>
<polygon fill="none" stroke="green" points="325.86,-251 325.86,-326 3001.86,-326 3001.86,-251 325.86,-251"/>
<text text-anchor="middle" x="1663.86" y="-310.8" font-family="Times,serif" font-size="14.00">PHAIDRA container volumes</text>
</g>
<!-- USER -->
<g id="node1" class="node">
<title>USER</title>
<polygon fill="none" stroke="black" points="193.59,-391.54 193.59,-406.46 139.27,-417 62.45,-417 8.13,-406.46 8.13,-391.54 62.45,-381 139.27,-381 193.59,-391.54"/>
<polygon fill="none" stroke="black" points="197.59,-388.25 197.59,-409.75 139.66,-421 62.07,-421 4.13,-409.75 4.13,-388.25 62.07,-377 139.66,-377 197.59,-388.25"/>
<polygon fill="none" stroke="black" points="201.58,-384.95 201.58,-413.05 140.04,-425 61.68,-425 0.14,-413.05 0.14,-384.95 61.68,-373 140.04,-373 201.58,-384.95"/>
<text text-anchor="middle" x="100.86" y="-395.3" font-family="Times,serif" font-size="14.00">PHAIDRA USER</text>
</g>
<!-- WEBSERVER -->
<g id="node3" class="node">
<title>WEBSERVER</title>
<polygon fill="none" stroke="magenta" points="309.86,-295 217.86,-295 217.86,-291 213.86,-291 213.86,-287 217.86,-287 217.86,-267 213.86,-267 213.86,-263 217.86,-263 217.86,-259 309.86,-259 309.86,-295"/>
<polyline fill="none" stroke="magenta" points="217.86,-291 221.86,-291 221.86,-287 217.86,-287 "/>
<polyline fill="none" stroke="magenta" points="217.86,-267 221.86,-267 221.86,-263 217.86,-263 "/>
<text text-anchor="middle" x="263.86" y="-273.3" font-family="Times,serif" font-size="14.00">Webserver</text>
</g>
<!-- USER&#45;&#45;WEBSERVER -->
<g id="edge50" class="edge">
<title>USER&#45;&#45;WEBSERVER</title>
<path fill="none" stroke="red" d="M135.03,-372.84C166.77,-349.48 213.17,-315.32 240.76,-295.01"/>
</g>
<!-- ADMIN -->
<g id="node2" class="node">
<title>ADMIN</title>
<polygon fill="none" stroke="black" points="541.34,-391.54 541.34,-406.46 483.65,-417 402.07,-417 344.38,-406.46 344.38,-391.54 402.07,-381 483.65,-381 541.34,-391.54"/>
<polygon fill="none" stroke="black" points="545.34,-388.21 545.34,-409.79 484.01,-421 401.71,-421 340.38,-409.79 340.38,-388.21 401.71,-377 484.01,-377 545.34,-388.21"/>
<text text-anchor="middle" x="442.86" y="-395.3" font-family="Times,serif" font-size="14.00">Developer/Admin</text>
</g>
<!-- DPS1 -->
<g id="node16" class="node">
<title>DPS1</title>
<g id="a_node16"><a xlink:href="https://fedora.lyrasis.org/" xlink:title="fedora">
<polygon fill="none" stroke="green" points="1252.86,-140 1190.86,-140 1190.86,-136 1186.86,-136 1186.86,-132 1190.86,-132 1190.86,-112 1186.86,-112 1186.86,-108 1190.86,-108 1190.86,-104 1252.86,-104 1252.86,-140"/>
<polyline fill="none" stroke="green" points="1190.86,-136 1194.86,-136 1194.86,-132 1190.86,-132 "/>
<polyline fill="none" stroke="green" points="1190.86,-112 1194.86,-112 1194.86,-108 1190.86,-108 "/>
<text text-anchor="middle" x="1221.86" y="-118.3" font-family="Times,serif" font-size="14.00">fedora</text>
</a>
</g>
</g>
<!-- WEBSERVER&#45;&#45;DPS1 -->
<g id="edge44" class="edge">
<title>WEBSERVER&#45;&#45;DPS1</title>
<path fill="none" stroke="magenta" d="M297.48,-258.9C305.29,-255.67 313.71,-252.75 321.86,-251 372.27,-240.14 734.84,-250.44 785.86,-243 895.45,-227.03 918.55,-203.35 1025.86,-176 1094.81,-158.43 1114.19,-162 1181.86,-140 1184.73,-139.07 1187.68,-138.01 1190.62,-136.89"/>
</g>
<!-- DPS2 -->
<g id="node17" class="node">
<title>DPS2</title>
<g id="a_node17"><a xlink:href="https://github.com/phaidra/phaidra-api" xlink:title="api">
<polygon fill="none" stroke="green" points="1172.86,-212 1118.86,-212 1118.86,-208 1114.86,-208 1114.86,-204 1118.86,-204 1118.86,-184 1114.86,-184 1114.86,-180 1118.86,-180 1118.86,-176 1172.86,-176 1172.86,-212"/>
<polyline fill="none" stroke="green" points="1118.86,-208 1122.86,-208 1122.86,-204 1118.86,-204 "/>
<polyline fill="none" stroke="green" points="1118.86,-184 1122.86,-184 1122.86,-180 1118.86,-180 "/>
<text text-anchor="middle" x="1145.86" y="-190.3" font-family="Times,serif" font-size="14.00">api</text>
</a>
</g>
</g>
<!-- WEBSERVER&#45;&#45;DPS2 -->
<g id="edge45" class="edge">
<title>WEBSERVER&#45;&#45;DPS2</title>
<path fill="none" stroke="magenta" d="M297.16,-258.99C305.06,-255.71 313.6,-252.75 321.86,-251 343.28,-246.47 1090.33,-252.89 1109.86,-243 1122.69,-236.51 1132.14,-223.07 1138.14,-212.05"/>
</g>
<!-- DPS5 -->
<g id="node20" class="node">
<title>DPS5</title>
<g id="a_node20"><a xlink:href="https://github.com/phaidra/phaidra-ui" xlink:title="ui">
<polygon fill="none" stroke="green" points="1080.86,-140 1026.86,-140 1026.86,-136 1022.86,-136 1022.86,-132 1026.86,-132 1026.86,-112 1022.86,-112 1022.86,-108 1026.86,-108 1026.86,-104 1080.86,-104 1080.86,-140"/>
<polyline fill="none" stroke="green" points="1026.86,-136 1030.86,-136 1030.86,-132 1026.86,-132 "/>
<polyline fill="none" stroke="green" points="1026.86,-112 1030.86,-112 1030.86,-108 1026.86,-108 "/>
<text text-anchor="middle" x="1053.86" y="-118.3" font-family="Times,serif" font-size="14.00">ui</text>
</a>
</g>
</g>
<!-- WEBSERVER&#45;&#45;DPS5 -->
<g id="edge46" class="edge">
<title>WEBSERVER&#45;&#45;DPS5</title>
<path fill="none" stroke="magenta" d="M299.55,-258.97C306.81,-255.97 314.49,-253.14 321.86,-251 473.35,-207.11 873.62,-191.01 1022.86,-140 1024.14,-139.56 1025.43,-139.08 1026.71,-138.55"/>
</g>
<!-- DPS7 -->
<g id="node22" class="node">
<title>DPS7</title>
<g id="a_node22"><a xlink:href="https://solr.apache.org/" xlink:title="solr">
<polygon fill="none" stroke="green" points="1172.86,-140 1118.86,-140 1118.86,-136 1114.86,-136 1114.86,-132 1118.86,-132 1118.86,-112 1114.86,-112 1114.86,-108 1118.86,-108 1118.86,-104 1172.86,-104 1172.86,-140"/>
<polyline fill="none" stroke="green" points="1118.86,-136 1122.86,-136 1122.86,-132 1118.86,-132 "/>
<polyline fill="none" stroke="green" points="1118.86,-112 1122.86,-112 1122.86,-108 1118.86,-108 "/>
<text text-anchor="middle" x="1145.86" y="-118.3" font-family="Times,serif" font-size="14.00">solr</text>
</a>
</g>
</g>
<!-- WEBSERVER&#45;&#45;DPS7 -->
<g id="edge47" class="edge">
<title>WEBSERVER&#45;&#45;DPS7</title>
<path fill="none" stroke="magenta" d="M297.49,-258.97C305.31,-255.73 313.72,-252.8 321.86,-251 384.6,-237.15 547.07,-250.67 610.86,-243 827.06,-216.99 879.05,-194.56 1089.86,-140 1099.3,-137.56 1109.54,-134.55 1118.65,-131.76"/>
</g>
<!-- DPS10 -->
<g id="node25" class="node">
<title>DPS10</title>
<polygon fill="none" stroke="green" points="1100.86,-212 1034.86,-212 1034.86,-208 1030.86,-208 1030.86,-204 1034.86,-204 1034.86,-184 1030.86,-184 1030.86,-180 1034.86,-180 1034.86,-176 1100.86,-176 1100.86,-212"/>
<polyline fill="none" stroke="green" points="1034.86,-208 1038.86,-208 1038.86,-204 1034.86,-204 "/>
<polyline fill="none" stroke="green" points="1034.86,-184 1038.86,-184 1038.86,-180 1034.86,-180 "/>
<text text-anchor="middle" x="1067.86" y="-190.3" font-family="Times,serif" font-size="14.00">dbgate</text>
</g>
<!-- WEBSERVER&#45;&#45;DPS10 -->
<g id="edge48" class="edge">
<title>WEBSERVER&#45;&#45;DPS10</title>
<path fill="none" stroke="magenta" d="M297.16,-259C305.06,-255.71 313.6,-252.75 321.86,-251 341.13,-246.91 1013.24,-251.79 1030.86,-243 1043.85,-236.52 1053.59,-223.08 1059.81,-212.06"/>
</g>
<!-- DPS11 -->
<g id="node26" class="node">
<title>DPS11</title>
<polygon fill="none" stroke="green" points="1110.86,-68 1056.86,-68 1056.86,-64 1052.86,-64 1052.86,-60 1056.86,-60 1056.86,-40 1052.86,-40 1052.86,-36 1056.86,-36 1056.86,-32 1110.86,-32 1110.86,-68"/>
<polyline fill="none" stroke="green" points="1056.86,-64 1060.86,-64 1060.86,-60 1056.86,-60 "/>
<polyline fill="none" stroke="green" points="1056.86,-40 1060.86,-40 1060.86,-36 1056.86,-36 "/>
<text text-anchor="middle" x="1083.86" y="-46.3" font-family="Times,serif" font-size="14.00">lam</text>
</g>
<!-- WEBSERVER&#45;&#45;DPS11 -->
<g id="edge49" class="edge">
<title>WEBSERVER&#45;&#45;DPS11</title>
<path fill="none" stroke="magenta" d="M274.84,-258.63C290.35,-235.68 320.93,-195.86 357.86,-176 483.32,-108.53 940.11,-63.84 1056.65,-53.36"/>
</g>
<!-- HS1 -->
<g id="node4" class="node">
<title>HS1</title>
<polygon fill="none" stroke="turquoise" points="1737.86,-417 1734.86,-421 1713.86,-421 1710.86,-417 1613.86,-417 1613.86,-381 1737.86,-381 1737.86,-417"/>
<text text-anchor="middle" x="1675.86" y="-395.3" font-family="Times,serif" font-size="14.00">phaidra_fedora</text>
</g>
<!-- DPV1 -->
<g id="node28" class="node">
<title>DPV1</title>
<polygon fill="none" stroke="green" points="1452.36,-295 1449.36,-299 1428.36,-299 1425.36,-295 1223.36,-295 1223.36,-259 1452.36,-259 1452.36,-295"/>
<text text-anchor="middle" x="1337.86" y="-273.3" font-family="Times,serif" font-size="14.00">/usr/local/tomcat/fcrepo&#45;home</text>
</g>
<!-- HS1&#45;&#45;DPV1 -->
<g id="edge2" class="edge">
<title>HS1&#45;&#45;DPV1</title>
<path fill="none" stroke="turquoise" d="M1645.69,-380.89C1633.41,-374.76 1618.84,-368.5 1604.86,-365 1543.11,-349.53 1522.45,-376.51 1461.86,-357 1421.29,-343.93 1380.88,-314.3 1357.69,-295.27"/>
</g>
<!-- DPV3 -->
<g id="node30" class="node">
<title>DPV3</title>
<polygon fill="none" stroke="green" points="1205.36,-295 1202.36,-299 1181.36,-299 1178.36,-295 1086.36,-295 1086.36,-259 1205.36,-259 1205.36,-295"/>
<text text-anchor="middle" x="1145.86" y="-273.3" font-family="Times,serif" font-size="14.00">/mnt/fedora:ro</text>
</g>
<!-- HS1&#45;&#45;DPV3 -->
<g id="edge7" class="edge">
<title>HS1&#45;&#45;DPV3</title>
<path fill="none" stroke="turquoise" d="M1646.45,-380.99C1634.03,-374.71 1619.16,-368.32 1604.86,-365 1583.75,-360.11 1234.5,-366.17 1214.86,-357 1187.14,-344.06 1166.09,-314.08 1154.89,-295"/>
</g>
<!-- DPV11 -->
<g id="node38" class="node">
<title>DPV11</title>
<polygon fill="none" stroke="green" points="2438.36,-295 2435.36,-299 2414.36,-299 2411.36,-295 2319.36,-295 2319.36,-259 2438.36,-259 2438.36,-295"/>
<text text-anchor="middle" x="2378.86" y="-273.3" font-family="Times,serif" font-size="14.00">/mnt/fedora:ro</text>
</g>
<!-- HS1&#45;&#45;DPV11 -->
<g id="edge25" class="edge">
<title>HS1&#45;&#45;DPV11</title>
<path fill="none" stroke="turquoise" d="M1705.26,-380.94C1717.68,-374.65 1732.55,-368.27 1746.86,-365 1777.36,-358.03 2281.47,-370.14 2309.86,-357 2337.62,-344.15 2358.66,-314.14 2369.85,-295.03"/>
</g>
<!-- HS2 -->
<g id="node5" class="node">
<title>HS2</title>
<polygon fill="none" stroke="turquoise" points="1471.86,-417 1468.86,-421 1447.86,-421 1444.86,-417 1335.86,-417 1335.86,-381 1471.86,-381 1471.86,-417"/>
<text text-anchor="middle" x="1403.86" y="-395.3" font-family="Times,serif" font-size="14.00">phaidra_api_logs</text>
</g>
<!-- DPV2 -->
<g id="node29" class="node">
<title>DPV2</title>
<polygon fill="none" stroke="green" points="973.86,-295 970.86,-299 949.86,-299 946.86,-295 843.86,-295 843.86,-259 973.86,-259 973.86,-295"/>
<text text-anchor="middle" x="908.86" y="-273.3" font-family="Times,serif" font-size="14.00">/var/log/phaidra</text>
</g>
<!-- HS2&#45;&#45;DPV2 -->
<g id="edge6" class="edge">
<title>HS2&#45;&#45;DPV2</title>
<path fill="none" stroke="turquoise" d="M1371.43,-380.84C1358.01,-374.61 1342.07,-368.31 1326.86,-365 1289.5,-356.88 1017.76,-372.61 982.86,-357 954.04,-344.11 931.18,-314.11 918.87,-295.02"/>
</g>
<!-- HS5 -->
<g id="node6" class="node">
<title>HS5</title>
<polygon fill="none" stroke="turquoise" points="2179.36,-417 2176.36,-421 2155.36,-421 2152.36,-417 1980.36,-417 1980.36,-381 2179.36,-381 2179.36,-417"/>
<text text-anchor="middle" x="2079.86" y="-395.3" font-family="Times,serif" font-size="14.00">phaidra_mariadb_phaidra</text>
</g>
<!-- DPV5 -->
<g id="node32" class="node">
<title>DPV5</title>
<polygon fill="none" stroke="green" points="2136.86,-295 2133.86,-299 2112.86,-299 2109.86,-295 2022.86,-295 2022.86,-259 2136.86,-259 2136.86,-295"/>
<text text-anchor="middle" x="2079.86" y="-273.3" font-family="Times,serif" font-size="14.00">/var/lib/mysql</text>
</g>
<!-- HS5&#45;&#45;DPV5 -->
<g id="edge12" class="edge">
<title>HS5&#45;&#45;DPV5</title>
<path fill="none" stroke="turquoise" d="M2079.86,-380.81C2079.86,-357.99 2079.86,-317.96 2079.86,-295.16"/>
</g>
<!-- HS6 -->
<g id="node7" class="node">
<title>HS6</title>
<polygon fill="none" stroke="turquoise" points="1961.86,-417 1958.86,-421 1937.86,-421 1934.86,-417 1755.86,-417 1755.86,-381 1961.86,-381 1961.86,-417"/>
<text text-anchor="middle" x="1858.86" y="-395.3" font-family="Times,serif" font-size="14.00">phaidra_mongodb_phaidra</text>
</g>
<!-- DPV6 -->
<g id="node33" class="node">
<title>DPV6</title>
<polygon fill="none" stroke="green" points="1915.36,-295 1912.36,-299 1891.36,-299 1888.36,-295 1840.36,-295 1840.36,-259 1915.36,-259 1915.36,-295"/>
<text text-anchor="middle" x="1877.86" y="-273.3" font-family="Times,serif" font-size="14.00">/data/db</text>
</g>
<!-- HS6&#45;&#45;DPV6 -->
<g id="edge14" class="edge">
<title>HS6&#45;&#45;DPV6</title>
<path fill="none" stroke="turquoise" d="M1861.58,-380.81C1865.2,-357.99 1871.53,-317.96 1875.14,-295.16"/>
</g>
<!-- HS7 -->
<g id="node8" class="node">
<title>HS7</title>
<polygon fill="none" stroke="turquoise" points="2340.36,-417 2337.36,-421 2316.36,-421 2313.36,-417 2197.36,-417 2197.36,-381 2340.36,-381 2340.36,-417"/>
<text text-anchor="middle" x="2268.86" y="-395.3" font-family="Times,serif" font-size="14.00">phaidra_openldap</text>
</g>
<!-- DPV7 -->
<g id="node34" class="node">
<title>DPV7</title>
<polygon fill="none" stroke="green" points="2300.86,-295 2297.86,-299 2276.86,-299 2273.86,-295 2154.86,-295 2154.86,-259 2300.86,-259 2300.86,-295"/>
<text text-anchor="middle" x="2227.86" y="-273.3" font-family="Times,serif" font-size="14.00">/bitnami/openldap</text>
</g>
<!-- HS7&#45;&#45;DPV7 -->
<g id="edge17" class="edge">
<title>HS7&#45;&#45;DPV7</title>
<path fill="none" stroke="turquoise" d="M2262.99,-380.81C2255.19,-357.99 2241.51,-317.96 2233.72,-295.16"/>
</g>
<!-- HS9 -->
<g id="node9" class="node">
<title>HS9</title>
<polygon fill="none" stroke="turquoise" points="1595.36,-417 1592.36,-421 1571.36,-421 1568.36,-417 1490.36,-417 1490.36,-381 1595.36,-381 1595.36,-417"/>
<text text-anchor="middle" x="1542.86" y="-395.3" font-family="Times,serif" font-size="14.00">phaidra_solr</text>
</g>
<!-- DPV9 -->
<g id="node36" class="node">
<title>DPV9</title>
<polygon fill="none" stroke="green" points="1067.86,-295 1064.86,-299 1043.86,-299 1040.86,-295 991.86,-295 991.86,-259 1067.86,-259 1067.86,-295"/>
<text text-anchor="middle" x="1029.86" y="-273.3" font-family="Times,serif" font-size="14.00">/var/solr</text>
</g>
<!-- HS9&#45;&#45;DPV9 -->
<g id="edge20" class="edge">
<title>HS9&#45;&#45;DPV9</title>
<path fill="none" stroke="turquoise" d="M1517.43,-380.99C1506.63,-374.71 1493.61,-368.32 1480.86,-365 1459.19,-359.36 1097.27,-368.17 1077.86,-357 1054.63,-343.63 1041.28,-314.08 1034.81,-295.16"/>
</g>
<!-- HS10 -->
<g id="node10" class="node">
<title>HS10</title>
<polygon fill="none" stroke="turquoise" points="2720.86,-417 2717.86,-421 2696.86,-421 2693.86,-417 2566.86,-417 2566.86,-381 2720.86,-381 2720.86,-417"/>
<text text-anchor="middle" x="2643.86" y="-395.3" font-family="Times,serif" font-size="14.00">phaidra_pixelgecko</text>
</g>
<!-- DPV10 -->
<g id="node37" class="node">
<title>DPV10</title>
<polygon fill="none" stroke="green" points="2792.36,-295 2789.36,-299 2768.36,-299 2765.36,-295 2589.36,-295 2589.36,-259 2792.36,-259 2792.36,-295"/>
<text text-anchor="middle" x="2690.86" y="-273.3" font-family="Times,serif" font-size="14.00">/mnt/converted_images:ro</text>
</g>
<!-- HS10&#45;&#45;DPV10 -->
<g id="edge22" class="edge">
<title>HS10&#45;&#45;DPV10</title>
<path fill="none" stroke="turquoise" d="M2650.59,-380.81C2659.53,-357.99 2675.21,-317.96 2684.14,-295.16"/>
</g>
<!-- DPV12 -->
<g id="node39" class="node">
<title>DPV12</title>
<polygon fill="none" stroke="green" points="2993.36,-295 2990.36,-299 2969.36,-299 2966.36,-295 2810.36,-295 2810.36,-259 2993.36,-259 2993.36,-295"/>
<text text-anchor="middle" x="2901.86" y="-273.3" font-family="Times,serif" font-size="14.00">/mnt/converted_images</text>
</g>
<!-- HS10&#45;&#45;DPV12 -->
<g id="edge26" class="edge">
<title>HS10&#45;&#45;DPV12</title>
<path fill="none" stroke="turquoise" d="M2720.9,-384.74C2747.42,-378.45 2776.74,-369.49 2801.86,-357 2834.35,-340.85 2866.26,-312.97 2884.99,-295.02"/>
</g>
<!-- HS13 -->
<g id="node11" class="node">
<title>HS13</title>
<polygon fill="none" stroke="turquoise" points="1317.86,-417 1314.86,-421 1293.86,-421 1290.86,-417 1189.86,-417 1189.86,-381 1317.86,-381 1317.86,-417"/>
<text text-anchor="middle" x="1253.86" y="-395.3" font-family="Times,serif" font-size="14.00">phaidra_dbgate</text>
</g>
<!-- DPV13 -->
<g id="node40" class="node">
<title>DPV13</title>
<polygon fill="none" stroke="green" points="825.36,-295 822.36,-299 801.36,-299 798.36,-295 716.36,-295 716.36,-259 825.36,-259 825.36,-295"/>
<text text-anchor="middle" x="770.86" y="-273.3" font-family="Times,serif" font-size="14.00">/root/.dbgate</text>
</g>
<!-- HS13&#45;&#45;DPV13 -->
<g id="edge28" class="edge">
<title>HS13&#45;&#45;DPV13</title>
<path fill="none" stroke="turquoise" d="M1221.87,-380.84C1208.64,-374.61 1192.89,-368.31 1177.86,-365 1140.63,-356.81 869.08,-373.81 834.86,-357 808.4,-344 789.23,-314.34 779.1,-295.29"/>
</g>
<!-- HS15 -->
<g id="node12" class="node">
<title>HS15</title>
<polygon fill="none" stroke="turquoise" points="2548.86,-417 2545.86,-421 2524.86,-421 2521.86,-417 2358.86,-417 2358.86,-381 2548.86,-381 2548.86,-417"/>
<text text-anchor="middle" x="2453.86" y="-395.3" font-family="Times,serif" font-size="14.00">phaidra_mariadb_fedora</text>
</g>
<!-- DPV15 -->
<g id="node41" class="node">
<title>DPV15</title>
<polygon fill="none" stroke="green" points="2570.86,-295 2567.86,-299 2546.86,-299 2543.86,-295 2456.86,-295 2456.86,-259 2570.86,-259 2570.86,-295"/>
<text text-anchor="middle" x="2513.86" y="-273.3" font-family="Times,serif" font-size="14.00">/var/lib/mysql</text>
</g>
<!-- HS15&#45;&#45;DPV15 -->
<g id="edge30" class="edge">
<title>HS15&#45;&#45;DPV15</title>
<path fill="none" stroke="turquoise" d="M2462.46,-380.81C2473.86,-357.99 2493.88,-317.96 2505.28,-295.16"/>
</g>
<!-- HS4 -->
<g id="node13" class="node">
<title>HS4</title>
<polygon fill="none" stroke="blue" points="1065.86,-417 1062.86,-421 1041.86,-421 1038.86,-417 865.86,-417 865.86,-381 1065.86,-381 1065.86,-417"/>
<text text-anchor="middle" x="965.86" y="-395.3" font-family="Times,serif" font-size="14.00">mariadb/phaidradb.sql.gz</text>
</g>
<!-- DPV4 -->
<g id="node31" class="node">
<title>DPV4</title>
<polygon fill="none" stroke="green" points="1822.86,-295 1819.86,-299 1798.86,-299 1795.86,-295 1470.86,-295 1470.86,-259 1822.86,-259 1822.86,-295"/>
<text text-anchor="middle" x="1646.86" y="-273.3" font-family="Times,serif" font-size="14.00">/docker&#45;entrypoint&#45;initdb.d/phaidradb.sql.gz:ro</text>
</g>
<!-- HS4&#45;&#45;DPV4 -->
<g id="edge11" class="edge">
<title>HS4&#45;&#45;DPV4</title>
<path fill="none" stroke="blue" d="M1012.15,-380.93C1031.29,-374.68 1053.87,-368.33 1074.86,-365 1159.82,-351.52 1377.77,-375.11 1461.86,-357 1519.39,-344.61 1581.33,-314.31 1616.96,-295.04"/>
</g>
<!-- HS8 -->
<g id="node14" class="node">
<title>HS8</title>
<polygon fill="none" stroke="blue" points="1165.86,-417 1162.86,-421 1141.86,-421 1138.86,-417 1083.86,-417 1083.86,-381 1165.86,-381 1165.86,-417"/>
<text text-anchor="middle" x="1124.86" y="-395.3" font-family="Times,serif" font-size="14.00">openldap</text>
</g>
<!-- DPV8 -->
<g id="node35" class="node">
<title>DPV8</title>
<polygon fill="none" stroke="green" points="2004.36,-295 2001.36,-299 1980.36,-299 1977.36,-295 1933.36,-295 1933.36,-259 2004.36,-259 2004.36,-295"/>
<text text-anchor="middle" x="1968.86" y="-273.3" font-family="Times,serif" font-size="14.00">/ldifs:ro</text>
</g>
<!-- HS8&#45;&#45;DPV8 -->
<g id="edge18" class="edge">
<title>HS8&#45;&#45;DPV8</title>
<path fill="none" stroke="blue" d="M1146.25,-380.95C1155.43,-374.66 1166.62,-368.28 1177.86,-365 1197.78,-359.19 1907.03,-367.61 1924.86,-357 1947.39,-343.6 1959.25,-314.06 1964.77,-295.15"/>
</g>
<!-- HS16 -->
<g id="node15" class="node">
<title>HS16</title>
<polygon fill="none" stroke="blue" points="847.36,-417 844.36,-421 823.36,-421 820.36,-417 690.36,-417 690.36,-381 847.36,-381 847.36,-417"/>
<text text-anchor="middle" x="768.86" y="-395.3" font-family="Times,serif" font-size="14.00">api/PhaidraAPI.json</text>
</g>
<!-- DPV16 -->
<g id="node42" class="node">
<title>DPV16</title>
<polygon fill="none" stroke="green" points="698.36,-295 695.36,-299 674.36,-299 671.36,-295 333.36,-295 333.36,-259 698.36,-259 698.36,-295"/>
<text text-anchor="middle" x="515.86" y="-273.3" font-family="Times,serif" font-size="14.00">/usr/local/phaidra/phaidra&#45;api/PhaidraAPI.json:ro</text>
</g>
<!-- HS16&#45;&#45;DPV16 -->
<g id="edge8" class="edge">
<title>HS16&#45;&#45;DPV16</title>
<path fill="none" stroke="blue" d="M732.88,-380.93C684.72,-358.09 599.81,-317.82 551.72,-295.01"/>
</g>
<!-- DPS13 -->
<g id="node27" class="node">
<title>DPS13</title>
<g id="a_node27"><a xlink:href="https://mariadb.org/" xlink:title="mariadb&#45;fedora">
<polygon fill="none" stroke="green" points="1284.86,-68 1158.86,-68 1158.86,-64 1154.86,-64 1154.86,-60 1158.86,-60 1158.86,-40 1154.86,-40 1154.86,-36 1158.86,-36 1158.86,-32 1284.86,-32 1284.86,-68"/>
<polyline fill="none" stroke="green" points="1158.86,-64 1162.86,-64 1162.86,-60 1158.86,-60 "/>
<polyline fill="none" stroke="green" points="1158.86,-40 1162.86,-40 1162.86,-36 1158.86,-36 "/>
<text text-anchor="middle" x="1221.86" y="-46.3" font-family="Times,serif" font-size="14.00">mariadb&#45;fedora</text>
</a>
</g>
</g>
<!-- DPS1&#45;&#45;DPS13 -->
<g id="edge31" class="edge">
<title>DPS1&#45;&#45;DPS13</title>
<path fill="none" stroke="orange" d="M1221.86,-103.7C1221.86,-92.85 1221.86,-78.92 1221.86,-68.1"/>
</g>
<!-- DPS2&#45;&#45;DPS1 -->
<g id="edge32" class="edge">
<title>DPS2&#45;&#45;DPS1</title>
<path fill="none" stroke="orange" d="M1164.65,-175.7C1176.43,-164.85 1191.55,-150.92 1203.29,-140.1"/>
</g>
<!-- DPS3 -->
<g id="node18" class="node">
<title>DPS3</title>
<g id="a_node18"><a xlink:href="https://mariadb.org/" xlink:title="mariadb&#45;phaidra">
<polygon fill="none" stroke="green" points="1566.36,-140 1431.36,-140 1431.36,-136 1427.36,-136 1427.36,-132 1431.36,-132 1431.36,-112 1427.36,-112 1427.36,-108 1431.36,-108 1431.36,-104 1566.36,-104 1566.36,-140"/>
<polyline fill="none" stroke="green" points="1431.36,-136 1435.36,-136 1435.36,-132 1431.36,-132 "/>
<polyline fill="none" stroke="green" points="1431.36,-112 1435.36,-112 1435.36,-108 1431.36,-108 "/>
<text text-anchor="middle" x="1498.86" y="-118.3" font-family="Times,serif" font-size="14.00">mariadb&#45;phaidra</text>
</a>
</g>
</g>
<!-- DPS2&#45;&#45;DPS3 -->
<g id="edge33" class="edge">
<title>DPS2&#45;&#45;DPS3</title>
<path fill="none" stroke="orange" d="M1172.94,-188.06C1222.45,-178.96 1330.83,-158.79 1421.86,-140 1424.94,-139.36 1428.1,-138.7 1431.28,-138.03"/>
</g>
<!-- DPS4 -->
<g id="node19" class="node">
<title>DPS4</title>
<g id="a_node19"><a xlink:href="https://www.mongodb.com/" xlink:title="mongodb&#45;phaidra">
<polygon fill="none" stroke="green" points="1412.86,-140 1270.86,-140 1270.86,-136 1266.86,-136 1266.86,-132 1270.86,-132 1270.86,-112 1266.86,-112 1266.86,-108 1270.86,-108 1270.86,-104 1412.86,-104 1412.86,-140"/>
<polyline fill="none" stroke="green" points="1270.86,-136 1274.86,-136 1274.86,-132 1270.86,-132 "/>
<polyline fill="none" stroke="green" points="1270.86,-112 1274.86,-112 1274.86,-108 1270.86,-108 "/>
<text text-anchor="middle" x="1341.86" y="-118.3" font-family="Times,serif" font-size="14.00">mongodb&#45;phaidra</text>
</a>
</g>
</g>
<!-- DPS2&#45;&#45;DPS4 -->
<g id="edge34" class="edge">
<title>DPS2&#45;&#45;DPS4</title>
<path fill="none" stroke="orange" d="M1173.11,-183.27C1204.35,-172.11 1256.13,-153.62 1294.11,-140.05"/>
</g>
<!-- DPS2&#45;&#45;DPS5 -->
<g id="edge35" class="edge">
<title>DPS2&#45;&#45;DPS5</title>
<path fill="none" stroke="orange" d="M1123.12,-175.7C1108.86,-164.85 1090.55,-150.92 1076.34,-140.1"/>
</g>
<!-- DPS6 -->
<g id="node21" class="node">
<title>DPS6</title>
<g id="a_node21"><a xlink:href="https://www.openldap.org/" xlink:title="openldap">
<polygon fill="none" stroke="green" points="1666.86,-140 1584.86,-140 1584.86,-136 1580.86,-136 1580.86,-132 1584.86,-132 1584.86,-112 1580.86,-112 1580.86,-108 1584.86,-108 1584.86,-104 1666.86,-104 1666.86,-140"/>
<polyline fill="none" stroke="green" points="1584.86,-136 1588.86,-136 1588.86,-132 1584.86,-132 "/>
<polyline fill="none" stroke="green" points="1584.86,-112 1588.86,-112 1588.86,-108 1584.86,-108 "/>
<text text-anchor="middle" x="1625.86" y="-118.3" font-family="Times,serif" font-size="14.00">openldap</text>
</a>
</g>
</g>
<!-- DPS2&#45;&#45;DPS6 -->
<g id="edge36" class="edge">
<title>DPS2&#45;&#45;DPS6</title>
<path fill="none" stroke="orange" d="M1172.86,-191.6C1241.14,-187.64 1425.92,-174.35 1575.86,-140 1578.81,-139.32 1581.83,-138.54 1584.85,-137.69"/>
</g>
<!-- DPS2&#45;&#45;DPS7 -->
<g id="edge37" class="edge">
<title>DPS2&#45;&#45;DPS7</title>
<path fill="none" stroke="orange" d="M1145.86,-175.7C1145.86,-164.85 1145.86,-150.92 1145.86,-140.1"/>
</g>
<!-- DPS8 -->
<g id="node23" class="node">
<title>DPS8</title>
<g id="a_node23"><a xlink:href="https://github.com/ruven/iipsrv" xlink:title="imageserver)">
<polygon fill="none" stroke="green" points="1796.36,-140 1685.36,-140 1685.36,-136 1681.36,-136 1681.36,-132 1685.36,-132 1685.36,-112 1681.36,-112 1681.36,-108 1685.36,-108 1685.36,-104 1796.36,-104 1796.36,-140"/>
<polyline fill="none" stroke="green" points="1685.36,-136 1689.36,-136 1689.36,-132 1685.36,-132 "/>
<polyline fill="none" stroke="green" points="1685.36,-112 1689.36,-112 1689.36,-108 1685.36,-108 "/>
<text text-anchor="middle" x="1740.86" y="-118.3" font-family="Times,serif" font-size="14.00">imageserver)</text>
</a>
</g>
</g>
<!-- DPS2&#45;&#45;DPS8 -->
<g id="edge38" class="edge">
<title>DPS2&#45;&#45;DPS8</title>
<path fill="none" stroke="orange" d="M1173.09,-191.78C1251.64,-187.94 1485.18,-174.25 1675.86,-140 1678.96,-139.44 1682.13,-138.81 1685.32,-138.14"/>
</g>
<!-- DPS9 -->
<g id="node24" class="node">
<title>DPS9</title>
<polygon fill="none" stroke="green" points="1795.86,-68 1703.86,-68 1703.86,-64 1699.86,-64 1699.86,-60 1703.86,-60 1703.86,-40 1699.86,-40 1699.86,-36 1703.86,-36 1703.86,-32 1795.86,-32 1795.86,-68"/>
<polyline fill="none" stroke="green" points="1703.86,-64 1707.86,-64 1707.86,-60 1703.86,-60 "/>
<polyline fill="none" stroke="green" points="1703.86,-40 1707.86,-40 1707.86,-36 1703.86,-36 "/>
<text text-anchor="middle" x="1749.86" y="-46.3" font-family="Times,serif" font-size="14.00">pixelgecko</text>
</g>
<!-- DPS4&#45;&#45;DPS9 -->
<g id="edge39" class="edge">
<title>DPS4&#45;&#45;DPS9</title>
<path fill="none" stroke="orange" d="M1412.94,-105.89C1416.29,-105.24 1419.61,-104.6 1422.86,-104 1522.66,-85.45 1640.28,-67.29 1703.71,-57.79"/>
</g>
<!-- DPS6&#45;&#45;DPS11 -->
<g id="edge40" class="edge">
<title>DPS6&#45;&#45;DPS11</title>
<path fill="none" stroke="orange" d="M1584.61,-106.11C1581.67,-105.32 1578.73,-104.6 1575.86,-104 1389.87,-65.13 1337.19,-99.81 1149.86,-68 1136.91,-65.8 1122.78,-62.31 1110.93,-59.07"/>
</g>
<!-- DPS10&#45;&#45;DPS3 -->
<g id="edge41" class="edge">
<title>DPS10&#45;&#45;DPS3</title>
<path fill="none" stroke="orange" d="M1101.06,-178.62C1104,-177.63 1106.96,-176.74 1109.86,-176 1245.12,-141.5 1284.2,-163.08 1421.86,-140 1424.97,-139.48 1428.14,-138.92 1431.33,-138.32"/>
</g>
<!-- DPS10&#45;&#45;DPS4 -->
<g id="edge42" class="edge">
<title>DPS10&#45;&#45;DPS4</title>
<path fill="none" stroke="orange" d="M1101.16,-178.96C1104.08,-177.9 1107.01,-176.9 1109.86,-176 1125.26,-171.16 1208.29,-152.48 1270.65,-138.66"/>
</g>
<!-- DPS10&#45;&#45;DPS13 -->
<g id="edge43" class="edge">
<title>DPS10&#45;&#45;DPS13</title>
<path fill="none" stroke="orange" d="M1075.16,-175.97C1085.66,-151.7 1104.4,-109.47 1109.86,-104 1125.75,-88.1 1147.33,-76.34 1167.3,-68.01"/>
</g>
<!-- DPV1&#45;&#45;DPS1 -->
<g id="edge1" class="edge">
<title>DPV1&#45;&#45;DPS1</title>
<path fill="none" stroke="green" d="M1324.78,-258.75C1302.5,-229.36 1257.44,-169.93 1235.07,-140.43"/>
</g>
<!-- DPV2&#45;&#45;DPS2 -->
<g id="edge3" class="edge">
<title>DPV2&#45;&#45;DPS2</title>
<path fill="none" stroke="green" d="M952.96,-259C962.68,-255.84 973.02,-252.94 982.86,-251 1010.61,-245.54 1084.98,-256.44 1109.86,-243 1122.33,-236.27 1131.71,-223.14 1137.76,-212.32"/>
</g>
<!-- DPV3&#45;&#45;DPS2 -->
<g id="edge4" class="edge">
<title>DPV3&#45;&#45;DPS2</title>
<path fill="none" stroke="green" d="M1145.86,-258.82C1145.86,-245.08 1145.86,-225.89 1145.86,-212.15"/>
</g>
<!-- DPV4&#45;&#45;DPS3 -->
<g id="edge9" class="edge">
<title>DPV4&#45;&#45;DPS3</title>
<path fill="none" stroke="green" d="M1630.17,-258.75C1601.75,-229.36 1544.25,-169.93 1515.72,-140.43"/>
</g>
<!-- DPV5&#45;&#45;DPS3 -->
<g id="edge10" class="edge">
<title>DPV5&#45;&#45;DPS3</title>
<path fill="none" stroke="green" d="M2039.91,-258.88C2031.44,-255.81 2022.46,-252.97 2013.86,-251 1974.72,-242.03 1963.36,-250.27 1923.86,-243 1785.12,-217.48 1626.26,-166.65 1547.88,-140.08"/>
</g>
<!-- DPV6&#45;&#45;DPS4 -->
<g id="edge13" class="edge">
<title>DPV6&#45;&#45;DPS4</title>
<path fill="none" stroke="green" d="M1850.41,-258.85C1844.48,-255.79 1838.11,-252.96 1831.86,-251 1800.71,-241.25 1790.88,-249.31 1758.86,-243 1623.42,-216.29 1468.21,-166.33 1390.94,-140.09"/>
</g>
<!-- DPV7&#45;&#45;DPS6 -->
<g id="edge15" class="edge">
<title>DPV7&#45;&#45;DPS6</title>
<path fill="none" stroke="green" d="M2178.91,-258.92C2168.14,-255.77 2156.71,-252.89 2145.86,-251 2073.53,-238.42 2052.78,-257.76 1980.86,-243 1897.24,-225.84 1881.9,-202.81 1800.86,-176 1746.38,-157.98 1731.65,-157.08 1676.86,-140 1673.65,-139 1670.34,-137.95 1667.01,-136.87"/>
</g>
<!-- DPV8&#45;&#45;DPS6 -->
<g id="edge16" class="edge">
<title>DPV8&#45;&#45;DPS6</title>
<path fill="none" stroke="green" d="M1939.76,-258.86C1934.84,-256.14 1929.74,-253.42 1924.86,-251 1834.83,-206.33 1725.44,-161.89 1667.14,-138.97"/>
</g>
<!-- DPV9&#45;&#45;DPS7 -->
<g id="edge19" class="edge">
<title>DPV9&#45;&#45;DPS7</title>
<path fill="none" stroke="green" d="M1058.01,-258.96C1064.34,-255.81 1071.18,-252.91 1077.86,-251 1089,-247.81 1173.99,-251.5 1181.86,-243 1208.76,-213.95 1179.22,-165.56 1159.89,-140"/>
</g>
<!-- DPV10&#45;&#45;DPS8 -->
<g id="edge21" class="edge">
<title>DPV10&#45;&#45;DPS8</title>
<path fill="none" stroke="green" d="M2618.77,-258.99C2605.84,-256.16 2592.48,-253.38 2579.86,-251 2286.3,-195.62 1931.47,-147.67 1796.56,-130.12"/>
</g>
<!-- DPV11&#45;&#45;DPS9 -->
<g id="edge23" class="edge">
<title>DPV11&#45;&#45;DPS9</title>
<path fill="none" stroke="green" d="M2331.73,-258.89C2324.41,-256.24 2316.93,-253.54 2309.86,-251 2119.22,-182.42 1891.77,-101.45 1795.98,-67.39"/>
</g>
<!-- DPV12&#45;&#45;DPS9 -->
<g id="edge24" class="edge">
<title>DPV12&#45;&#45;DPS9</title>
<path fill="none" stroke="green" d="M2836.09,-258.99C2824.7,-256.21 2812.96,-253.44 2801.86,-251 2414.88,-165.92 1943.11,-83.88 1795.94,-58.79"/>
</g>
<!-- DPV13&#45;&#45;DPS10 -->
<g id="edge27" class="edge">
<title>DPV13&#45;&#45;DPS10</title>
<path fill="none" stroke="green" d="M808.47,-258.93C816.99,-255.74 826.1,-252.84 834.86,-251 856.19,-246.53 1011.5,-253.02 1030.86,-243 1043.57,-236.42 1053.22,-223.29 1059.47,-212.42"/>
</g>
<!-- DPV15&#45;&#45;DPS13 -->
<g id="edge29" class="edge">
<title>DPV15&#45;&#45;DPS13</title>
<path fill="none" stroke="green" d="M2471.55,-259C2463.74,-256.14 2455.6,-253.34 2447.86,-251 2167.67,-166.29 2094.94,-150 1805.86,-104 1617.6,-74.04 1392.3,-59.55 1284.86,-53.93"/>
</g>
<!-- DPV16&#45;&#45;DPS2 -->
<g id="edge5" class="edge">
<title>DPV16&#45;&#45;DPS2</title>
<path fill="none" stroke="green" d="M630.63,-258.97C656.01,-255.79 682.8,-252.87 707.86,-251 730.14,-249.33 1089.98,-253.19 1109.86,-243 1122.65,-236.44 1132.12,-223.01 1138.12,-212.01"/>
</g>
</g>
</svg>
