<?xml version="1.0" encoding="UTF-8" standalone="no"?>
<!DOCTYPE svg PUBLIC "-//W3C//DTD SVG 1.1//EN"
 "http://www.w3.org/Graphics/SVG/1.1/DTD/svg11.dtd">
<!-- Generated by graphviz version 2.43.0 (0)
 -->
<!-- Title: G Pages: 1 -->
<svg width="2007pt" height="1503pt"
 viewBox="0.00 0.00 2006.72 1503.00" xmlns="http://www.w3.org/2000/svg" xmlns:xlink="http://www.w3.org/1999/xlink">
<g id="graph0" class="graph" transform="scale(1 1) rotate(0) translate(4 1499)">
<title>G</title>
<polygon fill="white" stroke="transparent" points="-4,4 -4,-1499 2002.72,-1499 2002.72,4 -4,4"/>
<g id="clust1" class="cluster">
<title>cluster_host</title>
<polygon fill="none" stroke="red" points="213.72,-8 213.72,-1487 1990.72,-1487 1990.72,-8 213.72,-8"/>
<text text-anchor="middle" x="1102.22" y="-1471.8" font-family="Times,serif" font-size="14.00">PHAIDRA server firewall</text>
</g>
<g id="clust2" class="cluster">
<title>cluster_host_storage</title>
<polygon fill="none" stroke="blue" points="221.72,-463 221.72,-1456 1068.72,-1456 1068.72,-463 221.72,-463"/>
<text text-anchor="middle" x="645.22" y="-1440.8" font-family="Times,serif" font-size="14.00">PHAIDRA server filesystem</text>
</g>
<g id="clust3" class="cluster">
<title>cluster_named_volumes</title>
<polygon fill="none" stroke="turquoise" points="229.72,-471 229.72,-1186 1060.72,-1186 1060.72,-471 229.72,-471"/>
<text text-anchor="middle" x="645.22" y="-1170.8" font-family="Times,serif" font-size="14.00">Named volumes</text>
</g>
<g id="clust4" class="cluster">
<title>cluster_bind_mounts</title>
<polygon fill="none" stroke="blue" points="322.22,-1194 322.22,-1425 968.22,-1425 968.22,-1194 322.22,-1194"/>
<text text-anchor="middle" x="645.22" y="-1409.8" font-family="Times,serif" font-size="14.00">Bind mounts</text>
</g>
<g id="clust5" class="cluster">
<title>cluster_docker_network_host</title>
<polygon fill="none" stroke="green" points="529.72,-16 529.72,-455 1982.72,-455 1982.72,-16 529.72,-16"/>
<text text-anchor="middle" x="1256.22" y="-439.8" font-family="Times,serif" font-size="14.00">PHAIDRA docker containers</text>
</g>
<!-- USER -->
<g id="node1" class="node">
<title>USER</title>
<polygon fill="none" stroke="black" points="193.59,-182.54 193.59,-197.46 139.27,-208 62.45,-208 8.13,-197.46 8.13,-182.54 62.45,-172 139.27,-172 193.59,-182.54"/>
<polygon fill="none" stroke="black" points="197.59,-179.25 197.59,-200.75 139.66,-212 62.07,-212 4.13,-200.75 4.13,-179.25 62.07,-168 139.66,-168 197.59,-179.25"/>
<polygon fill="none" stroke="black" points="201.58,-175.95 201.58,-204.05 140.04,-216 61.68,-216 0.14,-204.05 0.14,-175.95 61.68,-164 140.04,-164 201.58,-175.95"/>
<text text-anchor="middle" x="100.86" y="-186.3" font-family="Times,serif" font-size="14.00">PHAIDRA USER</text>
</g>
<!-- WEBSERVER -->
<g id="node26" class="node">
<title>WEBSERVER</title>
<polygon fill="none" stroke="green" points="752.72,-208 537.72,-208 537.72,-204 533.72,-204 533.72,-200 537.72,-200 537.72,-180 533.72,-180 533.72,-176 537.72,-176 537.72,-172 752.72,-172 752.72,-208"/>
<polyline fill="none" stroke="green" points="537.72,-204 541.72,-204 541.72,-200 537.72,-200 "/>
<polyline fill="none" stroke="green" points="537.72,-180 541.72,-180 541.72,-176 537.72,-176 "/>
<text text-anchor="middle" x="645.22" y="-186.3" font-family="Times,serif" font-size="14.00">phaidra&#45;demo&#45;httpd&#45;nginx&#45;1</text>
</g>
<!-- USER&#45;&#45;WEBSERVER -->
<g id="edge35" class="edge">
<title>USER&#45;&#45;WEBSERVER</title>
<path fill="none" stroke="red" d="M201.65,-190C296.96,-190 440.11,-190 537.62,-190"/>
</g>
<!-- HS_FEDORA -->
<g id="node2" class="node">
<title>HS_FEDORA</title>
<polygon fill="none" stroke="turquoise" points="987.72,-713 984.72,-717 963.72,-717 960.72,-713 302.72,-713 302.72,-619 987.72,-619 987.72,-713"/>
<text text-anchor="start" x="315.22" y="-694.8" font-family="Times,serif" font-weight="bold" font-size="14.00">host:</text>
<text text-anchor="start" x="474.22" y="-693.8" font-family="Times,serif" font-size="14.00">$HOME/.local/share/docker/volumes/phaidra&#45;demo&#45;httpd_fedora/_data</text>
<text text-anchor="start" x="315.22" y="-672.8" font-family="Times,serif" font-size="14.00">fedora&#45;container:</text>
<text text-anchor="start" x="474.22" y="-672.8" font-family="Times,serif" font-size="14.00">/usr/local/tomcat/fcrepo&#45;home</text>
<text text-anchor="start" x="315.22" y="-651.8" font-family="Times,serif" font-size="14.00">pixelgecko&#45;container:</text>
<text text-anchor="start" x="474.22" y="-651.8" font-family="Times,serif" font-size="14.00"> /mnt/fedora:ro</text>
<text text-anchor="start" x="315.22" y="-630.8" font-family="Times,serif" font-size="14.00">api&#45;container:</text>
<text text-anchor="start" x="474.22" y="-630.8" font-family="Times,serif" font-size="14.00"> /mnt/fedora:ro</text>
</g>
<!-- C_FEDORA -->
<g id="node14" class="node">
<title>C_FEDORA</title>
<g id="a_node14"><a xlink:href="https://fedora.lyrasis.org/" xlink:title="phaidra&#45;demo&#45;httpd&#45;fedora&#45;1">
<polygon fill="none" stroke="green" points="1612.72,-154 1390.72,-154 1390.72,-150 1386.72,-150 1386.72,-146 1390.72,-146 1390.72,-126 1386.72,-126 1386.72,-122 1390.72,-122 1390.72,-118 1612.72,-118 1612.72,-154"/>
<polyline fill="none" stroke="green" points="1390.72,-150 1394.72,-150 1394.72,-146 1390.72,-146 "/>
<polyline fill="none" stroke="green" points="1390.72,-126 1394.72,-126 1394.72,-122 1390.72,-122 "/>
<text text-anchor="middle" x="1501.72" y="-132.3" font-family="Times,serif" font-size="14.00">phaidra&#45;demo&#45;httpd&#45;fedora&#45;1</text>
</a>
</g>
</g>
<!-- HS_FEDORA&#45;&#45;C_FEDORA -->
<g id="edge1" class="edge">
<title>HS_FEDORA&#45;&#45;C_FEDORA</title>
<path fill="none" stroke="turquoise" d="M987.8,-661.71C1017.84,-649.76 1045.56,-633.01 1068.72,-610 1114.55,-564.45 1053.56,-520.21 1088.72,-466 1153.16,-366.68 1246.34,-421.64 1314.72,-325 1357.33,-264.79 1297.52,-214.08 1350.72,-163 1361.89,-152.28 1375.78,-145.05 1390.58,-140.27"/>
</g>
<!-- C_API -->
<g id="node15" class="node">
<title>C_API</title>
<g id="a_node15"><a xlink:href="https://github.com/phaidra/phaidra-api" xlink:title="phaidra&#45;demo&#45;httpd&#45;api&#45;1">
<polygon fill="none" stroke="green" points="1300.72,-316 1102.72,-316 1102.72,-312 1098.72,-312 1098.72,-308 1102.72,-308 1102.72,-288 1098.72,-288 1098.72,-284 1102.72,-284 1102.72,-280 1300.72,-280 1300.72,-316"/>
<polyline fill="none" stroke="green" points="1102.72,-312 1106.72,-312 1106.72,-308 1102.72,-308 "/>
<polyline fill="none" stroke="green" points="1102.72,-288 1106.72,-288 1106.72,-284 1102.72,-284 "/>
<text text-anchor="middle" x="1201.72" y="-294.3" font-family="Times,serif" font-size="14.00">phaidra&#45;demo&#45;httpd&#45;api&#45;1</text>
</a>
</g>
</g>
<!-- HS_FEDORA&#45;&#45;C_API -->
<g id="edge3" class="edge">
<title>HS_FEDORA&#45;&#45;C_API</title>
<path fill="none" stroke="turquoise" d="M987.92,-662.53C1018.03,-650.45 1045.74,-633.45 1068.72,-610 1096.59,-581.58 1073.07,-468.6 1088.72,-432 1109.22,-384.05 1152.74,-340.04 1179.08,-316.33"/>
</g>
<!-- C_PIXELGECKO -->
<g id="node22" class="node">
<title>C_PIXELGECKO</title>
<polygon fill="none" stroke="green" points="1957.72,-424 1705.72,-424 1705.72,-420 1701.72,-420 1701.72,-416 1705.72,-416 1705.72,-396 1701.72,-396 1701.72,-392 1705.72,-392 1705.72,-388 1957.72,-388 1957.72,-424"/>
<polyline fill="none" stroke="green" points="1705.72,-420 1709.72,-420 1709.72,-416 1705.72,-416 "/>
<polyline fill="none" stroke="green" points="1705.72,-396 1709.72,-396 1709.72,-392 1705.72,-392 "/>
<text text-anchor="middle" x="1831.72" y="-402.3" font-family="Times,serif" font-size="14.00">phaidra&#45;demo&#45;httpd&#45;pixelgecko&#45;1</text>
</g>
<!-- HS_FEDORA&#45;&#45;C_PIXELGECKO -->
<g id="edge11" class="edge">
<title>HS_FEDORA&#45;&#45;C_PIXELGECKO</title>
<path fill="none" stroke="turquoise" d="M987.84,-624.59C1015.28,-620.09 1042.51,-615.22 1068.72,-610 1335.66,-556.81 1647.41,-463.25 1773.49,-424.06"/>
</g>
<!-- HS_API_LOGS -->
<g id="node3" class="node">
<title>HS_API_LOGS</title>
<polygon fill="none" stroke="turquoise" points="966.72,-601 963.72,-605 942.72,-605 939.72,-601 323.72,-601 323.72,-549 966.72,-549 966.72,-601"/>
<text text-anchor="start" x="336.22" y="-582.8" font-family="Times,serif" font-weight="bold" font-size="14.00">host:</text>
<text text-anchor="start" x="441.22" y="-581.8" font-family="Times,serif" font-size="14.00">$HOME/.local/share/docker/volumes/phaidra&#45;demo&#45;httpd_api_logs/_data</text>
<text text-anchor="start" x="336.22" y="-560.8" font-family="Times,serif" font-size="14.00">api&#45;container:</text>
<text text-anchor="start" x="441.22" y="-560.8" font-family="Times,serif" font-size="14.00">/var/log/phaidra</text>
</g>
<!-- HS_API_LOGS&#45;&#45;C_API -->
<g id="edge2" class="edge">
<title>HS_API_LOGS&#45;&#45;C_API</title>
<path fill="none" stroke="turquoise" d="M768.58,-601.03C862.37,-613.33 988.88,-612.2 1068.72,-540 1104.93,-507.26 1067.94,-476.17 1088.72,-432 1111.05,-384.54 1154.35,-340.03 1180.08,-316.16"/>
</g>
<!-- HS_MARIADB_PHAIDRA -->
<g id="node4" class="node">
<title>HS_MARIADB_PHAIDRA</title>
<polygon fill="none" stroke="turquoise" points="1046.72,-923 1043.72,-927 1022.72,-927 1019.72,-923 243.72,-923 243.72,-871 1046.72,-871 1046.72,-923"/>
<text text-anchor="start" x="256.22" y="-904.8" font-family="Times,serif" font-weight="bold" font-size="14.00">host:</text>
<text text-anchor="start" x="458.22" y="-903.8" font-family="Times,serif" font-size="14.00">$HOME/.local/share/docker/volumes/phaidra&#45;demo&#45;httpd_mariadb_phaidra/_data</text>
<text text-anchor="start" x="256.22" y="-882.8" font-family="Times,serif" font-size="14.00">mariadb&#45;phaidra&#45;container:</text>
<text text-anchor="start" x="458.22" y="-882.8" font-family="Times,serif" font-size="14.00">/var/lib/mysql</text>
</g>
<!-- C_MARIADB_PHAIDRA -->
<g id="node16" class="node">
<title>C_MARIADB_PHAIDRA</title>
<g id="a_node16"><a xlink:href="https://mariadb.org/" xlink:title="phaidra&#45;demo&#45;httpd&#45;mariadb&#45;phaidra&#45;1">
<polygon fill="none" stroke="green" points="1649.22,-316 1354.22,-316 1354.22,-312 1350.22,-312 1350.22,-308 1354.22,-308 1354.22,-288 1350.22,-288 1350.22,-284 1354.22,-284 1354.22,-280 1649.22,-280 1649.22,-316"/>
<polyline fill="none" stroke="green" points="1354.22,-312 1358.22,-312 1358.22,-308 1354.22,-308 "/>
<polyline fill="none" stroke="green" points="1354.22,-288 1358.22,-288 1358.22,-284 1354.22,-284 "/>
<text text-anchor="middle" x="1501.72" y="-294.3" font-family="Times,serif" font-size="14.00">phaidra&#45;demo&#45;httpd&#45;mariadb&#45;phaidra&#45;1</text>
</a>
</g>
</g>
<!-- HS_MARIADB_PHAIDRA&#45;&#45;C_MARIADB_PHAIDRA -->
<g id="edge5" class="edge">
<title>HS_MARIADB_PHAIDRA&#45;&#45;C_MARIADB_PHAIDRA</title>
<path fill="none" stroke="turquoise" d="M1046.99,-876.63C1055.95,-872.37 1063.32,-867.52 1068.72,-862 1119.19,-810.46 1041.85,-592.83 1088.72,-538 1155.57,-459.81 1241.99,-560.76 1314.72,-488 1367.17,-435.53 1297.24,-376.42 1350.72,-325 1354.16,-321.7 1357.85,-318.73 1361.74,-316.06"/>
</g>
<!-- HS_MONGODB_PHAIDRA -->
<g id="node5" class="node">
<title>HS_MONGODB_PHAIDRA</title>
<polygon fill="none" stroke="turquoise" points="1052.72,-853 1049.72,-857 1028.72,-857 1025.72,-853 237.72,-853 237.72,-801 1052.72,-801 1052.72,-853"/>
<text text-anchor="start" x="250.22" y="-834.8" font-family="Times,serif" font-weight="bold" font-size="14.00">host:</text>
<text text-anchor="start" x="458.22" y="-833.8" font-family="Times,serif" font-size="14.00">$HOME/.local/share/docker/volumes/phaidra&#45;demo&#45;httpd_mongodb_phaidra/_data</text>
<text text-anchor="start" x="250.22" y="-812.8" font-family="Times,serif" font-size="14.00">phaidra&#45;mongodb&#45;container:</text>
<text text-anchor="start" x="458.22" y="-812.8" font-family="Times,serif" font-size="14.00">/data/db</text>
</g>
<!-- C_MONGODB_PHAIDRA -->
<g id="node17" class="node">
<title>C_MONGODB_PHAIDRA</title>
<g id="a_node17"><a xlink:href="https://www.mongodb.com/" xlink:title="phaidra&#45;demo&#45;httpd&#45;mongodb&#45;phaidra&#45;1">
<polygon fill="none" stroke="green" points="1652.72,-262 1350.72,-262 1350.72,-258 1346.72,-258 1346.72,-254 1350.72,-254 1350.72,-234 1346.72,-234 1346.72,-230 1350.72,-230 1350.72,-226 1652.72,-226 1652.72,-262"/>
<polyline fill="none" stroke="green" points="1350.72,-258 1354.72,-258 1354.72,-254 1350.72,-254 "/>
<polyline fill="none" stroke="green" points="1350.72,-234 1354.72,-234 1354.72,-230 1350.72,-230 "/>
<text text-anchor="middle" x="1501.72" y="-240.3" font-family="Times,serif" font-size="14.00">phaidra&#45;demo&#45;httpd&#45;mongodb&#45;phaidra&#45;1</text>
</a>
</g>
</g>
<!-- HS_MONGODB_PHAIDRA&#45;&#45;C_MONGODB_PHAIDRA -->
<g id="edge6" class="edge">
<title>HS_MONGODB_PHAIDRA&#45;&#45;C_MONGODB_PHAIDRA</title>
<path fill="none" stroke="turquoise" d="M1052.76,-803.59C1059.14,-800.1 1064.52,-796.25 1068.72,-792 1111.98,-748.29 1049.98,-563.76 1088.72,-516 1154.57,-434.83 1243.93,-527.89 1314.72,-451 1369.98,-390.98 1292.48,-328.13 1350.72,-271 1354.03,-267.76 1357.58,-264.83 1361.34,-262.2"/>
</g>
<!-- HS_OPENLDAP -->
<g id="node6" class="node">
<title>HS_OPENLDAP</title>
<polygon fill="none" stroke="turquoise" points="991.72,-993 988.72,-997 967.72,-997 964.72,-993 298.72,-993 298.72,-941 991.72,-941 991.72,-993"/>
<text text-anchor="start" x="311.22" y="-974.8" font-family="Times,serif" font-weight="bold" font-size="14.00">host:</text>
<text text-anchor="start" x="459.22" y="-973.8" font-family="Times,serif" font-size="14.00">$HOME/.local/share/docker/volumes/phaidra&#45;demo&#45;httpd_openldap/_data</text>
<text text-anchor="start" x="311.22" y="-952.8" font-family="Times,serif" font-size="14.00">openldap&#45;container:</text>
<text text-anchor="start" x="459.22" y="-952.8" font-family="Times,serif" font-size="14.00">/bitnami/openldap</text>
</g>
<!-- C_OPENLDAP -->
<g id="node19" class="node">
<title>C_OPENLDAP</title>
<g id="a_node19"><a xlink:href="https://www.openldap.org/" xlink:title="phaidra&#45;demo&#45;httpd&#45;openldap&#45;1">
<polygon fill="none" stroke="green" points="1622.72,-424 1380.72,-424 1380.72,-420 1376.72,-420 1376.72,-416 1380.72,-416 1380.72,-396 1376.72,-396 1376.72,-392 1380.72,-392 1380.72,-388 1622.72,-388 1622.72,-424"/>
<polyline fill="none" stroke="green" points="1380.72,-420 1384.72,-420 1384.72,-416 1380.72,-416 "/>
<polyline fill="none" stroke="green" points="1380.72,-396 1384.72,-396 1384.72,-392 1380.72,-392 "/>
<text text-anchor="middle" x="1501.72" y="-402.3" font-family="Times,serif" font-size="14.00">phaidra&#45;demo&#45;httpd&#45;openldap&#45;1</text>
</a>
</g>
</g>
<!-- HS_OPENLDAP&#45;&#45;C_OPENLDAP -->
<g id="edge7" class="edge">
<title>HS_OPENLDAP&#45;&#45;C_OPENLDAP</title>
<path fill="none" stroke="turquoise" d="M754.78,-993.06C851.23,-1009.09 988.95,-1013.29 1068.72,-932 1117.54,-882.25 1048.11,-675.64 1088.72,-619 1152.02,-530.73 1218.46,-576.32 1314.72,-526 1375.17,-494.4 1441.21,-448.93 1476.03,-424.02"/>
</g>
<!-- HS_SOLR -->
<g id="node7" class="node">
<title>HS_SOLR</title>
<polygon fill="none" stroke="turquoise" points="953.72,-783 950.72,-787 929.72,-787 926.72,-783 336.72,-783 336.72,-731 953.72,-731 953.72,-783"/>
<text text-anchor="start" x="349.22" y="-764.8" font-family="Times,serif" font-weight="bold" font-size="14.00">host:</text>
<text text-anchor="start" x="459.22" y="-763.8" font-family="Times,serif" font-size="14.00">$HOME/.local/share/docker/volumes/phaidra&#45;demo&#45;httpd_solr/_data</text>
<text text-anchor="start" x="349.22" y="-742.8" font-family="Times,serif" font-size="14.00">solr&#45;container:</text>
<text text-anchor="start" x="459.22" y="-742.8" font-family="Times,serif" font-size="14.00">/var/solr</text>
</g>
<!-- C_SOLR -->
<g id="node20" class="node">
<title>C_SOLR</title>
<g id="a_node20"><a xlink:href="https://solr.apache.org/" xlink:title="phaidra&#45;demo&#45;httpd&#45;solr&#45;1">
<polygon fill="none" stroke="green" points="1603.22,-208 1400.22,-208 1400.22,-204 1396.22,-204 1396.22,-200 1400.22,-200 1400.22,-180 1396.22,-180 1396.22,-176 1400.22,-176 1400.22,-172 1603.22,-172 1603.22,-208"/>
<polyline fill="none" stroke="green" points="1400.22,-204 1404.22,-204 1404.22,-200 1400.22,-200 "/>
<polyline fill="none" stroke="green" points="1400.22,-180 1404.22,-180 1404.22,-176 1400.22,-176 "/>
<text text-anchor="middle" x="1501.72" y="-186.3" font-family="Times,serif" font-size="14.00">phaidra&#45;demo&#45;httpd&#45;solr&#45;1</text>
</a>
</g>
</g>
<!-- HS_SOLR&#45;&#45;C_SOLR -->
<g id="edge9" class="edge">
<title>HS_SOLR&#45;&#45;C_SOLR</title>
<path fill="none" stroke="turquoise" d="M757.14,-783.07C853.15,-798.42 988.79,-801.58 1068.72,-722 1104.92,-685.96 1058.47,-534.16 1088.72,-493 1153.04,-405.48 1245.81,-483.95 1314.72,-400 1367.31,-335.93 1291.64,-275.14 1350.72,-217 1364.11,-203.82 1381.61,-195.88 1399.92,-191.28"/>
</g>
<!-- HS_PIXELGECKO -->
<g id="node8" class="node">
<title>HS_PIXELGECKO</title>
<polygon fill="none" stroke="turquoise" points="1009.22,-1084.5 1006.22,-1088.5 985.22,-1088.5 982.22,-1084.5 281.22,-1084.5 281.22,-1011.5 1009.22,-1011.5 1009.22,-1084.5"/>
<text text-anchor="start" x="293.22" y="-1065.8" font-family="Times,serif" font-weight="bold" font-size="14.00">host:</text>
<text text-anchor="start" x="465.22" y="-1064.8" font-family="Times,serif" font-size="14.00">$HOME/.local/share/docker/volumes/phaidra&#45;demo&#45;httpd_pixelgecko/_data</text>
<text text-anchor="start" x="293.22" y="-1043.8" font-family="Times,serif" font-size="14.00">pixelgecko&#45;container:</text>
<text text-anchor="start" x="465.22" y="-1043.8" font-family="Times,serif" font-size="14.00">/mnt/converted_images</text>
<text text-anchor="start" x="293.22" y="-1022.8" font-family="Times,serif" font-size="14.00">imageserver&#45;container:</text>
<text text-anchor="start" x="465.22" y="-1022.8" font-family="Times,serif" font-size="14.00">/mnt/converted_images:ro</text>
</g>
<!-- C_IMAGESERVER -->
<g id="node21" class="node">
<title>C_IMAGESERVER</title>
<g id="a_node21"><a xlink:href="https://github.com/ruven/iipsrv" xlink:title="phaidra&#45;demo&#45;httpd&#45;imageserver&#45;1">
<polygon fill="none" stroke="green" points="1634.72,-370 1368.72,-370 1368.72,-366 1364.72,-366 1364.72,-362 1368.72,-362 1368.72,-342 1364.72,-342 1364.72,-338 1368.72,-338 1368.72,-334 1634.72,-334 1634.72,-370"/>
<polyline fill="none" stroke="green" points="1368.72,-366 1372.72,-366 1372.72,-362 1368.72,-362 "/>
<polyline fill="none" stroke="green" points="1368.72,-342 1372.72,-342 1372.72,-338 1368.72,-338 "/>
<text text-anchor="middle" x="1501.72" y="-348.3" font-family="Times,serif" font-size="14.00">phaidra&#45;demo&#45;httpd&#45;imageserver&#45;1</text>
</a>
</g>
</g>
<!-- HS_PIXELGECKO&#45;&#45;C_IMAGESERVER -->
<g id="edge10" class="edge">
<title>HS_PIXELGECKO&#45;&#45;C_IMAGESERVER</title>
<path fill="none" stroke="turquoise" d="M1009.47,-1045.35C1031.38,-1034.43 1051.49,-1020.23 1068.72,-1002 1097.99,-971.03 1064.61,-654.14 1088.72,-619 1150.97,-528.28 1243.68,-602.01 1314.72,-518 1355.93,-469.27 1303.93,-422.39 1350.72,-379 1356.15,-373.96 1362.19,-369.7 1368.64,-366.11"/>
</g>
<!-- HS_PIXELGECKO&#45;&#45;C_PIXELGECKO -->
<g id="edge12" class="edge">
<title>HS_PIXELGECKO&#45;&#45;C_PIXELGECKO</title>
<path fill="none" stroke="turquoise" d="M1009.4,-1021.97C1029.76,-1016.35 1049.67,-1009.75 1068.72,-1002 1418.4,-859.85 1741.41,-507.92 1815.06,-424.12"/>
</g>
<!-- HS_DBGATE -->
<g id="node9" class="node">
<title>HS_DBGATE</title>
<polygon fill="none" stroke="turquoise" points="976.22,-531 973.22,-535 952.22,-535 949.22,-531 314.22,-531 314.22,-479 976.22,-479 976.22,-531"/>
<text text-anchor="start" x="326.22" y="-512.8" font-family="Times,serif" font-weight="bold" font-size="14.00">host:</text>
<text text-anchor="start" x="459.22" y="-511.8" font-family="Times,serif" font-size="14.00">$HOME/.local/share/docker/volumes/phaidra&#45;demo&#45;httpd_dbgate/_data</text>
<text text-anchor="start" x="326.22" y="-490.8" font-family="Times,serif" font-size="14.00">dbgate&#45;container:</text>
<text text-anchor="start" x="459.22" y="-490.8" font-family="Times,serif" font-size="14.00">/root/.dbgate</text>
</g>
<!-- C_DBGATE -->
<g id="node23" class="node">
<title>C_DBGATE</title>
<polygon fill="none" stroke="green" points="1314.72,-262 1088.72,-262 1088.72,-258 1084.72,-258 1084.72,-254 1088.72,-254 1088.72,-234 1084.72,-234 1084.72,-230 1088.72,-230 1088.72,-226 1314.72,-226 1314.72,-262"/>
<polyline fill="none" stroke="green" points="1088.72,-258 1092.72,-258 1092.72,-254 1088.72,-254 "/>
<polyline fill="none" stroke="green" points="1088.72,-234 1092.72,-234 1092.72,-230 1088.72,-230 "/>
<text text-anchor="middle" x="1201.72" y="-240.3" font-family="Times,serif" font-size="14.00">phaidra&#45;demo&#45;httpd&#45;dbgate&#45;1</text>
</g>
<!-- HS_DBGATE&#45;&#45;C_DBGATE -->
<g id="edge13" class="edge">
<title>HS_DBGATE&#45;&#45;C_DBGATE</title>
<path fill="none" stroke="turquoise" d="M791.23,-531C883.25,-538.57 997.92,-529.98 1068.72,-459 1098.39,-429.26 1061.02,-302.58 1088.72,-271 1091.62,-267.69 1094.85,-264.75 1098.33,-262.14"/>
</g>
<!-- HS_MARIADB_FEDORA -->
<g id="node10" class="node">
<title>HS_MARIADB_FEDORA</title>
<polygon fill="none" stroke="turquoise" points="1037.72,-1155 1034.72,-1159 1013.72,-1159 1010.72,-1155 252.72,-1155 252.72,-1103 1037.72,-1103 1037.72,-1155"/>
<text text-anchor="start" x="265.22" y="-1136.8" font-family="Times,serif" font-weight="bold" font-size="14.00">host:</text>
<text text-anchor="start" x="458.22" y="-1135.8" font-family="Times,serif" font-size="14.00">$HOME/.local/share/docker/volumes/phaidra&#45;demo&#45;httpd_mariadb_fedora/_data</text>
<text text-anchor="start" x="265.22" y="-1114.8" font-family="Times,serif" font-size="14.00">mariadb&#45;fedora&#45;container:</text>
<text text-anchor="start" x="458.22" y="-1114.8" font-family="Times,serif" font-size="14.00">/var/lib/mysql</text>
</g>
<!-- C_MARIADB_FEDORA -->
<g id="node25" class="node">
<title>C_MARIADB_FEDORA</title>
<g id="a_node25"><a xlink:href="https://mariadb.org/" xlink:title="phaidra&#45;demo&#45;httpd&#45;mariadb&#45;fedora&#45;1">
<polygon fill="none" stroke="green" points="1974.72,-154 1688.72,-154 1688.72,-150 1684.72,-150 1684.72,-146 1688.72,-146 1688.72,-126 1684.72,-126 1684.72,-122 1688.72,-122 1688.72,-118 1974.72,-118 1974.72,-154"/>
<polyline fill="none" stroke="green" points="1688.72,-150 1692.72,-150 1692.72,-146 1688.72,-146 "/>
<polyline fill="none" stroke="green" points="1688.72,-126 1692.72,-126 1692.72,-122 1688.72,-122 "/>
<text text-anchor="middle" x="1831.72" y="-132.3" font-family="Times,serif" font-size="14.00">phaidra&#45;demo&#45;httpd&#45;mariadb&#45;fedora&#45;1</text>
</a>
</g>
</g>
<!-- HS_MARIADB_FEDORA&#45;&#45;C_MARIADB_FEDORA -->
<g id="edge14" class="edge">
<title>HS_MARIADB_FEDORA&#45;&#45;C_MARIADB_FEDORA</title>
<path fill="none" stroke="turquoise" d="M1037.78,-1107.71C1048.35,-1103.59 1058.69,-1099.03 1068.72,-1094 1419.13,-918.24 1421.21,-749.35 1652.72,-433 1690.44,-381.46 1788.19,-210.84 1820.32,-154.35"/>
</g>
<!-- BIND_MARIADB_PHAIDRA_INIT -->
<g id="node11" class="node">
<title>BIND_MARIADB_PHAIDRA_INIT</title>
<polygon fill="none" stroke="blue" points="960.22,-1324 957.22,-1328 936.22,-1328 933.22,-1324 330.22,-1324 330.22,-1272 960.22,-1272 960.22,-1324"/>
<text text-anchor="start" x="342.22" y="-1305.8" font-family="Times,serif" font-weight="bold" font-size="14.00">host:</text>
<text text-anchor="start" x="544.22" y="-1304.8" font-family="Times,serif" font-size="14.00">$REPO/container_components/mariadb/phaidradb.sql.gz</text>
<text text-anchor="start" x="342.22" y="-1283.8" font-family="Times,serif" font-size="14.00">mariadb&#45;phaidra&#45;container:</text>
<text text-anchor="start" x="544.22" y="-1283.8" font-family="Times,serif" font-size="14.00">/docker&#45;entrypoint&#45;initdb.d/phaidradb.sql.gz:ro</text>
</g>
<!-- BIND_MARIADB_PHAIDRA_INIT&#45;&#45;C_MARIADB_PHAIDRA -->
<g id="edge4" class="edge">
<title>BIND_MARIADB_PHAIDRA_INIT&#45;&#45;C_MARIADB_PHAIDRA</title>
<path fill="none" stroke="blue" d="M757.11,-1324.04C853.1,-1339.37 988.72,-1342.52 1068.72,-1263 1104.32,-1227.61 1076.34,-1086.65 1088.72,-1038 1150.9,-793.8 1240.93,-758.95 1314.72,-518 1340.27,-434.57 1288.83,-386.51 1350.72,-325 1354.01,-321.74 1357.54,-318.79 1361.28,-316.14"/>
</g>
<!-- BIND_OPENLDAP_INIT -->
<g id="node12" class="node">
<title>BIND_OPENLDAP_INIT</title>
<polygon fill="none" stroke="blue" points="874.22,-1394 871.22,-1398 850.22,-1398 847.22,-1394 416.22,-1394 416.22,-1342 874.22,-1342 874.22,-1394"/>
<text text-anchor="start" x="428.22" y="-1375.8" font-family="Times,serif" font-weight="bold" font-size="14.00">host:</text>
<text text-anchor="start" x="576.22" y="-1374.8" font-family="Times,serif" font-size="14.00">$REPO/container_components/openldap</text>
<text text-anchor="start" x="428.22" y="-1353.8" font-family="Times,serif" font-size="14.00">openldap&#45;container:</text>
<text text-anchor="start" x="576.22" y="-1353.8" font-family="Times,serif" font-size="14.00">/ldifs:ro</text>
</g>
<!-- BIND_OPENLDAP_INIT&#45;&#45;C_OPENLDAP -->
<g id="edge8" class="edge">
<title>BIND_OPENLDAP_INIT&#45;&#45;C_OPENLDAP</title>
<path fill="none" stroke="blue" d="M874.48,-1391.06C942.02,-1387.34 1012.79,-1371.98 1068.72,-1333 1405.21,-1098.48 1486.19,-532.41 1498.79,-424.09"/>
</g>
<!-- BIND_APACHE_SERVER_CONFIG -->
<g id="node13" class="node">
<title>BIND_APACHE_SERVER_CONFIG</title>
<polygon fill="none" stroke="blue" points="921.22,-1254 918.22,-1258 897.22,-1258 894.22,-1254 369.22,-1254 369.22,-1202 921.22,-1202 921.22,-1254"/>
<text text-anchor="start" x="381.22" y="-1235.8" font-family="Times,serif" font-weight="bold" font-size="14.00">host:</text>
<text text-anchor="start" x="503.22" y="-1234.8" font-family="Times,serif" font-size="14.00">$REPO/webserver_configs/httpd&#45;docker/demo/httpd.conf</text>
<text text-anchor="start" x="381.22" y="-1213.8" font-family="Times,serif" font-size="14.00">httpd&#45;container:</text>
<text text-anchor="start" x="503.22" y="-1213.8" font-family="Times,serif" font-size="14.00">/usr/local/apache2/conf/httpd.conf</text>
</g>
<!-- C_FEDORA&#45;&#45;C_MARIADB_FEDORA -->
<g id="edge16" class="edge">
<title>C_FEDORA&#45;&#45;C_MARIADB_FEDORA</title>
<path fill="none" stroke="orange" d="M1612.85,-136C1637.14,-136 1663.2,-136 1688.55,-136"/>
</g>
<!-- C_API&#45;&#45;C_FEDORA -->
<g id="edge17" class="edge">
<title>C_API&#45;&#45;C_FEDORA</title>
<path fill="none" stroke="orange" d="M1300.92,-281.06C1305.87,-278.19 1310.52,-274.86 1314.72,-271 1351.99,-236.78 1312.47,-196.12 1350.72,-163 1362.12,-153.13 1375.89,-146.31 1390.39,-141.68"/>
</g>
<!-- C_API&#45;&#45;C_MARIADB_PHAIDRA -->
<g id="edge18" class="edge">
<title>C_API&#45;&#45;C_MARIADB_PHAIDRA</title>
<path fill="none" stroke="orange" d="M1301.12,-298C1318.16,-298 1336.2,-298 1354.19,-298"/>
</g>
<!-- C_API&#45;&#45;C_MONGODB_PHAIDRA -->
<g id="edge19" class="edge">
<title>C_API&#45;&#45;C_MONGODB_PHAIDRA</title>
<path fill="none" stroke="orange" d="M1301.03,-280.03C1317.62,-277.01 1334.66,-273.91 1350.72,-271 1366.73,-268.1 1383.71,-265.03 1400.26,-262.05"/>
</g>
<!-- C_UI -->
<g id="node18" class="node">
<title>C_UI</title>
<g id="a_node18"><a xlink:href="https://github.com/phaidra/phaidra-ui" xlink:title="phaidra&#45;demo&#45;httpd&#45;ui&#45;1">
<polygon fill="none" stroke="green" points="1596.72,-80 1406.72,-80 1406.72,-76 1402.72,-76 1402.72,-72 1406.72,-72 1406.72,-52 1402.72,-52 1402.72,-48 1406.72,-48 1406.72,-44 1596.72,-44 1596.72,-80"/>
<polyline fill="none" stroke="green" points="1406.72,-76 1410.72,-76 1410.72,-72 1406.72,-72 "/>
<polyline fill="none" stroke="green" points="1406.72,-52 1410.72,-52 1410.72,-48 1406.72,-48 "/>
<text text-anchor="middle" x="1501.72" y="-58.3" font-family="Times,serif" font-size="14.00">phaidra&#45;demo&#45;httpd&#45;ui&#45;1</text>
</a>
</g>
</g>
<!-- C_API&#45;&#45;C_UI -->
<g id="edge20" class="edge">
<title>C_API&#45;&#45;C_UI</title>
<path fill="none" stroke="orange" d="M1300.89,-281.88C1305.92,-278.81 1310.59,-275.21 1314.72,-271 1366.41,-218.38 1300.83,-163.32 1350.72,-109 1365.49,-92.92 1385.68,-82.3 1406.45,-75.3"/>
</g>
<!-- C_API&#45;&#45;C_OPENLDAP -->
<g id="edge21" class="edge">
<title>C_API&#45;&#45;C_OPENLDAP</title>
<path fill="none" stroke="orange" d="M1229.3,-316.01C1258.01,-334.61 1305.7,-363.1 1350.72,-379 1360.33,-382.39 1370.44,-385.37 1380.68,-387.99"/>
</g>
<!-- C_API&#45;&#45;C_SOLR -->
<g id="edge22" class="edge">
<title>C_API&#45;&#45;C_SOLR</title>
<path fill="none" stroke="orange" d="M1299.24,-279.93C1304.67,-277.34 1309.88,-274.38 1314.72,-271 1338.37,-254.48 1326.6,-232.82 1350.72,-217 1365.44,-207.35 1382.63,-200.89 1400.02,-196.62"/>
</g>
<!-- C_API&#45;&#45;C_IMAGESERVER -->
<g id="edge23" class="edge">
<title>C_API&#45;&#45;C_IMAGESERVER</title>
<path fill="none" stroke="orange" d="M1301.03,-315.97C1317.62,-318.99 1334.66,-322.09 1350.72,-325 1366.73,-327.9 1383.71,-330.97 1400.26,-333.95"/>
</g>
<!-- C_MONGODB_PHAIDRA&#45;&#45;C_PIXELGECKO -->
<g id="edge24" class="edge">
<title>C_MONGODB_PHAIDRA&#45;&#45;C_PIXELGECKO</title>
<path fill="none" stroke="orange" d="M1628.47,-262.03C1636.81,-264.62 1644.97,-267.6 1652.72,-271 1718.78,-299.99 1782.81,-358.12 1812.89,-387.74"/>
</g>
<!-- C_LAM -->
<g id="node24" class="node">
<title>C_LAM</title>
<polygon fill="none" stroke="green" points="1933.22,-80 1730.22,-80 1730.22,-76 1726.22,-76 1726.22,-72 1730.22,-72 1730.22,-52 1726.22,-52 1726.22,-48 1730.22,-48 1730.22,-44 1933.22,-44 1933.22,-80"/>
<polyline fill="none" stroke="green" points="1730.22,-76 1734.22,-76 1734.22,-72 1730.22,-72 "/>
<polyline fill="none" stroke="green" points="1730.22,-52 1734.22,-52 1734.22,-48 1730.22,-48 "/>
<text text-anchor="middle" x="1831.72" y="-58.3" font-family="Times,serif" font-size="14.00">phaidra&#45;demo&#45;httpd&#45;lam&#45;1</text>
</g>
<!-- C_OPENLDAP&#45;&#45;C_LAM -->
<g id="edge25" class="edge">
<title>C_OPENLDAP&#45;&#45;C_LAM</title>
<path fill="none" stroke="orange" d="M1622.96,-399.07C1634.08,-394.31 1644.31,-387.8 1652.72,-379 1736.35,-291.47 1611.49,-202.23 1688.72,-109 1699.57,-95.9 1714.17,-86.43 1729.88,-79.59"/>
</g>
<!-- C_DBGATE&#45;&#45;C_MARIADB_PHAIDRA -->
<g id="edge26" class="edge">
<title>C_DBGATE&#45;&#45;C_MARIADB_PHAIDRA</title>
<path fill="none" stroke="orange" d="M1301.43,-262.04C1317.89,-265.04 1334.79,-268.11 1350.72,-271 1366.73,-273.9 1383.71,-276.97 1400.26,-279.95"/>
</g>
<!-- C_DBGATE&#45;&#45;C_MONGODB_PHAIDRA -->
<g id="edge27" class="edge">
<title>C_DBGATE&#45;&#45;C_MONGODB_PHAIDRA</title>
<path fill="none" stroke="orange" d="M1314.96,-244C1326.59,-244 1338.54,-244 1350.5,-244"/>
</g>
<!-- C_DBGATE&#45;&#45;C_MARIADB_FEDORA -->
<g id="edge28" class="edge">
<title>C_DBGATE&#45;&#45;C_MARIADB_FEDORA</title>
<path fill="none" stroke="orange" d="M1215.23,-225.98C1237.97,-195.02 1289.43,-132.75 1350.72,-109 1413.3,-84.75 1585.8,-103.95 1652.72,-109 1677.81,-110.89 1704.72,-114.26 1729.83,-118"/>
</g>
<!-- WEBSERVER&#45;&#45;BIND_APACHE_SERVER_CONFIG -->
<g id="edge15" class="edge">
<title>WEBSERVER&#45;&#45;BIND_APACHE_SERVER_CONFIG</title>
<path fill="none" stroke="blue" d="M569.15,-208.12C457.07,-239.85 255.65,-317.71 207.72,-476 202.05,-494.74 202.05,-1162.26 207.72,-1181 218.83,-1217.69 288.49,-1232.84 369.07,-1237.69"/>
</g>
<!-- WEBSERVER&#45;&#45;C_FEDORA -->
<g id="edge29" class="edge">
<title>WEBSERVER&#45;&#45;C_FEDORA</title>
<path fill="none" stroke="magenta" d="M753.15,-183.24C916.27,-172.93 1225.66,-153.38 1390.64,-142.96"/>
</g>
<!-- WEBSERVER&#45;&#45;C_API -->
<g id="edge30" class="edge">
<title>WEBSERVER&#45;&#45;C_API</title>
<path fill="none" stroke="magenta" d="M738.72,-208.02C841.17,-227.97 1005.4,-259.96 1107.96,-279.93"/>
</g>
<!-- WEBSERVER&#45;&#45;C_UI -->
<g id="edge31" class="edge">
<title>WEBSERVER&#45;&#45;C_UI</title>
<path fill="none" stroke="magenta" d="M753.15,-173.98C921.64,-148.74 1246.2,-100.13 1406.47,-76.12"/>
</g>
<!-- WEBSERVER&#45;&#45;C_SOLR -->
<g id="edge32" class="edge">
<title>WEBSERVER&#45;&#45;C_SOLR</title>
<path fill="none" stroke="magenta" d="M753.15,-190C919.4,-190 1237.6,-190 1399.99,-190"/>
</g>
<!-- WEBSERVER&#45;&#45;C_DBGATE -->
<g id="edge33" class="edge">
<title>WEBSERVER&#45;&#45;C_DBGATE</title>
<path fill="none" stroke="magenta" d="M752.81,-200.38C849.07,-209.75 990.26,-223.5 1088.29,-233.05"/>
</g>
<!-- WEBSERVER&#45;&#45;C_LAM -->
<g id="edge34" class="edge">
<title>WEBSERVER&#45;&#45;C_LAM</title>
<path fill="none" stroke="magenta" d="M721.64,-171.96C809.6,-151.08 959.46,-115.97 1088.72,-88 1204.84,-62.88 1232.51,-46.84 1350.72,-35 1484.28,-21.63 1518.88,-24.91 1652.72,-35 1677.81,-36.89 1704.72,-40.26 1729.83,-44"/>
</g>
</g>
</svg>
