<?xml version="1.0" encoding="UTF-8" standalone="no"?>
<!DOCTYPE svg PUBLIC "-//W3C//DTD SVG 1.1//EN"
 "http://www.w3.org/Graphics/SVG/1.1/DTD/svg11.dtd">
<!-- Generated by graphviz version 2.43.0 (0)
 -->
<!-- Title: G Pages: 1 -->
<svg width="1762pt" height="2245pt"
 viewBox="0.00 0.00 1761.72 2245.00" xmlns="http://www.w3.org/2000/svg" xmlns:xlink="http://www.w3.org/1999/xlink">
<g id="graph0" class="graph" transform="scale(1 1) rotate(0) translate(4 2241)">
<title>G</title>
<polygon fill="white" stroke="transparent" points="-4,4 -4,-2241 1757.72,-2241 1757.72,4 -4,4"/>
<g id="clust1" class="cluster">
<title>cluster_host</title>
<polygon fill="none" stroke="red" points="221.72,-8 221.72,-2229 1745.72,-2229 1745.72,-8 221.72,-8"/>
<text text-anchor="middle" x="983.72" y="-2213.8" font-family="Times,serif" font-size="14.00">PHAIDRA server firewall</text>
</g>
<g id="clust2" class="cluster">
<title>cluster_host_storage</title>
<polygon fill="none" stroke="blue" points="427.72,-483 427.72,-2198 1211.72,-2198 1211.72,-483 427.72,-483"/>
<text text-anchor="middle" x="819.72" y="-2182.8" font-family="Times,serif" font-size="14.00">PHAIDRA server filesystem</text>
</g>
<g id="clust3" class="cluster">
<title>cluster_named_volumes</title>
<polygon fill="none" stroke="turquoise" points="435.72,-1220 435.72,-2167 1203.72,-2167 1203.72,-1220 435.72,-1220"/>
<text text-anchor="middle" x="819.72" y="-2151.8" font-family="Times,serif" font-size="14.00">Named volumes</text>
</g>
<g id="clust4" class="cluster">
<title>cluster_bind_mounts</title>
<polygon fill="none" stroke="blue" points="496.22,-491 496.22,-1212 1143.22,-1212 1143.22,-491 496.22,-491"/>
<text text-anchor="middle" x="819.72" y="-1196.8" font-family="Times,serif" font-size="14.00">Bind mounts</text>
</g>
<g id="clust5" class="cluster">
<title>cluster_docker_network_host</title>
<polygon fill="none" stroke="green" points="229.72,-16 229.72,-475 1737.72,-475 1737.72,-16 229.72,-16"/>
<text text-anchor="middle" x="983.72" y="-459.8" font-family="Times,serif" font-size="14.00">PHAIDRA docker containers</text>
</g>
<!-- USER -->
<g id="node1" class="node">
<title>USER</title>
<polygon fill="none" stroke="black" points="193.59,-362.54 193.59,-377.46 139.27,-388 62.45,-388 8.13,-377.46 8.13,-362.54 62.45,-352 139.27,-352 193.59,-362.54"/>
<polygon fill="none" stroke="black" points="197.59,-359.25 197.59,-380.75 139.66,-392 62.07,-392 4.13,-380.75 4.13,-359.25 62.07,-348 139.66,-348 197.59,-359.25"/>
<polygon fill="none" stroke="black" points="201.58,-355.95 201.58,-384.05 140.04,-396 61.68,-396 0.14,-384.05 0.14,-355.95 61.68,-344 140.04,-344 201.58,-355.95"/>
<text text-anchor="middle" x="100.86" y="-366.3" font-family="Times,serif" font-size="14.00">PHAIDRA USER</text>
</g>
<!-- WEBSERVER -->
<g id="node37" class="node">
<title>WEBSERVER</title>
<polygon fill="none" stroke="green" points="398.72,-388 246.72,-388 246.72,-384 242.72,-384 242.72,-380 246.72,-380 246.72,-360 242.72,-360 242.72,-356 246.72,-356 246.72,-352 398.72,-352 398.72,-388"/>
<polyline fill="none" stroke="green" points="246.72,-384 250.72,-384 250.72,-380 246.72,-380 "/>
<polyline fill="none" stroke="green" points="246.72,-360 250.72,-360 250.72,-356 246.72,-356 "/>
<text text-anchor="middle" x="322.72" y="-366.3" font-family="Times,serif" font-size="14.00">phaidra&#45;ssl&#45;httpd&#45;1</text>
</g>
<!-- USER&#45;&#45;WEBSERVER -->
<g id="edge51" class="edge">
<title>USER&#45;&#45;WEBSERVER</title>
<path fill="none" stroke="red" d="M201.82,-370C216.91,-370 232.25,-370 246.69,-370"/>
</g>
<!-- HS_FEDORA -->
<g id="node2" class="node">
<title>HS_FEDORA</title>
<polygon fill="none" stroke="turquoise" points="1130.72,-1834 1127.72,-1838 1106.72,-1838 1103.72,-1834 508.72,-1834 508.72,-1740 1130.72,-1740 1130.72,-1834"/>
<text text-anchor="start" x="520.72" y="-1815.8" font-family="Times,serif" font-weight="bold" font-size="14.00">host:</text>
<text text-anchor="start" x="679.72" y="-1814.8" font-family="Times,serif" font-size="14.00">$HOME/.local/share/docker/volumes/phaidra&#45;ssl_fedora/_data</text>
<text text-anchor="start" x="520.72" y="-1793.8" font-family="Times,serif" font-size="14.00">fedora&#45;container:</text>
<text text-anchor="start" x="679.72" y="-1793.8" font-family="Times,serif" font-size="14.00">/usr/local/tomcat/fcrepo&#45;home</text>
<text text-anchor="start" x="520.72" y="-1772.8" font-family="Times,serif" font-size="14.00">pixelgecko&#45;container:</text>
<text text-anchor="start" x="679.72" y="-1772.8" font-family="Times,serif" font-size="14.00"> /mnt/fedora:ro</text>
<text text-anchor="start" x="520.72" y="-1751.8" font-family="Times,serif" font-size="14.00">api&#45;container:</text>
<text text-anchor="start" x="679.72" y="-1751.8" font-family="Times,serif" font-size="14.00"> /mnt/fedora:ro</text>
</g>
<!-- C_FEDORA -->
<g id="node24" class="node">
<title>C_FEDORA</title>
<g id="a_node24"><a xlink:href="https://fedora.lyrasis.org/" xlink:title="phaidra&#45;ssl&#45;fedora&#45;1">
<polygon fill="none" stroke="green" points="1430.72,-228 1271.72,-228 1271.72,-224 1267.72,-224 1267.72,-220 1271.72,-220 1271.72,-200 1267.72,-200 1267.72,-196 1271.72,-196 1271.72,-192 1430.72,-192 1430.72,-228"/>
<polyline fill="none" stroke="green" points="1271.72,-224 1275.72,-224 1275.72,-220 1271.72,-220 "/>
<polyline fill="none" stroke="green" points="1271.72,-200 1275.72,-200 1275.72,-196 1271.72,-196 "/>
<text text-anchor="middle" x="1351.22" y="-206.3" font-family="Times,serif" font-size="14.00">phaidra&#45;ssl&#45;fedora&#45;1</text>
</a>
</g>
</g>
<!-- HS_FEDORA&#45;&#45;C_FEDORA -->
<g id="edge1" class="edge">
<title>HS_FEDORA&#45;&#45;C_FEDORA</title>
<path fill="none" stroke="turquoise" d="M1130.72,-1785.88C1161.53,-1773.87 1189.54,-1756.24 1211.72,-1731 1266.52,-1668.65 1179.52,-301.54 1231.72,-237 1241.74,-224.61 1256.16,-217.18 1271.5,-212.87"/>
</g>
<!-- C_API -->
<g id="node25" class="node">
<title>C_API</title>
<g id="a_node25"><a xlink:href="https://github.com/phaidra/phaidra-api" xlink:title="phaidra&#45;ssl&#45;api&#45;1">
<polygon fill="none" stroke="green" points="887.22,-388 752.22,-388 752.22,-384 748.22,-384 748.22,-380 752.22,-380 752.22,-360 748.22,-360 748.22,-356 752.22,-356 752.22,-352 887.22,-352 887.22,-388"/>
<polyline fill="none" stroke="green" points="752.22,-384 756.22,-384 756.22,-380 752.22,-380 "/>
<polyline fill="none" stroke="green" points="752.22,-360 756.22,-360 756.22,-356 752.22,-356 "/>
<text text-anchor="middle" x="819.72" y="-366.3" font-family="Times,serif" font-size="14.00">phaidra&#45;ssl&#45;api&#45;1</text>
</a>
</g>
</g>
<!-- HS_FEDORA&#45;&#45;C_API -->
<g id="edge3" class="edge">
<title>HS_FEDORA&#45;&#45;C_API</title>
<path fill="none" stroke="turquoise" d="M508.72,-1800.91C468.86,-1786.89 435.7,-1762.36 417.72,-1722 410.79,-1706.45 410.79,-511.55 417.72,-496 471.88,-374.4 652.21,-362.02 751.95,-365.02"/>
</g>
<!-- C_PIXELGECKO -->
<g id="node32" class="node">
<title>C_PIXELGECKO</title>
<polygon fill="none" stroke="green" points="1712.72,-444 1523.72,-444 1523.72,-440 1519.72,-440 1519.72,-436 1523.72,-436 1523.72,-416 1519.72,-416 1519.72,-412 1523.72,-412 1523.72,-408 1712.72,-408 1712.72,-444"/>
<polyline fill="none" stroke="green" points="1523.72,-440 1527.72,-440 1527.72,-436 1523.72,-436 "/>
<polyline fill="none" stroke="green" points="1523.72,-416 1527.72,-416 1527.72,-412 1523.72,-412 "/>
<text text-anchor="middle" x="1618.22" y="-422.3" font-family="Times,serif" font-size="14.00">phaidra&#45;ssl&#45;pixelgecko&#45;1</text>
</g>
<!-- HS_FEDORA&#45;&#45;C_PIXELGECKO -->
<g id="edge14" class="edge">
<title>HS_FEDORA&#45;&#45;C_PIXELGECKO</title>
<path fill="none" stroke="turquoise" d="M1130.89,-1776.73C1160.32,-1766.06 1187.98,-1751.24 1211.72,-1731 1425.23,-1549.01 1590.33,-589.51 1614.24,-444.39"/>
</g>
<!-- HS_API_LOGS -->
<g id="node3" class="node">
<title>HS_API_LOGS</title>
<polygon fill="none" stroke="turquoise" points="1109.72,-2066 1106.72,-2070 1085.72,-2070 1082.72,-2066 529.72,-2066 529.72,-2014 1109.72,-2014 1109.72,-2066"/>
<text text-anchor="start" x="541.72" y="-2047.8" font-family="Times,serif" font-weight="bold" font-size="14.00">host:</text>
<text text-anchor="start" x="646.72" y="-2046.8" font-family="Times,serif" font-size="14.00">$HOME/.local/share/docker/volumes/phaidra&#45;ssl_api_logs/_data</text>
<text text-anchor="start" x="541.72" y="-2025.8" font-family="Times,serif" font-size="14.00">api&#45;container:</text>
<text text-anchor="start" x="646.72" y="-2025.8" font-family="Times,serif" font-size="14.00">/var/log/phaidra</text>
</g>
<!-- HS_API_LOGS&#45;&#45;C_API -->
<g id="edge2" class="edge">
<title>HS_API_LOGS&#45;&#45;C_API</title>
<path fill="none" stroke="turquoise" d="M529.72,-2042.91C474.06,-2036 429.33,-2022.06 417.72,-1996 409.25,-1976.97 409.25,-515.03 417.72,-496 471.88,-374.4 652.21,-362.02 751.95,-365.02"/>
</g>
<!-- HS_MARIADB_PHAIDRA -->
<g id="node4" class="node">
<title>HS_MARIADB_PHAIDRA</title>
<polygon fill="none" stroke="turquoise" points="1189.72,-1722 1186.72,-1726 1165.72,-1726 1162.72,-1722 449.72,-1722 449.72,-1670 1189.72,-1670 1189.72,-1722"/>
<text text-anchor="start" x="461.72" y="-1703.8" font-family="Times,serif" font-weight="bold" font-size="14.00">host:</text>
<text text-anchor="start" x="663.72" y="-1702.8" font-family="Times,serif" font-size="14.00">$HOME/.local/share/docker/volumes/phaidra&#45;ssl_mariadb_phaidra/_data</text>
<text text-anchor="start" x="461.72" y="-1681.8" font-family="Times,serif" font-size="14.00">mariadb&#45;phaidra&#45;container:</text>
<text text-anchor="start" x="663.72" y="-1681.8" font-family="Times,serif" font-size="14.00">/var/lib/mysql</text>
</g>
<!-- C_MARIADB_PHAIDRA -->
<g id="node26" class="node">
<title>C_MARIADB_PHAIDRA</title>
<g id="a_node26"><a xlink:href="https://mariadb.org/" xlink:title="phaidra&#45;ssl&#45;mariadb&#45;phaidra&#45;1">
<polygon fill="none" stroke="green" points="1467.22,-336 1235.22,-336 1235.22,-332 1231.22,-332 1231.22,-328 1235.22,-328 1235.22,-308 1231.22,-308 1231.22,-304 1235.22,-304 1235.22,-300 1467.22,-300 1467.22,-336"/>
<polyline fill="none" stroke="green" points="1235.22,-332 1239.22,-332 1239.22,-328 1235.22,-328 "/>
<polyline fill="none" stroke="green" points="1235.22,-308 1239.22,-308 1239.22,-304 1235.22,-304 "/>
<text text-anchor="middle" x="1351.22" y="-314.3" font-family="Times,serif" font-size="14.00">phaidra&#45;ssl&#45;mariadb&#45;phaidra&#45;1</text>
</a>
</g>
</g>
<!-- HS_MARIADB_PHAIDRA&#45;&#45;C_MARIADB_PHAIDRA -->
<g id="edge6" class="edge">
<title>HS_MARIADB_PHAIDRA&#45;&#45;C_MARIADB_PHAIDRA</title>
<path fill="none" stroke="turquoise" d="M934.13,-1722.03C1023.13,-1735.06 1143.09,-1734.92 1211.72,-1661 1261.48,-1607.42 1185.69,-401.81 1231.72,-345 1234.38,-341.72 1237.34,-338.79 1240.55,-336.17"/>
</g>
<!-- HS_MONGODB_PHAIDRA -->
<g id="node5" class="node">
<title>HS_MONGODB_PHAIDRA</title>
<polygon fill="none" stroke="turquoise" points="1195.72,-1512 1192.72,-1516 1171.72,-1516 1168.72,-1512 443.72,-1512 443.72,-1460 1195.72,-1460 1195.72,-1512"/>
<text text-anchor="start" x="455.72" y="-1493.8" font-family="Times,serif" font-weight="bold" font-size="14.00">host:</text>
<text text-anchor="start" x="663.72" y="-1492.8" font-family="Times,serif" font-size="14.00">$HOME/.local/share/docker/volumes/phaidra&#45;ssl_mongodb_phaidra/_data</text>
<text text-anchor="start" x="455.72" y="-1471.8" font-family="Times,serif" font-size="14.00">phaidra&#45;mongodb&#45;container:</text>
<text text-anchor="start" x="663.72" y="-1471.8" font-family="Times,serif" font-size="14.00">/data/db</text>
</g>
<!-- C_MONGODB_PHAIDRA -->
<g id="node27" class="node">
<title>C_MONGODB_PHAIDRA</title>
<g id="a_node27"><a xlink:href="https://www.mongodb.com/" xlink:title="phaidra&#45;ssl&#45;mongodb&#45;phaidra&#45;1">
<polygon fill="none" stroke="green" points="1470.72,-282 1231.72,-282 1231.72,-278 1227.72,-278 1227.72,-274 1231.72,-274 1231.72,-254 1227.72,-254 1227.72,-250 1231.72,-250 1231.72,-246 1470.72,-246 1470.72,-282"/>
<polyline fill="none" stroke="green" points="1231.72,-278 1235.72,-278 1235.72,-274 1231.72,-274 "/>
<polyline fill="none" stroke="green" points="1231.72,-254 1235.72,-254 1235.72,-250 1231.72,-250 "/>
<text text-anchor="middle" x="1351.22" y="-260.3" font-family="Times,serif" font-size="14.00">phaidra&#45;ssl&#45;mongodb&#45;phaidra&#45;1</text>
</a>
</g>
</g>
<!-- HS_MONGODB_PHAIDRA&#45;&#45;C_MONGODB_PHAIDRA -->
<g id="edge7" class="edge">
<title>HS_MONGODB_PHAIDRA&#45;&#45;C_MONGODB_PHAIDRA</title>
<path fill="none" stroke="turquoise" d="M934.54,-1512.06C1023.47,-1525 1143.13,-1524.72 1211.72,-1451 1255.63,-1403.81 1191.09,-341.04 1231.72,-291 1234.38,-287.72 1237.35,-284.79 1240.56,-282.18"/>
</g>
<!-- HS_OPENLDAP -->
<g id="node6" class="node">
<title>HS_OPENLDAP</title>
<polygon fill="none" stroke="turquoise" points="1134.72,-1904 1131.72,-1908 1110.72,-1908 1107.72,-1904 504.72,-1904 504.72,-1852 1134.72,-1852 1134.72,-1904"/>
<text text-anchor="start" x="516.72" y="-1885.8" font-family="Times,serif" font-weight="bold" font-size="14.00">host:</text>
<text text-anchor="start" x="664.72" y="-1884.8" font-family="Times,serif" font-size="14.00">$HOME/.local/share/docker/volumes/phaidra&#45;ssl_openldap/_data</text>
<text text-anchor="start" x="516.72" y="-1863.8" font-family="Times,serif" font-size="14.00">openldap&#45;container:</text>
<text text-anchor="start" x="664.72" y="-1863.8" font-family="Times,serif" font-size="14.00">/bitnami/openldap</text>
</g>
<!-- C_OPENLDAP -->
<g id="node29" class="node">
<title>C_OPENLDAP</title>
<g id="a_node29"><a xlink:href="https://www.openldap.org/" xlink:title="phaidra&#45;ssl&#45;openldap&#45;1">
<polygon fill="none" stroke="green" points="1440.72,-390 1261.72,-390 1261.72,-386 1257.72,-386 1257.72,-382 1261.72,-382 1261.72,-362 1257.72,-362 1257.72,-358 1261.72,-358 1261.72,-354 1440.72,-354 1440.72,-390"/>
<polyline fill="none" stroke="green" points="1261.72,-386 1265.72,-386 1265.72,-382 1261.72,-382 "/>
<polyline fill="none" stroke="green" points="1261.72,-362 1265.72,-362 1265.72,-358 1261.72,-358 "/>
<text text-anchor="middle" x="1351.22" y="-368.3" font-family="Times,serif" font-size="14.00">phaidra&#45;ssl&#45;openldap&#45;1</text>
</a>
</g>
</g>
<!-- HS_OPENLDAP&#45;&#45;C_OPENLDAP -->
<g id="edge10" class="edge">
<title>HS_OPENLDAP&#45;&#45;C_OPENLDAP</title>
<path fill="none" stroke="turquoise" d="M934.16,-1904.06C1023.17,-1917.1 1143.14,-1916.96 1211.72,-1843 1266.27,-1784.17 1181.25,-461.37 1231.72,-399 1239.55,-389.32 1250.07,-382.67 1261.62,-378.17"/>
</g>
<!-- HS_SOLR -->
<g id="node7" class="node">
<title>HS_SOLR</title>
<polygon fill="none" stroke="turquoise" points="1096.72,-1652 1093.72,-1656 1072.72,-1656 1069.72,-1652 542.72,-1652 542.72,-1600 1096.72,-1600 1096.72,-1652"/>
<text text-anchor="start" x="554.72" y="-1633.8" font-family="Times,serif" font-weight="bold" font-size="14.00">host:</text>
<text text-anchor="start" x="664.72" y="-1632.8" font-family="Times,serif" font-size="14.00">$HOME/.local/share/docker/volumes/phaidra&#45;ssl_solr/_data</text>
<text text-anchor="start" x="554.72" y="-1611.8" font-family="Times,serif" font-size="14.00">solr&#45;container:</text>
<text text-anchor="start" x="664.72" y="-1611.8" font-family="Times,serif" font-size="14.00">/var/solr</text>
</g>
<!-- C_SOLR -->
<g id="node30" class="node">
<title>C_SOLR</title>
<g id="a_node30"><a xlink:href="https://solr.apache.org/" xlink:title="phaidra&#45;ssl&#45;solr&#45;1">
<polygon fill="none" stroke="green" points="1421.22,-174 1281.22,-174 1281.22,-170 1277.22,-170 1277.22,-166 1281.22,-166 1281.22,-146 1277.22,-146 1277.22,-142 1281.22,-142 1281.22,-138 1421.22,-138 1421.22,-174"/>
<polyline fill="none" stroke="green" points="1281.22,-170 1285.22,-170 1285.22,-166 1281.22,-166 "/>
<polyline fill="none" stroke="green" points="1281.22,-146 1285.22,-146 1285.22,-142 1281.22,-142 "/>
<text text-anchor="middle" x="1351.22" y="-152.3" font-family="Times,serif" font-size="14.00">phaidra&#45;ssl&#45;solr&#45;1</text>
</a>
</g>
</g>
<!-- HS_SOLR&#45;&#45;C_SOLR -->
<g id="edge12" class="edge">
<title>HS_SOLR&#45;&#45;C_SOLR</title>
<path fill="none" stroke="turquoise" d="M934.15,-1652.05C1023.16,-1665.09 1143.13,-1664.95 1211.72,-1591 1264.92,-1533.65 1182.5,-243.81 1231.72,-183 1243.8,-168.08 1262.27,-160.35 1281.05,-156.59"/>
</g>
<!-- HS_PIXELGECKO -->
<g id="node8" class="node">
<title>HS_PIXELGECKO</title>
<polygon fill="none" stroke="turquoise" points="1152.22,-1995.5 1149.22,-1999.5 1128.22,-1999.5 1125.22,-1995.5 487.22,-1995.5 487.22,-1922.5 1152.22,-1922.5 1152.22,-1995.5"/>
<text text-anchor="start" x="499.72" y="-1976.8" font-family="Times,serif" font-weight="bold" font-size="14.00">host:</text>
<text text-anchor="start" x="671.72" y="-1975.8" font-family="Times,serif" font-size="14.00">$HOME/.local/share/docker/volumes/phaidra&#45;ssl_pixelgecko/_data</text>
<text text-anchor="start" x="499.72" y="-1954.8" font-family="Times,serif" font-size="14.00">pixelgecko&#45;container:</text>
<text text-anchor="start" x="671.72" y="-1954.8" font-family="Times,serif" font-size="14.00">/mnt/converted_images</text>
<text text-anchor="start" x="499.72" y="-1933.8" font-family="Times,serif" font-size="14.00">imageserver&#45;container:</text>
<text text-anchor="start" x="671.72" y="-1933.8" font-family="Times,serif" font-size="14.00">/mnt/converted_images:ro</text>
</g>
<!-- C_IMAGESERVER -->
<g id="node31" class="node">
<title>C_IMAGESERVER</title>
<g id="a_node31"><a xlink:href="https://github.com/ruven/iipsrv" xlink:title="phaidra&#45;ssl&#45;imageserver&#45;1">
<polygon fill="none" stroke="green" points="1452.72,-444 1249.72,-444 1249.72,-440 1245.72,-440 1245.72,-436 1249.72,-436 1249.72,-416 1245.72,-416 1245.72,-412 1249.72,-412 1249.72,-408 1452.72,-408 1452.72,-444"/>
<polyline fill="none" stroke="green" points="1249.72,-440 1253.72,-440 1253.72,-436 1249.72,-436 "/>
<polyline fill="none" stroke="green" points="1249.72,-416 1253.72,-416 1253.72,-412 1249.72,-412 "/>
<text text-anchor="middle" x="1351.22" y="-422.3" font-family="Times,serif" font-size="14.00">phaidra&#45;ssl&#45;imageserver&#45;1</text>
</a>
</g>
</g>
<!-- HS_PIXELGECKO&#45;&#45;C_IMAGESERVER -->
<g id="edge13" class="edge">
<title>HS_PIXELGECKO&#45;&#45;C_IMAGESERVER</title>
<path fill="none" stroke="turquoise" d="M1152.5,-1955.67C1174.51,-1945.14 1194.65,-1931.2 1211.72,-1913 1240.34,-1882.49 1228.39,-1578.7 1231.72,-1537 1267.24,-1092.27 1334.59,-549.88 1347.9,-444.29"/>
</g>
<!-- HS_PIXELGECKO&#45;&#45;C_PIXELGECKO -->
<g id="edge15" class="edge">
<title>HS_PIXELGECKO&#45;&#45;C_PIXELGECKO</title>
<path fill="none" stroke="turquoise" d="M1152.42,-1943.61C1173.35,-1935.56 1193.36,-1925.5 1211.72,-1913 1412.79,-1776.2 1394.47,-1661.93 1470.72,-1431 1597.46,-1047.16 1614.69,-544.84 1616.91,-444.05"/>
</g>
<!-- HS_DBGATE -->
<g id="node9" class="node">
<title>HS_DBGATE</title>
<polygon fill="none" stroke="turquoise" points="1119.22,-1582 1116.22,-1586 1095.22,-1586 1092.22,-1582 520.22,-1582 520.22,-1530 1119.22,-1530 1119.22,-1582"/>
<text text-anchor="start" x="532.72" y="-1563.8" font-family="Times,serif" font-weight="bold" font-size="14.00">host:</text>
<text text-anchor="start" x="665.72" y="-1562.8" font-family="Times,serif" font-size="14.00">$HOME/.local/share/docker/volumes/phaidra&#45;ssl_dbgate/_data</text>
<text text-anchor="start" x="532.72" y="-1541.8" font-family="Times,serif" font-size="14.00">dbgate&#45;container:</text>
<text text-anchor="start" x="665.72" y="-1541.8" font-family="Times,serif" font-size="14.00">/root/.dbgate</text>
</g>
<!-- C_DBGATE -->
<g id="node33" class="node">
<title>C_DBGATE</title>
<polygon fill="none" stroke="green" points="901.22,-314 738.22,-314 738.22,-310 734.22,-310 734.22,-306 738.22,-306 738.22,-286 734.22,-286 734.22,-282 738.22,-282 738.22,-278 901.22,-278 901.22,-314"/>
<polyline fill="none" stroke="green" points="738.22,-310 742.22,-310 742.22,-306 738.22,-306 "/>
<polyline fill="none" stroke="green" points="738.22,-286 742.22,-286 742.22,-282 738.22,-282 "/>
<text text-anchor="middle" x="819.72" y="-292.3" font-family="Times,serif" font-size="14.00">phaidra&#45;ssl&#45;dbgate&#45;1</text>
</g>
<!-- HS_DBGATE&#45;&#45;C_DBGATE -->
<g id="edge16" class="edge">
<title>HS_DBGATE&#45;&#45;C_DBGATE</title>
<path fill="none" stroke="turquoise" d="M520.08,-1557.62C468.94,-1550.33 428.65,-1536.53 417.72,-1512 404.61,-1482.56 404.61,-381.44 417.72,-352 469.9,-234.85 651.07,-255.97 751.45,-277.97"/>
</g>
<!-- HS_MARIADB_FEDORA -->
<g id="node10" class="node">
<title>HS_MARIADB_FEDORA</title>
<polygon fill="none" stroke="turquoise" points="1180.72,-2136 1177.72,-2140 1156.72,-2140 1153.72,-2136 458.72,-2136 458.72,-2084 1180.72,-2084 1180.72,-2136"/>
<text text-anchor="start" x="470.72" y="-2117.8" font-family="Times,serif" font-weight="bold" font-size="14.00">host:</text>
<text text-anchor="start" x="663.72" y="-2116.8" font-family="Times,serif" font-size="14.00">$HOME/.local/share/docker/volumes/phaidra&#45;ssl_mariadb_fedora/_data</text>
<text text-anchor="start" x="470.72" y="-2095.8" font-family="Times,serif" font-size="14.00">mariadb&#45;fedora&#45;container:</text>
<text text-anchor="start" x="663.72" y="-2095.8" font-family="Times,serif" font-size="14.00">/var/lib/mysql</text>
</g>
<!-- C_MARIADB_FEDORA -->
<g id="node35" class="node">
<title>C_MARIADB_FEDORA</title>
<g id="a_node35"><a xlink:href="https://mariadb.org/" xlink:title="phaidra&#45;ssl&#45;mariadb&#45;fedora&#45;1">
<polygon fill="none" stroke="green" points="1729.72,-200 1506.72,-200 1506.72,-196 1502.72,-196 1502.72,-192 1506.72,-192 1506.72,-172 1502.72,-172 1502.72,-168 1506.72,-168 1506.72,-164 1729.72,-164 1729.72,-200"/>
<polyline fill="none" stroke="green" points="1506.72,-196 1510.72,-196 1510.72,-192 1506.72,-192 "/>
<polyline fill="none" stroke="green" points="1506.72,-172 1510.72,-172 1510.72,-168 1506.72,-168 "/>
<text text-anchor="middle" x="1618.22" y="-178.3" font-family="Times,serif" font-size="14.00">phaidra&#45;ssl&#45;mariadb&#45;fedora&#45;1</text>
</a>
</g>
</g>
<!-- HS_MARIADB_FEDORA&#45;&#45;C_MARIADB_FEDORA -->
<g id="edge17" class="edge">
<title>HS_MARIADB_FEDORA&#45;&#45;C_MARIADB_FEDORA</title>
<path fill="none" stroke="turquoise" d="M959.01,-2136.03C1042.42,-2143.34 1145.09,-2136.2 1211.72,-2075 1768.76,-1563.38 1266.93,-1116.32 1506.72,-399 1532.79,-321.01 1583.03,-236.27 1605.67,-200.05"/>
</g>
<!-- HS_DATABASE_DUMPS -->
<g id="node11" class="node">
<title>HS_DATABASE_DUMPS</title>
<polygon fill="none" stroke="turquoise" points="1188.72,-1442 1185.72,-1446 1164.72,-1446 1161.72,-1442 450.72,-1442 450.72,-1390 1188.72,-1390 1188.72,-1442"/>
<text text-anchor="start" x="462.72" y="-1423.8" font-family="Times,serif" font-weight="bold" font-size="14.00">host:</text>
<text text-anchor="start" x="601.72" y="-1422.8" font-family="Times,serif" font-size="14.00">$HOME/.local/share/docker/volumes/phaidra&#45;ssl_chronos_database_dumps/_data</text>
<text text-anchor="start" x="462.72" y="-1401.8" font-family="Times,serif" font-size="14.00">chronos&#45;container:</text>
<text text-anchor="start" x="601.72" y="-1401.8" font-family="Times,serif" font-size="14.00">/mnt/database&#45;dumps</text>
</g>
<!-- HS_SITEMAPS -->
<g id="node12" class="node">
<title>HS_SITEMAPS</title>
<polygon fill="none" stroke="turquoise" points="1161.22,-1301.5 1158.22,-1305.5 1137.22,-1305.5 1134.22,-1301.5 478.22,-1301.5 478.22,-1228.5 1161.22,-1228.5 1161.22,-1301.5"/>
<text text-anchor="start" x="490.72" y="-1282.8" font-family="Times,serif" font-weight="bold" font-size="14.00">host:</text>
<text text-anchor="start" x="629.72" y="-1281.8" font-family="Times,serif" font-size="14.00">$HOME/.local/share/docker/volumes/phaidra&#45;ssl_chronos_sitemaps/_data</text>
<text text-anchor="start" x="490.72" y="-1260.8" font-family="Times,serif" font-size="14.00">chronos&#45;container:</text>
<text text-anchor="start" x="629.72" y="-1260.8" font-family="Times,serif" font-size="14.00">/mnt/sitemaps</text>
<text text-anchor="start" x="490.72" y="-1239.8" font-family="Times,serif" font-size="14.00">httpd&#45;container:</text>
<text text-anchor="start" x="629.72" y="-1239.8" font-family="Times,serif" font-size="14.00">/mnt/sitemaps:ro</text>
</g>
<!-- HS_OAI_LOGS -->
<g id="node13" class="node">
<title>HS_OAI_LOGS</title>
<polygon fill="none" stroke="turquoise" points="1157.72,-1372 1154.72,-1376 1133.72,-1376 1130.72,-1372 481.72,-1372 481.72,-1320 1157.72,-1320 1157.72,-1372"/>
<text text-anchor="start" x="493.72" y="-1353.8" font-family="Times,serif" font-weight="bold" font-size="14.00">host:</text>
<text text-anchor="start" x="632.72" y="-1352.8" font-family="Times,serif" font-size="14.00">$HOME/.local/share/docker/volumes/phaidra&#45;ssl_chronos_oai_logs/_data</text>
<text text-anchor="start" x="493.72" y="-1331.8" font-family="Times,serif" font-size="14.00">chronos&#45;container:</text>
<text text-anchor="start" x="632.72" y="-1331.8" font-family="Times,serif" font-size="14.00">/mnt/oai&#45;logs</text>
</g>
<!-- BIND_MARIADB_PHAIDRA_INIT -->
<g id="node14" class="node">
<title>BIND_MARIADB_PHAIDRA_INIT</title>
<polygon fill="none" stroke="blue" points="1134.72,-1111 1131.72,-1115 1110.72,-1115 1107.72,-1111 504.72,-1111 504.72,-1059 1134.72,-1059 1134.72,-1111"/>
<text text-anchor="start" x="516.72" y="-1092.8" font-family="Times,serif" font-weight="bold" font-size="14.00">host:</text>
<text text-anchor="start" x="718.72" y="-1091.8" font-family="Times,serif" font-size="14.00">$REPO/container_components/mariadb/phaidradb.sql.gz</text>
<text text-anchor="start" x="516.72" y="-1070.8" font-family="Times,serif" font-size="14.00">mariadb&#45;phaidra&#45;container:</text>
<text text-anchor="start" x="718.72" y="-1070.8" font-family="Times,serif" font-size="14.00">/docker&#45;entrypoint&#45;initdb.d/phaidradb.sql.gz:ro</text>
</g>
<!-- BIND_MARIADB_PHAIDRA_INIT&#45;&#45;C_MARIADB_PHAIDRA -->
<g id="edge5" class="edge">
<title>BIND_MARIADB_PHAIDRA_INIT&#45;&#45;C_MARIADB_PHAIDRA</title>
<path fill="none" stroke="blue" d="M935.67,-1111.05C1024.34,-1123.68 1143.07,-1122.97 1211.72,-1050 1265.42,-992.93 1181.99,-405.56 1231.72,-345 1234.4,-341.74 1237.38,-338.82 1240.61,-336.22"/>
</g>
<!-- BIND_OPENLDAP_INIT -->
<g id="node15" class="node">
<title>BIND_OPENLDAP_INIT</title>
<polygon fill="none" stroke="blue" points="1048.72,-1181 1045.72,-1185 1024.72,-1185 1021.72,-1181 590.72,-1181 590.72,-1129 1048.72,-1129 1048.72,-1181"/>
<text text-anchor="start" x="602.72" y="-1162.8" font-family="Times,serif" font-weight="bold" font-size="14.00">host:</text>
<text text-anchor="start" x="750.72" y="-1161.8" font-family="Times,serif" font-size="14.00">$REPO/container_components/openldap</text>
<text text-anchor="start" x="602.72" y="-1140.8" font-family="Times,serif" font-size="14.00">openldap&#45;container:</text>
<text text-anchor="start" x="750.72" y="-1140.8" font-family="Times,serif" font-size="14.00">/ldifs:ro</text>
</g>
<!-- BIND_OPENLDAP_INIT&#45;&#45;C_OPENLDAP -->
<g id="edge11" class="edge">
<title>BIND_OPENLDAP_INIT&#45;&#45;C_OPENLDAP</title>
<path fill="none" stroke="blue" d="M935.69,-1181.06C1024.36,-1193.69 1143.09,-1192.99 1211.72,-1120 1266.62,-1061.61 1180.88,-460.95 1231.72,-399 1239.55,-389.46 1249.99,-382.87 1261.44,-378.38"/>
</g>
<!-- BIND_HTTPD_CONFIG -->
<g id="node16" class="node">
<title>BIND_HTTPD_CONFIG</title>
<polygon fill="none" stroke="blue" points="1046.22,-761 1043.22,-765 1022.22,-765 1019.22,-761 593.22,-761 593.22,-709 1046.22,-709 1046.22,-761"/>
<text text-anchor="start" x="605.72" y="-742.8" font-family="Times,serif" font-weight="bold" font-size="14.00">host:</text>
<text text-anchor="start" x="727.72" y="-741.8" font-family="Times,serif" font-size="14.00">$REPO/webserver_configs/phaidra&#45;ssl.conf</text>
<text text-anchor="start" x="605.72" y="-720.8" font-family="Times,serif" font-size="14.00">httpd&#45;container:</text>
<text text-anchor="start" x="727.72" y="-720.8" font-family="Times,serif" font-size="14.00">/usr/local/apache2/conf/httpd.conf:ro</text>
</g>
<!-- BIND_HTTPD_KEY -->
<g id="node17" class="node">
<title>BIND_HTTPD_KEY</title>
<polygon fill="none" stroke="blue" points="1053.72,-691 1050.72,-695 1029.72,-695 1026.72,-691 585.72,-691 585.72,-639 1053.72,-639 1053.72,-691"/>
<text text-anchor="start" x="597.72" y="-672.8" font-family="Times,serif" font-weight="bold" font-size="14.00">host:</text>
<text text-anchor="start" x="719.72" y="-671.8" font-family="Times,serif" font-size="14.00">$REPO/encryption/webserver/privkey.pem:ro</text>
<text text-anchor="start" x="597.72" y="-650.8" font-family="Times,serif" font-size="14.00">httpd&#45;container:</text>
<text text-anchor="start" x="719.72" y="-650.8" font-family="Times,serif" font-size="14.00">/usr/local/apache2/conf/server.key:ro</text>
</g>
<!-- BIND_HTTPD_CERT -->
<g id="node18" class="node">
<title>BIND_HTTPD_CERT</title>
<polygon fill="none" stroke="blue" points="1059.22,-901 1056.22,-905 1035.22,-905 1032.22,-901 580.22,-901 580.22,-849 1059.22,-849 1059.22,-901"/>
<text text-anchor="start" x="592.72" y="-882.8" font-family="Times,serif" font-weight="bold" font-size="14.00">host:</text>
<text text-anchor="start" x="714.72" y="-881.8" font-family="Times,serif" font-size="14.00">$REPO/encryption/webserver/fullchain.pem:ro</text>
<text text-anchor="start" x="592.72" y="-860.8" font-family="Times,serif" font-size="14.00">httpd&#45;container:</text>
<text text-anchor="start" x="714.72" y="-860.8" font-family="Times,serif" font-size="14.00">/usr/local/apache2/conf/server.crt:ro</text>
</g>
<!-- BIND_API_CODE -->
<g id="node19" class="node">
<title>BIND_API_CODE</title>
<polygon fill="none" stroke="blue" points="999.22,-971 996.22,-975 975.22,-975 972.22,-971 640.22,-971 640.22,-919 999.22,-919 999.22,-971"/>
<text text-anchor="start" x="652.72" y="-952.8" font-family="Times,serif" font-weight="bold" font-size="14.00">host:</text>
<text text-anchor="start" x="757.72" y="-951.8" font-family="Times,serif" font-size="14.00">$REPO/components/phaidra&#45;api</text>
<text text-anchor="start" x="652.72" y="-930.8" font-family="Times,serif" font-size="14.00">api&#45;container:</text>
<text text-anchor="start" x="757.72" y="-930.8" font-family="Times,serif" font-size="14.00">/usr/local/phaidra/phaidra&#45;api:ro</text>
</g>
<!-- BIND_API_CODE&#45;&#45;C_API -->
<g id="edge4" class="edge">
<title>BIND_API_CODE&#45;&#45;C_API</title>
<path fill="none" stroke="blue" d="M640.01,-953.82C541.86,-953.61 436.48,-943.13 417.72,-901 408.57,-880.45 408.57,-516.55 417.72,-496 471.88,-374.4 652.21,-362.02 751.95,-365.02"/>
</g>
<!-- BIND_DOCUMENTATION -->
<g id="node20" class="node">
<title>BIND_DOCUMENTATION</title>
<polygon fill="none" stroke="blue" points="937.72,-831 934.72,-835 913.72,-835 910.72,-831 701.72,-831 701.72,-779 937.72,-779 937.72,-831"/>
<text text-anchor="start" x="713.72" y="-812.8" font-family="Times,serif" font-weight="bold" font-size="14.00">host:</text>
<text text-anchor="start" x="835.72" y="-811.8" font-family="Times,serif" font-size="14.00">$REPO/docs</text>
<text text-anchor="start" x="713.72" y="-790.8" font-family="Times,serif" font-size="14.00">httpd&#45;container:</text>
<text text-anchor="start" x="835.72" y="-790.8" font-family="Times,serif" font-size="14.00">/mnt/docs:ro</text>
</g>
<!-- BIND_CHRONOS -->
<g id="node21" class="node">
<title>BIND_CHRONOS</title>
<polygon fill="none" stroke="blue" points="1039.72,-1041 1036.72,-1045 1015.72,-1045 1012.72,-1041 599.72,-1041 599.72,-989 1039.72,-989 1039.72,-1041"/>
<text text-anchor="start" x="611.72" y="-1022.8" font-family="Times,serif" font-weight="bold" font-size="14.00">host:</text>
<text text-anchor="start" x="750.72" y="-1021.8" font-family="Times,serif" font-size="14.00">$REPO/container_components/chronos</text>
<text text-anchor="start" x="611.72" y="-1000.8" font-family="Times,serif" font-size="14.00">chronos&#45;container:</text>
<text text-anchor="start" x="750.72" y="-1000.8" font-family="Times,serif" font-size="14.00">/mnt/chronos:ro</text>
</g>
<!-- BIND_MONGODB_INIT_OAI -->
<g id="node22" class="node">
<title>BIND_MONGODB_INIT_OAI</title>
<polygon fill="none" stroke="blue" points="1112.72,-621 1109.72,-625 1088.72,-625 1085.72,-621 526.72,-621 526.72,-569 1112.72,-569 1112.72,-621"/>
<text text-anchor="start" x="538.72" y="-602.8" font-family="Times,serif" font-weight="bold" font-size="14.00">host:</text>
<text text-anchor="start" x="687.72" y="-601.8" font-family="Times,serif" font-size="14.00">$REPO/container_components/mongodb/init_oai_sets.json</text>
<text text-anchor="start" x="538.72" y="-580.8" font-family="Times,serif" font-size="14.00">mongodb&#45;container:</text>
<text text-anchor="start" x="687.72" y="-580.8" font-family="Times,serif" font-size="14.00">/mnt/init_oai_sets.json:ro</text>
</g>
<!-- BIND_MONGODB_INIT_OAI&#45;&#45;C_MONGODB_PHAIDRA -->
<g id="edge9" class="edge">
<title>BIND_MONGODB_INIT_OAI&#45;&#45;C_MONGODB_PHAIDRA</title>
<path fill="none" stroke="blue" d="M941.12,-621.03C1028.54,-632.23 1143.09,-629.67 1211.72,-560 1253.79,-517.3 1192.63,-336.44 1231.72,-291 1234.47,-287.8 1237.52,-284.94 1240.8,-282.38"/>
</g>
<!-- BIND_MONGODB_INIT -->
<g id="node23" class="node">
<title>BIND_MONGODB_INIT</title>
<polygon fill="none" stroke="blue" points="1135.22,-551 1132.22,-555 1111.22,-555 1108.22,-551 504.22,-551 504.22,-499 1135.22,-499 1135.22,-551"/>
<text text-anchor="start" x="516.72" y="-532.8" font-family="Times,serif" font-weight="bold" font-size="14.00">host:</text>
<text text-anchor="start" x="665.72" y="-531.8" font-family="Times,serif" font-size="14.00">$REPO/container_components/mongodb/mongodb&#45;after&#45;entry.sh</text>
<text text-anchor="start" x="516.72" y="-510.8" font-family="Times,serif" font-size="14.00">mongodb&#45;container:</text>
<text text-anchor="start" x="665.72" y="-510.8" font-family="Times,serif" font-size="14.00">/docker&#45;entrypoint&#45;initdb.d/mongodb&#45;after&#45;entry.sh:ro</text>
</g>
<!-- BIND_MONGODB_INIT&#45;&#45;C_MONGODB_PHAIDRA -->
<g id="edge8" class="edge">
<title>BIND_MONGODB_INIT&#45;&#45;C_MONGODB_PHAIDRA</title>
<path fill="none" stroke="blue" d="M1135.65,-527.33C1163.99,-516.47 1190.09,-500.87 1211.72,-479 1241.26,-449.13 1203.82,-322.41 1231.72,-291 1234.66,-287.69 1237.92,-284.74 1241.42,-282.11"/>
</g>
<!-- C_FEDORA&#45;&#45;C_MARIADB_FEDORA -->
<g id="edge27" class="edge">
<title>C_FEDORA&#45;&#45;C_MARIADB_FEDORA</title>
<path fill="none" stroke="orange" d="M1431.01,-201.67C1454.66,-199.18 1481.06,-196.39 1506.37,-193.71"/>
</g>
<!-- C_API&#45;&#45;C_FEDORA -->
<g id="edge28" class="edge">
<title>C_API&#45;&#45;C_FEDORA</title>
<path fill="none" stroke="orange" d="M887.41,-386.39C973.58,-403.25 1123.04,-417.12 1211.72,-338 1245.87,-307.54 1199.83,-269.82 1231.72,-237 1242.46,-225.95 1256.71,-219.01 1271.59,-214.73"/>
</g>
<!-- C_API&#45;&#45;C_MARIADB_PHAIDRA -->
<g id="edge29" class="edge">
<title>C_API&#45;&#45;C_MARIADB_PHAIDRA</title>
<path fill="none" stroke="orange" d="M887.26,-365.81C965.16,-360.62 1098.02,-350.85 1211.72,-338 1219.33,-337.14 1227.16,-336.19 1235.04,-335.18"/>
</g>
<!-- C_API&#45;&#45;C_MONGODB_PHAIDRA -->
<g id="edge30" class="edge">
<title>C_API&#45;&#45;C_MONGODB_PHAIDRA</title>
<path fill="none" stroke="orange" d="M887.24,-383.83C971.2,-397.32 1116.17,-406.95 1211.72,-338 1230.13,-324.72 1214.3,-305.56 1231.72,-291 1235.77,-287.62 1240.16,-284.64 1244.78,-282.01"/>
</g>
<!-- C_UI -->
<g id="node28" class="node">
<title>C_UI</title>
<g id="a_node28"><a xlink:href="https://github.com/phaidra/phaidra-ui" xlink:title="phaidra&#45;ssl&#45;ui&#45;1">
<polygon fill="none" stroke="green" points="1414.72,-120 1287.72,-120 1287.72,-116 1283.72,-116 1283.72,-112 1287.72,-112 1287.72,-92 1283.72,-92 1283.72,-88 1287.72,-88 1287.72,-84 1414.72,-84 1414.72,-120"/>
<polyline fill="none" stroke="green" points="1287.72,-116 1291.72,-116 1291.72,-112 1287.72,-112 "/>
<polyline fill="none" stroke="green" points="1287.72,-92 1291.72,-92 1291.72,-88 1287.72,-88 "/>
<text text-anchor="middle" x="1351.22" y="-98.3" font-family="Times,serif" font-size="14.00">phaidra&#45;ssl&#45;ui&#45;1</text>
</a>
</g>
</g>
<!-- C_API&#45;&#45;C_UI -->
<g id="edge31" class="edge">
<title>C_API&#45;&#45;C_UI</title>
<path fill="none" stroke="orange" d="M887.44,-384.36C975.05,-398.9 1127.6,-408.56 1211.72,-323 1242.11,-292.1 1202.99,-161.45 1231.72,-129 1245.71,-113.2 1266.85,-105.63 1287.42,-102.26"/>
</g>
<!-- C_API&#45;&#45;C_OPENLDAP -->
<g id="edge32" class="edge">
<title>C_API&#45;&#45;C_OPENLDAP</title>
<path fill="none" stroke="orange" d="M887.25,-370.25C981.96,-370.61 1155.88,-371.27 1261.48,-371.66"/>
</g>
<!-- C_API&#45;&#45;C_SOLR -->
<g id="edge33" class="edge">
<title>C_API&#45;&#45;C_SOLR</title>
<path fill="none" stroke="orange" d="M887.49,-387.13C974.44,-405.03 1125.5,-420.29 1211.72,-338 1261.97,-290.04 1185.01,-234.41 1231.72,-183 1244.42,-169.02 1262.73,-161.52 1281.16,-157.67"/>
</g>
<!-- C_API&#45;&#45;C_IMAGESERVER -->
<g id="edge34" class="edge">
<title>C_API&#45;&#45;C_IMAGESERVER</title>
<path fill="none" stroke="orange" d="M887.25,-377.04C978.49,-386.69 1143.24,-404.11 1249.6,-415.36"/>
</g>
<!-- C_MONGODB_PHAIDRA&#45;&#45;C_PIXELGECKO -->
<g id="edge35" class="edge">
<title>C_MONGODB_PHAIDRA&#45;&#45;C_PIXELGECKO</title>
<path fill="none" stroke="orange" d="M1450.38,-282.05C1457.42,-284.64 1464.28,-287.61 1470.72,-291 1527.65,-320.95 1579.19,-378.65 1603.12,-407.96"/>
</g>
<!-- C_LAM -->
<g id="node34" class="node">
<title>C_LAM</title>
<polygon fill="none" stroke="green" points="1688.22,-89 1548.22,-89 1548.22,-85 1544.22,-85 1544.22,-81 1548.22,-81 1548.22,-61 1544.22,-61 1544.22,-57 1548.22,-57 1548.22,-53 1688.22,-53 1688.22,-89"/>
<polyline fill="none" stroke="green" points="1548.22,-85 1552.22,-85 1552.22,-81 1548.22,-81 "/>
<polyline fill="none" stroke="green" points="1548.22,-61 1552.22,-61 1552.22,-57 1548.22,-57 "/>
<text text-anchor="middle" x="1618.22" y="-67.3" font-family="Times,serif" font-size="14.00">phaidra&#45;ssl&#45;lam&#45;1</text>
</g>
<!-- C_OPENLDAP&#45;&#45;C_LAM -->
<g id="edge36" class="edge">
<title>C_OPENLDAP&#45;&#45;C_LAM</title>
<path fill="none" stroke="orange" d="M1440.88,-364C1452.05,-359.69 1462.45,-353.58 1470.72,-345 1530.37,-283.12 1461.5,-228.09 1506.72,-155 1524.6,-126.1 1556.3,-103.56 1581.18,-89.13"/>
</g>
<!-- C_DBGATE&#45;&#45;C_MARIADB_PHAIDRA -->
<g id="edge37" class="edge">
<title>C_DBGATE&#45;&#45;C_MARIADB_PHAIDRA</title>
<path fill="none" stroke="orange" d="M901.43,-299.35C990.31,-303.05 1133.96,-309.01 1234.74,-313.2"/>
</g>
<!-- C_DBGATE&#45;&#45;C_MONGODB_PHAIDRA -->
<g id="edge38" class="edge">
<title>C_DBGATE&#45;&#45;C_MONGODB_PHAIDRA</title>
<path fill="none" stroke="orange" d="M901.43,-291.12C989.3,-285.81 1130.69,-277.27 1231.28,-271.19"/>
</g>
<!-- C_DBGATE&#45;&#45;C_MARIADB_FEDORA -->
<g id="edge39" class="edge">
<title>C_DBGATE&#45;&#45;C_MARIADB_FEDORA</title>
<path fill="none" stroke="orange" d="M901.61,-286.76C990.22,-272.33 1130.51,-236.15 1211.72,-147 1234.09,-122.45 1205.28,-95.1 1231.72,-75 1274.01,-42.86 1420.23,-58.52 1470.72,-75 1477.76,-77.3 1553.47,-133.93 1593.19,-163.85"/>
</g>
<!-- C_CHRONOS -->
<g id="node36" class="node">
<title>C_CHRONOS</title>
<polygon fill="none" stroke="green" points="407.72,-444 237.72,-444 237.72,-440 233.72,-440 233.72,-436 237.72,-436 237.72,-416 233.72,-416 233.72,-412 237.72,-412 237.72,-408 407.72,-408 407.72,-444"/>
<polyline fill="none" stroke="green" points="237.72,-440 241.72,-440 241.72,-436 237.72,-436 "/>
<polyline fill="none" stroke="green" points="237.72,-416 241.72,-416 241.72,-412 237.72,-412 "/>
<text text-anchor="middle" x="322.72" y="-422.3" font-family="Times,serif" font-size="14.00">phaidra&#45;ssl&#45;chronos&#45;1</text>
</g>
<!-- C_CHRONOS&#45;&#45;HS_DATABASE_DUMPS -->
<g id="edge23" class="edge">
<title>C_CHRONOS&#45;&#45;HS_DATABASE_DUMPS</title>
<path fill="none" stroke="turquoise" d="M324.34,-444.03C328.8,-569.76 358,-1312.6 427.72,-1381 496.08,-1448.06 607.18,-1452.05 693.51,-1442"/>
</g>
<!-- C_CHRONOS&#45;&#45;HS_SITEMAPS -->
<g id="edge24" class="edge">
<title>C_CHRONOS&#45;&#45;HS_SITEMAPS</title>
<path fill="none" stroke="turquoise" d="M324.79,-444.04C331.64,-556.58 370.81,-1159.44 427.72,-1216 442.64,-1230.83 459.62,-1242.8 477.95,-1252.39"/>
</g>
<!-- C_CHRONOS&#45;&#45;HS_OAI_LOGS -->
<g id="edge25" class="edge">
<title>C_CHRONOS&#45;&#45;HS_OAI_LOGS</title>
<path fill="none" stroke="turquoise" d="M324.51,-444.24C329.89,-565.13 363.06,-1248.1 427.72,-1311 495.87,-1377.29 605.85,-1381.73 691.84,-1372.04"/>
</g>
<!-- C_CHRONOS&#45;&#45;BIND_CHRONOS -->
<g id="edge26" class="edge">
<title>C_CHRONOS&#45;&#45;BIND_CHRONOS</title>
<path fill="none" stroke="blue" d="M324.31,-444.27C327.52,-531.64 345.95,-905.74 427.72,-980 493.94,-1040.13 595.04,-1047.81 677.84,-1041.01"/>
</g>
<!-- C_CHRONOS&#45;&#45;C_API -->
<g id="edge50" class="edge">
<title>C_CHRONOS&#45;&#45;C_API</title>
<path fill="none" stroke="orange" d="M395.63,-407.98C406.34,-405.71 417.29,-403.62 427.72,-402 540.79,-384.42 673.84,-376.13 751.96,-372.51"/>
</g>
<!-- C_CHRONOS&#45;&#45;C_MARIADB_PHAIDRA -->
<g id="edge47" class="edge">
<title>C_CHRONOS&#45;&#45;C_MARIADB_PHAIDRA</title>
<path fill="none" stroke="orange" d="M407.92,-436.81C604.68,-460.21 1087.35,-506.2 1211.72,-412 1236.49,-393.24 1209.03,-366.24 1231.72,-345 1235.27,-341.68 1239.13,-338.75 1243.22,-336.14"/>
</g>
<!-- C_CHRONOS&#45;&#45;C_MONGODB_PHAIDRA -->
<g id="edge46" class="edge">
<title>C_CHRONOS&#45;&#45;C_MONGODB_PHAIDRA</title>
<path fill="none" stroke="orange" d="M407.92,-413.83C414.61,-413.12 421.27,-412.49 427.72,-412 449.44,-410.34 1195.09,-411.06 1211.72,-397 1248.34,-366.05 1198.46,-325.53 1231.72,-291 1234.94,-287.66 1238.48,-284.69 1242.27,-282.06"/>
</g>
<!-- C_CHRONOS&#45;&#45;C_SOLR -->
<g id="edge49" class="edge">
<title>C_CHRONOS&#45;&#45;C_SOLR</title>
<path fill="none" stroke="orange" d="M393.19,-407.88C398.48,-404.81 403.42,-401.21 407.72,-397 426.02,-379.11 406.9,-357.89 427.72,-343 463.16,-317.66 1179.17,-351.96 1211.72,-323 1258.68,-281.22 1189.14,-229.23 1231.72,-183 1244.44,-169.19 1262.64,-161.72 1280.97,-157.84"/>
</g>
<!-- C_CHRONOS&#45;&#45;C_MARIADB_FEDORA -->
<g id="edge48" class="edge">
<title>C_CHRONOS&#45;&#45;C_MARIADB_FEDORA</title>
<path fill="none" stroke="orange" d="M395.31,-408C399.94,-404.9 404.16,-401.26 407.72,-397 444.67,-352.84 389.28,-311.86 427.72,-269 674.84,6.54 864.81,-100.64 1231.72,-52 1284.37,-45.02 1422.98,-28.74 1470.72,-52 1494.06,-63.37 1488.24,-79.77 1506.72,-98 1532.46,-123.38 1565.97,-147.86 1589.31,-163.78"/>
</g>
<!-- WEBSERVER&#45;&#45;HS_SITEMAPS -->
<g id="edge22" class="edge">
<title>WEBSERVER&#45;&#45;HS_SITEMAPS</title>
<path fill="none" stroke="turquoise" d="M396.68,-388.05C400.87,-391.14 404.63,-394.77 407.72,-399 434.52,-435.65 397.27,-1182.33 427.72,-1216 442.29,-1232.11 459.26,-1244.98 477.81,-1255.16"/>
</g>
<!-- WEBSERVER&#45;&#45;BIND_HTTPD_CONFIG -->
<g id="edge18" class="edge">
<title>WEBSERVER&#45;&#45;BIND_HTTPD_CONFIG</title>
<path fill="none" stroke="blue" d="M396.49,-388.2C400.72,-391.26 404.54,-394.83 407.72,-399 448.42,-452.27 380.87,-652.06 427.72,-700 496.44,-770.31 611.86,-772.5 699.53,-761.01"/>
</g>
<!-- WEBSERVER&#45;&#45;BIND_HTTPD_KEY -->
<g id="edge19" class="edge">
<title>WEBSERVER&#45;&#45;BIND_HTTPD_KEY</title>
<path fill="none" stroke="blue" d="M396.02,-388C400.42,-391.11 404.4,-394.74 407.72,-399 439.41,-439.63 391.34,-593.51 427.72,-630 496.3,-698.77 609.68,-701.83 696.74,-691.02"/>
</g>
<!-- WEBSERVER&#45;&#45;BIND_HTTPD_CERT -->
<g id="edge20" class="edge">
<title>WEBSERVER&#45;&#45;BIND_HTTPD_CERT</title>
<path fill="none" stroke="blue" d="M396.59,-388.12C400.79,-391.2 404.58,-394.8 407.72,-399 437.09,-438.29 393.81,-804.56 427.72,-840 496.4,-911.77 613.62,-913.16 701.84,-901.05"/>
</g>
<!-- WEBSERVER&#45;&#45;BIND_DOCUMENTATION -->
<g id="edge21" class="edge">
<title>WEBSERVER&#45;&#45;BIND_DOCUMENTATION</title>
<path fill="none" stroke="blue" d="M396.55,-388.15C400.76,-391.22 404.56,-394.81 407.72,-399 432.58,-431.96 399.05,-740.3 427.72,-770 496.59,-841.35 613.48,-842.9 701.56,-830.95"/>
</g>
<!-- WEBSERVER&#45;&#45;C_FEDORA -->
<g id="edge40" class="edge">
<title>WEBSERVER&#45;&#45;C_FEDORA</title>
<path fill="none" stroke="magenta" d="M335.98,-351.83C353.26,-327.96 387.23,-286.95 427.72,-269 716.56,-140.94 1106.73,-174.95 1271.55,-197.5"/>
</g>
<!-- WEBSERVER&#45;&#45;C_API -->
<g id="edge41" class="edge">
<title>WEBSERVER&#45;&#45;C_API</title>
<path fill="none" stroke="magenta" d="M398.9,-370C495.05,-370 660.08,-370 751.98,-370"/>
</g>
<!-- WEBSERVER&#45;&#45;C_UI -->
<g id="edge42" class="edge">
<title>WEBSERVER&#45;&#45;C_UI</title>
<path fill="none" stroke="magenta" d="M324.65,-351.96C328.24,-303.45 345.51,-170.12 427.72,-114 567.29,-18.73 1103.48,-72.36 1287.67,-94.15"/>
</g>
<!-- WEBSERVER&#45;&#45;C_SOLR -->
<g id="edge43" class="edge">
<title>WEBSERVER&#45;&#45;C_SOLR</title>
<path fill="none" stroke="magenta" d="M326.89,-351.78C335.08,-310.86 361.2,-212.04 427.72,-171 569.76,-83.38 1091.76,-128.46 1281.07,-148.27"/>
</g>
<!-- WEBSERVER&#45;&#45;C_DBGATE -->
<g id="edge44" class="edge">
<title>WEBSERVER&#45;&#45;C_DBGATE</title>
<path fill="none" stroke="magenta" d="M360.86,-351.81C380.31,-343.11 404.8,-333.43 427.72,-328 532.93,-303.06 658.01,-296.75 737.86,-295.55"/>
</g>
<!-- WEBSERVER&#45;&#45;C_LAM -->
<g id="edge45" class="edge">
<title>WEBSERVER&#45;&#45;C_LAM</title>
<path fill="none" stroke="magenta" d="M323.19,-351.72C322.68,-296.01 329.63,-127.69 427.72,-55 571.31,51.41 1053.02,-38.11 1231.72,-36 1337.94,-34.75 1365.23,-23.57 1470.72,-36 1499.03,-39.33 1529.79,-46.17 1555.78,-52.93"/>
</g>
</g>
</svg>
