<?xml version="1.0" encoding="UTF-8" standalone="no"?>
<!DOCTYPE svg PUBLIC "-//W3C//DTD SVG 1.1//EN"
 "http://www.w3.org/Graphics/SVG/1.1/DTD/svg11.dtd">
<!-- Generated by graphviz version 2.43.0 (0)
 -->
<!-- Title: G Pages: 1 -->
<svg width="2023pt" height="1503pt"
 viewBox="0.00 0.00 2022.72 1503.00" xmlns="http://www.w3.org/2000/svg" xmlns:xlink="http://www.w3.org/1999/xlink">
<g id="graph0" class="graph" transform="scale(1 1) rotate(0) translate(4 1499)">
<title>G</title>
<polygon fill="white" stroke="transparent" points="-4,4 -4,-1499 2018.72,-1499 2018.72,4 -4,4"/>
<g id="clust1" class="cluster">
<title>cluster_host</title>
<polygon fill="none" stroke="red" points="8,-8 8,-1487 2006.72,-1487 2006.72,-8 8,-8"/>
<text text-anchor="middle" x="1007.36" y="-1471.8" font-family="Times,serif" font-size="14.00">PHAIDRA server firewall</text>
</g>
<g id="clust2" class="cluster">
<title>cluster_host_storage</title>
<polygon fill="none" stroke="blue" points="237.72,-463 237.72,-1456 1084.72,-1456 1084.72,-463 237.72,-463"/>
<text text-anchor="middle" x="661.22" y="-1440.8" font-family="Times,serif" font-size="14.00">PHAIDRA server filesystem</text>
</g>
<g id="clust3" class="cluster">
<title>cluster_named_volumes</title>
<polygon fill="none" stroke="turquoise" points="245.72,-471 245.72,-1186 1076.72,-1186 1076.72,-471 245.72,-471"/>
<text text-anchor="middle" x="661.22" y="-1170.8" font-family="Times,serif" font-size="14.00">Named volumes</text>
</g>
<g id="clust4" class="cluster">
<title>cluster_bind_mounts</title>
<polygon fill="none" stroke="blue" points="338.22,-1194 338.22,-1425 984.22,-1425 984.22,-1194 338.22,-1194"/>
<text text-anchor="middle" x="661.22" y="-1409.8" font-family="Times,serif" font-size="14.00">Bind mounts</text>
</g>
<g id="clust5" class="cluster">
<title>cluster_docker_network_host</title>
<polygon fill="none" stroke="green" points="545.72,-16 545.72,-455 1998.72,-455 1998.72,-16 545.72,-16"/>
<text text-anchor="middle" x="1272.22" y="-439.8" font-family="Times,serif" font-size="14.00">PHAIDRA docker containers</text>
</g>
<!-- USER -->
<g id="node1" class="node">
<title>USER</title>
<polygon fill="none" stroke="black" points="209.59,-182.54 209.59,-197.46 155.27,-208 78.45,-208 24.13,-197.46 24.13,-182.54 78.45,-172 155.27,-172 209.59,-182.54"/>
<polygon fill="none" stroke="black" points="213.59,-179.25 213.59,-200.75 155.66,-212 78.07,-212 20.13,-200.75 20.13,-179.25 78.07,-168 155.66,-168 213.59,-179.25"/>
<polygon fill="none" stroke="black" points="217.58,-175.95 217.58,-204.05 156.04,-216 77.68,-216 16.14,-204.05 16.14,-175.95 77.68,-164 156.04,-164 217.58,-175.95"/>
<text text-anchor="middle" x="116.86" y="-186.3" font-family="Times,serif" font-size="14.00">PHAIDRA USER</text>
</g>
<!-- WEBSERVER -->
<g id="node26" class="node">
<title>WEBSERVER</title>
<polygon fill="none" stroke="green" points="768.72,-208 553.72,-208 553.72,-204 549.72,-204 549.72,-200 553.72,-200 553.72,-180 549.72,-180 549.72,-176 553.72,-176 553.72,-172 768.72,-172 768.72,-208"/>
<polyline fill="none" stroke="green" points="553.72,-204 557.72,-204 557.72,-200 553.72,-200 "/>
<polyline fill="none" stroke="green" points="553.72,-180 557.72,-180 557.72,-176 553.72,-176 "/>
<text text-anchor="middle" x="661.22" y="-186.3" font-family="Times,serif" font-size="14.00">phaidra&#45;demo&#45;httpd&#45;nginx&#45;1</text>
</g>
<!-- USER&#45;&#45;WEBSERVER -->
<g id="edge35" class="edge">
<title>USER&#45;&#45;WEBSERVER</title>
<path fill="none" stroke="red" d="M217.65,-190C312.96,-190 456.11,-190 553.62,-190"/>
</g>
<!-- HS_FEDORA -->
<g id="node2" class="node">
<title>HS_FEDORA</title>
<polygon fill="none" stroke="turquoise" points="1003.72,-713 1000.72,-717 979.72,-717 976.72,-713 318.72,-713 318.72,-619 1003.72,-619 1003.72,-713"/>
<text text-anchor="start" x="331.22" y="-694.8" font-family="Times,serif" font-weight="bold" font-size="14.00">host:</text>
<text text-anchor="start" x="490.22" y="-693.8" font-family="Times,serif" font-size="14.00">$HOME/.local/share/docker/volumes/phaidra&#45;demo&#45;httpd_fedora/_data</text>
<text text-anchor="start" x="331.22" y="-672.8" font-family="Times,serif" font-size="14.00">fedora&#45;container:</text>
<text text-anchor="start" x="490.22" y="-672.8" font-family="Times,serif" font-size="14.00">/usr/local/tomcat/fcrepo&#45;home</text>
<text text-anchor="start" x="331.22" y="-651.8" font-family="Times,serif" font-size="14.00">pixelgecko&#45;container:</text>
<text text-anchor="start" x="490.22" y="-651.8" font-family="Times,serif" font-size="14.00"> /mnt/fedora:ro</text>
<text text-anchor="start" x="331.22" y="-630.8" font-family="Times,serif" font-size="14.00">api&#45;container:</text>
<text text-anchor="start" x="490.22" y="-630.8" font-family="Times,serif" font-size="14.00"> /mnt/fedora:ro</text>
</g>
<!-- C_FEDORA -->
<g id="node14" class="node">
<title>C_FEDORA</title>
<g id="a_node14"><a xlink:href="https://fedora.lyrasis.org/" xlink:title="phaidra&#45;demo&#45;httpd&#45;fedora&#45;1">
<polygon fill="none" stroke="green" points="1628.72,-154 1406.72,-154 1406.72,-150 1402.72,-150 1402.72,-146 1406.72,-146 1406.72,-126 1402.72,-126 1402.72,-122 1406.72,-122 1406.72,-118 1628.72,-118 1628.72,-154"/>
<polyline fill="none" stroke="green" points="1406.72,-150 1410.72,-150 1410.72,-146 1406.72,-146 "/>
<polyline fill="none" stroke="green" points="1406.72,-126 1410.72,-126 1410.72,-122 1406.72,-122 "/>
<text text-anchor="middle" x="1517.72" y="-132.3" font-family="Times,serif" font-size="14.00">phaidra&#45;demo&#45;httpd&#45;fedora&#45;1</text>
</a>
</g>
</g>
<!-- HS_FEDORA&#45;&#45;C_FEDORA -->
<g id="edge1" class="edge">
<title>HS_FEDORA&#45;&#45;C_FEDORA</title>
<path fill="none" stroke="turquoise" d="M1003.8,-661.71C1033.84,-649.76 1061.56,-633.01 1084.72,-610 1130.55,-564.45 1069.56,-520.21 1104.72,-466 1169.16,-366.68 1262.34,-421.64 1330.72,-325 1373.33,-264.79 1313.52,-214.08 1366.72,-163 1377.89,-152.28 1391.78,-145.05 1406.58,-140.27"/>
</g>
<!-- C_API -->
<g id="node15" class="node">
<title>C_API</title>
<g id="a_node15"><a xlink:href="https://github.com/phaidra/phaidra-api" xlink:title="phaidra&#45;demo&#45;httpd&#45;api&#45;1">
<polygon fill="none" stroke="green" points="1316.72,-316 1118.72,-316 1118.72,-312 1114.72,-312 1114.72,-308 1118.72,-308 1118.72,-288 1114.72,-288 1114.72,-284 1118.72,-284 1118.72,-280 1316.72,-280 1316.72,-316"/>
<polyline fill="none" stroke="green" points="1118.72,-312 1122.72,-312 1122.72,-308 1118.72,-308 "/>
<polyline fill="none" stroke="green" points="1118.72,-288 1122.72,-288 1122.72,-284 1118.72,-284 "/>
<text text-anchor="middle" x="1217.72" y="-294.3" font-family="Times,serif" font-size="14.00">phaidra&#45;demo&#45;httpd&#45;api&#45;1</text>
</a>
</g>
</g>
<!-- HS_FEDORA&#45;&#45;C_API -->
<g id="edge3" class="edge">
<title>HS_FEDORA&#45;&#45;C_API</title>
<path fill="none" stroke="turquoise" d="M1003.92,-662.53C1034.03,-650.45 1061.74,-633.45 1084.72,-610 1112.59,-581.58 1089.07,-468.6 1104.72,-432 1125.22,-384.05 1168.74,-340.04 1195.08,-316.33"/>
</g>
<!-- C_PIXELGECKO -->
<g id="node22" class="node">
<title>C_PIXELGECKO</title>
<polygon fill="none" stroke="green" points="1973.72,-424 1721.72,-424 1721.72,-420 1717.72,-420 1717.72,-416 1721.72,-416 1721.72,-396 1717.72,-396 1717.72,-392 1721.72,-392 1721.72,-388 1973.72,-388 1973.72,-424"/>
<polyline fill="none" stroke="green" points="1721.72,-420 1725.72,-420 1725.72,-416 1721.72,-416 "/>
<polyline fill="none" stroke="green" points="1721.72,-396 1725.72,-396 1725.72,-392 1721.72,-392 "/>
<text text-anchor="middle" x="1847.72" y="-402.3" font-family="Times,serif" font-size="14.00">phaidra&#45;demo&#45;httpd&#45;pixelgecko&#45;1</text>
</g>
<!-- HS_FEDORA&#45;&#45;C_PIXELGECKO -->
<g id="edge11" class="edge">
<title>HS_FEDORA&#45;&#45;C_PIXELGECKO</title>
<path fill="none" stroke="turquoise" d="M1003.84,-624.59C1031.28,-620.09 1058.51,-615.22 1084.72,-610 1351.66,-556.81 1663.41,-463.25 1789.49,-424.06"/>
</g>
<!-- HS_API_LOGS -->
<g id="node3" class="node">
<title>HS_API_LOGS</title>
<polygon fill="none" stroke="turquoise" points="982.72,-601 979.72,-605 958.72,-605 955.72,-601 339.72,-601 339.72,-549 982.72,-549 982.72,-601"/>
<text text-anchor="start" x="352.22" y="-582.8" font-family="Times,serif" font-weight="bold" font-size="14.00">host:</text>
<text text-anchor="start" x="457.22" y="-581.8" font-family="Times,serif" font-size="14.00">$HOME/.local/share/docker/volumes/phaidra&#45;demo&#45;httpd_api_logs/_data</text>
<text text-anchor="start" x="352.22" y="-560.8" font-family="Times,serif" font-size="14.00">api&#45;container:</text>
<text text-anchor="start" x="457.22" y="-560.8" font-family="Times,serif" font-size="14.00">/var/log/phaidra</text>
</g>
<!-- HS_API_LOGS&#45;&#45;C_API -->
<g id="edge2" class="edge">
<title>HS_API_LOGS&#45;&#45;C_API</title>
<path fill="none" stroke="turquoise" d="M784.58,-601.03C878.37,-613.33 1004.88,-612.2 1084.72,-540 1120.93,-507.26 1083.94,-476.17 1104.72,-432 1127.05,-384.54 1170.35,-340.03 1196.08,-316.16"/>
</g>
<!-- HS_MARIADB_PHAIDRA -->
<g id="node4" class="node">
<title>HS_MARIADB_PHAIDRA</title>
<polygon fill="none" stroke="turquoise" points="1062.72,-923 1059.72,-927 1038.72,-927 1035.72,-923 259.72,-923 259.72,-871 1062.72,-871 1062.72,-923"/>
<text text-anchor="start" x="272.22" y="-904.8" font-family="Times,serif" font-weight="bold" font-size="14.00">host:</text>
<text text-anchor="start" x="474.22" y="-903.8" font-family="Times,serif" font-size="14.00">$HOME/.local/share/docker/volumes/phaidra&#45;demo&#45;httpd_mariadb_phaidra/_data</text>
<text text-anchor="start" x="272.22" y="-882.8" font-family="Times,serif" font-size="14.00">mariadb&#45;phaidra&#45;container:</text>
<text text-anchor="start" x="474.22" y="-882.8" font-family="Times,serif" font-size="14.00">/var/lib/mysql</text>
</g>
<!-- C_MARIADB_PHAIDRA -->
<g id="node16" class="node">
<title>C_MARIADB_PHAIDRA</title>
<g id="a_node16"><a xlink:href="https://mariadb.org/" xlink:title="phaidra&#45;demo&#45;httpd&#45;mariadb&#45;phaidra&#45;1">
<polygon fill="none" stroke="green" points="1665.22,-316 1370.22,-316 1370.22,-312 1366.22,-312 1366.22,-308 1370.22,-308 1370.22,-288 1366.22,-288 1366.22,-284 1370.22,-284 1370.22,-280 1665.22,-280 1665.22,-316"/>
<polyline fill="none" stroke="green" points="1370.22,-312 1374.22,-312 1374.22,-308 1370.22,-308 "/>
<polyline fill="none" stroke="green" points="1370.22,-288 1374.22,-288 1374.22,-284 1370.22,-284 "/>
<text text-anchor="middle" x="1517.72" y="-294.3" font-family="Times,serif" font-size="14.00">phaidra&#45;demo&#45;httpd&#45;mariadb&#45;phaidra&#45;1</text>
</a>
</g>
</g>
<!-- HS_MARIADB_PHAIDRA&#45;&#45;C_MARIADB_PHAIDRA -->
<g id="edge5" class="edge">
<title>HS_MARIADB_PHAIDRA&#45;&#45;C_MARIADB_PHAIDRA</title>
<path fill="none" stroke="turquoise" d="M1062.99,-876.63C1071.95,-872.37 1079.32,-867.52 1084.72,-862 1135.19,-810.46 1057.85,-592.83 1104.72,-538 1171.57,-459.81 1257.99,-560.76 1330.72,-488 1383.17,-435.53 1313.24,-376.42 1366.72,-325 1370.16,-321.7 1373.85,-318.73 1377.74,-316.06"/>
</g>
<!-- HS_MONGODB_PHAIDRA -->
<g id="node5" class="node">
<title>HS_MONGODB_PHAIDRA</title>
<polygon fill="none" stroke="turquoise" points="1068.72,-853 1065.72,-857 1044.72,-857 1041.72,-853 253.72,-853 253.72,-801 1068.72,-801 1068.72,-853"/>
<text text-anchor="start" x="266.22" y="-834.8" font-family="Times,serif" font-weight="bold" font-size="14.00">host:</text>
<text text-anchor="start" x="474.22" y="-833.8" font-family="Times,serif" font-size="14.00">$HOME/.local/share/docker/volumes/phaidra&#45;demo&#45;httpd_mongodb_phaidra/_data</text>
<text text-anchor="start" x="266.22" y="-812.8" font-family="Times,serif" font-size="14.00">phaidra&#45;mongodb&#45;container:</text>
<text text-anchor="start" x="474.22" y="-812.8" font-family="Times,serif" font-size="14.00">/data/db</text>
</g>
<!-- C_MONGODB_PHAIDRA -->
<g id="node17" class="node">
<title>C_MONGODB_PHAIDRA</title>
<g id="a_node17"><a xlink:href="https://www.mongodb.com/" xlink:title="phaidra&#45;demo&#45;httpd&#45;mongodb&#45;phaidra&#45;1">
<polygon fill="none" stroke="green" points="1668.72,-262 1366.72,-262 1366.72,-258 1362.72,-258 1362.72,-254 1366.72,-254 1366.72,-234 1362.72,-234 1362.72,-230 1366.72,-230 1366.72,-226 1668.72,-226 1668.72,-262"/>
<polyline fill="none" stroke="green" points="1366.72,-258 1370.72,-258 1370.72,-254 1366.72,-254 "/>
<polyline fill="none" stroke="green" points="1366.72,-234 1370.72,-234 1370.72,-230 1366.72,-230 "/>
<text text-anchor="middle" x="1517.72" y="-240.3" font-family="Times,serif" font-size="14.00">phaidra&#45;demo&#45;httpd&#45;mongodb&#45;phaidra&#45;1</text>
</a>
</g>
</g>
<!-- HS_MONGODB_PHAIDRA&#45;&#45;C_MONGODB_PHAIDRA -->
<g id="edge6" class="edge">
<title>HS_MONGODB_PHAIDRA&#45;&#45;C_MONGODB_PHAIDRA</title>
<path fill="none" stroke="turquoise" d="M1068.76,-803.59C1075.14,-800.1 1080.52,-796.25 1084.72,-792 1127.98,-748.29 1065.98,-563.76 1104.72,-516 1170.57,-434.83 1259.93,-527.89 1330.72,-451 1385.98,-390.98 1308.48,-328.13 1366.72,-271 1370.03,-267.76 1373.58,-264.83 1377.34,-262.2"/>
</g>
<!-- HS_OPENLDAP -->
<g id="node6" class="node">
<title>HS_OPENLDAP</title>
<polygon fill="none" stroke="turquoise" points="1007.72,-993 1004.72,-997 983.72,-997 980.72,-993 314.72,-993 314.72,-941 1007.72,-941 1007.72,-993"/>
<text text-anchor="start" x="327.22" y="-974.8" font-family="Times,serif" font-weight="bold" font-size="14.00">host:</text>
<text text-anchor="start" x="475.22" y="-973.8" font-family="Times,serif" font-size="14.00">$HOME/.local/share/docker/volumes/phaidra&#45;demo&#45;httpd_openldap/_data</text>
<text text-anchor="start" x="327.22" y="-952.8" font-family="Times,serif" font-size="14.00">openldap&#45;container:</text>
<text text-anchor="start" x="475.22" y="-952.8" font-family="Times,serif" font-size="14.00">/bitnami/openldap</text>
</g>
<!-- C_OPENLDAP -->
<g id="node19" class="node">
<title>C_OPENLDAP</title>
<g id="a_node19"><a xlink:href="https://www.openldap.org/" xlink:title="phaidra&#45;demo&#45;httpd&#45;openldap&#45;1">
<polygon fill="none" stroke="green" points="1638.72,-424 1396.72,-424 1396.72,-420 1392.72,-420 1392.72,-416 1396.72,-416 1396.72,-396 1392.72,-396 1392.72,-392 1396.72,-392 1396.72,-388 1638.72,-388 1638.72,-424"/>
<polyline fill="none" stroke="green" points="1396.72,-420 1400.72,-420 1400.72,-416 1396.72,-416 "/>
<polyline fill="none" stroke="green" points="1396.72,-396 1400.72,-396 1400.72,-392 1396.72,-392 "/>
<text text-anchor="middle" x="1517.72" y="-402.3" font-family="Times,serif" font-size="14.00">phaidra&#45;demo&#45;httpd&#45;openldap&#45;1</text>
</a>
</g>
</g>
<!-- HS_OPENLDAP&#45;&#45;C_OPENLDAP -->
<g id="edge7" class="edge">
<title>HS_OPENLDAP&#45;&#45;C_OPENLDAP</title>
<path fill="none" stroke="turquoise" d="M770.78,-993.06C867.23,-1009.09 1004.95,-1013.29 1084.72,-932 1133.54,-882.25 1064.11,-675.64 1104.72,-619 1168.02,-530.73 1234.46,-576.32 1330.72,-526 1391.17,-494.4 1457.21,-448.93 1492.03,-424.02"/>
</g>
<!-- HS_SOLR -->
<g id="node7" class="node">
<title>HS_SOLR</title>
<polygon fill="none" stroke="turquoise" points="969.72,-783 966.72,-787 945.72,-787 942.72,-783 352.72,-783 352.72,-731 969.72,-731 969.72,-783"/>
<text text-anchor="start" x="365.22" y="-764.8" font-family="Times,serif" font-weight="bold" font-size="14.00">host:</text>
<text text-anchor="start" x="475.22" y="-763.8" font-family="Times,serif" font-size="14.00">$HOME/.local/share/docker/volumes/phaidra&#45;demo&#45;httpd_solr/_data</text>
<text text-anchor="start" x="365.22" y="-742.8" font-family="Times,serif" font-size="14.00">solr&#45;container:</text>
<text text-anchor="start" x="475.22" y="-742.8" font-family="Times,serif" font-size="14.00">/var/solr</text>
</g>
<!-- C_SOLR -->
<g id="node20" class="node">
<title>C_SOLR</title>
<g id="a_node20"><a xlink:href="https://solr.apache.org/" xlink:title="phaidra&#45;demo&#45;httpd&#45;solr&#45;1">
<polygon fill="none" stroke="green" points="1619.22,-208 1416.22,-208 1416.22,-204 1412.22,-204 1412.22,-200 1416.22,-200 1416.22,-180 1412.22,-180 1412.22,-176 1416.22,-176 1416.22,-172 1619.22,-172 1619.22,-208"/>
<polyline fill="none" stroke="green" points="1416.22,-204 1420.22,-204 1420.22,-200 1416.22,-200 "/>
<polyline fill="none" stroke="green" points="1416.22,-180 1420.22,-180 1420.22,-176 1416.22,-176 "/>
<text text-anchor="middle" x="1517.72" y="-186.3" font-family="Times,serif" font-size="14.00">phaidra&#45;demo&#45;httpd&#45;solr&#45;1</text>
</a>
</g>
</g>
<!-- HS_SOLR&#45;&#45;C_SOLR -->
<g id="edge9" class="edge">
<title>HS_SOLR&#45;&#45;C_SOLR</title>
<path fill="none" stroke="turquoise" d="M773.14,-783.07C869.15,-798.42 1004.79,-801.58 1084.72,-722 1120.92,-685.96 1074.47,-534.16 1104.72,-493 1169.04,-405.48 1261.81,-483.95 1330.72,-400 1383.31,-335.93 1307.64,-275.14 1366.72,-217 1380.11,-203.82 1397.61,-195.88 1415.92,-191.28"/>
</g>
<!-- HS_PIXELGECKO -->
<g id="node8" class="node">
<title>HS_PIXELGECKO</title>
<polygon fill="none" stroke="turquoise" points="1025.22,-1084.5 1022.22,-1088.5 1001.22,-1088.5 998.22,-1084.5 297.22,-1084.5 297.22,-1011.5 1025.22,-1011.5 1025.22,-1084.5"/>
<text text-anchor="start" x="309.22" y="-1065.8" font-family="Times,serif" font-weight="bold" font-size="14.00">host:</text>
<text text-anchor="start" x="481.22" y="-1064.8" font-family="Times,serif" font-size="14.00">$HOME/.local/share/docker/volumes/phaidra&#45;demo&#45;httpd_pixelgecko/_data</text>
<text text-anchor="start" x="309.22" y="-1043.8" font-family="Times,serif" font-size="14.00">pixelgecko&#45;container:</text>
<text text-anchor="start" x="481.22" y="-1043.8" font-family="Times,serif" font-size="14.00">/mnt/converted_images</text>
<text text-anchor="start" x="309.22" y="-1022.8" font-family="Times,serif" font-size="14.00">imageserver&#45;container:</text>
<text text-anchor="start" x="481.22" y="-1022.8" font-family="Times,serif" font-size="14.00">/mnt/converted_images:ro</text>
</g>
<!-- C_IMAGESERVER -->
<g id="node21" class="node">
<title>C_IMAGESERVER</title>
<g id="a_node21"><a xlink:href="https://github.com/ruven/iipsrv" xlink:title="phaidra&#45;demo&#45;httpd&#45;imageserver&#45;1">
<polygon fill="none" stroke="green" points="1650.72,-370 1384.72,-370 1384.72,-366 1380.72,-366 1380.72,-362 1384.72,-362 1384.72,-342 1380.72,-342 1380.72,-338 1384.72,-338 1384.72,-334 1650.72,-334 1650.72,-370"/>
<polyline fill="none" stroke="green" points="1384.72,-366 1388.72,-366 1388.72,-362 1384.72,-362 "/>
<polyline fill="none" stroke="green" points="1384.72,-342 1388.72,-342 1388.72,-338 1384.72,-338 "/>
<text text-anchor="middle" x="1517.72" y="-348.3" font-family="Times,serif" font-size="14.00">phaidra&#45;demo&#45;httpd&#45;imageserver&#45;1</text>
</a>
</g>
</g>
<!-- HS_PIXELGECKO&#45;&#45;C_IMAGESERVER -->
<g id="edge10" class="edge">
<title>HS_PIXELGECKO&#45;&#45;C_IMAGESERVER</title>
<path fill="none" stroke="turquoise" d="M1025.47,-1045.35C1047.38,-1034.43 1067.49,-1020.23 1084.72,-1002 1113.99,-971.03 1080.61,-654.14 1104.72,-619 1166.97,-528.28 1259.68,-602.01 1330.72,-518 1371.93,-469.27 1319.93,-422.39 1366.72,-379 1372.15,-373.96 1378.19,-369.7 1384.64,-366.11"/>
</g>
<!-- HS_PIXELGECKO&#45;&#45;C_PIXELGECKO -->
<g id="edge12" class="edge">
<title>HS_PIXELGECKO&#45;&#45;C_PIXELGECKO</title>
<path fill="none" stroke="turquoise" d="M1025.4,-1021.97C1045.76,-1016.35 1065.67,-1009.75 1084.72,-1002 1434.4,-859.85 1757.41,-507.92 1831.06,-424.12"/>
</g>
<!-- HS_DBGATE -->
<g id="node9" class="node">
<title>HS_DBGATE</title>
<polygon fill="none" stroke="turquoise" points="992.22,-531 989.22,-535 968.22,-535 965.22,-531 330.22,-531 330.22,-479 992.22,-479 992.22,-531"/>
<text text-anchor="start" x="342.22" y="-512.8" font-family="Times,serif" font-weight="bold" font-size="14.00">host:</text>
<text text-anchor="start" x="475.22" y="-511.8" font-family="Times,serif" font-size="14.00">$HOME/.local/share/docker/volumes/phaidra&#45;demo&#45;httpd_dbgate/_data</text>
<text text-anchor="start" x="342.22" y="-490.8" font-family="Times,serif" font-size="14.00">dbgate&#45;container:</text>
<text text-anchor="start" x="475.22" y="-490.8" font-family="Times,serif" font-size="14.00">/root/.dbgate</text>
</g>
<!-- C_DBGATE -->
<g id="node23" class="node">
<title>C_DBGATE</title>
<polygon fill="none" stroke="green" points="1330.72,-262 1104.72,-262 1104.72,-258 1100.72,-258 1100.72,-254 1104.72,-254 1104.72,-234 1100.72,-234 1100.72,-230 1104.72,-230 1104.72,-226 1330.72,-226 1330.72,-262"/>
<polyline fill="none" stroke="green" points="1104.72,-258 1108.72,-258 1108.72,-254 1104.72,-254 "/>
<polyline fill="none" stroke="green" points="1104.72,-234 1108.72,-234 1108.72,-230 1104.72,-230 "/>
<text text-anchor="middle" x="1217.72" y="-240.3" font-family="Times,serif" font-size="14.00">phaidra&#45;demo&#45;httpd&#45;dbgate&#45;1</text>
</g>
<!-- HS_DBGATE&#45;&#45;C_DBGATE -->
<g id="edge13" class="edge">
<title>HS_DBGATE&#45;&#45;C_DBGATE</title>
<path fill="none" stroke="turquoise" d="M807.23,-531C899.25,-538.57 1013.92,-529.98 1084.72,-459 1114.39,-429.26 1077.02,-302.58 1104.72,-271 1107.62,-267.69 1110.85,-264.75 1114.33,-262.14"/>
</g>
<!-- HS_MARIADB_FEDORA -->
<g id="node10" class="node">
<title>HS_MARIADB_FEDORA</title>
<polygon fill="none" stroke="turquoise" points="1053.72,-1155 1050.72,-1159 1029.72,-1159 1026.72,-1155 268.72,-1155 268.72,-1103 1053.72,-1103 1053.72,-1155"/>
<text text-anchor="start" x="281.22" y="-1136.8" font-family="Times,serif" font-weight="bold" font-size="14.00">host:</text>
<text text-anchor="start" x="474.22" y="-1135.8" font-family="Times,serif" font-size="14.00">$HOME/.local/share/docker/volumes/phaidra&#45;demo&#45;httpd_mariadb_fedora/_data</text>
<text text-anchor="start" x="281.22" y="-1114.8" font-family="Times,serif" font-size="14.00">mariadb&#45;fedora&#45;container:</text>
<text text-anchor="start" x="474.22" y="-1114.8" font-family="Times,serif" font-size="14.00">/var/lib/mysql</text>
</g>
<!-- C_MARIADB_FEDORA -->
<g id="node25" class="node">
<title>C_MARIADB_FEDORA</title>
<g id="a_node25"><a xlink:href="https://mariadb.org/" xlink:title="phaidra&#45;demo&#45;httpd&#45;mariadb&#45;fedora&#45;1">
<polygon fill="none" stroke="green" points="1990.72,-154 1704.72,-154 1704.72,-150 1700.72,-150 1700.72,-146 1704.72,-146 1704.72,-126 1700.72,-126 1700.72,-122 1704.72,-122 1704.72,-118 1990.72,-118 1990.72,-154"/>
<polyline fill="none" stroke="green" points="1704.72,-150 1708.72,-150 1708.72,-146 1704.72,-146 "/>
<polyline fill="none" stroke="green" points="1704.72,-126 1708.72,-126 1708.72,-122 1704.72,-122 "/>
<text text-anchor="middle" x="1847.72" y="-132.3" font-family="Times,serif" font-size="14.00">phaidra&#45;demo&#45;httpd&#45;mariadb&#45;fedora&#45;1</text>
</a>
</g>
</g>
<!-- HS_MARIADB_FEDORA&#45;&#45;C_MARIADB_FEDORA -->
<g id="edge14" class="edge">
<title>HS_MARIADB_FEDORA&#45;&#45;C_MARIADB_FEDORA</title>
<path fill="none" stroke="turquoise" d="M1053.78,-1107.71C1064.35,-1103.59 1074.69,-1099.03 1084.72,-1094 1435.13,-918.24 1437.21,-749.35 1668.72,-433 1706.44,-381.46 1804.19,-210.84 1836.32,-154.35"/>
</g>
<!-- BIND_MARIADB_PHAIDRA_INIT -->
<g id="node11" class="node">
<title>BIND_MARIADB_PHAIDRA_INIT</title>
<polygon fill="none" stroke="blue" points="976.22,-1324 973.22,-1328 952.22,-1328 949.22,-1324 346.22,-1324 346.22,-1272 976.22,-1272 976.22,-1324"/>
<text text-anchor="start" x="358.22" y="-1305.8" font-family="Times,serif" font-weight="bold" font-size="14.00">host:</text>
<text text-anchor="start" x="560.22" y="-1304.8" font-family="Times,serif" font-size="14.00">$REPO/container_components/mariadb/phaidradb.sql.gz</text>
<text text-anchor="start" x="358.22" y="-1283.8" font-family="Times,serif" font-size="14.00">mariadb&#45;phaidra&#45;container:</text>
<text text-anchor="start" x="560.22" y="-1283.8" font-family="Times,serif" font-size="14.00">/docker&#45;entrypoint&#45;initdb.d/phaidradb.sql.gz:ro</text>
</g>
<!-- BIND_MARIADB_PHAIDRA_INIT&#45;&#45;C_MARIADB_PHAIDRA -->
<g id="edge4" class="edge">
<title>BIND_MARIADB_PHAIDRA_INIT&#45;&#45;C_MARIADB_PHAIDRA</title>
<path fill="none" stroke="blue" d="M773.11,-1324.04C869.1,-1339.37 1004.72,-1342.52 1084.72,-1263 1120.32,-1227.61 1092.34,-1086.65 1104.72,-1038 1166.9,-793.8 1256.93,-758.95 1330.72,-518 1356.27,-434.57 1304.83,-386.51 1366.72,-325 1370.01,-321.74 1373.54,-318.79 1377.28,-316.14"/>
</g>
<!-- BIND_OPENLDAP_INIT -->
<g id="node12" class="node">
<title>BIND_OPENLDAP_INIT</title>
<polygon fill="none" stroke="blue" points="890.22,-1394 887.22,-1398 866.22,-1398 863.22,-1394 432.22,-1394 432.22,-1342 890.22,-1342 890.22,-1394"/>
<text text-anchor="start" x="444.22" y="-1375.8" font-family="Times,serif" font-weight="bold" font-size="14.00">host:</text>
<text text-anchor="start" x="592.22" y="-1374.8" font-family="Times,serif" font-size="14.00">$REPO/container_components/openldap</text>
<text text-anchor="start" x="444.22" y="-1353.8" font-family="Times,serif" font-size="14.00">openldap&#45;container:</text>
<text text-anchor="start" x="592.22" y="-1353.8" font-family="Times,serif" font-size="14.00">/ldifs:ro</text>
</g>
<!-- BIND_OPENLDAP_INIT&#45;&#45;C_OPENLDAP -->
<g id="edge8" class="edge">
<title>BIND_OPENLDAP_INIT&#45;&#45;C_OPENLDAP</title>
<path fill="none" stroke="blue" d="M890.48,-1391.06C958.02,-1387.34 1028.79,-1371.98 1084.72,-1333 1421.21,-1098.48 1502.19,-532.41 1514.79,-424.09"/>
</g>
<!-- BIND_APACHE_SERVER_CONFIG -->
<g id="node13" class="node">
<title>BIND_APACHE_SERVER_CONFIG</title>
<polygon fill="none" stroke="blue" points="937.22,-1254 934.22,-1258 913.22,-1258 910.22,-1254 385.22,-1254 385.22,-1202 937.22,-1202 937.22,-1254"/>
<text text-anchor="start" x="397.22" y="-1235.8" font-family="Times,serif" font-weight="bold" font-size="14.00">host:</text>
<text text-anchor="start" x="519.22" y="-1234.8" font-family="Times,serif" font-size="14.00">$REPO/webserver_configs/httpd&#45;docker/demo/httpd.conf</text>
<text text-anchor="start" x="397.22" y="-1213.8" font-family="Times,serif" font-size="14.00">httpd&#45;container:</text>
<text text-anchor="start" x="519.22" y="-1213.8" font-family="Times,serif" font-size="14.00">/usr/local/apache2/conf/httpd.conf</text>
</g>
<!-- C_FEDORA&#45;&#45;C_MARIADB_FEDORA -->
<g id="edge16" class="edge">
<title>C_FEDORA&#45;&#45;C_MARIADB_FEDORA</title>
<path fill="none" stroke="orange" d="M1628.85,-136C1653.14,-136 1679.2,-136 1704.55,-136"/>
</g>
<!-- C_API&#45;&#45;C_FEDORA -->
<g id="edge17" class="edge">
<title>C_API&#45;&#45;C_FEDORA</title>
<path fill="none" stroke="orange" d="M1316.92,-281.06C1321.87,-278.19 1326.52,-274.86 1330.72,-271 1367.99,-236.78 1328.47,-196.12 1366.72,-163 1378.12,-153.13 1391.89,-146.31 1406.39,-141.68"/>
</g>
<!-- C_API&#45;&#45;C_MARIADB_PHAIDRA -->
<g id="edge18" class="edge">
<title>C_API&#45;&#45;C_MARIADB_PHAIDRA</title>
<path fill="none" stroke="orange" d="M1317.12,-298C1334.16,-298 1352.2,-298 1370.19,-298"/>
</g>
<!-- C_API&#45;&#45;C_MONGODB_PHAIDRA -->
<g id="edge19" class="edge">
<title>C_API&#45;&#45;C_MONGODB_PHAIDRA</title>
<path fill="none" stroke="orange" d="M1317.03,-280.03C1333.62,-277.01 1350.66,-273.91 1366.72,-271 1382.73,-268.1 1399.71,-265.03 1416.26,-262.05"/>
</g>
<!-- C_UI -->
<g id="node18" class="node">
<title>C_UI</title>
<g id="a_node18"><a xlink:href="https://github.com/phaidra/phaidra-ui" xlink:title="phaidra&#45;demo&#45;httpd&#45;ui&#45;1">
<polygon fill="none" stroke="green" points="1612.72,-80 1422.72,-80 1422.72,-76 1418.72,-76 1418.72,-72 1422.72,-72 1422.72,-52 1418.72,-52 1418.72,-48 1422.72,-48 1422.72,-44 1612.72,-44 1612.72,-80"/>
<polyline fill="none" stroke="green" points="1422.72,-76 1426.72,-76 1426.72,-72 1422.72,-72 "/>
<polyline fill="none" stroke="green" points="1422.72,-52 1426.72,-52 1426.72,-48 1422.72,-48 "/>
<text text-anchor="middle" x="1517.72" y="-58.3" font-family="Times,serif" font-size="14.00">phaidra&#45;demo&#45;httpd&#45;ui&#45;1</text>
</a>
</g>
</g>
<!-- C_API&#45;&#45;C_UI -->
<g id="edge20" class="edge">
<title>C_API&#45;&#45;C_UI</title>
<path fill="none" stroke="orange" d="M1316.89,-281.88C1321.92,-278.81 1326.59,-275.21 1330.72,-271 1382.41,-218.38 1316.83,-163.32 1366.72,-109 1381.49,-92.92 1401.68,-82.3 1422.45,-75.3"/>
</g>
<!-- C_API&#45;&#45;C_OPENLDAP -->
<g id="edge21" class="edge">
<title>C_API&#45;&#45;C_OPENLDAP</title>
<path fill="none" stroke="orange" d="M1245.3,-316.01C1274.01,-334.61 1321.7,-363.1 1366.72,-379 1376.33,-382.39 1386.44,-385.37 1396.68,-387.99"/>
</g>
<!-- C_API&#45;&#45;C_SOLR -->
<g id="edge22" class="edge">
<title>C_API&#45;&#45;C_SOLR</title>
<path fill="none" stroke="orange" d="M1315.24,-279.93C1320.67,-277.34 1325.88,-274.38 1330.72,-271 1354.37,-254.48 1342.6,-232.82 1366.72,-217 1381.44,-207.35 1398.63,-200.89 1416.02,-196.62"/>
</g>
<!-- C_API&#45;&#45;C_IMAGESERVER -->
<g id="edge23" class="edge">
<title>C_API&#45;&#45;C_IMAGESERVER</title>
<path fill="none" stroke="orange" d="M1317.03,-315.97C1333.62,-318.99 1350.66,-322.09 1366.72,-325 1382.73,-327.9 1399.71,-330.97 1416.26,-333.95"/>
</g>
<!-- C_MONGODB_PHAIDRA&#45;&#45;C_PIXELGECKO -->
<g id="edge24" class="edge">
<title>C_MONGODB_PHAIDRA&#45;&#45;C_PIXELGECKO</title>
<path fill="none" stroke="orange" d="M1644.47,-262.03C1652.81,-264.62 1660.97,-267.6 1668.72,-271 1734.78,-299.99 1798.81,-358.12 1828.89,-387.74"/>
</g>
<!-- C_LAM -->
<g id="node24" class="node">
<title>C_LAM</title>
<polygon fill="none" stroke="green" points="1949.22,-80 1746.22,-80 1746.22,-76 1742.22,-76 1742.22,-72 1746.22,-72 1746.22,-52 1742.22,-52 1742.22,-48 1746.22,-48 1746.22,-44 1949.22,-44 1949.22,-80"/>
<polyline fill="none" stroke="green" points="1746.22,-76 1750.22,-76 1750.22,-72 1746.22,-72 "/>
<polyline fill="none" stroke="green" points="1746.22,-52 1750.22,-52 1750.22,-48 1746.22,-48 "/>
<text text-anchor="middle" x="1847.72" y="-58.3" font-family="Times,serif" font-size="14.00">phaidra&#45;demo&#45;httpd&#45;lam&#45;1</text>
</g>
<!-- C_OPENLDAP&#45;&#45;C_LAM -->
<g id="edge25" class="edge">
<title>C_OPENLDAP&#45;&#45;C_LAM</title>
<path fill="none" stroke="orange" d="M1638.96,-399.07C1650.08,-394.31 1660.31,-387.8 1668.72,-379 1752.35,-291.47 1627.49,-202.23 1704.72,-109 1715.57,-95.9 1730.17,-86.43 1745.88,-79.59"/>
</g>
<!-- C_DBGATE&#45;&#45;C_MARIADB_PHAIDRA -->
<g id="edge26" class="edge">
<title>C_DBGATE&#45;&#45;C_MARIADB_PHAIDRA</title>
<path fill="none" stroke="orange" d="M1317.43,-262.04C1333.89,-265.04 1350.79,-268.11 1366.72,-271 1382.73,-273.9 1399.71,-276.97 1416.26,-279.95"/>
</g>
<!-- C_DBGATE&#45;&#45;C_MONGODB_PHAIDRA -->
<g id="edge27" class="edge">
<title>C_DBGATE&#45;&#45;C_MONGODB_PHAIDRA</title>
<path fill="none" stroke="orange" d="M1330.96,-244C1342.59,-244 1354.54,-244 1366.5,-244"/>
</g>
<!-- C_DBGATE&#45;&#45;C_MARIADB_FEDORA -->
<g id="edge28" class="edge">
<title>C_DBGATE&#45;&#45;C_MARIADB_FEDORA</title>
<path fill="none" stroke="orange" d="M1231.23,-225.98C1253.97,-195.02 1305.43,-132.75 1366.72,-109 1429.3,-84.75 1601.8,-103.95 1668.72,-109 1693.81,-110.89 1720.72,-114.26 1745.83,-118"/>
</g>
<!-- WEBSERVER&#45;&#45;BIND_APACHE_SERVER_CONFIG -->
<g id="edge15" class="edge">
<title>WEBSERVER&#45;&#45;BIND_APACHE_SERVER_CONFIG</title>
<path fill="none" stroke="blue" d="M597.02,-208.09C493.88,-241.24 295.95,-322.8 227.72,-476 219.75,-493.89 219.75,-1163.11 227.72,-1181 242.7,-1214.63 308.85,-1229.49 385.14,-1234.99"/>
</g>
<!-- WEBSERVER&#45;&#45;C_FEDORA -->
<g id="edge29" class="edge">
<title>WEBSERVER&#45;&#45;C_FEDORA</title>
<path fill="none" stroke="magenta" d="M769.15,-183.24C932.27,-172.93 1241.66,-153.38 1406.64,-142.96"/>
</g>
<!-- WEBSERVER&#45;&#45;C_API -->
<g id="edge30" class="edge">
<title>WEBSERVER&#45;&#45;C_API</title>
<path fill="none" stroke="magenta" d="M754.72,-208.02C857.17,-227.97 1021.4,-259.96 1123.96,-279.93"/>
</g>
<!-- WEBSERVER&#45;&#45;C_UI -->
<g id="edge31" class="edge">
<title>WEBSERVER&#45;&#45;C_UI</title>
<path fill="none" stroke="magenta" d="M769.15,-173.98C937.64,-148.74 1262.2,-100.13 1422.47,-76.12"/>
</g>
<!-- WEBSERVER&#45;&#45;C_SOLR -->
<g id="edge32" class="edge">
<title>WEBSERVER&#45;&#45;C_SOLR</title>
<path fill="none" stroke="magenta" d="M769.15,-190C935.4,-190 1253.6,-190 1415.99,-190"/>
</g>
<!-- WEBSERVER&#45;&#45;C_DBGATE -->
<g id="edge33" class="edge">
<title>WEBSERVER&#45;&#45;C_DBGATE</title>
<path fill="none" stroke="magenta" d="M768.81,-200.38C865.07,-209.75 1006.26,-223.5 1104.29,-233.05"/>
</g>
<!-- WEBSERVER&#45;&#45;C_LAM -->
<g id="edge34" class="edge">
<title>WEBSERVER&#45;&#45;C_LAM</title>
<path fill="none" stroke="magenta" d="M737.64,-171.96C825.6,-151.08 975.46,-115.97 1104.72,-88 1220.84,-62.88 1248.51,-46.84 1366.72,-35 1500.28,-21.63 1534.88,-24.91 1668.72,-35 1693.81,-36.89 1720.72,-40.26 1745.83,-44"/>
</g>
</g>
</svg>
