<?xml version="1.0" encoding="UTF-8" standalone="no"?>
<!DOCTYPE svg PUBLIC "-//W3C//DTD SVG 1.1//EN"
 "http://www.w3.org/Graphics/SVG/1.1/DTD/svg11.dtd">
<!-- Generated by graphviz version 2.43.0 (0)
 -->
<!-- Title: G Pages: 1 -->
<svg width="2056pt" height="2001pt"
 viewBox="0.00 0.00 2055.72 2001.25" xmlns="http://www.w3.org/2000/svg" xmlns:xlink="http://www.w3.org/1999/xlink">
<g id="graph0" class="graph" transform="scale(1 1) rotate(0) translate(4 1997.25)">
<title>G</title>
<polygon fill="white" stroke="transparent" points="-4,4 -4,-1997.25 2051.72,-1997.25 2051.72,4 -4,4"/>
<g id="clust1" class="cluster">
<title>cluster_host</title>
<polygon fill="none" stroke="red" points="221.72,-16.25 221.72,-1985.25 2039.72,-1985.25 2039.72,-16.25 221.72,-16.25"/>
<text text-anchor="middle" x="1130.72" y="-1970.05" font-family="Times,serif" font-size="14.00">PHAIDRA server firewall</text>
</g>
<g id="clust2" class="cluster">
<title>cluster_host_storage</title>
<polygon fill="none" stroke="blue" points="487.72,-471.25 487.72,-1954.25 1349.72,-1954.25 1349.72,-471.25 487.72,-471.25"/>
<text text-anchor="middle" x="918.72" y="-1939.05" font-family="Times,serif" font-size="14.00">PHAIDRA server filesystem</text>
</g>
<g id="clust3" class="cluster">
<title>cluster_named_volumes</title>
<polygon fill="none" stroke="turquoise" points="495.72,-1208.25 495.72,-1923.25 1341.72,-1923.25 1341.72,-1208.25 495.72,-1208.25"/>
<text text-anchor="middle" x="918.72" y="-1908.05" font-family="Times,serif" font-size="14.00">Named volumes</text>
</g>
<g id="clust4" class="cluster">
<title>cluster_bind_mounts</title>
<polygon fill="none" stroke="blue" points="595.72,-479.25 595.72,-1200.25 1241.72,-1200.25 1241.72,-479.25 595.72,-479.25"/>
<text text-anchor="middle" x="918.72" y="-1185.05" font-family="Times,serif" font-size="14.00">Bind mounts</text>
</g>
<g id="clust5" class="cluster">
<title>cluster_docker_network_host</title>
<polygon fill="none" stroke="green" points="229.72,-24.25 229.72,-463.25 2031.72,-463.25 2031.72,-24.25 229.72,-24.25"/>
<text text-anchor="middle" x="1130.72" y="-448.05" font-family="Times,serif" font-size="14.00">PHAIDRA docker containers</text>
</g>
<!-- USER -->
<g id="node1" class="node">
<title>USER</title>
<polygon fill="none" stroke="black" points="193.59,-406.8 193.59,-421.71 139.27,-432.25 62.45,-432.25 8.13,-421.71 8.13,-406.8 62.45,-396.25 139.27,-396.25 193.59,-406.8"/>
<polygon fill="none" stroke="black" points="197.59,-403.5 197.59,-425.01 139.66,-436.25 62.07,-436.25 4.13,-425.01 4.13,-403.5 62.07,-392.25 139.66,-392.25 197.59,-403.5"/>
<polygon fill="none" stroke="black" points="201.58,-400.2 201.58,-428.31 140.04,-440.25 61.68,-440.25 0.14,-428.31 0.14,-400.2 61.68,-388.25 140.04,-388.25 201.58,-400.2"/>
<text text-anchor="middle" x="100.86" y="-410.55" font-family="Times,serif" font-size="14.00">PHAIDRA USER</text>
</g>
<!-- WEBSERVER -->
<g id="node33" class="node">
<title>WEBSERVER</title>
<polygon fill="none" stroke="green" points="467.72,-432.25 237.72,-432.25 237.72,-428.25 233.72,-428.25 233.72,-424.25 237.72,-424.25 237.72,-404.25 233.72,-404.25 233.72,-400.25 237.72,-400.25 237.72,-396.25 467.72,-396.25 467.72,-432.25"/>
<polyline fill="none" stroke="green" points="237.72,-428.25 241.72,-428.25 241.72,-424.25 237.72,-424.25 "/>
<polyline fill="none" stroke="green" points="237.72,-404.25 241.72,-404.25 241.72,-400.25 237.72,-400.25 "/>
<text text-anchor="middle" x="352.72" y="-410.55" font-family="Times,serif" font-size="14.00">phaidra&#45;ssl&#45;shib&#45;httpd&#45;httpd&#45;1</text>
</g>
<!-- USER&#45;&#45;WEBSERVER -->
<g id="edge42" class="edge">
<title>USER&#45;&#45;WEBSERVER</title>
<path fill="none" stroke="red" d="M201.69,-414.25C213.52,-414.25 225.65,-414.25 237.66,-414.25"/>
</g>
<!-- HS_FEDORA -->
<g id="node2" class="node">
<title>HS_FEDORA</title>
<polygon fill="none" stroke="turquoise" points="1268.72,-1590.25 1265.72,-1594.25 1244.72,-1594.25 1241.72,-1590.25 568.72,-1590.25 568.72,-1496.25 1268.72,-1496.25 1268.72,-1590.25"/>
<text text-anchor="start" x="580.72" y="-1572.05" font-family="Times,serif" font-weight="bold" font-size="14.00">host:</text>
<text text-anchor="start" x="739.72" y="-1571.05" font-family="Times,serif" font-size="14.00">$HOME/.local/share/docker/volumes/phaidra&#45;ssl&#45;shib&#45;httpd_fedora/_data</text>
<text text-anchor="start" x="580.72" y="-1550.05" font-family="Times,serif" font-size="14.00">fedora&#45;container:</text>
<text text-anchor="start" x="739.72" y="-1550.05" font-family="Times,serif" font-size="14.00">/usr/local/tomcat/fcrepo&#45;home</text>
<text text-anchor="start" x="580.72" y="-1529.05" font-family="Times,serif" font-size="14.00">pixelgecko&#45;container:</text>
<text text-anchor="start" x="739.72" y="-1529.05" font-family="Times,serif" font-size="14.00"> /mnt/fedora:ro</text>
<text text-anchor="start" x="580.72" y="-1508.05" font-family="Times,serif" font-size="14.00">api&#45;container:</text>
<text text-anchor="start" x="739.72" y="-1508.05" font-family="Times,serif" font-size="14.00"> /mnt/fedora:ro</text>
</g>
<!-- C_FEDORA -->
<g id="node21" class="node">
<title>C_FEDORA</title>
<g id="a_node21"><a xlink:href="https://fedora.lyrasis.org/" xlink:title="phaidra&#45;ssl&#45;shib&#45;httpd&#45;fedora&#45;1">
<polygon fill="none" stroke="green" points="1646.72,-142.25 1409.72,-142.25 1409.72,-138.25 1405.72,-138.25 1405.72,-134.25 1409.72,-134.25 1409.72,-114.25 1405.72,-114.25 1405.72,-110.25 1409.72,-110.25 1409.72,-106.25 1646.72,-106.25 1646.72,-142.25"/>
<polyline fill="none" stroke="green" points="1409.72,-138.25 1413.72,-138.25 1413.72,-134.25 1409.72,-134.25 "/>
<polyline fill="none" stroke="green" points="1409.72,-114.25 1413.72,-114.25 1413.72,-110.25 1409.72,-110.25 "/>
<text text-anchor="middle" x="1528.22" y="-120.55" font-family="Times,serif" font-size="14.00">phaidra&#45;ssl&#45;shib&#45;httpd&#45;fedora&#45;1</text>
</a>
</g>
</g>
<!-- HS_FEDORA&#45;&#45;C_FEDORA -->
<g id="edge1" class="edge">
<title>HS_FEDORA&#45;&#45;C_FEDORA</title>
<path fill="none" stroke="turquoise" d="M1268.84,-1543.26C1299.43,-1530.57 1327.24,-1512.47 1349.72,-1487.25 1399.12,-1431.85 1321.45,-207.64 1369.72,-151.25 1380.28,-138.92 1394.23,-130.82 1409.48,-125.65"/>
</g>
<!-- C_API -->
<g id="node22" class="node">
<title>C_API</title>
<g id="a_node22"><a xlink:href="https://github.com/phaidra/phaidra-api" xlink:title="phaidra&#45;ssl&#45;shib&#45;httpd&#45;api&#45;1">
<polygon fill="none" stroke="green" points="1025.22,-324.25 812.22,-324.25 812.22,-320.25 808.22,-320.25 808.22,-316.25 812.22,-316.25 812.22,-296.25 808.22,-296.25 808.22,-292.25 812.22,-292.25 812.22,-288.25 1025.22,-288.25 1025.22,-324.25"/>
<polyline fill="none" stroke="green" points="812.22,-320.25 816.22,-320.25 816.22,-316.25 812.22,-316.25 "/>
<polyline fill="none" stroke="green" points="812.22,-296.25 816.22,-296.25 816.22,-292.25 812.22,-292.25 "/>
<text text-anchor="middle" x="918.72" y="-302.55" font-family="Times,serif" font-size="14.00">phaidra&#45;ssl&#45;shib&#45;httpd&#45;api&#45;1</text>
</a>
</g>
</g>
<!-- HS_FEDORA&#45;&#45;C_API -->
<g id="edge3" class="edge">
<title>HS_FEDORA&#45;&#45;C_API</title>
<path fill="none" stroke="turquoise" d="M568.66,-1560.53C528.89,-1545.24 496.06,-1519.43 477.72,-1478.25 464.88,-1449.43 464.88,-371.08 477.72,-342.25 504.31,-282.56 690.31,-286.31 812.12,-295.54"/>
</g>
<!-- C_PIXELGECKO -->
<g id="node29" class="node">
<title>C_PIXELGECKO</title>
<polygon fill="none" stroke="green" points="2006.72,-432.25 1739.72,-432.25 1739.72,-428.25 1735.72,-428.25 1735.72,-424.25 1739.72,-424.25 1739.72,-404.25 1735.72,-404.25 1735.72,-400.25 1739.72,-400.25 1739.72,-396.25 2006.72,-396.25 2006.72,-432.25"/>
<polyline fill="none" stroke="green" points="1739.72,-428.25 1743.72,-428.25 1743.72,-424.25 1739.72,-424.25 "/>
<polyline fill="none" stroke="green" points="1739.72,-404.25 1743.72,-404.25 1743.72,-400.25 1739.72,-400.25 "/>
<text text-anchor="middle" x="1873.22" y="-410.55" font-family="Times,serif" font-size="14.00">phaidra&#45;ssl&#45;shib&#45;httpd&#45;pixelgecko&#45;1</text>
</g>
<!-- HS_FEDORA&#45;&#45;C_PIXELGECKO -->
<g id="edge11" class="edge">
<title>HS_FEDORA&#45;&#45;C_PIXELGECKO</title>
<path fill="none" stroke="turquoise" d="M1268.89,-1536.48C1298.53,-1524.86 1326.14,-1508.87 1349.72,-1487.25 1380.25,-1459.27 1355.73,-1435.23 1369.72,-1396.25 1517.09,-985.74 1799.96,-528.42 1860.6,-432.49"/>
</g>
<!-- HS_API_LOGS -->
<g id="node3" class="node">
<title>HS_API_LOGS</title>
<polygon fill="none" stroke="turquoise" points="1247.72,-1338.25 1244.72,-1342.25 1223.72,-1342.25 1220.72,-1338.25 589.72,-1338.25 589.72,-1286.25 1247.72,-1286.25 1247.72,-1338.25"/>
<text text-anchor="start" x="601.72" y="-1320.05" font-family="Times,serif" font-weight="bold" font-size="14.00">host:</text>
<text text-anchor="start" x="706.72" y="-1319.05" font-family="Times,serif" font-size="14.00">$HOME/.local/share/docker/volumes/phaidra&#45;ssl&#45;shib&#45;httpd_api_logs/_data</text>
<text text-anchor="start" x="601.72" y="-1298.05" font-family="Times,serif" font-size="14.00">api&#45;container:</text>
<text text-anchor="start" x="706.72" y="-1298.05" font-family="Times,serif" font-size="14.00">/var/log/phaidra</text>
</g>
<!-- HS_API_LOGS&#45;&#45;C_API -->
<g id="edge2" class="edge">
<title>HS_API_LOGS&#45;&#45;C_API</title>
<path fill="none" stroke="turquoise" d="M589.71,-1317.31C533.75,-1309.84 489.68,-1295.09 477.72,-1268.25 467.26,-1244.76 467.26,-365.75 477.72,-342.25 504.31,-282.56 690.31,-286.31 812.12,-295.54"/>
</g>
<!-- HS_MARIADB_PHAIDRA -->
<g id="node4" class="node">
<title>HS_MARIADB_PHAIDRA</title>
<polygon fill="none" stroke="turquoise" points="1327.72,-1660.25 1324.72,-1664.25 1303.72,-1664.25 1300.72,-1660.25 509.72,-1660.25 509.72,-1608.25 1327.72,-1608.25 1327.72,-1660.25"/>
<text text-anchor="start" x="521.72" y="-1642.05" font-family="Times,serif" font-weight="bold" font-size="14.00">host:</text>
<text text-anchor="start" x="723.72" y="-1641.05" font-family="Times,serif" font-size="14.00">$HOME/.local/share/docker/volumes/phaidra&#45;ssl&#45;shib&#45;httpd_mariadb_phaidra/_data</text>
<text text-anchor="start" x="521.72" y="-1620.05" font-family="Times,serif" font-size="14.00">mariadb&#45;phaidra&#45;container:</text>
<text text-anchor="start" x="723.72" y="-1620.05" font-family="Times,serif" font-size="14.00">/var/lib/mysql</text>
</g>
<!-- C_MARIADB_PHAIDRA -->
<g id="node23" class="node">
<title>C_MARIADB_PHAIDRA</title>
<g id="a_node23"><a xlink:href="https://mariadb.org/" xlink:title="phaidra&#45;ssl&#45;shib&#45;httpd&#45;mariadb&#45;phaidra&#45;1">
<polygon fill="none" stroke="green" points="1683.22,-324.25 1373.22,-324.25 1373.22,-320.25 1369.22,-320.25 1369.22,-316.25 1373.22,-316.25 1373.22,-296.25 1369.22,-296.25 1369.22,-292.25 1373.22,-292.25 1373.22,-288.25 1683.22,-288.25 1683.22,-324.25"/>
<polyline fill="none" stroke="green" points="1373.22,-320.25 1377.22,-320.25 1377.22,-316.25 1373.22,-316.25 "/>
<polyline fill="none" stroke="green" points="1373.22,-296.25 1377.22,-296.25 1377.22,-292.25 1373.22,-292.25 "/>
<text text-anchor="middle" x="1528.22" y="-302.55" font-family="Times,serif" font-size="14.00">phaidra&#45;ssl&#45;shib&#45;httpd&#45;mariadb&#45;phaidra&#45;1</text>
</a>
</g>
</g>
<!-- HS_MARIADB_PHAIDRA&#45;&#45;C_MARIADB_PHAIDRA -->
<g id="edge5" class="edge">
<title>HS_MARIADB_PHAIDRA&#45;&#45;C_MARIADB_PHAIDRA</title>
<path fill="none" stroke="turquoise" d="M1327.93,-1614.43C1336.96,-1610.03 1344.35,-1604.99 1349.72,-1599.25 1397.81,-1547.91 1323.96,-386.67 1369.72,-333.25 1372.52,-329.99 1375.56,-327.02 1378.79,-324.32"/>
</g>
<!-- HS_MONGODB_PHAIDRA -->
<g id="node5" class="node">
<title>HS_MONGODB_PHAIDRA</title>
<polygon fill="none" stroke="turquoise" points="1333.72,-1478.25 1330.72,-1482.25 1309.72,-1482.25 1306.72,-1478.25 503.72,-1478.25 503.72,-1426.25 1333.72,-1426.25 1333.72,-1478.25"/>
<text text-anchor="start" x="515.72" y="-1460.05" font-family="Times,serif" font-weight="bold" font-size="14.00">host:</text>
<text text-anchor="start" x="723.72" y="-1459.05" font-family="Times,serif" font-size="14.00">$HOME/.local/share/docker/volumes/phaidra&#45;ssl&#45;shib&#45;httpd_mongodb_phaidra/_data</text>
<text text-anchor="start" x="515.72" y="-1438.05" font-family="Times,serif" font-size="14.00">phaidra&#45;mongodb&#45;container:</text>
<text text-anchor="start" x="723.72" y="-1438.05" font-family="Times,serif" font-size="14.00">/data/db</text>
</g>
<!-- C_MONGODB_PHAIDRA -->
<g id="node24" class="node">
<title>C_MONGODB_PHAIDRA</title>
<g id="a_node24"><a xlink:href="https://www.mongodb.com/" xlink:title="phaidra&#45;ssl&#45;shib&#45;httpd&#45;mongodb&#45;phaidra&#45;1">
<polygon fill="none" stroke="green" points="1686.72,-270.25 1369.72,-270.25 1369.72,-266.25 1365.72,-266.25 1365.72,-262.25 1369.72,-262.25 1369.72,-242.25 1365.72,-242.25 1365.72,-238.25 1369.72,-238.25 1369.72,-234.25 1686.72,-234.25 1686.72,-270.25"/>
<polyline fill="none" stroke="green" points="1369.72,-266.25 1373.72,-266.25 1373.72,-262.25 1369.72,-262.25 "/>
<polyline fill="none" stroke="green" points="1369.72,-242.25 1373.72,-242.25 1373.72,-238.25 1369.72,-238.25 "/>
<text text-anchor="middle" x="1528.22" y="-248.55" font-family="Times,serif" font-size="14.00">phaidra&#45;ssl&#45;shib&#45;httpd&#45;mongodb&#45;phaidra&#45;1</text>
</a>
</g>
</g>
<!-- HS_MONGODB_PHAIDRA&#45;&#45;C_MONGODB_PHAIDRA -->
<g id="edge6" class="edge">
<title>HS_MONGODB_PHAIDRA&#45;&#45;C_MONGODB_PHAIDRA</title>
<path fill="none" stroke="turquoise" d="M1333.79,-1429.34C1340.19,-1425.71 1345.56,-1421.69 1349.72,-1417.25 1392.99,-1371.14 1328.54,-327.23 1369.72,-279.25 1372.52,-275.99 1375.56,-273.02 1378.8,-270.33"/>
</g>
<!-- HS_OPENLDAP -->
<g id="node6" class="node">
<title>HS_OPENLDAP</title>
<polygon fill="none" stroke="turquoise" points="1272.72,-1730.25 1269.72,-1734.25 1248.72,-1734.25 1245.72,-1730.25 564.72,-1730.25 564.72,-1678.25 1272.72,-1678.25 1272.72,-1730.25"/>
<text text-anchor="start" x="576.72" y="-1712.05" font-family="Times,serif" font-weight="bold" font-size="14.00">host:</text>
<text text-anchor="start" x="724.72" y="-1711.05" font-family="Times,serif" font-size="14.00">$HOME/.local/share/docker/volumes/phaidra&#45;ssl&#45;shib&#45;httpd_openldap/_data</text>
<text text-anchor="start" x="576.72" y="-1690.05" font-family="Times,serif" font-size="14.00">openldap&#45;container:</text>
<text text-anchor="start" x="724.72" y="-1690.05" font-family="Times,serif" font-size="14.00">/bitnami/openldap</text>
</g>
<!-- C_OPENLDAP -->
<g id="node26" class="node">
<title>C_OPENLDAP</title>
<g id="a_node26"><a xlink:href="https://www.openldap.org/" xlink:title="phaidra&#45;ssl&#45;shib&#45;httpd&#45;openldap&#45;1">
<polygon fill="none" stroke="green" points="1656.72,-378.25 1399.72,-378.25 1399.72,-374.25 1395.72,-374.25 1395.72,-370.25 1399.72,-370.25 1399.72,-350.25 1395.72,-350.25 1395.72,-346.25 1399.72,-346.25 1399.72,-342.25 1656.72,-342.25 1656.72,-378.25"/>
<polyline fill="none" stroke="green" points="1399.72,-374.25 1403.72,-374.25 1403.72,-370.25 1399.72,-370.25 "/>
<polyline fill="none" stroke="green" points="1399.72,-350.25 1403.72,-350.25 1403.72,-346.25 1399.72,-346.25 "/>
<text text-anchor="middle" x="1528.22" y="-356.55" font-family="Times,serif" font-size="14.00">phaidra&#45;ssl&#45;shib&#45;httpd&#45;openldap&#45;1</text>
</a>
</g>
</g>
<!-- HS_OPENLDAP&#45;&#45;C_OPENLDAP -->
<g id="edge7" class="edge">
<title>HS_OPENLDAP&#45;&#45;C_OPENLDAP</title>
<path fill="none" stroke="turquoise" d="M1273.15,-1701.12C1308.02,-1694.38 1335.71,-1684.22 1349.72,-1669.25 1398.41,-1617.26 1323.38,-441.35 1369.72,-387.25 1377.93,-377.67 1388.2,-370.63 1399.54,-365.55"/>
</g>
<!-- HS_SOLR -->
<g id="node7" class="node">
<title>HS_SOLR</title>
<polygon fill="none" stroke="turquoise" points="1234.72,-1268.25 1231.72,-1272.25 1210.72,-1272.25 1207.72,-1268.25 602.72,-1268.25 602.72,-1216.25 1234.72,-1216.25 1234.72,-1268.25"/>
<text text-anchor="start" x="614.72" y="-1250.05" font-family="Times,serif" font-weight="bold" font-size="14.00">host:</text>
<text text-anchor="start" x="724.72" y="-1249.05" font-family="Times,serif" font-size="14.00">$HOME/.local/share/docker/volumes/phaidra&#45;ssl&#45;shib&#45;httpd_solr/_data</text>
<text text-anchor="start" x="614.72" y="-1228.05" font-family="Times,serif" font-size="14.00">solr&#45;container:</text>
<text text-anchor="start" x="724.72" y="-1228.05" font-family="Times,serif" font-size="14.00">/var/solr</text>
</g>
<!-- C_SOLR -->
<g id="node27" class="node">
<title>C_SOLR</title>
<g id="a_node27"><a xlink:href="https://solr.apache.org/" xlink:title="phaidra&#45;ssl&#45;shib&#45;httpd&#45;solr&#45;1">
<polygon fill="none" stroke="green" points="1637.22,-196.25 1419.22,-196.25 1419.22,-192.25 1415.22,-192.25 1415.22,-188.25 1419.22,-188.25 1419.22,-168.25 1415.22,-168.25 1415.22,-164.25 1419.22,-164.25 1419.22,-160.25 1637.22,-160.25 1637.22,-196.25"/>
<polyline fill="none" stroke="green" points="1419.22,-192.25 1423.22,-192.25 1423.22,-188.25 1419.22,-188.25 "/>
<polyline fill="none" stroke="green" points="1419.22,-168.25 1423.22,-168.25 1423.22,-164.25 1419.22,-164.25 "/>
<text text-anchor="middle" x="1528.22" y="-174.55" font-family="Times,serif" font-size="14.00">phaidra&#45;ssl&#45;shib&#45;httpd&#45;solr&#45;1</text>
</a>
</g>
</g>
<!-- HS_SOLR&#45;&#45;C_SOLR -->
<g id="edge9" class="edge">
<title>HS_SOLR&#45;&#45;C_SOLR</title>
<path fill="none" stroke="turquoise" d="M1234.8,-1242.56C1287.32,-1236.12 1330.89,-1224.41 1349.72,-1204.25 1386.86,-1164.51 1336.77,-268.54 1369.72,-225.25 1382.08,-209.02 1399.82,-198.19 1418.97,-191"/>
</g>
<!-- HS_PIXELGECKO -->
<g id="node8" class="node">
<title>HS_PIXELGECKO</title>
<polygon fill="none" stroke="turquoise" points="1290.22,-1821.75 1287.22,-1825.75 1266.22,-1825.75 1263.22,-1821.75 547.22,-1821.75 547.22,-1748.75 1290.22,-1748.75 1290.22,-1821.75"/>
<text text-anchor="start" x="559.72" y="-1803.05" font-family="Times,serif" font-weight="bold" font-size="14.00">host:</text>
<text text-anchor="start" x="731.72" y="-1802.05" font-family="Times,serif" font-size="14.00">$HOME/.local/share/docker/volumes/phaidra&#45;ssl&#45;shib&#45;httpd_pixelgecko/_data</text>
<text text-anchor="start" x="559.72" y="-1781.05" font-family="Times,serif" font-size="14.00">pixelgecko&#45;container:</text>
<text text-anchor="start" x="731.72" y="-1781.05" font-family="Times,serif" font-size="14.00">/mnt/converted_images</text>
<text text-anchor="start" x="559.72" y="-1760.05" font-family="Times,serif" font-size="14.00">imageserver&#45;container:</text>
<text text-anchor="start" x="731.72" y="-1760.05" font-family="Times,serif" font-size="14.00">/mnt/converted_images:ro</text>
</g>
<!-- C_IMAGESERVER -->
<g id="node28" class="node">
<title>C_IMAGESERVER</title>
<g id="a_node28"><a xlink:href="https://github.com/ruven/iipsrv" xlink:title="phaidra&#45;ssl&#45;shib&#45;httpd&#45;imageserver&#45;1">
<polygon fill="none" stroke="green" points="1668.72,-432.25 1387.72,-432.25 1387.72,-428.25 1383.72,-428.25 1383.72,-424.25 1387.72,-424.25 1387.72,-404.25 1383.72,-404.25 1383.72,-400.25 1387.72,-400.25 1387.72,-396.25 1668.72,-396.25 1668.72,-432.25"/>
<polyline fill="none" stroke="green" points="1387.72,-428.25 1391.72,-428.25 1391.72,-424.25 1387.72,-424.25 "/>
<polyline fill="none" stroke="green" points="1387.72,-404.25 1391.72,-404.25 1391.72,-400.25 1387.72,-400.25 "/>
<text text-anchor="middle" x="1528.22" y="-410.55" font-family="Times,serif" font-size="14.00">phaidra&#45;ssl&#45;shib&#45;httpd&#45;imageserver&#45;1</text>
</a>
</g>
</g>
<!-- HS_PIXELGECKO&#45;&#45;C_IMAGESERVER -->
<g id="edge10" class="edge">
<title>HS_PIXELGECKO&#45;&#45;C_IMAGESERVER</title>
<path fill="none" stroke="turquoise" d="M1290.24,-1782.68C1312.2,-1771.69 1332.37,-1757.46 1349.72,-1739.25 1376.06,-1711.61 1365.58,-1434.2 1369.72,-1396.25 1412.45,-1004.47 1504.19,-530.67 1523.58,-432.56"/>
</g>
<!-- HS_PIXELGECKO&#45;&#45;C_PIXELGECKO -->
<g id="edge12" class="edge">
<title>HS_PIXELGECKO&#45;&#45;C_PIXELGECKO</title>
<path fill="none" stroke="turquoise" d="M1290.37,-1770.89C1311.3,-1762.45 1331.29,-1752.03 1349.72,-1739.25 1827.86,-1407.93 1868.46,-566.63 1871.9,-432.43"/>
</g>
<!-- HS_DBGATE -->
<g id="node9" class="node">
<title>HS_DBGATE</title>
<polygon fill="none" stroke="turquoise" points="1257.22,-1408.25 1254.22,-1412.25 1233.22,-1412.25 1230.22,-1408.25 580.22,-1408.25 580.22,-1356.25 1257.22,-1356.25 1257.22,-1408.25"/>
<text text-anchor="start" x="592.72" y="-1390.05" font-family="Times,serif" font-weight="bold" font-size="14.00">host:</text>
<text text-anchor="start" x="725.72" y="-1389.05" font-family="Times,serif" font-size="14.00">$HOME/.local/share/docker/volumes/phaidra&#45;ssl&#45;shib&#45;httpd_dbgate/_data</text>
<text text-anchor="start" x="592.72" y="-1368.05" font-family="Times,serif" font-size="14.00">dbgate&#45;container:</text>
<text text-anchor="start" x="725.72" y="-1368.05" font-family="Times,serif" font-size="14.00">/root/.dbgate</text>
</g>
<!-- C_DBGATE -->
<g id="node30" class="node">
<title>C_DBGATE</title>
<polygon fill="none" stroke="green" points="1039.22,-378.25 798.22,-378.25 798.22,-374.25 794.22,-374.25 794.22,-370.25 798.22,-370.25 798.22,-350.25 794.22,-350.25 794.22,-346.25 798.22,-346.25 798.22,-342.25 1039.22,-342.25 1039.22,-378.25"/>
<polyline fill="none" stroke="green" points="798.22,-374.25 802.22,-374.25 802.22,-370.25 798.22,-370.25 "/>
<polyline fill="none" stroke="green" points="798.22,-350.25 802.22,-350.25 802.22,-346.25 798.22,-346.25 "/>
<text text-anchor="middle" x="918.72" y="-356.55" font-family="Times,serif" font-size="14.00">phaidra&#45;ssl&#45;shib&#45;httpd&#45;dbgate&#45;1</text>
</g>
<!-- HS_DBGATE&#45;&#45;C_DBGATE -->
<g id="edge13" class="edge">
<title>HS_DBGATE&#45;&#45;C_DBGATE</title>
<path fill="none" stroke="turquoise" d="M580.22,-1385.95C528.81,-1378.11 488.99,-1363.56 477.72,-1338.25 468.07,-1316.58 468.07,-505.92 477.72,-484.25 529.05,-369.01 686.09,-348.97 798.12,-350.41"/>
</g>
<!-- HS_MARIADB_FEDORA -->
<g id="node10" class="node">
<title>HS_MARIADB_FEDORA</title>
<polygon fill="none" stroke="turquoise" points="1318.72,-1892.25 1315.72,-1896.25 1294.72,-1896.25 1291.72,-1892.25 518.72,-1892.25 518.72,-1840.25 1318.72,-1840.25 1318.72,-1892.25"/>
<text text-anchor="start" x="530.72" y="-1874.05" font-family="Times,serif" font-weight="bold" font-size="14.00">host:</text>
<text text-anchor="start" x="723.72" y="-1873.05" font-family="Times,serif" font-size="14.00">$HOME/.local/share/docker/volumes/phaidra&#45;ssl&#45;shib&#45;httpd_mariadb_fedora/_data</text>
<text text-anchor="start" x="530.72" y="-1852.05" font-family="Times,serif" font-size="14.00">mariadb&#45;fedora&#45;container:</text>
<text text-anchor="start" x="723.72" y="-1852.05" font-family="Times,serif" font-size="14.00">/var/lib/mysql</text>
</g>
<!-- C_MARIADB_FEDORA -->
<g id="node32" class="node">
<title>C_MARIADB_FEDORA</title>
<g id="a_node32"><a xlink:href="https://mariadb.org/" xlink:title="phaidra&#45;ssl&#45;shib&#45;httpd&#45;mariadb&#45;fedora&#45;1">
<polygon fill="none" stroke="green" points="2023.72,-233.25 1722.72,-233.25 1722.72,-229.25 1718.72,-229.25 1718.72,-225.25 1722.72,-225.25 1722.72,-205.25 1718.72,-205.25 1718.72,-201.25 1722.72,-201.25 1722.72,-197.25 2023.72,-197.25 2023.72,-233.25"/>
<polyline fill="none" stroke="green" points="1722.72,-229.25 1726.72,-229.25 1726.72,-225.25 1722.72,-225.25 "/>
<polyline fill="none" stroke="green" points="1722.72,-205.25 1726.72,-205.25 1726.72,-201.25 1722.72,-201.25 "/>
<text text-anchor="middle" x="1873.22" y="-211.55" font-family="Times,serif" font-size="14.00">phaidra&#45;ssl&#45;shib&#45;httpd&#45;mariadb&#45;fedora&#45;1</text>
</a>
</g>
</g>
<!-- HS_MARIADB_FEDORA&#45;&#45;C_MARIADB_FEDORA -->
<g id="edge14" class="edge">
<title>HS_MARIADB_FEDORA&#45;&#45;C_MARIADB_FEDORA</title>
<path fill="none" stroke="turquoise" d="M1050.68,-1892.3C1144.51,-1903.03 1268.21,-1899.86 1349.72,-1831.25 1856.86,-1404.43 1414.19,-973.91 1722.72,-387.25 1756.51,-323 1818.68,-262.48 1851.17,-233.36"/>
</g>
<!-- BIND_MARIADB_PHAIDRA_INIT -->
<g id="node11" class="node">
<title>BIND_MARIADB_PHAIDRA_INIT</title>
<polygon fill="none" stroke="blue" points="1233.72,-1099.25 1230.72,-1103.25 1209.72,-1103.25 1206.72,-1099.25 603.72,-1099.25 603.72,-1047.25 1233.72,-1047.25 1233.72,-1099.25"/>
<text text-anchor="start" x="615.72" y="-1081.05" font-family="Times,serif" font-weight="bold" font-size="14.00">host:</text>
<text text-anchor="start" x="817.72" y="-1080.05" font-family="Times,serif" font-size="14.00">$REPO/container_components/mariadb/phaidradb.sql.gz</text>
<text text-anchor="start" x="615.72" y="-1059.05" font-family="Times,serif" font-size="14.00">mariadb&#45;phaidra&#45;container:</text>
<text text-anchor="start" x="817.72" y="-1059.05" font-family="Times,serif" font-size="14.00">/docker&#45;entrypoint&#45;initdb.d/phaidradb.sql.gz:ro</text>
</g>
<!-- BIND_MARIADB_PHAIDRA_INIT&#45;&#45;C_MARIADB_PHAIDRA -->
<g id="edge4" class="edge">
<title>BIND_MARIADB_PHAIDRA_INIT&#45;&#45;C_MARIADB_PHAIDRA</title>
<path fill="none" stroke="blue" d="M1233.79,-1075.82C1286.68,-1069.77 1330.65,-1058.36 1349.72,-1038.25 1403.65,-981.4 1318.36,-392.44 1369.72,-333.25 1372.54,-330.01 1375.59,-327.05 1378.85,-324.37"/>
</g>
<!-- BIND_OPENLDAP_INIT -->
<g id="node12" class="node">
<title>BIND_OPENLDAP_INIT</title>
<polygon fill="none" stroke="blue" points="1147.72,-1169.25 1144.72,-1173.25 1123.72,-1173.25 1120.72,-1169.25 689.72,-1169.25 689.72,-1117.25 1147.72,-1117.25 1147.72,-1169.25"/>
<text text-anchor="start" x="701.72" y="-1151.05" font-family="Times,serif" font-weight="bold" font-size="14.00">host:</text>
<text text-anchor="start" x="849.72" y="-1150.05" font-family="Times,serif" font-size="14.00">$REPO/container_components/openldap</text>
<text text-anchor="start" x="701.72" y="-1129.05" font-family="Times,serif" font-size="14.00">openldap&#45;container:</text>
<text text-anchor="start" x="849.72" y="-1129.05" font-family="Times,serif" font-size="14.00">/ldifs:ro</text>
</g>
<!-- BIND_OPENLDAP_INIT&#45;&#45;C_OPENLDAP -->
<g id="edge8" class="edge">
<title>BIND_OPENLDAP_INIT&#45;&#45;C_OPENLDAP</title>
<path fill="none" stroke="blue" d="M1023.32,-1169.3C1122.22,-1187.28 1267.92,-1194.55 1349.72,-1108.25 1404.86,-1050.09 1317.22,-447.8 1369.72,-387.25 1377.99,-377.72 1388.3,-370.72 1399.65,-365.65"/>
</g>
<!-- BIND_HTTPD_SITE_CONFIG -->
<g id="node13" class="node">
<title>BIND_HTTPD_SITE_CONFIG</title>
<polygon fill="none" stroke="blue" points="1214.22,-1029.25 1211.22,-1033.25 1190.22,-1033.25 1187.22,-1029.25 623.22,-1029.25 623.22,-977.25 1214.22,-977.25 1214.22,-1029.25"/>
<text text-anchor="start" x="635.72" y="-1011.05" font-family="Times,serif" font-weight="bold" font-size="14.00">host:</text>
<text text-anchor="start" x="757.72" y="-1010.05" font-family="Times,serif" font-size="14.00">$REPO/webserver_configs/httpd&#45;docker/ssl&#45;shib/httpd&#45;ssl.conf</text>
<text text-anchor="start" x="635.72" y="-989.05" font-family="Times,serif" font-size="14.00">httpd&#45;container:</text>
<text text-anchor="start" x="757.72" y="-989.05" font-family="Times,serif" font-size="14.00">/usr/local/apache2/conf/extra/httpd&#45;ssl.conf:ro</text>
</g>
<!-- BIND_HTTPD_SERVER_CONFIG -->
<g id="node14" class="node">
<title>BIND_HTTPD_SERVER_CONFIG</title>
<polygon fill="none" stroke="blue" points="1202.22,-959.25 1199.22,-963.25 1178.22,-963.25 1175.22,-959.25 635.22,-959.25 635.22,-907.25 1202.22,-907.25 1202.22,-959.25"/>
<text text-anchor="start" x="647.72" y="-941.05" font-family="Times,serif" font-weight="bold" font-size="14.00">host:</text>
<text text-anchor="start" x="769.72" y="-940.05" font-family="Times,serif" font-size="14.00">$REPO/webserver_configs/httpd&#45;docker/ssl&#45;shib/httpd.conf</text>
<text text-anchor="start" x="647.72" y="-919.05" font-family="Times,serif" font-size="14.00">httpd&#45;container:</text>
<text text-anchor="start" x="769.72" y="-919.05" font-family="Times,serif" font-size="14.00">/usr/local/apache2/conf/extra/httpd.conf:ro</text>
</g>
<!-- BIND_HTTPD_CERT -->
<g id="node15" class="node">
<title>BIND_HTTPD_CERT</title>
<polygon fill="none" stroke="blue" points="1148.22,-889.25 1145.22,-893.25 1124.22,-893.25 1121.22,-889.25 689.22,-889.25 689.22,-837.25 1148.22,-837.25 1148.22,-889.25"/>
<text text-anchor="start" x="701.72" y="-871.05" font-family="Times,serif" font-weight="bold" font-size="14.00">host:</text>
<text text-anchor="start" x="823.72" y="-870.05" font-family="Times,serif" font-size="14.00">$REPO/encryption/webserver/fullchain.pem</text>
<text text-anchor="start" x="701.72" y="-849.05" font-family="Times,serif" font-size="14.00">httpd&#45;container:</text>
<text text-anchor="start" x="823.72" y="-849.05" font-family="Times,serif" font-size="14.00">/usr/local/apache2/conf/server.crt:ro</text>
</g>
<!-- BIND_HTTPD_KEY -->
<g id="node16" class="node">
<title>BIND_HTTPD_KEY</title>
<polygon fill="none" stroke="blue" points="1143.22,-819.25 1140.22,-823.25 1119.22,-823.25 1116.22,-819.25 694.22,-819.25 694.22,-767.25 1143.22,-767.25 1143.22,-819.25"/>
<text text-anchor="start" x="706.72" y="-801.05" font-family="Times,serif" font-weight="bold" font-size="14.00">host:</text>
<text text-anchor="start" x="828.72" y="-800.05" font-family="Times,serif" font-size="14.00">$REPO/encryption/webserver/privkey.pem</text>
<text text-anchor="start" x="706.72" y="-779.05" font-family="Times,serif" font-size="14.00">httpd&#45;container:</text>
<text text-anchor="start" x="828.72" y="-779.05" font-family="Times,serif" font-size="14.00">/usr/local/apache2/conf/server.key:ro</text>
</g>
<!-- BIND_SHIB_ENCRYPTION_KEY -->
<g id="node17" class="node">
<title>BIND_SHIB_ENCRYPTION_KEY</title>
<polygon fill="none" stroke="blue" points="1169.22,-749.25 1166.22,-753.25 1145.22,-753.25 1142.22,-749.25 668.22,-749.25 668.22,-697.25 1169.22,-697.25 1169.22,-749.25"/>
<text text-anchor="start" x="680.72" y="-731.05" font-family="Times,serif" font-weight="bold" font-size="14.00">host:</text>
<text text-anchor="start" x="802.72" y="-730.05" font-family="Times,serif" font-size="14.00">$REPO/encryption/shibboleth/sp&#45;encrypt&#45;key.pem</text>
<text text-anchor="start" x="680.72" y="-709.05" font-family="Times,serif" font-size="14.00">httpd&#45;container:</text>
<text text-anchor="start" x="802.72" y="-709.05" font-family="Times,serif" font-size="14.00">/etc/shibboleth/sp&#45;encrypt&#45;key.pem:ro</text>
</g>
<!-- BIND_SHIB_ENCRYPTION_CERT -->
<g id="node18" class="node">
<title>BIND_SHIB_ENCRYPTION_CERT</title>
<polygon fill="none" stroke="blue" points="1172.22,-679.25 1169.22,-683.25 1148.22,-683.25 1145.22,-679.25 665.22,-679.25 665.22,-627.25 1172.22,-627.25 1172.22,-679.25"/>
<text text-anchor="start" x="677.72" y="-661.05" font-family="Times,serif" font-weight="bold" font-size="14.00">host:</text>
<text text-anchor="start" x="799.72" y="-660.05" font-family="Times,serif" font-size="14.00">$REPO/encryption/shibboleth/sp&#45;encrypt&#45;cert.pem</text>
<text text-anchor="start" x="677.72" y="-639.05" font-family="Times,serif" font-size="14.00">httpd&#45;container:</text>
<text text-anchor="start" x="799.72" y="-639.05" font-family="Times,serif" font-size="14.00">/etc/shibboleth/sp&#45;encrypt&#45;cert.pem:ro</text>
</g>
<!-- BIND_SHIB_SIGNING_KEY -->
<g id="node19" class="node">
<title>BIND_SHIB_SIGNING_KEY</title>
<polygon fill="none" stroke="blue" points="1167.72,-609.25 1164.72,-613.25 1143.72,-613.25 1140.72,-609.25 669.72,-609.25 669.72,-557.25 1167.72,-557.25 1167.72,-609.25"/>
<text text-anchor="start" x="681.72" y="-591.05" font-family="Times,serif" font-weight="bold" font-size="14.00">host:</text>
<text text-anchor="start" x="803.72" y="-590.05" font-family="Times,serif" font-size="14.00">$REPO/encryption/shibboleth/sp&#45;signing&#45;key.pem</text>
<text text-anchor="start" x="681.72" y="-569.05" font-family="Times,serif" font-size="14.00">httpd&#45;container:</text>
<text text-anchor="start" x="803.72" y="-569.05" font-family="Times,serif" font-size="14.00">/etc/shibboleth/sp&#45;signing&#45;key.pem:ro</text>
</g>
<!-- BIND_SHIB_SIGNING_CERT -->
<g id="node20" class="node">
<title>BIND_SHIB_SIGNING_CERT</title>
<polygon fill="none" stroke="blue" points="1170.72,-539.25 1167.72,-543.25 1146.72,-543.25 1143.72,-539.25 666.72,-539.25 666.72,-487.25 1170.72,-487.25 1170.72,-539.25"/>
<text text-anchor="start" x="678.72" y="-521.05" font-family="Times,serif" font-weight="bold" font-size="14.00">host:</text>
<text text-anchor="start" x="800.72" y="-520.05" font-family="Times,serif" font-size="14.00">$REPO/encryption/shibboleth/sp&#45;signing&#45;cert.pem</text>
<text text-anchor="start" x="678.72" y="-499.05" font-family="Times,serif" font-size="14.00">httpd&#45;container:</text>
<text text-anchor="start" x="800.72" y="-499.05" font-family="Times,serif" font-size="14.00">/etc/shibboleth/sp&#45;signing&#45;cert.pem:ro</text>
</g>
<!-- C_FEDORA&#45;&#45;C_MARIADB_FEDORA -->
<g id="edge23" class="edge">
<title>C_FEDORA&#45;&#45;C_MARIADB_FEDORA</title>
<path fill="none" stroke="orange" d="M1647.07,-142.3C1660.51,-144.99 1673.96,-147.98 1686.72,-151.25 1735.4,-163.73 1789.56,-183.08 1826.73,-197.23"/>
</g>
<!-- C_API&#45;&#45;C_FEDORA -->
<g id="edge24" class="edge">
<title>C_API&#45;&#45;C_FEDORA</title>
<path fill="none" stroke="orange" d="M1025.28,-303.43C1120.07,-295.66 1258.04,-270.71 1349.72,-194.25 1365.91,-180.75 1352.98,-164.05 1369.72,-151.25 1381.51,-142.24 1395.26,-135.81 1409.62,-131.29"/>
</g>
<!-- C_API&#45;&#45;C_MARIADB_PHAIDRA -->
<g id="edge25" class="edge">
<title>C_API&#45;&#45;C_MARIADB_PHAIDRA</title>
<path fill="none" stroke="orange" d="M1025.54,-306.25C1121.58,-306.25 1264.36,-306.25 1373.08,-306.25"/>
</g>
<!-- C_API&#45;&#45;C_MONGODB_PHAIDRA -->
<g id="edge26" class="edge">
<title>C_API&#45;&#45;C_MONGODB_PHAIDRA</title>
<path fill="none" stroke="orange" d="M1025.54,-296.85C1120.56,-288.4 1261.34,-275.89 1369.6,-266.26"/>
</g>
<!-- C_UI -->
<g id="node25" class="node">
<title>C_UI</title>
<g id="a_node25"><a xlink:href="https://github.com/phaidra/phaidra-ui" xlink:title="phaidra&#45;ssl&#45;shib&#45;httpd&#45;ui&#45;1">
<polygon fill="none" stroke="green" points="1630.72,-88.25 1425.72,-88.25 1425.72,-84.25 1421.72,-84.25 1421.72,-80.25 1425.72,-80.25 1425.72,-60.25 1421.72,-60.25 1421.72,-56.25 1425.72,-56.25 1425.72,-52.25 1630.72,-52.25 1630.72,-88.25"/>
<polyline fill="none" stroke="green" points="1425.72,-84.25 1429.72,-84.25 1429.72,-80.25 1425.72,-80.25 "/>
<polyline fill="none" stroke="green" points="1425.72,-60.25 1429.72,-60.25 1429.72,-56.25 1425.72,-56.25 "/>
<text text-anchor="middle" x="1528.22" y="-66.55" font-family="Times,serif" font-size="14.00">phaidra&#45;ssl&#45;shib&#45;httpd&#45;ui&#45;1</text>
</a>
</g>
</g>
<!-- C_API&#45;&#45;C_UI -->
<g id="edge27" class="edge">
<title>C_API&#45;&#45;C_UI</title>
<path fill="none" stroke="orange" d="M951.02,-288.14C1022.65,-247.5 1205.05,-148.61 1369.72,-97.25 1387.47,-91.72 1406.71,-87.23 1425.46,-83.62"/>
</g>
<!-- C_API&#45;&#45;C_OPENLDAP -->
<g id="edge28" class="edge">
<title>C_API&#45;&#45;C_OPENLDAP</title>
<path fill="none" stroke="orange" d="M1025.53,-310.29C1112.7,-314.24 1239.46,-321.43 1349.72,-333.25 1372.19,-335.66 1396.17,-338.87 1419,-342.24"/>
</g>
<!-- C_API&#45;&#45;C_SOLR -->
<g id="edge29" class="edge">
<title>C_API&#45;&#45;C_SOLR</title>
<path fill="none" stroke="orange" d="M1025.62,-320.66C1119.67,-327.61 1256.3,-322.69 1349.72,-254.25 1367.05,-241.56 1352.92,-223.63 1369.72,-210.25 1384.02,-198.87 1401.31,-191.22 1419.13,-186.13"/>
</g>
<!-- C_API&#45;&#45;C_IMAGESERVER -->
<g id="edge30" class="edge">
<title>C_API&#45;&#45;C_IMAGESERVER</title>
<path fill="none" stroke="orange" d="M995.29,-288.19C1088.32,-270.64 1246.63,-256.59 1349.72,-333.25 1370.26,-348.52 1350.03,-370.9 1369.72,-387.25 1375.27,-391.86 1381.32,-395.81 1387.7,-399.19"/>
</g>
<!-- C_MONGODB_PHAIDRA&#45;&#45;C_PIXELGECKO -->
<g id="edge31" class="edge">
<title>C_MONGODB_PHAIDRA&#45;&#45;C_PIXELGECKO</title>
<path fill="none" stroke="orange" d="M1661.58,-270.29C1670.22,-272.88 1678.67,-275.85 1686.72,-279.25 1755.16,-308.14 1822.33,-366.59 1853.76,-396.19"/>
</g>
<!-- C_LAM -->
<g id="node31" class="node">
<title>C_LAM</title>
<polygon fill="none" stroke="green" points="1982.22,-124.25 1764.22,-124.25 1764.22,-120.25 1760.22,-120.25 1760.22,-116.25 1764.22,-116.25 1764.22,-96.25 1760.22,-96.25 1760.22,-92.25 1764.22,-92.25 1764.22,-88.25 1982.22,-88.25 1982.22,-124.25"/>
<polyline fill="none" stroke="green" points="1764.22,-120.25 1768.22,-120.25 1768.22,-116.25 1764.22,-116.25 "/>
<polyline fill="none" stroke="green" points="1764.22,-96.25 1768.22,-96.25 1768.22,-92.25 1764.22,-92.25 "/>
<text text-anchor="middle" x="1873.22" y="-102.55" font-family="Times,serif" font-size="14.00">phaidra&#45;ssl&#45;shib&#45;httpd&#45;lam&#45;1</text>
</g>
<!-- C_OPENLDAP&#45;&#45;C_LAM -->
<g id="edge32" class="edge">
<title>C_OPENLDAP&#45;&#45;C_LAM</title>
<path fill="none" stroke="orange" d="M1656.73,-352.14C1667.73,-347.53 1677.98,-341.37 1686.72,-333.25 1735.37,-288.06 1682.21,-240.86 1722.72,-188.25 1746.11,-157.88 1784.09,-137.25 1815.92,-124.28"/>
</g>
<!-- C_DBGATE&#45;&#45;C_MARIADB_PHAIDRA -->
<g id="edge33" class="edge">
<title>C_DBGATE&#45;&#45;C_MARIADB_PHAIDRA</title>
<path fill="none" stroke="orange" d="M1039.52,-355.57C1125.91,-351.5 1245.23,-344.46 1349.72,-333.25 1372.19,-330.84 1396.17,-327.63 1419,-324.27"/>
</g>
<!-- C_DBGATE&#45;&#45;C_MONGODB_PHAIDRA -->
<g id="edge34" class="edge">
<title>C_DBGATE&#45;&#45;C_MONGODB_PHAIDRA</title>
<path fill="none" stroke="orange" d="M995.29,-378.31C1088.32,-395.86 1246.63,-409.91 1349.72,-333.25 1370.26,-317.98 1350.03,-295.6 1369.72,-279.25 1373.67,-275.97 1377.87,-273.03 1382.27,-270.38"/>
</g>
<!-- C_DBGATE&#45;&#45;C_MARIADB_FEDORA -->
<g id="edge35" class="edge">
<title>C_DBGATE&#45;&#45;C_MARIADB_FEDORA</title>
<path fill="none" stroke="orange" d="M985.05,-378.32C1078.26,-399.75 1249.24,-422.31 1349.72,-333.25 1386.25,-300.87 1332.5,-256.84 1369.72,-225.25 1396.21,-202.77 1584.19,-204.39 1722.5,-208.83"/>
</g>
<!-- WEBSERVER&#45;&#45;BIND_HTTPD_SITE_CONFIG -->
<g id="edge15" class="edge">
<title>WEBSERVER&#45;&#45;BIND_HTTPD_SITE_CONFIG</title>
<path fill="none" stroke="blue" d="M355.31,-432.3C363.37,-519.46 402.73,-895.59 487.72,-968.25 569.7,-1038.34 695.51,-1040.65 789.9,-1029.26"/>
</g>
<!-- WEBSERVER&#45;&#45;BIND_HTTPD_SERVER_CONFIG -->
<g id="edge16" class="edge">
<title>WEBSERVER&#45;&#45;BIND_HTTPD_SERVER_CONFIG</title>
<path fill="none" stroke="blue" d="M355.99,-432.4C366.42,-512.86 412.55,-836.09 487.72,-898.25 568.82,-965.32 690.42,-969.31 783.64,-959.26"/>
</g>
<!-- WEBSERVER&#45;&#45;BIND_HTTPD_CERT -->
<g id="edge17" class="edge">
<title>WEBSERVER&#45;&#45;BIND_HTTPD_CERT</title>
<path fill="none" stroke="blue" d="M353.16,-432.61C352.24,-498.74 358.88,-726.28 487.72,-828.25 566.94,-890.95 682.04,-897.29 773.23,-889.27"/>
</g>
<!-- WEBSERVER&#45;&#45;BIND_HTTPD_KEY -->
<g id="edge18" class="edge">
<title>WEBSERVER&#45;&#45;BIND_HTTPD_KEY</title>
<path fill="none" stroke="blue" d="M354.48,-432.38C357.99,-490.98 377.73,-676.31 487.72,-758.25 561.83,-813.46 664.38,-823.58 750.74,-819.26"/>
</g>
<!-- WEBSERVER&#45;&#45;BIND_SHIB_ENCRYPTION_KEY -->
<g id="edge19" class="edge">
<title>WEBSERVER&#45;&#45;BIND_SHIB_ENCRYPTION_KEY</title>
<path fill="none" stroke="blue" d="M356.37,-432.26C364.84,-482.73 396.29,-625.89 487.72,-688.25 540.09,-723.97 604.82,-739.9 668.02,-745.21"/>
</g>
<!-- WEBSERVER&#45;&#45;BIND_SHIB_ENCRYPTION_CERT -->
<g id="edge20" class="edge">
<title>WEBSERVER&#45;&#45;BIND_SHIB_ENCRYPTION_CERT</title>
<path fill="none" stroke="blue" d="M359.48,-432.44C373.64,-473.82 414.47,-574.8 487.72,-618.25 540.54,-649.59 603.65,-664.44 665.02,-670.15"/>
</g>
<!-- WEBSERVER&#45;&#45;BIND_SHIB_SIGNING_KEY -->
<g id="edge21" class="edge">
<title>WEBSERVER&#45;&#45;BIND_SHIB_SIGNING_KEY</title>
<path fill="none" stroke="blue" d="M365.51,-432.58C386.12,-462.83 431.88,-522.42 487.72,-548.25 543.63,-574.12 608.01,-586.98 669.63,-592.52"/>
</g>
<!-- WEBSERVER&#45;&#45;BIND_SHIB_SIGNING_CERT -->
<g id="edge22" class="edge">
<title>WEBSERVER&#45;&#45;BIND_SHIB_SIGNING_CERT</title>
<path fill="none" stroke="blue" d="M391.23,-432.26C417.62,-444.13 454.08,-458.96 487.72,-467.25 544.86,-481.33 607.31,-491.1 666.47,-497.88"/>
</g>
<!-- WEBSERVER&#45;&#45;C_FEDORA -->
<g id="edge36" class="edge">
<title>WEBSERVER&#45;&#45;C_FEDORA</title>
<path fill="none" stroke="magenta" d="M358.5,-396.25C371.14,-352.64 409.92,-241.47 487.72,-194.25 639.64,-102.05 1170.79,-110.15 1409.48,-118.9"/>
</g>
<!-- WEBSERVER&#45;&#45;C_API -->
<g id="edge37" class="edge">
<title>WEBSERVER&#45;&#45;C_API</title>
<path fill="none" stroke="magenta" d="M376.25,-395.9C401.62,-376.42 444.91,-346.65 487.72,-333.25 594.45,-299.86 723.17,-296.26 811.79,-299.05"/>
</g>
<!-- WEBSERVER&#45;&#45;C_UI -->
<g id="edge38" class="edge">
<title>WEBSERVER&#45;&#45;C_UI</title>
<path fill="none" stroke="magenta" d="M355.29,-396.04C361.09,-341.35 386.57,-178.04 487.72,-109.25 638,-7.07 1194.42,-41.44 1425.54,-60.82"/>
</g>
<!-- WEBSERVER&#45;&#45;C_SOLR -->
<g id="edge39" class="edge">
<title>WEBSERVER&#45;&#45;C_SOLR</title>
<path fill="none" stroke="magenta" d="M365.52,-395.89C386.15,-365.56 431.93,-305.72 487.72,-279.25 498.19,-274.29 1155.27,-212.8 1419.21,-188.27"/>
</g>
<!-- WEBSERVER&#45;&#45;C_DBGATE -->
<g id="edge40" class="edge">
<title>WEBSERVER&#45;&#45;C_DBGATE</title>
<path fill="none" stroke="magenta" d="M467.86,-403.33C563.78,-394.14 700.44,-381.06 797.92,-371.72"/>
</g>
<!-- WEBSERVER&#45;&#45;C_LAM -->
<g id="edge41" class="edge">
<title>WEBSERVER&#45;&#45;C_LAM</title>
<path fill="none" stroke="magenta" d="M353.55,-395.9C354.1,-332.89 365.39,-124.52 487.72,-38.25 596.6,38.53 1555.44,-20.57 1686.72,-43.25 1738,-52.11 1794.24,-72.89 1831.2,-88.17"/>
</g>
</g>
</svg>
