<?xml version="1.0" encoding="UTF-8" standalone="no"?>
<!DOCTYPE svg PUBLIC "-//W3C//DTD SVG 1.1//EN"
 "http://www.w3.org/Graphics/SVG/1.1/DTD/svg11.dtd">
<!-- Generated by graphviz version 2.43.0 (0)
 -->
<!-- Title: G Pages: 1 -->
<svg width="1762pt" height="2259pt"
 viewBox="0.00 0.00 1761.72 2258.54" xmlns="http://www.w3.org/2000/svg" xmlns:xlink="http://www.w3.org/1999/xlink">
<g id="graph0" class="graph" transform="scale(1 1) rotate(0) translate(4 2254.54)">
<title>G</title>
<polygon fill="white" stroke="transparent" points="-4,4 -4,-2254.54 1757.72,-2254.54 1757.72,4 -4,4"/>
<g id="clust1" class="cluster">
<title>cluster_host</title>
<polygon fill="none" stroke="red" points="221.72,-21.54 221.72,-2242.54 1745.72,-2242.54 1745.72,-21.54 221.72,-21.54"/>
<text text-anchor="middle" x="983.72" y="-2227.34" font-family="Times,serif" font-size="14.00">PHAIDRA server firewall</text>
</g>
<g id="clust2" class="cluster">
<title>cluster_host_storage</title>
<polygon fill="none" stroke="blue" points="427.72,-496.54 427.72,-2211.54 1211.72,-2211.54 1211.72,-496.54 427.72,-496.54"/>
<text text-anchor="middle" x="819.72" y="-2196.34" font-family="Times,serif" font-size="14.00">PHAIDRA server filesystem</text>
</g>
<g id="clust3" class="cluster">
<title>cluster_named_volumes</title>
<polygon fill="none" stroke="turquoise" points="435.72,-1233.54 435.72,-2180.54 1203.72,-2180.54 1203.72,-1233.54 435.72,-1233.54"/>
<text text-anchor="middle" x="819.72" y="-2165.34" font-family="Times,serif" font-size="14.00">Named volumes</text>
</g>
<g id="clust4" class="cluster">
<title>cluster_bind_mounts</title>
<polygon fill="none" stroke="blue" points="527.22,-504.54 527.22,-1225.54 1112.22,-1225.54 1112.22,-504.54 527.22,-504.54"/>
<text text-anchor="middle" x="819.72" y="-1210.34" font-family="Times,serif" font-size="14.00">Bind mounts</text>
</g>
<g id="clust5" class="cluster">
<title>cluster_docker_network_host</title>
<polygon fill="none" stroke="green" points="229.72,-29.54 229.72,-488.54 1737.72,-488.54 1737.72,-29.54 229.72,-29.54"/>
<text text-anchor="middle" x="983.72" y="-473.34" font-family="Times,serif" font-size="14.00">PHAIDRA docker containers</text>
</g>
<!-- USER -->
<g id="node1" class="node">
<title>USER</title>
<polygon fill="none" stroke="black" points="193.59,-270.09 193.59,-285 139.27,-295.54 62.45,-295.54 8.13,-285 8.13,-270.09 62.45,-259.54 139.27,-259.54 193.59,-270.09"/>
<polygon fill="none" stroke="black" points="197.59,-266.79 197.59,-288.3 139.66,-299.54 62.07,-299.54 4.13,-288.3 4.13,-266.79 62.07,-255.54 139.66,-255.54 197.59,-266.79"/>
<polygon fill="none" stroke="black" points="201.58,-263.49 201.58,-291.6 140.04,-303.54 61.68,-303.54 0.14,-291.6 0.14,-263.49 61.68,-251.54 140.04,-251.54 201.58,-263.49"/>
<text text-anchor="middle" x="100.86" y="-273.84" font-family="Times,serif" font-size="14.00">PHAIDRA USER</text>
</g>
<!-- WEBSERVER -->
<g id="node37" class="node">
<title>WEBSERVER</title>
<polygon fill="none" stroke="green" points="398.72,-295.54 246.72,-295.54 246.72,-291.54 242.72,-291.54 242.72,-287.54 246.72,-287.54 246.72,-267.54 242.72,-267.54 242.72,-263.54 246.72,-263.54 246.72,-259.54 398.72,-259.54 398.72,-295.54"/>
<polyline fill="none" stroke="green" points="246.72,-291.54 250.72,-291.54 250.72,-287.54 246.72,-287.54 "/>
<polyline fill="none" stroke="green" points="246.72,-267.54 250.72,-267.54 250.72,-263.54 246.72,-263.54 "/>
<text text-anchor="middle" x="322.72" y="-273.84" font-family="Times,serif" font-size="14.00">phaidra&#45;ssl&#45;httpd&#45;1</text>
</g>
<!-- USER&#45;&#45;WEBSERVER -->
<g id="edge51" class="edge">
<title>USER&#45;&#45;WEBSERVER</title>
<path fill="none" stroke="red" d="M201.82,-277.54C216.91,-277.54 232.25,-277.54 246.69,-277.54"/>
</g>
<!-- HS_FEDORA -->
<g id="node2" class="node">
<title>HS_FEDORA</title>
<polygon fill="none" stroke="turquoise" points="1130.72,-1917.54 1127.72,-1921.54 1106.72,-1921.54 1103.72,-1917.54 508.72,-1917.54 508.72,-1823.54 1130.72,-1823.54 1130.72,-1917.54"/>
<text text-anchor="start" x="520.72" y="-1899.34" font-family="Times,serif" font-weight="bold" font-size="14.00">host:</text>
<text text-anchor="start" x="679.72" y="-1898.34" font-family="Times,serif" font-size="14.00">$HOME/.local/share/docker/volumes/phaidra&#45;ssl_fedora/_data</text>
<text text-anchor="start" x="520.72" y="-1877.34" font-family="Times,serif" font-size="14.00">fedora&#45;container:</text>
<text text-anchor="start" x="679.72" y="-1877.34" font-family="Times,serif" font-size="14.00">/usr/local/tomcat/fcrepo&#45;home</text>
<text text-anchor="start" x="520.72" y="-1856.34" font-family="Times,serif" font-size="14.00">pixelgecko&#45;container:</text>
<text text-anchor="start" x="679.72" y="-1856.34" font-family="Times,serif" font-size="14.00"> /mnt/fedora:ro</text>
<text text-anchor="start" x="520.72" y="-1835.34" font-family="Times,serif" font-size="14.00">api&#45;container:</text>
<text text-anchor="start" x="679.72" y="-1835.34" font-family="Times,serif" font-size="14.00"> /mnt/fedora:ro</text>
</g>
<!-- C_FEDORA -->
<g id="node24" class="node">
<title>C_FEDORA</title>
<g id="a_node24"><a xlink:href="https://fedora.lyrasis.org/" xlink:title="phaidra&#45;ssl&#45;fedora&#45;1">
<polygon fill="none" stroke="green" points="1430.72,-241.54 1271.72,-241.54 1271.72,-237.54 1267.72,-237.54 1267.72,-233.54 1271.72,-233.54 1271.72,-213.54 1267.72,-213.54 1267.72,-209.54 1271.72,-209.54 1271.72,-205.54 1430.72,-205.54 1430.72,-241.54"/>
<polyline fill="none" stroke="green" points="1271.72,-237.54 1275.72,-237.54 1275.72,-233.54 1271.72,-233.54 "/>
<polyline fill="none" stroke="green" points="1271.72,-213.54 1275.72,-213.54 1275.72,-209.54 1271.72,-209.54 "/>
<text text-anchor="middle" x="1351.22" y="-219.84" font-family="Times,serif" font-size="14.00">phaidra&#45;ssl&#45;fedora&#45;1</text>
</a>
</g>
</g>
<!-- HS_FEDORA&#45;&#45;C_FEDORA -->
<g id="edge1" class="edge">
<title>HS_FEDORA&#45;&#45;C_FEDORA</title>
<path fill="none" stroke="turquoise" d="M1130.74,-1869.44C1161.54,-1857.43 1189.55,-1839.79 1211.72,-1814.54 1269.06,-1749.25 1177.1,-318.12 1231.72,-250.54 1241.74,-238.16 1256.15,-230.73 1271.5,-226.41"/>
</g>
<!-- C_API -->
<g id="node25" class="node">
<title>C_API</title>
<g id="a_node25"><a xlink:href="https://github.com/phaidra/phaidra-api" xlink:title="phaidra&#45;ssl&#45;api&#45;1">
<polygon fill="none" stroke="green" points="887.22,-349.54 752.22,-349.54 752.22,-345.54 748.22,-345.54 748.22,-341.54 752.22,-341.54 752.22,-321.54 748.22,-321.54 748.22,-317.54 752.22,-317.54 752.22,-313.54 887.22,-313.54 887.22,-349.54"/>
<polyline fill="none" stroke="green" points="752.22,-345.54 756.22,-345.54 756.22,-341.54 752.22,-341.54 "/>
<polyline fill="none" stroke="green" points="752.22,-321.54 756.22,-321.54 756.22,-317.54 752.22,-317.54 "/>
<text text-anchor="middle" x="819.72" y="-327.84" font-family="Times,serif" font-size="14.00">phaidra&#45;ssl&#45;api&#45;1</text>
</a>
</g>
</g>
<!-- HS_FEDORA&#45;&#45;C_API -->
<g id="edge3" class="edge">
<title>HS_FEDORA&#45;&#45;C_API</title>
<path fill="none" stroke="turquoise" d="M508.72,-1884.46C468.86,-1870.44 435.7,-1845.91 417.72,-1805.54 410.4,-1789.1 410.4,-525.99 417.72,-509.54 474.16,-382.82 653.09,-346.31 752.13,-335.8"/>
</g>
<!-- C_PIXELGECKO -->
<g id="node32" class="node">
<title>C_PIXELGECKO</title>
<polygon fill="none" stroke="green" points="1712.72,-457.54 1523.72,-457.54 1523.72,-453.54 1519.72,-453.54 1519.72,-449.54 1523.72,-449.54 1523.72,-429.54 1519.72,-429.54 1519.72,-425.54 1523.72,-425.54 1523.72,-421.54 1712.72,-421.54 1712.72,-457.54"/>
<polyline fill="none" stroke="green" points="1523.72,-453.54 1527.72,-453.54 1527.72,-449.54 1523.72,-449.54 "/>
<polyline fill="none" stroke="green" points="1523.72,-429.54 1527.72,-429.54 1527.72,-425.54 1523.72,-425.54 "/>
<text text-anchor="middle" x="1618.22" y="-435.84" font-family="Times,serif" font-size="14.00">phaidra&#45;ssl&#45;pixelgecko&#45;1</text>
</g>
<!-- HS_FEDORA&#45;&#45;C_PIXELGECKO -->
<g id="edge15" class="edge">
<title>HS_FEDORA&#45;&#45;C_PIXELGECKO</title>
<path fill="none" stroke="turquoise" d="M1130.74,-1863.68C1160.65,-1852.47 1188.46,-1836.6 1211.72,-1814.54 1244.93,-1783.06 1220.16,-1757.82 1231.72,-1713.54 1318.27,-1382 1372.8,-1308.91 1470.72,-980.54 1531.48,-776.8 1595.25,-526.74 1612.62,-457.85"/>
</g>
<!-- HS_API_LOGS -->
<g id="node3" class="node">
<title>HS_API_LOGS</title>
<polygon fill="none" stroke="turquoise" points="1109.72,-2079.54 1106.72,-2083.54 1085.72,-2083.54 1082.72,-2079.54 529.72,-2079.54 529.72,-2027.54 1109.72,-2027.54 1109.72,-2079.54"/>
<text text-anchor="start" x="541.72" y="-2061.34" font-family="Times,serif" font-weight="bold" font-size="14.00">host:</text>
<text text-anchor="start" x="646.72" y="-2060.34" font-family="Times,serif" font-size="14.00">$HOME/.local/share/docker/volumes/phaidra&#45;ssl_api_logs/_data</text>
<text text-anchor="start" x="541.72" y="-2039.34" font-family="Times,serif" font-size="14.00">api&#45;container:</text>
<text text-anchor="start" x="646.72" y="-2039.34" font-family="Times,serif" font-size="14.00">/var/log/phaidra</text>
</g>
<!-- HS_API_LOGS&#45;&#45;C_API -->
<g id="edge2" class="edge">
<title>HS_API_LOGS&#45;&#45;C_API</title>
<path fill="none" stroke="turquoise" d="M529.72,-2056.45C474.06,-2049.55 429.33,-2035.6 417.72,-2009.54 409.25,-1990.51 409.25,-528.58 417.72,-509.54 474.16,-382.82 653.09,-346.31 752.13,-335.8"/>
</g>
<!-- HS_MARIADB_PHAIDRA -->
<g id="node4" class="node">
<title>HS_MARIADB_PHAIDRA</title>
<polygon fill="none" stroke="turquoise" points="1189.72,-1665.54 1186.72,-1669.54 1165.72,-1669.54 1162.72,-1665.54 449.72,-1665.54 449.72,-1613.54 1189.72,-1613.54 1189.72,-1665.54"/>
<text text-anchor="start" x="461.72" y="-1647.34" font-family="Times,serif" font-weight="bold" font-size="14.00">host:</text>
<text text-anchor="start" x="663.72" y="-1646.34" font-family="Times,serif" font-size="14.00">$HOME/.local/share/docker/volumes/phaidra&#45;ssl_mariadb_phaidra/_data</text>
<text text-anchor="start" x="461.72" y="-1625.34" font-family="Times,serif" font-size="14.00">mariadb&#45;phaidra&#45;container:</text>
<text text-anchor="start" x="663.72" y="-1625.34" font-family="Times,serif" font-size="14.00">/var/lib/mysql</text>
</g>
<!-- C_MARIADB_PHAIDRA -->
<g id="node26" class="node">
<title>C_MARIADB_PHAIDRA</title>
<g id="a_node26"><a xlink:href="https://mariadb.org/" xlink:title="phaidra&#45;ssl&#45;mariadb&#45;phaidra&#45;1">
<polygon fill="none" stroke="green" points="1467.22,-187.54 1235.22,-187.54 1235.22,-183.54 1231.22,-183.54 1231.22,-179.54 1235.22,-179.54 1235.22,-159.54 1231.22,-159.54 1231.22,-155.54 1235.22,-155.54 1235.22,-151.54 1467.22,-151.54 1467.22,-187.54"/>
<polyline fill="none" stroke="green" points="1235.22,-183.54 1239.22,-183.54 1239.22,-179.54 1235.22,-179.54 "/>
<polyline fill="none" stroke="green" points="1235.22,-159.54 1239.22,-159.54 1239.22,-155.54 1235.22,-155.54 "/>
<text text-anchor="middle" x="1351.22" y="-165.84" font-family="Times,serif" font-size="14.00">phaidra&#45;ssl&#45;mariadb&#45;phaidra&#45;1</text>
</a>
</g>
</g>
<!-- HS_MARIADB_PHAIDRA&#45;&#45;C_MARIADB_PHAIDRA -->
<g id="edge6" class="edge">
<title>HS_MARIADB_PHAIDRA&#45;&#45;C_MARIADB_PHAIDRA</title>
<path fill="none" stroke="turquoise" d="M934.15,-1665.6C1023.16,-1678.64 1143.13,-1678.5 1211.72,-1604.54 1264.92,-1547.19 1182.5,-257.35 1231.72,-196.54 1234.38,-193.26 1237.34,-190.33 1240.55,-187.71"/>
</g>
<!-- HS_MONGODB_PHAIDRA -->
<g id="node5" class="node">
<title>HS_MONGODB_PHAIDRA</title>
<polygon fill="none" stroke="turquoise" points="1195.72,-1525.54 1192.72,-1529.54 1171.72,-1529.54 1168.72,-1525.54 443.72,-1525.54 443.72,-1473.54 1195.72,-1473.54 1195.72,-1525.54"/>
<text text-anchor="start" x="455.72" y="-1507.34" font-family="Times,serif" font-weight="bold" font-size="14.00">host:</text>
<text text-anchor="start" x="663.72" y="-1506.34" font-family="Times,serif" font-size="14.00">$HOME/.local/share/docker/volumes/phaidra&#45;ssl_mongodb_phaidra/_data</text>
<text text-anchor="start" x="455.72" y="-1485.34" font-family="Times,serif" font-size="14.00">phaidra&#45;mongodb&#45;container:</text>
<text text-anchor="start" x="663.72" y="-1485.34" font-family="Times,serif" font-size="14.00">/data/db</text>
</g>
<!-- C_MONGODB_PHAIDRA -->
<g id="node27" class="node">
<title>C_MONGODB_PHAIDRA</title>
<g id="a_node27"><a xlink:href="https://www.mongodb.com/" xlink:title="phaidra&#45;ssl&#45;mongodb&#45;phaidra&#45;1">
<polygon fill="none" stroke="green" points="1470.72,-349.54 1231.72,-349.54 1231.72,-345.54 1227.72,-345.54 1227.72,-341.54 1231.72,-341.54 1231.72,-321.54 1227.72,-321.54 1227.72,-317.54 1231.72,-317.54 1231.72,-313.54 1470.72,-313.54 1470.72,-349.54"/>
<polyline fill="none" stroke="green" points="1231.72,-345.54 1235.72,-345.54 1235.72,-341.54 1231.72,-341.54 "/>
<polyline fill="none" stroke="green" points="1231.72,-321.54 1235.72,-321.54 1235.72,-317.54 1231.72,-317.54 "/>
<text text-anchor="middle" x="1351.22" y="-327.84" font-family="Times,serif" font-size="14.00">phaidra&#45;ssl&#45;mongodb&#45;phaidra&#45;1</text>
</a>
</g>
</g>
<!-- HS_MONGODB_PHAIDRA&#45;&#45;C_MONGODB_PHAIDRA -->
<g id="edge7" class="edge">
<title>HS_MONGODB_PHAIDRA&#45;&#45;C_MONGODB_PHAIDRA</title>
<path fill="none" stroke="turquoise" d="M934.52,-1525.59C1023.44,-1538.53 1143.1,-1538.24 1211.72,-1464.54 1253.6,-1419.57 1192.96,-406.24 1231.72,-358.54 1234.38,-355.27 1237.35,-352.34 1240.56,-349.73"/>
</g>
<!-- HS_OPENLDAP -->
<g id="node6" class="node">
<title>HS_OPENLDAP</title>
<polygon fill="none" stroke="turquoise" points="1134.72,-1805.54 1131.72,-1809.54 1110.72,-1809.54 1107.72,-1805.54 504.72,-1805.54 504.72,-1753.54 1134.72,-1753.54 1134.72,-1805.54"/>
<text text-anchor="start" x="516.72" y="-1787.34" font-family="Times,serif" font-weight="bold" font-size="14.00">host:</text>
<text text-anchor="start" x="664.72" y="-1786.34" font-family="Times,serif" font-size="14.00">$HOME/.local/share/docker/volumes/phaidra&#45;ssl_openldap/_data</text>
<text text-anchor="start" x="516.72" y="-1765.34" font-family="Times,serif" font-size="14.00">openldap&#45;container:</text>
<text text-anchor="start" x="664.72" y="-1765.34" font-family="Times,serif" font-size="14.00">/bitnami/openldap</text>
</g>
<!-- C_OPENLDAP -->
<g id="node29" class="node">
<title>C_OPENLDAP</title>
<g id="a_node29"><a xlink:href="https://www.openldap.org/" xlink:title="phaidra&#45;ssl&#45;openldap&#45;1">
<polygon fill="none" stroke="green" points="1440.72,-403.54 1261.72,-403.54 1261.72,-399.54 1257.72,-399.54 1257.72,-395.54 1261.72,-395.54 1261.72,-375.54 1257.72,-375.54 1257.72,-371.54 1261.72,-371.54 1261.72,-367.54 1440.72,-367.54 1440.72,-403.54"/>
<polyline fill="none" stroke="green" points="1261.72,-399.54 1265.72,-399.54 1265.72,-395.54 1261.72,-395.54 "/>
<polyline fill="none" stroke="green" points="1261.72,-375.54 1265.72,-375.54 1265.72,-371.54 1261.72,-371.54 "/>
<text text-anchor="middle" x="1351.22" y="-381.84" font-family="Times,serif" font-size="14.00">phaidra&#45;ssl&#45;openldap&#45;1</text>
</a>
</g>
</g>
<!-- HS_OPENLDAP&#45;&#45;C_OPENLDAP -->
<g id="edge10" class="edge">
<title>HS_OPENLDAP&#45;&#45;C_OPENLDAP</title>
<path fill="none" stroke="turquoise" d="M934.13,-1805.58C1023.13,-1818.61 1143.1,-1818.47 1211.72,-1744.54 1262.08,-1690.31 1185.13,-470.05 1231.72,-412.54 1239.56,-402.87 1250.08,-396.22 1261.63,-391.72"/>
</g>
<!-- HS_SOLR -->
<g id="node7" class="node">
<title>HS_SOLR</title>
<polygon fill="none" stroke="turquoise" points="1096.72,-1735.54 1093.72,-1739.54 1072.72,-1739.54 1069.72,-1735.54 542.72,-1735.54 542.72,-1683.54 1096.72,-1683.54 1096.72,-1735.54"/>
<text text-anchor="start" x="554.72" y="-1717.34" font-family="Times,serif" font-weight="bold" font-size="14.00">host:</text>
<text text-anchor="start" x="664.72" y="-1716.34" font-family="Times,serif" font-size="14.00">$HOME/.local/share/docker/volumes/phaidra&#45;ssl_solr/_data</text>
<text text-anchor="start" x="554.72" y="-1695.34" font-family="Times,serif" font-size="14.00">solr&#45;container:</text>
<text text-anchor="start" x="664.72" y="-1695.34" font-family="Times,serif" font-size="14.00">/var/solr</text>
</g>
<!-- C_SOLR -->
<g id="node30" class="node">
<title>C_SOLR</title>
<g id="a_node30"><a xlink:href="https://solr.apache.org/" xlink:title="phaidra&#45;ssl&#45;solr&#45;1">
<polygon fill="none" stroke="green" points="1421.22,-295.54 1281.22,-295.54 1281.22,-291.54 1277.22,-291.54 1277.22,-287.54 1281.22,-287.54 1281.22,-267.54 1277.22,-267.54 1277.22,-263.54 1281.22,-263.54 1281.22,-259.54 1421.22,-259.54 1421.22,-295.54"/>
<polyline fill="none" stroke="green" points="1281.22,-291.54 1285.22,-291.54 1285.22,-287.54 1281.22,-287.54 "/>
<polyline fill="none" stroke="green" points="1281.22,-267.54 1285.22,-267.54 1285.22,-263.54 1281.22,-263.54 "/>
<text text-anchor="middle" x="1351.22" y="-273.84" font-family="Times,serif" font-size="14.00">phaidra&#45;ssl&#45;solr&#45;1</text>
</a>
</g>
</g>
<!-- HS_SOLR&#45;&#45;C_SOLR -->
<g id="edge12" class="edge">
<title>HS_SOLR&#45;&#45;C_SOLR</title>
<path fill="none" stroke="turquoise" d="M934.14,-1735.59C1023.15,-1748.63 1143.11,-1748.48 1211.72,-1674.54 1263.5,-1618.75 1183.82,-363.7 1231.72,-304.54 1243.81,-289.62 1262.27,-281.9 1281.06,-278.14"/>
</g>
<!-- HS_PIXELGECKO -->
<g id="node8" class="node">
<title>HS_PIXELGECKO</title>
<polygon fill="none" stroke="turquoise" points="1152.22,-2009.04 1149.22,-2013.04 1128.22,-2013.04 1125.22,-2009.04 487.22,-2009.04 487.22,-1936.04 1152.22,-1936.04 1152.22,-2009.04"/>
<text text-anchor="start" x="499.72" y="-1990.34" font-family="Times,serif" font-weight="bold" font-size="14.00">host:</text>
<text text-anchor="start" x="671.72" y="-1989.34" font-family="Times,serif" font-size="14.00">$HOME/.local/share/docker/volumes/phaidra&#45;ssl_pixelgecko/_data</text>
<text text-anchor="start" x="499.72" y="-1968.34" font-family="Times,serif" font-size="14.00">pixelgecko&#45;container:</text>
<text text-anchor="start" x="671.72" y="-1968.34" font-family="Times,serif" font-size="14.00">/mnt/converted_images</text>
<text text-anchor="start" x="499.72" y="-1947.34" font-family="Times,serif" font-size="14.00">imageserver&#45;container:</text>
<text text-anchor="start" x="671.72" y="-1947.34" font-family="Times,serif" font-size="14.00">/mnt/converted_images:ro</text>
</g>
<!-- C_IMAGESERVER -->
<g id="node31" class="node">
<title>C_IMAGESERVER</title>
<g id="a_node31"><a xlink:href="https://github.com/ruven/iipsrv" xlink:title="phaidra&#45;ssl&#45;imageserver&#45;1">
<polygon fill="none" stroke="green" points="1452.72,-457.54 1249.72,-457.54 1249.72,-453.54 1245.72,-453.54 1245.72,-449.54 1249.72,-449.54 1249.72,-429.54 1245.72,-429.54 1245.72,-425.54 1249.72,-425.54 1249.72,-421.54 1452.72,-421.54 1452.72,-457.54"/>
<polyline fill="none" stroke="green" points="1249.72,-453.54 1253.72,-453.54 1253.72,-449.54 1249.72,-449.54 "/>
<polyline fill="none" stroke="green" points="1249.72,-429.54 1253.72,-429.54 1253.72,-425.54 1249.72,-425.54 "/>
<text text-anchor="middle" x="1351.22" y="-435.84" font-family="Times,serif" font-size="14.00">phaidra&#45;ssl&#45;imageserver&#45;1</text>
</a>
</g>
</g>
<!-- HS_PIXELGECKO&#45;&#45;C_IMAGESERVER -->
<g id="edge14" class="edge">
<title>HS_PIXELGECKO&#45;&#45;C_IMAGESERVER</title>
<path fill="none" stroke="turquoise" d="M1152.31,-1970.31C1174.51,-1959.58 1194.75,-1945.29 1211.72,-1926.54 1232.59,-1903.5 1226.62,-838.21 1231.72,-807.54 1254.78,-668.83 1319.46,-510.7 1342.2,-457.83"/>
</g>
<!-- HS_PIXELGECKO&#45;&#45;C_PIXELGECKO -->
<g id="edge16" class="edge">
<title>HS_PIXELGECKO&#45;&#45;C_PIXELGECKO</title>
<path fill="none" stroke="turquoise" d="M1152.49,-1958.99C1173.53,-1950.53 1193.53,-1939.88 1211.72,-1926.54 1437.81,-1760.89 1390.24,-1620.03 1470.72,-1351.54 1575.6,-1001.7 1609.82,-552.51 1616.1,-457.63"/>
</g>
<!-- HS_DBGATE -->
<g id="node9" class="node">
<title>HS_DBGATE</title>
<polygon fill="none" stroke="turquoise" points="1119.22,-1595.54 1116.22,-1599.54 1095.22,-1599.54 1092.22,-1595.54 520.22,-1595.54 520.22,-1543.54 1119.22,-1543.54 1119.22,-1595.54"/>
<text text-anchor="start" x="532.72" y="-1577.34" font-family="Times,serif" font-weight="bold" font-size="14.00">host:</text>
<text text-anchor="start" x="665.72" y="-1576.34" font-family="Times,serif" font-size="14.00">$HOME/.local/share/docker/volumes/phaidra&#45;ssl_dbgate/_data</text>
<text text-anchor="start" x="532.72" y="-1555.34" font-family="Times,serif" font-size="14.00">dbgate&#45;container:</text>
<text text-anchor="start" x="665.72" y="-1555.34" font-family="Times,serif" font-size="14.00">/root/.dbgate</text>
</g>
<!-- C_DBGATE -->
<g id="node33" class="node">
<title>C_DBGATE</title>
<polygon fill="none" stroke="green" points="901.22,-179.54 738.22,-179.54 738.22,-175.54 734.22,-175.54 734.22,-171.54 738.22,-171.54 738.22,-151.54 734.22,-151.54 734.22,-147.54 738.22,-147.54 738.22,-143.54 901.22,-143.54 901.22,-179.54"/>
<polyline fill="none" stroke="green" points="738.22,-175.54 742.22,-175.54 742.22,-171.54 738.22,-171.54 "/>
<polyline fill="none" stroke="green" points="738.22,-151.54 742.22,-151.54 742.22,-147.54 738.22,-147.54 "/>
<text text-anchor="middle" x="819.72" y="-157.84" font-family="Times,serif" font-size="14.00">phaidra&#45;ssl&#45;dbgate&#45;1</text>
</g>
<!-- HS_DBGATE&#45;&#45;C_DBGATE -->
<g id="edge18" class="edge">
<title>HS_DBGATE&#45;&#45;C_DBGATE</title>
<path fill="none" stroke="turquoise" d="M520.08,-1571.17C468.94,-1563.88 428.65,-1550.08 417.72,-1525.54 410.87,-1510.17 410.87,-328.92 417.72,-313.54 470.39,-195.29 636.32,-167.51 737.79,-161.88"/>
</g>
<!-- HS_MARIADB_FEDORA -->
<g id="node10" class="node">
<title>HS_MARIADB_FEDORA</title>
<polygon fill="none" stroke="turquoise" points="1180.72,-2149.54 1177.72,-2153.54 1156.72,-2153.54 1153.72,-2149.54 458.72,-2149.54 458.72,-2097.54 1180.72,-2097.54 1180.72,-2149.54"/>
<text text-anchor="start" x="470.72" y="-2131.34" font-family="Times,serif" font-weight="bold" font-size="14.00">host:</text>
<text text-anchor="start" x="663.72" y="-2130.34" font-family="Times,serif" font-size="14.00">$HOME/.local/share/docker/volumes/phaidra&#45;ssl_mariadb_fedora/_data</text>
<text text-anchor="start" x="470.72" y="-2109.34" font-family="Times,serif" font-size="14.00">mariadb&#45;fedora&#45;container:</text>
<text text-anchor="start" x="663.72" y="-2109.34" font-family="Times,serif" font-size="14.00">/var/lib/mysql</text>
</g>
<!-- C_MARIADB_FEDORA -->
<g id="node35" class="node">
<title>C_MARIADB_FEDORA</title>
<g id="a_node35"><a xlink:href="https://mariadb.org/" xlink:title="phaidra&#45;ssl&#45;mariadb&#45;fedora&#45;1">
<polygon fill="none" stroke="green" points="1729.72,-184.54 1506.72,-184.54 1506.72,-180.54 1502.72,-180.54 1502.72,-176.54 1506.72,-176.54 1506.72,-156.54 1502.72,-156.54 1502.72,-152.54 1506.72,-152.54 1506.72,-148.54 1729.72,-148.54 1729.72,-184.54"/>
<polyline fill="none" stroke="green" points="1506.72,-180.54 1510.72,-180.54 1510.72,-176.54 1506.72,-176.54 "/>
<polyline fill="none" stroke="green" points="1506.72,-156.54 1510.72,-156.54 1510.72,-152.54 1506.72,-152.54 "/>
<text text-anchor="middle" x="1618.22" y="-162.84" font-family="Times,serif" font-size="14.00">phaidra&#45;ssl&#45;mariadb&#45;fedora&#45;1</text>
</a>
</g>
</g>
<!-- HS_MARIADB_FEDORA&#45;&#45;C_MARIADB_FEDORA -->
<g id="edge19" class="edge">
<title>HS_MARIADB_FEDORA&#45;&#45;C_MARIADB_FEDORA</title>
<path fill="none" stroke="turquoise" d="M959.01,-2149.58C1042.42,-2156.89 1145.09,-2149.75 1211.72,-2088.54 1768.76,-1576.92 1284.51,-1135.5 1506.72,-412.54 1534.03,-323.71 1585.42,-224.74 1607.13,-184.76"/>
</g>
<!-- HS_DATABASE_DUMPS -->
<g id="node11" class="node">
<title>HS_DATABASE_DUMPS</title>
<polygon fill="none" stroke="turquoise" points="1188.72,-1455.54 1185.72,-1459.54 1164.72,-1459.54 1161.72,-1455.54 450.72,-1455.54 450.72,-1403.54 1188.72,-1403.54 1188.72,-1455.54"/>
<text text-anchor="start" x="462.72" y="-1437.34" font-family="Times,serif" font-weight="bold" font-size="14.00">host:</text>
<text text-anchor="start" x="601.72" y="-1436.34" font-family="Times,serif" font-size="14.00">$HOME/.local/share/docker/volumes/phaidra&#45;ssl_chronos_database_dumps/_data</text>
<text text-anchor="start" x="462.72" y="-1415.34" font-family="Times,serif" font-size="14.00">chronos&#45;container:</text>
<text text-anchor="start" x="601.72" y="-1415.34" font-family="Times,serif" font-size="14.00">/mnt/database&#45;dumps</text>
</g>
<!-- HS_SITEMAPS -->
<g id="node12" class="node">
<title>HS_SITEMAPS</title>
<polygon fill="none" stroke="turquoise" points="1161.22,-1315.04 1158.22,-1319.04 1137.22,-1319.04 1134.22,-1315.04 478.22,-1315.04 478.22,-1242.04 1161.22,-1242.04 1161.22,-1315.04"/>
<text text-anchor="start" x="490.72" y="-1296.34" font-family="Times,serif" font-weight="bold" font-size="14.00">host:</text>
<text text-anchor="start" x="629.72" y="-1295.34" font-family="Times,serif" font-size="14.00">$HOME/.local/share/docker/volumes/phaidra&#45;ssl_chronos_sitemaps/_data</text>
<text text-anchor="start" x="490.72" y="-1274.34" font-family="Times,serif" font-size="14.00">chronos&#45;container:</text>
<text text-anchor="start" x="629.72" y="-1274.34" font-family="Times,serif" font-size="14.00">/mnt/sitemaps</text>
<text text-anchor="start" x="490.72" y="-1253.34" font-family="Times,serif" font-size="14.00">httpd&#45;container:</text>
<text text-anchor="start" x="629.72" y="-1253.34" font-family="Times,serif" font-size="14.00">/mnt/sitemaps:ro</text>
</g>
<!-- HS_OAI_LOGS -->
<g id="node13" class="node">
<title>HS_OAI_LOGS</title>
<polygon fill="none" stroke="turquoise" points="1157.72,-1385.54 1154.72,-1389.54 1133.72,-1389.54 1130.72,-1385.54 481.72,-1385.54 481.72,-1333.54 1157.72,-1333.54 1157.72,-1385.54"/>
<text text-anchor="start" x="493.72" y="-1367.34" font-family="Times,serif" font-weight="bold" font-size="14.00">host:</text>
<text text-anchor="start" x="632.72" y="-1366.34" font-family="Times,serif" font-size="14.00">$HOME/.local/share/docker/volumes/phaidra&#45;ssl_chronos_oai_logs/_data</text>
<text text-anchor="start" x="493.72" y="-1345.34" font-family="Times,serif" font-size="14.00">chronos&#45;container:</text>
<text text-anchor="start" x="632.72" y="-1345.34" font-family="Times,serif" font-size="14.00">/mnt/oai&#45;logs</text>
</g>
<!-- BIND_MARIADB_PHAIDRA_INIT -->
<g id="node14" class="node">
<title>BIND_MARIADB_PHAIDRA_INIT</title>
<polygon fill="none" stroke="blue" points="1103.72,-564.54 1100.72,-568.54 1079.72,-568.54 1076.72,-564.54 535.72,-564.54 535.72,-512.54 1103.72,-512.54 1103.72,-564.54"/>
<text text-anchor="start" x="547.72" y="-546.34" font-family="Times,serif" font-weight="bold" font-size="14.00">host:</text>
<text text-anchor="start" x="749.72" y="-545.34" font-family="Times,serif" font-size="14.00">$REPO/container_init/mariadb/phaidradb.sql.gz</text>
<text text-anchor="start" x="547.72" y="-524.34" font-family="Times,serif" font-size="14.00">mariadb&#45;phaidra&#45;container:</text>
<text text-anchor="start" x="749.72" y="-524.34" font-family="Times,serif" font-size="14.00">/docker&#45;entrypoint&#45;initdb.d/phaidradb.sql.gz:ro</text>
</g>
<!-- BIND_MARIADB_PHAIDRA_INIT&#45;&#45;C_MARIADB_PHAIDRA -->
<g id="edge5" class="edge">
<title>BIND_MARIADB_PHAIDRA_INIT&#45;&#45;C_MARIADB_PHAIDRA</title>
<path fill="none" stroke="blue" d="M1104.19,-552.1C1144.82,-541.62 1182.63,-523.12 1211.72,-492.54 1257.17,-444.78 1188.89,-246.67 1231.72,-196.54 1234.46,-193.34 1237.5,-190.47 1240.77,-187.9"/>
</g>
<!-- BIND_OPENLDAP_INIT -->
<g id="node15" class="node">
<title>BIND_OPENLDAP_INIT</title>
<polygon fill="none" stroke="blue" points="1017.72,-1124.54 1014.72,-1128.54 993.72,-1128.54 990.72,-1124.54 621.72,-1124.54 621.72,-1072.54 1017.72,-1072.54 1017.72,-1124.54"/>
<text text-anchor="start" x="633.72" y="-1106.34" font-family="Times,serif" font-weight="bold" font-size="14.00">host:</text>
<text text-anchor="start" x="781.72" y="-1105.34" font-family="Times,serif" font-size="14.00">$REPO/container_init/openldap</text>
<text text-anchor="start" x="633.72" y="-1084.34" font-family="Times,serif" font-size="14.00">openldap&#45;container:</text>
<text text-anchor="start" x="781.72" y="-1084.34" font-family="Times,serif" font-size="14.00">/ldifs:ro</text>
</g>
<!-- BIND_OPENLDAP_INIT&#45;&#45;C_OPENLDAP -->
<g id="edge11" class="edge">
<title>BIND_OPENLDAP_INIT&#45;&#45;C_OPENLDAP</title>
<path fill="none" stroke="blue" d="M935.63,-1124.55C1024.26,-1137.15 1142.98,-1136.43 1211.72,-1063.54 1261.37,-1010.9 1185.73,-468.42 1231.72,-412.54 1239.57,-403.02 1250.01,-396.43 1261.47,-391.94"/>
</g>
<!-- BIND_HTTPD_CONFIG -->
<g id="node16" class="node">
<title>BIND_HTTPD_CONFIG</title>
<polygon fill="none" stroke="blue" points="1033.22,-914.54 1030.22,-918.54 1009.22,-918.54 1006.22,-914.54 606.22,-914.54 606.22,-862.54 1033.22,-862.54 1033.22,-914.54"/>
<text text-anchor="start" x="618.72" y="-896.34" font-family="Times,serif" font-weight="bold" font-size="14.00">host:</text>
<text text-anchor="start" x="740.72" y="-895.34" font-family="Times,serif" font-size="14.00">$REPO/container_init/httpd/phaidra&#45;ssl</text>
<text text-anchor="start" x="618.72" y="-874.34" font-family="Times,serif" font-size="14.00">httpd&#45;container:</text>
<text text-anchor="start" x="740.72" y="-874.34" font-family="Times,serif" font-size="14.00">/mnt/startup:ro</text>
</g>
<!-- BIND_API_CODE -->
<g id="node17" class="node">
<title>BIND_API_CODE</title>
<polygon fill="none" stroke="blue" points="999.22,-984.54 996.22,-988.54 975.22,-988.54 972.22,-984.54 640.22,-984.54 640.22,-932.54 999.22,-932.54 999.22,-984.54"/>
<text text-anchor="start" x="652.72" y="-966.34" font-family="Times,serif" font-weight="bold" font-size="14.00">host:</text>
<text text-anchor="start" x="757.72" y="-965.34" font-family="Times,serif" font-size="14.00">$REPO/src/phaidra&#45;api</text>
<text text-anchor="start" x="652.72" y="-944.34" font-family="Times,serif" font-size="14.00">api&#45;container:</text>
<text text-anchor="start" x="757.72" y="-944.34" font-family="Times,serif" font-size="14.00">/usr/local/phaidra/phaidra&#45;api:ro</text>
</g>
<!-- BIND_API_CODE&#45;&#45;C_API -->
<g id="edge4" class="edge">
<title>BIND_API_CODE&#45;&#45;C_API</title>
<path fill="none" stroke="blue" d="M640.01,-967.37C541.86,-967.15 436.48,-956.67 417.72,-914.54 408.57,-893.99 408.57,-530.1 417.72,-509.54 474.16,-382.82 653.09,-346.31 752.13,-335.8"/>
</g>
<!-- BIND_DOCUMENTATION -->
<g id="node18" class="node">
<title>BIND_DOCUMENTATION</title>
<polygon fill="none" stroke="blue" points="937.72,-844.54 934.72,-848.54 913.72,-848.54 910.72,-844.54 701.72,-844.54 701.72,-792.54 937.72,-792.54 937.72,-844.54"/>
<text text-anchor="start" x="713.72" y="-826.34" font-family="Times,serif" font-weight="bold" font-size="14.00">host:</text>
<text text-anchor="start" x="835.72" y="-825.34" font-family="Times,serif" font-size="14.00">$REPO/docs</text>
<text text-anchor="start" x="713.72" y="-804.34" font-family="Times,serif" font-size="14.00">httpd&#45;container:</text>
<text text-anchor="start" x="835.72" y="-804.34" font-family="Times,serif" font-size="14.00">/mnt/docs:ro</text>
</g>
<!-- BIND_CHRONOS -->
<g id="node19" class="node">
<title>BIND_CHRONOS</title>
<polygon fill="none" stroke="blue" points="1008.72,-1054.54 1005.72,-1058.54 984.72,-1058.54 981.72,-1054.54 630.72,-1054.54 630.72,-1002.54 1008.72,-1002.54 1008.72,-1054.54"/>
<text text-anchor="start" x="642.72" y="-1036.34" font-family="Times,serif" font-weight="bold" font-size="14.00">host:</text>
<text text-anchor="start" x="781.72" y="-1035.34" font-family="Times,serif" font-size="14.00">$REPO/container_init/chronos</text>
<text text-anchor="start" x="642.72" y="-1014.34" font-family="Times,serif" font-size="14.00">chronos&#45;container:</text>
<text text-anchor="start" x="781.72" y="-1014.34" font-family="Times,serif" font-size="14.00">/mnt/chronos:ro</text>
</g>
<!-- BIND_MONGODB_INIT_OAI -->
<g id="node20" class="node">
<title>BIND_MONGODB_INIT_OAI</title>
<polygon fill="none" stroke="blue" points="1081.72,-774.54 1078.72,-778.54 1057.72,-778.54 1054.72,-774.54 557.72,-774.54 557.72,-722.54 1081.72,-722.54 1081.72,-774.54"/>
<text text-anchor="start" x="569.72" y="-756.34" font-family="Times,serif" font-weight="bold" font-size="14.00">host:</text>
<text text-anchor="start" x="718.72" y="-755.34" font-family="Times,serif" font-size="14.00">$REPO/container_init/mongodb/init_oai_sets.json</text>
<text text-anchor="start" x="569.72" y="-734.34" font-family="Times,serif" font-size="14.00">mongodb&#45;container:</text>
<text text-anchor="start" x="718.72" y="-734.34" font-family="Times,serif" font-size="14.00">/mnt/init_oai_sets.json:ro</text>
</g>
<!-- BIND_MONGODB_INIT_OAI&#45;&#45;C_MONGODB_PHAIDRA -->
<g id="edge9" class="edge">
<title>BIND_MONGODB_INIT_OAI&#45;&#45;C_MONGODB_PHAIDRA</title>
<path fill="none" stroke="blue" d="M938.75,-774.57C1026.69,-786.36 1143.01,-784.57 1211.72,-713.54 1266.66,-656.76 1180.73,-418.9 1231.72,-358.54 1234.45,-355.32 1237.47,-352.44 1240.72,-349.86"/>
</g>
<!-- BIND_MONGODB_INIT -->
<g id="node21" class="node">
<title>BIND_MONGODB_INIT</title>
<polygon fill="none" stroke="blue" points="1104.22,-704.54 1101.22,-708.54 1080.22,-708.54 1077.22,-704.54 535.22,-704.54 535.22,-652.54 1104.22,-652.54 1104.22,-704.54"/>
<text text-anchor="start" x="547.72" y="-686.34" font-family="Times,serif" font-weight="bold" font-size="14.00">host:</text>
<text text-anchor="start" x="696.72" y="-685.34" font-family="Times,serif" font-size="14.00">$REPO/container_init/mongodb/mongodb&#45;after&#45;entry.sh</text>
<text text-anchor="start" x="547.72" y="-664.34" font-family="Times,serif" font-size="14.00">mongodb&#45;container:</text>
<text text-anchor="start" x="696.72" y="-664.34" font-family="Times,serif" font-size="14.00">/docker&#45;entrypoint&#45;initdb.d/mongodb&#45;after&#45;entry.sh:ro</text>
</g>
<!-- BIND_MONGODB_INIT&#45;&#45;C_MONGODB_PHAIDRA -->
<g id="edge8" class="edge">
<title>BIND_MONGODB_INIT&#45;&#45;C_MONGODB_PHAIDRA</title>
<path fill="none" stroke="blue" d="M940.75,-704.6C1028.27,-715.91 1143.12,-713.48 1211.72,-643.54 1256.18,-598.22 1190.41,-406.76 1231.72,-358.54 1234.47,-355.34 1237.51,-352.47 1240.78,-349.91"/>
</g>
<!-- BIND_SOLR_INIT -->
<g id="node22" class="node">
<title>BIND_SOLR_INIT</title>
<polygon fill="none" stroke="blue" points="1028.22,-634.54 1025.22,-638.54 1004.22,-638.54 1001.22,-634.54 611.22,-634.54 611.22,-582.54 1028.22,-582.54 1028.22,-634.54"/>
<text text-anchor="start" x="623.72" y="-616.34" font-family="Times,serif" font-weight="bold" font-size="14.00">host:</text>
<text text-anchor="start" x="733.72" y="-615.34" font-family="Times,serif" font-size="14.00">$REPO/container_init/solr/phaidra_core</text>
<text text-anchor="start" x="623.72" y="-594.34" font-family="Times,serif" font-size="14.00">solr&#45;container:</text>
<text text-anchor="start" x="733.72" y="-594.34" font-family="Times,serif" font-size="14.00">/tmp/phaidra:ro</text>
</g>
<!-- BIND_SOLR_INIT&#45;&#45;C_SOLR -->
<g id="edge13" class="edge">
<title>BIND_SOLR_INIT&#45;&#45;C_SOLR</title>
<path fill="none" stroke="blue" d="M941.12,-634.57C1028.54,-645.78 1143.09,-643.22 1211.72,-573.54 1253.79,-530.84 1192.63,-349.98 1231.72,-304.54 1244.11,-290.15 1262.43,-282.54 1280.99,-278.72"/>
</g>
<!-- BIND_PIXELGECKO -->
<g id="node23" class="node">
<title>BIND_PIXELGECKO</title>
<polygon fill="none" stroke="blue" points="990.22,-1194.54 987.22,-1198.54 966.22,-1198.54 963.22,-1194.54 649.22,-1194.54 649.22,-1142.54 990.22,-1142.54 990.22,-1194.54"/>
<text text-anchor="start" x="661.72" y="-1176.34" font-family="Times,serif" font-weight="bold" font-size="14.00">host:</text>
<text text-anchor="start" x="820.72" y="-1175.34" font-family="Times,serif" font-size="14.00">$REPO/src/pixelgecko</text>
<text text-anchor="start" x="661.72" y="-1154.34" font-family="Times,serif" font-size="14.00">pixelgecko&#45;container:</text>
<text text-anchor="start" x="820.72" y="-1154.34" font-family="Times,serif" font-size="14.00">/opt/pixelgecko:ro</text>
</g>
<!-- BIND_PIXELGECKO&#45;&#45;C_PIXELGECKO -->
<g id="edge17" class="edge">
<title>BIND_PIXELGECKO&#45;&#45;C_PIXELGECKO</title>
<path fill="none" stroke="blue" d="M990.54,-1186.62C1063.64,-1186.37 1146.99,-1174.64 1211.72,-1133.54 1479.15,-963.77 1591.14,-549.41 1613.09,-457.71"/>
</g>
<!-- C_FEDORA&#45;&#45;C_MARIADB_FEDORA -->
<g id="edge27" class="edge">
<title>C_FEDORA&#45;&#45;C_MARIADB_FEDORA</title>
<path fill="none" stroke="orange" d="M1431.01,-206.6C1463.21,-199.67 1500.49,-191.65 1533.2,-184.62"/>
</g>
<!-- C_API&#45;&#45;C_FEDORA -->
<g id="edge28" class="edge">
<title>C_API&#45;&#45;C_FEDORA</title>
<path fill="none" stroke="orange" d="M887.47,-322.03C965.86,-310.14 1099.45,-287.64 1211.72,-257.54 1220.82,-255.11 1222.67,-253.15 1231.72,-250.54 1244.5,-246.87 1258.16,-243.36 1271.5,-240.17"/>
</g>
<!-- C_API&#45;&#45;C_MARIADB_PHAIDRA -->
<g id="edge29" class="edge">
<title>C_API&#45;&#45;C_MARIADB_PHAIDRA</title>
<path fill="none" stroke="orange" d="M887.26,-328.74C970.59,-322.16 1114.23,-300.36 1211.72,-228.54 1225.23,-218.6 1218.05,-206.26 1231.72,-196.54 1236.45,-193.18 1241.53,-190.23 1246.83,-187.64"/>
</g>
<!-- C_API&#45;&#45;C_MONGODB_PHAIDRA -->
<g id="edge30" class="edge">
<title>C_API&#45;&#45;C_MONGODB_PHAIDRA</title>
<path fill="none" stroke="orange" d="M887.25,-331.54C973.49,-331.54 1125.4,-331.54 1231.61,-331.54"/>
</g>
<!-- C_UI -->
<g id="node28" class="node">
<title>C_UI</title>
<g id="a_node28"><a xlink:href="https://github.com/phaidra/phaidra-ui" xlink:title="phaidra&#45;ssl&#45;ui&#45;1">
<polygon fill="none" stroke="green" points="1414.72,-133.54 1287.72,-133.54 1287.72,-129.54 1283.72,-129.54 1283.72,-125.54 1287.72,-125.54 1287.72,-105.54 1283.72,-105.54 1283.72,-101.54 1287.72,-101.54 1287.72,-97.54 1414.72,-97.54 1414.72,-133.54"/>
<polyline fill="none" stroke="green" points="1287.72,-129.54 1291.72,-129.54 1291.72,-125.54 1287.72,-125.54 "/>
<polyline fill="none" stroke="green" points="1287.72,-105.54 1291.72,-105.54 1291.72,-101.54 1287.72,-101.54 "/>
<text text-anchor="middle" x="1351.22" y="-111.84" font-family="Times,serif" font-size="14.00">phaidra&#45;ssl&#45;ui&#45;1</text>
</a>
</g>
</g>
<!-- C_API&#45;&#45;C_UI -->
<g id="edge31" class="edge">
<title>C_API&#45;&#45;C_UI</title>
<path fill="none" stroke="orange" d="M887.57,-327.68C973.92,-319.12 1123.57,-291.66 1211.72,-203.54 1231.9,-183.38 1210.63,-161.76 1231.72,-142.54 1246.93,-128.69 1267.74,-121.47 1287.68,-117.84"/>
</g>
<!-- C_API&#45;&#45;C_OPENLDAP -->
<g id="edge32" class="edge">
<title>C_API&#45;&#45;C_OPENLDAP</title>
<path fill="none" stroke="orange" d="M887.25,-338.33C981.96,-347.99 1155.88,-365.73 1261.48,-376.5"/>
</g>
<!-- C_API&#45;&#45;C_SOLR -->
<g id="edge33" class="edge">
<title>C_API&#45;&#45;C_SOLR</title>
<path fill="none" stroke="orange" d="M887.25,-324.76C988.07,-314.48 1178.65,-295.04 1281.03,-284.6"/>
</g>
<!-- C_API&#45;&#45;C_IMAGESERVER -->
<g id="edge34" class="edge">
<title>C_API&#45;&#45;C_IMAGESERVER</title>
<path fill="none" stroke="orange" d="M887.25,-345.11C982.1,-364.46 1156.39,-400.01 1261.95,-421.54"/>
</g>
<!-- C_MONGODB_PHAIDRA&#45;&#45;C_PIXELGECKO -->
<g id="edge35" class="edge">
<title>C_MONGODB_PHAIDRA&#45;&#45;C_PIXELGECKO</title>
<path fill="none" stroke="orange" d="M1443.58,-349.62C1452.86,-352.27 1462.05,-355.23 1470.72,-358.54 1514.57,-375.28 1561.4,-403.14 1590,-421.42"/>
</g>
<!-- C_LAM -->
<g id="node34" class="node">
<title>C_LAM</title>
<polygon fill="none" stroke="green" points="1688.22,-102.54 1548.22,-102.54 1548.22,-98.54 1544.22,-98.54 1544.22,-94.54 1548.22,-94.54 1548.22,-74.54 1544.22,-74.54 1544.22,-70.54 1548.22,-70.54 1548.22,-66.54 1688.22,-66.54 1688.22,-102.54"/>
<polyline fill="none" stroke="green" points="1548.22,-98.54 1552.22,-98.54 1552.22,-94.54 1548.22,-94.54 "/>
<polyline fill="none" stroke="green" points="1548.22,-74.54 1552.22,-74.54 1552.22,-70.54 1548.22,-70.54 "/>
<text text-anchor="middle" x="1618.22" y="-80.84" font-family="Times,serif" font-size="14.00">phaidra&#45;ssl&#45;lam&#45;1</text>
</g>
<!-- C_OPENLDAP&#45;&#45;C_LAM -->
<g id="edge36" class="edge">
<title>C_OPENLDAP&#45;&#45;C_LAM</title>
<path fill="none" stroke="orange" d="M1440.78,-377.85C1452.04,-373.5 1462.48,-367.31 1470.72,-358.54 1538.31,-286.7 1448.14,-218.9 1506.72,-139.54 1519,-122.91 1537.73,-111 1556.29,-102.62"/>
</g>
<!-- C_DBGATE&#45;&#45;C_MARIADB_PHAIDRA -->
<g id="edge37" class="edge">
<title>C_DBGATE&#45;&#45;C_MARIADB_PHAIDRA</title>
<path fill="none" stroke="orange" d="M901.43,-162.76C990.31,-164.11 1133.96,-166.28 1234.74,-167.8"/>
</g>
<!-- C_DBGATE&#45;&#45;C_MONGODB_PHAIDRA -->
<g id="edge38" class="edge">
<title>C_DBGATE&#45;&#45;C_MONGODB_PHAIDRA</title>
<path fill="none" stroke="orange" d="M867.03,-179.55C942.56,-208.48 1097.38,-266 1231.72,-304.54 1242.67,-307.69 1254.28,-310.71 1265.77,-313.51"/>
</g>
<!-- C_DBGATE&#45;&#45;C_MARIADB_FEDORA -->
<g id="edge39" class="edge">
<title>C_DBGATE&#45;&#45;C_MARIADB_FEDORA</title>
<path fill="none" stroke="orange" d="M888.38,-143.53C1032.86,-106.49 1366.83,-28.86 1470.72,-73.54 1492.09,-82.74 1488.02,-97.71 1506.72,-111.54 1526.7,-126.33 1551.26,-139.01 1572.15,-148.46"/>
</g>
<!-- C_CHRONOS -->
<g id="node36" class="node">
<title>C_CHRONOS</title>
<polygon fill="none" stroke="green" points="407.72,-406.54 237.72,-406.54 237.72,-402.54 233.72,-402.54 233.72,-398.54 237.72,-398.54 237.72,-378.54 233.72,-378.54 233.72,-374.54 237.72,-374.54 237.72,-370.54 407.72,-370.54 407.72,-406.54"/>
<polyline fill="none" stroke="green" points="237.72,-402.54 241.72,-402.54 241.72,-398.54 237.72,-398.54 "/>
<polyline fill="none" stroke="green" points="237.72,-378.54 241.72,-378.54 241.72,-374.54 237.72,-374.54 "/>
<text text-anchor="middle" x="322.72" y="-384.84" font-family="Times,serif" font-size="14.00">phaidra&#45;ssl&#45;chronos&#45;1</text>
</g>
<!-- C_CHRONOS&#45;&#45;HS_DATABASE_DUMPS -->
<g id="edge23" class="edge">
<title>C_CHRONOS&#45;&#45;HS_DATABASE_DUMPS</title>
<path fill="none" stroke="turquoise" d="M324.24,-406.69C328.09,-536.61 354.36,-1322.18 427.72,-1394.54 496.14,-1462.03 607.8,-1465.79 694.32,-1455.55"/>
</g>
<!-- C_CHRONOS&#45;&#45;HS_SITEMAPS -->
<g id="edge24" class="edge">
<title>C_CHRONOS&#45;&#45;HS_SITEMAPS</title>
<path fill="none" stroke="turquoise" d="M324.64,-406.6C330.77,-523.36 367.24,-1168.96 427.72,-1229.54 442.59,-1244.43 459.52,-1256.45 477.81,-1266.07"/>
</g>
<!-- C_CHRONOS&#45;&#45;HS_OAI_LOGS -->
<g id="edge25" class="edge">
<title>C_CHRONOS&#45;&#45;HS_OAI_LOGS</title>
<path fill="none" stroke="turquoise" d="M324.38,-406.61C329.08,-531.01 359.37,-1257.64 427.72,-1324.54 496.03,-1391.41 606.85,-1395.51 693.1,-1385.56"/>
</g>
<!-- C_CHRONOS&#45;&#45;BIND_CHRONOS -->
<g id="edge26" class="edge">
<title>C_CHRONOS&#45;&#45;BIND_CHRONOS</title>
<path fill="none" stroke="blue" d="M323.99,-406.62C325.77,-498.36 338.7,-911.45 427.72,-993.54 494.48,-1055.11 597.68,-1062.07 681.29,-1054.58"/>
</g>
<!-- C_CHRONOS&#45;&#45;C_API -->
<g id="edge50" class="edge">
<title>C_CHRONOS&#45;&#45;C_API</title>
<path fill="none" stroke="orange" d="M392.23,-370.5C404.01,-367.85 416.17,-365.39 427.72,-363.54 540.71,-345.45 673.79,-337.33 751.93,-333.88"/>
</g>
<!-- C_CHRONOS&#45;&#45;C_MARIADB_PHAIDRA -->
<g id="edge47" class="edge">
<title>C_CHRONOS&#45;&#45;C_MARIADB_PHAIDRA</title>
<path fill="none" stroke="orange" d="M340.11,-370.31C359.08,-350.51 392.29,-319.68 427.72,-304.54 750.8,-166.51 869.84,-284.46 1211.72,-203.54 1220.89,-201.38 1222.67,-199.15 1231.72,-196.54 1242.67,-193.39 1254.27,-190.37 1265.77,-187.56"/>
</g>
<!-- C_CHRONOS&#45;&#45;C_MONGODB_PHAIDRA -->
<g id="edge46" class="edge">
<title>C_CHRONOS&#45;&#45;C_MONGODB_PHAIDRA</title>
<path fill="none" stroke="orange" d="M407.76,-403.85C568.92,-429.61 930.4,-469.97 1211.72,-373.54 1222.23,-369.94 1221.64,-363.21 1231.72,-358.54 1239,-355.18 1246.72,-352.21 1254.61,-349.61"/>
</g>
<!-- C_CHRONOS&#45;&#45;C_SOLR -->
<g id="edge49" class="edge">
<title>C_CHRONOS&#45;&#45;C_SOLR</title>
<path fill="none" stroke="orange" d="M407.91,-375.5C414.6,-374.74 421.27,-374.07 427.72,-373.54 449.43,-371.78 1193.96,-371.16 1211.72,-358.54 1232.59,-343.72 1212.48,-321.42 1231.72,-304.54 1245.44,-292.51 1263.42,-285.52 1281.21,-281.55"/>
</g>
<!-- C_CHRONOS&#45;&#45;C_MARIADB_FEDORA -->
<g id="edge48" class="edge">
<title>C_CHRONOS&#45;&#45;C_MARIADB_FEDORA</title>
<path fill="none" stroke="orange" d="M348.67,-370.37C367.86,-355.02 393.44,-331.29 407.72,-304.54 429.28,-264.18 392.64,-232.93 427.72,-203.54 461.12,-175.57 1178.3,-216.48 1211.72,-188.54 1246.5,-159.48 1196.67,-117.28 1231.72,-88.54 1252.26,-71.71 1445.23,-81.1 1470.72,-88.54 1488.95,-93.87 1490.2,-102.19 1506.72,-111.54 1530.03,-124.74 1556.92,-138.16 1578.34,-148.45"/>
</g>
<!-- WEBSERVER&#45;&#45;HS_SITEMAPS -->
<g id="edge22" class="edge">
<title>WEBSERVER&#45;&#45;HS_SITEMAPS</title>
<path fill="none" stroke="turquoise" d="M350.77,-295.72C370.57,-310.75 395.96,-334.05 407.72,-361.54 426.69,-405.89 395.39,-1193.75 427.72,-1229.54 442.28,-1245.66 459.24,-1258.54 477.79,-1268.73"/>
</g>
<!-- WEBSERVER&#45;&#45;BIND_HTTPD_CONFIG -->
<g id="edge20" class="edge">
<title>WEBSERVER&#45;&#45;BIND_HTTPD_CONFIG</title>
<path fill="none" stroke="blue" d="M350.63,-295.78C370.36,-310.84 395.72,-334.15 407.72,-361.54 429.68,-411.66 389.99,-813.93 427.72,-853.54 496.47,-925.72 614.28,-926.85 702.65,-914.56"/>
</g>
<!-- WEBSERVER&#45;&#45;BIND_DOCUMENTATION -->
<g id="edge21" class="edge">
<title>WEBSERVER&#45;&#45;BIND_DOCUMENTATION</title>
<path fill="none" stroke="blue" d="M350.58,-295.8C370.28,-310.88 395.63,-334.2 407.72,-361.54 426.71,-404.48 395.23,-749.66 427.72,-783.54 496.47,-855.24 613.68,-856.64 701.88,-844.55"/>
</g>
<!-- WEBSERVER&#45;&#45;C_FEDORA -->
<g id="edge40" class="edge">
<title>WEBSERVER&#45;&#45;C_FEDORA</title>
<path fill="none" stroke="magenta" d="M398.79,-273.6C587.24,-263.68 1078.96,-237.81 1271.39,-227.69"/>
</g>
<!-- WEBSERVER&#45;&#45;C_API -->
<g id="edge41" class="edge">
<title>WEBSERVER&#45;&#45;C_API</title>
<path fill="none" stroke="magenta" d="M398.9,-285.75C495.05,-296.24 660.08,-314.24 751.98,-324.26"/>
</g>
<!-- WEBSERVER&#45;&#45;C_UI -->
<g id="edge42" class="edge">
<title>WEBSERVER&#45;&#45;C_UI</title>
<path fill="none" stroke="magenta" d="M330.59,-259.32C343.78,-227.24 376.02,-161.55 427.72,-134.54 717.56,16.83 1131.7,-61.12 1287.64,-98.92"/>
</g>
<!-- WEBSERVER&#45;&#45;C_SOLR -->
<g id="edge43" class="edge">
<title>WEBSERVER&#45;&#45;C_SOLR</title>
<path fill="none" stroke="magenta" d="M398.79,-277.54C590.48,-277.54 1095.93,-277.54 1281.03,-277.54"/>
</g>
<!-- WEBSERVER&#45;&#45;C_DBGATE -->
<g id="edge44" class="edge">
<title>WEBSERVER&#45;&#45;C_DBGATE</title>
<path fill="none" stroke="magenta" d="M339.64,-259.37C358.44,-239.3 391.73,-207.94 427.72,-193.54 529.06,-153.01 656.74,-150.68 738.07,-154.61"/>
</g>
<!-- WEBSERVER&#45;&#45;C_LAM -->
<g id="edge45" class="edge">
<title>WEBSERVER&#45;&#45;C_LAM</title>
<path fill="none" stroke="magenta" d="M325.36,-259.3C330.58,-213.38 351.31,-93.21 427.72,-43.54 573.81,51.39 1037.55,-39.51 1211.72,-43.54 1326.93,-46.21 1356.33,-41.65 1470.72,-55.54 1496.07,-58.62 1523.61,-63.63 1547.89,-68.62"/>
</g>
</g>
</svg>
