<?xml version="1.0" encoding="UTF-8" standalone="no"?>
<!DOCTYPE svg PUBLIC "-//W3C//DTD SVG 1.1//EN"
 "http://www.w3.org/Graphics/SVG/1.1/DTD/svg11.dtd">
<!-- Generated by graphviz version 2.43.0 (0)
 -->
<!-- Title: G Pages: 1 -->
<svg width="1855pt" height="2197pt"
 viewBox="0.00 0.00 1854.72 2197.29" xmlns="http://www.w3.org/2000/svg" xmlns:xlink="http://www.w3.org/1999/xlink">
<g id="graph0" class="graph" transform="scale(1 1) rotate(0) translate(4 2193.29)">
<title>G</title>
<polygon fill="white" stroke="transparent" points="-4,4 -4,-2193.29 1850.72,-2193.29 1850.72,4 -4,4"/>
<g id="clust1" class="cluster">
<title>cluster_host</title>
<polygon fill="none" stroke="red" points="8,-30.29 8,-2181.29 1838.72,-2181.29 1838.72,-30.29 8,-30.29"/>
<text text-anchor="middle" x="923.36" y="-2166.09" font-family="Times,serif" font-size="14.00">PHAIDRA server firewall</text>
</g>
<g id="clust2" class="cluster">
<title>cluster_host_storage</title>
<polygon fill="none" stroke="blue" points="462.72,-505.29 462.72,-2150.29 1266.72,-2150.29 1266.72,-505.29 462.72,-505.29"/>
<text text-anchor="middle" x="864.72" y="-2135.09" font-family="Times,serif" font-size="14.00">PHAIDRA server filesystem</text>
</g>
<g id="clust3" class="cluster">
<title>cluster_named_volumes</title>
<polygon fill="none" stroke="turquoise" points="470.72,-1172.29 470.72,-2119.29 1258.72,-2119.29 1258.72,-1172.29 470.72,-1172.29"/>
<text text-anchor="middle" x="864.72" y="-2104.09" font-family="Times,serif" font-size="14.00">Named volumes</text>
</g>
<g id="clust4" class="cluster">
<title>cluster_bind_mounts</title>
<polygon fill="none" stroke="blue" points="572.22,-513.29 572.22,-1164.29 1157.22,-1164.29 1157.22,-513.29 572.22,-513.29"/>
<text text-anchor="middle" x="864.72" y="-1149.09" font-family="Times,serif" font-size="14.00">Bind mounts</text>
</g>
<g id="clust5" class="cluster">
<title>cluster_docker_network_host</title>
<polygon fill="none" stroke="green" points="245.72,-38.29 245.72,-497.29 1830.72,-497.29 1830.72,-38.29 245.72,-38.29"/>
<text text-anchor="middle" x="1038.22" y="-482.09" font-family="Times,serif" font-size="14.00">PHAIDRA docker containers</text>
</g>
<!-- USER -->
<g id="node1" class="node">
<title>USER</title>
<polygon fill="none" stroke="black" points="209.59,-286.83 209.59,-301.74 155.27,-312.29 78.45,-312.29 24.13,-301.74 24.13,-286.83 78.45,-276.29 155.27,-276.29 209.59,-286.83"/>
<polygon fill="none" stroke="black" points="213.59,-283.53 213.59,-305.04 155.66,-316.29 78.07,-316.29 20.13,-305.04 20.13,-283.53 78.07,-272.29 155.66,-272.29 213.59,-283.53"/>
<polygon fill="none" stroke="black" points="217.58,-280.23 217.58,-308.34 156.04,-320.29 77.68,-320.29 16.14,-308.34 16.14,-280.23 77.68,-268.29 156.04,-268.29 217.58,-280.23"/>
<text text-anchor="middle" x="116.86" y="-290.59" font-family="Times,serif" font-size="14.00">PHAIDRA USER</text>
</g>
<!-- WEBSERVER -->
<g id="node36" class="node">
<title>WEBSERVER</title>
<polygon fill="none" stroke="green" points="434.22,-312.29 262.22,-312.29 262.22,-308.29 258.22,-308.29 258.22,-304.29 262.22,-304.29 262.22,-284.29 258.22,-284.29 258.22,-280.29 262.22,-280.29 262.22,-276.29 434.22,-276.29 434.22,-312.29"/>
<polyline fill="none" stroke="green" points="262.22,-308.29 266.22,-308.29 266.22,-304.29 262.22,-304.29 "/>
<polyline fill="none" stroke="green" points="262.22,-284.29 266.22,-284.29 266.22,-280.29 262.22,-280.29 "/>
<text text-anchor="middle" x="348.22" y="-290.59" font-family="Times,serif" font-size="14.00">phaidra&#45;demo&#45;httpd&#45;1</text>
</g>
<!-- USER&#45;&#45;WEBSERVER -->
<g id="edge50" class="edge">
<title>USER&#45;&#45;WEBSERVER</title>
<path fill="none" stroke="green" d="M217.79,-294.29C232.52,-294.29 247.58,-294.29 261.97,-294.29"/>
</g>
<!-- HS_FEDORA -->
<g id="node2" class="node">
<title>HS_FEDORA</title>
<polygon fill="none" stroke="turquoise" points="1185.22,-1856.29 1182.22,-1860.29 1161.22,-1860.29 1158.22,-1856.29 544.22,-1856.29 544.22,-1762.29 1185.22,-1762.29 1185.22,-1856.29"/>
<text text-anchor="start" x="556.72" y="-1838.09" font-family="Times,serif" font-weight="bold" font-size="14.00">host:</text>
<text text-anchor="start" x="715.72" y="-1837.09" font-family="Times,serif" font-size="14.00">$HOME/.local/share/docker/volumes/phaidra&#45;demo_fedora/_data</text>
<text text-anchor="start" x="556.72" y="-1816.09" font-family="Times,serif" font-size="14.00">fedora&#45;container:</text>
<text text-anchor="start" x="715.72" y="-1816.09" font-family="Times,serif" font-size="14.00">/usr/local/tomcat/fcrepo&#45;home</text>
<text text-anchor="start" x="556.72" y="-1795.09" font-family="Times,serif" font-size="14.00">pixelgecko&#45;container:</text>
<text text-anchor="start" x="715.72" y="-1795.09" font-family="Times,serif" font-size="14.00"> /mnt/fedora:ro</text>
<text text-anchor="start" x="556.72" y="-1774.09" font-family="Times,serif" font-size="14.00">api&#45;container:</text>
<text text-anchor="start" x="715.72" y="-1774.09" font-family="Times,serif" font-size="14.00"> /mnt/fedora:ro</text>
</g>
<!-- C_FEDORA -->
<g id="node23" class="node">
<title>C_FEDORA</title>
<g id="a_node23"><a xlink:href="https://fedora.lyrasis.org/" xlink:title="phaidra&#45;demo&#45;fedora&#45;1">
<polygon fill="none" stroke="green" points="1505.22,-250.29 1326.22,-250.29 1326.22,-246.29 1322.22,-246.29 1322.22,-242.29 1326.22,-242.29 1326.22,-222.29 1322.22,-222.29 1322.22,-218.29 1326.22,-218.29 1326.22,-214.29 1505.22,-214.29 1505.22,-250.29"/>
<polyline fill="none" stroke="green" points="1326.22,-246.29 1330.22,-246.29 1330.22,-242.29 1326.22,-242.29 "/>
<polyline fill="none" stroke="green" points="1326.22,-222.29 1330.22,-222.29 1330.22,-218.29 1326.22,-218.29 "/>
<text text-anchor="middle" x="1415.72" y="-228.59" font-family="Times,serif" font-size="14.00">phaidra&#45;demo&#45;fedora&#45;1</text>
</a>
</g>
</g>
<!-- HS_FEDORA&#45;&#45;C_FEDORA -->
<g id="edge1" class="edge">
<title>HS_FEDORA&#45;&#45;C_FEDORA</title>
<path fill="none" stroke="turquoise" d="M1185.52,-1808.57C1216.36,-1796.38 1244.4,-1778.59 1266.72,-1753.29 1321.63,-1691.03 1234,-323.4 1286.72,-259.29 1296.82,-247.01 1310.96,-239.42 1326.19,-234.89"/>
</g>
<!-- C_API -->
<g id="node24" class="node">
<title>C_API</title>
<g id="a_node24"><a xlink:href="https://github.com/phaidra/phaidra-api" xlink:title="phaidra&#45;demo&#45;api&#45;1">
<polygon fill="none" stroke="green" points="942.22,-358.29 787.22,-358.29 787.22,-354.29 783.22,-354.29 783.22,-350.29 787.22,-350.29 787.22,-330.29 783.22,-330.29 783.22,-326.29 787.22,-326.29 787.22,-322.29 942.22,-322.29 942.22,-358.29"/>
<polyline fill="none" stroke="green" points="787.22,-354.29 791.22,-354.29 791.22,-350.29 787.22,-350.29 "/>
<polyline fill="none" stroke="green" points="787.22,-330.29 791.22,-330.29 791.22,-326.29 787.22,-326.29 "/>
<text text-anchor="middle" x="864.72" y="-336.59" font-family="Times,serif" font-size="14.00">phaidra&#45;demo&#45;api&#45;1</text>
</a>
</g>
</g>
<!-- HS_FEDORA&#45;&#45;C_API -->
<g id="edge3" class="edge">
<title>HS_FEDORA&#45;&#45;C_API</title>
<path fill="none" stroke="turquoise" d="M544.01,-1824.19C504.03,-1809.85 470.84,-1784.97 452.72,-1744.29 445.79,-1728.73 445.79,-533.84 452.72,-518.29 508.75,-392.48 683.81,-355.54 786.83,-344.73"/>
</g>
<!-- C_PIXELGECKO -->
<g id="node31" class="node">
<title>C_PIXELGECKO</title>
<polygon fill="none" stroke="green" points="1806.22,-466.29 1597.22,-466.29 1597.22,-462.29 1593.22,-462.29 1593.22,-458.29 1597.22,-458.29 1597.22,-438.29 1593.22,-438.29 1593.22,-434.29 1597.22,-434.29 1597.22,-430.29 1806.22,-430.29 1806.22,-466.29"/>
<polyline fill="none" stroke="green" points="1597.22,-462.29 1601.22,-462.29 1601.22,-458.29 1597.22,-458.29 "/>
<polyline fill="none" stroke="green" points="1597.22,-438.29 1601.22,-438.29 1601.22,-434.29 1597.22,-434.29 "/>
<text text-anchor="middle" x="1701.72" y="-444.59" font-family="Times,serif" font-size="14.00">phaidra&#45;demo&#45;pixelgecko&#45;1</text>
</g>
<!-- HS_FEDORA&#45;&#45;C_PIXELGECKO -->
<g id="edge15" class="edge">
<title>HS_FEDORA&#45;&#45;C_PIXELGECKO</title>
<path fill="none" stroke="turquoise" d="M1185.36,-1798.76C1214.88,-1788.05 1242.68,-1773.3 1266.72,-1753.29 1280.37,-1741.92 1643.76,-623.75 1694.79,-466.57"/>
</g>
<!-- HS_API_LOGS -->
<g id="node3" class="node">
<title>HS_API_LOGS</title>
<polygon fill="none" stroke="turquoise" points="1164.22,-2018.29 1161.22,-2022.29 1140.22,-2022.29 1137.22,-2018.29 565.22,-2018.29 565.22,-1966.29 1164.22,-1966.29 1164.22,-2018.29"/>
<text text-anchor="start" x="577.72" y="-2000.09" font-family="Times,serif" font-weight="bold" font-size="14.00">host:</text>
<text text-anchor="start" x="682.72" y="-1999.09" font-family="Times,serif" font-size="14.00">$HOME/.local/share/docker/volumes/phaidra&#45;demo_api_logs/_data</text>
<text text-anchor="start" x="577.72" y="-1978.09" font-family="Times,serif" font-size="14.00">api&#45;container:</text>
<text text-anchor="start" x="682.72" y="-1978.09" font-family="Times,serif" font-size="14.00">/var/log/phaidra</text>
</g>
<!-- HS_API_LOGS&#45;&#45;C_API -->
<g id="edge2" class="edge">
<title>HS_API_LOGS&#45;&#45;C_API</title>
<path fill="none" stroke="turquoise" d="M565.14,-1995.8C509.19,-1988.77 464.45,-1974.61 452.72,-1948.29 444.64,-1930.14 444.64,-536.43 452.72,-518.29 508.75,-392.48 683.81,-355.54 786.83,-344.73"/>
</g>
<!-- HS_MARIADB_PHAIDRA -->
<g id="node4" class="node">
<title>HS_MARIADB_PHAIDRA</title>
<polygon fill="none" stroke="turquoise" points="1244.22,-1604.29 1241.22,-1608.29 1220.22,-1608.29 1217.22,-1604.29 485.22,-1604.29 485.22,-1552.29 1244.22,-1552.29 1244.22,-1604.29"/>
<text text-anchor="start" x="497.72" y="-1586.09" font-family="Times,serif" font-weight="bold" font-size="14.00">host:</text>
<text text-anchor="start" x="699.72" y="-1585.09" font-family="Times,serif" font-size="14.00">$HOME/.local/share/docker/volumes/phaidra&#45;demo_mariadb_phaidra/_data</text>
<text text-anchor="start" x="497.72" y="-1564.09" font-family="Times,serif" font-size="14.00">mariadb&#45;phaidra&#45;container:</text>
<text text-anchor="start" x="699.72" y="-1564.09" font-family="Times,serif" font-size="14.00">/var/lib/mysql</text>
</g>
<!-- C_MARIADB_PHAIDRA -->
<g id="node25" class="node">
<title>C_MARIADB_PHAIDRA</title>
<g id="a_node25"><a xlink:href="https://mariadb.org/" xlink:title="phaidra&#45;demo&#45;mariadb&#45;phaidra&#45;1">
<polygon fill="none" stroke="green" points="1541.22,-196.29 1290.22,-196.29 1290.22,-192.29 1286.22,-192.29 1286.22,-188.29 1290.22,-188.29 1290.22,-168.29 1286.22,-168.29 1286.22,-164.29 1290.22,-164.29 1290.22,-160.29 1541.22,-160.29 1541.22,-196.29"/>
<polyline fill="none" stroke="green" points="1290.22,-192.29 1294.22,-192.29 1294.22,-188.29 1290.22,-188.29 "/>
<polyline fill="none" stroke="green" points="1290.22,-168.29 1294.22,-168.29 1294.22,-164.29 1290.22,-164.29 "/>
<text text-anchor="middle" x="1415.72" y="-174.59" font-family="Times,serif" font-size="14.00">phaidra&#45;demo&#45;mariadb&#45;phaidra&#45;1</text>
</a>
</g>
</g>
<!-- HS_MARIADB_PHAIDRA&#45;&#45;C_MARIADB_PHAIDRA -->
<g id="edge6" class="edge">
<title>HS_MARIADB_PHAIDRA&#45;&#45;C_MARIADB_PHAIDRA</title>
<path fill="none" stroke="turquoise" d="M975.58,-1604.3C1067.41,-1618.83 1194.61,-1620.8 1266.72,-1543.29 1317.36,-1488.86 1239.46,-262.67 1286.72,-205.29 1289.47,-201.96 1292.51,-198.97 1295.79,-196.3"/>
</g>
<!-- HS_MONGODB_PHAIDRA -->
<g id="node5" class="node">
<title>HS_MONGODB_PHAIDRA</title>
<polygon fill="none" stroke="turquoise" points="1250.72,-1464.29 1247.72,-1468.29 1226.72,-1468.29 1223.72,-1464.29 478.72,-1464.29 478.72,-1412.29 1250.72,-1412.29 1250.72,-1464.29"/>
<text text-anchor="start" x="490.72" y="-1446.09" font-family="Times,serif" font-weight="bold" font-size="14.00">host:</text>
<text text-anchor="start" x="698.72" y="-1445.09" font-family="Times,serif" font-size="14.00">$HOME/.local/share/docker/volumes/phaidra&#45;demo_mongodb_phaidra/_data</text>
<text text-anchor="start" x="490.72" y="-1424.09" font-family="Times,serif" font-size="14.00">phaidra&#45;mongodb&#45;container:</text>
<text text-anchor="start" x="698.72" y="-1424.09" font-family="Times,serif" font-size="14.00">/data/db</text>
</g>
<!-- C_MONGODB_PHAIDRA -->
<g id="node26" class="node">
<title>C_MONGODB_PHAIDRA</title>
<g id="a_node26"><a xlink:href="https://www.mongodb.com/" xlink:title="phaidra&#45;demo&#45;mongodb&#45;phaidra&#45;1">
<polygon fill="none" stroke="green" points="1544.72,-358.29 1286.72,-358.29 1286.72,-354.29 1282.72,-354.29 1282.72,-350.29 1286.72,-350.29 1286.72,-330.29 1282.72,-330.29 1282.72,-326.29 1286.72,-326.29 1286.72,-322.29 1544.72,-322.29 1544.72,-358.29"/>
<polyline fill="none" stroke="green" points="1286.72,-354.29 1290.72,-354.29 1290.72,-350.29 1286.72,-350.29 "/>
<polyline fill="none" stroke="green" points="1286.72,-330.29 1290.72,-330.29 1290.72,-326.29 1286.72,-326.29 "/>
<text text-anchor="middle" x="1415.72" y="-336.59" font-family="Times,serif" font-size="14.00">phaidra&#45;demo&#45;mongodb&#45;phaidra&#45;1</text>
</a>
</g>
</g>
<!-- HS_MONGODB_PHAIDRA&#45;&#45;C_MONGODB_PHAIDRA -->
<g id="edge7" class="edge">
<title>HS_MONGODB_PHAIDRA&#45;&#45;C_MONGODB_PHAIDRA</title>
<path fill="none" stroke="turquoise" d="M975.95,-1464.29C1067.69,-1478.7 1194.56,-1480.51 1266.72,-1403.29 1306.03,-1361.23 1250.03,-411.64 1286.72,-367.29 1289.47,-363.96 1292.52,-360.98 1295.8,-358.31"/>
</g>
<!-- HS_OPENLDAP -->
<g id="node6" class="node">
<title>HS_OPENLDAP</title>
<polygon fill="none" stroke="turquoise" points="1189.72,-1744.29 1186.72,-1748.29 1165.72,-1748.29 1162.72,-1744.29 539.72,-1744.29 539.72,-1692.29 1189.72,-1692.29 1189.72,-1744.29"/>
<text text-anchor="start" x="551.72" y="-1726.09" font-family="Times,serif" font-weight="bold" font-size="14.00">host:</text>
<text text-anchor="start" x="699.72" y="-1725.09" font-family="Times,serif" font-size="14.00">$HOME/.local/share/docker/volumes/phaidra&#45;demo_openldap/_data</text>
<text text-anchor="start" x="551.72" y="-1704.09" font-family="Times,serif" font-size="14.00">openldap&#45;container:</text>
<text text-anchor="start" x="699.72" y="-1704.09" font-family="Times,serif" font-size="14.00">/bitnami/openldap</text>
</g>
<!-- C_OPENLDAP -->
<g id="node28" class="node">
<title>C_OPENLDAP</title>
<g id="a_node28"><a xlink:href="https://www.openldap.org/" xlink:title="phaidra&#45;demo&#45;openldap&#45;1">
<polygon fill="none" stroke="green" points="1514.72,-412.29 1316.72,-412.29 1316.72,-408.29 1312.72,-408.29 1312.72,-404.29 1316.72,-404.29 1316.72,-384.29 1312.72,-384.29 1312.72,-380.29 1316.72,-380.29 1316.72,-376.29 1514.72,-376.29 1514.72,-412.29"/>
<polyline fill="none" stroke="green" points="1316.72,-408.29 1320.72,-408.29 1320.72,-404.29 1316.72,-404.29 "/>
<polyline fill="none" stroke="green" points="1316.72,-384.29 1320.72,-384.29 1320.72,-380.29 1316.72,-380.29 "/>
<text text-anchor="middle" x="1415.72" y="-390.59" font-family="Times,serif" font-size="14.00">phaidra&#45;demo&#45;openldap&#45;1</text>
</a>
</g>
</g>
<!-- HS_OPENLDAP&#45;&#45;C_OPENLDAP -->
<g id="edge10" class="edge">
<title>HS_OPENLDAP&#45;&#45;C_OPENLDAP</title>
<path fill="none" stroke="turquoise" d="M976.01,-1744.36C1067.8,-1758.81 1194.69,-1760.64 1266.72,-1683.29 1314.51,-1631.97 1242.12,-475.39 1286.72,-421.29 1294.67,-411.65 1305.11,-404.9 1316.6,-400.26"/>
</g>
<!-- HS_SOLR -->
<g id="node7" class="node">
<title>HS_SOLR</title>
<polygon fill="none" stroke="turquoise" points="1151.22,-1674.29 1148.22,-1678.29 1127.22,-1678.29 1124.22,-1674.29 578.22,-1674.29 578.22,-1622.29 1151.22,-1622.29 1151.22,-1674.29"/>
<text text-anchor="start" x="590.72" y="-1656.09" font-family="Times,serif" font-weight="bold" font-size="14.00">host:</text>
<text text-anchor="start" x="700.72" y="-1655.09" font-family="Times,serif" font-size="14.00">$HOME/.local/share/docker/volumes/phaidra&#45;demo_solr/_data</text>
<text text-anchor="start" x="590.72" y="-1634.09" font-family="Times,serif" font-size="14.00">solr&#45;container:</text>
<text text-anchor="start" x="700.72" y="-1634.09" font-family="Times,serif" font-size="14.00">/var/solr</text>
</g>
<!-- C_SOLR -->
<g id="node29" class="node">
<title>C_SOLR</title>
<g id="a_node29"><a xlink:href="https://solr.apache.org/" xlink:title="phaidra&#45;demo&#45;solr&#45;1">
<polygon fill="none" stroke="green" points="1495.72,-304.29 1335.72,-304.29 1335.72,-300.29 1331.72,-300.29 1331.72,-296.29 1335.72,-296.29 1335.72,-276.29 1331.72,-276.29 1331.72,-272.29 1335.72,-272.29 1335.72,-268.29 1495.72,-268.29 1495.72,-304.29"/>
<polyline fill="none" stroke="green" points="1335.72,-300.29 1339.72,-300.29 1339.72,-296.29 1335.72,-296.29 "/>
<polyline fill="none" stroke="green" points="1335.72,-276.29 1339.72,-276.29 1339.72,-272.29 1335.72,-272.29 "/>
<text text-anchor="middle" x="1415.72" y="-282.59" font-family="Times,serif" font-size="14.00">phaidra&#45;demo&#45;solr&#45;1</text>
</a>
</g>
</g>
<!-- HS_SOLR&#45;&#45;C_SOLR -->
<g id="edge12" class="edge">
<title>HS_SOLR&#45;&#45;C_SOLR</title>
<path fill="none" stroke="turquoise" d="M975.57,-1674.29C1067.39,-1688.81 1194.59,-1690.78 1266.72,-1613.29 1315.93,-1560.41 1240.79,-369.03 1286.72,-313.29 1298.85,-298.56 1316.8,-290.59 1335.45,-286.53"/>
</g>
<!-- HS_PIXELGECKO -->
<g id="node8" class="node">
<title>HS_PIXELGECKO</title>
<polygon fill="none" stroke="turquoise" points="1206.72,-1947.79 1203.72,-1951.79 1182.72,-1951.79 1179.72,-1947.79 522.72,-1947.79 522.72,-1874.79 1206.72,-1874.79 1206.72,-1947.79"/>
<text text-anchor="start" x="534.72" y="-1929.09" font-family="Times,serif" font-weight="bold" font-size="14.00">host:</text>
<text text-anchor="start" x="706.72" y="-1928.09" font-family="Times,serif" font-size="14.00">$HOME/.local/share/docker/volumes/phaidra&#45;demo_pixelgecko/_data</text>
<text text-anchor="start" x="534.72" y="-1907.09" font-family="Times,serif" font-size="14.00">pixelgecko&#45;container:</text>
<text text-anchor="start" x="706.72" y="-1907.09" font-family="Times,serif" font-size="14.00">/mnt/converted_images</text>
<text text-anchor="start" x="534.72" y="-1886.09" font-family="Times,serif" font-size="14.00">imageserver&#45;container:</text>
<text text-anchor="start" x="706.72" y="-1886.09" font-family="Times,serif" font-size="14.00">/mnt/converted_images:ro</text>
</g>
<!-- C_IMAGESERVER -->
<g id="node30" class="node">
<title>C_IMAGESERVER</title>
<g id="a_node30"><a xlink:href="https://github.com/ruven/iipsrv" xlink:title="phaidra&#45;demo&#45;imageserver&#45;1">
<polygon fill="none" stroke="green" points="1526.72,-466.29 1304.72,-466.29 1304.72,-462.29 1300.72,-462.29 1300.72,-458.29 1304.72,-458.29 1304.72,-438.29 1300.72,-438.29 1300.72,-434.29 1304.72,-434.29 1304.72,-430.29 1526.72,-430.29 1526.72,-466.29"/>
<polyline fill="none" stroke="green" points="1304.72,-462.29 1308.72,-462.29 1308.72,-458.29 1304.72,-458.29 "/>
<polyline fill="none" stroke="green" points="1304.72,-438.29 1308.72,-438.29 1308.72,-434.29 1304.72,-434.29 "/>
<text text-anchor="middle" x="1415.72" y="-444.59" font-family="Times,serif" font-size="14.00">phaidra&#45;demo&#45;imageserver&#45;1</text>
</a>
</g>
</g>
<!-- HS_PIXELGECKO&#45;&#45;C_IMAGESERVER -->
<g id="edge14" class="edge">
<title>HS_PIXELGECKO&#45;&#45;C_IMAGESERVER</title>
<path fill="none" stroke="turquoise" d="M1206.93,-1909.19C1229.21,-1898.36 1249.56,-1884.01 1266.72,-1865.29 1294.25,-1835.26 1282.41,-1172.79 1286.72,-1132.29 1315.23,-864.69 1391.04,-544.92 1410.25,-466.36"/>
</g>
<!-- HS_PIXELGECKO&#45;&#45;C_PIXELGECKO -->
<g id="edge16" class="edge">
<title>HS_PIXELGECKO&#45;&#45;C_PIXELGECKO</title>
<path fill="none" stroke="turquoise" d="M1207.13,-1896.56C1228.18,-1888.33 1248.28,-1878.04 1266.72,-1865.29 1489.05,-1711.49 1458.29,-1580.43 1544.72,-1324.29 1656.97,-991.67 1692.86,-559.29 1699.51,-466.36"/>
</g>
<!-- HS_DBGATE -->
<g id="node9" class="node">
<title>HS_DBGATE</title>
<polygon fill="none" stroke="turquoise" points="1174.22,-1534.29 1171.22,-1538.29 1150.22,-1538.29 1147.22,-1534.29 555.22,-1534.29 555.22,-1482.29 1174.22,-1482.29 1174.22,-1534.29"/>
<text text-anchor="start" x="567.72" y="-1516.09" font-family="Times,serif" font-weight="bold" font-size="14.00">host:</text>
<text text-anchor="start" x="700.72" y="-1515.09" font-family="Times,serif" font-size="14.00">$HOME/.local/share/docker/volumes/phaidra&#45;demo_dbgate/_data</text>
<text text-anchor="start" x="567.72" y="-1494.09" font-family="Times,serif" font-size="14.00">dbgate&#45;container:</text>
<text text-anchor="start" x="700.72" y="-1494.09" font-family="Times,serif" font-size="14.00">/root/.dbgate</text>
</g>
<!-- C_DBGATE -->
<g id="node32" class="node">
<title>C_DBGATE</title>
<polygon fill="none" stroke="green" points="955.72,-235.29 773.72,-235.29 773.72,-231.29 769.72,-231.29 769.72,-227.29 773.72,-227.29 773.72,-207.29 769.72,-207.29 769.72,-203.29 773.72,-203.29 773.72,-199.29 955.72,-199.29 955.72,-235.29"/>
<polyline fill="none" stroke="green" points="773.72,-231.29 777.72,-231.29 777.72,-227.29 773.72,-227.29 "/>
<polyline fill="none" stroke="green" points="773.72,-207.29 777.72,-207.29 777.72,-203.29 773.72,-203.29 "/>
<text text-anchor="middle" x="864.72" y="-213.59" font-family="Times,serif" font-size="14.00">phaidra&#45;demo&#45;dbgate&#45;1</text>
</g>
<!-- HS_DBGATE&#45;&#45;C_DBGATE -->
<g id="edge17" class="edge">
<title>HS_DBGATE&#45;&#45;C_DBGATE</title>
<path fill="none" stroke="turquoise" d="M555.06,-1510.43C503.87,-1503 463.73,-1489.01 452.72,-1464.29 439.82,-1435.31 439.82,-351.26 452.72,-322.29 503.7,-207.83 668.22,-198.99 773.29,-206.03"/>
</g>
<!-- HS_MARIADB_FEDORA -->
<g id="node10" class="node">
<title>HS_MARIADB_FEDORA</title>
<polygon fill="none" stroke="turquoise" points="1235.22,-2088.29 1232.22,-2092.29 1211.22,-2092.29 1208.22,-2088.29 494.22,-2088.29 494.22,-2036.29 1235.22,-2036.29 1235.22,-2088.29"/>
<text text-anchor="start" x="506.72" y="-2070.09" font-family="Times,serif" font-weight="bold" font-size="14.00">host:</text>
<text text-anchor="start" x="699.72" y="-2069.09" font-family="Times,serif" font-size="14.00">$HOME/.local/share/docker/volumes/phaidra&#45;demo_mariadb_fedora/_data</text>
<text text-anchor="start" x="506.72" y="-2048.09" font-family="Times,serif" font-size="14.00">mariadb&#45;fedora&#45;container:</text>
<text text-anchor="start" x="699.72" y="-2048.09" font-family="Times,serif" font-size="14.00">/var/lib/mysql</text>
</g>
<!-- C_MARIADB_FEDORA -->
<g id="node34" class="node">
<title>C_MARIADB_FEDORA</title>
<g id="a_node34"><a xlink:href="https://mariadb.org/" xlink:title="phaidra&#45;demo&#45;mariadb&#45;fedora&#45;1">
<polygon fill="none" stroke="green" points="1822.72,-193.29 1580.72,-193.29 1580.72,-189.29 1576.72,-189.29 1576.72,-185.29 1580.72,-185.29 1580.72,-165.29 1576.72,-165.29 1576.72,-161.29 1580.72,-161.29 1580.72,-157.29 1822.72,-157.29 1822.72,-193.29"/>
<polyline fill="none" stroke="green" points="1580.72,-189.29 1584.72,-189.29 1584.72,-185.29 1580.72,-185.29 "/>
<polyline fill="none" stroke="green" points="1580.72,-165.29 1584.72,-165.29 1584.72,-161.29 1580.72,-161.29 "/>
<text text-anchor="middle" x="1701.72" y="-171.59" font-family="Times,serif" font-size="14.00">phaidra&#45;demo&#45;mariadb&#45;fedora&#45;1</text>
</a>
</g>
</g>
<!-- HS_MARIADB_FEDORA&#45;&#45;C_MARIADB_FEDORA -->
<g id="edge18" class="edge">
<title>HS_MARIADB_FEDORA&#45;&#45;C_MARIADB_FEDORA</title>
<path fill="none" stroke="turquoise" d="M1000.87,-2088.31C1087.3,-2096.74 1196.05,-2090.83 1266.72,-2027.29 1807.52,-1540.98 1349.55,-1110.86 1580.72,-421.29 1610.7,-331.85 1666.34,-233.21 1689.82,-193.41"/>
</g>
<!-- HS_DATABASE_DUMPS -->
<g id="node11" class="node">
<title>HS_DATABASE_DUMPS</title>
<polygon fill="none" stroke="turquoise" points="1243.72,-1394.29 1240.72,-1398.29 1219.72,-1398.29 1216.72,-1394.29 485.72,-1394.29 485.72,-1342.29 1243.72,-1342.29 1243.72,-1394.29"/>
<text text-anchor="start" x="497.72" y="-1376.09" font-family="Times,serif" font-weight="bold" font-size="14.00">host:</text>
<text text-anchor="start" x="636.72" y="-1375.09" font-family="Times,serif" font-size="14.00">$HOME/.local/share/docker/volumes/phaidra&#45;demo_chronos_database_dumps/_data</text>
<text text-anchor="start" x="497.72" y="-1354.09" font-family="Times,serif" font-size="14.00">chronos&#45;container:</text>
<text text-anchor="start" x="636.72" y="-1354.09" font-family="Times,serif" font-size="14.00">/mnt/database&#45;dumps</text>
</g>
<!-- HS_SITEMAPS -->
<g id="node12" class="node">
<title>HS_SITEMAPS</title>
<polygon fill="none" stroke="turquoise" points="1216.22,-1253.79 1213.22,-1257.79 1192.22,-1257.79 1189.22,-1253.79 513.22,-1253.79 513.22,-1180.79 1216.22,-1180.79 1216.22,-1253.79"/>
<text text-anchor="start" x="525.72" y="-1235.09" font-family="Times,serif" font-weight="bold" font-size="14.00">host:</text>
<text text-anchor="start" x="664.72" y="-1234.09" font-family="Times,serif" font-size="14.00">$HOME/.local/share/docker/volumes/phaidra&#45;demo_chronos_sitemaps/_data</text>
<text text-anchor="start" x="525.72" y="-1213.09" font-family="Times,serif" font-size="14.00">chronos&#45;container:</text>
<text text-anchor="start" x="664.72" y="-1213.09" font-family="Times,serif" font-size="14.00">/mnt/sitemaps</text>
<text text-anchor="start" x="525.72" y="-1192.09" font-family="Times,serif" font-size="14.00">httpd&#45;container:</text>
<text text-anchor="start" x="664.72" y="-1192.09" font-family="Times,serif" font-size="14.00">/mnt/sitemaps:ro</text>
</g>
<!-- HS_OAI_LOGS -->
<g id="node13" class="node">
<title>HS_OAI_LOGS</title>
<polygon fill="none" stroke="turquoise" points="1212.22,-1324.29 1209.22,-1328.29 1188.22,-1328.29 1185.22,-1324.29 517.22,-1324.29 517.22,-1272.29 1212.22,-1272.29 1212.22,-1324.29"/>
<text text-anchor="start" x="529.72" y="-1306.09" font-family="Times,serif" font-weight="bold" font-size="14.00">host:</text>
<text text-anchor="start" x="668.72" y="-1305.09" font-family="Times,serif" font-size="14.00">$HOME/.local/share/docker/volumes/phaidra&#45;demo_chronos_oai_logs/_data</text>
<text text-anchor="start" x="529.72" y="-1284.09" font-family="Times,serif" font-size="14.00">chronos&#45;container:</text>
<text text-anchor="start" x="668.72" y="-1284.09" font-family="Times,serif" font-size="14.00">/mnt/oai&#45;logs</text>
</g>
<!-- BIND_MARIADB_PHAIDRA_INIT -->
<g id="node14" class="node">
<title>BIND_MARIADB_PHAIDRA_INIT</title>
<polygon fill="none" stroke="blue" points="1148.72,-573.29 1145.72,-577.29 1124.72,-577.29 1121.72,-573.29 580.72,-573.29 580.72,-521.29 1148.72,-521.29 1148.72,-573.29"/>
<text text-anchor="start" x="592.72" y="-555.09" font-family="Times,serif" font-weight="bold" font-size="14.00">host:</text>
<text text-anchor="start" x="794.72" y="-554.09" font-family="Times,serif" font-size="14.00">$REPO/container_init/mariadb/phaidradb.sql.gz</text>
<text text-anchor="start" x="592.72" y="-533.09" font-family="Times,serif" font-size="14.00">mariadb&#45;phaidra&#45;container:</text>
<text text-anchor="start" x="794.72" y="-533.09" font-family="Times,serif" font-size="14.00">/docker&#45;entrypoint&#45;initdb.d/phaidradb.sql.gz:ro</text>
</g>
<!-- BIND_MARIADB_PHAIDRA_INIT&#45;&#45;C_MARIADB_PHAIDRA -->
<g id="edge5" class="edge">
<title>BIND_MARIADB_PHAIDRA_INIT&#45;&#45;C_MARIADB_PHAIDRA</title>
<path fill="none" stroke="blue" d="M1148.76,-563.94C1193.31,-553.72 1235.03,-534.49 1266.72,-501.29 1312.24,-453.59 1243.49,-255.06 1286.72,-205.29 1289.55,-202.03 1292.67,-199.11 1296.01,-196.49"/>
</g>
<!-- BIND_OPENLDAP_INIT -->
<g id="node15" class="node">
<title>BIND_OPENLDAP_INIT</title>
<polygon fill="none" stroke="blue" points="1062.72,-713.29 1059.72,-717.29 1038.72,-717.29 1035.72,-713.29 666.72,-713.29 666.72,-661.29 1062.72,-661.29 1062.72,-713.29"/>
<text text-anchor="start" x="678.72" y="-695.09" font-family="Times,serif" font-weight="bold" font-size="14.00">host:</text>
<text text-anchor="start" x="826.72" y="-694.09" font-family="Times,serif" font-size="14.00">$REPO/container_init/openldap</text>
<text text-anchor="start" x="678.72" y="-673.09" font-family="Times,serif" font-size="14.00">openldap&#45;container:</text>
<text text-anchor="start" x="826.72" y="-673.09" font-family="Times,serif" font-size="14.00">/ldifs:ro</text>
</g>
<!-- BIND_OPENLDAP_INIT&#45;&#45;C_OPENLDAP -->
<g id="edge11" class="edge">
<title>BIND_OPENLDAP_INIT&#45;&#45;C_OPENLDAP</title>
<path fill="none" stroke="blue" d="M983.34,-713.3C1073.49,-725.7 1194.35,-724.7 1266.72,-652.29 1303.14,-615.84 1252.57,-459.87 1286.72,-421.29 1294.85,-412.1 1305.25,-405.59 1316.59,-401.04"/>
</g>
<!-- BIND_HTTPD_CONFIG -->
<g id="node16" class="node">
<title>BIND_HTTPD_CONFIG</title>
<polygon fill="none" stroke="blue" points="1083.72,-783.29 1080.72,-787.29 1059.72,-787.29 1056.72,-783.29 645.72,-783.29 645.72,-731.29 1083.72,-731.29 1083.72,-783.29"/>
<text text-anchor="start" x="657.72" y="-765.09" font-family="Times,serif" font-weight="bold" font-size="14.00">host:</text>
<text text-anchor="start" x="779.72" y="-764.09" font-family="Times,serif" font-size="14.00">$REPO/webserver_configs/phaidra&#45;demo</text>
<text text-anchor="start" x="657.72" y="-743.09" font-family="Times,serif" font-size="14.00">httpd&#45;container:</text>
<text text-anchor="start" x="779.72" y="-743.09" font-family="Times,serif" font-size="14.00">/mnt/startup:ro</text>
</g>
<!-- BIND_API_CODE -->
<g id="node17" class="node">
<title>BIND_API_CODE</title>
<polygon fill="none" stroke="blue" points="1044.22,-923.29 1041.22,-927.29 1020.22,-927.29 1017.22,-923.29 685.22,-923.29 685.22,-871.29 1044.22,-871.29 1044.22,-923.29"/>
<text text-anchor="start" x="697.72" y="-905.09" font-family="Times,serif" font-weight="bold" font-size="14.00">host:</text>
<text text-anchor="start" x="802.72" y="-904.09" font-family="Times,serif" font-size="14.00">$REPO/src/phaidra&#45;api</text>
<text text-anchor="start" x="697.72" y="-883.09" font-family="Times,serif" font-size="14.00">api&#45;container:</text>
<text text-anchor="start" x="802.72" y="-883.09" font-family="Times,serif" font-size="14.00">/usr/local/phaidra/phaidra&#45;api:ro</text>
</g>
<!-- BIND_API_CODE&#45;&#45;C_API -->
<g id="edge4" class="edge">
<title>BIND_API_CODE&#45;&#45;C_API</title>
<path fill="none" stroke="blue" d="M685.12,-906.84C583.25,-907.21 472.24,-897.11 452.72,-853.29 445.15,-836.29 445.15,-535.29 452.72,-518.29 508.75,-392.48 683.81,-355.54 786.83,-344.73"/>
</g>
<!-- BIND_DOCUMENTATION -->
<g id="node18" class="node">
<title>BIND_DOCUMENTATION</title>
<polygon fill="none" stroke="blue" points="982.72,-853.29 979.72,-857.29 958.72,-857.29 955.72,-853.29 746.72,-853.29 746.72,-801.29 982.72,-801.29 982.72,-853.29"/>
<text text-anchor="start" x="758.72" y="-835.09" font-family="Times,serif" font-weight="bold" font-size="14.00">host:</text>
<text text-anchor="start" x="880.72" y="-834.09" font-family="Times,serif" font-size="14.00">$REPO/docs</text>
<text text-anchor="start" x="758.72" y="-813.09" font-family="Times,serif" font-size="14.00">httpd&#45;container:</text>
<text text-anchor="start" x="880.72" y="-813.09" font-family="Times,serif" font-size="14.00">/mnt/docs:ro</text>
</g>
<!-- BIND_CHRONOS -->
<g id="node19" class="node">
<title>BIND_CHRONOS</title>
<polygon fill="none" stroke="blue" points="1053.72,-993.29 1050.72,-997.29 1029.72,-997.29 1026.72,-993.29 675.72,-993.29 675.72,-941.29 1053.72,-941.29 1053.72,-993.29"/>
<text text-anchor="start" x="687.72" y="-975.09" font-family="Times,serif" font-weight="bold" font-size="14.00">host:</text>
<text text-anchor="start" x="826.72" y="-974.09" font-family="Times,serif" font-size="14.00">$REPO/container_init/chronos</text>
<text text-anchor="start" x="687.72" y="-953.09" font-family="Times,serif" font-size="14.00">chronos&#45;container:</text>
<text text-anchor="start" x="826.72" y="-953.09" font-family="Times,serif" font-size="14.00">/mnt/chronos:ro</text>
</g>
<!-- BIND_MONGODB_INIT_OAI -->
<g id="node20" class="node">
<title>BIND_MONGODB_INIT_OAI</title>
<polygon fill="none" stroke="blue" points="1126.72,-1133.29 1123.72,-1137.29 1102.72,-1137.29 1099.72,-1133.29 602.72,-1133.29 602.72,-1081.29 1126.72,-1081.29 1126.72,-1133.29"/>
<text text-anchor="start" x="614.72" y="-1115.09" font-family="Times,serif" font-weight="bold" font-size="14.00">host:</text>
<text text-anchor="start" x="763.72" y="-1114.09" font-family="Times,serif" font-size="14.00">$REPO/container_init/mongodb/init_oai_sets.json</text>
<text text-anchor="start" x="614.72" y="-1093.09" font-family="Times,serif" font-size="14.00">mongodb&#45;container:</text>
<text text-anchor="start" x="763.72" y="-1093.09" font-family="Times,serif" font-size="14.00">/mnt/init_oai_sets.json:ro</text>
</g>
<!-- BIND_MONGODB_INIT_OAI&#45;&#45;C_MONGODB_PHAIDRA -->
<g id="edge9" class="edge">
<title>BIND_MONGODB_INIT_OAI&#45;&#45;C_MONGODB_PHAIDRA</title>
<path fill="none" stroke="blue" d="M977.14,-1133.34C1068.66,-1147.45 1194.57,-1148.81 1266.72,-1072.29 1320.48,-1015.27 1236.5,-427.44 1286.72,-367.29 1289.49,-363.97 1292.55,-361 1295.84,-358.35"/>
</g>
<!-- BIND_MONGODB_INIT -->
<g id="node21" class="node">
<title>BIND_MONGODB_INIT</title>
<polygon fill="none" stroke="blue" points="1149.22,-1063.29 1146.22,-1067.29 1125.22,-1067.29 1122.22,-1063.29 580.22,-1063.29 580.22,-1011.29 1149.22,-1011.29 1149.22,-1063.29"/>
<text text-anchor="start" x="592.72" y="-1045.09" font-family="Times,serif" font-weight="bold" font-size="14.00">host:</text>
<text text-anchor="start" x="741.72" y="-1044.09" font-family="Times,serif" font-size="14.00">$REPO/container_init/mongodb/mongodb&#45;after&#45;entry.sh</text>
<text text-anchor="start" x="592.72" y="-1023.09" font-family="Times,serif" font-size="14.00">mongodb&#45;container:</text>
<text text-anchor="start" x="741.72" y="-1023.09" font-family="Times,serif" font-size="14.00">/docker&#45;entrypoint&#45;initdb.d/mongodb&#45;after&#45;entry.sh:ro</text>
</g>
<!-- BIND_MONGODB_INIT&#45;&#45;C_MONGODB_PHAIDRA -->
<g id="edge8" class="edge">
<title>BIND_MONGODB_INIT&#45;&#45;C_MONGODB_PHAIDRA</title>
<path fill="none" stroke="blue" d="M977.53,-1063.35C1068.98,-1077.36 1194.57,-1078.57 1266.72,-1002.29 1315.23,-951 1241.4,-421.4 1286.72,-367.29 1289.49,-363.98 1292.56,-361.01 1295.86,-358.36"/>
</g>
<!-- BIND_SOLR_INIT -->
<g id="node22" class="node">
<title>BIND_SOLR_INIT</title>
<polygon fill="none" stroke="blue" points="1073.22,-643.29 1070.22,-647.29 1049.22,-647.29 1046.22,-643.29 656.22,-643.29 656.22,-591.29 1073.22,-591.29 1073.22,-643.29"/>
<text text-anchor="start" x="668.72" y="-625.09" font-family="Times,serif" font-weight="bold" font-size="14.00">host:</text>
<text text-anchor="start" x="778.72" y="-624.09" font-family="Times,serif" font-size="14.00">$REPO/container_init/solr/phaidra_core</text>
<text text-anchor="start" x="668.72" y="-603.09" font-family="Times,serif" font-size="14.00">solr&#45;container:</text>
<text text-anchor="start" x="778.72" y="-603.09" font-family="Times,serif" font-size="14.00">/tmp/phaidra:ro</text>
</g>
<!-- BIND_SOLR_INIT&#45;&#45;C_SOLR -->
<g id="edge13" class="edge">
<title>BIND_SOLR_INIT&#45;&#45;C_SOLR</title>
<path fill="none" stroke="blue" d="M982.19,-643.35C1072.63,-656.08 1194.43,-655.52 1266.72,-582.29 1308.83,-539.63 1247.26,-358.41 1286.72,-313.29 1299.21,-299.01 1317.16,-291.18 1335.7,-287.1"/>
</g>
<!-- C_FEDORA&#45;&#45;C_MARIADB_FEDORA -->
<g id="edge26" class="edge">
<title>C_FEDORA&#45;&#45;C_MARIADB_FEDORA</title>
<path fill="none" stroke="orange" d="M1505.41,-214.49C1538.94,-207.76 1577.1,-200.1 1610.75,-193.34"/>
</g>
<!-- C_API&#45;&#45;C_FEDORA -->
<g id="edge27" class="edge">
<title>C_API&#45;&#45;C_FEDORA</title>
<path fill="none" stroke="orange" d="M942.4,-342.52C1026.42,-341.9 1163.03,-331.72 1266.72,-279.29 1277.94,-273.61 1275.67,-265.28 1286.72,-259.29 1298.8,-252.74 1312.32,-247.78 1325.93,-244.02"/>
</g>
<!-- C_API&#45;&#45;C_MARIADB_PHAIDRA -->
<g id="edge28" class="edge">
<title>C_API&#45;&#45;C_MARIADB_PHAIDRA</title>
<path fill="none" stroke="orange" d="M942.43,-351.4C1031.63,-359.75 1177.95,-358.55 1266.72,-279.29 1292.13,-256.59 1261.97,-228.69 1286.72,-205.29 1290.27,-201.93 1294.13,-198.95 1298.21,-196.3"/>
</g>
<!-- C_API&#45;&#45;C_MONGODB_PHAIDRA -->
<g id="edge29" class="edge">
<title>C_API&#45;&#45;C_MONGODB_PHAIDRA</title>
<path fill="none" stroke="orange" d="M942.35,-340.29C1031.47,-340.29 1179.99,-340.29 1286.72,-340.29"/>
</g>
<!-- C_UI -->
<g id="node27" class="node">
<title>C_UI</title>
<g id="a_node27"><a xlink:href="https://github.com/phaidra/phaidra-ui" xlink:title="phaidra&#45;demo&#45;ui&#45;1">
<polygon fill="none" stroke="green" points="1488.72,-142.29 1342.72,-142.29 1342.72,-138.29 1338.72,-138.29 1338.72,-134.29 1342.72,-134.29 1342.72,-114.29 1338.72,-114.29 1338.72,-110.29 1342.72,-110.29 1342.72,-106.29 1488.72,-106.29 1488.72,-142.29"/>
<polyline fill="none" stroke="green" points="1342.72,-138.29 1346.72,-138.29 1346.72,-134.29 1342.72,-134.29 "/>
<polyline fill="none" stroke="green" points="1342.72,-114.29 1346.72,-114.29 1346.72,-110.29 1342.72,-110.29 "/>
<text text-anchor="middle" x="1415.72" y="-120.59" font-family="Times,serif" font-size="14.00">phaidra&#45;demo&#45;ui&#45;1</text>
</a>
</g>
</g>
<!-- C_API&#45;&#45;C_UI -->
<g id="edge30" class="edge">
<title>C_API&#45;&#45;C_UI</title>
<path fill="none" stroke="orange" d="M942.29,-344.53C1032.75,-345.1 1181.67,-331.33 1266.72,-244.29 1296.27,-214.05 1256.77,-181.12 1286.72,-151.29 1301.53,-136.54 1322.22,-128.91 1342.66,-125.18"/>
</g>
<!-- C_API&#45;&#45;C_OPENLDAP -->
<g id="edge31" class="edge">
<title>C_API&#45;&#45;C_OPENLDAP</title>
<path fill="none" stroke="orange" d="M942.35,-347.82C1040.1,-357.44 1209.29,-374.08 1316.44,-384.62"/>
</g>
<!-- C_API&#45;&#45;C_SOLR -->
<g id="edge32" class="edge">
<title>C_API&#45;&#45;C_SOLR</title>
<path fill="none" stroke="orange" d="M942.35,-332.75C1046.14,-322.54 1230.49,-304.41 1335.57,-294.07"/>
</g>
<!-- C_API&#45;&#45;C_IMAGESERVER -->
<g id="edge33" class="edge">
<title>C_API&#45;&#45;C_IMAGESERVER</title>
<path fill="none" stroke="orange" d="M942.35,-355.36C1042.16,-375 1216.47,-409.29 1323.14,-430.27"/>
</g>
<!-- C_MONGODB_PHAIDRA&#45;&#45;C_PIXELGECKO -->
<g id="edge34" class="edge">
<title>C_MONGODB_PHAIDRA&#45;&#45;C_PIXELGECKO</title>
<path fill="none" stroke="orange" d="M1515.66,-358.34C1525.58,-360.98 1535.42,-363.96 1544.72,-367.29 1591.27,-383.93 1641.38,-411.95 1671.9,-430.28"/>
</g>
<!-- C_LAM -->
<g id="node33" class="node">
<title>C_LAM</title>
<polygon fill="none" stroke="green" points="1781.22,-111.29 1622.22,-111.29 1622.22,-107.29 1618.22,-107.29 1618.22,-103.29 1622.22,-103.29 1622.22,-83.29 1618.22,-83.29 1618.22,-79.29 1622.22,-79.29 1622.22,-75.29 1781.22,-75.29 1781.22,-111.29"/>
<polyline fill="none" stroke="green" points="1622.22,-107.29 1626.22,-107.29 1626.22,-103.29 1622.22,-103.29 "/>
<polyline fill="none" stroke="green" points="1622.22,-83.29 1626.22,-83.29 1626.22,-79.29 1622.22,-79.29 "/>
<text text-anchor="middle" x="1701.72" y="-89.59" font-family="Times,serif" font-size="14.00">phaidra&#45;demo&#45;lam&#45;1</text>
</g>
<!-- C_OPENLDAP&#45;&#45;C_LAM -->
<g id="edge35" class="edge">
<title>C_OPENLDAP&#45;&#45;C_LAM</title>
<path fill="none" stroke="orange" d="M1514.84,-386.69C1526.04,-382.24 1536.4,-375.99 1544.72,-367.29 1612.89,-295.99 1520.87,-226.69 1580.72,-148.29 1593.58,-131.44 1612.82,-119.58 1632.14,-111.31"/>
</g>
<!-- C_DBGATE&#45;&#45;C_MARIADB_PHAIDRA -->
<g id="edge36" class="edge">
<title>C_DBGATE&#45;&#45;C_MARIADB_PHAIDRA</title>
<path fill="none" stroke="orange" d="M955.76,-210.89C1046.79,-204.42 1188.2,-194.38 1290,-187.15"/>
</g>
<!-- C_DBGATE&#45;&#45;C_MONGODB_PHAIDRA -->
<g id="edge37" class="edge">
<title>C_DBGATE&#45;&#45;C_MONGODB_PHAIDRA</title>
<path fill="none" stroke="orange" d="M943.23,-235.36C1027.63,-254.95 1166.64,-286.93 1286.72,-313.29 1300.14,-316.23 1314.37,-319.29 1328.27,-322.25"/>
</g>
<!-- C_DBGATE&#45;&#45;C_MARIADB_FEDORA -->
<g id="edge38" class="edge">
<title>C_DBGATE&#45;&#45;C_MARIADB_FEDORA</title>
<path fill="none" stroke="orange" d="M902.43,-199.2C1005.41,-150.91 1305.15,-27.29 1544.72,-97.29 1562.95,-102.61 1564.05,-111.2 1580.72,-120.29 1605.57,-133.83 1634.37,-147.11 1657.53,-157.22"/>
</g>
<!-- C_CHRONOS -->
<g id="node35" class="node">
<title>C_CHRONOS</title>
<polygon fill="none" stroke="green" points="442.72,-415.29 253.72,-415.29 253.72,-411.29 249.72,-411.29 249.72,-407.29 253.72,-407.29 253.72,-387.29 249.72,-387.29 249.72,-383.29 253.72,-383.29 253.72,-379.29 442.72,-379.29 442.72,-415.29"/>
<polyline fill="none" stroke="green" points="253.72,-411.29 257.72,-411.29 257.72,-407.29 253.72,-407.29 "/>
<polyline fill="none" stroke="green" points="253.72,-387.29 257.72,-387.29 257.72,-383.29 253.72,-383.29 "/>
<text text-anchor="middle" x="348.22" y="-393.59" font-family="Times,serif" font-size="14.00">phaidra&#45;demo&#45;chronos&#45;1</text>
</g>
<!-- C_CHRONOS&#45;&#45;HS_DATABASE_DUMPS -->
<g id="edge22" class="edge">
<title>C_CHRONOS&#45;&#45;HS_DATABASE_DUMPS</title>
<path fill="none" stroke="turquoise" d="M350.07,-415.36C356.06,-539.81 393.88,-1266.72 462.72,-1333.29 534.81,-1402.99 652.08,-1405.55 741.23,-1394.34"/>
</g>
<!-- C_CHRONOS&#45;&#45;HS_SITEMAPS -->
<g id="edge23" class="edge">
<title>C_CHRONOS&#45;&#45;HS_SITEMAPS</title>
<path fill="none" stroke="turquoise" d="M349.05,-415.47C348.47,-521.54 351.12,-1059.39 462.72,-1168.29 477.78,-1182.98 494.82,-1194.9 513.16,-1204.5"/>
</g>
<!-- C_CHRONOS&#45;&#45;HS_OAI_LOGS -->
<g id="edge24" class="edge">
<title>C_CHRONOS&#45;&#45;HS_OAI_LOGS</title>
<path fill="none" stroke="turquoise" d="M350.26,-415.52C357.24,-534.93 398.93,-1202.2 462.72,-1263.29 534.77,-1332.28 651.15,-1335.22 740.03,-1324.31"/>
</g>
<!-- C_CHRONOS&#45;&#45;BIND_CHRONOS -->
<g id="edge25" class="edge">
<title>C_CHRONOS&#45;&#45;BIND_CHRONOS</title>
<path fill="none" stroke="blue" d="M350.28,-415.52C355.61,-501.07 382.64,-861.42 462.72,-932.29 532.85,-994.34 639.43,-1001.02 725.09,-993.3"/>
</g>
<!-- C_CHRONOS&#45;&#45;C_API -->
<g id="edge49" class="edge">
<title>C_CHRONOS&#45;&#45;C_API</title>
<path fill="none" stroke="orange" d="M424.05,-379.28C436.89,-376.63 450.15,-374.16 462.72,-372.29 574.79,-355.55 705.88,-347.18 786.87,-343.29"/>
</g>
<!-- C_CHRONOS&#45;&#45;C_MARIADB_PHAIDRA -->
<g id="edge46" class="edge">
<title>C_CHRONOS&#45;&#45;C_MARIADB_PHAIDRA</title>
<path fill="none" stroke="orange" d="M366.95,-379.14C387.79,-359.1 424.43,-327.76 462.72,-313.29 630.46,-249.89 1117.84,-344.25 1266.72,-244.29 1282.89,-233.43 1271.24,-217.11 1286.72,-205.29 1291.14,-201.91 1295.89,-198.93 1300.86,-196.3"/>
</g>
<!-- C_CHRONOS&#45;&#45;C_MONGODB_PHAIDRA -->
<g id="edge45" class="edge">
<title>C_CHRONOS&#45;&#45;C_MONGODB_PHAIDRA</title>
<path fill="none" stroke="orange" d="M442.96,-414.26C612.7,-441.01 979.98,-480.48 1266.72,-382.29 1277.23,-378.69 1276.6,-371.87 1286.72,-367.29 1294.17,-363.91 1302.05,-360.95 1310.1,-358.35"/>
</g>
<!-- C_CHRONOS&#45;&#45;C_SOLR -->
<g id="edge48" class="edge">
<title>C_CHRONOS&#45;&#45;C_SOLR</title>
<path fill="none" stroke="orange" d="M442.97,-384.06C449.65,-383.37 456.28,-382.77 462.72,-382.29 485,-380.61 1248.51,-380.22 1266.72,-367.29 1287.59,-352.47 1267.35,-330.01 1286.72,-313.29 1300.39,-301.49 1317.91,-294.42 1335.58,-290.27"/>
</g>
<!-- C_CHRONOS&#45;&#45;C_MARIADB_FEDORA -->
<g id="edge47" class="edge">
<title>C_CHRONOS&#45;&#45;C_MARIADB_FEDORA</title>
<path fill="none" stroke="orange" d="M382.28,-379.12C403.08,-365.88 428.59,-345.98 442.72,-321.29 471.98,-270.17 420.88,-231.74 462.72,-190.29 725.53,70.1 917.7,-98.58 1286.72,-72.29 1343.91,-68.21 1493.44,-46.65 1544.72,-72.29 1568.57,-84.21 1559.96,-103.55 1580.72,-120.29 1600.17,-135.96 1624.81,-148.26 1646.7,-157.22"/>
</g>
<!-- WEBSERVER&#45;&#45;HS_SITEMAPS -->
<g id="edge21" class="edge">
<title>WEBSERVER&#45;&#45;HS_SITEMAPS</title>
<path fill="none" stroke="turquoise" d="M384.27,-312.47C405.32,-325.48 430.36,-345.13 442.72,-370.29 462.28,-410.09 432.91,-1135.45 462.72,-1168.29 477.34,-1184.38 494.29,-1197.3 512.81,-1207.57"/>
</g>
<!-- WEBSERVER&#45;&#45;BIND_HTTPD_CONFIG -->
<g id="edge19" class="edge">
<title>WEBSERVER&#45;&#45;BIND_HTTPD_CONFIG</title>
<path fill="none" stroke="blue" d="M383.53,-312.32C404.57,-325.38 429.87,-345.14 442.72,-370.29 460.55,-405.17 435.44,-694.17 462.72,-722.29 535.1,-796.9 658.76,-796.62 749.66,-783.29"/>
</g>
<!-- WEBSERVER&#45;&#45;BIND_DOCUMENTATION -->
<g id="edge20" class="edge">
<title>WEBSERVER&#45;&#45;BIND_DOCUMENTATION</title>
<path fill="none" stroke="blue" d="M384.08,-312.57C405.06,-325.62 430.08,-345.27 442.72,-370.29 463.89,-412.18 430.19,-758.44 462.72,-792.29 534.99,-867.49 659.3,-866.9 750.39,-853.33"/>
</g>
<!-- WEBSERVER&#45;&#45;C_FEDORA -->
<g id="edge39" class="edge">
<title>WEBSERVER&#45;&#45;C_FEDORA</title>
<path fill="none" stroke="magenta" d="M434.4,-285.58C443.95,-284.74 453.54,-283.95 462.72,-283.29 819.53,-257.36 909.72,-267.41 1266.72,-244.29 1285.89,-243.04 1306.43,-241.51 1325.93,-239.96"/>
</g>
<!-- WEBSERVER&#45;&#45;C_API -->
<g id="edge40" class="edge">
<title>WEBSERVER&#45;&#45;C_API</title>
<path fill="none" stroke="magenta" d="M434.47,-301.91C532.71,-310.69 692.71,-325 787.13,-333.44"/>
</g>
<!-- WEBSERVER&#45;&#45;C_UI -->
<g id="edge41" class="edge">
<title>WEBSERVER&#45;&#45;C_UI</title>
<path fill="none" stroke="magenta" d="M362.56,-276.02C381.64,-251.52 419.25,-208.95 462.72,-190.29 767.77,-59.34 1178.52,-92.95 1342.62,-113.73"/>
</g>
<!-- WEBSERVER&#45;&#45;C_SOLR -->
<g id="edge42" class="edge">
<title>WEBSERVER&#45;&#45;C_SOLR</title>
<path fill="none" stroke="magenta" d="M434.62,-293.65C636.34,-292.13 1140.08,-288.35 1335.49,-286.88"/>
</g>
<!-- WEBSERVER&#45;&#45;C_DBGATE -->
<g id="edge43" class="edge">
<title>WEBSERVER&#45;&#45;C_DBGATE</title>
<path fill="none" stroke="magenta" d="M386.41,-276.28C408.14,-266.6 436.4,-255.41 462.72,-249.29 567.48,-224.92 691.31,-218.29 773.36,-216.87"/>
</g>
<!-- WEBSERVER&#45;&#45;C_LAM -->
<g id="edge44" class="edge">
<title>WEBSERVER&#45;&#45;C_LAM</title>
<path fill="none" stroke="magenta" d="M351.66,-276.13C358.87,-230.45 384.74,-110.95 462.72,-62.29 666.71,65.01 1305.43,-38.74 1544.72,-62.29 1571.24,-64.9 1599.93,-69.94 1625.39,-75.22"/>
</g>
</g>
</svg>
