<?xml version="1.0" encoding="UTF-8" standalone="no"?>
<!DOCTYPE svg PUBLIC "-//W3C//DTD SVG 1.1//EN"
 "http://www.w3.org/Graphics/SVG/1.1/DTD/svg11.dtd">
<!-- Generated by graphviz version 2.43.0 (0)
 -->
<!-- Title: G Pages: 1 -->
<svg width="1952pt" height="2027pt"
 viewBox="0.00 0.00 1951.72 2027.41" xmlns="http://www.w3.org/2000/svg" xmlns:xlink="http://www.w3.org/1999/xlink">
<g id="graph0" class="graph" transform="scale(1 1) rotate(0) translate(4 2023.41)">
<title>G</title>
<polygon fill="white" stroke="transparent" points="-4,4 -4,-2023.41 1947.72,-2023.41 1947.72,4 -4,4"/>
<g id="clust1" class="cluster">
<title>cluster_host</title>
<polygon fill="none" stroke="red" points="221.72,-42.41 221.72,-2011.41 1935.72,-2011.41 1935.72,-42.41 221.72,-42.41"/>
<text text-anchor="middle" x="1078.72" y="-1996.21" font-family="Times,serif" font-size="14.00">PHAIDRA server firewall</text>
</g>
<g id="clust2" class="cluster">
<title>cluster_host_storage</title>
<polygon fill="none" stroke="blue" points="453.72,-497.41 453.72,-1980.41 1315.72,-1980.41 1315.72,-497.41 453.72,-497.41"/>
<text text-anchor="middle" x="884.72" y="-1965.21" font-family="Times,serif" font-size="14.00">PHAIDRA server filesystem</text>
</g>
<g id="clust3" class="cluster">
<title>cluster_named_volumes</title>
<polygon fill="none" stroke="turquoise" points="461.72,-1234.41 461.72,-1949.41 1307.72,-1949.41 1307.72,-1234.41 461.72,-1234.41"/>
<text text-anchor="middle" x="884.72" y="-1934.21" font-family="Times,serif" font-size="14.00">Named volumes</text>
</g>
<g id="clust4" class="cluster">
<title>cluster_bind_mounts</title>
<polygon fill="none" stroke="blue" points="561.72,-505.41 561.72,-1226.41 1207.72,-1226.41 1207.72,-505.41 561.72,-505.41"/>
<text text-anchor="middle" x="884.72" y="-1211.21" font-family="Times,serif" font-size="14.00">Bind mounts</text>
</g>
<g id="clust5" class="cluster">
<title>cluster_docker_network_host</title>
<polygon fill="none" stroke="green" points="229.72,-50.41 229.72,-489.41 1927.72,-489.41 1927.72,-50.41 229.72,-50.41"/>
<text text-anchor="middle" x="1078.72" y="-474.21" font-family="Times,serif" font-size="14.00">PHAIDRA docker containers</text>
</g>
<!-- USER -->
<g id="node1" class="node">
<title>USER</title>
<polygon fill="none" stroke="black" points="193.59,-432.96 193.59,-447.87 139.27,-458.41 62.45,-458.41 8.13,-447.87 8.13,-432.96 62.45,-422.41 139.27,-422.41 193.59,-432.96"/>
<polygon fill="none" stroke="black" points="197.59,-429.66 197.59,-451.17 139.66,-462.41 62.07,-462.41 4.13,-451.17 4.13,-429.66 62.07,-418.41 139.66,-418.41 197.59,-429.66"/>
<polygon fill="none" stroke="black" points="201.58,-426.36 201.58,-454.47 140.04,-466.41 61.68,-466.41 0.14,-454.47 0.14,-426.36 61.68,-414.41 140.04,-414.41 201.58,-426.36"/>
<text text-anchor="middle" x="100.86" y="-436.71" font-family="Times,serif" font-size="14.00">PHAIDRA USER</text>
</g>
<!-- WEBSERVER -->
<g id="node33" class="node">
<title>WEBSERVER</title>
<polygon fill="none" stroke="green" points="433.72,-458.41 237.72,-458.41 237.72,-454.41 233.72,-454.41 233.72,-450.41 237.72,-450.41 237.72,-430.41 233.72,-430.41 233.72,-426.41 237.72,-426.41 237.72,-422.41 433.72,-422.41 433.72,-458.41"/>
<polyline fill="none" stroke="green" points="237.72,-454.41 241.72,-454.41 241.72,-450.41 237.72,-450.41 "/>
<polyline fill="none" stroke="green" points="237.72,-430.41 241.72,-430.41 241.72,-426.41 237.72,-426.41 "/>
<text text-anchor="middle" x="335.72" y="-436.71" font-family="Times,serif" font-size="14.00">phaidra&#45;ssl&#45;httpd&#45;httpd&#45;1</text>
</g>
<!-- USER&#45;&#45;WEBSERVER -->
<g id="edge42" class="edge">
<title>USER&#45;&#45;WEBSERVER</title>
<path fill="none" stroke="red" d="M201.63,-440.41C213.48,-440.41 225.56,-440.41 237.38,-440.41"/>
</g>
<!-- HS_FEDORA -->
<g id="node2" class="node">
<title>HS_FEDORA</title>
<polygon fill="none" stroke="turquoise" points="1234.72,-1616.41 1231.72,-1620.41 1210.72,-1620.41 1207.72,-1616.41 534.72,-1616.41 534.72,-1522.41 1234.72,-1522.41 1234.72,-1616.41"/>
<text text-anchor="start" x="546.72" y="-1598.21" font-family="Times,serif" font-weight="bold" font-size="14.00">host:</text>
<text text-anchor="start" x="705.72" y="-1597.21" font-family="Times,serif" font-size="14.00">$HOME/.local/share/docker/volumes/phaidra&#45;ssl&#45;shib&#45;httpd_fedora/_data</text>
<text text-anchor="start" x="546.72" y="-1576.21" font-family="Times,serif" font-size="14.00">fedora&#45;container:</text>
<text text-anchor="start" x="705.72" y="-1576.21" font-family="Times,serif" font-size="14.00">/usr/local/tomcat/fcrepo&#45;home</text>
<text text-anchor="start" x="546.72" y="-1555.21" font-family="Times,serif" font-size="14.00">pixelgecko&#45;container:</text>
<text text-anchor="start" x="705.72" y="-1555.21" font-family="Times,serif" font-size="14.00"> /mnt/fedora:ro</text>
<text text-anchor="start" x="546.72" y="-1534.21" font-family="Times,serif" font-size="14.00">api&#45;container:</text>
<text text-anchor="start" x="705.72" y="-1534.21" font-family="Times,serif" font-size="14.00"> /mnt/fedora:ro</text>
</g>
<!-- C_FEDORA -->
<g id="node21" class="node">
<title>C_FEDORA</title>
<g id="a_node21"><a xlink:href="https://fedora.lyrasis.org/" xlink:title="phaidra&#45;ssl&#45;httpd&#45;fedora&#45;1">
<polygon fill="none" stroke="green" points="1578.22,-168.41 1375.22,-168.41 1375.22,-164.41 1371.22,-164.41 1371.22,-160.41 1375.22,-160.41 1375.22,-140.41 1371.22,-140.41 1371.22,-136.41 1375.22,-136.41 1375.22,-132.41 1578.22,-132.41 1578.22,-168.41"/>
<polyline fill="none" stroke="green" points="1375.22,-164.41 1379.22,-164.41 1379.22,-160.41 1375.22,-160.41 "/>
<polyline fill="none" stroke="green" points="1375.22,-140.41 1379.22,-140.41 1379.22,-136.41 1375.22,-136.41 "/>
<text text-anchor="middle" x="1476.72" y="-146.71" font-family="Times,serif" font-size="14.00">phaidra&#45;ssl&#45;httpd&#45;fedora&#45;1</text>
</a>
</g>
</g>
<!-- HS_FEDORA&#45;&#45;C_FEDORA -->
<g id="edge1" class="edge">
<title>HS_FEDORA&#45;&#45;C_FEDORA</title>
<path fill="none" stroke="turquoise" d="M1234.84,-1569.42C1265.43,-1556.73 1293.24,-1538.63 1315.72,-1513.41 1365.12,-1458.01 1288.04,-234.3 1335.72,-177.41 1345.98,-165.18 1359.95,-157.39 1375.12,-152.59"/>
</g>
<!-- C_API -->
<g id="node22" class="node">
<title>C_API</title>
<g id="a_node22"><a xlink:href="https://github.com/phaidra/phaidra-api" xlink:title="phaidra&#45;ssl&#45;httpd&#45;api&#45;1">
<polygon fill="none" stroke="green" points="974.22,-350.41 795.22,-350.41 795.22,-346.41 791.22,-346.41 791.22,-342.41 795.22,-342.41 795.22,-322.41 791.22,-322.41 791.22,-318.41 795.22,-318.41 795.22,-314.41 974.22,-314.41 974.22,-350.41"/>
<polyline fill="none" stroke="green" points="795.22,-346.41 799.22,-346.41 799.22,-342.41 795.22,-342.41 "/>
<polyline fill="none" stroke="green" points="795.22,-322.41 799.22,-322.41 799.22,-318.41 795.22,-318.41 "/>
<text text-anchor="middle" x="884.72" y="-328.71" font-family="Times,serif" font-size="14.00">phaidra&#45;ssl&#45;httpd&#45;api&#45;1</text>
</a>
</g>
</g>
<!-- HS_FEDORA&#45;&#45;C_API -->
<g id="edge3" class="edge">
<title>HS_FEDORA&#45;&#45;C_API</title>
<path fill="none" stroke="turquoise" d="M534.66,-1586.69C494.89,-1571.4 462.06,-1545.59 443.72,-1504.41 430.88,-1475.59 430.88,-397.24 443.72,-368.41 471.58,-305.87 674.45,-312.97 795.1,-323.05"/>
</g>
<!-- C_PIXELGECKO -->
<g id="node29" class="node">
<title>C_PIXELGECKO</title>
<polygon fill="none" stroke="green" points="1903.22,-458.41 1670.22,-458.41 1670.22,-454.41 1666.22,-454.41 1666.22,-450.41 1670.22,-450.41 1670.22,-430.41 1666.22,-430.41 1666.22,-426.41 1670.22,-426.41 1670.22,-422.41 1903.22,-422.41 1903.22,-458.41"/>
<polyline fill="none" stroke="green" points="1670.22,-454.41 1674.22,-454.41 1674.22,-450.41 1670.22,-450.41 "/>
<polyline fill="none" stroke="green" points="1670.22,-430.41 1674.22,-430.41 1674.22,-426.41 1670.22,-426.41 "/>
<text text-anchor="middle" x="1786.72" y="-436.71" font-family="Times,serif" font-size="14.00">phaidra&#45;ssl&#45;httpd&#45;pixelgecko&#45;1</text>
</g>
<!-- HS_FEDORA&#45;&#45;C_PIXELGECKO -->
<g id="edge11" class="edge">
<title>HS_FEDORA&#45;&#45;C_PIXELGECKO</title>
<path fill="none" stroke="turquoise" d="M1234.89,-1562.65C1264.53,-1551.02 1292.14,-1535.03 1315.72,-1513.41 1346.25,-1485.43 1322.58,-1461.68 1335.72,-1422.41 1471.45,-1016.95 1722.36,-554.78 1775.62,-458.53"/>
</g>
<!-- HS_API_LOGS -->
<g id="node3" class="node">
<title>HS_API_LOGS</title>
<polygon fill="none" stroke="turquoise" points="1213.72,-1364.41 1210.72,-1368.41 1189.72,-1368.41 1186.72,-1364.41 555.72,-1364.41 555.72,-1312.41 1213.72,-1312.41 1213.72,-1364.41"/>
<text text-anchor="start" x="567.72" y="-1346.21" font-family="Times,serif" font-weight="bold" font-size="14.00">host:</text>
<text text-anchor="start" x="672.72" y="-1345.21" font-family="Times,serif" font-size="14.00">$HOME/.local/share/docker/volumes/phaidra&#45;ssl&#45;shib&#45;httpd_api_logs/_data</text>
<text text-anchor="start" x="567.72" y="-1324.21" font-family="Times,serif" font-size="14.00">api&#45;container:</text>
<text text-anchor="start" x="672.72" y="-1324.21" font-family="Times,serif" font-size="14.00">/var/log/phaidra</text>
</g>
<!-- HS_API_LOGS&#45;&#45;C_API -->
<g id="edge2" class="edge">
<title>HS_API_LOGS&#45;&#45;C_API</title>
<path fill="none" stroke="turquoise" d="M555.71,-1343.47C499.75,-1336 455.68,-1321.25 443.72,-1294.41 433.26,-1270.92 433.26,-391.91 443.72,-368.41 471.58,-305.87 674.45,-312.97 795.1,-323.05"/>
</g>
<!-- HS_MARIADB_PHAIDRA -->
<g id="node4" class="node">
<title>HS_MARIADB_PHAIDRA</title>
<polygon fill="none" stroke="turquoise" points="1293.72,-1686.41 1290.72,-1690.41 1269.72,-1690.41 1266.72,-1686.41 475.72,-1686.41 475.72,-1634.41 1293.72,-1634.41 1293.72,-1686.41"/>
<text text-anchor="start" x="487.72" y="-1668.21" font-family="Times,serif" font-weight="bold" font-size="14.00">host:</text>
<text text-anchor="start" x="689.72" y="-1667.21" font-family="Times,serif" font-size="14.00">$HOME/.local/share/docker/volumes/phaidra&#45;ssl&#45;shib&#45;httpd_mariadb_phaidra/_data</text>
<text text-anchor="start" x="487.72" y="-1646.21" font-family="Times,serif" font-size="14.00">mariadb&#45;phaidra&#45;container:</text>
<text text-anchor="start" x="689.72" y="-1646.21" font-family="Times,serif" font-size="14.00">/var/lib/mysql</text>
</g>
<!-- C_MARIADB_PHAIDRA -->
<g id="node23" class="node">
<title>C_MARIADB_PHAIDRA</title>
<g id="a_node23"><a xlink:href="https://mariadb.org/" xlink:title="phaidra&#45;ssl&#45;httpd&#45;mariadb&#45;phaidra&#45;1">
<polygon fill="none" stroke="green" points="1614.22,-350.41 1339.22,-350.41 1339.22,-346.41 1335.22,-346.41 1335.22,-342.41 1339.22,-342.41 1339.22,-322.41 1335.22,-322.41 1335.22,-318.41 1339.22,-318.41 1339.22,-314.41 1614.22,-314.41 1614.22,-350.41"/>
<polyline fill="none" stroke="green" points="1339.22,-346.41 1343.22,-346.41 1343.22,-342.41 1339.22,-342.41 "/>
<polyline fill="none" stroke="green" points="1339.22,-322.41 1343.22,-322.41 1343.22,-318.41 1339.22,-318.41 "/>
<text text-anchor="middle" x="1476.72" y="-328.71" font-family="Times,serif" font-size="14.00">phaidra&#45;ssl&#45;httpd&#45;mariadb&#45;phaidra&#45;1</text>
</a>
</g>
</g>
<!-- HS_MARIADB_PHAIDRA&#45;&#45;C_MARIADB_PHAIDRA -->
<g id="edge5" class="edge">
<title>HS_MARIADB_PHAIDRA&#45;&#45;C_MARIADB_PHAIDRA</title>
<path fill="none" stroke="turquoise" d="M1293.93,-1640.59C1302.96,-1636.19 1310.35,-1631.15 1315.72,-1625.41 1363.81,-1574.07 1290.51,-413.3 1335.72,-359.41 1338.43,-356.19 1341.39,-353.27 1344.56,-350.64"/>
</g>
<!-- HS_MONGODB_PHAIDRA -->
<g id="node5" class="node">
<title>HS_MONGODB_PHAIDRA</title>
<polygon fill="none" stroke="turquoise" points="1299.72,-1504.41 1296.72,-1508.41 1275.72,-1508.41 1272.72,-1504.41 469.72,-1504.41 469.72,-1452.41 1299.72,-1452.41 1299.72,-1504.41"/>
<text text-anchor="start" x="481.72" y="-1486.21" font-family="Times,serif" font-weight="bold" font-size="14.00">host:</text>
<text text-anchor="start" x="689.72" y="-1485.21" font-family="Times,serif" font-size="14.00">$HOME/.local/share/docker/volumes/phaidra&#45;ssl&#45;shib&#45;httpd_mongodb_phaidra/_data</text>
<text text-anchor="start" x="481.72" y="-1464.21" font-family="Times,serif" font-size="14.00">phaidra&#45;mongodb&#45;container:</text>
<text text-anchor="start" x="689.72" y="-1464.21" font-family="Times,serif" font-size="14.00">/data/db</text>
</g>
<!-- C_MONGODB_PHAIDRA -->
<g id="node24" class="node">
<title>C_MONGODB_PHAIDRA</title>
<g id="a_node24"><a xlink:href="https://www.mongodb.com/" xlink:title="phaidra&#45;ssl&#45;httpd&#45;mongodb&#45;phaidra&#45;1">
<polygon fill="none" stroke="green" points="1617.72,-296.41 1335.72,-296.41 1335.72,-292.41 1331.72,-292.41 1331.72,-288.41 1335.72,-288.41 1335.72,-268.41 1331.72,-268.41 1331.72,-264.41 1335.72,-264.41 1335.72,-260.41 1617.72,-260.41 1617.72,-296.41"/>
<polyline fill="none" stroke="green" points="1335.72,-292.41 1339.72,-292.41 1339.72,-288.41 1335.72,-288.41 "/>
<polyline fill="none" stroke="green" points="1335.72,-268.41 1339.72,-268.41 1339.72,-264.41 1335.72,-264.41 "/>
<text text-anchor="middle" x="1476.72" y="-274.71" font-family="Times,serif" font-size="14.00">phaidra&#45;ssl&#45;httpd&#45;mongodb&#45;phaidra&#45;1</text>
</a>
</g>
</g>
<!-- HS_MONGODB_PHAIDRA&#45;&#45;C_MONGODB_PHAIDRA -->
<g id="edge6" class="edge">
<title>HS_MONGODB_PHAIDRA&#45;&#45;C_MONGODB_PHAIDRA</title>
<path fill="none" stroke="turquoise" d="M1299.79,-1455.5C1306.19,-1451.87 1311.56,-1447.85 1315.72,-1443.41 1358.99,-1397.3 1295.04,-353.82 1335.72,-305.41 1338.51,-302.1 1341.57,-299.11 1344.85,-296.42"/>
</g>
<!-- HS_OPENLDAP -->
<g id="node6" class="node">
<title>HS_OPENLDAP</title>
<polygon fill="none" stroke="turquoise" points="1238.72,-1756.41 1235.72,-1760.41 1214.72,-1760.41 1211.72,-1756.41 530.72,-1756.41 530.72,-1704.41 1238.72,-1704.41 1238.72,-1756.41"/>
<text text-anchor="start" x="542.72" y="-1738.21" font-family="Times,serif" font-weight="bold" font-size="14.00">host:</text>
<text text-anchor="start" x="690.72" y="-1737.21" font-family="Times,serif" font-size="14.00">$HOME/.local/share/docker/volumes/phaidra&#45;ssl&#45;shib&#45;httpd_openldap/_data</text>
<text text-anchor="start" x="542.72" y="-1716.21" font-family="Times,serif" font-size="14.00">openldap&#45;container:</text>
<text text-anchor="start" x="690.72" y="-1716.21" font-family="Times,serif" font-size="14.00">/bitnami/openldap</text>
</g>
<!-- C_OPENLDAP -->
<g id="node26" class="node">
<title>C_OPENLDAP</title>
<g id="a_node26"><a xlink:href="https://www.openldap.org/" xlink:title="phaidra&#45;ssl&#45;httpd&#45;openldap&#45;1">
<polygon fill="none" stroke="green" points="1587.72,-404.41 1365.72,-404.41 1365.72,-400.41 1361.72,-400.41 1361.72,-396.41 1365.72,-396.41 1365.72,-376.41 1361.72,-376.41 1361.72,-372.41 1365.72,-372.41 1365.72,-368.41 1587.72,-368.41 1587.72,-404.41"/>
<polyline fill="none" stroke="green" points="1365.72,-400.41 1369.72,-400.41 1369.72,-396.41 1365.72,-396.41 "/>
<polyline fill="none" stroke="green" points="1365.72,-376.41 1369.72,-376.41 1369.72,-372.41 1365.72,-372.41 "/>
<text text-anchor="middle" x="1476.72" y="-382.71" font-family="Times,serif" font-size="14.00">phaidra&#45;ssl&#45;httpd&#45;openldap&#45;1</text>
</a>
</g>
</g>
<!-- HS_OPENLDAP&#45;&#45;C_OPENLDAP -->
<g id="edge7" class="edge">
<title>HS_OPENLDAP&#45;&#45;C_OPENLDAP</title>
<path fill="none" stroke="turquoise" d="M1239.15,-1727.28C1274.02,-1720.55 1301.71,-1710.38 1315.72,-1695.41 1364.41,-1643.42 1289.95,-467.99 1335.72,-413.41 1343.76,-403.84 1354.07,-396.99 1365.45,-392.16"/>
</g>
<!-- HS_SOLR -->
<g id="node7" class="node">
<title>HS_SOLR</title>
<polygon fill="none" stroke="turquoise" points="1200.72,-1294.41 1197.72,-1298.41 1176.72,-1298.41 1173.72,-1294.41 568.72,-1294.41 568.72,-1242.41 1200.72,-1242.41 1200.72,-1294.41"/>
<text text-anchor="start" x="580.72" y="-1276.21" font-family="Times,serif" font-weight="bold" font-size="14.00">host:</text>
<text text-anchor="start" x="690.72" y="-1275.21" font-family="Times,serif" font-size="14.00">$HOME/.local/share/docker/volumes/phaidra&#45;ssl&#45;shib&#45;httpd_solr/_data</text>
<text text-anchor="start" x="580.72" y="-1254.21" font-family="Times,serif" font-size="14.00">solr&#45;container:</text>
<text text-anchor="start" x="690.72" y="-1254.21" font-family="Times,serif" font-size="14.00">/var/solr</text>
</g>
<!-- C_SOLR -->
<g id="node27" class="node">
<title>C_SOLR</title>
<g id="a_node27"><a xlink:href="https://solr.apache.org/" xlink:title="phaidra&#45;ssl&#45;httpd&#45;solr&#45;1">
<polygon fill="none" stroke="green" points="1568.72,-222.41 1384.72,-222.41 1384.72,-218.41 1380.72,-218.41 1380.72,-214.41 1384.72,-214.41 1384.72,-194.41 1380.72,-194.41 1380.72,-190.41 1384.72,-190.41 1384.72,-186.41 1568.72,-186.41 1568.72,-222.41"/>
<polyline fill="none" stroke="green" points="1384.72,-218.41 1388.72,-218.41 1388.72,-214.41 1384.72,-214.41 "/>
<polyline fill="none" stroke="green" points="1384.72,-194.41 1388.72,-194.41 1388.72,-190.41 1384.72,-190.41 "/>
<text text-anchor="middle" x="1476.72" y="-200.71" font-family="Times,serif" font-size="14.00">phaidra&#45;ssl&#45;httpd&#45;solr&#45;1</text>
</a>
</g>
</g>
<!-- HS_SOLR&#45;&#45;C_SOLR -->
<g id="edge9" class="edge">
<title>HS_SOLR&#45;&#45;C_SOLR</title>
<path fill="none" stroke="turquoise" d="M1200.8,-1268.73C1253.32,-1262.28 1296.89,-1250.57 1315.72,-1230.41 1352.86,-1190.67 1303.51,-295.25 1335.72,-251.41 1347.71,-235.09 1365.64,-224.37 1384.69,-217.34"/>
</g>
<!-- HS_PIXELGECKO -->
<g id="node8" class="node">
<title>HS_PIXELGECKO</title>
<polygon fill="none" stroke="turquoise" points="1256.22,-1847.91 1253.22,-1851.91 1232.22,-1851.91 1229.22,-1847.91 513.22,-1847.91 513.22,-1774.91 1256.22,-1774.91 1256.22,-1847.91"/>
<text text-anchor="start" x="525.72" y="-1829.21" font-family="Times,serif" font-weight="bold" font-size="14.00">host:</text>
<text text-anchor="start" x="697.72" y="-1828.21" font-family="Times,serif" font-size="14.00">$HOME/.local/share/docker/volumes/phaidra&#45;ssl&#45;shib&#45;httpd_pixelgecko/_data</text>
<text text-anchor="start" x="525.72" y="-1807.21" font-family="Times,serif" font-size="14.00">pixelgecko&#45;container:</text>
<text text-anchor="start" x="697.72" y="-1807.21" font-family="Times,serif" font-size="14.00">/mnt/converted_images</text>
<text text-anchor="start" x="525.72" y="-1786.21" font-family="Times,serif" font-size="14.00">imageserver&#45;container:</text>
<text text-anchor="start" x="697.72" y="-1786.21" font-family="Times,serif" font-size="14.00">/mnt/converted_images:ro</text>
</g>
<!-- C_IMAGESERVER -->
<g id="node28" class="node">
<title>C_IMAGESERVER</title>
<g id="a_node28"><a xlink:href="https://github.com/ruven/iipsrv" xlink:title="phaidra&#45;ssl&#45;httpd&#45;imageserver&#45;1">
<polygon fill="none" stroke="green" points="1599.72,-458.41 1353.72,-458.41 1353.72,-454.41 1349.72,-454.41 1349.72,-450.41 1353.72,-450.41 1353.72,-430.41 1349.72,-430.41 1349.72,-426.41 1353.72,-426.41 1353.72,-422.41 1599.72,-422.41 1599.72,-458.41"/>
<polyline fill="none" stroke="green" points="1353.72,-454.41 1357.72,-454.41 1357.72,-450.41 1353.72,-450.41 "/>
<polyline fill="none" stroke="green" points="1353.72,-430.41 1357.72,-430.41 1357.72,-426.41 1353.72,-426.41 "/>
<text text-anchor="middle" x="1476.72" y="-436.71" font-family="Times,serif" font-size="14.00">phaidra&#45;ssl&#45;httpd&#45;imageserver&#45;1</text>
</a>
</g>
</g>
<!-- HS_PIXELGECKO&#45;&#45;C_IMAGESERVER -->
<g id="edge10" class="edge">
<title>HS_PIXELGECKO&#45;&#45;C_IMAGESERVER</title>
<path fill="none" stroke="turquoise" d="M1256.24,-1808.84C1278.2,-1797.85 1298.37,-1783.62 1315.72,-1765.41 1342.06,-1737.77 1331.91,-1460.4 1335.72,-1422.41 1374.98,-1030.88 1455.69,-555.94 1472.58,-458.42"/>
</g>
<!-- HS_PIXELGECKO&#45;&#45;C_PIXELGECKO -->
<g id="edge12" class="edge">
<title>HS_PIXELGECKO&#45;&#45;C_PIXELGECKO</title>
<path fill="none" stroke="turquoise" d="M1256.38,-1798.02C1277.37,-1789.36 1297.36,-1778.62 1315.72,-1765.41 1781.86,-1430.13 1788.18,-592.15 1786.15,-458.51"/>
</g>
<!-- HS_DBGATE -->
<g id="node9" class="node">
<title>HS_DBGATE</title>
<polygon fill="none" stroke="turquoise" points="1223.22,-1434.41 1220.22,-1438.41 1199.22,-1438.41 1196.22,-1434.41 546.22,-1434.41 546.22,-1382.41 1223.22,-1382.41 1223.22,-1434.41"/>
<text text-anchor="start" x="558.72" y="-1416.21" font-family="Times,serif" font-weight="bold" font-size="14.00">host:</text>
<text text-anchor="start" x="691.72" y="-1415.21" font-family="Times,serif" font-size="14.00">$HOME/.local/share/docker/volumes/phaidra&#45;ssl&#45;shib&#45;httpd_dbgate/_data</text>
<text text-anchor="start" x="558.72" y="-1394.21" font-family="Times,serif" font-size="14.00">dbgate&#45;container:</text>
<text text-anchor="start" x="691.72" y="-1394.21" font-family="Times,serif" font-size="14.00">/root/.dbgate</text>
</g>
<!-- C_DBGATE -->
<g id="node30" class="node">
<title>C_DBGATE</title>
<polygon fill="none" stroke="green" points="987.72,-404.41 781.72,-404.41 781.72,-400.41 777.72,-400.41 777.72,-396.41 781.72,-396.41 781.72,-376.41 777.72,-376.41 777.72,-372.41 781.72,-372.41 781.72,-368.41 987.72,-368.41 987.72,-404.41"/>
<polyline fill="none" stroke="green" points="781.72,-400.41 785.72,-400.41 785.72,-396.41 781.72,-396.41 "/>
<polyline fill="none" stroke="green" points="781.72,-376.41 785.72,-376.41 785.72,-372.41 781.72,-372.41 "/>
<text text-anchor="middle" x="884.72" y="-382.71" font-family="Times,serif" font-size="14.00">phaidra&#45;ssl&#45;httpd&#45;dbgate&#45;1</text>
</g>
<!-- HS_DBGATE&#45;&#45;C_DBGATE -->
<g id="edge13" class="edge">
<title>HS_DBGATE&#45;&#45;C_DBGATE</title>
<path fill="none" stroke="turquoise" d="M546.22,-1412.11C494.81,-1404.27 454.99,-1389.72 443.72,-1364.41 434.07,-1342.74 434.07,-532.08 443.72,-510.41 497.76,-389.08 668.96,-373.28 781.47,-376.96"/>
</g>
<!-- HS_MARIADB_FEDORA -->
<g id="node10" class="node">
<title>HS_MARIADB_FEDORA</title>
<polygon fill="none" stroke="turquoise" points="1284.72,-1918.41 1281.72,-1922.41 1260.72,-1922.41 1257.72,-1918.41 484.72,-1918.41 484.72,-1866.41 1284.72,-1866.41 1284.72,-1918.41"/>
<text text-anchor="start" x="496.72" y="-1900.21" font-family="Times,serif" font-weight="bold" font-size="14.00">host:</text>
<text text-anchor="start" x="689.72" y="-1899.21" font-family="Times,serif" font-size="14.00">$HOME/.local/share/docker/volumes/phaidra&#45;ssl&#45;shib&#45;httpd_mariadb_fedora/_data</text>
<text text-anchor="start" x="496.72" y="-1878.21" font-family="Times,serif" font-size="14.00">mariadb&#45;fedora&#45;container:</text>
<text text-anchor="start" x="689.72" y="-1878.21" font-family="Times,serif" font-size="14.00">/var/lib/mysql</text>
</g>
<!-- C_MARIADB_FEDORA -->
<g id="node32" class="node">
<title>C_MARIADB_FEDORA</title>
<g id="a_node32"><a xlink:href="https://mariadb.org/" xlink:title="phaidra&#45;ssl&#45;httpd&#45;mariadb&#45;fedora&#45;1">
<polygon fill="none" stroke="green" points="1919.72,-259.41 1653.72,-259.41 1653.72,-255.41 1649.72,-255.41 1649.72,-251.41 1653.72,-251.41 1653.72,-231.41 1649.72,-231.41 1649.72,-227.41 1653.72,-227.41 1653.72,-223.41 1919.72,-223.41 1919.72,-259.41"/>
<polyline fill="none" stroke="green" points="1653.72,-255.41 1657.72,-255.41 1657.72,-251.41 1653.72,-251.41 "/>
<polyline fill="none" stroke="green" points="1653.72,-231.41 1657.72,-231.41 1657.72,-227.41 1653.72,-227.41 "/>
<text text-anchor="middle" x="1786.72" y="-237.71" font-family="Times,serif" font-size="14.00">phaidra&#45;ssl&#45;httpd&#45;mariadb&#45;fedora&#45;1</text>
</a>
</g>
</g>
<!-- HS_MARIADB_FEDORA&#45;&#45;C_MARIADB_FEDORA -->
<g id="edge14" class="edge">
<title>HS_MARIADB_FEDORA&#45;&#45;C_MARIADB_FEDORA</title>
<path fill="none" stroke="turquoise" d="M1012.22,-1918.42C1106.85,-1930.1 1233.58,-1928.17 1315.72,-1857.41 1815.13,-1427.25 1371.63,-1009.12 1653.72,-413.41 1683.36,-350.82 1738.59,-289.35 1767.31,-259.72"/>
</g>
<!-- BIND_MARIADB_PHAIDRA_INIT -->
<g id="node11" class="node">
<title>BIND_MARIADB_PHAIDRA_INIT</title>
<polygon fill="none" stroke="blue" points="1199.72,-1125.41 1196.72,-1129.41 1175.72,-1129.41 1172.72,-1125.41 569.72,-1125.41 569.72,-1073.41 1199.72,-1073.41 1199.72,-1125.41"/>
<text text-anchor="start" x="581.72" y="-1107.21" font-family="Times,serif" font-weight="bold" font-size="14.00">host:</text>
<text text-anchor="start" x="783.72" y="-1106.21" font-family="Times,serif" font-size="14.00">$REPO/container_components/mariadb/phaidradb.sql.gz</text>
<text text-anchor="start" x="581.72" y="-1085.21" font-family="Times,serif" font-size="14.00">mariadb&#45;phaidra&#45;container:</text>
<text text-anchor="start" x="783.72" y="-1085.21" font-family="Times,serif" font-size="14.00">/docker&#45;entrypoint&#45;initdb.d/phaidradb.sql.gz:ro</text>
</g>
<!-- BIND_MARIADB_PHAIDRA_INIT&#45;&#45;C_MARIADB_PHAIDRA -->
<g id="edge4" class="edge">
<title>BIND_MARIADB_PHAIDRA_INIT&#45;&#45;C_MARIADB_PHAIDRA</title>
<path fill="none" stroke="blue" d="M1199.79,-1101.98C1252.68,-1095.93 1296.65,-1084.52 1315.72,-1064.41 1369.65,-1007.56 1284.98,-419.13 1335.72,-359.41 1338.53,-356.11 1341.6,-353.14 1344.9,-350.46"/>
</g>
<!-- BIND_OPENLDAP_INIT -->
<g id="node12" class="node">
<title>BIND_OPENLDAP_INIT</title>
<polygon fill="none" stroke="blue" points="1113.72,-1195.41 1110.72,-1199.41 1089.72,-1199.41 1086.72,-1195.41 655.72,-1195.41 655.72,-1143.41 1113.72,-1143.41 1113.72,-1195.41"/>
<text text-anchor="start" x="667.72" y="-1177.21" font-family="Times,serif" font-weight="bold" font-size="14.00">host:</text>
<text text-anchor="start" x="815.72" y="-1176.21" font-family="Times,serif" font-size="14.00">$REPO/container_components/openldap</text>
<text text-anchor="start" x="667.72" y="-1155.21" font-family="Times,serif" font-size="14.00">openldap&#45;container:</text>
<text text-anchor="start" x="815.72" y="-1155.21" font-family="Times,serif" font-size="14.00">/ldifs:ro</text>
</g>
<!-- BIND_OPENLDAP_INIT&#45;&#45;C_OPENLDAP -->
<g id="edge8" class="edge">
<title>BIND_OPENLDAP_INIT&#45;&#45;C_OPENLDAP</title>
<path fill="none" stroke="blue" d="M989.32,-1195.46C1088.22,-1213.44 1233.92,-1220.71 1315.72,-1134.41 1370.86,-1076.25 1283.85,-474.5 1335.72,-413.41 1343.81,-403.88 1354.16,-397.06 1365.56,-392.26"/>
</g>
<!-- BIND_HTTPD_SITE_CONFIG -->
<g id="node13" class="node">
<title>BIND_HTTPD_SITE_CONFIG</title>
<polygon fill="none" stroke="blue" points="1180.22,-1055.41 1177.22,-1059.41 1156.22,-1059.41 1153.22,-1055.41 589.22,-1055.41 589.22,-1003.41 1180.22,-1003.41 1180.22,-1055.41"/>
<text text-anchor="start" x="601.72" y="-1037.21" font-family="Times,serif" font-weight="bold" font-size="14.00">host:</text>
<text text-anchor="start" x="723.72" y="-1036.21" font-family="Times,serif" font-size="14.00">$REPO/webserver_configs/httpd&#45;docker/ssl&#45;shib/httpd&#45;ssl.conf</text>
<text text-anchor="start" x="601.72" y="-1015.21" font-family="Times,serif" font-size="14.00">httpd&#45;container:</text>
<text text-anchor="start" x="723.72" y="-1015.21" font-family="Times,serif" font-size="14.00">/usr/local/apache2/conf/extra/httpd&#45;ssl.conf:ro</text>
</g>
<!-- BIND_HTTPD_SERVER_CONFIG -->
<g id="node14" class="node">
<title>BIND_HTTPD_SERVER_CONFIG</title>
<polygon fill="none" stroke="blue" points="1168.22,-985.41 1165.22,-989.41 1144.22,-989.41 1141.22,-985.41 601.22,-985.41 601.22,-933.41 1168.22,-933.41 1168.22,-985.41"/>
<text text-anchor="start" x="613.72" y="-967.21" font-family="Times,serif" font-weight="bold" font-size="14.00">host:</text>
<text text-anchor="start" x="735.72" y="-966.21" font-family="Times,serif" font-size="14.00">$REPO/webserver_configs/httpd&#45;docker/ssl&#45;shib/httpd.conf</text>
<text text-anchor="start" x="613.72" y="-945.21" font-family="Times,serif" font-size="14.00">httpd&#45;container:</text>
<text text-anchor="start" x="735.72" y="-945.21" font-family="Times,serif" font-size="14.00">/usr/local/apache2/conf/extra/httpd.conf:ro</text>
</g>
<!-- BIND_HTTPD_CERT -->
<g id="node15" class="node">
<title>BIND_HTTPD_CERT</title>
<polygon fill="none" stroke="blue" points="1114.22,-915.41 1111.22,-919.41 1090.22,-919.41 1087.22,-915.41 655.22,-915.41 655.22,-863.41 1114.22,-863.41 1114.22,-915.41"/>
<text text-anchor="start" x="667.72" y="-897.21" font-family="Times,serif" font-weight="bold" font-size="14.00">host:</text>
<text text-anchor="start" x="789.72" y="-896.21" font-family="Times,serif" font-size="14.00">$REPO/encryption/webserver/fullchain.pem</text>
<text text-anchor="start" x="667.72" y="-875.21" font-family="Times,serif" font-size="14.00">httpd&#45;container:</text>
<text text-anchor="start" x="789.72" y="-875.21" font-family="Times,serif" font-size="14.00">/usr/local/apache2/conf/server.crt:ro</text>
</g>
<!-- BIND_HTTPD_KEY -->
<g id="node16" class="node">
<title>BIND_HTTPD_KEY</title>
<polygon fill="none" stroke="blue" points="1109.22,-845.41 1106.22,-849.41 1085.22,-849.41 1082.22,-845.41 660.22,-845.41 660.22,-793.41 1109.22,-793.41 1109.22,-845.41"/>
<text text-anchor="start" x="672.72" y="-827.21" font-family="Times,serif" font-weight="bold" font-size="14.00">host:</text>
<text text-anchor="start" x="794.72" y="-826.21" font-family="Times,serif" font-size="14.00">$REPO/encryption/webserver/privkey.pem</text>
<text text-anchor="start" x="672.72" y="-805.21" font-family="Times,serif" font-size="14.00">httpd&#45;container:</text>
<text text-anchor="start" x="794.72" y="-805.21" font-family="Times,serif" font-size="14.00">/usr/local/apache2/conf/server.key:ro</text>
</g>
<!-- BIND_SHIB_ENCRYPTION_KEY -->
<g id="node17" class="node">
<title>BIND_SHIB_ENCRYPTION_KEY</title>
<polygon fill="none" stroke="blue" points="1135.22,-775.41 1132.22,-779.41 1111.22,-779.41 1108.22,-775.41 634.22,-775.41 634.22,-723.41 1135.22,-723.41 1135.22,-775.41"/>
<text text-anchor="start" x="646.72" y="-757.21" font-family="Times,serif" font-weight="bold" font-size="14.00">host:</text>
<text text-anchor="start" x="768.72" y="-756.21" font-family="Times,serif" font-size="14.00">$REPO/encryption/shibboleth/sp&#45;encrypt&#45;key.pem</text>
<text text-anchor="start" x="646.72" y="-735.21" font-family="Times,serif" font-size="14.00">httpd&#45;container:</text>
<text text-anchor="start" x="768.72" y="-735.21" font-family="Times,serif" font-size="14.00">/etc/shibboleth/sp&#45;encrypt&#45;key.pem:ro</text>
</g>
<!-- BIND_SHIB_ENCRYPTION_CERT -->
<g id="node18" class="node">
<title>BIND_SHIB_ENCRYPTION_CERT</title>
<polygon fill="none" stroke="blue" points="1138.22,-705.41 1135.22,-709.41 1114.22,-709.41 1111.22,-705.41 631.22,-705.41 631.22,-653.41 1138.22,-653.41 1138.22,-705.41"/>
<text text-anchor="start" x="643.72" y="-687.21" font-family="Times,serif" font-weight="bold" font-size="14.00">host:</text>
<text text-anchor="start" x="765.72" y="-686.21" font-family="Times,serif" font-size="14.00">$REPO/encryption/shibboleth/sp&#45;encrypt&#45;cert.pem</text>
<text text-anchor="start" x="643.72" y="-665.21" font-family="Times,serif" font-size="14.00">httpd&#45;container:</text>
<text text-anchor="start" x="765.72" y="-665.21" font-family="Times,serif" font-size="14.00">/etc/shibboleth/sp&#45;encrypt&#45;cert.pem:ro</text>
</g>
<!-- BIND_SHIB_SIGNING_KEY -->
<g id="node19" class="node">
<title>BIND_SHIB_SIGNING_KEY</title>
<polygon fill="none" stroke="blue" points="1133.72,-635.41 1130.72,-639.41 1109.72,-639.41 1106.72,-635.41 635.72,-635.41 635.72,-583.41 1133.72,-583.41 1133.72,-635.41"/>
<text text-anchor="start" x="647.72" y="-617.21" font-family="Times,serif" font-weight="bold" font-size="14.00">host:</text>
<text text-anchor="start" x="769.72" y="-616.21" font-family="Times,serif" font-size="14.00">$REPO/encryption/shibboleth/sp&#45;signing&#45;key.pem</text>
<text text-anchor="start" x="647.72" y="-595.21" font-family="Times,serif" font-size="14.00">httpd&#45;container:</text>
<text text-anchor="start" x="769.72" y="-595.21" font-family="Times,serif" font-size="14.00">/etc/shibboleth/sp&#45;signing&#45;key.pem:ro</text>
</g>
<!-- BIND_SHIB_SIGNING_CERT -->
<g id="node20" class="node">
<title>BIND_SHIB_SIGNING_CERT</title>
<polygon fill="none" stroke="blue" points="1136.72,-565.41 1133.72,-569.41 1112.72,-569.41 1109.72,-565.41 632.72,-565.41 632.72,-513.41 1136.72,-513.41 1136.72,-565.41"/>
<text text-anchor="start" x="644.72" y="-547.21" font-family="Times,serif" font-weight="bold" font-size="14.00">host:</text>
<text text-anchor="start" x="766.72" y="-546.21" font-family="Times,serif" font-size="14.00">$REPO/encryption/shibboleth/sp&#45;signing&#45;cert.pem</text>
<text text-anchor="start" x="644.72" y="-525.21" font-family="Times,serif" font-size="14.00">httpd&#45;container:</text>
<text text-anchor="start" x="766.72" y="-525.21" font-family="Times,serif" font-size="14.00">/etc/shibboleth/sp&#45;signing&#45;cert.pem:ro</text>
</g>
<!-- C_FEDORA&#45;&#45;C_MARIADB_FEDORA -->
<g id="edge23" class="edge">
<title>C_FEDORA&#45;&#45;C_MARIADB_FEDORA</title>
<path fill="none" stroke="orange" d="M1578.4,-167.65C1591.71,-170.56 1605.1,-173.82 1617.72,-177.41 1661.85,-189.97 1710.69,-209.21 1744.29,-223.32"/>
</g>
<!-- C_API&#45;&#45;C_FEDORA -->
<g id="edge24" class="edge">
<title>C_API&#45;&#45;C_FEDORA</title>
<path fill="none" stroke="orange" d="M974.33,-330.84C1068.96,-324.69 1218.41,-301.57 1315.72,-220.41 1331.91,-206.91 1319.11,-190.39 1335.72,-177.41 1347.23,-168.42 1360.87,-162.15 1375.05,-157.8"/>
</g>
<!-- C_API&#45;&#45;C_MARIADB_PHAIDRA -->
<g id="edge25" class="edge">
<title>C_API&#45;&#45;C_MARIADB_PHAIDRA</title>
<path fill="none" stroke="orange" d="M974.37,-332.41C1070.96,-332.41 1226.68,-332.41 1338.96,-332.41"/>
</g>
<!-- C_API&#45;&#45;C_MONGODB_PHAIDRA -->
<g id="edge26" class="edge">
<title>C_API&#45;&#45;C_MONGODB_PHAIDRA</title>
<path fill="none" stroke="orange" d="M974.37,-324.3C1069.99,-315.55 1223.57,-301.49 1335.58,-291.24"/>
</g>
<!-- C_UI -->
<g id="node25" class="node">
<title>C_UI</title>
<g id="a_node25"><a xlink:href="https://github.com/phaidra/phaidra-ui" xlink:title="phaidra&#45;ssl&#45;httpd&#45;ui&#45;1">
<polygon fill="none" stroke="green" points="1561.72,-114.41 1391.72,-114.41 1391.72,-110.41 1387.72,-110.41 1387.72,-106.41 1391.72,-106.41 1391.72,-86.41 1387.72,-86.41 1387.72,-82.41 1391.72,-82.41 1391.72,-78.41 1561.72,-78.41 1561.72,-114.41"/>
<polyline fill="none" stroke="green" points="1391.72,-110.41 1395.72,-110.41 1395.72,-106.41 1391.72,-106.41 "/>
<polyline fill="none" stroke="green" points="1391.72,-86.41 1395.72,-86.41 1395.72,-82.41 1391.72,-82.41 "/>
<text text-anchor="middle" x="1476.72" y="-92.71" font-family="Times,serif" font-size="14.00">phaidra&#45;ssl&#45;httpd&#45;ui&#45;1</text>
</a>
</g>
</g>
<!-- C_API&#45;&#45;C_UI -->
<g id="edge27" class="edge">
<title>C_API&#45;&#45;C_UI</title>
<path fill="none" stroke="orange" d="M917.37,-314.39C989.35,-274.16 1171.79,-176.41 1335.72,-123.41 1353.5,-117.66 1372.98,-112.96 1391.59,-109.18"/>
</g>
<!-- C_API&#45;&#45;C_OPENLDAP -->
<g id="edge28" class="edge">
<title>C_API&#45;&#45;C_OPENLDAP</title>
<path fill="none" stroke="orange" d="M974.49,-335.28C1061.61,-338.73 1198.13,-345.84 1315.72,-359.41 1336.15,-361.77 1357.94,-364.98 1378.65,-368.36"/>
</g>
<!-- C_API&#45;&#45;C_SOLR -->
<g id="edge29" class="edge">
<title>C_API&#45;&#45;C_SOLR</title>
<path fill="none" stroke="orange" d="M974.3,-345.37C1068.2,-354.13 1216.39,-353.18 1315.72,-280.41 1333.05,-267.72 1319.08,-249.99 1335.72,-236.41 1349.73,-224.99 1367.03,-217.46 1384.63,-212.55"/>
</g>
<!-- C_API&#45;&#45;C_IMAGESERVER -->
<g id="edge30" class="edge">
<title>C_API&#45;&#45;C_IMAGESERVER</title>
<path fill="none" stroke="orange" d="M961.29,-314.35C1054.32,-296.8 1212.63,-282.75 1315.72,-359.41 1336.26,-374.69 1316.2,-396.86 1335.72,-413.41 1341.2,-418.06 1347.23,-421.99 1353.62,-425.33"/>
</g>
<!-- C_MONGODB_PHAIDRA&#45;&#45;C_PIXELGECKO -->
<g id="edge31" class="edge">
<title>C_MONGODB_PHAIDRA&#45;&#45;C_PIXELGECKO</title>
<path fill="none" stroke="orange" d="M1594.83,-296.49C1602.72,-299.08 1610.42,-302.03 1617.72,-305.41 1680.87,-334.66 1740.94,-392.67 1769.07,-422.21"/>
</g>
<!-- C_LAM -->
<g id="node31" class="node">
<title>C_LAM</title>
<polygon fill="none" stroke="green" points="1878.22,-150.41 1695.22,-150.41 1695.22,-146.41 1691.22,-146.41 1691.22,-142.41 1695.22,-142.41 1695.22,-122.41 1691.22,-122.41 1691.22,-118.41 1695.22,-118.41 1695.22,-114.41 1878.22,-114.41 1878.22,-150.41"/>
<polyline fill="none" stroke="green" points="1695.22,-146.41 1699.22,-146.41 1699.22,-142.41 1695.22,-142.41 "/>
<polyline fill="none" stroke="green" points="1695.22,-122.41 1699.22,-122.41 1699.22,-118.41 1695.22,-118.41 "/>
<text text-anchor="middle" x="1786.72" y="-128.71" font-family="Times,serif" font-size="14.00">phaidra&#45;ssl&#45;httpd&#45;lam&#45;1</text>
</g>
<!-- C_OPENLDAP&#45;&#45;C_LAM -->
<g id="edge32" class="edge">
<title>C_OPENLDAP&#45;&#45;C_LAM</title>
<path fill="none" stroke="orange" d="M1587.73,-378.1C1598.79,-373.65 1609.1,-367.59 1617.72,-359.41 1665.9,-313.72 1614.65,-268.1 1653.72,-214.41 1675.07,-185.07 1710.43,-163.93 1739.17,-150.47"/>
</g>
<!-- C_DBGATE&#45;&#45;C_MARIADB_PHAIDRA -->
<g id="edge33" class="edge">
<title>C_DBGATE&#45;&#45;C_MARIADB_PHAIDRA</title>
<path fill="none" stroke="orange" d="M988.07,-383C1075.36,-379.36 1204.08,-372.3 1315.72,-359.41 1336.15,-357.05 1357.94,-353.85 1378.65,-350.46"/>
</g>
<!-- C_DBGATE&#45;&#45;C_MONGODB_PHAIDRA -->
<g id="edge34" class="edge">
<title>C_DBGATE&#45;&#45;C_MONGODB_PHAIDRA</title>
<path fill="none" stroke="orange" d="M961.29,-404.47C1054.32,-422.02 1212.63,-436.07 1315.72,-359.41 1336.26,-344.14 1316.2,-321.97 1335.72,-305.41 1339.59,-302.13 1343.74,-299.2 1348.1,-296.59"/>
</g>
<!-- C_DBGATE&#45;&#45;C_MARIADB_FEDORA -->
<g id="edge35" class="edge">
<title>C_DBGATE&#45;&#45;C_MARIADB_FEDORA</title>
<path fill="none" stroke="orange" d="M951.05,-404.48C1044.26,-425.91 1215.24,-448.47 1315.72,-359.41 1352.25,-327.03 1298.54,-283.05 1335.72,-251.41 1359.55,-231.14 1529.62,-232.32 1653.67,-236.04"/>
</g>
<!-- WEBSERVER&#45;&#45;BIND_HTTPD_SITE_CONFIG -->
<g id="edge15" class="edge">
<title>WEBSERVER&#45;&#45;BIND_HTTPD_SITE_CONFIG</title>
<path fill="none" stroke="blue" d="M337.73,-458.43C343,-545.44 370.35,-921.01 453.72,-994.41 536.22,-1067.05 665.43,-1067.91 760.7,-1055.42"/>
</g>
<!-- WEBSERVER&#45;&#45;BIND_HTTPD_SERVER_CONFIG -->
<g id="edge16" class="edge">
<title>WEBSERVER&#45;&#45;BIND_HTTPD_SERVER_CONFIG</title>
<path fill="none" stroke="blue" d="M338.32,-458.53C345.82,-538.84 380.22,-861.56 453.72,-924.41 535.7,-994.51 661.5,-996.82 755.9,-985.43"/>
</g>
<!-- WEBSERVER&#45;&#45;BIND_HTTPD_CERT -->
<g id="edge17" class="edge">
<title>WEBSERVER&#45;&#45;BIND_HTTPD_CERT</title>
<path fill="none" stroke="blue" d="M339.11,-458.57C349.1,-531.54 389.98,-801.99 453.72,-854.41 534.56,-920.9 655.28,-925.23 748.25,-915.45"/>
</g>
<!-- WEBSERVER&#45;&#45;BIND_HTTPD_KEY -->
<g id="edge18" class="edge">
<title>WEBSERVER&#45;&#45;BIND_HTTPD_KEY</title>
<path fill="none" stroke="blue" d="M336.54,-458.45C337.03,-516.8 347.25,-701.42 453.72,-784.41 532,-845.42 644.44,-852.65 734.71,-845.43"/>
</g>
<!-- WEBSERVER&#45;&#45;BIND_SHIB_ENCRYPTION_KEY -->
<g id="edge19" class="edge">
<title>WEBSERVER&#45;&#45;BIND_SHIB_ENCRYPTION_KEY</title>
<path fill="none" stroke="blue" d="M338.27,-458.7C343.64,-509.27 366.21,-651.38 453.72,-714.41 505.53,-751.73 570.52,-768.08 634.17,-773.28"/>
</g>
<!-- WEBSERVER&#45;&#45;BIND_SHIB_ENCRYPTION_CERT -->
<g id="edge20" class="edge">
<title>WEBSERVER&#45;&#45;BIND_SHIB_ENCRYPTION_CERT</title>
<path fill="none" stroke="blue" d="M341.01,-458.53C351.83,-499.75 384.44,-600.43 453.72,-644.41 505.97,-677.58 569.28,-692.99 631.08,-698.64"/>
</g>
<!-- WEBSERVER&#45;&#45;BIND_SHIB_SIGNING_KEY -->
<g id="edge21" class="edge">
<title>WEBSERVER&#45;&#45;BIND_SHIB_SIGNING_KEY</title>
<path fill="none" stroke="blue" d="M346.4,-458.7C363.5,-488.89 402.16,-548.41 453.72,-574.41 509.06,-602.32 573.55,-615.85 635.5,-621.37"/>
</g>
<!-- WEBSERVER&#45;&#45;BIND_SHIB_SIGNING_CERT -->
<g id="edge22" class="edge">
<title>WEBSERVER&#45;&#45;BIND_SHIB_SIGNING_CERT</title>
<path fill="none" stroke="blue" d="M369.46,-458.66C392.35,-470.56 424.03,-485.33 453.72,-493.41 510.68,-508.93 573.21,-519.25 632.52,-526.11"/>
</g>
<!-- WEBSERVER&#45;&#45;C_FEDORA -->
<g id="edge36" class="edge">
<title>WEBSERVER&#45;&#45;C_FEDORA</title>
<path fill="none" stroke="magenta" d="M340.22,-422.17C349.64,-378.53 380.04,-268.19 453.72,-220.41 603.6,-123.24 1147.52,-135.47 1374.82,-145.24"/>
</g>
<!-- WEBSERVER&#45;&#45;C_API -->
<g id="edge37" class="edge">
<title>WEBSERVER&#45;&#45;C_API</title>
<path fill="none" stroke="magenta" d="M355.57,-422.41C377.29,-402.93 414.98,-372.86 453.72,-359.41 566.61,-320.23 706.05,-319.43 794.95,-324.38"/>
</g>
<!-- WEBSERVER&#45;&#45;C_UI -->
<g id="edge38" class="edge">
<title>WEBSERVER&#45;&#45;C_UI</title>
<path fill="none" stroke="magenta" d="M337.23,-422.24C339.86,-367.62 355.92,-204.44 453.72,-134.41 529.02,-80.5 1160.33,-89.22 1391.41,-94.3"/>
</g>
<!-- WEBSERVER&#45;&#45;C_SOLR -->
<g id="edge39" class="edge">
<title>WEBSERVER&#45;&#45;C_SOLR</title>
<path fill="none" stroke="magenta" d="M346.41,-422.09C363.53,-391.82 402.21,-332.07 453.72,-305.41 624.68,-216.96 1124.18,-239.43 1315.72,-220.41 1337.95,-218.21 1361.9,-215.82 1384.34,-213.57"/>
</g>
<!-- WEBSERVER&#45;&#45;C_DBGATE -->
<g id="edge40" class="edge">
<title>WEBSERVER&#45;&#45;C_DBGATE</title>
<path fill="none" stroke="magenta" d="M433.88,-430.82C531.67,-421.17 681.87,-406.34 781.43,-396.51"/>
</g>
<!-- WEBSERVER&#45;&#45;C_LAM -->
<g id="edge41" class="edge">
<title>WEBSERVER&#45;&#45;C_LAM</title>
<path fill="none" stroke="magenta" d="M336.14,-422.02C335.35,-361.66 341.98,-168.82 453.72,-86.41 661.92,67.13 1363.18,-23.26 1617.72,-69.41 1664.77,-77.94 1715.8,-98.9 1749.12,-114.31"/>
</g>
</g>
</svg>
