<?xml version="1.0" encoding="UTF-8" standalone="no"?>
<!DOCTYPE svg PUBLIC "-//W3C//DTD SVG 1.1//EN"
 "http://www.w3.org/Graphics/SVG/1.1/DTD/svg11.dtd">
<!-- Generated by graphviz version 2.43.0 (0)
 -->
<!-- Title: G Pages: 1 -->
<svg width="1786pt" height="1997pt"
 viewBox="0.00 0.00 1785.72 1996.63" xmlns="http://www.w3.org/2000/svg" xmlns:xlink="http://www.w3.org/1999/xlink">
<g id="graph0" class="graph" transform="scale(1 1) rotate(0) translate(4 1992.63)">
<title>G</title>
<polygon fill="white" stroke="transparent" points="-4,4 -4,-1992.63 1781.72,-1992.63 1781.72,4 -4,4"/>
<g id="clust1" class="cluster">
<title>cluster_host</title>
<polygon fill="none" stroke="red" points="221.72,-11.63 221.72,-1980.63 1769.72,-1980.63 1769.72,-11.63 221.72,-11.63"/>
<text text-anchor="middle" x="995.72" y="-1965.43" font-family="Times,serif" font-size="14.00">PHAIDRA server firewall</text>
</g>
<g id="clust2" class="cluster">
<title>cluster_host_storage</title>
<polygon fill="none" stroke="blue" points="420.72,-466.63 420.72,-1949.63 1215.72,-1949.63 1215.72,-466.63 420.72,-466.63"/>
<text text-anchor="middle" x="818.22" y="-1934.43" font-family="Times,serif" font-size="14.00">PHAIDRA server filesystem</text>
</g>
<g id="clust3" class="cluster">
<title>cluster_named_volumes</title>
<polygon fill="none" stroke="turquoise" points="428.72,-1203.63 428.72,-1918.63 1207.72,-1918.63 1207.72,-1203.63 428.72,-1203.63"/>
<text text-anchor="middle" x="818.22" y="-1903.43" font-family="Times,serif" font-size="14.00">Named volumes</text>
</g>
<g id="clust4" class="cluster">
<title>cluster_bind_mounts</title>
<polygon fill="none" stroke="blue" points="495.22,-474.63 495.22,-1195.63 1141.22,-1195.63 1141.22,-474.63 495.22,-474.63"/>
<text text-anchor="middle" x="818.22" y="-1180.43" font-family="Times,serif" font-size="14.00">Bind mounts</text>
</g>
<g id="clust5" class="cluster">
<title>cluster_docker_network_host</title>
<polygon fill="none" stroke="green" points="229.72,-19.63 229.72,-458.63 1761.72,-458.63 1761.72,-19.63 229.72,-19.63"/>
<text text-anchor="middle" x="995.72" y="-443.43" font-family="Times,serif" font-size="14.00">PHAIDRA docker containers</text>
</g>
<!-- USER -->
<g id="node1" class="node">
<title>USER</title>
<polygon fill="none" stroke="black" points="193.59,-402.17 193.59,-417.08 139.27,-427.63 62.45,-427.63 8.13,-417.08 8.13,-402.17 62.45,-391.63 139.27,-391.63 193.59,-402.17"/>
<polygon fill="none" stroke="black" points="197.59,-398.87 197.59,-420.38 139.66,-431.63 62.07,-431.63 4.13,-420.38 4.13,-398.87 62.07,-387.63 139.66,-387.63 197.59,-398.87"/>
<polygon fill="none" stroke="black" points="201.58,-395.57 201.58,-423.68 140.04,-435.63 61.68,-435.63 0.14,-423.68 0.14,-395.57 61.68,-383.63 140.04,-383.63 201.58,-395.57"/>
<text text-anchor="middle" x="100.86" y="-405.93" font-family="Times,serif" font-size="14.00">PHAIDRA USER</text>
</g>
<!-- WEBSERVER -->
<g id="node33" class="node">
<title>WEBSERVER</title>
<polygon fill="none" stroke="green" points="400.72,-427.63 237.72,-427.63 237.72,-423.63 233.72,-423.63 233.72,-419.63 237.72,-419.63 237.72,-399.63 233.72,-399.63 233.72,-395.63 237.72,-395.63 237.72,-391.63 400.72,-391.63 400.72,-427.63"/>
<polyline fill="none" stroke="green" points="237.72,-423.63 241.72,-423.63 241.72,-419.63 237.72,-419.63 "/>
<polyline fill="none" stroke="green" points="237.72,-399.63 241.72,-399.63 241.72,-395.63 237.72,-395.63 "/>
<text text-anchor="middle" x="319.22" y="-405.93" font-family="Times,serif" font-size="14.00">phaidra&#45;shib&#45;httpd&#45;1</text>
</g>
<!-- USER&#45;&#45;WEBSERVER -->
<g id="edge42" class="edge">
<title>USER&#45;&#45;WEBSERVER</title>
<path fill="none" stroke="red" d="M201.81,-409.63C213.77,-409.63 225.86,-409.63 237.5,-409.63"/>
</g>
<!-- HS_FEDORA -->
<g id="node2" class="node">
<title>HS_FEDORA</title>
<polygon fill="none" stroke="turquoise" points="1134.22,-1585.63 1131.22,-1589.63 1110.22,-1589.63 1107.22,-1585.63 502.22,-1585.63 502.22,-1491.63 1134.22,-1491.63 1134.22,-1585.63"/>
<text text-anchor="start" x="514.22" y="-1567.43" font-family="Times,serif" font-weight="bold" font-size="14.00">host:</text>
<text text-anchor="start" x="673.22" y="-1566.43" font-family="Times,serif" font-size="14.00">$HOME/.local/share/docker/volumes/phaidra&#45;shib_fedora/_data</text>
<text text-anchor="start" x="514.22" y="-1545.43" font-family="Times,serif" font-size="14.00">fedora&#45;container:</text>
<text text-anchor="start" x="673.22" y="-1545.43" font-family="Times,serif" font-size="14.00">/usr/local/tomcat/fcrepo&#45;home</text>
<text text-anchor="start" x="514.22" y="-1524.43" font-family="Times,serif" font-size="14.00">pixelgecko&#45;container:</text>
<text text-anchor="start" x="673.22" y="-1524.43" font-family="Times,serif" font-size="14.00"> /mnt/fedora:ro</text>
<text text-anchor="start" x="514.22" y="-1503.43" font-family="Times,serif" font-size="14.00">api&#45;container:</text>
<text text-anchor="start" x="673.22" y="-1503.43" font-family="Times,serif" font-size="14.00"> /mnt/fedora:ro</text>
</g>
<!-- C_FEDORA -->
<g id="node21" class="node">
<title>C_FEDORA</title>
<g id="a_node21"><a xlink:href="https://fedora.lyrasis.org/" xlink:title="phaidra&#45;shib&#45;fedora&#45;1">
<polygon fill="none" stroke="green" points="1445.22,-191.63 1275.22,-191.63 1275.22,-187.63 1271.22,-187.63 1271.22,-183.63 1275.22,-183.63 1275.22,-163.63 1271.22,-163.63 1271.22,-159.63 1275.22,-159.63 1275.22,-155.63 1445.22,-155.63 1445.22,-191.63"/>
<polyline fill="none" stroke="green" points="1275.22,-187.63 1279.22,-187.63 1279.22,-183.63 1275.22,-183.63 "/>
<polyline fill="none" stroke="green" points="1275.22,-163.63 1279.22,-163.63 1279.22,-159.63 1275.22,-159.63 "/>
<text text-anchor="middle" x="1360.22" y="-169.93" font-family="Times,serif" font-size="14.00">phaidra&#45;shib&#45;fedora&#45;1</text>
</a>
</g>
</g>
<!-- HS_FEDORA&#45;&#45;C_FEDORA -->
<g id="edge1" class="edge">
<title>HS_FEDORA&#45;&#45;C_FEDORA</title>
<path fill="none" stroke="turquoise" d="M1134.44,-1537.72C1165.32,-1525.61 1193.41,-1507.9 1215.72,-1482.63 1262.12,-1430.06 1195.47,-278.04 1235.72,-220.63 1245.4,-206.82 1259.7,-197.07 1275.18,-190.18"/>
</g>
<!-- C_API -->
<g id="node22" class="node">
<title>C_API</title>
<g id="a_node22"><a xlink:href="https://github.com/phaidra/phaidra-api" xlink:title="phaidra&#45;shib&#45;api&#45;1">
<polygon fill="none" stroke="green" points="891.22,-360.63 745.22,-360.63 745.22,-356.63 741.22,-356.63 741.22,-352.63 745.22,-352.63 745.22,-332.63 741.22,-332.63 741.22,-328.63 745.22,-328.63 745.22,-324.63 891.22,-324.63 891.22,-360.63"/>
<polyline fill="none" stroke="green" points="745.22,-356.63 749.22,-356.63 749.22,-352.63 745.22,-352.63 "/>
<polyline fill="none" stroke="green" points="745.22,-332.63 749.22,-332.63 749.22,-328.63 745.22,-328.63 "/>
<text text-anchor="middle" x="818.22" y="-338.93" font-family="Times,serif" font-size="14.00">phaidra&#45;shib&#45;api&#45;1</text>
</a>
</g>
</g>
<!-- HS_FEDORA&#45;&#45;C_API -->
<g id="edge3" class="edge">
<title>HS_FEDORA&#45;&#45;C_API</title>
<path fill="none" stroke="turquoise" d="M501.98,-1553.12C462.01,-1538.93 428.79,-1514.2 410.72,-1473.63 398.35,-1445.84 398.35,-406.41 410.72,-378.63 465.98,-254.54 666.11,-295.77 763.81,-324.56"/>
</g>
<!-- C_PIXELGECKO -->
<g id="node29" class="node">
<title>C_PIXELGECKO</title>
<polygon fill="none" stroke="green" points="1737.22,-427.63 1537.22,-427.63 1537.22,-423.63 1533.22,-423.63 1533.22,-419.63 1537.22,-419.63 1537.22,-399.63 1533.22,-399.63 1533.22,-395.63 1537.22,-395.63 1537.22,-391.63 1737.22,-391.63 1737.22,-427.63"/>
<polyline fill="none" stroke="green" points="1537.22,-423.63 1541.22,-423.63 1541.22,-419.63 1537.22,-419.63 "/>
<polyline fill="none" stroke="green" points="1537.22,-399.63 1541.22,-399.63 1541.22,-395.63 1537.22,-395.63 "/>
<text text-anchor="middle" x="1637.22" y="-405.93" font-family="Times,serif" font-size="14.00">phaidra&#45;shib&#45;pixelgecko&#45;1</text>
</g>
<!-- HS_FEDORA&#45;&#45;C_PIXELGECKO -->
<g id="edge12" class="edge">
<title>HS_FEDORA&#45;&#45;C_PIXELGECKO</title>
<path fill="none" stroke="turquoise" d="M1134.24,-1526.39C1163.64,-1516.01 1191.45,-1501.81 1215.72,-1482.63 1580.69,-1194.19 1629.57,-544.62 1635.47,-427.8"/>
</g>
<!-- HS_API_LOGS -->
<g id="node3" class="node">
<title>HS_API_LOGS</title>
<polygon fill="none" stroke="turquoise" points="1113.22,-1817.63 1110.22,-1821.63 1089.22,-1821.63 1086.22,-1817.63 523.22,-1817.63 523.22,-1765.63 1113.22,-1765.63 1113.22,-1817.63"/>
<text text-anchor="start" x="535.22" y="-1799.43" font-family="Times,serif" font-weight="bold" font-size="14.00">host:</text>
<text text-anchor="start" x="640.22" y="-1798.43" font-family="Times,serif" font-size="14.00">$HOME/.local/share/docker/volumes/phaidra&#45;shib_api_logs/_data</text>
<text text-anchor="start" x="535.22" y="-1777.43" font-family="Times,serif" font-size="14.00">api&#45;container:</text>
<text text-anchor="start" x="640.22" y="-1777.43" font-family="Times,serif" font-size="14.00">/var/log/phaidra</text>
</g>
<!-- HS_API_LOGS&#45;&#45;C_API -->
<g id="edge2" class="edge">
<title>HS_API_LOGS&#45;&#45;C_API</title>
<path fill="none" stroke="turquoise" d="M523.21,-1794.89C467.27,-1787.94 422.41,-1773.87 410.72,-1747.63 402.99,-1730.26 402.99,-395.99 410.72,-378.63 465.98,-254.54 666.11,-295.77 763.81,-324.56"/>
</g>
<!-- HS_MARIADB_PHAIDRA -->
<g id="node4" class="node">
<title>HS_MARIADB_PHAIDRA</title>
<polygon fill="none" stroke="turquoise" points="1193.22,-1655.63 1190.22,-1659.63 1169.22,-1659.63 1166.22,-1655.63 443.22,-1655.63 443.22,-1603.63 1193.22,-1603.63 1193.22,-1655.63"/>
<text text-anchor="start" x="455.22" y="-1637.43" font-family="Times,serif" font-weight="bold" font-size="14.00">host:</text>
<text text-anchor="start" x="657.22" y="-1636.43" font-family="Times,serif" font-size="14.00">$HOME/.local/share/docker/volumes/phaidra&#45;shib_mariadb_phaidra/_data</text>
<text text-anchor="start" x="455.22" y="-1615.43" font-family="Times,serif" font-size="14.00">mariadb&#45;phaidra&#45;container:</text>
<text text-anchor="start" x="657.22" y="-1615.43" font-family="Times,serif" font-size="14.00">/var/lib/mysql</text>
</g>
<!-- C_MARIADB_PHAIDRA -->
<g id="node23" class="node">
<title>C_MARIADB_PHAIDRA</title>
<g id="a_node23"><a xlink:href="https://mariadb.org/" xlink:title="phaidra&#45;shib&#45;mariadb&#45;phaidra&#45;1">
<polygon fill="none" stroke="green" points="1481.22,-319.63 1239.22,-319.63 1239.22,-315.63 1235.22,-315.63 1235.22,-311.63 1239.22,-311.63 1239.22,-291.63 1235.22,-291.63 1235.22,-287.63 1239.22,-287.63 1239.22,-283.63 1481.22,-283.63 1481.22,-319.63"/>
<polyline fill="none" stroke="green" points="1239.22,-315.63 1243.22,-315.63 1243.22,-311.63 1239.22,-311.63 "/>
<polyline fill="none" stroke="green" points="1239.22,-291.63 1243.22,-291.63 1243.22,-287.63 1239.22,-287.63 "/>
<text text-anchor="middle" x="1360.22" y="-297.93" font-family="Times,serif" font-size="14.00">phaidra&#45;shib&#45;mariadb&#45;phaidra&#45;1</text>
</a>
</g>
</g>
<!-- HS_MARIADB_PHAIDRA&#45;&#45;C_MARIADB_PHAIDRA -->
<g id="edge6" class="edge">
<title>HS_MARIADB_PHAIDRA&#45;&#45;C_MARIADB_PHAIDRA</title>
<path fill="none" stroke="turquoise" d="M930.55,-1655.63C1021.13,-1669.49 1145.12,-1670.52 1215.72,-1594.63 1263.63,-1543.12 1191.18,-383.07 1235.72,-328.63 1238.36,-325.4 1241.29,-322.5 1244.45,-319.9"/>
</g>
<!-- HS_MONGODB_PHAIDRA -->
<g id="node5" class="node">
<title>HS_MONGODB_PHAIDRA</title>
<polygon fill="none" stroke="turquoise" points="1199.72,-1473.63 1196.72,-1477.63 1175.72,-1477.63 1172.72,-1473.63 436.72,-1473.63 436.72,-1421.63 1199.72,-1421.63 1199.72,-1473.63"/>
<text text-anchor="start" x="449.22" y="-1455.43" font-family="Times,serif" font-weight="bold" font-size="14.00">host:</text>
<text text-anchor="start" x="657.22" y="-1454.43" font-family="Times,serif" font-size="14.00">$HOME/.local/share/docker/volumes/phaidra&#45;shib_mongodb_phaidra/_data</text>
<text text-anchor="start" x="449.22" y="-1433.43" font-family="Times,serif" font-size="14.00">phaidra&#45;mongodb&#45;container:</text>
<text text-anchor="start" x="657.22" y="-1433.43" font-family="Times,serif" font-size="14.00">/data/db</text>
</g>
<!-- C_MONGODB_PHAIDRA -->
<g id="node24" class="node">
<title>C_MONGODB_PHAIDRA</title>
<g id="a_node24"><a xlink:href="https://www.mongodb.com/" xlink:title="phaidra&#45;shib&#45;mongodb&#45;phaidra&#45;1">
<polygon fill="none" stroke="green" points="1484.72,-265.63 1235.72,-265.63 1235.72,-261.63 1231.72,-261.63 1231.72,-257.63 1235.72,-257.63 1235.72,-237.63 1231.72,-237.63 1231.72,-233.63 1235.72,-233.63 1235.72,-229.63 1484.72,-229.63 1484.72,-265.63"/>
<polyline fill="none" stroke="green" points="1235.72,-261.63 1239.72,-261.63 1239.72,-257.63 1235.72,-257.63 "/>
<polyline fill="none" stroke="green" points="1235.72,-237.63 1239.72,-237.63 1239.72,-233.63 1235.72,-233.63 "/>
<text text-anchor="middle" x="1360.22" y="-243.93" font-family="Times,serif" font-size="14.00">phaidra&#45;shib&#45;mongodb&#45;phaidra&#45;1</text>
</a>
</g>
</g>
<!-- HS_MONGODB_PHAIDRA&#45;&#45;C_MONGODB_PHAIDRA -->
<g id="edge7" class="edge">
<title>HS_MONGODB_PHAIDRA&#45;&#45;C_MONGODB_PHAIDRA</title>
<path fill="none" stroke="turquoise" d="M930.97,-1473.67C1021.49,-1487.44 1145.17,-1488.33 1215.72,-1412.63 1258.83,-1366.37 1195.64,-323.53 1235.72,-274.63 1238.37,-271.4 1241.3,-268.5 1244.46,-265.91"/>
</g>
<!-- HS_OPENLDAP -->
<g id="node6" class="node">
<title>HS_OPENLDAP</title>
<polygon fill="none" stroke="turquoise" points="1138.72,-1263.63 1135.72,-1267.63 1114.72,-1267.63 1111.72,-1263.63 497.72,-1263.63 497.72,-1211.63 1138.72,-1211.63 1138.72,-1263.63"/>
<text text-anchor="start" x="510.22" y="-1245.43" font-family="Times,serif" font-weight="bold" font-size="14.00">host:</text>
<text text-anchor="start" x="658.22" y="-1244.43" font-family="Times,serif" font-size="14.00">$HOME/.local/share/docker/volumes/phaidra&#45;shib_openldap/_data</text>
<text text-anchor="start" x="510.22" y="-1223.43" font-family="Times,serif" font-size="14.00">openldap&#45;container:</text>
<text text-anchor="start" x="658.22" y="-1223.43" font-family="Times,serif" font-size="14.00">/bitnami/openldap</text>
</g>
<!-- C_OPENLDAP -->
<g id="node26" class="node">
<title>C_OPENLDAP</title>
<g id="a_node26"><a xlink:href="https://www.openldap.org/" xlink:title="phaidra&#45;shib&#45;openldap&#45;1">
<polygon fill="none" stroke="green" points="1454.72,-373.63 1265.72,-373.63 1265.72,-369.63 1261.72,-369.63 1261.72,-365.63 1265.72,-365.63 1265.72,-345.63 1261.72,-345.63 1261.72,-341.63 1265.72,-341.63 1265.72,-337.63 1454.72,-337.63 1454.72,-373.63"/>
<polyline fill="none" stroke="green" points="1265.72,-369.63 1269.72,-369.63 1269.72,-365.63 1265.72,-365.63 "/>
<polyline fill="none" stroke="green" points="1265.72,-345.63 1269.72,-345.63 1269.72,-341.63 1265.72,-341.63 "/>
<text text-anchor="middle" x="1360.22" y="-351.93" font-family="Times,serif" font-size="14.00">phaidra&#45;shib&#45;openldap&#45;1</text>
</a>
</g>
</g>
<!-- HS_OPENLDAP&#45;&#45;C_OPENLDAP -->
<g id="edge8" class="edge">
<title>HS_OPENLDAP&#45;&#45;C_OPENLDAP</title>
<path fill="none" stroke="turquoise" d="M938.74,-1263.65C1028.44,-1275.46 1147.15,-1273.25 1215.72,-1199.63 1246.67,-1166.4 1206.82,-417.64 1235.72,-382.63 1243.62,-373.06 1254.04,-366.4 1265.49,-361.84"/>
</g>
<!-- HS_SOLR -->
<g id="node7" class="node">
<title>HS_SOLR</title>
<polygon fill="none" stroke="turquoise" points="1100.22,-1403.63 1097.22,-1407.63 1076.22,-1407.63 1073.22,-1403.63 536.22,-1403.63 536.22,-1351.63 1100.22,-1351.63 1100.22,-1403.63"/>
<text text-anchor="start" x="548.22" y="-1385.43" font-family="Times,serif" font-weight="bold" font-size="14.00">host:</text>
<text text-anchor="start" x="658.22" y="-1384.43" font-family="Times,serif" font-size="14.00">$HOME/.local/share/docker/volumes/phaidra&#45;shib_solr/_data</text>
<text text-anchor="start" x="548.22" y="-1363.43" font-family="Times,serif" font-size="14.00">solr&#45;container:</text>
<text text-anchor="start" x="658.22" y="-1363.43" font-family="Times,serif" font-size="14.00">/var/solr</text>
</g>
<!-- C_SOLR -->
<g id="node27" class="node">
<title>C_SOLR</title>
<g id="a_node27"><a xlink:href="https://solr.apache.org/" xlink:title="phaidra&#45;shib&#45;solr&#45;1">
<polygon fill="none" stroke="green" points="1435.72,-137.63 1284.72,-137.63 1284.72,-133.63 1280.72,-133.63 1280.72,-129.63 1284.72,-129.63 1284.72,-109.63 1280.72,-109.63 1280.72,-105.63 1284.72,-105.63 1284.72,-101.63 1435.72,-101.63 1435.72,-137.63"/>
<polyline fill="none" stroke="green" points="1284.72,-133.63 1288.72,-133.63 1288.72,-129.63 1284.72,-129.63 "/>
<polyline fill="none" stroke="green" points="1284.72,-109.63 1288.72,-109.63 1288.72,-105.63 1284.72,-105.63 "/>
<text text-anchor="middle" x="1360.22" y="-115.93" font-family="Times,serif" font-size="14.00">phaidra&#45;shib&#45;solr&#45;1</text>
</a>
</g>
</g>
<!-- HS_SOLR&#45;&#45;C_SOLR -->
<g id="edge10" class="edge">
<title>HS_SOLR&#45;&#45;C_SOLR</title>
<path fill="none" stroke="turquoise" d="M930.99,-1403.68C1021.51,-1417.47 1145.2,-1418.36 1215.72,-1342.63 1261.01,-1293.99 1193.62,-198.04 1235.72,-146.63 1247.82,-131.85 1265.96,-124 1284.63,-120.07"/>
</g>
<!-- HS_PIXELGECKO -->
<g id="node8" class="node">
<title>HS_PIXELGECKO</title>
<polygon fill="none" stroke="turquoise" points="1155.72,-1747.13 1152.72,-1751.13 1131.72,-1751.13 1128.72,-1747.13 480.72,-1747.13 480.72,-1674.13 1155.72,-1674.13 1155.72,-1747.13"/>
<text text-anchor="start" x="493.22" y="-1728.43" font-family="Times,serif" font-weight="bold" font-size="14.00">host:</text>
<text text-anchor="start" x="665.22" y="-1727.43" font-family="Times,serif" font-size="14.00">$HOME/.local/share/docker/volumes/phaidra&#45;shib_pixelgecko/_data</text>
<text text-anchor="start" x="493.22" y="-1706.43" font-family="Times,serif" font-size="14.00">pixelgecko&#45;container:</text>
<text text-anchor="start" x="665.22" y="-1706.43" font-family="Times,serif" font-size="14.00">/mnt/converted_images</text>
<text text-anchor="start" x="493.22" y="-1685.43" font-family="Times,serif" font-size="14.00">imageserver&#45;container:</text>
<text text-anchor="start" x="665.22" y="-1685.43" font-family="Times,serif" font-size="14.00">/mnt/converted_images:ro</text>
</g>
<!-- C_IMAGESERVER -->
<g id="node28" class="node">
<title>C_IMAGESERVER</title>
<g id="a_node28"><a xlink:href="https://github.com/ruven/iipsrv" xlink:title="phaidra&#45;shib&#45;imageserver&#45;1">
<polygon fill="none" stroke="green" points="1466.72,-427.63 1253.72,-427.63 1253.72,-423.63 1249.72,-423.63 1249.72,-419.63 1253.72,-419.63 1253.72,-399.63 1249.72,-399.63 1249.72,-395.63 1253.72,-395.63 1253.72,-391.63 1466.72,-391.63 1466.72,-427.63"/>
<polyline fill="none" stroke="green" points="1253.72,-423.63 1257.72,-423.63 1257.72,-419.63 1253.72,-419.63 "/>
<polyline fill="none" stroke="green" points="1253.72,-399.63 1257.72,-399.63 1257.72,-395.63 1253.72,-395.63 "/>
<text text-anchor="middle" x="1360.22" y="-405.93" font-family="Times,serif" font-size="14.00">phaidra&#45;shib&#45;imageserver&#45;1</text>
</a>
</g>
</g>
<!-- HS_PIXELGECKO&#45;&#45;C_IMAGESERVER -->
<g id="edge11" class="edge">
<title>HS_PIXELGECKO&#45;&#45;C_IMAGESERVER</title>
<path fill="none" stroke="turquoise" d="M1155.9,-1707.42C1178.09,-1696.84 1198.43,-1682.85 1215.72,-1664.63 1240.09,-1638.94 1232.3,-1381.86 1235.72,-1346.63 1271.89,-974.69 1341.45,-522.93 1356.36,-427.75"/>
</g>
<!-- HS_PIXELGECKO&#45;&#45;C_PIXELGECKO -->
<g id="edge13" class="edge">
<title>HS_PIXELGECKO&#45;&#45;C_PIXELGECKO</title>
<path fill="none" stroke="turquoise" d="M1155.76,-1692.04C1176.7,-1684.7 1196.9,-1675.67 1215.72,-1664.63 1391.99,-1561.17 1405.61,-1480.08 1484.72,-1291.63 1621.54,-965.72 1634.83,-522.51 1636.09,-427.87"/>
</g>
<!-- HS_DBGATE -->
<g id="node9" class="node">
<title>HS_DBGATE</title>
<polygon fill="none" stroke="turquoise" points="1123.22,-1333.63 1120.22,-1337.63 1099.22,-1337.63 1096.22,-1333.63 513.22,-1333.63 513.22,-1281.63 1123.22,-1281.63 1123.22,-1333.63"/>
<text text-anchor="start" x="525.22" y="-1315.43" font-family="Times,serif" font-weight="bold" font-size="14.00">host:</text>
<text text-anchor="start" x="658.22" y="-1314.43" font-family="Times,serif" font-size="14.00">$HOME/.local/share/docker/volumes/phaidra&#45;shib_dbgate/_data</text>
<text text-anchor="start" x="525.22" y="-1293.43" font-family="Times,serif" font-size="14.00">dbgate&#45;container:</text>
<text text-anchor="start" x="658.22" y="-1293.43" font-family="Times,serif" font-size="14.00">/root/.dbgate</text>
</g>
<!-- C_DBGATE -->
<g id="node30" class="node">
<title>C_DBGATE</title>
<polygon fill="none" stroke="green" points="904.72,-414.63 731.72,-414.63 731.72,-410.63 727.72,-410.63 727.72,-406.63 731.72,-406.63 731.72,-386.63 727.72,-386.63 727.72,-382.63 731.72,-382.63 731.72,-378.63 904.72,-378.63 904.72,-414.63"/>
<polyline fill="none" stroke="green" points="731.72,-410.63 735.72,-410.63 735.72,-406.63 731.72,-406.63 "/>
<polyline fill="none" stroke="green" points="731.72,-386.63 735.72,-386.63 735.72,-382.63 731.72,-382.63 "/>
<text text-anchor="middle" x="818.22" y="-392.93" font-family="Times,serif" font-size="14.00">phaidra&#45;shib&#45;dbgate&#45;1</text>
</g>
<!-- HS_DBGATE&#45;&#45;C_DBGATE -->
<g id="edge14" class="edge">
<title>HS_DBGATE&#45;&#45;C_DBGATE</title>
<path fill="none" stroke="turquoise" d="M513.21,-1309.56C461.97,-1302.19 421.7,-1288.29 410.72,-1263.63 401.86,-1243.73 401.86,-499.52 410.72,-479.63 461.24,-366.18 627.83,-367.71 731.71,-380.93"/>
</g>
<!-- HS_MARIADB_FEDORA -->
<g id="node10" class="node">
<title>HS_MARIADB_FEDORA</title>
<polygon fill="none" stroke="turquoise" points="1184.22,-1887.63 1181.22,-1891.63 1160.22,-1891.63 1157.22,-1887.63 452.22,-1887.63 452.22,-1835.63 1184.22,-1835.63 1184.22,-1887.63"/>
<text text-anchor="start" x="464.22" y="-1869.43" font-family="Times,serif" font-weight="bold" font-size="14.00">host:</text>
<text text-anchor="start" x="657.22" y="-1868.43" font-family="Times,serif" font-size="14.00">$HOME/.local/share/docker/volumes/phaidra&#45;shib_mariadb_fedora/_data</text>
<text text-anchor="start" x="464.22" y="-1847.43" font-family="Times,serif" font-size="14.00">mariadb&#45;fedora&#45;container:</text>
<text text-anchor="start" x="657.22" y="-1847.43" font-family="Times,serif" font-size="14.00">/var/lib/mysql</text>
</g>
<!-- C_MARIADB_FEDORA -->
<g id="node32" class="node">
<title>C_MARIADB_FEDORA</title>
<g id="a_node32"><a xlink:href="https://mariadb.org/" xlink:title="phaidra&#45;shib&#45;mariadb&#45;fedora&#45;1">
<polygon fill="none" stroke="green" points="1753.72,-228.63 1520.72,-228.63 1520.72,-224.63 1516.72,-224.63 1516.72,-220.63 1520.72,-220.63 1520.72,-200.63 1516.72,-200.63 1516.72,-196.63 1520.72,-196.63 1520.72,-192.63 1753.72,-192.63 1753.72,-228.63"/>
<polyline fill="none" stroke="green" points="1520.72,-224.63 1524.72,-224.63 1524.72,-220.63 1520.72,-220.63 "/>
<polyline fill="none" stroke="green" points="1520.72,-200.63 1524.72,-200.63 1524.72,-196.63 1520.72,-196.63 "/>
<text text-anchor="middle" x="1637.22" y="-206.93" font-family="Times,serif" font-size="14.00">phaidra&#45;shib&#45;mariadb&#45;fedora&#45;1</text>
</a>
</g>
</g>
<!-- HS_MARIADB_FEDORA&#45;&#45;C_MARIADB_FEDORA -->
<g id="edge15" class="edge">
<title>HS_MARIADB_FEDORA&#45;&#45;C_MARIADB_FEDORA</title>
<path fill="none" stroke="turquoise" d="M961.57,-1887.66C1045.35,-1894.47 1147.85,-1886.79 1215.72,-1826.63 1706.54,-1391.48 1265.44,-986.85 1520.72,-382.63 1546.62,-321.33 1595.41,-258.8 1620.47,-228.83"/>
</g>
<!-- BIND_MARIADB_PHAIDRA_INIT -->
<g id="node11" class="node">
<title>BIND_MARIADB_PHAIDRA_INIT</title>
<polygon fill="none" stroke="blue" points="1133.22,-1094.63 1130.22,-1098.63 1109.22,-1098.63 1106.22,-1094.63 503.22,-1094.63 503.22,-1042.63 1133.22,-1042.63 1133.22,-1094.63"/>
<text text-anchor="start" x="515.22" y="-1076.43" font-family="Times,serif" font-weight="bold" font-size="14.00">host:</text>
<text text-anchor="start" x="717.22" y="-1075.43" font-family="Times,serif" font-size="14.00">$REPO/container_components/mariadb/phaidradb.sql.gz</text>
<text text-anchor="start" x="515.22" y="-1054.43" font-family="Times,serif" font-size="14.00">mariadb&#45;phaidra&#45;container:</text>
<text text-anchor="start" x="717.22" y="-1054.43" font-family="Times,serif" font-size="14.00">/docker&#45;entrypoint&#45;initdb.d/phaidradb.sql.gz:ro</text>
</g>
<!-- BIND_MARIADB_PHAIDRA_INIT&#45;&#45;C_MARIADB_PHAIDRA -->
<g id="edge5" class="edge">
<title>BIND_MARIADB_PHAIDRA_INIT&#45;&#45;C_MARIADB_PHAIDRA</title>
<path fill="none" stroke="blue" d="M932.12,-1094.67C1022.38,-1108.13 1145.12,-1108.57 1215.72,-1033.63 1269.46,-976.58 1185.72,-388.97 1235.72,-328.63 1238.38,-325.41 1241.33,-322.53 1244.5,-319.95"/>
</g>
<!-- BIND_OPENLDAP_INIT -->
<g id="node12" class="node">
<title>BIND_OPENLDAP_INIT</title>
<polygon fill="none" stroke="blue" points="1047.22,-1164.63 1044.22,-1168.63 1023.22,-1168.63 1020.22,-1164.63 589.22,-1164.63 589.22,-1112.63 1047.22,-1112.63 1047.22,-1164.63"/>
<text text-anchor="start" x="601.22" y="-1146.43" font-family="Times,serif" font-weight="bold" font-size="14.00">host:</text>
<text text-anchor="start" x="749.22" y="-1145.43" font-family="Times,serif" font-size="14.00">$REPO/container_components/openldap</text>
<text text-anchor="start" x="601.22" y="-1124.43" font-family="Times,serif" font-size="14.00">openldap&#45;container:</text>
<text text-anchor="start" x="749.22" y="-1124.43" font-family="Times,serif" font-size="14.00">/ldifs:ro</text>
</g>
<!-- BIND_OPENLDAP_INIT&#45;&#45;C_OPENLDAP -->
<g id="edge9" class="edge">
<title>BIND_OPENLDAP_INIT&#45;&#45;C_OPENLDAP</title>
<path fill="none" stroke="blue" d="M932.13,-1164.68C1022.4,-1178.15 1145.14,-1178.6 1215.72,-1103.63 1270.66,-1045.27 1184.61,-444.35 1235.72,-382.63 1243.63,-373.07 1254.06,-366.42 1265.52,-361.86"/>
</g>
<!-- BIND_HTTPD_CONFIG -->
<g id="node13" class="node">
<title>BIND_HTTPD_CONFIG</title>
<polygon fill="none" stroke="blue" points="1059.72,-744.63 1056.72,-748.63 1035.72,-748.63 1032.72,-744.63 576.72,-744.63 576.72,-692.63 1059.72,-692.63 1059.72,-744.63"/>
<text text-anchor="start" x="589.22" y="-726.43" font-family="Times,serif" font-weight="bold" font-size="14.00">host:</text>
<text text-anchor="start" x="711.22" y="-725.43" font-family="Times,serif" font-size="14.00">$REPO/webserver_configs/phaidra&#45;shib.conf:ro</text>
<text text-anchor="start" x="589.22" y="-704.43" font-family="Times,serif" font-size="14.00">httpd&#45;container:</text>
<text text-anchor="start" x="711.22" y="-704.43" font-family="Times,serif" font-size="14.00">/usr/local/apache2/conf/httpd.conf:ro</text>
</g>
<!-- BIND_HTTPD_CERT -->
<g id="node14" class="node">
<title>BIND_HTTPD_CERT</title>
<polygon fill="none" stroke="blue" points="1047.72,-674.63 1044.72,-678.63 1023.72,-678.63 1020.72,-674.63 588.72,-674.63 588.72,-622.63 1047.72,-622.63 1047.72,-674.63"/>
<text text-anchor="start" x="601.22" y="-656.43" font-family="Times,serif" font-weight="bold" font-size="14.00">host:</text>
<text text-anchor="start" x="723.22" y="-655.43" font-family="Times,serif" font-size="14.00">$REPO/encryption/webserver/fullchain.pem</text>
<text text-anchor="start" x="601.22" y="-634.43" font-family="Times,serif" font-size="14.00">httpd&#45;container:</text>
<text text-anchor="start" x="723.22" y="-634.43" font-family="Times,serif" font-size="14.00">/usr/local/apache2/conf/server.crt:ro</text>
</g>
<!-- BIND_HTTPD_KEY -->
<g id="node15" class="node">
<title>BIND_HTTPD_KEY</title>
<polygon fill="none" stroke="blue" points="1042.72,-604.63 1039.72,-608.63 1018.72,-608.63 1015.72,-604.63 593.72,-604.63 593.72,-552.63 1042.72,-552.63 1042.72,-604.63"/>
<text text-anchor="start" x="606.22" y="-586.43" font-family="Times,serif" font-weight="bold" font-size="14.00">host:</text>
<text text-anchor="start" x="728.22" y="-585.43" font-family="Times,serif" font-size="14.00">$REPO/encryption/webserver/privkey.pem</text>
<text text-anchor="start" x="606.22" y="-564.43" font-family="Times,serif" font-size="14.00">httpd&#45;container:</text>
<text text-anchor="start" x="728.22" y="-564.43" font-family="Times,serif" font-size="14.00">/usr/local/apache2/conf/server.key:ro</text>
</g>
<!-- BIND_SHIB_ENCRYPTION_KEY -->
<g id="node16" class="node">
<title>BIND_SHIB_ENCRYPTION_KEY</title>
<polygon fill="none" stroke="blue" points="1068.72,-1024.63 1065.72,-1028.63 1044.72,-1028.63 1041.72,-1024.63 567.72,-1024.63 567.72,-972.63 1068.72,-972.63 1068.72,-1024.63"/>
<text text-anchor="start" x="580.22" y="-1006.43" font-family="Times,serif" font-weight="bold" font-size="14.00">host:</text>
<text text-anchor="start" x="702.22" y="-1005.43" font-family="Times,serif" font-size="14.00">$REPO/encryption/shibboleth/sp&#45;encrypt&#45;key.pem</text>
<text text-anchor="start" x="580.22" y="-984.43" font-family="Times,serif" font-size="14.00">httpd&#45;container:</text>
<text text-anchor="start" x="702.22" y="-984.43" font-family="Times,serif" font-size="14.00">/etc/shibboleth/sp&#45;encrypt&#45;key.pem:ro</text>
</g>
<!-- BIND_SHIB_ENCRYPTION_CERT -->
<g id="node17" class="node">
<title>BIND_SHIB_ENCRYPTION_CERT</title>
<polygon fill="none" stroke="blue" points="1071.72,-954.63 1068.72,-958.63 1047.72,-958.63 1044.72,-954.63 564.72,-954.63 564.72,-902.63 1071.72,-902.63 1071.72,-954.63"/>
<text text-anchor="start" x="577.22" y="-936.43" font-family="Times,serif" font-weight="bold" font-size="14.00">host:</text>
<text text-anchor="start" x="699.22" y="-935.43" font-family="Times,serif" font-size="14.00">$REPO/encryption/shibboleth/sp&#45;encrypt&#45;cert.pem</text>
<text text-anchor="start" x="577.22" y="-914.43" font-family="Times,serif" font-size="14.00">httpd&#45;container:</text>
<text text-anchor="start" x="699.22" y="-914.43" font-family="Times,serif" font-size="14.00">/etc/shibboleth/sp&#45;encrypt&#45;cert.pem:ro</text>
</g>
<!-- BIND_SHIB_SIGNING_KEY -->
<g id="node18" class="node">
<title>BIND_SHIB_SIGNING_KEY</title>
<polygon fill="none" stroke="blue" points="1067.22,-884.63 1064.22,-888.63 1043.22,-888.63 1040.22,-884.63 569.22,-884.63 569.22,-832.63 1067.22,-832.63 1067.22,-884.63"/>
<text text-anchor="start" x="581.22" y="-866.43" font-family="Times,serif" font-weight="bold" font-size="14.00">host:</text>
<text text-anchor="start" x="703.22" y="-865.43" font-family="Times,serif" font-size="14.00">$REPO/encryption/shibboleth/sp&#45;signing&#45;key.pem</text>
<text text-anchor="start" x="581.22" y="-844.43" font-family="Times,serif" font-size="14.00">httpd&#45;container:</text>
<text text-anchor="start" x="703.22" y="-844.43" font-family="Times,serif" font-size="14.00">/etc/shibboleth/sp&#45;signing&#45;key.pem:ro</text>
</g>
<!-- BIND_SHIB_SIGNING_CERT -->
<g id="node19" class="node">
<title>BIND_SHIB_SIGNING_CERT</title>
<polygon fill="none" stroke="blue" points="1070.22,-814.63 1067.22,-818.63 1046.22,-818.63 1043.22,-814.63 566.22,-814.63 566.22,-762.63 1070.22,-762.63 1070.22,-814.63"/>
<text text-anchor="start" x="578.22" y="-796.43" font-family="Times,serif" font-weight="bold" font-size="14.00">host:</text>
<text text-anchor="start" x="700.22" y="-795.43" font-family="Times,serif" font-size="14.00">$REPO/encryption/shibboleth/sp&#45;signing&#45;cert.pem</text>
<text text-anchor="start" x="578.22" y="-774.43" font-family="Times,serif" font-size="14.00">httpd&#45;container:</text>
<text text-anchor="start" x="700.22" y="-774.43" font-family="Times,serif" font-size="14.00">/etc/shibboleth/sp&#45;signing&#45;cert.pem:ro</text>
</g>
<!-- BIND_API_CODE -->
<g id="node20" class="node">
<title>BIND_API_CODE</title>
<polygon fill="none" stroke="blue" points="997.72,-534.63 994.72,-538.63 973.72,-538.63 970.72,-534.63 638.72,-534.63 638.72,-482.63 997.72,-482.63 997.72,-534.63"/>
<text text-anchor="start" x="651.22" y="-516.43" font-family="Times,serif" font-weight="bold" font-size="14.00">host:</text>
<text text-anchor="start" x="756.22" y="-515.43" font-family="Times,serif" font-size="14.00">$REPO/components/phaidra&#45;api</text>
<text text-anchor="start" x="651.22" y="-494.43" font-family="Times,serif" font-size="14.00">api&#45;container:</text>
<text text-anchor="start" x="756.22" y="-494.43" font-family="Times,serif" font-size="14.00">/usr/local/phaidra/phaidra&#45;api:ro</text>
</g>
<!-- BIND_API_CODE&#45;&#45;C_API -->
<g id="edge4" class="edge">
<title>BIND_API_CODE&#45;&#45;C_API</title>
<path fill="none" stroke="blue" d="M638.36,-510.99C567.9,-506.08 488,-492.99 420.72,-462.63 415.27,-460.17 413.15,-459.09 410.72,-453.63 403.94,-438.4 403.94,-393.85 410.72,-378.63 465.98,-254.54 666.11,-295.77 763.81,-324.56"/>
</g>
<!-- C_FEDORA&#45;&#45;C_MARIADB_FEDORA -->
<g id="edge23" class="edge">
<title>C_FEDORA&#45;&#45;C_MARIADB_FEDORA</title>
<path fill="none" stroke="orange" d="M1445.23,-184.93C1469,-188.13 1495.3,-191.66 1520.58,-195.07"/>
</g>
<!-- C_API&#45;&#45;C_FEDORA -->
<g id="edge24" class="edge">
<title>C_API&#45;&#45;C_FEDORA</title>
<path fill="none" stroke="orange" d="M891.33,-353.71C979.26,-362.87 1127.08,-363.55 1215.72,-283.63 1242.3,-259.66 1210.45,-230.96 1235.72,-205.63 1246.51,-194.8 1260.46,-187.49 1275.08,-182.58"/>
</g>
<!-- C_API&#45;&#45;C_MARIADB_PHAIDRA -->
<g id="edge25" class="edge">
<title>C_API&#45;&#45;C_MARIADB_PHAIDRA</title>
<path fill="none" stroke="orange" d="M891.49,-337.14C980.36,-330.39 1132.52,-318.84 1239.08,-310.75"/>
</g>
<!-- C_API&#45;&#45;C_MONGODB_PHAIDRA -->
<g id="edge26" class="edge">
<title>C_API&#45;&#45;C_MONGODB_PHAIDRA</title>
<path fill="none" stroke="orange" d="M891.41,-337.87C971.86,-331.2 1105.2,-316.04 1215.72,-283.63 1225.08,-280.88 1226.47,-277.68 1235.72,-274.63 1245.62,-271.36 1256.1,-268.37 1266.6,-265.67"/>
</g>
<!-- C_UI -->
<g id="node25" class="node">
<title>C_UI</title>
<g id="a_node25"><a xlink:href="https://github.com/phaidra/phaidra-ui" xlink:title="phaidra&#45;shib&#45;ui&#45;1">
<polygon fill="none" stroke="green" points="1428.72,-83.63 1291.72,-83.63 1291.72,-79.63 1287.72,-79.63 1287.72,-75.63 1291.72,-75.63 1291.72,-55.63 1287.72,-55.63 1287.72,-51.63 1291.72,-51.63 1291.72,-47.63 1428.72,-47.63 1428.72,-83.63"/>
<polyline fill="none" stroke="green" points="1291.72,-79.63 1295.72,-79.63 1295.72,-75.63 1291.72,-75.63 "/>
<polyline fill="none" stroke="green" points="1291.72,-55.63 1295.72,-55.63 1295.72,-51.63 1291.72,-51.63 "/>
<text text-anchor="middle" x="1360.22" y="-61.93" font-family="Times,serif" font-size="14.00">phaidra&#45;shib&#45;ui&#45;1</text>
</a>
</g>
</g>
<!-- C_API&#45;&#45;C_UI -->
<g id="edge27" class="edge">
<title>C_API&#45;&#45;C_UI</title>
<path fill="none" stroke="orange" d="M843.09,-324.41C904.62,-278.36 1075.03,-156.42 1235.72,-92.63 1253.37,-85.62 1273.19,-80.27 1291.7,-76.25"/>
</g>
<!-- C_API&#45;&#45;C_OPENLDAP -->
<g id="edge28" class="edge">
<title>C_API&#45;&#45;C_OPENLDAP</title>
<path fill="none" stroke="orange" d="M891.49,-344.36C988.05,-346.69 1159.31,-350.81 1265.64,-353.37"/>
</g>
<!-- C_API&#45;&#45;C_SOLR -->
<g id="edge29" class="edge">
<title>C_API&#45;&#45;C_SOLR</title>
<path fill="none" stroke="orange" d="M891.43,-338.04C979.8,-328.57 1128.43,-299.55 1215.72,-210.63 1236.6,-189.36 1213.75,-166.75 1235.72,-146.63 1249.15,-134.32 1266.86,-127.16 1284.65,-123.09"/>
</g>
<!-- C_API&#45;&#45;C_IMAGESERVER -->
<g id="edge30" class="edge">
<title>C_API&#45;&#45;C_IMAGESERVER</title>
<path fill="none" stroke="orange" d="M891.5,-336.84C972.62,-332.77 1107.08,-333.36 1215.72,-369.63 1225.78,-372.98 1225.94,-378.54 1235.72,-382.63 1243.72,-385.97 1252.19,-388.92 1260.8,-391.53"/>
</g>
<!-- C_MONGODB_PHAIDRA&#45;&#45;C_PIXELGECKO -->
<g id="edge31" class="edge">
<title>C_MONGODB_PHAIDRA&#45;&#45;C_PIXELGECKO</title>
<path fill="none" stroke="orange" d="M1463.77,-265.68C1471.01,-268.27 1478.07,-271.24 1484.72,-274.63 1543.1,-304.39 1596.62,-362.17 1621.53,-391.54"/>
</g>
<!-- C_LAM -->
<g id="node31" class="node">
<title>C_LAM</title>
<polygon fill="none" stroke="green" points="1712.22,-119.63 1562.22,-119.63 1562.22,-115.63 1558.22,-115.63 1558.22,-111.63 1562.22,-111.63 1562.22,-91.63 1558.22,-91.63 1558.22,-87.63 1562.22,-87.63 1562.22,-83.63 1712.22,-83.63 1712.22,-119.63"/>
<polyline fill="none" stroke="green" points="1562.22,-115.63 1566.22,-115.63 1566.22,-111.63 1562.22,-111.63 "/>
<polyline fill="none" stroke="green" points="1562.22,-91.63 1566.22,-91.63 1566.22,-87.63 1562.22,-87.63 "/>
<text text-anchor="middle" x="1637.22" y="-97.93" font-family="Times,serif" font-size="14.00">phaidra&#45;shib&#45;lam&#45;1</text>
</g>
<!-- C_OPENLDAP&#45;&#45;C_LAM -->
<g id="edge32" class="edge">
<title>C_OPENLDAP&#45;&#45;C_LAM</title>
<path fill="none" stroke="orange" d="M1454.99,-347.03C1466.01,-342.75 1476.3,-336.81 1484.72,-328.63 1532.33,-282.34 1483.32,-238.49 1520.72,-183.63 1539.98,-155.38 1572.37,-133.63 1597.96,-119.65"/>
</g>
<!-- C_DBGATE&#45;&#45;C_MARIADB_PHAIDRA -->
<g id="edge33" class="edge">
<title>C_DBGATE&#45;&#45;C_MARIADB_PHAIDRA</title>
<path fill="none" stroke="orange" d="M904.83,-413.92C990.92,-426.36 1123.71,-431.56 1215.72,-369.63 1232.54,-358.3 1219.78,-341.15 1235.72,-328.63 1239.95,-325.3 1244.5,-322.37 1249.27,-319.78"/>
</g>
<!-- C_DBGATE&#45;&#45;C_MONGODB_PHAIDRA -->
<g id="edge34" class="edge">
<title>C_DBGATE&#45;&#45;C_MONGODB_PHAIDRA</title>
<path fill="none" stroke="orange" d="M888.83,-414.65C976.24,-432.74 1125.64,-447.94 1215.72,-369.63 1248.28,-341.32 1205.33,-305.25 1235.72,-274.63 1239.05,-271.28 1242.68,-268.3 1246.56,-265.65"/>
</g>
<!-- C_DBGATE&#45;&#45;C_MARIADB_FEDORA -->
<g id="edge35" class="edge">
<title>C_DBGATE&#45;&#45;C_MARIADB_FEDORA</title>
<path fill="none" stroke="orange" d="M885.22,-414.68C972.92,-434.27 1127.09,-452.64 1215.72,-369.63 1264.49,-323.95 1185.98,-265.24 1235.72,-220.63 1256.58,-201.92 1409.83,-202.8 1520.56,-206.02"/>
</g>
<!-- WEBSERVER&#45;&#45;BIND_HTTPD_CONFIG -->
<g id="edge16" class="edge">
<title>WEBSERVER&#45;&#45;BIND_HTTPD_CONFIG</title>
<path fill="none" stroke="blue" d="M320.66,-427.79C322.93,-478.03 336.85,-619.39 420.72,-683.63 465.02,-717.56 520.82,-733.57 576.47,-739.58"/>
</g>
<!-- WEBSERVER&#45;&#45;BIND_HTTPD_CERT -->
<g id="edge17" class="edge">
<title>WEBSERVER&#45;&#45;BIND_HTTPD_CERT</title>
<path fill="none" stroke="blue" d="M323.14,-427.92C330.76,-469.09 355.41,-568.89 420.72,-613.63 469.4,-646.96 529.7,-661.96 588.47,-667.14"/>
</g>
<!-- WEBSERVER&#45;&#45;BIND_HTTPD_KEY -->
<g id="edge18" class="edge">
<title>WEBSERVER&#45;&#45;BIND_HTTPD_KEY</title>
<path fill="none" stroke="blue" d="M327.83,-427.82C341.48,-457.87 373.2,-517.19 420.72,-543.63 472.66,-572.52 534.44,-585.95 593.6,-591.04"/>
</g>
<!-- WEBSERVER&#45;&#45;BIND_SHIB_ENCRYPTION_KEY -->
<g id="edge19" class="edge">
<title>WEBSERVER&#45;&#45;BIND_SHIB_ENCRYPTION_KEY</title>
<path fill="none" stroke="blue" d="M320.69,-427.89C323.31,-515.24 339.22,-889.25 420.72,-963.63 489.76,-1026.63 596.52,-1032.83 681.88,-1024.66"/>
</g>
<!-- WEBSERVER&#45;&#45;BIND_SHIB_ENCRYPTION_CERT -->
<g id="edge20" class="edge">
<title>WEBSERVER&#45;&#45;BIND_SHIB_ENCRYPTION_CERT</title>
<path fill="none" stroke="blue" d="M321.19,-427.69C325.87,-507.81 348.99,-829.81 420.72,-893.63 488.75,-954.14 591.77,-961.64 675.75,-954.66"/>
</g>
<!-- WEBSERVER&#45;&#45;BIND_SHIB_SIGNING_KEY -->
<g id="edge21" class="edge">
<title>WEBSERVER&#45;&#45;BIND_SHIB_SIGNING_KEY</title>
<path fill="none" stroke="blue" d="M321.87,-427.74C328.88,-500.52 358.76,-770.33 420.72,-823.63 486.73,-880.4 583.82,-889.77 665.39,-884.64"/>
</g>
<!-- WEBSERVER&#45;&#45;BIND_SHIB_SIGNING_CERT -->
<g id="edge22" class="edge">
<title>WEBSERVER&#45;&#45;BIND_SHIB_SIGNING_CERT</title>
<path fill="none" stroke="blue" d="M322.81,-427.71C332.45,-492.4 368.42,-710.7 420.72,-753.63 461.58,-787.17 513.43,-803.79 566.05,-810.6"/>
</g>
<!-- WEBSERVER&#45;&#45;C_FEDORA -->
<g id="edge36" class="edge">
<title>WEBSERVER&#45;&#45;C_FEDORA</title>
<path fill="none" stroke="magenta" d="M333.58,-391.58C350.98,-369.58 383.57,-333.19 420.72,-315.63 742.93,-163.29 877.09,-321.75 1215.72,-210.63 1225.36,-207.46 1226.21,-203.15 1235.72,-199.63 1248.15,-195.02 1261.6,-191.13 1274.9,-187.89"/>
</g>
<!-- WEBSERVER&#45;&#45;C_API -->
<g id="edge37" class="edge">
<title>WEBSERVER&#45;&#45;C_API</title>
<path fill="none" stroke="magenta" d="M357.51,-391.57C376.07,-383.42 399.11,-374.53 420.72,-369.63 531.91,-344.37 664.76,-340.47 744.99,-340.88"/>
</g>
<!-- WEBSERVER&#45;&#45;C_UI -->
<g id="edge38" class="edge">
<title>WEBSERVER&#45;&#45;C_UI</title>
<path fill="none" stroke="magenta" d="M319.96,-391.36C320.28,-337.99 329.31,-181.72 420.72,-112.63 557.13,-9.52 1099.42,-43.75 1291.42,-59.54"/>
</g>
<!-- WEBSERVER&#45;&#45;C_SOLR -->
<g id="edge39" class="edge">
<title>WEBSERVER&#45;&#45;C_SOLR</title>
<path fill="none" stroke="magenta" d="M323.37,-391.5C331.43,-351.2 356.83,-254.33 420.72,-210.63 560.57,-114.97 1087.87,-114.51 1284.6,-117.84"/>
</g>
<!-- WEBSERVER&#45;&#45;C_DBGATE -->
<g id="edge40" class="edge">
<title>WEBSERVER&#45;&#45;C_DBGATE</title>
<path fill="none" stroke="magenta" d="M400.9,-407.51C491.76,-405.14 638.79,-401.29 731.61,-398.86"/>
</g>
<!-- WEBSERVER&#45;&#45;C_LAM -->
<g id="edge41" class="edge">
<title>WEBSERVER&#45;&#45;C_LAM</title>
<path fill="none" stroke="magenta" d="M322.27,-391.35C330.36,-322.74 362.56,-82.16 420.72,-37.63 514.59,34.25 1368.83,-15.27 1484.72,-38.63 1527.59,-47.27 1573.52,-68.19 1603.42,-83.57"/>
</g>
</g>
</svg>
