<?xml version="1.0" encoding="UTF-8" standalone="no"?>
<!DOCTYPE svg PUBLIC "-//W3C//DTD SVG 1.1//EN"
 "http://www.w3.org/Graphics/SVG/1.1/DTD/svg11.dtd">
<!-- Generated by graphviz version 2.43.0 (0)
 -->
<!-- Title: G Pages: 1 -->
<svg width="1848pt" height="1643pt"
 viewBox="0.00 0.00 1847.72 1643.00" xmlns="http://www.w3.org/2000/svg" xmlns:xlink="http://www.w3.org/1999/xlink">
<g id="graph0" class="graph" transform="scale(1 1) rotate(0) translate(4 1639)">
<title>G</title>
<polygon fill="white" stroke="transparent" points="-4,4 -4,-1639 1843.72,-1639 1843.72,4 -4,4"/>
<g id="clust1" class="cluster">
<title>cluster_host</title>
<polygon fill="none" stroke="red" points="8,-8 8,-1627 1831.72,-1627 1831.72,-8 8,-8"/>
<text text-anchor="middle" x="919.86" y="-1611.8" font-family="Times,serif" font-size="14.00">PHAIDRA server firewall</text>
</g>
<g id="clust2" class="cluster">
<title>cluster_host_storage</title>
<polygon fill="none" stroke="blue" points="237.72,-463 237.72,-1596 1041.72,-1596 1041.72,-463 237.72,-463"/>
<text text-anchor="middle" x="639.72" y="-1580.8" font-family="Times,serif" font-size="14.00">PHAIDRA server filesystem</text>
</g>
<g id="clust3" class="cluster">
<title>cluster_named_volumes</title>
<polygon fill="none" stroke="turquoise" points="245.72,-850 245.72,-1565 1033.72,-1565 1033.72,-850 245.72,-850"/>
<text text-anchor="middle" x="639.72" y="-1549.8" font-family="Times,serif" font-size="14.00">Named volumes</text>
</g>
<g id="clust4" class="cluster">
<title>cluster_bind_mounts</title>
<polygon fill="none" stroke="blue" points="316.72,-471 316.72,-842 962.72,-842 962.72,-471 316.72,-471"/>
<text text-anchor="middle" x="639.72" y="-826.8" font-family="Times,serif" font-size="14.00">Bind mounts</text>
</g>
<g id="clust5" class="cluster">
<title>cluster_docker_network_host</title>
<polygon fill="none" stroke="green" points="545.72,-16 545.72,-455 1823.72,-455 1823.72,-16 545.72,-16"/>
<text text-anchor="middle" x="1184.72" y="-439.8" font-family="Times,serif" font-size="14.00">PHAIDRA docker containers</text>
</g>
<!-- USER -->
<g id="node1" class="node">
<title>USER</title>
<polygon fill="none" stroke="black" points="209.59,-213.54 209.59,-228.46 155.27,-239 78.45,-239 24.13,-228.46 24.13,-213.54 78.45,-203 155.27,-203 209.59,-213.54"/>
<polygon fill="none" stroke="black" points="213.59,-210.25 213.59,-231.75 155.66,-243 78.07,-243 20.13,-231.75 20.13,-210.25 78.07,-199 155.66,-199 213.59,-210.25"/>
<polygon fill="none" stroke="black" points="217.58,-206.95 217.58,-235.05 156.04,-247 77.68,-247 16.14,-235.05 16.14,-206.95 77.68,-195 156.04,-195 217.58,-206.95"/>
<text text-anchor="middle" x="116.86" y="-217.3" font-family="Times,serif" font-size="14.00">PHAIDRA USER</text>
</g>
<!-- WEBSERVER -->
<g id="node28" class="node">
<title>WEBSERVER</title>
<polygon fill="none" stroke="green" points="725.72,-239 553.72,-239 553.72,-235 549.72,-235 549.72,-231 553.72,-231 553.72,-211 549.72,-211 549.72,-207 553.72,-207 553.72,-203 725.72,-203 725.72,-239"/>
<polyline fill="none" stroke="green" points="553.72,-235 557.72,-235 557.72,-231 553.72,-231 "/>
<polyline fill="none" stroke="green" points="553.72,-211 557.72,-211 557.72,-207 553.72,-207 "/>
<text text-anchor="middle" x="639.72" y="-217.3" font-family="Times,serif" font-size="14.00">phaidra&#45;demo&#45;httpd&#45;1</text>
</g>
<!-- USER&#45;&#45;WEBSERVER -->
<g id="edge37" class="edge">
<title>USER&#45;&#45;WEBSERVER</title>
<path fill="none" stroke="red" d="M217.67,-221C315,-221 461.44,-221 553.47,-221"/>
</g>
<!-- HS_FEDORA -->
<g id="node2" class="node">
<title>HS_FEDORA</title>
<polygon fill="none" stroke="turquoise" points="960.22,-1092 957.22,-1096 936.22,-1096 933.22,-1092 319.22,-1092 319.22,-998 960.22,-998 960.22,-1092"/>
<text text-anchor="start" x="331.72" y="-1073.8" font-family="Times,serif" font-weight="bold" font-size="14.00">host:</text>
<text text-anchor="start" x="490.72" y="-1072.8" font-family="Times,serif" font-size="14.00">$HOME/.local/share/docker/volumes/phaidra&#45;demo_fedora/_data</text>
<text text-anchor="start" x="331.72" y="-1051.8" font-family="Times,serif" font-size="14.00">fedora&#45;container:</text>
<text text-anchor="start" x="490.72" y="-1051.8" font-family="Times,serif" font-size="14.00">/usr/local/tomcat/fcrepo&#45;home</text>
<text text-anchor="start" x="331.72" y="-1030.8" font-family="Times,serif" font-size="14.00">pixelgecko&#45;container:</text>
<text text-anchor="start" x="490.72" y="-1030.8" font-family="Times,serif" font-size="14.00"> /mnt/fedora:ro</text>
<text text-anchor="start" x="331.72" y="-1009.8" font-family="Times,serif" font-size="14.00">api&#45;container:</text>
<text text-anchor="start" x="490.72" y="-1009.8" font-family="Times,serif" font-size="14.00"> /mnt/fedora:ro</text>
</g>
<!-- C_FEDORA -->
<g id="node16" class="node">
<title>C_FEDORA</title>
<g id="a_node16"><a xlink:href="https://fedora.lyrasis.org/" xlink:title="phaidra&#45;demo&#45;fedora&#45;1">
<polygon fill="none" stroke="green" points="1498.22,-154 1319.22,-154 1319.22,-150 1315.22,-150 1315.22,-146 1319.22,-146 1319.22,-126 1315.22,-126 1315.22,-122 1319.22,-122 1319.22,-118 1498.22,-118 1498.22,-154"/>
<polyline fill="none" stroke="green" points="1319.22,-150 1323.22,-150 1323.22,-146 1319.22,-146 "/>
<polyline fill="none" stroke="green" points="1319.22,-126 1323.22,-126 1323.22,-122 1319.22,-122 "/>
<text text-anchor="middle" x="1408.72" y="-132.3" font-family="Times,serif" font-size="14.00">phaidra&#45;demo&#45;fedora&#45;1</text>
</a>
</g>
</g>
<!-- HS_FEDORA&#45;&#45;C_FEDORA -->
<g id="edge1" class="edge">
<title>HS_FEDORA&#45;&#45;C_FEDORA</title>
<path fill="none" stroke="turquoise" d="M960.24,-1042.78C990.93,-1030.8 1019.01,-1013.48 1041.72,-989 1065.42,-963.45 1052.39,-709.58 1061.72,-676 1108.78,-506.69 1183.71,-490.16 1243.72,-325 1268.91,-255.68 1227.29,-214.87 1279.72,-163 1290.54,-152.3 1304.46,-145.35 1319.12,-140.92"/>
</g>
<!-- C_API -->
<g id="node17" class="node">
<title>C_API</title>
<g id="a_node17"><a xlink:href="https://github.com/phaidra/phaidra-api" xlink:title="phaidra&#45;demo&#45;api&#45;1">
<polygon fill="none" stroke="green" points="1230.22,-316 1075.22,-316 1075.22,-312 1071.22,-312 1071.22,-308 1075.22,-308 1075.22,-288 1071.22,-288 1071.22,-284 1075.22,-284 1075.22,-280 1230.22,-280 1230.22,-316"/>
<polyline fill="none" stroke="green" points="1075.22,-312 1079.22,-312 1079.22,-308 1075.22,-308 "/>
<polyline fill="none" stroke="green" points="1075.22,-288 1079.22,-288 1079.22,-284 1075.22,-284 "/>
<text text-anchor="middle" x="1152.72" y="-294.3" font-family="Times,serif" font-size="14.00">phaidra&#45;demo&#45;api&#45;1</text>
</a>
</g>
</g>
<!-- HS_FEDORA&#45;&#45;C_API -->
<g id="edge3" class="edge">
<title>HS_FEDORA&#45;&#45;C_API</title>
<path fill="none" stroke="turquoise" d="M960.31,-1043.48C991.08,-1031.4 1019.17,-1013.86 1041.72,-989 1077.88,-949.13 1049.68,-557.46 1061.72,-505 1078.65,-431.29 1121.21,-351.07 1141.13,-316.05"/>
</g>
<!-- C_PIXELGECKO -->
<g id="node24" class="node">
<title>C_PIXELGECKO</title>
<polygon fill="none" stroke="green" points="1799.22,-424 1590.22,-424 1590.22,-420 1586.22,-420 1586.22,-416 1590.22,-416 1590.22,-396 1586.22,-396 1586.22,-392 1590.22,-392 1590.22,-388 1799.22,-388 1799.22,-424"/>
<polyline fill="none" stroke="green" points="1590.22,-420 1594.22,-420 1594.22,-416 1590.22,-416 "/>
<polyline fill="none" stroke="green" points="1590.22,-396 1594.22,-396 1594.22,-392 1590.22,-392 "/>
<text text-anchor="middle" x="1694.72" y="-402.3" font-family="Times,serif" font-size="14.00">phaidra&#45;demo&#45;pixelgecko&#45;1</text>
</g>
<!-- HS_FEDORA&#45;&#45;C_PIXELGECKO -->
<g id="edge12" class="edge">
<title>HS_FEDORA&#45;&#45;C_PIXELGECKO</title>
<path fill="none" stroke="turquoise" d="M960.41,-1018.08C988.54,-1010.45 1016.05,-1000.9 1041.72,-989 1350.65,-845.76 1618.65,-506.11 1680.38,-424.07"/>
</g>
<!-- HS_API_LOGS -->
<g id="node3" class="node">
<title>HS_API_LOGS</title>
<polygon fill="none" stroke="turquoise" points="939.22,-980 936.22,-984 915.22,-984 912.22,-980 340.22,-980 340.22,-928 939.22,-928 939.22,-980"/>
<text text-anchor="start" x="352.72" y="-961.8" font-family="Times,serif" font-weight="bold" font-size="14.00">host:</text>
<text text-anchor="start" x="457.72" y="-960.8" font-family="Times,serif" font-size="14.00">$HOME/.local/share/docker/volumes/phaidra&#45;demo_api_logs/_data</text>
<text text-anchor="start" x="352.72" y="-939.8" font-family="Times,serif" font-size="14.00">api&#45;container:</text>
<text text-anchor="start" x="457.72" y="-939.8" font-family="Times,serif" font-size="14.00">/var/log/phaidra</text>
</g>
<!-- HS_API_LOGS&#45;&#45;C_API -->
<g id="edge2" class="edge">
<title>HS_API_LOGS&#45;&#45;C_API</title>
<path fill="none" stroke="turquoise" d="M754.03,-980.03C845.12,-993.59 969.41,-994.17 1041.72,-919 1073.65,-885.81 1051.26,-549.85 1061.72,-505 1078.91,-431.35 1121.33,-351.1 1141.17,-316.06"/>
</g>
<!-- HS_MARIADB_PHAIDRA -->
<g id="node4" class="node">
<title>HS_MARIADB_PHAIDRA</title>
<polygon fill="none" stroke="turquoise" points="1019.22,-1302 1016.22,-1306 995.22,-1306 992.22,-1302 260.22,-1302 260.22,-1250 1019.22,-1250 1019.22,-1302"/>
<text text-anchor="start" x="272.72" y="-1283.8" font-family="Times,serif" font-weight="bold" font-size="14.00">host:</text>
<text text-anchor="start" x="474.72" y="-1282.8" font-family="Times,serif" font-size="14.00">$HOME/.local/share/docker/volumes/phaidra&#45;demo_mariadb_phaidra/_data</text>
<text text-anchor="start" x="272.72" y="-1261.8" font-family="Times,serif" font-size="14.00">mariadb&#45;phaidra&#45;container:</text>
<text text-anchor="start" x="474.72" y="-1261.8" font-family="Times,serif" font-size="14.00">/var/lib/mysql</text>
</g>
<!-- C_MARIADB_PHAIDRA -->
<g id="node18" class="node">
<title>C_MARIADB_PHAIDRA</title>
<g id="a_node18"><a xlink:href="https://mariadb.org/" xlink:title="phaidra&#45;demo&#45;mariadb&#45;phaidra&#45;1">
<polygon fill="none" stroke="green" points="1534.22,-316 1283.22,-316 1283.22,-312 1279.22,-312 1279.22,-308 1283.22,-308 1283.22,-288 1279.22,-288 1279.22,-284 1283.22,-284 1283.22,-280 1534.22,-280 1534.22,-316"/>
<polyline fill="none" stroke="green" points="1283.22,-312 1287.22,-312 1287.22,-308 1283.22,-308 "/>
<polyline fill="none" stroke="green" points="1283.22,-288 1287.22,-288 1287.22,-284 1283.22,-284 "/>
<text text-anchor="middle" x="1408.72" y="-294.3" font-family="Times,serif" font-size="14.00">phaidra&#45;demo&#45;mariadb&#45;phaidra&#45;1</text>
</a>
</g>
</g>
<!-- HS_MARIADB_PHAIDRA&#45;&#45;C_MARIADB_PHAIDRA -->
<g id="edge6" class="edge">
<title>HS_MARIADB_PHAIDRA&#45;&#45;C_MARIADB_PHAIDRA</title>
<path fill="none" stroke="turquoise" d="M755.18,-1302.01C846.01,-1315.24 969.35,-1315.37 1041.72,-1241 1067.65,-1214.36 1048.09,-941.59 1061.72,-907 1108.26,-788.94 1194.87,-804.12 1243.72,-687 1274.84,-612.39 1225.75,-385.19 1279.72,-325 1282.68,-321.7 1285.93,-318.75 1289.41,-316.11"/>
</g>
<!-- HS_MONGODB_PHAIDRA -->
<g id="node5" class="node">
<title>HS_MONGODB_PHAIDRA</title>
<polygon fill="none" stroke="turquoise" points="1025.72,-1232 1022.72,-1236 1001.72,-1236 998.72,-1232 253.72,-1232 253.72,-1180 1025.72,-1180 1025.72,-1232"/>
<text text-anchor="start" x="265.72" y="-1213.8" font-family="Times,serif" font-weight="bold" font-size="14.00">host:</text>
<text text-anchor="start" x="473.72" y="-1212.8" font-family="Times,serif" font-size="14.00">$HOME/.local/share/docker/volumes/phaidra&#45;demo_mongodb_phaidra/_data</text>
<text text-anchor="start" x="265.72" y="-1191.8" font-family="Times,serif" font-size="14.00">phaidra&#45;mongodb&#45;container:</text>
<text text-anchor="start" x="473.72" y="-1191.8" font-family="Times,serif" font-size="14.00">/data/db</text>
</g>
<!-- C_MONGODB_PHAIDRA -->
<g id="node19" class="node">
<title>C_MONGODB_PHAIDRA</title>
<g id="a_node19"><a xlink:href="https://www.mongodb.com/" xlink:title="phaidra&#45;demo&#45;mongodb&#45;phaidra&#45;1">
<polygon fill="none" stroke="green" points="1537.72,-262 1279.72,-262 1279.72,-258 1275.72,-258 1275.72,-254 1279.72,-254 1279.72,-234 1275.72,-234 1275.72,-230 1279.72,-230 1279.72,-226 1537.72,-226 1537.72,-262"/>
<polyline fill="none" stroke="green" points="1279.72,-258 1283.72,-258 1283.72,-254 1279.72,-254 "/>
<polyline fill="none" stroke="green" points="1279.72,-234 1283.72,-234 1283.72,-230 1279.72,-230 "/>
<text text-anchor="middle" x="1408.72" y="-240.3" font-family="Times,serif" font-size="14.00">phaidra&#45;demo&#45;mongodb&#45;phaidra&#45;1</text>
</a>
</g>
</g>
<!-- HS_MONGODB_PHAIDRA&#45;&#45;C_MONGODB_PHAIDRA -->
<g id="edge7" class="edge">
<title>HS_MONGODB_PHAIDRA&#45;&#45;C_MONGODB_PHAIDRA</title>
<path fill="none" stroke="turquoise" d="M754.05,-1232.05C845.15,-1245.61 969.45,-1246.2 1041.72,-1171 1074.25,-1137.15 1039.48,-790.34 1061.72,-749 1109.18,-660.77 1193.78,-702.85 1243.72,-616 1282.15,-549.18 1228.12,-328.26 1279.72,-271 1282.69,-267.71 1285.94,-264.76 1289.43,-262.13"/>
</g>
<!-- HS_OPENLDAP -->
<g id="node6" class="node">
<title>HS_OPENLDAP</title>
<polygon fill="none" stroke="turquoise" points="964.72,-1372 961.72,-1376 940.72,-1376 937.72,-1372 314.72,-1372 314.72,-1320 964.72,-1320 964.72,-1372"/>
<text text-anchor="start" x="326.72" y="-1353.8" font-family="Times,serif" font-weight="bold" font-size="14.00">host:</text>
<text text-anchor="start" x="474.72" y="-1352.8" font-family="Times,serif" font-size="14.00">$HOME/.local/share/docker/volumes/phaidra&#45;demo_openldap/_data</text>
<text text-anchor="start" x="326.72" y="-1331.8" font-family="Times,serif" font-size="14.00">openldap&#45;container:</text>
<text text-anchor="start" x="474.72" y="-1331.8" font-family="Times,serif" font-size="14.00">/bitnami/openldap</text>
</g>
<!-- C_OPENLDAP -->
<g id="node21" class="node">
<title>C_OPENLDAP</title>
<g id="a_node21"><a xlink:href="https://www.openldap.org/" xlink:title="phaidra&#45;demo&#45;openldap&#45;1">
<polygon fill="none" stroke="green" points="1507.72,-370 1309.72,-370 1309.72,-366 1305.72,-366 1305.72,-362 1309.72,-362 1309.72,-342 1305.72,-342 1305.72,-338 1309.72,-338 1309.72,-334 1507.72,-334 1507.72,-370"/>
<polyline fill="none" stroke="green" points="1309.72,-366 1313.72,-366 1313.72,-362 1309.72,-362 "/>
<polyline fill="none" stroke="green" points="1309.72,-342 1313.72,-342 1313.72,-338 1309.72,-338 "/>
<text text-anchor="middle" x="1408.72" y="-348.3" font-family="Times,serif" font-size="14.00">phaidra&#45;demo&#45;openldap&#45;1</text>
</a>
</g>
</g>
<!-- HS_OPENLDAP&#45;&#45;C_OPENLDAP -->
<g id="edge8" class="edge">
<title>HS_OPENLDAP&#45;&#45;C_OPENLDAP</title>
<path fill="none" stroke="turquoise" d="M756,-1372.05C846.68,-1385.09 969.41,-1384.94 1041.72,-1311 1065.7,-1286.48 1052.91,-1036.14 1061.72,-1003 1109.03,-825.12 1189.6,-806.92 1243.72,-631 1260.36,-576.93 1241.06,-420.3 1279.72,-379 1287.95,-370.21 1298.25,-363.91 1309.43,-359.43"/>
</g>
<!-- HS_SOLR -->
<g id="node7" class="node">
<title>HS_SOLR</title>
<polygon fill="none" stroke="turquoise" points="926.22,-1162 923.22,-1166 902.22,-1166 899.22,-1162 353.22,-1162 353.22,-1110 926.22,-1110 926.22,-1162"/>
<text text-anchor="start" x="365.72" y="-1143.8" font-family="Times,serif" font-weight="bold" font-size="14.00">host:</text>
<text text-anchor="start" x="475.72" y="-1142.8" font-family="Times,serif" font-size="14.00">$HOME/.local/share/docker/volumes/phaidra&#45;demo_solr/_data</text>
<text text-anchor="start" x="365.72" y="-1121.8" font-family="Times,serif" font-size="14.00">solr&#45;container:</text>
<text text-anchor="start" x="475.72" y="-1121.8" font-family="Times,serif" font-size="14.00">/var/solr</text>
</g>
<!-- C_SOLR -->
<g id="node22" class="node">
<title>C_SOLR</title>
<g id="a_node22"><a xlink:href="https://solr.apache.org/" xlink:title="phaidra&#45;demo&#45;solr&#45;1">
<polygon fill="none" stroke="green" points="1488.72,-208 1328.72,-208 1328.72,-204 1324.72,-204 1324.72,-200 1328.72,-200 1328.72,-180 1324.72,-180 1324.72,-176 1328.72,-176 1328.72,-172 1488.72,-172 1488.72,-208"/>
<polyline fill="none" stroke="green" points="1328.72,-204 1332.72,-204 1332.72,-200 1328.72,-200 "/>
<polyline fill="none" stroke="green" points="1328.72,-180 1332.72,-180 1332.72,-176 1328.72,-176 "/>
<text text-anchor="middle" x="1408.72" y="-186.3" font-family="Times,serif" font-size="14.00">phaidra&#45;demo&#45;solr&#45;1</text>
</a>
</g>
</g>
<!-- HS_SOLR&#45;&#45;C_SOLR -->
<g id="edge10" class="edge">
<title>HS_SOLR&#45;&#45;C_SOLR</title>
<path fill="none" stroke="turquoise" d="M754.41,-1162.02C845.41,-1175.47 969.39,-1175.9 1041.72,-1101 1071.32,-1070.35 1045.93,-757.58 1061.72,-718 1107.86,-602.35 1193.44,-618.91 1243.72,-505 1269.77,-446 1236.06,-264.47 1279.72,-217 1292.41,-203.21 1310.21,-195.5 1328.51,-191.39"/>
</g>
<!-- HS_PIXELGECKO -->
<g id="node8" class="node">
<title>HS_PIXELGECKO</title>
<polygon fill="none" stroke="turquoise" points="981.72,-1463.5 978.72,-1467.5 957.72,-1467.5 954.72,-1463.5 297.72,-1463.5 297.72,-1390.5 981.72,-1390.5 981.72,-1463.5"/>
<text text-anchor="start" x="309.72" y="-1444.8" font-family="Times,serif" font-weight="bold" font-size="14.00">host:</text>
<text text-anchor="start" x="481.72" y="-1443.8" font-family="Times,serif" font-size="14.00">$HOME/.local/share/docker/volumes/phaidra&#45;demo_pixelgecko/_data</text>
<text text-anchor="start" x="309.72" y="-1422.8" font-family="Times,serif" font-size="14.00">pixelgecko&#45;container:</text>
<text text-anchor="start" x="481.72" y="-1422.8" font-family="Times,serif" font-size="14.00">/mnt/converted_images</text>
<text text-anchor="start" x="309.72" y="-1401.8" font-family="Times,serif" font-size="14.00">imageserver&#45;container:</text>
<text text-anchor="start" x="481.72" y="-1401.8" font-family="Times,serif" font-size="14.00">/mnt/converted_images:ro</text>
</g>
<!-- C_IMAGESERVER -->
<g id="node23" class="node">
<title>C_IMAGESERVER</title>
<g id="a_node23"><a xlink:href="https://github.com/ruven/iipsrv" xlink:title="phaidra&#45;demo&#45;imageserver&#45;1">
<polygon fill="none" stroke="green" points="1519.72,-424 1297.72,-424 1297.72,-420 1293.72,-420 1293.72,-416 1297.72,-416 1297.72,-396 1293.72,-396 1293.72,-392 1297.72,-392 1297.72,-388 1519.72,-388 1519.72,-424"/>
<polyline fill="none" stroke="green" points="1297.72,-420 1301.72,-420 1301.72,-416 1297.72,-416 "/>
<polyline fill="none" stroke="green" points="1297.72,-396 1301.72,-396 1301.72,-392 1297.72,-392 "/>
<text text-anchor="middle" x="1408.72" y="-402.3" font-family="Times,serif" font-size="14.00">phaidra&#45;demo&#45;imageserver&#45;1</text>
</a>
</g>
</g>
<!-- HS_PIXELGECKO&#45;&#45;C_IMAGESERVER -->
<g id="edge11" class="edge">
<title>HS_PIXELGECKO&#45;&#45;C_IMAGESERVER</title>
<path fill="none" stroke="turquoise" d="M981.81,-1424.13C1004.04,-1413.45 1024.41,-1399.35 1041.72,-1381 1069.06,-1352.02 1046.36,-1059.76 1061.72,-1023 1108.19,-911.8 1180.15,-924.38 1243.72,-822 1331.56,-680.53 1387.34,-484.08 1403.12,-424.1"/>
</g>
<!-- HS_PIXELGECKO&#45;&#45;C_PIXELGECKO -->
<g id="edge13" class="edge">
<title>HS_PIXELGECKO&#45;&#45;C_PIXELGECKO</title>
<path fill="none" stroke="turquoise" d="M981.8,-1407.84C1002.69,-1400.62 1022.86,-1391.78 1041.72,-1381 1451.45,-1146.85 1653.67,-537.61 1688.31,-424.29"/>
</g>
<!-- HS_DBGATE -->
<g id="node9" class="node">
<title>HS_DBGATE</title>
<polygon fill="none" stroke="turquoise" points="949.22,-910 946.22,-914 925.22,-914 922.22,-910 330.22,-910 330.22,-858 949.22,-858 949.22,-910"/>
<text text-anchor="start" x="342.72" y="-891.8" font-family="Times,serif" font-weight="bold" font-size="14.00">host:</text>
<text text-anchor="start" x="475.72" y="-890.8" font-family="Times,serif" font-size="14.00">$HOME/.local/share/docker/volumes/phaidra&#45;demo_dbgate/_data</text>
<text text-anchor="start" x="342.72" y="-869.8" font-family="Times,serif" font-size="14.00">dbgate&#45;container:</text>
<text text-anchor="start" x="475.72" y="-869.8" font-family="Times,serif" font-size="14.00">/root/.dbgate</text>
</g>
<!-- C_DBGATE -->
<g id="node25" class="node">
<title>C_DBGATE</title>
<polygon fill="none" stroke="green" points="1243.72,-262 1061.72,-262 1061.72,-258 1057.72,-258 1057.72,-254 1061.72,-254 1061.72,-234 1057.72,-234 1057.72,-230 1061.72,-230 1061.72,-226 1243.72,-226 1243.72,-262"/>
<polyline fill="none" stroke="green" points="1061.72,-258 1065.72,-258 1065.72,-254 1061.72,-254 "/>
<polyline fill="none" stroke="green" points="1061.72,-234 1065.72,-234 1065.72,-230 1061.72,-230 "/>
<text text-anchor="middle" x="1152.72" y="-240.3" font-family="Times,serif" font-size="14.00">phaidra&#45;demo&#45;dbgate&#45;1</text>
</g>
<!-- HS_DBGATE&#45;&#45;C_DBGATE -->
<g id="edge14" class="edge">
<title>HS_DBGATE&#45;&#45;C_DBGATE</title>
<path fill="none" stroke="turquoise" d="M759.5,-910.02C850.31,-922.24 971.48,-920.57 1041.72,-846 1085.56,-799.47 1022.68,-321.62 1061.72,-271 1064.31,-267.64 1067.31,-264.69 1070.59,-262.09"/>
</g>
<!-- HS_MARIADB_FEDORA -->
<g id="node10" class="node">
<title>HS_MARIADB_FEDORA</title>
<polygon fill="none" stroke="turquoise" points="1010.22,-1534 1007.22,-1538 986.22,-1538 983.22,-1534 269.22,-1534 269.22,-1482 1010.22,-1482 1010.22,-1534"/>
<text text-anchor="start" x="281.72" y="-1515.8" font-family="Times,serif" font-weight="bold" font-size="14.00">host:</text>
<text text-anchor="start" x="474.72" y="-1514.8" font-family="Times,serif" font-size="14.00">$HOME/.local/share/docker/volumes/phaidra&#45;demo_mariadb_fedora/_data</text>
<text text-anchor="start" x="281.72" y="-1493.8" font-family="Times,serif" font-size="14.00">mariadb&#45;fedora&#45;container:</text>
<text text-anchor="start" x="474.72" y="-1493.8" font-family="Times,serif" font-size="14.00">/var/lib/mysql</text>
</g>
<!-- C_MARIADB_FEDORA -->
<g id="node27" class="node">
<title>C_MARIADB_FEDORA</title>
<g id="a_node27"><a xlink:href="https://mariadb.org/" xlink:title="phaidra&#45;demo&#45;mariadb&#45;fedora&#45;1">
<polygon fill="none" stroke="green" points="1815.72,-154 1573.72,-154 1573.72,-150 1569.72,-150 1569.72,-146 1573.72,-146 1573.72,-126 1569.72,-126 1569.72,-122 1573.72,-122 1573.72,-118 1815.72,-118 1815.72,-154"/>
<polyline fill="none" stroke="green" points="1573.72,-150 1577.72,-150 1577.72,-146 1573.72,-146 "/>
<polyline fill="none" stroke="green" points="1573.72,-126 1577.72,-126 1577.72,-122 1573.72,-122 "/>
<text text-anchor="middle" x="1694.72" y="-132.3" font-family="Times,serif" font-size="14.00">phaidra&#45;demo&#45;mariadb&#45;fedora&#45;1</text>
</a>
</g>
</g>
<!-- HS_MARIADB_FEDORA&#45;&#45;C_MARIADB_FEDORA -->
<g id="edge15" class="edge">
<title>HS_MARIADB_FEDORA&#45;&#45;C_MARIADB_FEDORA</title>
<path fill="none" stroke="turquoise" d="M1010.59,-1491.28C1021.38,-1485.9 1031.79,-1479.83 1041.72,-1473 1487.15,-1166.55 1335.8,-864.5 1573.72,-379 1614.93,-294.92 1664.58,-194.72 1684.65,-154.27"/>
</g>
<!-- BIND_MARIADB_PHAIDRA_INIT -->
<g id="node11" class="node">
<title>BIND_MARIADB_PHAIDRA_INIT</title>
<polygon fill="none" stroke="blue" points="954.72,-741 951.72,-745 930.72,-745 927.72,-741 324.72,-741 324.72,-689 954.72,-689 954.72,-741"/>
<text text-anchor="start" x="336.72" y="-722.8" font-family="Times,serif" font-weight="bold" font-size="14.00">host:</text>
<text text-anchor="start" x="538.72" y="-721.8" font-family="Times,serif" font-size="14.00">$REPO/container_components/mariadb/phaidradb.sql.gz</text>
<text text-anchor="start" x="336.72" y="-700.8" font-family="Times,serif" font-size="14.00">mariadb&#45;phaidra&#45;container:</text>
<text text-anchor="start" x="538.72" y="-700.8" font-family="Times,serif" font-size="14.00">/docker&#45;entrypoint&#45;initdb.d/phaidradb.sql.gz:ro</text>
</g>
<!-- BIND_MARIADB_PHAIDRA_INIT&#45;&#45;C_MARIADB_PHAIDRA -->
<g id="edge5" class="edge">
<title>BIND_MARIADB_PHAIDRA_INIT&#45;&#45;C_MARIADB_PHAIDRA</title>
<path fill="none" stroke="blue" d="M954.76,-715.2C985.37,-707.19 1014.95,-695.82 1041.72,-680 1205.27,-583.38 1122.31,-431.32 1279.72,-325 1284.71,-321.63 1290.04,-318.67 1295.58,-316.07"/>
</g>
<!-- BIND_OPENLDAP_INIT -->
<g id="node12" class="node">
<title>BIND_OPENLDAP_INIT</title>
<polygon fill="none" stroke="blue" points="868.72,-811 865.72,-815 844.72,-815 841.72,-811 410.72,-811 410.72,-759 868.72,-759 868.72,-811"/>
<text text-anchor="start" x="422.72" y="-792.8" font-family="Times,serif" font-weight="bold" font-size="14.00">host:</text>
<text text-anchor="start" x="570.72" y="-791.8" font-family="Times,serif" font-size="14.00">$REPO/container_components/openldap</text>
<text text-anchor="start" x="422.72" y="-770.8" font-family="Times,serif" font-size="14.00">openldap&#45;container:</text>
<text text-anchor="start" x="570.72" y="-770.8" font-family="Times,serif" font-size="14.00">/ldifs:ro</text>
</g>
<!-- BIND_OPENLDAP_INIT&#45;&#45;C_OPENLDAP -->
<g id="edge9" class="edge">
<title>BIND_OPENLDAP_INIT&#45;&#45;C_OPENLDAP</title>
<path fill="none" stroke="blue" d="M868.75,-795.21C927.63,-789.92 989.18,-776.95 1041.72,-750 1164.27,-687.15 1179.59,-636.88 1243.72,-515 1272.84,-459.67 1234.4,-422.07 1279.72,-379 1288.2,-370.94 1298.45,-365.03 1309.41,-360.74"/>
</g>
<!-- BIND_HTTPD_CONFIG -->
<g id="node13" class="node">
<title>BIND_HTTPD_CONFIG</title>
<polygon fill="none" stroke="blue" points="875.72,-531 872.72,-535 851.72,-535 848.72,-531 403.72,-531 403.72,-479 875.72,-479 875.72,-531"/>
<text text-anchor="start" x="415.72" y="-512.8" font-family="Times,serif" font-weight="bold" font-size="14.00">host:</text>
<text text-anchor="start" x="537.72" y="-511.8" font-family="Times,serif" font-size="14.00">$REPO/webserver_configs/phaidra&#45;demo.conf</text>
<text text-anchor="start" x="415.72" y="-490.8" font-family="Times,serif" font-size="14.00">httpd&#45;container:</text>
<text text-anchor="start" x="537.72" y="-490.8" font-family="Times,serif" font-size="14.00">/usr/local/apache2/conf/httpd.conf:ro</text>
</g>
<!-- BIND_API_CODE -->
<g id="node14" class="node">
<title>BIND_API_CODE</title>
<polygon fill="none" stroke="blue" points="819.22,-671 816.22,-675 795.22,-675 792.22,-671 460.22,-671 460.22,-619 819.22,-619 819.22,-671"/>
<text text-anchor="start" x="472.72" y="-652.8" font-family="Times,serif" font-weight="bold" font-size="14.00">host:</text>
<text text-anchor="start" x="577.72" y="-651.8" font-family="Times,serif" font-size="14.00">$REPO/components/phaidra&#45;api</text>
<text text-anchor="start" x="472.72" y="-630.8" font-family="Times,serif" font-size="14.00">api&#45;container:</text>
<text text-anchor="start" x="577.72" y="-630.8" font-family="Times,serif" font-size="14.00">/usr/local/phaidra/phaidra&#45;api:ro</text>
</g>
<!-- BIND_API_CODE&#45;&#45;C_API -->
<g id="edge4" class="edge">
<title>BIND_API_CODE&#45;&#45;C_API</title>
<path fill="none" stroke="blue" d="M775.01,-671.05C861.64,-679.66 970.95,-673.95 1041.72,-610 1076.97,-578.15 1047.72,-550.4 1061.72,-505 1084.07,-432.54 1124.05,-351.36 1142.24,-316.03"/>
</g>
<!-- BIND_DOCUMENTATION -->
<g id="node15" class="node">
<title>BIND_DOCUMENTATION</title>
<polygon fill="none" stroke="blue" points="757.72,-601 754.72,-605 733.72,-605 730.72,-601 521.72,-601 521.72,-549 757.72,-549 757.72,-601"/>
<text text-anchor="start" x="533.72" y="-582.8" font-family="Times,serif" font-weight="bold" font-size="14.00">host:</text>
<text text-anchor="start" x="655.72" y="-581.8" font-family="Times,serif" font-size="14.00">$REPO/docs</text>
<text text-anchor="start" x="533.72" y="-560.8" font-family="Times,serif" font-size="14.00">httpd&#45;container:</text>
<text text-anchor="start" x="655.72" y="-560.8" font-family="Times,serif" font-size="14.00">/mnt/docs:ro</text>
</g>
<!-- C_FEDORA&#45;&#45;C_MARIADB_FEDORA -->
<g id="edge18" class="edge">
<title>C_FEDORA&#45;&#45;C_MARIADB_FEDORA</title>
<path fill="none" stroke="orange" d="M1498.41,-136C1522.26,-136 1548.45,-136 1573.69,-136"/>
</g>
<!-- C_API&#45;&#45;C_FEDORA -->
<g id="edge19" class="edge">
<title>C_API&#45;&#45;C_FEDORA</title>
<path fill="none" stroke="orange" d="M1230.4,-281.02C1235.23,-278.17 1239.74,-274.86 1243.72,-271 1280.04,-235.77 1241.97,-196.68 1279.72,-163 1290.82,-153.1 1304.62,-146.49 1319.01,-142.15"/>
</g>
<!-- C_API&#45;&#45;C_MARIADB_PHAIDRA -->
<g id="edge20" class="edge">
<title>C_API&#45;&#45;C_MARIADB_PHAIDRA</title>
<path fill="none" stroke="orange" d="M1230.27,-298C1246.93,-298 1264.96,-298 1282.94,-298"/>
</g>
<!-- C_API&#45;&#45;C_MONGODB_PHAIDRA -->
<g id="edge21" class="edge">
<title>C_API&#45;&#45;C_MONGODB_PHAIDRA</title>
<path fill="none" stroke="orange" d="M1230.34,-281.54C1246.64,-278.05 1263.75,-274.4 1279.72,-271 1293.38,-268.1 1307.87,-265.03 1321.99,-262.04"/>
</g>
<!-- C_UI -->
<g id="node20" class="node">
<title>C_UI</title>
<g id="a_node20"><a xlink:href="https://github.com/phaidra/phaidra-ui" xlink:title="phaidra&#45;demo&#45;ui&#45;1">
<polygon fill="none" stroke="green" points="1481.72,-80 1335.72,-80 1335.72,-76 1331.72,-76 1331.72,-72 1335.72,-72 1335.72,-52 1331.72,-52 1331.72,-48 1335.72,-48 1335.72,-44 1481.72,-44 1481.72,-80"/>
<polyline fill="none" stroke="green" points="1335.72,-76 1339.72,-76 1339.72,-72 1335.72,-72 "/>
<polyline fill="none" stroke="green" points="1335.72,-52 1339.72,-52 1339.72,-48 1335.72,-48 "/>
<text text-anchor="middle" x="1408.72" y="-58.3" font-family="Times,serif" font-size="14.00">phaidra&#45;demo&#45;ui&#45;1</text>
</a>
</g>
</g>
<!-- C_API&#45;&#45;C_UI -->
<g id="edge22" class="edge">
<title>C_API&#45;&#45;C_UI</title>
<path fill="none" stroke="orange" d="M1230.44,-281.72C1235.33,-278.72 1239.83,-275.18 1243.72,-271 1293.94,-216.98 1231.16,-164.51 1279.72,-109 1294.14,-92.52 1314.85,-81.81 1335.42,-74.86"/>
</g>
<!-- C_API&#45;&#45;C_OPENLDAP -->
<g id="edge23" class="edge">
<title>C_API&#45;&#45;C_OPENLDAP</title>
<path fill="none" stroke="orange" d="M1230.34,-314.46C1246.64,-317.95 1263.75,-321.6 1279.72,-325 1293.38,-327.9 1307.87,-330.97 1321.99,-333.96"/>
</g>
<!-- C_API&#45;&#45;C_SOLR -->
<g id="edge24" class="edge">
<title>C_API&#45;&#45;C_SOLR</title>
<path fill="none" stroke="orange" d="M1228.87,-279.97C1234.12,-277.37 1239.13,-274.4 1243.72,-271 1266.91,-253.84 1255.84,-233.18 1279.72,-217 1294.11,-207.26 1311.32,-200.93 1328.4,-196.84"/>
</g>
<!-- C_API&#45;&#45;C_IMAGESERVER -->
<g id="edge25" class="edge">
<title>C_API&#45;&#45;C_IMAGESERVER</title>
<path fill="none" stroke="orange" d="M1176.45,-316.27C1200.65,-334.81 1240.75,-363 1279.72,-379 1287.92,-382.36 1296.58,-385.33 1305.39,-387.94"/>
</g>
<!-- C_MONGODB_PHAIDRA&#45;&#45;C_PIXELGECKO -->
<g id="edge26" class="edge">
<title>C_MONGODB_PHAIDRA&#45;&#45;C_PIXELGECKO</title>
<path fill="none" stroke="orange" d="M1516.28,-262.07C1523.68,-264.66 1530.91,-267.62 1537.72,-271 1597.4,-300.61 1652.71,-358.46 1678.49,-387.88"/>
</g>
<!-- C_LAM -->
<g id="node26" class="node">
<title>C_LAM</title>
<polygon fill="none" stroke="green" points="1774.22,-80 1615.22,-80 1615.22,-76 1611.22,-76 1611.22,-72 1615.22,-72 1615.22,-52 1611.22,-52 1611.22,-48 1615.22,-48 1615.22,-44 1774.22,-44 1774.22,-80"/>
<polyline fill="none" stroke="green" points="1615.22,-76 1619.22,-76 1619.22,-72 1615.22,-72 "/>
<polyline fill="none" stroke="green" points="1615.22,-52 1619.22,-52 1619.22,-48 1615.22,-48 "/>
<text text-anchor="middle" x="1694.72" y="-58.3" font-family="Times,serif" font-size="14.00">phaidra&#45;demo&#45;lam&#45;1</text>
</g>
<!-- C_OPENLDAP&#45;&#45;C_LAM -->
<g id="edge27" class="edge">
<title>C_OPENLDAP&#45;&#45;C_LAM</title>
<path fill="none" stroke="orange" d="M1507.83,-344.39C1519.03,-339.94 1529.39,-333.69 1537.72,-325 1605.05,-254.73 1512.43,-184.6 1573.72,-109 1584.43,-95.79 1599.36,-86.28 1615.06,-79.44"/>
</g>
<!-- C_DBGATE&#45;&#45;C_MARIADB_PHAIDRA -->
<g id="edge28" class="edge">
<title>C_DBGATE&#45;&#45;C_MARIADB_PHAIDRA</title>
<path fill="none" stroke="orange" d="M1237.76,-262.05C1251.77,-265.04 1266.15,-268.12 1279.72,-271 1293.38,-273.9 1307.87,-276.97 1321.99,-279.96"/>
</g>
<!-- C_DBGATE&#45;&#45;C_MONGODB_PHAIDRA -->
<g id="edge29" class="edge">
<title>C_DBGATE&#45;&#45;C_MONGODB_PHAIDRA</title>
<path fill="none" stroke="orange" d="M1243.99,-244C1255.54,-244 1267.53,-244 1279.54,-244"/>
</g>
<!-- C_DBGATE&#45;&#45;C_MARIADB_FEDORA -->
<g id="edge30" class="edge">
<title>C_DBGATE&#45;&#45;C_MARIADB_FEDORA</title>
<path fill="none" stroke="orange" d="M1163.97,-225.57C1182.4,-194.57 1224.44,-133.02 1279.72,-109 1332.31,-86.15 1480.6,-104.09 1537.72,-109 1559.63,-110.88 1583.08,-114.22 1604.97,-117.93"/>
</g>
<!-- WEBSERVER&#45;&#45;BIND_HTTPD_CONFIG -->
<g id="edge16" class="edge">
<title>WEBSERVER&#45;&#45;BIND_HTTPD_CONFIG</title>
<path fill="none" stroke="blue" d="M639.72,-239.03C639.72,-318.94 639.72,-398.85 639.72,-478.77"/>
</g>
<!-- WEBSERVER&#45;&#45;BIND_DOCUMENTATION -->
<g id="edge17" class="edge">
<title>WEBSERVER&#45;&#45;BIND_DOCUMENTATION</title>
<path fill="none" stroke="blue" d="M605.55,-239.11C534.47,-277.37 366.59,-370.86 237.72,-467 232.93,-470.58 230.15,-470.54 227.72,-476 217.78,-498.33 217.78,-508.67 227.72,-531 251.3,-583.94 408.41,-587.67 521.62,-583.16"/>
</g>
<!-- WEBSERVER&#45;&#45;C_FEDORA -->
<g id="edge31" class="edge">
<title>WEBSERVER&#45;&#45;C_FEDORA</title>
<path fill="none" stroke="magenta" d="M725.73,-211.58C872.1,-195.36 1170.25,-162.32 1319.08,-145.82"/>
</g>
<!-- WEBSERVER&#45;&#45;C_API -->
<g id="edge32" class="edge">
<title>WEBSERVER&#45;&#45;C_API</title>
<path fill="none" stroke="magenta" d="M725.96,-233.84C823.36,-248.52 981.34,-272.33 1075.02,-286.44"/>
</g>
<!-- WEBSERVER&#45;&#45;C_UI -->
<g id="edge33" class="edge">
<title>WEBSERVER&#45;&#45;C_UI</title>
<path fill="none" stroke="magenta" d="M725.73,-203.38C877.75,-171.86 1193.52,-106.4 1335.65,-76.94"/>
</g>
<!-- WEBSERVER&#45;&#45;C_SOLR -->
<g id="edge34" class="edge">
<title>WEBSERVER&#45;&#45;C_SOLR</title>
<path fill="none" stroke="magenta" d="M725.73,-217.56C875.31,-211.52 1183.44,-199.07 1328.68,-193.19"/>
</g>
<!-- WEBSERVER&#45;&#45;C_DBGATE -->
<g id="edge35" class="edge">
<title>WEBSERVER&#45;&#45;C_DBGATE</title>
<path fill="none" stroke="magenta" d="M725.96,-224.84C818.82,-229.02 966.73,-235.67 1061.5,-239.94"/>
</g>
<!-- WEBSERVER&#45;&#45;C_LAM -->
<g id="edge36" class="edge">
<title>WEBSERVER&#45;&#45;C_LAM</title>
<path fill="none" stroke="magenta" d="M685.02,-202.88C787.48,-162.15 1049.67,-64.58 1279.72,-35 1393.45,-20.38 1423.48,-25.19 1537.72,-35 1563.05,-37.18 1590.45,-41.3 1615.1,-45.69"/>
</g>
</g>
</svg>
