<?xml version="1.0" encoding="UTF-8" standalone="no"?>
<!DOCTYPE svg PUBLIC "-//W3C//DTD SVG 1.1//EN"
 "http://www.w3.org/Graphics/SVG/1.1/DTD/svg11.dtd">
<!-- Generated by graphviz version 2.43.0 (0)
 -->
<!-- Title: G Pages: 1 -->
<svg width="1744pt" height="1817pt"
 viewBox="0.00 0.00 1743.72 1817.14" xmlns="http://www.w3.org/2000/svg" xmlns:xlink="http://www.w3.org/1999/xlink">
<g id="graph0" class="graph" transform="scale(1 1) rotate(0) translate(4 1813.14)">
<title>G</title>
<polygon fill="white" stroke="transparent" points="-4,4 -4,-1813.14 1739.72,-1813.14 1739.72,4 -4,4"/>
<g id="clust1" class="cluster">
<title>cluster_host</title>
<polygon fill="none" stroke="red" points="221.72,-42.14 221.72,-1801.14 1727.72,-1801.14 1727.72,-42.14 221.72,-42.14"/>
<text text-anchor="middle" x="974.72" y="-1785.94" font-family="Times,serif" font-size="14.00">PHAIDRA server firewall</text>
</g>
<g id="clust2" class="cluster">
<title>cluster_host_storage</title>
<polygon fill="none" stroke="blue" points="409.72,-497.14 409.72,-1770.14 1193.72,-1770.14 1193.72,-497.14 409.72,-497.14"/>
<text text-anchor="middle" x="801.72" y="-1754.94" font-family="Times,serif" font-size="14.00">PHAIDRA server filesystem</text>
</g>
<g id="clust3" class="cluster">
<title>cluster_named_volumes</title>
<polygon fill="none" stroke="turquoise" points="417.72,-1024.14 417.72,-1739.14 1185.72,-1739.14 1185.72,-1024.14 417.72,-1024.14"/>
<text text-anchor="middle" x="801.72" y="-1723.94" font-family="Times,serif" font-size="14.00">Named volumes</text>
</g>
<g id="clust4" class="cluster">
<title>cluster_bind_mounts</title>
<polygon fill="none" stroke="blue" points="478.72,-505.14 478.72,-1016.14 1124.72,-1016.14 1124.72,-505.14 478.72,-505.14"/>
<text text-anchor="middle" x="801.72" y="-1000.94" font-family="Times,serif" font-size="14.00">Bind mounts</text>
</g>
<g id="clust5" class="cluster">
<title>cluster_docker_network_host</title>
<polygon fill="none" stroke="green" points="229.72,-50.14 229.72,-489.14 1719.72,-489.14 1719.72,-50.14 229.72,-50.14"/>
<text text-anchor="middle" x="974.72" y="-473.94" font-family="Times,serif" font-size="14.00">PHAIDRA docker containers</text>
</g>
<!-- USER -->
<g id="node1" class="node">
<title>USER</title>
<polygon fill="none" stroke="black" points="193.59,-360.68 193.59,-375.6 139.27,-386.14 62.45,-386.14 8.13,-375.6 8.13,-360.68 62.45,-350.14 139.27,-350.14 193.59,-360.68"/>
<polygon fill="none" stroke="black" points="197.59,-357.39 197.59,-378.9 139.66,-390.14 62.07,-390.14 4.13,-378.9 4.13,-357.39 62.07,-346.14 139.66,-346.14 197.59,-357.39"/>
<polygon fill="none" stroke="black" points="201.58,-354.09 201.58,-382.19 140.04,-394.14 61.68,-394.14 0.14,-382.19 0.14,-354.09 61.68,-342.14 140.04,-342.14 201.58,-354.09"/>
<text text-anchor="middle" x="100.86" y="-364.44" font-family="Times,serif" font-size="14.00">PHAIDRA USER</text>
</g>
<!-- WEBSERVER -->
<g id="node30" class="node">
<title>WEBSERVER</title>
<polygon fill="none" stroke="green" points="389.72,-386.14 237.72,-386.14 237.72,-382.14 233.72,-382.14 233.72,-378.14 237.72,-378.14 237.72,-358.14 233.72,-358.14 233.72,-354.14 237.72,-354.14 237.72,-350.14 389.72,-350.14 389.72,-386.14"/>
<polyline fill="none" stroke="green" points="237.72,-382.14 241.72,-382.14 241.72,-378.14 237.72,-378.14 "/>
<polyline fill="none" stroke="green" points="237.72,-358.14 241.72,-358.14 241.72,-354.14 237.72,-354.14 "/>
<text text-anchor="middle" x="313.72" y="-364.44" font-family="Times,serif" font-size="14.00">phaidra&#45;ssl&#45;httpd&#45;1</text>
</g>
<!-- USER&#45;&#45;WEBSERVER -->
<g id="edge39" class="edge">
<title>USER&#45;&#45;WEBSERVER</title>
<path fill="none" stroke="red" d="M201.73,-368.14C213.76,-368.14 225.89,-368.14 237.48,-368.14"/>
</g>
<!-- HS_FEDORA -->
<g id="node2" class="node">
<title>HS_FEDORA</title>
<polygon fill="none" stroke="turquoise" points="1112.72,-1476.14 1109.72,-1480.14 1088.72,-1480.14 1085.72,-1476.14 490.72,-1476.14 490.72,-1382.14 1112.72,-1382.14 1112.72,-1476.14"/>
<text text-anchor="start" x="502.72" y="-1457.94" font-family="Times,serif" font-weight="bold" font-size="14.00">host:</text>
<text text-anchor="start" x="661.72" y="-1456.94" font-family="Times,serif" font-size="14.00">$HOME/.local/share/docker/volumes/phaidra&#45;ssl_fedora/_data</text>
<text text-anchor="start" x="502.72" y="-1435.94" font-family="Times,serif" font-size="14.00">fedora&#45;container:</text>
<text text-anchor="start" x="661.72" y="-1435.94" font-family="Times,serif" font-size="14.00">/usr/local/tomcat/fcrepo&#45;home</text>
<text text-anchor="start" x="502.72" y="-1414.94" font-family="Times,serif" font-size="14.00">pixelgecko&#45;container:</text>
<text text-anchor="start" x="661.72" y="-1414.94" font-family="Times,serif" font-size="14.00"> /mnt/fedora:ro</text>
<text text-anchor="start" x="502.72" y="-1393.94" font-family="Times,serif" font-size="14.00">api&#45;container:</text>
<text text-anchor="start" x="661.72" y="-1393.94" font-family="Times,serif" font-size="14.00"> /mnt/fedora:ro</text>
</g>
<!-- C_FEDORA -->
<g id="node18" class="node">
<title>C_FEDORA</title>
<g id="a_node18"><a xlink:href="https://fedora.lyrasis.org/" xlink:title="phaidra&#45;ssl&#45;fedora&#45;1">
<polygon fill="none" stroke="green" points="1412.72,-404.14 1253.72,-404.14 1253.72,-400.14 1249.72,-400.14 1249.72,-396.14 1253.72,-396.14 1253.72,-376.14 1249.72,-376.14 1249.72,-372.14 1253.72,-372.14 1253.72,-368.14 1412.72,-368.14 1412.72,-404.14"/>
<polyline fill="none" stroke="green" points="1253.72,-400.14 1257.72,-400.14 1257.72,-396.14 1253.72,-396.14 "/>
<polyline fill="none" stroke="green" points="1253.72,-376.14 1257.72,-376.14 1257.72,-372.14 1253.72,-372.14 "/>
<text text-anchor="middle" x="1333.22" y="-382.44" font-family="Times,serif" font-size="14.00">phaidra&#45;ssl&#45;fedora&#45;1</text>
</a>
</g>
</g>
<!-- HS_FEDORA&#45;&#45;C_FEDORA -->
<g id="edge1" class="edge">
<title>HS_FEDORA&#45;&#45;C_FEDORA</title>
<path fill="none" stroke="turquoise" d="M1113.01,-1427.67C1143.66,-1415.7 1171.56,-1398.17 1193.72,-1373.14 1229.08,-1333.2 1180.02,-454.49 1213.72,-413.14 1223.79,-400.79 1238.22,-393.38 1253.57,-389.06"/>
</g>
<!-- C_API -->
<g id="node19" class="node">
<title>C_API</title>
<g id="a_node19"><a xlink:href="https://github.com/phaidra/phaidra-api" xlink:title="phaidra&#45;ssl&#45;api&#45;1">
<polygon fill="none" stroke="green" points="869.22,-368.14 734.22,-368.14 734.22,-364.14 730.22,-364.14 730.22,-360.14 734.22,-360.14 734.22,-340.14 730.22,-340.14 730.22,-336.14 734.22,-336.14 734.22,-332.14 869.22,-332.14 869.22,-368.14"/>
<polyline fill="none" stroke="green" points="734.22,-364.14 738.22,-364.14 738.22,-360.14 734.22,-360.14 "/>
<polyline fill="none" stroke="green" points="734.22,-340.14 738.22,-340.14 738.22,-336.14 734.22,-336.14 "/>
<text text-anchor="middle" x="801.72" y="-346.44" font-family="Times,serif" font-size="14.00">phaidra&#45;ssl&#45;api&#45;1</text>
</a>
</g>
</g>
<!-- HS_FEDORA&#45;&#45;C_API -->
<g id="edge3" class="edge">
<title>HS_FEDORA&#45;&#45;C_API</title>
<path fill="none" stroke="turquoise" d="M490.72,-1443.05C450.86,-1429.03 417.7,-1404.5 399.72,-1364.14 390.07,-1342.47 390.07,-531.81 399.72,-510.14 455.27,-385.43 634.57,-357.15 733.9,-351.24"/>
</g>
<!-- C_PIXELGECKO -->
<g id="node26" class="node">
<title>C_PIXELGECKO</title>
<polygon fill="none" stroke="green" points="1694.72,-458.14 1505.72,-458.14 1505.72,-454.14 1501.72,-454.14 1501.72,-450.14 1505.72,-450.14 1505.72,-430.14 1501.72,-430.14 1501.72,-426.14 1505.72,-426.14 1505.72,-422.14 1694.72,-422.14 1694.72,-458.14"/>
<polyline fill="none" stroke="green" points="1505.72,-454.14 1509.72,-454.14 1509.72,-450.14 1505.72,-450.14 "/>
<polyline fill="none" stroke="green" points="1505.72,-430.14 1509.72,-430.14 1509.72,-426.14 1505.72,-426.14 "/>
<text text-anchor="middle" x="1600.22" y="-436.44" font-family="Times,serif" font-size="14.00">phaidra&#45;ssl&#45;pixelgecko&#45;1</text>
</g>
<!-- HS_FEDORA&#45;&#45;C_PIXELGECKO -->
<g id="edge12" class="edge">
<title>HS_FEDORA&#45;&#45;C_PIXELGECKO</title>
<path fill="none" stroke="turquoise" d="M1113.19,-1415.35C1142.12,-1405.25 1169.59,-1391.54 1193.72,-1373.14 1517.78,-1126.01 1587.1,-566.36 1597.62,-458.37"/>
</g>
<!-- HS_API_LOGS -->
<g id="node3" class="node">
<title>HS_API_LOGS</title>
<polygon fill="none" stroke="turquoise" points="1091.72,-1638.14 1088.72,-1642.14 1067.72,-1642.14 1064.72,-1638.14 511.72,-1638.14 511.72,-1586.14 1091.72,-1586.14 1091.72,-1638.14"/>
<text text-anchor="start" x="523.72" y="-1619.94" font-family="Times,serif" font-weight="bold" font-size="14.00">host:</text>
<text text-anchor="start" x="628.72" y="-1618.94" font-family="Times,serif" font-size="14.00">$HOME/.local/share/docker/volumes/phaidra&#45;ssl_api_logs/_data</text>
<text text-anchor="start" x="523.72" y="-1597.94" font-family="Times,serif" font-size="14.00">api&#45;container:</text>
<text text-anchor="start" x="628.72" y="-1597.94" font-family="Times,serif" font-size="14.00">/var/log/phaidra</text>
</g>
<!-- HS_API_LOGS&#45;&#45;C_API -->
<g id="edge2" class="edge">
<title>HS_API_LOGS&#45;&#45;C_API</title>
<path fill="none" stroke="turquoise" d="M511.72,-1615.05C456.06,-1608.14 411.33,-1594.2 399.72,-1568.14 387.77,-1541.29 387.77,-536.99 399.72,-510.14 455.27,-385.43 634.57,-357.15 733.9,-351.24"/>
</g>
<!-- HS_MARIADB_PHAIDRA -->
<g id="node4" class="node">
<title>HS_MARIADB_PHAIDRA</title>
<polygon fill="none" stroke="turquoise" points="1171.72,-1364.14 1168.72,-1368.14 1147.72,-1368.14 1144.72,-1364.14 431.72,-1364.14 431.72,-1312.14 1171.72,-1312.14 1171.72,-1364.14"/>
<text text-anchor="start" x="443.72" y="-1345.94" font-family="Times,serif" font-weight="bold" font-size="14.00">host:</text>
<text text-anchor="start" x="645.72" y="-1344.94" font-family="Times,serif" font-size="14.00">$HOME/.local/share/docker/volumes/phaidra&#45;ssl_mariadb_phaidra/_data</text>
<text text-anchor="start" x="443.72" y="-1323.94" font-family="Times,serif" font-size="14.00">mariadb&#45;phaidra&#45;container:</text>
<text text-anchor="start" x="645.72" y="-1323.94" font-family="Times,serif" font-size="14.00">/var/lib/mysql</text>
</g>
<!-- C_MARIADB_PHAIDRA -->
<g id="node20" class="node">
<title>C_MARIADB_PHAIDRA</title>
<g id="a_node20"><a xlink:href="https://mariadb.org/" xlink:title="phaidra&#45;ssl&#45;mariadb&#45;phaidra&#45;1">
<polygon fill="none" stroke="green" points="1449.22,-296.14 1217.22,-296.14 1217.22,-292.14 1213.22,-292.14 1213.22,-288.14 1217.22,-288.14 1217.22,-268.14 1213.22,-268.14 1213.22,-264.14 1217.22,-264.14 1217.22,-260.14 1449.22,-260.14 1449.22,-296.14"/>
<polyline fill="none" stroke="green" points="1217.22,-292.14 1221.22,-292.14 1221.22,-288.14 1217.22,-288.14 "/>
<polyline fill="none" stroke="green" points="1217.22,-268.14 1221.22,-268.14 1221.22,-264.14 1217.22,-264.14 "/>
<text text-anchor="middle" x="1333.22" y="-274.44" font-family="Times,serif" font-size="14.00">phaidra&#45;ssl&#45;mariadb&#45;phaidra&#45;1</text>
</a>
</g>
</g>
<!-- HS_MARIADB_PHAIDRA&#45;&#45;C_MARIADB_PHAIDRA -->
<g id="edge6" class="edge">
<title>HS_MARIADB_PHAIDRA&#45;&#45;C_MARIADB_PHAIDRA</title>
<path fill="none" stroke="turquoise" d="M916.48,-1364.15C1005.38,-1377.06 1125.03,-1376.77 1193.72,-1303.14 1231.55,-1262.59 1178.71,-348.14 1213.72,-305.14 1216.39,-301.87 1219.36,-298.94 1222.57,-296.33"/>
</g>
<!-- HS_MONGODB_PHAIDRA -->
<g id="node5" class="node">
<title>HS_MONGODB_PHAIDRA</title>
<polygon fill="none" stroke="turquoise" points="1177.72,-1224.14 1174.72,-1228.14 1153.72,-1228.14 1150.72,-1224.14 425.72,-1224.14 425.72,-1172.14 1177.72,-1172.14 1177.72,-1224.14"/>
<text text-anchor="start" x="437.72" y="-1205.94" font-family="Times,serif" font-weight="bold" font-size="14.00">host:</text>
<text text-anchor="start" x="645.72" y="-1204.94" font-family="Times,serif" font-size="14.00">$HOME/.local/share/docker/volumes/phaidra&#45;ssl_mongodb_phaidra/_data</text>
<text text-anchor="start" x="437.72" y="-1183.94" font-family="Times,serif" font-size="14.00">phaidra&#45;mongodb&#45;container:</text>
<text text-anchor="start" x="645.72" y="-1183.94" font-family="Times,serif" font-size="14.00">/data/db</text>
</g>
<!-- C_MONGODB_PHAIDRA -->
<g id="node21" class="node">
<title>C_MONGODB_PHAIDRA</title>
<g id="a_node21"><a xlink:href="https://www.mongodb.com/" xlink:title="phaidra&#45;ssl&#45;mongodb&#45;phaidra&#45;1">
<polygon fill="none" stroke="green" points="1452.72,-188.14 1213.72,-188.14 1213.72,-184.14 1209.72,-184.14 1209.72,-180.14 1213.72,-180.14 1213.72,-160.14 1209.72,-160.14 1209.72,-156.14 1213.72,-156.14 1213.72,-152.14 1452.72,-152.14 1452.72,-188.14"/>
<polyline fill="none" stroke="green" points="1213.72,-184.14 1217.72,-184.14 1217.72,-180.14 1213.72,-180.14 "/>
<polyline fill="none" stroke="green" points="1213.72,-160.14 1217.72,-160.14 1217.72,-156.14 1213.72,-156.14 "/>
<text text-anchor="middle" x="1333.22" y="-166.44" font-family="Times,serif" font-size="14.00">phaidra&#45;ssl&#45;mongodb&#45;phaidra&#45;1</text>
</a>
</g>
</g>
<!-- HS_MONGODB_PHAIDRA&#45;&#45;C_MONGODB_PHAIDRA -->
<g id="edge7" class="edge">
<title>HS_MONGODB_PHAIDRA&#45;&#45;C_MONGODB_PHAIDRA</title>
<path fill="none" stroke="turquoise" d="M916.92,-1224.21C1005.77,-1237.04 1125.12,-1236.62 1193.72,-1163.14 1230.35,-1123.91 1179.81,-238.75 1213.72,-197.14 1216.39,-193.87 1219.36,-190.94 1222.58,-188.33"/>
</g>
<!-- HS_OPENLDAP -->
<g id="node6" class="node">
<title>HS_OPENLDAP</title>
<polygon fill="none" stroke="turquoise" points="1116.72,-1084.14 1113.72,-1088.14 1092.72,-1088.14 1089.72,-1084.14 486.72,-1084.14 486.72,-1032.14 1116.72,-1032.14 1116.72,-1084.14"/>
<text text-anchor="start" x="498.72" y="-1065.94" font-family="Times,serif" font-weight="bold" font-size="14.00">host:</text>
<text text-anchor="start" x="646.72" y="-1064.94" font-family="Times,serif" font-size="14.00">$HOME/.local/share/docker/volumes/phaidra&#45;ssl_openldap/_data</text>
<text text-anchor="start" x="498.72" y="-1043.94" font-family="Times,serif" font-size="14.00">openldap&#45;container:</text>
<text text-anchor="start" x="646.72" y="-1043.94" font-family="Times,serif" font-size="14.00">/bitnami/openldap</text>
</g>
<!-- C_OPENLDAP -->
<g id="node23" class="node">
<title>C_OPENLDAP</title>
<g id="a_node23"><a xlink:href="https://www.openldap.org/" xlink:title="phaidra&#45;ssl&#45;openldap&#45;1">
<polygon fill="none" stroke="green" points="1422.72,-350.14 1243.72,-350.14 1243.72,-346.14 1239.72,-346.14 1239.72,-342.14 1243.72,-342.14 1243.72,-322.14 1239.72,-322.14 1239.72,-318.14 1243.72,-318.14 1243.72,-314.14 1422.72,-314.14 1422.72,-350.14"/>
<polyline fill="none" stroke="green" points="1243.72,-346.14 1247.72,-346.14 1247.72,-342.14 1243.72,-342.14 "/>
<polyline fill="none" stroke="green" points="1243.72,-322.14 1247.72,-322.14 1247.72,-318.14 1243.72,-318.14 "/>
<text text-anchor="middle" x="1333.22" y="-328.44" font-family="Times,serif" font-size="14.00">phaidra&#45;ssl&#45;openldap&#45;1</text>
</a>
</g>
</g>
<!-- HS_OPENLDAP&#45;&#45;C_OPENLDAP -->
<g id="edge8" class="edge">
<title>HS_OPENLDAP&#45;&#45;C_OPENLDAP</title>
<path fill="none" stroke="turquoise" d="M925.53,-1084.15C1013.3,-1094.86 1127.21,-1091.24 1193.72,-1020.14 1243.92,-966.48 1167.03,-415.88 1213.72,-359.14 1221.56,-349.61 1232.01,-343.02 1243.46,-338.54"/>
</g>
<!-- HS_SOLR -->
<g id="node7" class="node">
<title>HS_SOLR</title>
<polygon fill="none" stroke="turquoise" points="1078.72,-1294.14 1075.72,-1298.14 1054.72,-1298.14 1051.72,-1294.14 524.72,-1294.14 524.72,-1242.14 1078.72,-1242.14 1078.72,-1294.14"/>
<text text-anchor="start" x="536.72" y="-1275.94" font-family="Times,serif" font-weight="bold" font-size="14.00">host:</text>
<text text-anchor="start" x="646.72" y="-1274.94" font-family="Times,serif" font-size="14.00">$HOME/.local/share/docker/volumes/phaidra&#45;ssl_solr/_data</text>
<text text-anchor="start" x="536.72" y="-1253.94" font-family="Times,serif" font-size="14.00">solr&#45;container:</text>
<text text-anchor="start" x="646.72" y="-1253.94" font-family="Times,serif" font-size="14.00">/var/solr</text>
</g>
<!-- C_SOLR -->
<g id="node24" class="node">
<title>C_SOLR</title>
<g id="a_node24"><a xlink:href="https://solr.apache.org/" xlink:title="phaidra&#45;ssl&#45;solr&#45;1">
<polygon fill="none" stroke="green" points="1403.22,-242.14 1263.22,-242.14 1263.22,-238.14 1259.22,-238.14 1259.22,-234.14 1263.22,-234.14 1263.22,-214.14 1259.22,-214.14 1259.22,-210.14 1263.22,-210.14 1263.22,-206.14 1403.22,-206.14 1403.22,-242.14"/>
<polyline fill="none" stroke="green" points="1263.22,-238.14 1267.22,-238.14 1267.22,-234.14 1263.22,-234.14 "/>
<polyline fill="none" stroke="green" points="1263.22,-214.14 1267.22,-214.14 1267.22,-210.14 1263.22,-210.14 "/>
<text text-anchor="middle" x="1333.22" y="-220.44" font-family="Times,serif" font-size="14.00">phaidra&#45;ssl&#45;solr&#45;1</text>
</a>
</g>
</g>
<!-- HS_SOLR&#45;&#45;C_SOLR -->
<g id="edge10" class="edge">
<title>HS_SOLR&#45;&#45;C_SOLR</title>
<path fill="none" stroke="turquoise" d="M916.48,-1294.15C1005.37,-1307.05 1125.01,-1306.75 1193.72,-1233.14 1230.95,-1193.25 1179.26,-293.45 1213.72,-251.14 1225.85,-236.25 1244.33,-228.54 1263.11,-224.78"/>
</g>
<!-- HS_PIXELGECKO -->
<g id="node8" class="node">
<title>HS_PIXELGECKO</title>
<polygon fill="none" stroke="turquoise" points="1134.22,-1567.64 1131.22,-1571.64 1110.22,-1571.64 1107.22,-1567.64 469.22,-1567.64 469.22,-1494.64 1134.22,-1494.64 1134.22,-1567.64"/>
<text text-anchor="start" x="481.72" y="-1548.94" font-family="Times,serif" font-weight="bold" font-size="14.00">host:</text>
<text text-anchor="start" x="653.72" y="-1547.94" font-family="Times,serif" font-size="14.00">$HOME/.local/share/docker/volumes/phaidra&#45;ssl_pixelgecko/_data</text>
<text text-anchor="start" x="481.72" y="-1526.94" font-family="Times,serif" font-size="14.00">pixelgecko&#45;container:</text>
<text text-anchor="start" x="653.72" y="-1526.94" font-family="Times,serif" font-size="14.00">/mnt/converted_images</text>
<text text-anchor="start" x="481.72" y="-1505.94" font-family="Times,serif" font-size="14.00">imageserver&#45;container:</text>
<text text-anchor="start" x="653.72" y="-1505.94" font-family="Times,serif" font-size="14.00">/mnt/converted_images:ro</text>
</g>
<!-- C_IMAGESERVER -->
<g id="node25" class="node">
<title>C_IMAGESERVER</title>
<g id="a_node25"><a xlink:href="https://github.com/ruven/iipsrv" xlink:title="phaidra&#45;ssl&#45;imageserver&#45;1">
<polygon fill="none" stroke="green" points="1434.72,-458.14 1231.72,-458.14 1231.72,-454.14 1227.72,-454.14 1227.72,-450.14 1231.72,-450.14 1231.72,-430.14 1227.72,-430.14 1227.72,-426.14 1231.72,-426.14 1231.72,-422.14 1434.72,-422.14 1434.72,-458.14"/>
<polyline fill="none" stroke="green" points="1231.72,-454.14 1235.72,-454.14 1235.72,-450.14 1231.72,-450.14 "/>
<polyline fill="none" stroke="green" points="1231.72,-430.14 1235.72,-430.14 1235.72,-426.14 1231.72,-426.14 "/>
<text text-anchor="middle" x="1333.22" y="-436.44" font-family="Times,serif" font-size="14.00">phaidra&#45;ssl&#45;imageserver&#45;1</text>
</a>
</g>
</g>
<!-- HS_PIXELGECKO&#45;&#45;C_IMAGESERVER -->
<g id="edge11" class="edge">
<title>HS_PIXELGECKO&#45;&#45;C_IMAGESERVER</title>
<path fill="none" stroke="turquoise" d="M1134.41,-1527.08C1156.36,-1516.69 1176.53,-1502.98 1193.72,-1485.14 1212.91,-1465.24 1210.58,-1264.61 1213.72,-1237.14 1249.58,-924.09 1314.08,-544.9 1329.06,-458.33"/>
</g>
<!-- HS_PIXELGECKO&#45;&#45;C_PIXELGECKO -->
<g id="edge13" class="edge">
<title>HS_PIXELGECKO&#45;&#45;C_PIXELGECKO</title>
<path fill="none" stroke="turquoise" d="M1134.34,-1509.65C1154.94,-1503 1174.92,-1494.91 1193.72,-1485.14 1347.05,-1405.42 1375.95,-1349.96 1452.72,-1195.14 1586.48,-925.39 1598.26,-545.05 1599.17,-458.25"/>
</g>
<!-- HS_DBGATE -->
<g id="node9" class="node">
<title>HS_DBGATE</title>
<polygon fill="none" stroke="turquoise" points="1101.22,-1154.14 1098.22,-1158.14 1077.22,-1158.14 1074.22,-1154.14 502.22,-1154.14 502.22,-1102.14 1101.22,-1102.14 1101.22,-1154.14"/>
<text text-anchor="start" x="514.72" y="-1135.94" font-family="Times,serif" font-weight="bold" font-size="14.00">host:</text>
<text text-anchor="start" x="647.72" y="-1134.94" font-family="Times,serif" font-size="14.00">$HOME/.local/share/docker/volumes/phaidra&#45;ssl_dbgate/_data</text>
<text text-anchor="start" x="514.72" y="-1113.94" font-family="Times,serif" font-size="14.00">dbgate&#45;container:</text>
<text text-anchor="start" x="647.72" y="-1113.94" font-family="Times,serif" font-size="14.00">/root/.dbgate</text>
</g>
<!-- C_DBGATE -->
<g id="node27" class="node">
<title>C_DBGATE</title>
<polygon fill="none" stroke="green" points="883.22,-294.14 720.22,-294.14 720.22,-290.14 716.22,-290.14 716.22,-286.14 720.22,-286.14 720.22,-266.14 716.22,-266.14 716.22,-262.14 720.22,-262.14 720.22,-258.14 883.22,-258.14 883.22,-294.14"/>
<polyline fill="none" stroke="green" points="720.22,-290.14 724.22,-290.14 724.22,-286.14 720.22,-286.14 "/>
<polyline fill="none" stroke="green" points="720.22,-266.14 724.22,-266.14 724.22,-262.14 720.22,-262.14 "/>
<text text-anchor="middle" x="801.72" y="-272.44" font-family="Times,serif" font-size="14.00">phaidra&#45;ssl&#45;dbgate&#45;1</text>
</g>
<!-- HS_DBGATE&#45;&#45;C_DBGATE -->
<g id="edge14" class="edge">
<title>HS_DBGATE&#45;&#45;C_DBGATE</title>
<path fill="none" stroke="turquoise" d="M502.08,-1129.76C450.94,-1122.47 410.65,-1108.67 399.72,-1084.14 391.22,-1065.06 391.22,-351.22 399.72,-332.14 451.9,-214.99 633.07,-236.11 733.45,-258.11"/>
</g>
<!-- HS_MARIADB_FEDORA -->
<g id="node10" class="node">
<title>HS_MARIADB_FEDORA</title>
<polygon fill="none" stroke="turquoise" points="1162.72,-1708.14 1159.72,-1712.14 1138.72,-1712.14 1135.72,-1708.14 440.72,-1708.14 440.72,-1656.14 1162.72,-1656.14 1162.72,-1708.14"/>
<text text-anchor="start" x="452.72" y="-1689.94" font-family="Times,serif" font-weight="bold" font-size="14.00">host:</text>
<text text-anchor="start" x="645.72" y="-1688.94" font-family="Times,serif" font-size="14.00">$HOME/.local/share/docker/volumes/phaidra&#45;ssl_mariadb_fedora/_data</text>
<text text-anchor="start" x="452.72" y="-1667.94" font-family="Times,serif" font-size="14.00">mariadb&#45;fedora&#45;container:</text>
<text text-anchor="start" x="645.72" y="-1667.94" font-family="Times,serif" font-size="14.00">/var/lib/mysql</text>
</g>
<!-- C_MARIADB_FEDORA -->
<g id="node29" class="node">
<title>C_MARIADB_FEDORA</title>
<g id="a_node29"><a xlink:href="https://mariadb.org/" xlink:title="phaidra&#45;ssl&#45;mariadb&#45;fedora&#45;1">
<polygon fill="none" stroke="green" points="1711.72,-404.14 1488.72,-404.14 1488.72,-400.14 1484.72,-400.14 1484.72,-396.14 1488.72,-396.14 1488.72,-376.14 1484.72,-376.14 1484.72,-372.14 1488.72,-372.14 1488.72,-368.14 1711.72,-368.14 1711.72,-404.14"/>
<polyline fill="none" stroke="green" points="1488.72,-400.14 1492.72,-400.14 1492.72,-396.14 1488.72,-396.14 "/>
<polyline fill="none" stroke="green" points="1488.72,-376.14 1492.72,-376.14 1492.72,-372.14 1488.72,-372.14 "/>
<text text-anchor="middle" x="1600.22" y="-382.44" font-family="Times,serif" font-size="14.00">phaidra&#45;ssl&#45;mariadb&#45;fedora&#45;1</text>
</a>
</g>
</g>
<!-- HS_MARIADB_FEDORA&#45;&#45;C_MARIADB_FEDORA -->
<g id="edge15" class="edge">
<title>HS_MARIADB_FEDORA&#45;&#45;C_MARIADB_FEDORA</title>
<path fill="none" stroke="turquoise" d="M1162.83,-1669.21C1173.7,-1662.82 1184.05,-1655.5 1193.72,-1647.14 1300.38,-1554.96 1389.29,-513.07 1488.72,-413.14 1492.07,-409.78 1495.75,-406.81 1499.69,-404.2"/>
</g>
<!-- BIND_MARIADB_PHAIDRA_INIT -->
<g id="node11" class="node">
<title>BIND_MARIADB_PHAIDRA_INIT</title>
<polygon fill="none" stroke="blue" points="1116.72,-915.14 1113.72,-919.14 1092.72,-919.14 1089.72,-915.14 486.72,-915.14 486.72,-863.14 1116.72,-863.14 1116.72,-915.14"/>
<text text-anchor="start" x="498.72" y="-896.94" font-family="Times,serif" font-weight="bold" font-size="14.00">host:</text>
<text text-anchor="start" x="700.72" y="-895.94" font-family="Times,serif" font-size="14.00">$REPO/container_components/mariadb/phaidradb.sql.gz</text>
<text text-anchor="start" x="498.72" y="-874.94" font-family="Times,serif" font-size="14.00">mariadb&#45;phaidra&#45;container:</text>
<text text-anchor="start" x="700.72" y="-874.94" font-family="Times,serif" font-size="14.00">/docker&#45;entrypoint&#45;initdb.d/phaidradb.sql.gz:ro</text>
</g>
<!-- BIND_MARIADB_PHAIDRA_INIT&#45;&#45;C_MARIADB_PHAIDRA -->
<g id="edge5" class="edge">
<title>BIND_MARIADB_PHAIDRA_INIT&#45;&#45;C_MARIADB_PHAIDRA</title>
<path fill="none" stroke="blue" d="M918.42,-915.17C1006.89,-927.57 1125.01,-926.58 1193.72,-854.14 1235.73,-809.85 1174.79,-352.16 1213.72,-305.14 1216.41,-301.89 1219.41,-298.98 1222.64,-296.38"/>
</g>
<!-- BIND_OPENLDAP_INIT -->
<g id="node12" class="node">
<title>BIND_OPENLDAP_INIT</title>
<polygon fill="none" stroke="blue" points="1030.72,-985.14 1027.72,-989.14 1006.72,-989.14 1003.72,-985.14 572.72,-985.14 572.72,-933.14 1030.72,-933.14 1030.72,-985.14"/>
<text text-anchor="start" x="584.72" y="-966.94" font-family="Times,serif" font-weight="bold" font-size="14.00">host:</text>
<text text-anchor="start" x="732.72" y="-965.94" font-family="Times,serif" font-size="14.00">$REPO/container_components/openldap</text>
<text text-anchor="start" x="584.72" y="-944.94" font-family="Times,serif" font-size="14.00">openldap&#45;container:</text>
<text text-anchor="start" x="732.72" y="-944.94" font-family="Times,serif" font-size="14.00">/ldifs:ro</text>
</g>
<!-- BIND_OPENLDAP_INIT&#45;&#45;C_OPENLDAP -->
<g id="edge9" class="edge">
<title>BIND_OPENLDAP_INIT&#45;&#45;C_OPENLDAP</title>
<path fill="none" stroke="blue" d="M918.44,-985.19C1006.93,-997.6 1125.05,-996.62 1193.72,-924.14 1236.93,-878.54 1173.68,-407.54 1213.72,-359.14 1221.59,-349.63 1232.05,-343.05 1243.51,-338.57"/>
</g>
<!-- BIND_HTTPD_CONFIG -->
<g id="node13" class="node">
<title>BIND_HTTPD_CONFIG</title>
<polygon fill="none" stroke="blue" points="1028.22,-705.14 1025.22,-709.14 1004.22,-709.14 1001.22,-705.14 575.22,-705.14 575.22,-653.14 1028.22,-653.14 1028.22,-705.14"/>
<text text-anchor="start" x="587.72" y="-686.94" font-family="Times,serif" font-weight="bold" font-size="14.00">host:</text>
<text text-anchor="start" x="709.72" y="-685.94" font-family="Times,serif" font-size="14.00">$REPO/webserver_configs/phaidra&#45;ssl.conf</text>
<text text-anchor="start" x="587.72" y="-664.94" font-family="Times,serif" font-size="14.00">httpd&#45;container:</text>
<text text-anchor="start" x="709.72" y="-664.94" font-family="Times,serif" font-size="14.00">/usr/local/apache2/conf/httpd.conf:ro</text>
</g>
<!-- BIND_HTTPD_KEY -->
<g id="node14" class="node">
<title>BIND_HTTPD_KEY</title>
<polygon fill="none" stroke="blue" points="1035.72,-565.14 1032.72,-569.14 1011.72,-569.14 1008.72,-565.14 567.72,-565.14 567.72,-513.14 1035.72,-513.14 1035.72,-565.14"/>
<text text-anchor="start" x="579.72" y="-546.94" font-family="Times,serif" font-weight="bold" font-size="14.00">host:</text>
<text text-anchor="start" x="701.72" y="-545.94" font-family="Times,serif" font-size="14.00">$REPO/encryption/webserver/privkey.pem:ro</text>
<text text-anchor="start" x="579.72" y="-524.94" font-family="Times,serif" font-size="14.00">httpd&#45;container:</text>
<text text-anchor="start" x="701.72" y="-524.94" font-family="Times,serif" font-size="14.00">/usr/local/apache2/conf/server.key:ro</text>
</g>
<!-- BIND_HTTPD_CERT -->
<g id="node15" class="node">
<title>BIND_HTTPD_CERT</title>
<polygon fill="none" stroke="blue" points="1041.22,-845.14 1038.22,-849.14 1017.22,-849.14 1014.22,-845.14 562.22,-845.14 562.22,-793.14 1041.22,-793.14 1041.22,-845.14"/>
<text text-anchor="start" x="574.72" y="-826.94" font-family="Times,serif" font-weight="bold" font-size="14.00">host:</text>
<text text-anchor="start" x="696.72" y="-825.94" font-family="Times,serif" font-size="14.00">$REPO/encryption/webserver/fullchain.pem:ro</text>
<text text-anchor="start" x="574.72" y="-804.94" font-family="Times,serif" font-size="14.00">httpd&#45;container:</text>
<text text-anchor="start" x="696.72" y="-804.94" font-family="Times,serif" font-size="14.00">/usr/local/apache2/conf/server.crt:ro</text>
</g>
<!-- BIND_API_CODE -->
<g id="node16" class="node">
<title>BIND_API_CODE</title>
<polygon fill="none" stroke="blue" points="981.22,-635.14 978.22,-639.14 957.22,-639.14 954.22,-635.14 622.22,-635.14 622.22,-583.14 981.22,-583.14 981.22,-635.14"/>
<text text-anchor="start" x="634.72" y="-616.94" font-family="Times,serif" font-weight="bold" font-size="14.00">host:</text>
<text text-anchor="start" x="739.72" y="-615.94" font-family="Times,serif" font-size="14.00">$REPO/components/phaidra&#45;api</text>
<text text-anchor="start" x="634.72" y="-594.94" font-family="Times,serif" font-size="14.00">api&#45;container:</text>
<text text-anchor="start" x="739.72" y="-594.94" font-family="Times,serif" font-size="14.00">/usr/local/phaidra/phaidra&#45;api:ro</text>
</g>
<!-- BIND_API_CODE&#45;&#45;C_API -->
<g id="edge4" class="edge">
<title>BIND_API_CODE&#45;&#45;C_API</title>
<path fill="none" stroke="blue" d="M622.01,-617.96C523.86,-617.75 418.48,-607.27 399.72,-565.14 336.85,-423.97 603.73,-373.08 733.93,-356.87"/>
</g>
<!-- BIND_DOCUMENTATION -->
<g id="node17" class="node">
<title>BIND_DOCUMENTATION</title>
<polygon fill="none" stroke="blue" points="919.72,-775.14 916.72,-779.14 895.72,-779.14 892.72,-775.14 683.72,-775.14 683.72,-723.14 919.72,-723.14 919.72,-775.14"/>
<text text-anchor="start" x="695.72" y="-756.94" font-family="Times,serif" font-weight="bold" font-size="14.00">host:</text>
<text text-anchor="start" x="817.72" y="-755.94" font-family="Times,serif" font-size="14.00">$REPO/docs</text>
<text text-anchor="start" x="695.72" y="-734.94" font-family="Times,serif" font-size="14.00">httpd&#45;container:</text>
<text text-anchor="start" x="817.72" y="-734.94" font-family="Times,serif" font-size="14.00">/mnt/docs:ro</text>
</g>
<!-- C_FEDORA&#45;&#45;C_MARIADB_FEDORA -->
<g id="edge20" class="edge">
<title>C_FEDORA&#45;&#45;C_MARIADB_FEDORA</title>
<path fill="none" stroke="orange" d="M1413.01,-386.14C1436.66,-386.14 1463.06,-386.14 1488.37,-386.14"/>
</g>
<!-- C_API&#45;&#45;C_FEDORA -->
<g id="edge21" class="edge">
<title>C_API&#45;&#45;C_FEDORA</title>
<path fill="none" stroke="orange" d="M869.25,-354.66C967.02,-361.31 1149.18,-373.7 1253.49,-380.79"/>
</g>
<!-- C_API&#45;&#45;C_MARIADB_PHAIDRA -->
<g id="edge22" class="edge">
<title>C_API&#45;&#45;C_MARIADB_PHAIDRA</title>
<path fill="none" stroke="orange" d="M869.41,-354.44C948.88,-357.37 1084.63,-355.39 1193.72,-318.14 1203.76,-314.72 1203.96,-309.27 1213.72,-305.14 1221.69,-301.77 1230.14,-298.79 1238.73,-296.15"/>
</g>
<!-- C_API&#45;&#45;C_MONGODB_PHAIDRA -->
<g id="edge23" class="edge">
<title>C_API&#45;&#45;C_MONGODB_PHAIDRA</title>
<path fill="none" stroke="orange" d="M869.51,-363.61C956.14,-376.85 1106.46,-384.75 1193.72,-303.14 1228.74,-270.39 1180.46,-231.67 1213.72,-197.14 1216.94,-193.8 1220.48,-190.83 1224.27,-188.2"/>
</g>
<!-- C_UI -->
<g id="node22" class="node">
<title>C_UI</title>
<g id="a_node22"><a xlink:href="https://github.com/phaidra/phaidra-ui" xlink:title="phaidra&#45;ssl&#45;ui&#45;1">
<polygon fill="none" stroke="green" points="1396.72,-134.14 1269.72,-134.14 1269.72,-130.14 1265.72,-130.14 1265.72,-126.14 1269.72,-126.14 1269.72,-106.14 1265.72,-106.14 1265.72,-102.14 1269.72,-102.14 1269.72,-98.14 1396.72,-98.14 1396.72,-134.14"/>
<polyline fill="none" stroke="green" points="1269.72,-130.14 1273.72,-130.14 1273.72,-126.14 1269.72,-126.14 "/>
<polyline fill="none" stroke="green" points="1269.72,-106.14 1273.72,-106.14 1273.72,-102.14 1269.72,-102.14 "/>
<text text-anchor="middle" x="1333.22" y="-112.44" font-family="Times,serif" font-size="14.00">phaidra&#45;ssl&#45;ui&#45;1</text>
</a>
</g>
</g>
<!-- C_API&#45;&#45;C_UI -->
<g id="edge24" class="edge">
<title>C_API&#45;&#45;C_UI</title>
<path fill="none" stroke="orange" d="M869.54,-364.29C956.91,-378.49 1108.8,-387.67 1193.72,-303.14 1244.52,-252.59 1165.63,-196.28 1213.72,-143.14 1227.88,-127.5 1249.06,-119.95 1269.61,-116.57"/>
</g>
<!-- C_API&#45;&#45;C_OPENLDAP -->
<g id="edge25" class="edge">
<title>C_API&#45;&#45;C_OPENLDAP</title>
<path fill="none" stroke="orange" d="M869.25,-347.88C963.96,-344.66 1137.88,-338.75 1243.48,-335.16"/>
</g>
<!-- C_API&#45;&#45;C_SOLR -->
<g id="edge26" class="edge">
<title>C_API&#45;&#45;C_SOLR</title>
<path fill="none" stroke="orange" d="M869.4,-365.43C954.54,-380.77 1101.79,-392.66 1193.72,-318.14 1217.86,-298.57 1191.03,-272.38 1213.72,-251.14 1227.12,-238.6 1245.1,-231.46 1263,-227.5"/>
</g>
<!-- C_API&#45;&#45;C_IMAGESERVER -->
<g id="edge27" class="edge">
<title>C_API&#45;&#45;C_IMAGESERVER</title>
<path fill="none" stroke="orange" d="M869.25,-361.45C960.49,-376.96 1125.24,-404.96 1231.6,-423.04"/>
</g>
<!-- C_MONGODB_PHAIDRA&#45;&#45;C_PIXELGECKO -->
<g id="edge28" class="edge">
<title>C_MONGODB_PHAIDRA&#45;&#45;C_PIXELGECKO</title>
<path fill="none" stroke="orange" d="M1442.52,-188.29C1446.18,-190.9 1449.61,-193.84 1452.72,-197.14 1519.49,-267.95 1422.51,-341.81 1488.72,-413.14 1493.63,-418.42 1499.38,-422.75 1505.64,-426.28"/>
</g>
<!-- C_LAM -->
<g id="node28" class="node">
<title>C_LAM</title>
<polygon fill="none" stroke="green" points="1670.22,-222.14 1530.22,-222.14 1530.22,-218.14 1526.22,-218.14 1526.22,-214.14 1530.22,-214.14 1530.22,-194.14 1526.22,-194.14 1526.22,-190.14 1530.22,-190.14 1530.22,-186.14 1670.22,-186.14 1670.22,-222.14"/>
<polyline fill="none" stroke="green" points="1530.22,-218.14 1534.22,-218.14 1534.22,-214.14 1530.22,-214.14 "/>
<polyline fill="none" stroke="green" points="1530.22,-194.14 1534.22,-194.14 1534.22,-190.14 1530.22,-190.14 "/>
<text text-anchor="middle" x="1600.22" y="-200.44" font-family="Times,serif" font-size="14.00">phaidra&#45;ssl&#45;lam&#45;1</text>
</g>
<!-- C_OPENLDAP&#45;&#45;C_LAM -->
<g id="edge29" class="edge">
<title>C_OPENLDAP&#45;&#45;C_LAM</title>
<path fill="none" stroke="orange" d="M1422.79,-315.88C1433.07,-312.85 1443.26,-309.3 1452.72,-305.14 1501.66,-283.65 1551.36,-245.08 1578.44,-222.33"/>
</g>
<!-- C_DBGATE&#45;&#45;C_MARIADB_PHAIDRA -->
<g id="edge30" class="edge">
<title>C_DBGATE&#45;&#45;C_MARIADB_PHAIDRA</title>
<path fill="none" stroke="orange" d="M883.43,-276.45C972.31,-276.78 1115.96,-277.32 1216.74,-277.7"/>
</g>
<!-- C_DBGATE&#45;&#45;C_MONGODB_PHAIDRA -->
<g id="edge31" class="edge">
<title>C_DBGATE&#45;&#45;C_MONGODB_PHAIDRA</title>
<path fill="none" stroke="orange" d="M883.43,-259.98C980.13,-240.63 1141.65,-208.29 1242.27,-188.15"/>
</g>
<!-- C_DBGATE&#45;&#45;C_MARIADB_FEDORA -->
<g id="edge32" class="edge">
<title>C_DBGATE&#45;&#45;C_MARIADB_FEDORA</title>
<path fill="none" stroke="orange" d="M831.12,-257.98C895.83,-217.81 1060.5,-122.36 1213.72,-89.14 1265.63,-77.89 1410.81,-56.52 1452.72,-89.14 1504.11,-129.12 1461.36,-172.06 1488.72,-231.14 1513.86,-285.42 1558.69,-340.43 1582.8,-368"/>
</g>
<!-- WEBSERVER&#45;&#45;BIND_HTTPD_CONFIG -->
<g id="edge16" class="edge">
<title>WEBSERVER&#45;&#45;BIND_HTTPD_CONFIG</title>
<path fill="none" stroke="blue" d="M314.73,-386.39C315.83,-436.89 326.53,-579 409.72,-644.14 456.27,-680.59 516.17,-696.36 575.03,-701.27"/>
</g>
<!-- WEBSERVER&#45;&#45;BIND_HTTPD_KEY -->
<g id="edge17" class="edge">
<title>WEBSERVER&#45;&#45;BIND_HTTPD_KEY</title>
<path fill="none" stroke="blue" d="M322.7,-386.34C336.15,-414.57 366.17,-468.26 409.72,-493.14 457.13,-520.22 513.01,-534.88 567.48,-542.23"/>
</g>
<!-- WEBSERVER&#45;&#45;BIND_HTTPD_CERT -->
<g id="edge18" class="edge">
<title>WEBSERVER&#45;&#45;BIND_HTTPD_CERT</title>
<path fill="none" stroke="blue" d="M316.11,-386.32C322.06,-459.39 348.06,-730.3 409.72,-784.14 473.38,-839.72 567.11,-849.67 646.84,-845.15"/>
</g>
<!-- WEBSERVER&#45;&#45;BIND_DOCUMENTATION -->
<g id="edge19" class="edge">
<title>WEBSERVER&#45;&#45;BIND_DOCUMENTATION</title>
<path fill="none" stroke="blue" d="M316.99,-386.32C325.51,-451.32 357.74,-670.7 409.72,-714.14 484.64,-776.74 598.14,-780.24 683.59,-771.18"/>
</g>
<!-- WEBSERVER&#45;&#45;C_FEDORA -->
<g id="edge33" class="edge">
<title>WEBSERVER&#45;&#45;C_FEDORA</title>
<path fill="none" stroke="magenta" d="M389.87,-375.85C396.58,-376.36 403.27,-376.8 409.72,-377.14 721.82,-393.42 1094.09,-390.11 1253.48,-387.62"/>
</g>
<!-- WEBSERVER&#45;&#45;C_API -->
<g id="edge34" class="edge">
<title>WEBSERVER&#45;&#45;C_API</title>
<path fill="none" stroke="magenta" d="M389.86,-365.36C484.05,-361.87 644.03,-355.94 734.06,-352.61"/>
</g>
<!-- WEBSERVER&#45;&#45;C_UI -->
<g id="edge35" class="edge">
<title>WEBSERVER&#45;&#45;C_UI</title>
<path fill="none" stroke="magenta" d="M323.48,-350.05C337.57,-323.11 367.97,-273.05 409.72,-249.14 696.52,-84.88 1112.9,-98.07 1269.53,-110.11"/>
</g>
<!-- WEBSERVER&#45;&#45;C_SOLR -->
<g id="edge36" class="edge">
<title>WEBSERVER&#45;&#45;C_SOLR</title>
<path fill="none" stroke="magenta" d="M344.76,-349.93C362.88,-339.98 386.82,-328.6 409.72,-323.14 452.1,-313.04 1158.12,-328.26 1193.72,-303.14 1213.95,-288.86 1195.01,-267.35 1213.72,-251.14 1227.44,-239.26 1245.31,-232.31 1263,-228.33"/>
</g>
<!-- WEBSERVER&#45;&#45;C_DBGATE -->
<g id="edge37" class="edge">
<title>WEBSERVER&#45;&#45;C_DBGATE</title>
<path fill="none" stroke="magenta" d="M336.56,-350C354.87,-335.91 382.34,-317.29 409.72,-308.14 512.76,-273.71 639.18,-269.76 719.85,-271.68"/>
</g>
<!-- WEBSERVER&#45;&#45;C_LAM -->
<g id="edge38" class="edge">
<title>WEBSERVER&#45;&#45;C_LAM</title>
<path fill="none" stroke="magenta" d="M314.73,-350.12C315.85,-300.31 326.58,-160.39 409.72,-99.14 596.41,38.39 1236.88,16.6 1452.72,-68.14 1513.78,-92.11 1564.53,-154.82 1586.92,-186"/>
</g>
</g>
</svg>
