<?xml version="1.0" encoding="UTF-8" standalone="no"?>
<!DOCTYPE svg PUBLIC "-//W3C//DTD SVG 1.1//EN"
 "http://www.w3.org/Graphics/SVG/1.1/DTD/svg11.dtd">
<!-- Generated by graphviz version 2.43.0 (0)
 -->
<!-- Title: G Pages: 1 -->
<svg width="2232pt" height="1039pt"
 viewBox="0.00 0.00 2231.72 1038.76" xmlns="http://www.w3.org/2000/svg" xmlns:xlink="http://www.w3.org/1999/xlink">
<g id="graph0" class="graph" transform="scale(1 1) rotate(0) translate(4 1034.76)">
<title>G</title>
<polygon fill="white" stroke="transparent" points="-4,4 -4,-1034.76 2227.72,-1034.76 2227.72,4 -4,4"/>
<g id="clust1" class="cluster">
<title>cluster_host</title>
<polygon fill="none" stroke="red" points="213.72,-16.76 213.72,-1022.76 2215.72,-1022.76 2215.72,-16.76 213.72,-16.76"/>
<text text-anchor="middle" x="1214.72" y="-1007.56" font-family="Times,serif" font-size="14.00">PHAIDRA server firewall</text>
</g>
<g id="clust2" class="cluster">
<title>cluster_host_storage</title>
<polygon fill="none" stroke="blue" points="221.72,-68.76 221.72,-991.76 1125.72,-991.76 1125.72,-68.76 221.72,-68.76"/>
<text text-anchor="middle" x="673.72" y="-976.56" font-family="Times,serif" font-size="14.00">PHAIDRA server filesystem</text>
</g>
<g id="clust3" class="cluster">
<title>cluster_named_volumes</title>
<polygon fill="none" stroke="turquoise" points="229.72,-245.76 229.72,-960.76 1117.72,-960.76 1117.72,-245.76 229.72,-245.76"/>
<text text-anchor="middle" x="673.72" y="-945.56" font-family="Times,serif" font-size="14.00">Named volumes</text>
</g>
<g id="clust4" class="cluster">
<title>cluster_bind_mounts</title>
<polygon fill="none" stroke="blue" points="350.72,-76.76 350.72,-237.76 996.72,-237.76 996.72,-76.76 350.72,-76.76"/>
<text text-anchor="middle" x="673.72" y="-222.56" font-family="Times,serif" font-size="14.00">Bind mounts</text>
</g>
<g id="clust5" class="cluster">
<title>cluster_docker_network_host</title>
<polygon fill="none" stroke="green" points="1137.72,-141.76 1137.72,-560.76 2207.72,-560.76 2207.72,-141.76 1137.72,-141.76"/>
<text text-anchor="middle" x="1672.72" y="-545.56" font-family="Times,serif" font-size="14.00">PHAIDRA docker containers</text>
</g>
<!-- USER -->
<g id="node1" class="node">
<title>USER</title>
<polygon fill="none" stroke="black" points="193.59,-35.3 193.59,-50.21 139.27,-60.76 62.45,-60.76 8.13,-50.21 8.13,-35.3 62.45,-24.76 139.27,-24.76 193.59,-35.3"/>
<polygon fill="none" stroke="black" points="197.59,-32 197.59,-53.51 139.66,-64.76 62.07,-64.76 4.13,-53.51 4.13,-32 62.07,-20.76 139.66,-20.76 197.59,-32"/>
<polygon fill="none" stroke="black" points="201.58,-28.7 201.58,-56.81 140.04,-68.76 61.68,-68.76 0.14,-56.81 0.14,-28.7 61.68,-16.76 140.04,-16.76 201.58,-28.7"/>
<text text-anchor="middle" x="100.86" y="-39.06" font-family="Times,serif" font-size="14.00">PHAIDRA USER</text>
</g>
<!-- WEBSERVER -->
<g id="node2" class="node">
<title>WEBSERVER</title>
<polygon fill="none" stroke="black" points="752.72,-60.76 594.72,-60.76 594.72,-56.76 590.72,-56.76 590.72,-52.76 594.72,-52.76 594.72,-32.76 590.72,-32.76 590.72,-28.76 594.72,-28.76 594.72,-24.76 752.72,-24.76 752.72,-60.76"/>
<polyline fill="none" stroke="black" points="594.72,-56.76 598.72,-56.76 598.72,-52.76 594.72,-52.76 "/>
<polyline fill="none" stroke="black" points="594.72,-32.76 598.72,-32.76 598.72,-28.76 594.72,-28.76 "/>
<text text-anchor="middle" x="673.72" y="-39.06" font-family="Times,serif" font-size="14.00">External Webserver</text>
</g>
<!-- USER&#45;&#45;WEBSERVER -->
<g id="edge34" class="edge">
<title>USER&#45;&#45;WEBSERVER</title>
<path fill="none" stroke="red" d="M201.62,-42.76C313.49,-42.76 492.56,-42.76 594.67,-42.76"/>
</g>
<!-- C_FEDORA -->
<g id="node14" class="node">
<title>C_FEDORA</title>
<g id="a_node14"><a xlink:href="https://fedora.lyrasis.org/" xlink:title="phaidra&#45;external&#45;webserver&#45;fedora&#45;1">
<polygon fill="none" stroke="green" points="1781.72,-313.76 1503.72,-313.76 1503.72,-309.76 1499.72,-309.76 1499.72,-305.76 1503.72,-305.76 1503.72,-285.76 1499.72,-285.76 1499.72,-281.76 1503.72,-281.76 1503.72,-277.76 1781.72,-277.76 1781.72,-313.76"/>
<polyline fill="none" stroke="green" points="1503.72,-309.76 1507.72,-309.76 1507.72,-305.76 1503.72,-305.76 "/>
<polyline fill="none" stroke="green" points="1503.72,-285.76 1507.72,-285.76 1507.72,-281.76 1503.72,-281.76 "/>
<text text-anchor="middle" x="1642.72" y="-292.06" font-family="Times,serif" font-size="14.00">phaidra&#45;external&#45;webserver&#45;fedora&#45;1</text>
</a>
</g>
</g>
<!-- WEBSERVER&#45;&#45;C_FEDORA -->
<g id="edge28" class="edge">
<title>WEBSERVER&#45;&#45;C_FEDORA</title>
<path fill="none" stroke="magenta" d="M737.96,-24.72C835.22,-1.25 1021.2,26 1125.72,-72.76 1157.3,-102.59 1109.49,-136.75 1137.72,-169.76 1224.86,-271.64 1301.72,-206.98 1427.72,-252.76 1444.18,-258.74 1446.92,-263.85 1463.72,-268.76 1476.47,-272.48 1489.9,-275.72 1503.42,-278.52"/>
</g>
<!-- C_API -->
<g id="node15" class="node">
<title>C_API</title>
<g id="a_node15"><a xlink:href="https://github.com/phaidra/phaidra-api" xlink:title="phaidra&#45;external&#45;webserver&#45;api&#45;1">
<polygon fill="none" stroke="green" points="1413.72,-367.76 1159.72,-367.76 1159.72,-363.76 1155.72,-363.76 1155.72,-359.76 1159.72,-359.76 1159.72,-339.76 1155.72,-339.76 1155.72,-335.76 1159.72,-335.76 1159.72,-331.76 1413.72,-331.76 1413.72,-367.76"/>
<polyline fill="none" stroke="green" points="1159.72,-363.76 1163.72,-363.76 1163.72,-359.76 1159.72,-359.76 "/>
<polyline fill="none" stroke="green" points="1159.72,-339.76 1163.72,-339.76 1163.72,-335.76 1159.72,-335.76 "/>
<text text-anchor="middle" x="1286.72" y="-346.06" font-family="Times,serif" font-size="14.00">phaidra&#45;external&#45;webserver&#45;api&#45;1</text>
</a>
</g>
</g>
<!-- WEBSERVER&#45;&#45;C_API -->
<g id="edge29" class="edge">
<title>WEBSERVER&#45;&#45;C_API</title>
<path fill="none" stroke="magenta" d="M735.25,-24.73C832.66,0.11 1023.58,30.95 1125.72,-72.76 1143.99,-91.31 1121.56,-286.35 1137.72,-306.76 1146.11,-317.35 1156.95,-325.44 1168.94,-331.6"/>
</g>
<!-- C_UI -->
<g id="node18" class="node">
<title>C_UI</title>
<g id="a_node18"><a xlink:href="https://github.com/phaidra/phaidra-ui" xlink:title="phaidra&#45;external&#45;webserver&#45;ui&#45;1">
<polygon fill="none" stroke="green" points="1765.72,-205.76 1519.72,-205.76 1519.72,-201.76 1515.72,-201.76 1515.72,-197.76 1519.72,-197.76 1519.72,-177.76 1515.72,-177.76 1515.72,-173.76 1519.72,-173.76 1519.72,-169.76 1765.72,-169.76 1765.72,-205.76"/>
<polyline fill="none" stroke="green" points="1519.72,-201.76 1523.72,-201.76 1523.72,-197.76 1519.72,-197.76 "/>
<polyline fill="none" stroke="green" points="1519.72,-177.76 1523.72,-177.76 1523.72,-173.76 1519.72,-173.76 "/>
<text text-anchor="middle" x="1642.72" y="-184.06" font-family="Times,serif" font-size="14.00">phaidra&#45;external&#45;webserver&#45;ui&#45;1</text>
</a>
</g>
</g>
<!-- WEBSERVER&#45;&#45;C_UI -->
<g id="edge30" class="edge">
<title>WEBSERVER&#45;&#45;C_UI</title>
<path fill="none" stroke="magenta" d="M752.86,-38.71C844.02,-36.1 998.49,-38.23 1125.72,-72.76 1131.48,-74.32 1132.15,-76.64 1137.72,-78.76 1277.95,-131.9 1316.51,-137.16 1463.72,-165.76 1481.6,-169.23 1500.61,-172.27 1519.29,-174.88"/>
</g>
<!-- C_SOLR -->
<g id="node20" class="node">
<title>C_SOLR</title>
<g id="a_node20"><a xlink:href="https://solr.apache.org/" xlink:title="phaidra&#45;external&#45;webserver&#45;solr&#45;1">
<polygon fill="none" stroke="green" points="1772.72,-259.76 1512.72,-259.76 1512.72,-255.76 1508.72,-255.76 1508.72,-251.76 1512.72,-251.76 1512.72,-231.76 1508.72,-231.76 1508.72,-227.76 1512.72,-227.76 1512.72,-223.76 1772.72,-223.76 1772.72,-259.76"/>
<polyline fill="none" stroke="green" points="1512.72,-255.76 1516.72,-255.76 1516.72,-251.76 1512.72,-251.76 "/>
<polyline fill="none" stroke="green" points="1512.72,-231.76 1516.72,-231.76 1516.72,-227.76 1512.72,-227.76 "/>
<text text-anchor="middle" x="1642.72" y="-238.06" font-family="Times,serif" font-size="14.00">phaidra&#45;external&#45;webserver&#45;solr&#45;1</text>
</a>
</g>
</g>
<!-- WEBSERVER&#45;&#45;C_SOLR -->
<g id="edge31" class="edge">
<title>WEBSERVER&#45;&#45;C_SOLR</title>
<path fill="none" stroke="magenta" d="M743.44,-24.68C840.64,-3.6 1018.36,17.82 1125.72,-72.76 1143.19,-87.49 1121.88,-106.28 1137.72,-122.76 1242.05,-231.29 1316.57,-182.96 1463.72,-214.76 1479.46,-218.16 1496.06,-221.28 1512.56,-224.1"/>
</g>
<!-- C_DBGATE -->
<g id="node23" class="node">
<title>C_DBGATE</title>
<polygon fill="none" stroke="green" points="1427.72,-297.76 1145.72,-297.76 1145.72,-293.76 1141.72,-293.76 1141.72,-289.76 1145.72,-289.76 1145.72,-269.76 1141.72,-269.76 1141.72,-265.76 1145.72,-265.76 1145.72,-261.76 1427.72,-261.76 1427.72,-297.76"/>
<polyline fill="none" stroke="green" points="1145.72,-293.76 1149.72,-293.76 1149.72,-289.76 1145.72,-289.76 "/>
<polyline fill="none" stroke="green" points="1145.72,-269.76 1149.72,-269.76 1149.72,-265.76 1145.72,-265.76 "/>
<text text-anchor="middle" x="1286.72" y="-276.06" font-family="Times,serif" font-size="14.00">phaidra&#45;external&#45;webserver&#45;dbgate&#45;1</text>
</g>
<!-- WEBSERVER&#45;&#45;C_DBGATE -->
<g id="edge32" class="edge">
<title>WEBSERVER&#45;&#45;C_DBGATE</title>
<path fill="none" stroke="magenta" d="M735.88,-24.69C833.3,-0.1 1023.15,29.98 1125.72,-72.76 1154.83,-101.91 1109.82,-227.45 1137.72,-257.76 1140.18,-260.43 1142.82,-262.88 1145.6,-265.12"/>
</g>
<!-- C_LAM -->
<g id="node24" class="node">
<title>C_LAM</title>
<polygon fill="none" stroke="green" points="2158.22,-222.76 1899.22,-222.76 1899.22,-218.76 1895.22,-218.76 1895.22,-214.76 1899.22,-214.76 1899.22,-194.76 1895.22,-194.76 1895.22,-190.76 1899.22,-190.76 1899.22,-186.76 2158.22,-186.76 2158.22,-222.76"/>
<polyline fill="none" stroke="green" points="1899.22,-218.76 1903.22,-218.76 1903.22,-214.76 1899.22,-214.76 "/>
<polyline fill="none" stroke="green" points="1899.22,-194.76 1903.22,-194.76 1903.22,-190.76 1899.22,-190.76 "/>
<text text-anchor="middle" x="2028.72" y="-201.06" font-family="Times,serif" font-size="14.00">phaidra&#45;external&#45;webserver&#45;lam&#45;1</text>
</g>
<!-- WEBSERVER&#45;&#45;C_LAM -->
<g id="edge33" class="edge">
<title>WEBSERVER&#45;&#45;C_LAM</title>
<path fill="none" stroke="magenta" d="M752.75,-43.27C889.77,-44.87 1182.36,-51.52 1427.72,-78.76 1604.41,-98.37 1648.3,-108.67 1821.72,-147.76 1871.5,-158.98 1927.23,-174.59 1968.16,-186.64"/>
</g>
<!-- HS_FEDORA -->
<g id="node3" class="node">
<title>HS_FEDORA</title>
<polygon fill="none" stroke="turquoise" points="1044.22,-557.76 1041.22,-561.76 1020.22,-561.76 1017.22,-557.76 303.22,-557.76 303.22,-463.76 1044.22,-463.76 1044.22,-557.76"/>
<text text-anchor="start" x="315.72" y="-539.56" font-family="Times,serif" font-weight="bold" font-size="14.00">host:</text>
<text text-anchor="start" x="474.72" y="-538.56" font-family="Times,serif" font-size="14.00">$HOME/.local/share/docker/volumes/phaidra&#45;external&#45;webserver_fedora/_data</text>
<text text-anchor="start" x="315.72" y="-517.56" font-family="Times,serif" font-size="14.00">fedora&#45;container:</text>
<text text-anchor="start" x="474.72" y="-517.56" font-family="Times,serif" font-size="14.00">/usr/local/tomcat/fcrepo&#45;home</text>
<text text-anchor="start" x="315.72" y="-496.56" font-family="Times,serif" font-size="14.00">pixelgecko&#45;container:</text>
<text text-anchor="start" x="474.72" y="-496.56" font-family="Times,serif" font-size="14.00"> /mnt/fedora:ro</text>
<text text-anchor="start" x="315.72" y="-475.56" font-family="Times,serif" font-size="14.00">api&#45;container:</text>
<text text-anchor="start" x="474.72" y="-475.56" font-family="Times,serif" font-size="14.00"> /mnt/fedora:ro</text>
</g>
<!-- HS_FEDORA&#45;&#45;C_FEDORA -->
<g id="edge1" class="edge">
<title>HS_FEDORA&#45;&#45;C_FEDORA</title>
<path fill="none" stroke="turquoise" d="M1044.31,-472.45C1218.49,-451.46 1395.36,-424.71 1427.72,-399.76 1457.64,-376.69 1433.47,-345.38 1463.72,-322.76 1475.61,-313.87 1489.22,-307.35 1503.49,-302.62"/>
</g>
<!-- HS_FEDORA&#45;&#45;C_API -->
<g id="edge3" class="edge">
<title>HS_FEDORA&#45;&#45;C_API</title>
<path fill="none" stroke="turquoise" d="M1044.38,-499.37C1073.6,-488.42 1101.23,-473.87 1125.72,-454.76 1137.37,-445.67 1127.78,-434.69 1137.72,-423.76 1161.5,-397.62 1196.6,-379.52 1226.64,-367.76"/>
</g>
<!-- C_PIXELGECKO -->
<g id="node22" class="node">
<title>C_PIXELGECKO</title>
<polygon fill="none" stroke="green" points="2182.72,-529.76 1874.72,-529.76 1874.72,-525.76 1870.72,-525.76 1870.72,-521.76 1874.72,-521.76 1874.72,-501.76 1870.72,-501.76 1870.72,-497.76 1874.72,-497.76 1874.72,-493.76 2182.72,-493.76 2182.72,-529.76"/>
<polyline fill="none" stroke="green" points="1874.72,-525.76 1878.72,-525.76 1878.72,-521.76 1874.72,-521.76 "/>
<polyline fill="none" stroke="green" points="1874.72,-501.76 1878.72,-501.76 1878.72,-497.76 1874.72,-497.76 "/>
<text text-anchor="middle" x="2028.72" y="-508.06" font-family="Times,serif" font-size="14.00">phaidra&#45;external&#45;webserver&#45;pixelgecko&#45;1</text>
</g>
<!-- HS_FEDORA&#45;&#45;C_PIXELGECKO -->
<g id="edge11" class="edge">
<title>HS_FEDORA&#45;&#45;C_PIXELGECKO</title>
<path fill="none" stroke="turquoise" d="M1044.4,-536.55C1269.33,-548.08 1562.33,-555.68 1821.72,-538.76 1850.7,-536.87 1881.82,-533.5 1910.87,-529.76"/>
</g>
<!-- HS_API_LOGS -->
<g id="node4" class="node">
<title>HS_API_LOGS</title>
<polygon fill="none" stroke="turquoise" points="1023.22,-375.76 1020.22,-379.76 999.22,-379.76 996.22,-375.76 324.22,-375.76 324.22,-323.76 1023.22,-323.76 1023.22,-375.76"/>
<text text-anchor="start" x="336.72" y="-357.56" font-family="Times,serif" font-weight="bold" font-size="14.00">host:</text>
<text text-anchor="start" x="441.72" y="-356.56" font-family="Times,serif" font-size="14.00">$HOME/.local/share/docker/volumes/phaidra&#45;external&#45;webserver_api_logs/_data</text>
<text text-anchor="start" x="336.72" y="-335.56" font-family="Times,serif" font-size="14.00">api&#45;container:</text>
<text text-anchor="start" x="441.72" y="-335.56" font-family="Times,serif" font-size="14.00">/var/log/phaidra</text>
</g>
<!-- HS_API_LOGS&#45;&#45;C_API -->
<g id="edge2" class="edge">
<title>HS_API_LOGS&#45;&#45;C_API</title>
<path fill="none" stroke="turquoise" d="M1023.5,-349.76C1072.08,-349.76 1119.17,-349.76 1159.72,-349.76"/>
</g>
<!-- HS_MARIADB_PHAIDRA -->
<g id="node5" class="node">
<title>HS_MARIADB_PHAIDRA</title>
<polygon fill="none" stroke="turquoise" points="1103.22,-697.76 1100.22,-701.76 1079.22,-701.76 1076.22,-697.76 244.22,-697.76 244.22,-645.76 1103.22,-645.76 1103.22,-697.76"/>
<text text-anchor="start" x="256.72" y="-679.56" font-family="Times,serif" font-weight="bold" font-size="14.00">host:</text>
<text text-anchor="start" x="458.72" y="-678.56" font-family="Times,serif" font-size="14.00">$HOME/.local/share/docker/volumes/phaidra&#45;external&#45;webserver_mariadb_phaidra/_data</text>
<text text-anchor="start" x="256.72" y="-657.56" font-family="Times,serif" font-size="14.00">mariadb&#45;phaidra&#45;container:</text>
<text text-anchor="start" x="458.72" y="-657.56" font-family="Times,serif" font-size="14.00">/var/lib/mysql</text>
</g>
<!-- C_MARIADB_PHAIDRA -->
<g id="node16" class="node">
<title>C_MARIADB_PHAIDRA</title>
<g id="a_node16"><a xlink:href="https://mariadb.org/" xlink:title="phaidra&#45;external&#45;webserver&#45;mariadb&#45;phaidra&#45;1">
<polygon fill="none" stroke="green" points="1818.22,-421.76 1467.22,-421.76 1467.22,-417.76 1463.22,-417.76 1463.22,-413.76 1467.22,-413.76 1467.22,-393.76 1463.22,-393.76 1463.22,-389.76 1467.22,-389.76 1467.22,-385.76 1818.22,-385.76 1818.22,-421.76"/>
<polyline fill="none" stroke="green" points="1467.22,-417.76 1471.22,-417.76 1471.22,-413.76 1467.22,-413.76 "/>
<polyline fill="none" stroke="green" points="1467.22,-393.76 1471.22,-393.76 1471.22,-389.76 1467.22,-389.76 "/>
<text text-anchor="middle" x="1642.72" y="-400.06" font-family="Times,serif" font-size="14.00">phaidra&#45;external&#45;webserver&#45;mariadb&#45;phaidra&#45;1</text>
</a>
</g>
</g>
<!-- HS_MARIADB_PHAIDRA&#45;&#45;C_MARIADB_PHAIDRA -->
<g id="edge5" class="edge">
<title>HS_MARIADB_PHAIDRA&#45;&#45;C_MARIADB_PHAIDRA</title>
<path fill="none" stroke="turquoise" d="M1103.31,-651.6C1112.48,-647.27 1120.06,-642.35 1125.72,-636.76 1146.84,-615.91 1117.24,-525.23 1137.72,-503.76 1227.53,-409.62 1309.98,-519.12 1427.72,-463.76 1447.36,-454.52 1444.14,-440.13 1463.72,-430.76 1470.77,-427.39 1478.14,-424.41 1485.7,-421.8"/>
</g>
<!-- HS_MONGODB_PHAIDRA -->
<g id="node6" class="node">
<title>HS_MONGODB_PHAIDRA</title>
<polygon fill="none" stroke="turquoise" points="1109.72,-627.76 1106.72,-631.76 1085.72,-631.76 1082.72,-627.76 237.72,-627.76 237.72,-575.76 1109.72,-575.76 1109.72,-627.76"/>
<text text-anchor="start" x="249.72" y="-609.56" font-family="Times,serif" font-weight="bold" font-size="14.00">host:</text>
<text text-anchor="start" x="457.72" y="-608.56" font-family="Times,serif" font-size="14.00">$HOME/.local/share/docker/volumes/phaidra&#45;external&#45;webserver_mongodb_phaidra/_data</text>
<text text-anchor="start" x="249.72" y="-587.56" font-family="Times,serif" font-size="14.00">phaidra&#45;mongodb&#45;container:</text>
<text text-anchor="start" x="457.72" y="-587.56" font-family="Times,serif" font-size="14.00">/data/db</text>
</g>
<!-- C_MONGODB_PHAIDRA -->
<g id="node17" class="node">
<title>C_MONGODB_PHAIDRA</title>
<g id="a_node17"><a xlink:href="https://www.mongodb.com/" xlink:title="phaidra&#45;external&#45;webserver&#45;mongodb&#45;phaidra&#45;1">
<polygon fill="none" stroke="green" points="1821.72,-367.76 1463.72,-367.76 1463.72,-363.76 1459.72,-363.76 1459.72,-359.76 1463.72,-359.76 1463.72,-339.76 1459.72,-339.76 1459.72,-335.76 1463.72,-335.76 1463.72,-331.76 1821.72,-331.76 1821.72,-367.76"/>
<polyline fill="none" stroke="green" points="1463.72,-363.76 1467.72,-363.76 1467.72,-359.76 1463.72,-359.76 "/>
<polyline fill="none" stroke="green" points="1463.72,-339.76 1467.72,-339.76 1467.72,-335.76 1463.72,-335.76 "/>
<text text-anchor="middle" x="1642.72" y="-346.06" font-family="Times,serif" font-size="14.00">phaidra&#45;external&#45;webserver&#45;mongodb&#45;phaidra&#45;1</text>
</a>
</g>
</g>
<!-- HS_MONGODB_PHAIDRA&#45;&#45;C_MONGODB_PHAIDRA -->
<g id="edge6" class="edge">
<title>HS_MONGODB_PHAIDRA&#45;&#45;C_MONGODB_PHAIDRA</title>
<path fill="none" stroke="turquoise" d="M1109.82,-577.81C1116.08,-574.46 1121.42,-570.78 1125.72,-566.76 1152.93,-541.29 1111.73,-510.47 1137.72,-483.76 1228.94,-390.03 1318.98,-506.43 1427.72,-433.76 1452.63,-417.11 1438.64,-393.15 1463.72,-376.76 1468.82,-373.42 1474.18,-370.44 1479.72,-367.77"/>
</g>
<!-- HS_OPENLDAP -->
<g id="node7" class="node">
<title>HS_OPENLDAP</title>
<polygon fill="none" stroke="turquoise" points="1048.22,-767.76 1045.22,-771.76 1024.22,-771.76 1021.22,-767.76 299.22,-767.76 299.22,-715.76 1048.22,-715.76 1048.22,-767.76"/>
<text text-anchor="start" x="311.72" y="-749.56" font-family="Times,serif" font-weight="bold" font-size="14.00">host:</text>
<text text-anchor="start" x="459.72" y="-748.56" font-family="Times,serif" font-size="14.00">$HOME/.local/share/docker/volumes/phaidra&#45;external&#45;webserver_openldap/_data</text>
<text text-anchor="start" x="311.72" y="-727.56" font-family="Times,serif" font-size="14.00">openldap&#45;container:</text>
<text text-anchor="start" x="459.72" y="-727.56" font-family="Times,serif" font-size="14.00">/bitnami/openldap</text>
</g>
<!-- C_OPENLDAP -->
<g id="node19" class="node">
<title>C_OPENLDAP</title>
<g id="a_node19"><a xlink:href="https://www.openldap.org/" xlink:title="phaidra&#45;external&#45;webserver&#45;openldap&#45;1">
<polygon fill="none" stroke="green" points="1791.72,-475.76 1493.72,-475.76 1493.72,-471.76 1489.72,-471.76 1489.72,-467.76 1493.72,-467.76 1493.72,-447.76 1489.72,-447.76 1489.72,-443.76 1493.72,-443.76 1493.72,-439.76 1791.72,-439.76 1791.72,-475.76"/>
<polyline fill="none" stroke="green" points="1493.72,-471.76 1497.72,-471.76 1497.72,-467.76 1493.72,-467.76 "/>
<polyline fill="none" stroke="green" points="1493.72,-447.76 1497.72,-447.76 1497.72,-443.76 1493.72,-443.76 "/>
<text text-anchor="middle" x="1642.72" y="-454.06" font-family="Times,serif" font-size="14.00">phaidra&#45;external&#45;webserver&#45;openldap&#45;1</text>
</a>
</g>
</g>
<!-- HS_OPENLDAP&#45;&#45;C_OPENLDAP -->
<g id="edge7" class="edge">
<title>HS_OPENLDAP&#45;&#45;C_OPENLDAP</title>
<path fill="none" stroke="turquoise" d="M1048.64,-738.47C1083.46,-731.64 1111.16,-721.49 1125.72,-706.76 1154.37,-677.77 1109.7,-553.35 1137.72,-523.76 1182.35,-476.62 1363.37,-497.3 1427.72,-488.76 1457.96,-484.74 1490.56,-480.15 1520.98,-475.76"/>
</g>
<!-- HS_SOLR -->
<g id="node8" class="node">
<title>HS_SOLR</title>
<polygon fill="none" stroke="turquoise" points="1010.22,-445.76 1007.22,-449.76 986.22,-449.76 983.22,-445.76 337.22,-445.76 337.22,-393.76 1010.22,-393.76 1010.22,-445.76"/>
<text text-anchor="start" x="349.72" y="-427.56" font-family="Times,serif" font-weight="bold" font-size="14.00">host:</text>
<text text-anchor="start" x="459.72" y="-426.56" font-family="Times,serif" font-size="14.00">$HOME/.local/share/docker/volumes/phaidra&#45;external&#45;webserver_solr/_data</text>
<text text-anchor="start" x="349.72" y="-405.56" font-family="Times,serif" font-size="14.00">solr&#45;container:</text>
<text text-anchor="start" x="459.72" y="-405.56" font-family="Times,serif" font-size="14.00">/var/solr</text>
</g>
<!-- HS_SOLR&#45;&#45;C_SOLR -->
<g id="edge9" class="edge">
<title>HS_SOLR&#45;&#45;C_SOLR</title>
<path fill="none" stroke="turquoise" d="M1010.47,-417.72C1195.03,-413.58 1393.47,-402.96 1427.72,-376.76 1467.91,-346.02 1425.02,-301.34 1463.72,-268.76 1477.71,-256.98 1494.6,-249.18 1512.33,-244.14"/>
</g>
<!-- HS_PIXELGECKO -->
<g id="node9" class="node">
<title>HS_PIXELGECKO</title>
<polygon fill="none" stroke="turquoise" points="1065.72,-859.26 1062.72,-863.26 1041.72,-863.26 1038.72,-859.26 281.72,-859.26 281.72,-786.26 1065.72,-786.26 1065.72,-859.26"/>
<text text-anchor="start" x="293.72" y="-840.56" font-family="Times,serif" font-weight="bold" font-size="14.00">host:</text>
<text text-anchor="start" x="465.72" y="-839.56" font-family="Times,serif" font-size="14.00">$HOME/.local/share/docker/volumes/phaidra&#45;external&#45;webserver_pixelgecko/_data</text>
<text text-anchor="start" x="293.72" y="-818.56" font-family="Times,serif" font-size="14.00">pixelgecko&#45;container:</text>
<text text-anchor="start" x="465.72" y="-818.56" font-family="Times,serif" font-size="14.00">/mnt/converted_images</text>
<text text-anchor="start" x="293.72" y="-797.56" font-family="Times,serif" font-size="14.00">imageserver&#45;container:</text>
<text text-anchor="start" x="465.72" y="-797.56" font-family="Times,serif" font-size="14.00">/mnt/converted_images:ro</text>
</g>
<!-- C_IMAGESERVER -->
<g id="node21" class="node">
<title>C_IMAGESERVER</title>
<g id="a_node21"><a xlink:href="https://github.com/ruven/iipsrv" xlink:title="phaidra&#45;external&#45;webserver&#45;imageserver&#45;1">
<polygon fill="none" stroke="green" points="1803.72,-529.76 1481.72,-529.76 1481.72,-525.76 1477.72,-525.76 1477.72,-521.76 1481.72,-521.76 1481.72,-501.76 1477.72,-501.76 1477.72,-497.76 1481.72,-497.76 1481.72,-493.76 1803.72,-493.76 1803.72,-529.76"/>
<polyline fill="none" stroke="green" points="1481.72,-525.76 1485.72,-525.76 1485.72,-521.76 1481.72,-521.76 "/>
<polyline fill="none" stroke="green" points="1481.72,-501.76 1485.72,-501.76 1485.72,-497.76 1481.72,-497.76 "/>
<text text-anchor="middle" x="1642.72" y="-508.06" font-family="Times,serif" font-size="14.00">phaidra&#45;external&#45;webserver&#45;imageserver&#45;1</text>
</a>
</g>
</g>
<!-- HS_PIXELGECKO&#45;&#45;C_IMAGESERVER -->
<g id="edge10" class="edge">
<title>HS_PIXELGECKO&#45;&#45;C_IMAGESERVER</title>
<path fill="none" stroke="turquoise" d="M1065.9,-817.74C1087.64,-807.13 1107.86,-793.66 1125.72,-776.76 1150.56,-753.25 1116.11,-727.25 1137.72,-700.76 1221.83,-597.66 1368.27,-550.78 1481.7,-529.48"/>
</g>
<!-- HS_PIXELGECKO&#45;&#45;C_PIXELGECKO -->
<g id="edge12" class="edge">
<title>HS_PIXELGECKO&#45;&#45;C_PIXELGECKO</title>
<path fill="none" stroke="turquoise" d="M1065.89,-787.34C1086.18,-784.1 1106.22,-780.58 1125.72,-776.76 1457.66,-711.65 1843.32,-578.28 1978.16,-529.84"/>
</g>
<!-- HS_DBGATE -->
<g id="node10" class="node">
<title>HS_DBGATE</title>
<polygon fill="none" stroke="turquoise" points="1033.22,-305.76 1030.22,-309.76 1009.22,-309.76 1006.22,-305.76 314.22,-305.76 314.22,-253.76 1033.22,-253.76 1033.22,-305.76"/>
<text text-anchor="start" x="326.72" y="-287.56" font-family="Times,serif" font-weight="bold" font-size="14.00">host:</text>
<text text-anchor="start" x="459.72" y="-286.56" font-family="Times,serif" font-size="14.00">$HOME/.local/share/docker/volumes/phaidra&#45;external&#45;webserver_dbgate/_data</text>
<text text-anchor="start" x="326.72" y="-265.56" font-family="Times,serif" font-size="14.00">dbgate&#45;container:</text>
<text text-anchor="start" x="459.72" y="-265.56" font-family="Times,serif" font-size="14.00">/root/.dbgate</text>
</g>
<!-- HS_DBGATE&#45;&#45;C_DBGATE -->
<g id="edge13" class="edge">
<title>HS_DBGATE&#45;&#45;C_DBGATE</title>
<path fill="none" stroke="turquoise" d="M1033.24,-279.76C1072.77,-279.76 1111.09,-279.76 1145.42,-279.76"/>
</g>
<!-- HS_MARIADB_FEDORA -->
<g id="node11" class="node">
<title>HS_MARIADB_FEDORA</title>
<polygon fill="none" stroke="turquoise" points="1094.22,-929.76 1091.22,-933.76 1070.22,-933.76 1067.22,-929.76 253.22,-929.76 253.22,-877.76 1094.22,-877.76 1094.22,-929.76"/>
<text text-anchor="start" x="265.72" y="-911.56" font-family="Times,serif" font-weight="bold" font-size="14.00">host:</text>
<text text-anchor="start" x="458.72" y="-910.56" font-family="Times,serif" font-size="14.00">$HOME/.local/share/docker/volumes/phaidra&#45;external&#45;webserver_mariadb_fedora/_data</text>
<text text-anchor="start" x="265.72" y="-889.56" font-family="Times,serif" font-size="14.00">mariadb&#45;fedora&#45;container:</text>
<text text-anchor="start" x="458.72" y="-889.56" font-family="Times,serif" font-size="14.00">/var/lib/mysql</text>
</g>
<!-- C_MARIADB_FEDORA -->
<g id="node25" class="node">
<title>C_MARIADB_FEDORA</title>
<g id="a_node25"><a xlink:href="https://mariadb.org/" xlink:title="phaidra&#45;external&#45;webserver&#45;mariadb&#45;fedora&#45;1">
<polygon fill="none" stroke="green" points="2199.72,-313.76 1857.72,-313.76 1857.72,-309.76 1853.72,-309.76 1853.72,-305.76 1857.72,-305.76 1857.72,-285.76 1853.72,-285.76 1853.72,-281.76 1857.72,-281.76 1857.72,-277.76 2199.72,-277.76 2199.72,-313.76"/>
<polyline fill="none" stroke="green" points="1857.72,-309.76 1861.72,-309.76 1861.72,-305.76 1857.72,-305.76 "/>
<polyline fill="none" stroke="green" points="1857.72,-285.76 1861.72,-285.76 1861.72,-281.76 1857.72,-281.76 "/>
<text text-anchor="middle" x="2028.72" y="-292.06" font-family="Times,serif" font-size="14.00">phaidra&#45;external&#45;webserver&#45;mariadb&#45;fedora&#45;1</text>
</a>
</g>
</g>
<!-- HS_MARIADB_FEDORA&#45;&#45;C_MARIADB_FEDORA -->
<g id="edge14" class="edge">
<title>HS_MARIADB_FEDORA&#45;&#45;C_MARIADB_FEDORA</title>
<path fill="none" stroke="turquoise" d="M1088.35,-877.74C1101,-875 1113.48,-872.01 1125.72,-868.76 1456.55,-780.72 1562.72,-762.63 1821.72,-538.76 1843.54,-519.9 1840.03,-507.54 1857.72,-484.76 1909.15,-418.53 1977.88,-346.5 2009.91,-313.76"/>
</g>
<!-- BIND_MARIADB_PHAIDRA_INIT -->
<g id="node12" class="node">
<title>BIND_MARIADB_PHAIDRA_INIT</title>
<polygon fill="none" stroke="blue" points="988.72,-136.76 985.72,-140.76 964.72,-140.76 961.72,-136.76 358.72,-136.76 358.72,-84.76 988.72,-84.76 988.72,-136.76"/>
<text text-anchor="start" x="370.72" y="-118.56" font-family="Times,serif" font-weight="bold" font-size="14.00">host:</text>
<text text-anchor="start" x="572.72" y="-117.56" font-family="Times,serif" font-size="14.00">$REPO/container_components/mariadb/phaidradb.sql.gz</text>
<text text-anchor="start" x="370.72" y="-96.56" font-family="Times,serif" font-size="14.00">mariadb&#45;phaidra&#45;container:</text>
<text text-anchor="start" x="572.72" y="-96.56" font-family="Times,serif" font-size="14.00">/docker&#45;entrypoint&#45;initdb.d/phaidradb.sql.gz:ro</text>
</g>
<!-- BIND_MARIADB_PHAIDRA_INIT&#45;&#45;C_MARIADB_PHAIDRA -->
<g id="edge4" class="edge">
<title>BIND_MARIADB_PHAIDRA_INIT&#45;&#45;C_MARIADB_PHAIDRA</title>
<path fill="none" stroke="blue" d="M988.87,-105.64C1050.87,-111.26 1103.66,-123.12 1125.72,-145.76 1143.66,-164.16 1119.56,-358.57 1137.72,-376.76 1138.47,-377.51 1321.89,-387.19 1467.21,-394.74"/>
</g>
<!-- BIND_OPENLDAP_INIT -->
<g id="node13" class="node">
<title>BIND_OPENLDAP_INIT</title>
<polygon fill="none" stroke="blue" points="902.72,-206.76 899.72,-210.76 878.72,-210.76 875.72,-206.76 444.72,-206.76 444.72,-154.76 902.72,-154.76 902.72,-206.76"/>
<text text-anchor="start" x="456.72" y="-188.56" font-family="Times,serif" font-weight="bold" font-size="14.00">host:</text>
<text text-anchor="start" x="604.72" y="-187.56" font-family="Times,serif" font-size="14.00">$REPO/container_components/openldap</text>
<text text-anchor="start" x="456.72" y="-166.56" font-family="Times,serif" font-size="14.00">openldap&#45;container:</text>
<text text-anchor="start" x="604.72" y="-166.56" font-family="Times,serif" font-size="14.00">/ldifs:ro</text>
</g>
<!-- BIND_OPENLDAP_INIT&#45;&#45;C_OPENLDAP -->
<g id="edge8" class="edge">
<title>BIND_OPENLDAP_INIT&#45;&#45;C_OPENLDAP</title>
<path fill="none" stroke="blue" d="M902.87,-156.6C984.01,-160.76 1069.17,-182 1125.72,-241.76 1148.86,-266.21 1114.51,-368.38 1137.72,-392.76 1185.25,-442.67 1362.52,-455.87 1493.44,-458.58"/>
</g>
<!-- C_FEDORA&#45;&#45;C_MARIADB_FEDORA -->
<g id="edge15" class="edge">
<title>C_FEDORA&#45;&#45;C_MARIADB_FEDORA</title>
<path fill="none" stroke="orange" d="M1781.81,-295.76C1806.32,-295.76 1832.11,-295.76 1857.39,-295.76"/>
</g>
<!-- C_API&#45;&#45;C_FEDORA -->
<g id="edge16" class="edge">
<title>C_API&#45;&#45;C_FEDORA</title>
<path fill="none" stroke="orange" d="M1405.11,-331.72C1424.68,-328.72 1444.78,-325.65 1463.72,-322.76 1482.72,-319.86 1502.87,-316.79 1522.51,-313.81"/>
</g>
<!-- C_API&#45;&#45;C_MARIADB_PHAIDRA -->
<g id="edge17" class="edge">
<title>C_API&#45;&#45;C_MARIADB_PHAIDRA</title>
<path fill="none" stroke="orange" d="M1405.11,-367.79C1424.68,-370.79 1444.78,-373.87 1463.72,-376.76 1482.72,-379.66 1502.87,-382.72 1522.51,-385.7"/>
</g>
<!-- C_API&#45;&#45;C_MONGODB_PHAIDRA -->
<g id="edge18" class="edge">
<title>C_API&#45;&#45;C_MONGODB_PHAIDRA</title>
<path fill="none" stroke="orange" d="M1414.02,-349.76C1430.11,-349.76 1446.8,-349.76 1463.51,-349.76"/>
</g>
<!-- C_API&#45;&#45;C_UI -->
<g id="edge19" class="edge">
<title>C_API&#45;&#45;C_UI</title>
<path fill="none" stroke="orange" d="M1386.79,-331.72C1401.77,-325.66 1416.07,-317.57 1427.72,-306.76 1459.91,-276.9 1429.42,-242.17 1463.72,-214.76 1479.72,-201.98 1499.18,-193.97 1519.29,-189.13"/>
</g>
<!-- C_API&#45;&#45;C_OPENLDAP -->
<g id="edge20" class="edge">
<title>C_API&#45;&#45;C_OPENLDAP</title>
<path fill="none" stroke="orange" d="M1319.73,-367.83C1354.21,-386.49 1411.2,-415.03 1463.72,-430.76 1474.95,-434.12 1486.71,-437.08 1498.6,-439.67"/>
</g>
<!-- C_API&#45;&#45;C_SOLR -->
<g id="edge21" class="edge">
<title>C_API&#45;&#45;C_SOLR</title>
<path fill="none" stroke="orange" d="M1371.47,-331.7C1390.79,-325.49 1410.65,-317.35 1427.72,-306.76 1447.49,-294.49 1443.1,-279.53 1463.72,-268.76 1478.82,-260.87 1495.56,-255.12 1512.55,-250.95"/>
</g>
<!-- C_API&#45;&#45;C_IMAGESERVER -->
<g id="edge22" class="edge">
<title>C_API&#45;&#45;C_IMAGESERVER</title>
<path fill="none" stroke="orange" d="M1305.22,-368.23C1334.77,-398.15 1397.82,-456.7 1463.72,-484.76 1471.63,-488.12 1479.89,-491.08 1488.35,-493.67"/>
</g>
<!-- C_MONGODB_PHAIDRA&#45;&#45;C_PIXELGECKO -->
<g id="edge23" class="edge">
<title>C_MONGODB_PHAIDRA&#45;&#45;C_PIXELGECKO</title>
<path fill="none" stroke="orange" d="M1794.02,-367.77C1803.51,-370.37 1812.82,-373.35 1821.72,-376.76 1896.21,-405.25 1971.5,-463.88 2006.89,-493.61"/>
</g>
<!-- C_OPENLDAP&#45;&#45;C_LAM -->
<g id="edge24" class="edge">
<title>C_OPENLDAP&#45;&#45;C_LAM</title>
<path fill="none" stroke="orange" d="M1791.81,-450.19C1802.75,-445.33 1812.93,-438.97 1821.72,-430.76 1875.62,-380.41 1809.38,-324.47 1857.72,-268.76 1876.84,-246.73 1904.34,-232.26 1931.66,-222.77"/>
</g>
<!-- C_DBGATE&#45;&#45;C_MARIADB_PHAIDRA -->
<g id="edge25" class="edge">
<title>C_DBGATE&#45;&#45;C_MARIADB_PHAIDRA</title>
<path fill="none" stroke="orange" d="M1378.71,-297.77C1396.03,-303.86 1413.25,-311.97 1427.72,-322.76 1450.85,-339.99 1439.39,-361.27 1463.72,-376.76 1468.86,-380.03 1474.26,-382.96 1479.83,-385.58"/>
</g>
<!-- C_DBGATE&#45;&#45;C_MONGODB_PHAIDRA -->
<g id="edge26" class="edge">
<title>C_DBGATE&#45;&#45;C_MONGODB_PHAIDRA</title>
<path fill="none" stroke="orange" d="M1355.53,-297.82C1388.09,-306.11 1427.77,-315.65 1463.72,-322.76 1479.82,-325.94 1496.8,-328.95 1513.63,-331.73"/>
</g>
<!-- C_DBGATE&#45;&#45;C_MARIADB_FEDORA -->
<g id="edge27" class="edge">
<title>C_DBGATE&#45;&#45;C_MARIADB_FEDORA</title>
<path fill="none" stroke="orange" d="M1422.43,-261.75C1424.24,-260.49 1426.01,-259.16 1427.72,-257.76 1463.31,-228.64 1425.97,-187.01 1463.72,-160.76 1480.05,-149.4 1804.77,-150.35 1821.72,-160.76 1851.87,-179.27 1831.38,-208.14 1857.72,-231.76 1881.91,-253.44 1914.15,-268.03 1944.06,-277.73"/>
</g>
</g>
</svg>
