<?xml version="1.0" encoding="UTF-8" standalone="no"?>
<!DOCTYPE svg PUBLIC "-//W3C//DTD SVG 1.1//EN"
 "http://www.w3.org/Graphics/SVG/1.1/DTD/svg11.dtd">
<!-- Generated by graphviz version 2.43.0 (0)
 -->
<!-- Title: G Pages: 1 -->
<svg width="1762pt" height="2197pt"
 viewBox="0.00 0.00 1761.72 2196.85" xmlns="http://www.w3.org/2000/svg" xmlns:xlink="http://www.w3.org/1999/xlink">
<g id="graph0" class="graph" transform="scale(1 1) rotate(0) translate(4 2192.85)">
<title>G</title>
<polygon fill="white" stroke="transparent" points="-4,4 -4,-2192.85 1757.72,-2192.85 1757.72,4 -4,4"/>
<g id="clust1" class="cluster">
<title>cluster_host</title>
<polygon fill="none" stroke="red" points="221.72,-29.85 221.72,-2180.85 1745.72,-2180.85 1745.72,-29.85 221.72,-29.85"/>
<text text-anchor="middle" x="983.72" y="-2165.65" font-family="Times,serif" font-size="14.00">PHAIDRA server firewall</text>
</g>
<g id="clust2" class="cluster">
<title>cluster_host_storage</title>
<polygon fill="none" stroke="blue" points="427.72,-504.85 427.72,-2149.85 1211.72,-2149.85 1211.72,-504.85 427.72,-504.85"/>
<text text-anchor="middle" x="819.72" y="-2134.65" font-family="Times,serif" font-size="14.00">PHAIDRA server filesystem</text>
</g>
<g id="clust3" class="cluster">
<title>cluster_named_volumes</title>
<polygon fill="none" stroke="turquoise" points="435.72,-1171.85 435.72,-2118.85 1203.72,-2118.85 1203.72,-1171.85 435.72,-1171.85"/>
<text text-anchor="middle" x="819.72" y="-2103.65" font-family="Times,serif" font-size="14.00">Named volumes</text>
</g>
<g id="clust4" class="cluster">
<title>cluster_bind_mounts</title>
<polygon fill="none" stroke="blue" points="527.22,-512.85 527.22,-1163.85 1112.22,-1163.85 1112.22,-512.85 527.22,-512.85"/>
<text text-anchor="middle" x="819.72" y="-1148.65" font-family="Times,serif" font-size="14.00">Bind mounts</text>
</g>
<g id="clust5" class="cluster">
<title>cluster_docker_network_host</title>
<polygon fill="none" stroke="green" points="229.72,-37.85 229.72,-496.85 1737.72,-496.85 1737.72,-37.85 229.72,-37.85"/>
<text text-anchor="middle" x="983.72" y="-481.65" font-family="Times,serif" font-size="14.00">PHAIDRA docker containers</text>
</g>
<!-- USER -->
<g id="node1" class="node">
<title>USER</title>
<polygon fill="none" stroke="black" points="193.59,-286.39 193.59,-301.3 139.27,-311.85 62.45,-311.85 8.13,-301.3 8.13,-286.39 62.45,-275.85 139.27,-275.85 193.59,-286.39"/>
<polygon fill="none" stroke="black" points="197.59,-283.09 197.59,-304.6 139.66,-315.85 62.07,-315.85 4.13,-304.6 4.13,-283.09 62.07,-271.85 139.66,-271.85 197.59,-283.09"/>
<polygon fill="none" stroke="black" points="201.58,-279.79 201.58,-307.9 140.04,-319.85 61.68,-319.85 0.14,-307.9 0.14,-279.79 61.68,-267.85 140.04,-267.85 201.58,-279.79"/>
<text text-anchor="middle" x="100.86" y="-290.15" font-family="Times,serif" font-size="14.00">PHAIDRA USER</text>
</g>
<!-- WEBSERVER -->
<g id="node36" class="node">
<title>WEBSERVER</title>
<polygon fill="none" stroke="green" points="398.72,-311.85 246.72,-311.85 246.72,-307.85 242.72,-307.85 242.72,-303.85 246.72,-303.85 246.72,-283.85 242.72,-283.85 242.72,-279.85 246.72,-279.85 246.72,-275.85 398.72,-275.85 398.72,-311.85"/>
<polyline fill="none" stroke="green" points="246.72,-307.85 250.72,-307.85 250.72,-303.85 246.72,-303.85 "/>
<polyline fill="none" stroke="green" points="246.72,-283.85 250.72,-283.85 250.72,-279.85 246.72,-279.85 "/>
<text text-anchor="middle" x="322.72" y="-290.15" font-family="Times,serif" font-size="14.00">phaidra&#45;ssl&#45;httpd&#45;1</text>
</g>
<!-- USER&#45;&#45;WEBSERVER -->
<g id="edge50" class="edge">
<title>USER&#45;&#45;WEBSERVER</title>
<path fill="none" stroke="red" d="M201.82,-293.85C216.91,-293.85 232.25,-293.85 246.69,-293.85"/>
</g>
<!-- HS_FEDORA -->
<g id="node2" class="node">
<title>HS_FEDORA</title>
<polygon fill="none" stroke="turquoise" points="1130.72,-1855.85 1127.72,-1859.85 1106.72,-1859.85 1103.72,-1855.85 508.72,-1855.85 508.72,-1761.85 1130.72,-1761.85 1130.72,-1855.85"/>
<text text-anchor="start" x="520.72" y="-1837.65" font-family="Times,serif" font-weight="bold" font-size="14.00">host:</text>
<text text-anchor="start" x="679.72" y="-1836.65" font-family="Times,serif" font-size="14.00">$HOME/.local/share/docker/volumes/phaidra&#45;ssl_fedora/_data</text>
<text text-anchor="start" x="520.72" y="-1815.65" font-family="Times,serif" font-size="14.00">fedora&#45;container:</text>
<text text-anchor="start" x="679.72" y="-1815.65" font-family="Times,serif" font-size="14.00">/usr/local/tomcat/fcrepo&#45;home</text>
<text text-anchor="start" x="520.72" y="-1794.65" font-family="Times,serif" font-size="14.00">pixelgecko&#45;container:</text>
<text text-anchor="start" x="679.72" y="-1794.65" font-family="Times,serif" font-size="14.00"> /mnt/fedora:ro</text>
<text text-anchor="start" x="520.72" y="-1773.65" font-family="Times,serif" font-size="14.00">api&#45;container:</text>
<text text-anchor="start" x="679.72" y="-1773.65" font-family="Times,serif" font-size="14.00"> /mnt/fedora:ro</text>
</g>
<!-- C_FEDORA -->
<g id="node23" class="node">
<title>C_FEDORA</title>
<g id="a_node23"><a xlink:href="https://fedora.lyrasis.org/" xlink:title="phaidra&#45;ssl&#45;fedora&#45;1">
<polygon fill="none" stroke="green" points="1430.72,-249.85 1271.72,-249.85 1271.72,-245.85 1267.72,-245.85 1267.72,-241.85 1271.72,-241.85 1271.72,-221.85 1267.72,-221.85 1267.72,-217.85 1271.72,-217.85 1271.72,-213.85 1430.72,-213.85 1430.72,-249.85"/>
<polyline fill="none" stroke="green" points="1271.72,-245.85 1275.72,-245.85 1275.72,-241.85 1271.72,-241.85 "/>
<polyline fill="none" stroke="green" points="1271.72,-221.85 1275.72,-221.85 1275.72,-217.85 1271.72,-217.85 "/>
<text text-anchor="middle" x="1351.22" y="-228.15" font-family="Times,serif" font-size="14.00">phaidra&#45;ssl&#45;fedora&#45;1</text>
</a>
</g>
</g>
<!-- HS_FEDORA&#45;&#45;C_FEDORA -->
<g id="edge1" class="edge">
<title>HS_FEDORA&#45;&#45;C_FEDORA</title>
<path fill="none" stroke="turquoise" d="M1130.72,-1807.72C1161.53,-1795.72 1189.54,-1778.09 1211.72,-1752.85 1266.52,-1690.49 1179.52,-323.39 1231.72,-258.85 1241.74,-246.46 1256.16,-239.03 1271.5,-234.71"/>
</g>
<!-- C_API -->
<g id="node24" class="node">
<title>C_API</title>
<g id="a_node24"><a xlink:href="https://github.com/phaidra/phaidra-api" xlink:title="phaidra&#45;ssl&#45;api&#45;1">
<polygon fill="none" stroke="green" points="887.22,-357.85 752.22,-357.85 752.22,-353.85 748.22,-353.85 748.22,-349.85 752.22,-349.85 752.22,-329.85 748.22,-329.85 748.22,-325.85 752.22,-325.85 752.22,-321.85 887.22,-321.85 887.22,-357.85"/>
<polyline fill="none" stroke="green" points="752.22,-353.85 756.22,-353.85 756.22,-349.85 752.22,-349.85 "/>
<polyline fill="none" stroke="green" points="752.22,-329.85 756.22,-329.85 756.22,-325.85 752.22,-325.85 "/>
<text text-anchor="middle" x="819.72" y="-336.15" font-family="Times,serif" font-size="14.00">phaidra&#45;ssl&#45;api&#45;1</text>
</a>
</g>
</g>
<!-- HS_FEDORA&#45;&#45;C_API -->
<g id="edge3" class="edge">
<title>HS_FEDORA&#45;&#45;C_API</title>
<path fill="none" stroke="turquoise" d="M508.72,-1822.76C468.86,-1808.74 435.7,-1784.21 417.72,-1743.85 410.79,-1728.29 410.79,-533.4 417.72,-517.85 474.16,-391.12 653.09,-354.62 752.13,-344.1"/>
</g>
<!-- C_PIXELGECKO -->
<g id="node31" class="node">
<title>C_PIXELGECKO</title>
<polygon fill="none" stroke="green" points="1712.72,-465.85 1523.72,-465.85 1523.72,-461.85 1519.72,-461.85 1519.72,-457.85 1523.72,-457.85 1523.72,-437.85 1519.72,-437.85 1519.72,-433.85 1523.72,-433.85 1523.72,-429.85 1712.72,-429.85 1712.72,-465.85"/>
<polyline fill="none" stroke="green" points="1523.72,-461.85 1527.72,-461.85 1527.72,-457.85 1523.72,-457.85 "/>
<polyline fill="none" stroke="green" points="1523.72,-437.85 1527.72,-437.85 1527.72,-433.85 1523.72,-433.85 "/>
<text text-anchor="middle" x="1618.22" y="-444.15" font-family="Times,serif" font-size="14.00">phaidra&#45;ssl&#45;pixelgecko&#45;1</text>
</g>
<!-- HS_FEDORA&#45;&#45;C_PIXELGECKO -->
<g id="edge15" class="edge">
<title>HS_FEDORA&#45;&#45;C_PIXELGECKO</title>
<path fill="none" stroke="turquoise" d="M1130.89,-1798.58C1160.32,-1787.9 1187.98,-1773.09 1211.72,-1752.85 1225.15,-1741.4 1564.09,-623.3 1611.69,-466.12"/>
</g>
<!-- HS_API_LOGS -->
<g id="node3" class="node">
<title>HS_API_LOGS</title>
<polygon fill="none" stroke="turquoise" points="1109.72,-2017.85 1106.72,-2021.85 1085.72,-2021.85 1082.72,-2017.85 529.72,-2017.85 529.72,-1965.85 1109.72,-1965.85 1109.72,-2017.85"/>
<text text-anchor="start" x="541.72" y="-1999.65" font-family="Times,serif" font-weight="bold" font-size="14.00">host:</text>
<text text-anchor="start" x="646.72" y="-1998.65" font-family="Times,serif" font-size="14.00">$HOME/.local/share/docker/volumes/phaidra&#45;ssl_api_logs/_data</text>
<text text-anchor="start" x="541.72" y="-1977.65" font-family="Times,serif" font-size="14.00">api&#45;container:</text>
<text text-anchor="start" x="646.72" y="-1977.65" font-family="Times,serif" font-size="14.00">/var/log/phaidra</text>
</g>
<!-- HS_API_LOGS&#45;&#45;C_API -->
<g id="edge2" class="edge">
<title>HS_API_LOGS&#45;&#45;C_API</title>
<path fill="none" stroke="turquoise" d="M529.72,-1994.75C474.06,-1987.85 429.33,-1973.9 417.72,-1947.85 409.64,-1929.7 409.64,-535.99 417.72,-517.85 474.16,-391.12 653.09,-354.62 752.13,-344.1"/>
</g>
<!-- HS_MARIADB_PHAIDRA -->
<g id="node4" class="node">
<title>HS_MARIADB_PHAIDRA</title>
<polygon fill="none" stroke="turquoise" points="1189.72,-1603.85 1186.72,-1607.85 1165.72,-1607.85 1162.72,-1603.85 449.72,-1603.85 449.72,-1551.85 1189.72,-1551.85 1189.72,-1603.85"/>
<text text-anchor="start" x="461.72" y="-1585.65" font-family="Times,serif" font-weight="bold" font-size="14.00">host:</text>
<text text-anchor="start" x="663.72" y="-1584.65" font-family="Times,serif" font-size="14.00">$HOME/.local/share/docker/volumes/phaidra&#45;ssl_mariadb_phaidra/_data</text>
<text text-anchor="start" x="461.72" y="-1563.65" font-family="Times,serif" font-size="14.00">mariadb&#45;phaidra&#45;container:</text>
<text text-anchor="start" x="663.72" y="-1563.65" font-family="Times,serif" font-size="14.00">/var/lib/mysql</text>
</g>
<!-- C_MARIADB_PHAIDRA -->
<g id="node25" class="node">
<title>C_MARIADB_PHAIDRA</title>
<g id="a_node25"><a xlink:href="https://mariadb.org/" xlink:title="phaidra&#45;ssl&#45;mariadb&#45;phaidra&#45;1">
<polygon fill="none" stroke="green" points="1467.22,-195.85 1235.22,-195.85 1235.22,-191.85 1231.22,-191.85 1231.22,-187.85 1235.22,-187.85 1235.22,-167.85 1231.22,-167.85 1231.22,-163.85 1235.22,-163.85 1235.22,-159.85 1467.22,-159.85 1467.22,-195.85"/>
<polyline fill="none" stroke="green" points="1235.22,-191.85 1239.22,-191.85 1239.22,-187.85 1235.22,-187.85 "/>
<polyline fill="none" stroke="green" points="1235.22,-167.85 1239.22,-167.85 1239.22,-163.85 1235.22,-163.85 "/>
<text text-anchor="middle" x="1351.22" y="-174.15" font-family="Times,serif" font-size="14.00">phaidra&#45;ssl&#45;mariadb&#45;phaidra&#45;1</text>
</a>
</g>
</g>
<!-- HS_MARIADB_PHAIDRA&#45;&#45;C_MARIADB_PHAIDRA -->
<g id="edge6" class="edge">
<title>HS_MARIADB_PHAIDRA&#45;&#45;C_MARIADB_PHAIDRA</title>
<path fill="none" stroke="turquoise" d="M934.13,-1603.89C1023.14,-1616.92 1143.1,-1616.77 1211.72,-1542.85 1262.3,-1488.36 1184.93,-262.61 1231.72,-204.85 1234.38,-201.57 1237.34,-198.64 1240.55,-196.02"/>
</g>
<!-- HS_MONGODB_PHAIDRA -->
<g id="node5" class="node">
<title>HS_MONGODB_PHAIDRA</title>
<polygon fill="none" stroke="turquoise" points="1195.72,-1463.85 1192.72,-1467.85 1171.72,-1467.85 1168.72,-1463.85 443.72,-1463.85 443.72,-1411.85 1195.72,-1411.85 1195.72,-1463.85"/>
<text text-anchor="start" x="455.72" y="-1445.65" font-family="Times,serif" font-weight="bold" font-size="14.00">host:</text>
<text text-anchor="start" x="663.72" y="-1444.65" font-family="Times,serif" font-size="14.00">$HOME/.local/share/docker/volumes/phaidra&#45;ssl_mongodb_phaidra/_data</text>
<text text-anchor="start" x="455.72" y="-1423.65" font-family="Times,serif" font-size="14.00">phaidra&#45;mongodb&#45;container:</text>
<text text-anchor="start" x="663.72" y="-1423.65" font-family="Times,serif" font-size="14.00">/data/db</text>
</g>
<!-- C_MONGODB_PHAIDRA -->
<g id="node26" class="node">
<title>C_MONGODB_PHAIDRA</title>
<g id="a_node26"><a xlink:href="https://www.mongodb.com/" xlink:title="phaidra&#45;ssl&#45;mongodb&#45;phaidra&#45;1">
<polygon fill="none" stroke="green" points="1470.72,-357.85 1231.72,-357.85 1231.72,-353.85 1227.72,-353.85 1227.72,-349.85 1231.72,-349.85 1231.72,-329.85 1227.72,-329.85 1227.72,-325.85 1231.72,-325.85 1231.72,-321.85 1470.72,-321.85 1470.72,-357.85"/>
<polyline fill="none" stroke="green" points="1231.72,-353.85 1235.72,-353.85 1235.72,-349.85 1231.72,-349.85 "/>
<polyline fill="none" stroke="green" points="1231.72,-329.85 1235.72,-329.85 1235.72,-325.85 1231.72,-325.85 "/>
<text text-anchor="middle" x="1351.22" y="-336.15" font-family="Times,serif" font-size="14.00">phaidra&#45;ssl&#45;mongodb&#45;phaidra&#45;1</text>
</a>
</g>
</g>
<!-- HS_MONGODB_PHAIDRA&#45;&#45;C_MONGODB_PHAIDRA -->
<g id="edge7" class="edge">
<title>HS_MONGODB_PHAIDRA&#45;&#45;C_MONGODB_PHAIDRA</title>
<path fill="none" stroke="turquoise" d="M934.5,-1463.87C1023.41,-1476.79 1143.05,-1476.5 1211.72,-1402.85 1250.98,-1360.74 1195.39,-411.5 1231.72,-366.85 1234.39,-363.57 1237.36,-360.65 1240.57,-358.03"/>
</g>
<!-- HS_OPENLDAP -->
<g id="node6" class="node">
<title>HS_OPENLDAP</title>
<polygon fill="none" stroke="turquoise" points="1134.72,-1743.85 1131.72,-1747.85 1110.72,-1747.85 1107.72,-1743.85 504.72,-1743.85 504.72,-1691.85 1134.72,-1691.85 1134.72,-1743.85"/>
<text text-anchor="start" x="516.72" y="-1725.65" font-family="Times,serif" font-weight="bold" font-size="14.00">host:</text>
<text text-anchor="start" x="664.72" y="-1724.65" font-family="Times,serif" font-size="14.00">$HOME/.local/share/docker/volumes/phaidra&#45;ssl_openldap/_data</text>
<text text-anchor="start" x="516.72" y="-1703.65" font-family="Times,serif" font-size="14.00">openldap&#45;container:</text>
<text text-anchor="start" x="664.72" y="-1703.65" font-family="Times,serif" font-size="14.00">/bitnami/openldap</text>
</g>
<!-- C_OPENLDAP -->
<g id="node28" class="node">
<title>C_OPENLDAP</title>
<g id="a_node28"><a xlink:href="https://www.openldap.org/" xlink:title="phaidra&#45;ssl&#45;openldap&#45;1">
<polygon fill="none" stroke="green" points="1440.72,-411.85 1261.72,-411.85 1261.72,-407.85 1257.72,-407.85 1257.72,-403.85 1261.72,-403.85 1261.72,-383.85 1257.72,-383.85 1257.72,-379.85 1261.72,-379.85 1261.72,-375.85 1440.72,-375.85 1440.72,-411.85"/>
<polyline fill="none" stroke="green" points="1261.72,-407.85 1265.72,-407.85 1265.72,-403.85 1261.72,-403.85 "/>
<polyline fill="none" stroke="green" points="1261.72,-383.85 1265.72,-383.85 1265.72,-379.85 1261.72,-379.85 "/>
<text text-anchor="middle" x="1351.22" y="-390.15" font-family="Times,serif" font-size="14.00">phaidra&#45;ssl&#45;openldap&#45;1</text>
</a>
</g>
</g>
<!-- HS_OPENLDAP&#45;&#45;C_OPENLDAP -->
<g id="edge10" class="edge">
<title>HS_OPENLDAP&#45;&#45;C_OPENLDAP</title>
<path fill="none" stroke="turquoise" d="M934.12,-1743.87C1023.11,-1756.89 1143.06,-1756.74 1211.72,-1682.85 1259.45,-1631.48 1187.56,-475.31 1231.72,-420.85 1239.56,-411.18 1250.08,-404.53 1261.63,-400.03"/>
</g>
<!-- HS_SOLR -->
<g id="node7" class="node">
<title>HS_SOLR</title>
<polygon fill="none" stroke="turquoise" points="1096.72,-1673.85 1093.72,-1677.85 1072.72,-1677.85 1069.72,-1673.85 542.72,-1673.85 542.72,-1621.85 1096.72,-1621.85 1096.72,-1673.85"/>
<text text-anchor="start" x="554.72" y="-1655.65" font-family="Times,serif" font-weight="bold" font-size="14.00">host:</text>
<text text-anchor="start" x="664.72" y="-1654.65" font-family="Times,serif" font-size="14.00">$HOME/.local/share/docker/volumes/phaidra&#45;ssl_solr/_data</text>
<text text-anchor="start" x="554.72" y="-1633.65" font-family="Times,serif" font-size="14.00">solr&#45;container:</text>
<text text-anchor="start" x="664.72" y="-1633.65" font-family="Times,serif" font-size="14.00">/var/solr</text>
</g>
<!-- C_SOLR -->
<g id="node29" class="node">
<title>C_SOLR</title>
<g id="a_node29"><a xlink:href="https://solr.apache.org/" xlink:title="phaidra&#45;ssl&#45;solr&#45;1">
<polygon fill="none" stroke="green" points="1421.22,-303.85 1281.22,-303.85 1281.22,-299.85 1277.22,-299.85 1277.22,-295.85 1281.22,-295.85 1281.22,-275.85 1277.22,-275.85 1277.22,-271.85 1281.22,-271.85 1281.22,-267.85 1421.22,-267.85 1421.22,-303.85"/>
<polyline fill="none" stroke="green" points="1281.22,-299.85 1285.22,-299.85 1285.22,-295.85 1281.22,-295.85 "/>
<polyline fill="none" stroke="green" points="1281.22,-275.85 1285.22,-275.85 1285.22,-271.85 1281.22,-271.85 "/>
<text text-anchor="middle" x="1351.22" y="-282.15" font-family="Times,serif" font-size="14.00">phaidra&#45;ssl&#45;solr&#45;1</text>
</a>
</g>
</g>
<!-- HS_SOLR&#45;&#45;C_SOLR -->
<g id="edge12" class="edge">
<title>HS_SOLR&#45;&#45;C_SOLR</title>
<path fill="none" stroke="turquoise" d="M934.12,-1673.88C1023.12,-1686.91 1143.08,-1686.76 1211.72,-1612.85 1260.88,-1559.92 1186.24,-368.96 1231.72,-312.85 1243.81,-297.93 1262.28,-290.21 1281.06,-286.45"/>
</g>
<!-- HS_PIXELGECKO -->
<g id="node8" class="node">
<title>HS_PIXELGECKO</title>
<polygon fill="none" stroke="turquoise" points="1152.22,-1947.35 1149.22,-1951.35 1128.22,-1951.35 1125.22,-1947.35 487.22,-1947.35 487.22,-1874.35 1152.22,-1874.35 1152.22,-1947.35"/>
<text text-anchor="start" x="499.72" y="-1928.65" font-family="Times,serif" font-weight="bold" font-size="14.00">host:</text>
<text text-anchor="start" x="671.72" y="-1927.65" font-family="Times,serif" font-size="14.00">$HOME/.local/share/docker/volumes/phaidra&#45;ssl_pixelgecko/_data</text>
<text text-anchor="start" x="499.72" y="-1906.65" font-family="Times,serif" font-size="14.00">pixelgecko&#45;container:</text>
<text text-anchor="start" x="671.72" y="-1906.65" font-family="Times,serif" font-size="14.00">/mnt/converted_images</text>
<text text-anchor="start" x="499.72" y="-1885.65" font-family="Times,serif" font-size="14.00">imageserver&#45;container:</text>
<text text-anchor="start" x="671.72" y="-1885.65" font-family="Times,serif" font-size="14.00">/mnt/converted_images:ro</text>
</g>
<!-- C_IMAGESERVER -->
<g id="node30" class="node">
<title>C_IMAGESERVER</title>
<g id="a_node30"><a xlink:href="https://github.com/ruven/iipsrv" xlink:title="phaidra&#45;ssl&#45;imageserver&#45;1">
<polygon fill="none" stroke="green" points="1452.72,-465.85 1249.72,-465.85 1249.72,-461.85 1245.72,-461.85 1245.72,-457.85 1249.72,-457.85 1249.72,-437.85 1245.72,-437.85 1245.72,-433.85 1249.72,-433.85 1249.72,-429.85 1452.72,-429.85 1452.72,-465.85"/>
<polyline fill="none" stroke="green" points="1249.72,-461.85 1253.72,-461.85 1253.72,-457.85 1249.72,-457.85 "/>
<polyline fill="none" stroke="green" points="1249.72,-437.85 1253.72,-437.85 1253.72,-433.85 1249.72,-433.85 "/>
<text text-anchor="middle" x="1351.22" y="-444.15" font-family="Times,serif" font-size="14.00">phaidra&#45;ssl&#45;imageserver&#45;1</text>
</a>
</g>
</g>
<!-- HS_PIXELGECKO&#45;&#45;C_IMAGESERVER -->
<g id="edge14" class="edge">
<title>HS_PIXELGECKO&#45;&#45;C_IMAGESERVER</title>
<path fill="none" stroke="turquoise" d="M1152.57,-1908.22C1174.64,-1897.55 1194.78,-1883.39 1211.72,-1864.85 1239.21,-1834.78 1227.68,-1172.38 1231.72,-1131.85 1258.37,-864.72 1328.36,-544.6 1346.09,-465.95"/>
</g>
<!-- HS_PIXELGECKO&#45;&#45;C_PIXELGECKO -->
<g id="edge16" class="edge">
<title>HS_PIXELGECKO&#45;&#45;C_PIXELGECKO</title>
<path fill="none" stroke="turquoise" d="M1152.62,-1896.62C1173.56,-1888.31 1193.51,-1877.87 1211.72,-1864.85 1428.58,-1709.8 1390.39,-1578.03 1470.72,-1323.85 1576.32,-989.73 1609.88,-558.51 1616.09,-465.87"/>
</g>
<!-- HS_DBGATE -->
<g id="node9" class="node">
<title>HS_DBGATE</title>
<polygon fill="none" stroke="turquoise" points="1119.22,-1533.85 1116.22,-1537.85 1095.22,-1537.85 1092.22,-1533.85 520.22,-1533.85 520.22,-1481.85 1119.22,-1481.85 1119.22,-1533.85"/>
<text text-anchor="start" x="532.72" y="-1515.65" font-family="Times,serif" font-weight="bold" font-size="14.00">host:</text>
<text text-anchor="start" x="665.72" y="-1514.65" font-family="Times,serif" font-size="14.00">$HOME/.local/share/docker/volumes/phaidra&#45;ssl_dbgate/_data</text>
<text text-anchor="start" x="532.72" y="-1493.65" font-family="Times,serif" font-size="14.00">dbgate&#45;container:</text>
<text text-anchor="start" x="665.72" y="-1493.65" font-family="Times,serif" font-size="14.00">/root/.dbgate</text>
</g>
<!-- C_DBGATE -->
<g id="node32" class="node">
<title>C_DBGATE</title>
<polygon fill="none" stroke="green" points="901.22,-234.85 738.22,-234.85 738.22,-230.85 734.22,-230.85 734.22,-226.85 738.22,-226.85 738.22,-206.85 734.22,-206.85 734.22,-202.85 738.22,-202.85 738.22,-198.85 901.22,-198.85 901.22,-234.85"/>
<polyline fill="none" stroke="green" points="738.22,-230.85 742.22,-230.85 742.22,-226.85 738.22,-226.85 "/>
<polyline fill="none" stroke="green" points="738.22,-206.85 742.22,-206.85 742.22,-202.85 738.22,-202.85 "/>
<text text-anchor="middle" x="819.72" y="-213.15" font-family="Times,serif" font-size="14.00">phaidra&#45;ssl&#45;dbgate&#45;1</text>
</g>
<!-- HS_DBGATE&#45;&#45;C_DBGATE -->
<g id="edge17" class="edge">
<title>HS_DBGATE&#45;&#45;C_DBGATE</title>
<path fill="none" stroke="turquoise" d="M520.08,-1509.47C468.94,-1502.18 428.65,-1488.38 417.72,-1463.85 404.82,-1434.87 404.82,-350.83 417.72,-321.85 468.78,-207.19 636.15,-199.89 738.13,-206.97"/>
</g>
<!-- HS_MARIADB_FEDORA -->
<g id="node10" class="node">
<title>HS_MARIADB_FEDORA</title>
<polygon fill="none" stroke="turquoise" points="1180.72,-2087.85 1177.72,-2091.85 1156.72,-2091.85 1153.72,-2087.85 458.72,-2087.85 458.72,-2035.85 1180.72,-2035.85 1180.72,-2087.85"/>
<text text-anchor="start" x="470.72" y="-2069.65" font-family="Times,serif" font-weight="bold" font-size="14.00">host:</text>
<text text-anchor="start" x="663.72" y="-2068.65" font-family="Times,serif" font-size="14.00">$HOME/.local/share/docker/volumes/phaidra&#45;ssl_mariadb_fedora/_data</text>
<text text-anchor="start" x="470.72" y="-2047.65" font-family="Times,serif" font-size="14.00">mariadb&#45;fedora&#45;container:</text>
<text text-anchor="start" x="663.72" y="-2047.65" font-family="Times,serif" font-size="14.00">/var/lib/mysql</text>
</g>
<!-- C_MARIADB_FEDORA -->
<g id="node34" class="node">
<title>C_MARIADB_FEDORA</title>
<g id="a_node34"><a xlink:href="https://mariadb.org/" xlink:title="phaidra&#45;ssl&#45;mariadb&#45;fedora&#45;1">
<polygon fill="none" stroke="green" points="1729.72,-192.85 1506.72,-192.85 1506.72,-188.85 1502.72,-188.85 1502.72,-184.85 1506.72,-184.85 1506.72,-164.85 1502.72,-164.85 1502.72,-160.85 1506.72,-160.85 1506.72,-156.85 1729.72,-156.85 1729.72,-192.85"/>
<polyline fill="none" stroke="green" points="1506.72,-188.85 1510.72,-188.85 1510.72,-184.85 1506.72,-184.85 "/>
<polyline fill="none" stroke="green" points="1506.72,-164.85 1510.72,-164.85 1510.72,-160.85 1506.72,-160.85 "/>
<text text-anchor="middle" x="1618.22" y="-171.15" font-family="Times,serif" font-size="14.00">phaidra&#45;ssl&#45;mariadb&#45;fedora&#45;1</text>
</a>
</g>
</g>
<!-- HS_MARIADB_FEDORA&#45;&#45;C_MARIADB_FEDORA -->
<g id="edge18" class="edge">
<title>HS_MARIADB_FEDORA&#45;&#45;C_MARIADB_FEDORA</title>
<path fill="none" stroke="turquoise" d="M960.74,-2087.87C1043.75,-2094.84 1145.37,-2087.34 1211.72,-2026.85 1748.03,-1537.93 1290.93,-1113.74 1506.72,-420.85 1534.36,-332.11 1585.57,-233.08 1607.18,-193.07"/>
</g>
<!-- HS_DATABASE_DUMPS -->
<g id="node11" class="node">
<title>HS_DATABASE_DUMPS</title>
<polygon fill="none" stroke="turquoise" points="1188.72,-1393.85 1185.72,-1397.85 1164.72,-1397.85 1161.72,-1393.85 450.72,-1393.85 450.72,-1341.85 1188.72,-1341.85 1188.72,-1393.85"/>
<text text-anchor="start" x="462.72" y="-1375.65" font-family="Times,serif" font-weight="bold" font-size="14.00">host:</text>
<text text-anchor="start" x="601.72" y="-1374.65" font-family="Times,serif" font-size="14.00">$HOME/.local/share/docker/volumes/phaidra&#45;ssl_chronos_database_dumps/_data</text>
<text text-anchor="start" x="462.72" y="-1353.65" font-family="Times,serif" font-size="14.00">chronos&#45;container:</text>
<text text-anchor="start" x="601.72" y="-1353.65" font-family="Times,serif" font-size="14.00">/mnt/database&#45;dumps</text>
</g>
<!-- HS_SITEMAPS -->
<g id="node12" class="node">
<title>HS_SITEMAPS</title>
<polygon fill="none" stroke="turquoise" points="1161.22,-1253.35 1158.22,-1257.35 1137.22,-1257.35 1134.22,-1253.35 478.22,-1253.35 478.22,-1180.35 1161.22,-1180.35 1161.22,-1253.35"/>
<text text-anchor="start" x="490.72" y="-1234.65" font-family="Times,serif" font-weight="bold" font-size="14.00">host:</text>
<text text-anchor="start" x="629.72" y="-1233.65" font-family="Times,serif" font-size="14.00">$HOME/.local/share/docker/volumes/phaidra&#45;ssl_chronos_sitemaps/_data</text>
<text text-anchor="start" x="490.72" y="-1212.65" font-family="Times,serif" font-size="14.00">chronos&#45;container:</text>
<text text-anchor="start" x="629.72" y="-1212.65" font-family="Times,serif" font-size="14.00">/mnt/sitemaps</text>
<text text-anchor="start" x="490.72" y="-1191.65" font-family="Times,serif" font-size="14.00">httpd&#45;container:</text>
<text text-anchor="start" x="629.72" y="-1191.65" font-family="Times,serif" font-size="14.00">/mnt/sitemaps:ro</text>
</g>
<!-- HS_OAI_LOGS -->
<g id="node13" class="node">
<title>HS_OAI_LOGS</title>
<polygon fill="none" stroke="turquoise" points="1157.72,-1323.85 1154.72,-1327.85 1133.72,-1327.85 1130.72,-1323.85 481.72,-1323.85 481.72,-1271.85 1157.72,-1271.85 1157.72,-1323.85"/>
<text text-anchor="start" x="493.72" y="-1305.65" font-family="Times,serif" font-weight="bold" font-size="14.00">host:</text>
<text text-anchor="start" x="632.72" y="-1304.65" font-family="Times,serif" font-size="14.00">$HOME/.local/share/docker/volumes/phaidra&#45;ssl_chronos_oai_logs/_data</text>
<text text-anchor="start" x="493.72" y="-1283.65" font-family="Times,serif" font-size="14.00">chronos&#45;container:</text>
<text text-anchor="start" x="632.72" y="-1283.65" font-family="Times,serif" font-size="14.00">/mnt/oai&#45;logs</text>
</g>
<!-- BIND_MARIADB_PHAIDRA_INIT -->
<g id="node14" class="node">
<title>BIND_MARIADB_PHAIDRA_INIT</title>
<polygon fill="none" stroke="blue" points="1103.72,-572.85 1100.72,-576.85 1079.72,-576.85 1076.72,-572.85 535.72,-572.85 535.72,-520.85 1103.72,-520.85 1103.72,-572.85"/>
<text text-anchor="start" x="547.72" y="-554.65" font-family="Times,serif" font-weight="bold" font-size="14.00">host:</text>
<text text-anchor="start" x="749.72" y="-553.65" font-family="Times,serif" font-size="14.00">$REPO/container_init/mariadb/phaidradb.sql.gz</text>
<text text-anchor="start" x="547.72" y="-532.65" font-family="Times,serif" font-size="14.00">mariadb&#45;phaidra&#45;container:</text>
<text text-anchor="start" x="749.72" y="-532.65" font-family="Times,serif" font-size="14.00">/docker&#45;entrypoint&#45;initdb.d/phaidradb.sql.gz:ro</text>
</g>
<!-- BIND_MARIADB_PHAIDRA_INIT&#45;&#45;C_MARIADB_PHAIDRA -->
<g id="edge5" class="edge">
<title>BIND_MARIADB_PHAIDRA_INIT&#45;&#45;C_MARIADB_PHAIDRA</title>
<path fill="none" stroke="blue" d="M1104.19,-560.4C1144.82,-549.92 1182.63,-531.42 1211.72,-500.85 1257.17,-453.09 1188.89,-254.97 1231.72,-204.85 1234.46,-201.64 1237.5,-198.77 1240.77,-196.2"/>
</g>
<!-- BIND_OPENLDAP_INIT -->
<g id="node15" class="node">
<title>BIND_OPENLDAP_INIT</title>
<polygon fill="none" stroke="blue" points="1017.72,-712.85 1014.72,-716.85 993.72,-716.85 990.72,-712.85 621.72,-712.85 621.72,-660.85 1017.72,-660.85 1017.72,-712.85"/>
<text text-anchor="start" x="633.72" y="-694.65" font-family="Times,serif" font-weight="bold" font-size="14.00">host:</text>
<text text-anchor="start" x="781.72" y="-693.65" font-family="Times,serif" font-size="14.00">$REPO/container_init/openldap</text>
<text text-anchor="start" x="633.72" y="-672.65" font-family="Times,serif" font-size="14.00">openldap&#45;container:</text>
<text text-anchor="start" x="781.72" y="-672.65" font-family="Times,serif" font-size="14.00">/ldifs:ro</text>
</g>
<!-- BIND_OPENLDAP_INIT&#45;&#45;C_OPENLDAP -->
<g id="edge11" class="edge">
<title>BIND_OPENLDAP_INIT&#45;&#45;C_OPENLDAP</title>
<path fill="none" stroke="blue" d="M942.71,-712.86C1029.77,-723.67 1143.15,-720.62 1211.72,-651.85 1248.1,-615.36 1197.88,-459.7 1231.72,-420.85 1239.76,-411.62 1250.24,-405.19 1261.64,-400.76"/>
</g>
<!-- BIND_HTTPD_CONFIG -->
<g id="node16" class="node">
<title>BIND_HTTPD_CONFIG</title>
<polygon fill="none" stroke="blue" points="1033.22,-782.85 1030.22,-786.85 1009.22,-786.85 1006.22,-782.85 606.22,-782.85 606.22,-730.85 1033.22,-730.85 1033.22,-782.85"/>
<text text-anchor="start" x="618.72" y="-764.65" font-family="Times,serif" font-weight="bold" font-size="14.00">host:</text>
<text text-anchor="start" x="740.72" y="-763.65" font-family="Times,serif" font-size="14.00">$REPO/container_init/httpd/phaidra&#45;ssl</text>
<text text-anchor="start" x="618.72" y="-742.65" font-family="Times,serif" font-size="14.00">httpd&#45;container:</text>
<text text-anchor="start" x="740.72" y="-742.65" font-family="Times,serif" font-size="14.00">/mnt/startup:ro</text>
</g>
<!-- BIND_API_CODE -->
<g id="node17" class="node">
<title>BIND_API_CODE</title>
<polygon fill="none" stroke="blue" points="999.22,-922.85 996.22,-926.85 975.22,-926.85 972.22,-922.85 640.22,-922.85 640.22,-870.85 999.22,-870.85 999.22,-922.85"/>
<text text-anchor="start" x="652.72" y="-904.65" font-family="Times,serif" font-weight="bold" font-size="14.00">host:</text>
<text text-anchor="start" x="757.72" y="-903.65" font-family="Times,serif" font-size="14.00">$REPO/src/phaidra&#45;api</text>
<text text-anchor="start" x="652.72" y="-882.65" font-family="Times,serif" font-size="14.00">api&#45;container:</text>
<text text-anchor="start" x="757.72" y="-882.65" font-family="Times,serif" font-size="14.00">/usr/local/phaidra/phaidra&#45;api:ro</text>
</g>
<!-- BIND_API_CODE&#45;&#45;C_API -->
<g id="edge4" class="edge">
<title>BIND_API_CODE&#45;&#45;C_API</title>
<path fill="none" stroke="blue" d="M640.01,-905.67C541.86,-905.45 436.48,-894.98 417.72,-852.85 410.15,-835.85 410.15,-534.85 417.72,-517.85 474.16,-391.12 653.09,-354.62 752.13,-344.1"/>
</g>
<!-- BIND_DOCUMENTATION -->
<g id="node18" class="node">
<title>BIND_DOCUMENTATION</title>
<polygon fill="none" stroke="blue" points="937.72,-852.85 934.72,-856.85 913.72,-856.85 910.72,-852.85 701.72,-852.85 701.72,-800.85 937.72,-800.85 937.72,-852.85"/>
<text text-anchor="start" x="713.72" y="-834.65" font-family="Times,serif" font-weight="bold" font-size="14.00">host:</text>
<text text-anchor="start" x="835.72" y="-833.65" font-family="Times,serif" font-size="14.00">$REPO/docs</text>
<text text-anchor="start" x="713.72" y="-812.65" font-family="Times,serif" font-size="14.00">httpd&#45;container:</text>
<text text-anchor="start" x="835.72" y="-812.65" font-family="Times,serif" font-size="14.00">/mnt/docs:ro</text>
</g>
<!-- BIND_CHRONOS -->
<g id="node19" class="node">
<title>BIND_CHRONOS</title>
<polygon fill="none" stroke="blue" points="1008.72,-992.85 1005.72,-996.85 984.72,-996.85 981.72,-992.85 630.72,-992.85 630.72,-940.85 1008.72,-940.85 1008.72,-992.85"/>
<text text-anchor="start" x="642.72" y="-974.65" font-family="Times,serif" font-weight="bold" font-size="14.00">host:</text>
<text text-anchor="start" x="781.72" y="-973.65" font-family="Times,serif" font-size="14.00">$REPO/container_init/chronos</text>
<text text-anchor="start" x="642.72" y="-952.65" font-family="Times,serif" font-size="14.00">chronos&#45;container:</text>
<text text-anchor="start" x="781.72" y="-952.65" font-family="Times,serif" font-size="14.00">/mnt/chronos:ro</text>
</g>
<!-- BIND_MONGODB_INIT_OAI -->
<g id="node20" class="node">
<title>BIND_MONGODB_INIT_OAI</title>
<polygon fill="none" stroke="blue" points="1081.72,-1132.85 1078.72,-1136.85 1057.72,-1136.85 1054.72,-1132.85 557.72,-1132.85 557.72,-1080.85 1081.72,-1080.85 1081.72,-1132.85"/>
<text text-anchor="start" x="569.72" y="-1114.65" font-family="Times,serif" font-weight="bold" font-size="14.00">host:</text>
<text text-anchor="start" x="718.72" y="-1113.65" font-family="Times,serif" font-size="14.00">$REPO/container_init/mongodb/init_oai_sets.json</text>
<text text-anchor="start" x="569.72" y="-1092.65" font-family="Times,serif" font-size="14.00">mongodb&#45;container:</text>
<text text-anchor="start" x="718.72" y="-1092.65" font-family="Times,serif" font-size="14.00">/mnt/init_oai_sets.json:ro</text>
</g>
<!-- BIND_MONGODB_INIT_OAI&#45;&#45;C_MONGODB_PHAIDRA -->
<g id="edge9" class="edge">
<title>BIND_MONGODB_INIT_OAI&#45;&#45;C_MONGODB_PHAIDRA</title>
<path fill="none" stroke="blue" d="M935.67,-1132.9C1024.34,-1145.52 1143.07,-1144.81 1211.72,-1071.85 1265.42,-1014.77 1181.99,-427.41 1231.72,-366.85 1234.4,-363.59 1237.38,-360.67 1240.61,-358.06"/>
</g>
<!-- BIND_MONGODB_INIT -->
<g id="node21" class="node">
<title>BIND_MONGODB_INIT</title>
<polygon fill="none" stroke="blue" points="1104.22,-1062.85 1101.22,-1066.85 1080.22,-1066.85 1077.22,-1062.85 535.22,-1062.85 535.22,-1010.85 1104.22,-1010.85 1104.22,-1062.85"/>
<text text-anchor="start" x="547.72" y="-1044.65" font-family="Times,serif" font-weight="bold" font-size="14.00">host:</text>
<text text-anchor="start" x="696.72" y="-1043.65" font-family="Times,serif" font-size="14.00">$REPO/container_init/mongodb/mongodb&#45;after&#45;entry.sh</text>
<text text-anchor="start" x="547.72" y="-1022.65" font-family="Times,serif" font-size="14.00">mongodb&#45;container:</text>
<text text-anchor="start" x="696.72" y="-1022.65" font-family="Times,serif" font-size="14.00">/docker&#45;entrypoint&#45;initdb.d/mongodb&#45;after&#45;entry.sh:ro</text>
</g>
<!-- BIND_MONGODB_INIT&#45;&#45;C_MONGODB_PHAIDRA -->
<g id="edge8" class="edge">
<title>BIND_MONGODB_INIT&#45;&#45;C_MONGODB_PHAIDRA</title>
<path fill="none" stroke="blue" d="M936.07,-1062.9C1024.64,-1075.43 1143.07,-1074.58 1211.72,-1001.85 1260.17,-950.51 1186.84,-421.33 1231.72,-366.85 1234.41,-363.59 1237.39,-360.68 1240.62,-358.07"/>
</g>
<!-- BIND_SOLR_INIT -->
<g id="node22" class="node">
<title>BIND_SOLR_INIT</title>
<polygon fill="none" stroke="blue" points="1028.22,-642.85 1025.22,-646.85 1004.22,-646.85 1001.22,-642.85 611.22,-642.85 611.22,-590.85 1028.22,-590.85 1028.22,-642.85"/>
<text text-anchor="start" x="623.72" y="-624.65" font-family="Times,serif" font-weight="bold" font-size="14.00">host:</text>
<text text-anchor="start" x="733.72" y="-623.65" font-family="Times,serif" font-size="14.00">$REPO/container_init/solr/phaidra_core</text>
<text text-anchor="start" x="623.72" y="-602.65" font-family="Times,serif" font-size="14.00">solr&#45;container:</text>
<text text-anchor="start" x="733.72" y="-602.65" font-family="Times,serif" font-size="14.00">/tmp/phaidra:ro</text>
</g>
<!-- BIND_SOLR_INIT&#45;&#45;C_SOLR -->
<g id="edge13" class="edge">
<title>BIND_SOLR_INIT&#45;&#45;C_SOLR</title>
<path fill="none" stroke="blue" d="M941.12,-642.88C1028.54,-654.08 1143.09,-651.52 1211.72,-581.85 1253.79,-539.14 1192.63,-358.29 1231.72,-312.85 1244.11,-298.45 1262.43,-290.84 1280.99,-287.02"/>
</g>
<!-- C_FEDORA&#45;&#45;C_MARIADB_FEDORA -->
<g id="edge26" class="edge">
<title>C_FEDORA&#45;&#45;C_MARIADB_FEDORA</title>
<path fill="none" stroke="orange" d="M1431.01,-214.9C1463.21,-207.97 1500.49,-199.96 1533.2,-192.92"/>
</g>
<!-- C_API&#45;&#45;C_FEDORA -->
<g id="edge27" class="edge">
<title>C_API&#45;&#45;C_FEDORA</title>
<path fill="none" stroke="orange" d="M887.48,-341.73C968.53,-341.35 1107.29,-331.91 1211.72,-278.85 1222.93,-273.15 1220.72,-264.93 1231.72,-258.85 1243.91,-252.11 1257.69,-247.06 1271.43,-243.26"/>
</g>
<!-- C_API&#45;&#45;C_MARIADB_PHAIDRA -->
<g id="edge28" class="edge">
<title>C_API&#45;&#45;C_MARIADB_PHAIDRA</title>
<path fill="none" stroke="orange" d="M887.23,-349.57C973.21,-358.14 1122.45,-358.87 1211.72,-278.85 1237.09,-256.11 1207.16,-228.45 1231.72,-204.85 1235.22,-201.48 1239.05,-198.51 1243.12,-195.88"/>
</g>
<!-- C_API&#45;&#45;C_MONGODB_PHAIDRA -->
<g id="edge29" class="edge">
<title>C_API&#45;&#45;C_MONGODB_PHAIDRA</title>
<path fill="none" stroke="orange" d="M887.25,-339.85C973.49,-339.85 1125.4,-339.85 1231.61,-339.85"/>
</g>
<!-- C_UI -->
<g id="node27" class="node">
<title>C_UI</title>
<g id="a_node27"><a xlink:href="https://github.com/phaidra/phaidra-ui" xlink:title="phaidra&#45;ssl&#45;ui&#45;1">
<polygon fill="none" stroke="green" points="1414.72,-141.85 1287.72,-141.85 1287.72,-137.85 1283.72,-137.85 1283.72,-133.85 1287.72,-133.85 1287.72,-113.85 1283.72,-113.85 1283.72,-109.85 1287.72,-109.85 1287.72,-105.85 1414.72,-105.85 1414.72,-141.85"/>
<polyline fill="none" stroke="green" points="1287.72,-137.85 1291.72,-137.85 1291.72,-133.85 1287.72,-133.85 "/>
<polyline fill="none" stroke="green" points="1287.72,-113.85 1291.72,-113.85 1291.72,-109.85 1287.72,-109.85 "/>
<text text-anchor="middle" x="1351.22" y="-120.15" font-family="Times,serif" font-size="14.00">phaidra&#45;ssl&#45;ui&#45;1</text>
</a>
</g>
</g>
<!-- C_API&#45;&#45;C_UI -->
<g id="edge30" class="edge">
<title>C_API&#45;&#45;C_UI</title>
<path fill="none" stroke="orange" d="M887.41,-343.44C974.64,-344.26 1126.37,-331.71 1211.72,-243.85 1241.18,-213.52 1202.01,-180.92 1231.72,-150.85 1246.33,-136.06 1267.24,-128.66 1287.44,-125.14"/>
</g>
<!-- C_API&#45;&#45;C_OPENLDAP -->
<g id="edge31" class="edge">
<title>C_API&#45;&#45;C_OPENLDAP</title>
<path fill="none" stroke="orange" d="M887.25,-346.63C981.96,-356.29 1155.88,-374.03 1261.48,-384.8"/>
</g>
<!-- C_API&#45;&#45;C_SOLR -->
<g id="edge32" class="edge">
<title>C_API&#45;&#45;C_SOLR</title>
<path fill="none" stroke="orange" d="M887.25,-333.06C988.07,-322.78 1178.65,-303.34 1281.03,-292.9"/>
</g>
<!-- C_API&#45;&#45;C_IMAGESERVER -->
<g id="edge33" class="edge">
<title>C_API&#45;&#45;C_IMAGESERVER</title>
<path fill="none" stroke="orange" d="M887.25,-353.42C982.1,-372.76 1156.39,-408.31 1261.95,-429.84"/>
</g>
<!-- C_MONGODB_PHAIDRA&#45;&#45;C_PIXELGECKO -->
<g id="edge34" class="edge">
<title>C_MONGODB_PHAIDRA&#45;&#45;C_PIXELGECKO</title>
<path fill="none" stroke="orange" d="M1443.58,-357.92C1452.86,-360.57 1462.05,-363.54 1470.72,-366.85 1514.57,-383.58 1561.4,-411.44 1590,-429.72"/>
</g>
<!-- C_LAM -->
<g id="node33" class="node">
<title>C_LAM</title>
<polygon fill="none" stroke="green" points="1688.22,-110.85 1548.22,-110.85 1548.22,-106.85 1544.22,-106.85 1544.22,-102.85 1548.22,-102.85 1548.22,-82.85 1544.22,-82.85 1544.22,-78.85 1548.22,-78.85 1548.22,-74.85 1688.22,-74.85 1688.22,-110.85"/>
<polyline fill="none" stroke="green" points="1548.22,-106.85 1552.22,-106.85 1552.22,-102.85 1548.22,-102.85 "/>
<polyline fill="none" stroke="green" points="1548.22,-82.85 1552.22,-82.85 1552.22,-78.85 1548.22,-78.85 "/>
<text text-anchor="middle" x="1618.22" y="-89.15" font-family="Times,serif" font-size="14.00">phaidra&#45;ssl&#45;lam&#45;1</text>
</g>
<!-- C_OPENLDAP&#45;&#45;C_LAM -->
<g id="edge35" class="edge">
<title>C_OPENLDAP&#45;&#45;C_LAM</title>
<path fill="none" stroke="orange" d="M1440.78,-386.15C1452.04,-381.8 1462.48,-375.61 1470.72,-366.85 1538.31,-295 1448.14,-227.2 1506.72,-147.85 1519,-131.21 1537.73,-119.3 1556.29,-110.92"/>
</g>
<!-- C_DBGATE&#45;&#45;C_MARIADB_PHAIDRA -->
<g id="edge36" class="edge">
<title>C_DBGATE&#45;&#45;C_MARIADB_PHAIDRA</title>
<path fill="none" stroke="orange" d="M901.43,-210.9C990.31,-204.36 1133.96,-193.78 1234.74,-186.35"/>
</g>
<!-- C_DBGATE&#45;&#45;C_MONGODB_PHAIDRA -->
<g id="edge37" class="edge">
<title>C_DBGATE&#45;&#45;C_MONGODB_PHAIDRA</title>
<path fill="none" stroke="orange" d="M897.58,-234.93C980.13,-254.32 1115.16,-285.96 1231.72,-312.85 1244.37,-315.76 1257.77,-318.84 1270.85,-321.82"/>
</g>
<!-- C_DBGATE&#45;&#45;C_MARIADB_FEDORA -->
<g id="edge38" class="edge">
<title>C_DBGATE&#45;&#45;C_MARIADB_FEDORA</title>
<path fill="none" stroke="orange" d="M856.54,-198.71C955.7,-150.96 1241.61,-29.91 1470.72,-96.85 1488.95,-102.17 1490.2,-110.49 1506.72,-119.85 1530.03,-133.04 1556.92,-146.47 1578.34,-156.75"/>
</g>
<!-- C_CHRONOS -->
<g id="node35" class="node">
<title>C_CHRONOS</title>
<polygon fill="none" stroke="green" points="407.72,-414.85 237.72,-414.85 237.72,-410.85 233.72,-410.85 233.72,-406.85 237.72,-406.85 237.72,-386.85 233.72,-386.85 233.72,-382.85 237.72,-382.85 237.72,-378.85 407.72,-378.85 407.72,-414.85"/>
<polyline fill="none" stroke="green" points="237.72,-410.85 241.72,-410.85 241.72,-406.85 237.72,-406.85 "/>
<polyline fill="none" stroke="green" points="237.72,-386.85 241.72,-386.85 241.72,-382.85 237.72,-382.85 "/>
<text text-anchor="middle" x="322.72" y="-393.15" font-family="Times,serif" font-size="14.00">phaidra&#45;ssl&#45;chronos&#45;1</text>
</g>
<!-- C_CHRONOS&#45;&#45;HS_DATABASE_DUMPS -->
<g id="edge22" class="edge">
<title>C_CHRONOS&#45;&#45;HS_DATABASE_DUMPS</title>
<path fill="none" stroke="turquoise" d="M324.38,-414.91C329.08,-539.31 359.37,-1265.94 427.72,-1332.85 496.03,-1399.71 606.85,-1403.82 693.1,-1393.86"/>
</g>
<!-- C_CHRONOS&#45;&#45;HS_SITEMAPS -->
<g id="edge23" class="edge">
<title>C_CHRONOS&#45;&#45;HS_SITEMAPS</title>
<path fill="none" stroke="turquoise" d="M324.87,-415.17C332.05,-526.83 372.19,-1112.83 427.72,-1167.85 442.67,-1182.65 459.66,-1194.61 478,-1204.18"/>
</g>
<!-- C_CHRONOS&#45;&#45;HS_OAI_LOGS -->
<g id="edge24" class="edge">
<title>C_CHRONOS&#45;&#45;HS_OAI_LOGS</title>
<path fill="none" stroke="turquoise" d="M324.56,-415.07C330.19,-534.43 364.41,-1201.43 427.72,-1262.85 495.84,-1328.93 605.54,-1333.48 691.43,-1323.88"/>
</g>
<!-- C_CHRONOS&#45;&#45;BIND_CHRONOS -->
<g id="edge25" class="edge">
<title>C_CHRONOS&#45;&#45;BIND_CHRONOS</title>
<path fill="none" stroke="blue" d="M324.44,-415.06C328.2,-500.5 348.6,-860.46 427.72,-931.85 493.63,-991.31 593.69,-999.33 676.09,-992.85"/>
</g>
<!-- C_CHRONOS&#45;&#45;C_API -->
<g id="edge49" class="edge">
<title>C_CHRONOS&#45;&#45;C_API</title>
<path fill="none" stroke="orange" d="M392.23,-378.8C404.01,-376.15 416.17,-373.7 427.72,-371.85 540.71,-353.75 673.79,-345.63 751.93,-342.18"/>
</g>
<!-- C_CHRONOS&#45;&#45;C_MARIADB_PHAIDRA -->
<g id="edge46" class="edge">
<title>C_CHRONOS&#45;&#45;C_MARIADB_PHAIDRA</title>
<path fill="none" stroke="orange" d="M339.66,-378.71C358.47,-358.68 391.78,-327.35 427.72,-312.85 589.91,-247.39 1066.62,-341.5 1211.72,-243.85 1227.88,-232.97 1216.34,-216.8 1231.72,-204.85 1236.05,-201.48 1240.73,-198.52 1245.63,-195.92"/>
</g>
<!-- C_CHRONOS&#45;&#45;C_MONGODB_PHAIDRA -->
<g id="edge45" class="edge">
<title>C_CHRONOS&#45;&#45;C_MONGODB_PHAIDRA</title>
<path fill="none" stroke="orange" d="M407.76,-412.15C568.92,-437.91 930.4,-478.27 1211.72,-381.85 1222.23,-378.24 1221.64,-371.52 1231.72,-366.85 1239,-363.48 1246.72,-360.51 1254.61,-357.91"/>
</g>
<!-- C_CHRONOS&#45;&#45;C_SOLR -->
<g id="edge48" class="edge">
<title>C_CHRONOS&#45;&#45;C_SOLR</title>
<path fill="none" stroke="orange" d="M407.91,-383.8C414.6,-383.04 421.27,-382.37 427.72,-381.85 449.43,-380.08 1193.96,-379.46 1211.72,-366.85 1232.59,-352.03 1212.48,-329.72 1231.72,-312.85 1245.44,-300.81 1263.42,-293.83 1281.21,-289.85"/>
</g>
<!-- C_CHRONOS&#45;&#45;C_MARIADB_FEDORA -->
<g id="edge47" class="edge">
<title>C_CHRONOS&#45;&#45;C_MARIADB_FEDORA</title>
<path fill="none" stroke="orange" d="M352.21,-378.82C371.12,-365.26 394.77,-344.92 407.72,-320.85 435.62,-268.98 385.93,-231.35 427.72,-189.85 683.95,64.59 871.57,-98.91 1231.72,-72.85 1284.69,-69.01 1423.1,-49.34 1470.72,-72.85 1494.32,-84.49 1486.42,-103.11 1506.72,-119.85 1525.32,-135.18 1548.91,-147.66 1569.52,-156.83"/>
</g>
<!-- WEBSERVER&#45;&#45;HS_SITEMAPS -->
<g id="edge21" class="edge">
<title>WEBSERVER&#45;&#45;HS_SITEMAPS</title>
<path fill="none" stroke="turquoise" d="M354.02,-311.97C373.22,-325.31 396.49,-345.36 407.72,-369.85 426.22,-410.15 397.96,-1134.97 427.72,-1167.85 442.3,-1183.95 459.27,-1196.82 477.83,-1206.99"/>
</g>
<!-- WEBSERVER&#45;&#45;BIND_HTTPD_CONFIG -->
<g id="edge19" class="edge">
<title>WEBSERVER&#45;&#45;BIND_HTTPD_CONFIG</title>
<path fill="none" stroke="blue" d="M353.76,-312.09C372.86,-325.48 396.1,-345.54 407.72,-369.85 424.62,-405.19 400.48,-693.7 427.72,-721.85 496.45,-792.85 612.77,-794.65 700.71,-782.86"/>
</g>
<!-- WEBSERVER&#45;&#45;BIND_DOCUMENTATION -->
<g id="edge20" class="edge">
<title>WEBSERVER&#45;&#45;BIND_DOCUMENTATION</title>
<path fill="none" stroke="blue" d="M353.84,-312.05C372.97,-325.43 396.21,-345.49 407.72,-369.85 427.77,-412.29 395.23,-757.97 427.72,-791.85 496.47,-863.54 613.68,-864.95 701.88,-852.86"/>
</g>
<!-- WEBSERVER&#45;&#45;C_FEDORA -->
<g id="edge39" class="edge">
<title>WEBSERVER&#45;&#45;C_FEDORA</title>
<path fill="none" stroke="magenta" d="M398.94,-285.39C408.62,-284.45 418.4,-283.57 427.72,-282.85 775.55,-255.82 863.65,-267.57 1211.72,-243.85 1231.11,-242.53 1251.99,-240.85 1271.52,-239.17"/>
</g>
<!-- WEBSERVER&#45;&#45;C_API -->
<g id="edge40" class="edge">
<title>WEBSERVER&#45;&#45;C_API</title>
<path fill="none" stroke="magenta" d="M398.9,-300.83C495.05,-309.77 660.08,-325.1 751.98,-333.64"/>
</g>
<!-- WEBSERVER&#45;&#45;C_UI -->
<g id="edge41" class="edge">
<title>WEBSERVER&#45;&#45;C_UI</title>
<path fill="none" stroke="magenta" d="M335.58,-275.61C352.63,-251.15 386.61,-208.62 427.72,-189.85 725.13,-54.02 1133.06,-92.51 1287.53,-113.95"/>
</g>
<!-- WEBSERVER&#45;&#45;C_SOLR -->
<g id="edge42" class="edge">
<title>WEBSERVER&#45;&#45;C_SOLR</title>
<path fill="none" stroke="magenta" d="M398.79,-293.26C590.48,-291.77 1095.93,-287.83 1281.03,-286.39"/>
</g>
<!-- WEBSERVER&#45;&#45;C_DBGATE -->
<g id="edge43" class="edge">
<title>WEBSERVER&#45;&#45;C_DBGATE</title>
<path fill="none" stroke="magenta" d="M357.87,-275.7C377.7,-266.03 403.48,-254.91 427.72,-248.85 532.78,-222.58 658.17,-216.6 738.1,-215.83"/>
</g>
<!-- WEBSERVER&#45;&#45;C_LAM -->
<g id="edge44" class="edge">
<title>WEBSERVER&#45;&#45;C_LAM</title>
<path fill="none" stroke="magenta" d="M325.42,-275.75C330.77,-230.21 351.77,-111.03 427.72,-61.85 622.27,64.14 1240.2,-37.72 1470.72,-61.85 1496.19,-64.51 1523.75,-69.72 1548.02,-75.11"/>
</g>
</g>
</svg>
