<?xml version="1.0" encoding="UTF-8" standalone="no"?>
<!DOCTYPE svg PUBLIC "-//W3C//DTD SVG 1.1//EN"
 "http://www.w3.org/Graphics/SVG/1.1/DTD/svg11.dtd">
<!-- Generated by graphviz version 2.43.0 (0)
 -->
<!-- Title: G Pages: 1 -->
<svg width="1855pt" height="2258pt"
 viewBox="0.00 0.00 1854.72 2258.39" xmlns="http://www.w3.org/2000/svg" xmlns:xlink="http://www.w3.org/1999/xlink">
<g id="graph0" class="graph" transform="scale(1 1) rotate(0) translate(4 2254.39)">
<title>G</title>
<polygon fill="white" stroke="transparent" points="-4,4 -4,-2254.39 1850.72,-2254.39 1850.72,4 -4,4"/>
<g id="clust1" class="cluster">
<title>cluster_host</title>
<polygon fill="none" stroke="red" points="8,-21.39 8,-2242.39 1838.72,-2242.39 1838.72,-21.39 8,-21.39"/>
<text text-anchor="middle" x="923.36" y="-2227.19" font-family="Times,serif" font-size="14.00">PHAIDRA server firewall</text>
</g>
<g id="clust2" class="cluster">
<title>cluster_host_storage</title>
<polygon fill="none" stroke="blue" points="462.72,-496.39 462.72,-2211.39 1266.72,-2211.39 1266.72,-496.39 462.72,-496.39"/>
<text text-anchor="middle" x="864.72" y="-2196.19" font-family="Times,serif" font-size="14.00">PHAIDRA server filesystem</text>
</g>
<g id="clust3" class="cluster">
<title>cluster_named_volumes</title>
<polygon fill="none" stroke="turquoise" points="470.72,-1233.39 470.72,-2180.39 1258.72,-2180.39 1258.72,-1233.39 470.72,-1233.39"/>
<text text-anchor="middle" x="864.72" y="-2165.19" font-family="Times,serif" font-size="14.00">Named volumes</text>
</g>
<g id="clust4" class="cluster">
<title>cluster_bind_mounts</title>
<polygon fill="none" stroke="blue" points="572.22,-504.39 572.22,-1225.39 1157.22,-1225.39 1157.22,-504.39 572.22,-504.39"/>
<text text-anchor="middle" x="864.72" y="-1210.19" font-family="Times,serif" font-size="14.00">Bind mounts</text>
</g>
<g id="clust5" class="cluster">
<title>cluster_docker_network_host</title>
<polygon fill="none" stroke="green" points="245.72,-29.39 245.72,-488.39 1830.72,-488.39 1830.72,-29.39 245.72,-29.39"/>
<text text-anchor="middle" x="1038.22" y="-473.19" font-family="Times,serif" font-size="14.00">PHAIDRA docker containers</text>
</g>
<!-- USER -->
<g id="node1" class="node">
<title>USER</title>
<polygon fill="none" stroke="black" points="209.59,-269.94 209.59,-284.85 155.27,-295.39 78.45,-295.39 24.13,-284.85 24.13,-269.94 78.45,-259.39 155.27,-259.39 209.59,-269.94"/>
<polygon fill="none" stroke="black" points="213.59,-266.64 213.59,-288.15 155.66,-299.39 78.07,-299.39 20.13,-288.15 20.13,-266.64 78.07,-255.39 155.66,-255.39 213.59,-266.64"/>
<polygon fill="none" stroke="black" points="217.58,-263.34 217.58,-291.45 156.04,-303.39 77.68,-303.39 16.14,-291.45 16.14,-263.34 77.68,-251.39 156.04,-251.39 217.58,-263.34"/>
<text text-anchor="middle" x="116.86" y="-273.69" font-family="Times,serif" font-size="14.00">PHAIDRA USER</text>
</g>
<!-- WEBSERVER -->
<g id="node37" class="node">
<title>WEBSERVER</title>
<polygon fill="none" stroke="green" points="434.22,-295.39 262.22,-295.39 262.22,-291.39 258.22,-291.39 258.22,-287.39 262.22,-287.39 262.22,-267.39 258.22,-267.39 258.22,-263.39 262.22,-263.39 262.22,-259.39 434.22,-259.39 434.22,-295.39"/>
<polyline fill="none" stroke="green" points="262.22,-291.39 266.22,-291.39 266.22,-287.39 262.22,-287.39 "/>
<polyline fill="none" stroke="green" points="262.22,-267.39 266.22,-267.39 266.22,-263.39 262.22,-263.39 "/>
<text text-anchor="middle" x="348.22" y="-273.69" font-family="Times,serif" font-size="14.00">phaidra&#45;demo&#45;httpd&#45;1</text>
</g>
<!-- USER&#45;&#45;WEBSERVER -->
<g id="edge51" class="edge">
<title>USER&#45;&#45;WEBSERVER</title>
<path fill="none" stroke="green" d="M217.79,-277.39C232.52,-277.39 247.58,-277.39 261.97,-277.39"/>
</g>
<!-- HS_FEDORA -->
<g id="node2" class="node">
<title>HS_FEDORA</title>
<polygon fill="none" stroke="turquoise" points="1185.22,-1917.39 1182.22,-1921.39 1161.22,-1921.39 1158.22,-1917.39 544.22,-1917.39 544.22,-1823.39 1185.22,-1823.39 1185.22,-1917.39"/>
<text text-anchor="start" x="556.72" y="-1899.19" font-family="Times,serif" font-weight="bold" font-size="14.00">host:</text>
<text text-anchor="start" x="715.72" y="-1898.19" font-family="Times,serif" font-size="14.00">$HOME/.local/share/docker/volumes/phaidra&#45;demo_fedora/_data</text>
<text text-anchor="start" x="556.72" y="-1877.19" font-family="Times,serif" font-size="14.00">fedora&#45;container:</text>
<text text-anchor="start" x="715.72" y="-1877.19" font-family="Times,serif" font-size="14.00">/usr/local/tomcat/fcrepo&#45;home</text>
<text text-anchor="start" x="556.72" y="-1856.19" font-family="Times,serif" font-size="14.00">pixelgecko&#45;container:</text>
<text text-anchor="start" x="715.72" y="-1856.19" font-family="Times,serif" font-size="14.00"> /mnt/fedora:ro</text>
<text text-anchor="start" x="556.72" y="-1835.19" font-family="Times,serif" font-size="14.00">api&#45;container:</text>
<text text-anchor="start" x="715.72" y="-1835.19" font-family="Times,serif" font-size="14.00"> /mnt/fedora:ro</text>
</g>
<!-- C_FEDORA -->
<g id="node24" class="node">
<title>C_FEDORA</title>
<g id="a_node24"><a xlink:href="https://fedora.lyrasis.org/" xlink:title="phaidra&#45;demo&#45;fedora&#45;1">
<polygon fill="none" stroke="green" points="1505.22,-241.39 1326.22,-241.39 1326.22,-237.39 1322.22,-237.39 1322.22,-233.39 1326.22,-233.39 1326.22,-213.39 1322.22,-213.39 1322.22,-209.39 1326.22,-209.39 1326.22,-205.39 1505.22,-205.39 1505.22,-241.39"/>
<polyline fill="none" stroke="green" points="1326.22,-237.39 1330.22,-237.39 1330.22,-233.39 1326.22,-233.39 "/>
<polyline fill="none" stroke="green" points="1326.22,-213.39 1330.22,-213.39 1330.22,-209.39 1326.22,-209.39 "/>
<text text-anchor="middle" x="1415.72" y="-219.69" font-family="Times,serif" font-size="14.00">phaidra&#45;demo&#45;fedora&#45;1</text>
</a>
</g>
</g>
<!-- HS_FEDORA&#45;&#45;C_FEDORA -->
<g id="edge1" class="edge">
<title>HS_FEDORA&#45;&#45;C_FEDORA</title>
<path fill="none" stroke="turquoise" d="M1185.53,-1869.69C1216.37,-1857.49 1244.41,-1839.7 1266.72,-1814.39 1324.18,-1749.2 1231.55,-317.53 1286.72,-250.39 1296.82,-238.11 1310.96,-230.52 1326.18,-225.99"/>
</g>
<!-- C_API -->
<g id="node25" class="node">
<title>C_API</title>
<g id="a_node25"><a xlink:href="https://github.com/phaidra/phaidra-api" xlink:title="phaidra&#45;demo&#45;api&#45;1">
<polygon fill="none" stroke="green" points="942.22,-349.39 787.22,-349.39 787.22,-345.39 783.22,-345.39 783.22,-341.39 787.22,-341.39 787.22,-321.39 783.22,-321.39 783.22,-317.39 787.22,-317.39 787.22,-313.39 942.22,-313.39 942.22,-349.39"/>
<polyline fill="none" stroke="green" points="787.22,-345.39 791.22,-345.39 791.22,-341.39 787.22,-341.39 "/>
<polyline fill="none" stroke="green" points="787.22,-321.39 791.22,-321.39 791.22,-317.39 787.22,-317.39 "/>
<text text-anchor="middle" x="864.72" y="-327.69" font-family="Times,serif" font-size="14.00">phaidra&#45;demo&#45;api&#45;1</text>
</a>
</g>
</g>
<!-- HS_FEDORA&#45;&#45;C_API -->
<g id="edge3" class="edge">
<title>HS_FEDORA&#45;&#45;C_API</title>
<path fill="none" stroke="turquoise" d="M544.01,-1885.29C504.03,-1870.96 470.84,-1846.07 452.72,-1805.39 445.4,-1788.95 445.4,-525.84 452.72,-509.39 508.75,-383.58 683.81,-346.65 786.83,-335.84"/>
</g>
<!-- C_PIXELGECKO -->
<g id="node32" class="node">
<title>C_PIXELGECKO</title>
<polygon fill="none" stroke="green" points="1806.22,-457.39 1597.22,-457.39 1597.22,-453.39 1593.22,-453.39 1593.22,-449.39 1597.22,-449.39 1597.22,-429.39 1593.22,-429.39 1593.22,-425.39 1597.22,-425.39 1597.22,-421.39 1806.22,-421.39 1806.22,-457.39"/>
<polyline fill="none" stroke="green" points="1597.22,-453.39 1601.22,-453.39 1601.22,-449.39 1597.22,-449.39 "/>
<polyline fill="none" stroke="green" points="1597.22,-429.39 1601.22,-429.39 1601.22,-425.39 1597.22,-425.39 "/>
<text text-anchor="middle" x="1701.72" y="-435.69" font-family="Times,serif" font-size="14.00">phaidra&#45;demo&#45;pixelgecko&#45;1</text>
</g>
<!-- HS_FEDORA&#45;&#45;C_PIXELGECKO -->
<g id="edge15" class="edge">
<title>HS_FEDORA&#45;&#45;C_PIXELGECKO</title>
<path fill="none" stroke="turquoise" d="M1185.58,-1863.81C1215.52,-1852.46 1243.35,-1836.48 1266.72,-1814.39 1299.98,-1782.97 1274.72,-1757.55 1286.72,-1713.39 1378.15,-1376.87 1438.38,-1304.51 1544.72,-972.39 1608.97,-771.76 1677.19,-525.33 1695.8,-457.44"/>
</g>
<!-- HS_API_LOGS -->
<g id="node3" class="node">
<title>HS_API_LOGS</title>
<polygon fill="none" stroke="turquoise" points="1164.22,-2079.39 1161.22,-2083.39 1140.22,-2083.39 1137.22,-2079.39 565.22,-2079.39 565.22,-2027.39 1164.22,-2027.39 1164.22,-2079.39"/>
<text text-anchor="start" x="577.72" y="-2061.19" font-family="Times,serif" font-weight="bold" font-size="14.00">host:</text>
<text text-anchor="start" x="682.72" y="-2060.19" font-family="Times,serif" font-size="14.00">$HOME/.local/share/docker/volumes/phaidra&#45;demo_api_logs/_data</text>
<text text-anchor="start" x="577.72" y="-2039.19" font-family="Times,serif" font-size="14.00">api&#45;container:</text>
<text text-anchor="start" x="682.72" y="-2039.19" font-family="Times,serif" font-size="14.00">/var/log/phaidra</text>
</g>
<!-- HS_API_LOGS&#45;&#45;C_API -->
<g id="edge2" class="edge">
<title>HS_API_LOGS&#45;&#45;C_API</title>
<path fill="none" stroke="turquoise" d="M565.14,-2056.9C509.19,-2049.87 464.45,-2035.72 452.72,-2009.39 444.25,-1990.36 444.25,-528.42 452.72,-509.39 508.75,-383.58 683.81,-346.65 786.83,-335.84"/>
</g>
<!-- HS_MARIADB_PHAIDRA -->
<g id="node4" class="node">
<title>HS_MARIADB_PHAIDRA</title>
<polygon fill="none" stroke="turquoise" points="1244.22,-1665.39 1241.22,-1669.39 1220.22,-1669.39 1217.22,-1665.39 485.22,-1665.39 485.22,-1613.39 1244.22,-1613.39 1244.22,-1665.39"/>
<text text-anchor="start" x="497.72" y="-1647.19" font-family="Times,serif" font-weight="bold" font-size="14.00">host:</text>
<text text-anchor="start" x="699.72" y="-1646.19" font-family="Times,serif" font-size="14.00">$HOME/.local/share/docker/volumes/phaidra&#45;demo_mariadb_phaidra/_data</text>
<text text-anchor="start" x="497.72" y="-1625.19" font-family="Times,serif" font-size="14.00">mariadb&#45;phaidra&#45;container:</text>
<text text-anchor="start" x="699.72" y="-1625.19" font-family="Times,serif" font-size="14.00">/var/lib/mysql</text>
</g>
<!-- C_MARIADB_PHAIDRA -->
<g id="node26" class="node">
<title>C_MARIADB_PHAIDRA</title>
<g id="a_node26"><a xlink:href="https://mariadb.org/" xlink:title="phaidra&#45;demo&#45;mariadb&#45;phaidra&#45;1">
<polygon fill="none" stroke="green" points="1541.22,-187.39 1290.22,-187.39 1290.22,-183.39 1286.22,-183.39 1286.22,-179.39 1290.22,-179.39 1290.22,-159.39 1286.22,-159.39 1286.22,-155.39 1290.22,-155.39 1290.22,-151.39 1541.22,-151.39 1541.22,-187.39"/>
<polyline fill="none" stroke="green" points="1290.22,-183.39 1294.22,-183.39 1294.22,-179.39 1290.22,-179.39 "/>
<polyline fill="none" stroke="green" points="1290.22,-159.39 1294.22,-159.39 1294.22,-155.39 1290.22,-155.39 "/>
<text text-anchor="middle" x="1415.72" y="-165.69" font-family="Times,serif" font-size="14.00">phaidra&#45;demo&#45;mariadb&#45;phaidra&#45;1</text>
</a>
</g>
</g>
<!-- HS_MARIADB_PHAIDRA&#45;&#45;C_MARIADB_PHAIDRA -->
<g id="edge6" class="edge">
<title>HS_MARIADB_PHAIDRA&#45;&#45;C_MARIADB_PHAIDRA</title>
<path fill="none" stroke="turquoise" d="M975.59,-1665.42C1067.43,-1679.95 1194.64,-1681.93 1266.72,-1604.39 1319.99,-1547.1 1237.01,-256.8 1286.72,-196.39 1289.46,-193.06 1292.5,-190.07 1295.78,-187.4"/>
</g>
<!-- HS_MONGODB_PHAIDRA -->
<g id="node5" class="node">
<title>HS_MONGODB_PHAIDRA</title>
<polygon fill="none" stroke="turquoise" points="1250.72,-1525.39 1247.72,-1529.39 1226.72,-1529.39 1223.72,-1525.39 478.72,-1525.39 478.72,-1473.39 1250.72,-1473.39 1250.72,-1525.39"/>
<text text-anchor="start" x="490.72" y="-1507.19" font-family="Times,serif" font-weight="bold" font-size="14.00">host:</text>
<text text-anchor="start" x="698.72" y="-1506.19" font-family="Times,serif" font-size="14.00">$HOME/.local/share/docker/volumes/phaidra&#45;demo_mongodb_phaidra/_data</text>
<text text-anchor="start" x="490.72" y="-1485.19" font-family="Times,serif" font-size="14.00">phaidra&#45;mongodb&#45;container:</text>
<text text-anchor="start" x="698.72" y="-1485.19" font-family="Times,serif" font-size="14.00">/data/db</text>
</g>
<!-- C_MONGODB_PHAIDRA -->
<g id="node27" class="node">
<title>C_MONGODB_PHAIDRA</title>
<g id="a_node27"><a xlink:href="https://www.mongodb.com/" xlink:title="phaidra&#45;demo&#45;mongodb&#45;phaidra&#45;1">
<polygon fill="none" stroke="green" points="1544.72,-349.39 1286.72,-349.39 1286.72,-345.39 1282.72,-345.39 1282.72,-341.39 1286.72,-341.39 1286.72,-321.39 1282.72,-321.39 1282.72,-317.39 1286.72,-317.39 1286.72,-313.39 1544.72,-313.39 1544.72,-349.39"/>
<polyline fill="none" stroke="green" points="1286.72,-345.39 1290.72,-345.39 1290.72,-341.39 1286.72,-341.39 "/>
<polyline fill="none" stroke="green" points="1286.72,-321.39 1290.72,-321.39 1290.72,-317.39 1286.72,-317.39 "/>
<text text-anchor="middle" x="1415.72" y="-327.69" font-family="Times,serif" font-size="14.00">phaidra&#45;demo&#45;mongodb&#45;phaidra&#45;1</text>
</a>
</g>
</g>
<!-- HS_MONGODB_PHAIDRA&#45;&#45;C_MONGODB_PHAIDRA -->
<g id="edge7" class="edge">
<title>HS_MONGODB_PHAIDRA&#45;&#45;C_MONGODB_PHAIDRA</title>
<path fill="none" stroke="turquoise" d="M975.97,-1525.42C1067.73,-1539.85 1194.6,-1541.66 1266.72,-1464.39 1308.65,-1419.46 1247.58,-405.77 1286.72,-358.39 1289.47,-355.07 1292.52,-352.08 1295.8,-349.41"/>
</g>
<!-- HS_OPENLDAP -->
<g id="node6" class="node">
<title>HS_OPENLDAP</title>
<polygon fill="none" stroke="turquoise" points="1189.72,-1805.39 1186.72,-1809.39 1165.72,-1809.39 1162.72,-1805.39 539.72,-1805.39 539.72,-1753.39 1189.72,-1753.39 1189.72,-1805.39"/>
<text text-anchor="start" x="551.72" y="-1787.19" font-family="Times,serif" font-weight="bold" font-size="14.00">host:</text>
<text text-anchor="start" x="699.72" y="-1786.19" font-family="Times,serif" font-size="14.00">$HOME/.local/share/docker/volumes/phaidra&#45;demo_openldap/_data</text>
<text text-anchor="start" x="551.72" y="-1765.19" font-family="Times,serif" font-size="14.00">openldap&#45;container:</text>
<text text-anchor="start" x="699.72" y="-1765.19" font-family="Times,serif" font-size="14.00">/bitnami/openldap</text>
</g>
<!-- C_OPENLDAP -->
<g id="node29" class="node">
<title>C_OPENLDAP</title>
<g id="a_node29"><a xlink:href="https://www.openldap.org/" xlink:title="phaidra&#45;demo&#45;openldap&#45;1">
<polygon fill="none" stroke="green" points="1514.72,-403.39 1316.72,-403.39 1316.72,-399.39 1312.72,-399.39 1312.72,-395.39 1316.72,-395.39 1316.72,-375.39 1312.72,-375.39 1312.72,-371.39 1316.72,-371.39 1316.72,-367.39 1514.72,-367.39 1514.72,-403.39"/>
<polyline fill="none" stroke="green" points="1316.72,-399.39 1320.72,-399.39 1320.72,-395.39 1316.72,-395.39 "/>
<polyline fill="none" stroke="green" points="1316.72,-375.39 1320.72,-375.39 1320.72,-371.39 1316.72,-371.39 "/>
<text text-anchor="middle" x="1415.72" y="-381.69" font-family="Times,serif" font-size="14.00">phaidra&#45;demo&#45;openldap&#45;1</text>
</a>
</g>
</g>
<!-- HS_OPENLDAP&#45;&#45;C_OPENLDAP -->
<g id="edge10" class="edge">
<title>HS_OPENLDAP&#45;&#45;C_OPENLDAP</title>
<path fill="none" stroke="turquoise" d="M975.58,-1805.4C1067.4,-1819.93 1194.6,-1821.9 1266.72,-1744.39 1317.14,-1690.21 1239.67,-469.52 1286.72,-412.39 1294.66,-402.75 1305.1,-396 1316.59,-391.36"/>
</g>
<!-- HS_SOLR -->
<g id="node7" class="node">
<title>HS_SOLR</title>
<polygon fill="none" stroke="turquoise" points="1151.22,-1735.39 1148.22,-1739.39 1127.22,-1739.39 1124.22,-1735.39 578.22,-1735.39 578.22,-1683.39 1151.22,-1683.39 1151.22,-1735.39"/>
<text text-anchor="start" x="590.72" y="-1717.19" font-family="Times,serif" font-weight="bold" font-size="14.00">host:</text>
<text text-anchor="start" x="700.72" y="-1716.19" font-family="Times,serif" font-size="14.00">$HOME/.local/share/docker/volumes/phaidra&#45;demo_solr/_data</text>
<text text-anchor="start" x="590.72" y="-1695.19" font-family="Times,serif" font-size="14.00">solr&#45;container:</text>
<text text-anchor="start" x="700.72" y="-1695.19" font-family="Times,serif" font-size="14.00">/var/solr</text>
</g>
<!-- C_SOLR -->
<g id="node30" class="node">
<title>C_SOLR</title>
<g id="a_node30"><a xlink:href="https://solr.apache.org/" xlink:title="phaidra&#45;demo&#45;solr&#45;1">
<polygon fill="none" stroke="green" points="1495.72,-295.39 1335.72,-295.39 1335.72,-291.39 1331.72,-291.39 1331.72,-287.39 1335.72,-287.39 1335.72,-267.39 1331.72,-267.39 1331.72,-263.39 1335.72,-263.39 1335.72,-259.39 1495.72,-259.39 1495.72,-295.39"/>
<polyline fill="none" stroke="green" points="1335.72,-291.39 1339.72,-291.39 1339.72,-287.39 1335.72,-287.39 "/>
<polyline fill="none" stroke="green" points="1335.72,-267.39 1339.72,-267.39 1339.72,-263.39 1335.72,-263.39 "/>
<text text-anchor="middle" x="1415.72" y="-273.69" font-family="Times,serif" font-size="14.00">phaidra&#45;demo&#45;solr&#45;1</text>
</a>
</g>
</g>
<!-- HS_SOLR&#45;&#45;C_SOLR -->
<g id="edge12" class="edge">
<title>HS_SOLR&#45;&#45;C_SOLR</title>
<path fill="none" stroke="turquoise" d="M975.58,-1735.41C1067.42,-1749.94 1194.62,-1751.92 1266.72,-1674.39 1318.56,-1618.65 1238.34,-363.16 1286.72,-304.39 1298.85,-289.66 1316.8,-281.69 1335.44,-277.63"/>
</g>
<!-- HS_PIXELGECKO -->
<g id="node8" class="node">
<title>HS_PIXELGECKO</title>
<polygon fill="none" stroke="turquoise" points="1206.72,-2008.89 1203.72,-2012.89 1182.72,-2012.89 1179.72,-2008.89 522.72,-2008.89 522.72,-1935.89 1206.72,-1935.89 1206.72,-2008.89"/>
<text text-anchor="start" x="534.72" y="-1990.19" font-family="Times,serif" font-weight="bold" font-size="14.00">host:</text>
<text text-anchor="start" x="706.72" y="-1989.19" font-family="Times,serif" font-size="14.00">$HOME/.local/share/docker/volumes/phaidra&#45;demo_pixelgecko/_data</text>
<text text-anchor="start" x="534.72" y="-1968.19" font-family="Times,serif" font-size="14.00">pixelgecko&#45;container:</text>
<text text-anchor="start" x="706.72" y="-1968.19" font-family="Times,serif" font-size="14.00">/mnt/converted_images</text>
<text text-anchor="start" x="534.72" y="-1947.19" font-family="Times,serif" font-size="14.00">imageserver&#45;container:</text>
<text text-anchor="start" x="706.72" y="-1947.19" font-family="Times,serif" font-size="14.00">/mnt/converted_images:ro</text>
</g>
<!-- C_IMAGESERVER -->
<g id="node31" class="node">
<title>C_IMAGESERVER</title>
<g id="a_node31"><a xlink:href="https://github.com/ruven/iipsrv" xlink:title="phaidra&#45;demo&#45;imageserver&#45;1">
<polygon fill="none" stroke="green" points="1526.72,-457.39 1304.72,-457.39 1304.72,-453.39 1300.72,-453.39 1300.72,-449.39 1304.72,-449.39 1304.72,-429.39 1300.72,-429.39 1300.72,-425.39 1304.72,-425.39 1304.72,-421.39 1526.72,-421.39 1526.72,-457.39"/>
<polyline fill="none" stroke="green" points="1304.72,-453.39 1308.72,-453.39 1308.72,-449.39 1304.72,-449.39 "/>
<polyline fill="none" stroke="green" points="1304.72,-429.39 1308.72,-429.39 1308.72,-425.39 1304.72,-425.39 "/>
<text text-anchor="middle" x="1415.72" y="-435.69" font-family="Times,serif" font-size="14.00">phaidra&#45;demo&#45;imageserver&#45;1</text>
</a>
</g>
</g>
<!-- HS_PIXELGECKO&#45;&#45;C_IMAGESERVER -->
<g id="edge14" class="edge">
<title>HS_PIXELGECKO&#45;&#45;C_IMAGESERVER</title>
<path fill="none" stroke="turquoise" d="M1207.13,-1970.47C1229.37,-1959.6 1249.65,-1945.2 1266.72,-1926.39 1287.62,-1903.38 1281.27,-838 1286.72,-807.39 1311.58,-667.88 1381.47,-510.25 1406.05,-457.6"/>
</g>
<!-- HS_PIXELGECKO&#45;&#45;C_PIXELGECKO -->
<g id="edge16" class="edge">
<title>HS_PIXELGECKO&#45;&#45;C_PIXELGECKO</title>
<path fill="none" stroke="turquoise" d="M1207.04,-1958.44C1228.18,-1950.03 1248.31,-1939.5 1266.72,-1926.39 1499.27,-1760.84 1457.94,-1619.34 1544.72,-1347.39 1655.46,-1000.35 1692.63,-552.14 1699.49,-457.44"/>
</g>
<!-- HS_DBGATE -->
<g id="node9" class="node">
<title>HS_DBGATE</title>
<polygon fill="none" stroke="turquoise" points="1174.22,-1595.39 1171.22,-1599.39 1150.22,-1599.39 1147.22,-1595.39 555.22,-1595.39 555.22,-1543.39 1174.22,-1543.39 1174.22,-1595.39"/>
<text text-anchor="start" x="567.72" y="-1577.19" font-family="Times,serif" font-weight="bold" font-size="14.00">host:</text>
<text text-anchor="start" x="700.72" y="-1576.19" font-family="Times,serif" font-size="14.00">$HOME/.local/share/docker/volumes/phaidra&#45;demo_dbgate/_data</text>
<text text-anchor="start" x="567.72" y="-1555.19" font-family="Times,serif" font-size="14.00">dbgate&#45;container:</text>
<text text-anchor="start" x="700.72" y="-1555.19" font-family="Times,serif" font-size="14.00">/root/.dbgate</text>
</g>
<!-- C_DBGATE -->
<g id="node33" class="node">
<title>C_DBGATE</title>
<polygon fill="none" stroke="green" points="955.72,-179.39 773.72,-179.39 773.72,-175.39 769.72,-175.39 769.72,-171.39 773.72,-171.39 773.72,-151.39 769.72,-151.39 769.72,-147.39 773.72,-147.39 773.72,-143.39 955.72,-143.39 955.72,-179.39"/>
<polyline fill="none" stroke="green" points="773.72,-175.39 777.72,-175.39 777.72,-171.39 773.72,-171.39 "/>
<polyline fill="none" stroke="green" points="773.72,-151.39 777.72,-151.39 777.72,-147.39 773.72,-147.39 "/>
<text text-anchor="middle" x="864.72" y="-157.69" font-family="Times,serif" font-size="14.00">phaidra&#45;demo&#45;dbgate&#45;1</text>
</g>
<!-- HS_DBGATE&#45;&#45;C_DBGATE -->
<g id="edge18" class="edge">
<title>HS_DBGATE&#45;&#45;C_DBGATE</title>
<path fill="none" stroke="turquoise" d="M555.06,-1571.54C503.87,-1564.11 463.73,-1550.12 452.72,-1525.39 445.87,-1510.01 445.87,-328.77 452.72,-313.39 505.3,-195.34 668.87,-166.98 773.4,-161.29"/>
</g>
<!-- HS_MARIADB_FEDORA -->
<g id="node10" class="node">
<title>HS_MARIADB_FEDORA</title>
<polygon fill="none" stroke="turquoise" points="1235.22,-2149.39 1232.22,-2153.39 1211.22,-2153.39 1208.22,-2149.39 494.22,-2149.39 494.22,-2097.39 1235.22,-2097.39 1235.22,-2149.39"/>
<text text-anchor="start" x="506.72" y="-2131.19" font-family="Times,serif" font-weight="bold" font-size="14.00">host:</text>
<text text-anchor="start" x="699.72" y="-2130.19" font-family="Times,serif" font-size="14.00">$HOME/.local/share/docker/volumes/phaidra&#45;demo_mariadb_fedora/_data</text>
<text text-anchor="start" x="506.72" y="-2109.19" font-family="Times,serif" font-size="14.00">mariadb&#45;fedora&#45;container:</text>
<text text-anchor="start" x="699.72" y="-2109.19" font-family="Times,serif" font-size="14.00">/var/lib/mysql</text>
</g>
<!-- C_MARIADB_FEDORA -->
<g id="node35" class="node">
<title>C_MARIADB_FEDORA</title>
<g id="a_node35"><a xlink:href="https://mariadb.org/" xlink:title="phaidra&#45;demo&#45;mariadb&#45;fedora&#45;1">
<polygon fill="none" stroke="green" points="1822.72,-184.39 1580.72,-184.39 1580.72,-180.39 1576.72,-180.39 1576.72,-176.39 1580.72,-176.39 1580.72,-156.39 1576.72,-156.39 1576.72,-152.39 1580.72,-152.39 1580.72,-148.39 1822.72,-148.39 1822.72,-184.39"/>
<polyline fill="none" stroke="green" points="1580.72,-180.39 1584.72,-180.39 1584.72,-176.39 1580.72,-176.39 "/>
<polyline fill="none" stroke="green" points="1580.72,-156.39 1584.72,-156.39 1584.72,-152.39 1580.72,-152.39 "/>
<text text-anchor="middle" x="1701.72" y="-162.69" font-family="Times,serif" font-size="14.00">phaidra&#45;demo&#45;mariadb&#45;fedora&#45;1</text>
</a>
</g>
</g>
<!-- HS_MARIADB_FEDORA&#45;&#45;C_MARIADB_FEDORA -->
<g id="edge19" class="edge">
<title>HS_MARIADB_FEDORA&#45;&#45;C_MARIADB_FEDORA</title>
<path fill="none" stroke="turquoise" d="M999.13,-2149.41C1085.93,-2158.19 1195.78,-2152.69 1266.72,-2088.39 1828.24,-1579.44 1342.67,-1131.88 1580.72,-412.39 1610.35,-322.84 1666.18,-224.26 1689.76,-184.5"/>
</g>
<!-- HS_DATABASE_DUMPS -->
<g id="node11" class="node">
<title>HS_DATABASE_DUMPS</title>
<polygon fill="none" stroke="turquoise" points="1243.72,-1455.39 1240.72,-1459.39 1219.72,-1459.39 1216.72,-1455.39 485.72,-1455.39 485.72,-1403.39 1243.72,-1403.39 1243.72,-1455.39"/>
<text text-anchor="start" x="497.72" y="-1437.19" font-family="Times,serif" font-weight="bold" font-size="14.00">host:</text>
<text text-anchor="start" x="636.72" y="-1436.19" font-family="Times,serif" font-size="14.00">$HOME/.local/share/docker/volumes/phaidra&#45;demo_chronos_database_dumps/_data</text>
<text text-anchor="start" x="497.72" y="-1415.19" font-family="Times,serif" font-size="14.00">chronos&#45;container:</text>
<text text-anchor="start" x="636.72" y="-1415.19" font-family="Times,serif" font-size="14.00">/mnt/database&#45;dumps</text>
</g>
<!-- HS_SITEMAPS -->
<g id="node12" class="node">
<title>HS_SITEMAPS</title>
<polygon fill="none" stroke="turquoise" points="1216.22,-1314.89 1213.22,-1318.89 1192.22,-1318.89 1189.22,-1314.89 513.22,-1314.89 513.22,-1241.89 1216.22,-1241.89 1216.22,-1314.89"/>
<text text-anchor="start" x="525.72" y="-1296.19" font-family="Times,serif" font-weight="bold" font-size="14.00">host:</text>
<text text-anchor="start" x="664.72" y="-1295.19" font-family="Times,serif" font-size="14.00">$HOME/.local/share/docker/volumes/phaidra&#45;demo_chronos_sitemaps/_data</text>
<text text-anchor="start" x="525.72" y="-1274.19" font-family="Times,serif" font-size="14.00">chronos&#45;container:</text>
<text text-anchor="start" x="664.72" y="-1274.19" font-family="Times,serif" font-size="14.00">/mnt/sitemaps</text>
<text text-anchor="start" x="525.72" y="-1253.19" font-family="Times,serif" font-size="14.00">httpd&#45;container:</text>
<text text-anchor="start" x="664.72" y="-1253.19" font-family="Times,serif" font-size="14.00">/mnt/sitemaps:ro</text>
</g>
<!-- HS_OAI_LOGS -->
<g id="node13" class="node">
<title>HS_OAI_LOGS</title>
<polygon fill="none" stroke="turquoise" points="1212.22,-1385.39 1209.22,-1389.39 1188.22,-1389.39 1185.22,-1385.39 517.22,-1385.39 517.22,-1333.39 1212.22,-1333.39 1212.22,-1385.39"/>
<text text-anchor="start" x="529.72" y="-1367.19" font-family="Times,serif" font-weight="bold" font-size="14.00">host:</text>
<text text-anchor="start" x="668.72" y="-1366.19" font-family="Times,serif" font-size="14.00">$HOME/.local/share/docker/volumes/phaidra&#45;demo_chronos_oai_logs/_data</text>
<text text-anchor="start" x="529.72" y="-1345.19" font-family="Times,serif" font-size="14.00">chronos&#45;container:</text>
<text text-anchor="start" x="668.72" y="-1345.19" font-family="Times,serif" font-size="14.00">/mnt/oai&#45;logs</text>
</g>
<!-- BIND_MARIADB_PHAIDRA_INIT -->
<g id="node14" class="node">
<title>BIND_MARIADB_PHAIDRA_INIT</title>
<polygon fill="none" stroke="blue" points="1148.72,-564.39 1145.72,-568.39 1124.72,-568.39 1121.72,-564.39 580.72,-564.39 580.72,-512.39 1148.72,-512.39 1148.72,-564.39"/>
<text text-anchor="start" x="592.72" y="-546.19" font-family="Times,serif" font-weight="bold" font-size="14.00">host:</text>
<text text-anchor="start" x="794.72" y="-545.19" font-family="Times,serif" font-size="14.00">$REPO/container_init/mariadb/phaidradb.sql.gz</text>
<text text-anchor="start" x="592.72" y="-524.19" font-family="Times,serif" font-size="14.00">mariadb&#45;phaidra&#45;container:</text>
<text text-anchor="start" x="794.72" y="-524.19" font-family="Times,serif" font-size="14.00">/docker&#45;entrypoint&#45;initdb.d/phaidradb.sql.gz:ro</text>
</g>
<!-- BIND_MARIADB_PHAIDRA_INIT&#45;&#45;C_MARIADB_PHAIDRA -->
<g id="edge5" class="edge">
<title>BIND_MARIADB_PHAIDRA_INIT&#45;&#45;C_MARIADB_PHAIDRA</title>
<path fill="none" stroke="blue" d="M1148.76,-555.05C1193.31,-544.82 1235.03,-525.6 1266.72,-492.39 1312.24,-444.7 1243.49,-246.17 1286.72,-196.39 1289.55,-193.13 1292.67,-190.21 1296.01,-187.59"/>
</g>
<!-- BIND_OPENLDAP_INIT -->
<g id="node15" class="node">
<title>BIND_OPENLDAP_INIT</title>
<polygon fill="none" stroke="blue" points="1062.72,-1124.39 1059.72,-1128.39 1038.72,-1128.39 1035.72,-1124.39 666.72,-1124.39 666.72,-1072.39 1062.72,-1072.39 1062.72,-1124.39"/>
<text text-anchor="start" x="678.72" y="-1106.19" font-family="Times,serif" font-weight="bold" font-size="14.00">host:</text>
<text text-anchor="start" x="826.72" y="-1105.19" font-family="Times,serif" font-size="14.00">$REPO/container_init/openldap</text>
<text text-anchor="start" x="678.72" y="-1084.19" font-family="Times,serif" font-size="14.00">openldap&#45;container:</text>
<text text-anchor="start" x="826.72" y="-1084.19" font-family="Times,serif" font-size="14.00">/ldifs:ro</text>
</g>
<!-- BIND_OPENLDAP_INIT&#45;&#45;C_OPENLDAP -->
<g id="edge11" class="edge">
<title>BIND_OPENLDAP_INIT&#45;&#45;C_OPENLDAP</title>
<path fill="none" stroke="blue" d="M977.09,-1124.4C1068.59,-1138.49 1194.48,-1139.83 1266.72,-1063.39 1316.43,-1010.8 1240.28,-467.89 1286.72,-412.39 1294.67,-402.9 1305.03,-396.23 1316.42,-391.6"/>
</g>
<!-- BIND_HTTPD_CONFIG -->
<g id="node16" class="node">
<title>BIND_HTTPD_CONFIG</title>
<polygon fill="none" stroke="blue" points="1088.22,-914.39 1085.22,-918.39 1064.22,-918.39 1061.22,-914.39 641.22,-914.39 641.22,-862.39 1088.22,-862.39 1088.22,-914.39"/>
<text text-anchor="start" x="653.72" y="-896.19" font-family="Times,serif" font-weight="bold" font-size="14.00">host:</text>
<text text-anchor="start" x="775.72" y="-895.19" font-family="Times,serif" font-size="14.00">$REPO/container_init/httpd/phaidra&#45;demo</text>
<text text-anchor="start" x="653.72" y="-874.19" font-family="Times,serif" font-size="14.00">httpd&#45;container:</text>
<text text-anchor="start" x="775.72" y="-874.19" font-family="Times,serif" font-size="14.00">/mnt/startup:ro</text>
</g>
<!-- BIND_API_CODE -->
<g id="node17" class="node">
<title>BIND_API_CODE</title>
<polygon fill="none" stroke="blue" points="1044.22,-984.39 1041.22,-988.39 1020.22,-988.39 1017.22,-984.39 685.22,-984.39 685.22,-932.39 1044.22,-932.39 1044.22,-984.39"/>
<text text-anchor="start" x="697.72" y="-966.19" font-family="Times,serif" font-weight="bold" font-size="14.00">host:</text>
<text text-anchor="start" x="802.72" y="-965.19" font-family="Times,serif" font-size="14.00">$REPO/src/phaidra&#45;api</text>
<text text-anchor="start" x="697.72" y="-944.19" font-family="Times,serif" font-size="14.00">api&#45;container:</text>
<text text-anchor="start" x="802.72" y="-944.19" font-family="Times,serif" font-size="14.00">/usr/local/phaidra/phaidra&#45;api:ro</text>
</g>
<!-- BIND_API_CODE&#45;&#45;C_API -->
<g id="edge4" class="edge">
<title>BIND_API_CODE&#45;&#45;C_API</title>
<path fill="none" stroke="blue" d="M685.12,-967.94C583.25,-968.32 472.24,-958.21 452.72,-914.39 443.57,-893.84 443.57,-529.95 452.72,-509.39 508.75,-383.58 683.81,-346.65 786.83,-335.84"/>
</g>
<!-- BIND_DOCUMENTATION -->
<g id="node18" class="node">
<title>BIND_DOCUMENTATION</title>
<polygon fill="none" stroke="blue" points="982.72,-844.39 979.72,-848.39 958.72,-848.39 955.72,-844.39 746.72,-844.39 746.72,-792.39 982.72,-792.39 982.72,-844.39"/>
<text text-anchor="start" x="758.72" y="-826.19" font-family="Times,serif" font-weight="bold" font-size="14.00">host:</text>
<text text-anchor="start" x="880.72" y="-825.19" font-family="Times,serif" font-size="14.00">$REPO/docs</text>
<text text-anchor="start" x="758.72" y="-804.19" font-family="Times,serif" font-size="14.00">httpd&#45;container:</text>
<text text-anchor="start" x="880.72" y="-804.19" font-family="Times,serif" font-size="14.00">/mnt/docs:ro</text>
</g>
<!-- BIND_CHRONOS -->
<g id="node19" class="node">
<title>BIND_CHRONOS</title>
<polygon fill="none" stroke="blue" points="1053.72,-1054.39 1050.72,-1058.39 1029.72,-1058.39 1026.72,-1054.39 675.72,-1054.39 675.72,-1002.39 1053.72,-1002.39 1053.72,-1054.39"/>
<text text-anchor="start" x="687.72" y="-1036.19" font-family="Times,serif" font-weight="bold" font-size="14.00">host:</text>
<text text-anchor="start" x="826.72" y="-1035.19" font-family="Times,serif" font-size="14.00">$REPO/container_init/chronos</text>
<text text-anchor="start" x="687.72" y="-1014.19" font-family="Times,serif" font-size="14.00">chronos&#45;container:</text>
<text text-anchor="start" x="826.72" y="-1014.19" font-family="Times,serif" font-size="14.00">/mnt/chronos:ro</text>
</g>
<!-- BIND_MONGODB_INIT_OAI -->
<g id="node20" class="node">
<title>BIND_MONGODB_INIT_OAI</title>
<polygon fill="none" stroke="blue" points="1126.72,-774.39 1123.72,-778.39 1102.72,-778.39 1099.72,-774.39 602.72,-774.39 602.72,-722.39 1126.72,-722.39 1126.72,-774.39"/>
<text text-anchor="start" x="614.72" y="-756.19" font-family="Times,serif" font-weight="bold" font-size="14.00">host:</text>
<text text-anchor="start" x="763.72" y="-755.19" font-family="Times,serif" font-size="14.00">$REPO/container_init/mongodb/init_oai_sets.json</text>
<text text-anchor="start" x="614.72" y="-734.19" font-family="Times,serif" font-size="14.00">mongodb&#45;container:</text>
<text text-anchor="start" x="763.72" y="-734.19" font-family="Times,serif" font-size="14.00">/mnt/init_oai_sets.json:ro</text>
</g>
<!-- BIND_MONGODB_INIT_OAI&#45;&#45;C_MONGODB_PHAIDRA -->
<g id="edge9" class="edge">
<title>BIND_MONGODB_INIT_OAI&#45;&#45;C_MONGODB_PHAIDRA</title>
<path fill="none" stroke="blue" d="M979.79,-774.4C1070.7,-787.74 1194.36,-788.02 1266.72,-713.39 1321.73,-656.67 1235.24,-418.33 1286.72,-358.39 1289.53,-355.12 1292.63,-352.18 1295.96,-349.55"/>
</g>
<!-- BIND_MONGODB_INIT -->
<g id="node21" class="node">
<title>BIND_MONGODB_INIT</title>
<polygon fill="none" stroke="blue" points="1149.22,-704.39 1146.22,-708.39 1125.22,-708.39 1122.22,-704.39 580.22,-704.39 580.22,-652.39 1149.22,-652.39 1149.22,-704.39"/>
<text text-anchor="start" x="592.72" y="-686.19" font-family="Times,serif" font-weight="bold" font-size="14.00">host:</text>
<text text-anchor="start" x="741.72" y="-685.19" font-family="Times,serif" font-size="14.00">$REPO/container_init/mongodb/mongodb&#45;after&#45;entry.sh</text>
<text text-anchor="start" x="592.72" y="-664.19" font-family="Times,serif" font-size="14.00">mongodb&#45;container:</text>
<text text-anchor="start" x="741.72" y="-664.19" font-family="Times,serif" font-size="14.00">/docker&#45;entrypoint&#45;initdb.d/mongodb&#45;after&#45;entry.sh:ro</text>
</g>
<!-- BIND_MONGODB_INIT&#45;&#45;C_MONGODB_PHAIDRA -->
<g id="edge8" class="edge">
<title>BIND_MONGODB_INIT&#45;&#45;C_MONGODB_PHAIDRA</title>
<path fill="none" stroke="blue" d="M981.36,-704.41C1071.93,-717.32 1194.34,-717.02 1266.72,-643.39 1311.23,-598.12 1245.03,-406.27 1286.72,-358.39 1289.63,-355.05 1292.84,-352.06 1296.28,-349.39"/>
</g>
<!-- BIND_SOLR_INIT -->
<g id="node22" class="node">
<title>BIND_SOLR_INIT</title>
<polygon fill="none" stroke="blue" points="1073.22,-634.39 1070.22,-638.39 1049.22,-638.39 1046.22,-634.39 656.22,-634.39 656.22,-582.39 1073.22,-582.39 1073.22,-634.39"/>
<text text-anchor="start" x="668.72" y="-616.19" font-family="Times,serif" font-weight="bold" font-size="14.00">host:</text>
<text text-anchor="start" x="778.72" y="-615.19" font-family="Times,serif" font-size="14.00">$REPO/container_init/solr/phaidra_core</text>
<text text-anchor="start" x="668.72" y="-594.19" font-family="Times,serif" font-size="14.00">solr&#45;container:</text>
<text text-anchor="start" x="778.72" y="-594.19" font-family="Times,serif" font-size="14.00">/tmp/phaidra:ro</text>
</g>
<!-- BIND_SOLR_INIT&#45;&#45;C_SOLR -->
<g id="edge13" class="edge">
<title>BIND_SOLR_INIT&#45;&#45;C_SOLR</title>
<path fill="none" stroke="blue" d="M982.19,-634.45C1072.63,-647.19 1194.43,-646.62 1266.72,-573.39 1308.83,-530.73 1247.26,-349.51 1286.72,-304.39 1299.21,-290.12 1317.16,-282.28 1335.7,-278.2"/>
</g>
<!-- BIND_PIXELGECKO -->
<g id="node23" class="node">
<title>BIND_PIXELGECKO</title>
<polygon fill="none" stroke="blue" points="1035.22,-1194.39 1032.22,-1198.39 1011.22,-1198.39 1008.22,-1194.39 694.22,-1194.39 694.22,-1142.39 1035.22,-1142.39 1035.22,-1194.39"/>
<text text-anchor="start" x="706.72" y="-1176.19" font-family="Times,serif" font-weight="bold" font-size="14.00">host:</text>
<text text-anchor="start" x="865.72" y="-1175.19" font-family="Times,serif" font-size="14.00">$REPO/src/pixelgecko</text>
<text text-anchor="start" x="706.72" y="-1154.19" font-family="Times,serif" font-size="14.00">pixelgecko&#45;container:</text>
<text text-anchor="start" x="865.72" y="-1154.19" font-family="Times,serif" font-size="14.00">/opt/pixelgecko:ro</text>
</g>
<!-- BIND_PIXELGECKO&#45;&#45;C_PIXELGECKO -->
<g id="edge17" class="edge">
<title>BIND_PIXELGECKO&#45;&#45;C_PIXELGECKO</title>
<path fill="none" stroke="blue" d="M1035.28,-1186.44C1111.07,-1186.59 1198.49,-1175.18 1266.72,-1133.39 1541.81,-964.92 1670.29,-549.55 1695.87,-457.61"/>
</g>
<!-- C_FEDORA&#45;&#45;C_MARIADB_FEDORA -->
<g id="edge27" class="edge">
<title>C_FEDORA&#45;&#45;C_MARIADB_FEDORA</title>
<path fill="none" stroke="orange" d="M1505.41,-205.59C1538.94,-198.86 1577.1,-191.2 1610.75,-184.45"/>
</g>
<!-- C_API&#45;&#45;C_FEDORA -->
<g id="edge28" class="edge">
<title>C_API&#45;&#45;C_FEDORA</title>
<path fill="none" stroke="orange" d="M942.25,-320.86C1023.53,-308.85 1155.37,-286.97 1266.72,-257.39 1275.82,-254.97 1277.65,-252.92 1286.72,-250.39 1299.3,-246.88 1312.69,-243.58 1325.88,-240.58"/>
</g>
<!-- C_API&#45;&#45;C_MARIADB_PHAIDRA -->
<g id="edge29" class="edge">
<title>C_API&#45;&#45;C_MARIADB_PHAIDRA</title>
<path fill="none" stroke="orange" d="M942.3,-328.41C1028.72,-321.52 1169.86,-299.29 1266.72,-228.39 1280.26,-218.49 1272.98,-206 1286.72,-196.39 1291.56,-193.01 1296.74,-190.03 1302.13,-187.42"/>
</g>
<!-- C_API&#45;&#45;C_MONGODB_PHAIDRA -->
<g id="edge30" class="edge">
<title>C_API&#45;&#45;C_MONGODB_PHAIDRA</title>
<path fill="none" stroke="orange" d="M942.35,-331.39C1031.47,-331.39 1179.99,-331.39 1286.72,-331.39"/>
</g>
<!-- C_UI -->
<g id="node28" class="node">
<title>C_UI</title>
<g id="a_node28"><a xlink:href="https://github.com/phaidra/phaidra-ui" xlink:title="phaidra&#45;demo&#45;ui&#45;1">
<polygon fill="none" stroke="green" points="1488.72,-133.39 1342.72,-133.39 1342.72,-129.39 1338.72,-129.39 1338.72,-125.39 1342.72,-125.39 1342.72,-105.39 1338.72,-105.39 1338.72,-101.39 1342.72,-101.39 1342.72,-97.39 1488.72,-97.39 1488.72,-133.39"/>
<polyline fill="none" stroke="green" points="1342.72,-129.39 1346.72,-129.39 1346.72,-125.39 1342.72,-125.39 "/>
<polyline fill="none" stroke="green" points="1342.72,-105.39 1346.72,-105.39 1346.72,-101.39 1342.72,-101.39 "/>
<text text-anchor="middle" x="1415.72" y="-111.69" font-family="Times,serif" font-size="14.00">phaidra&#45;demo&#45;ui&#45;1</text>
</a>
</g>
</g>
<!-- C_API&#45;&#45;C_UI -->
<g id="edge31" class="edge">
<title>C_API&#45;&#45;C_UI</title>
<path fill="none" stroke="orange" d="M942.41,-327.27C1031.94,-318.38 1178.92,-290.51 1266.72,-203.39 1286.98,-183.3 1265.48,-161.44 1286.72,-142.39 1302.03,-128.67 1322.51,-121.28 1342.59,-117.45"/>
</g>
<!-- C_API&#45;&#45;C_OPENLDAP -->
<g id="edge32" class="edge">
<title>C_API&#45;&#45;C_OPENLDAP</title>
<path fill="none" stroke="orange" d="M942.35,-338.93C1040.1,-348.54 1209.29,-365.19 1316.44,-375.72"/>
</g>
<!-- C_API&#45;&#45;C_SOLR -->
<g id="edge33" class="edge">
<title>C_API&#45;&#45;C_SOLR</title>
<path fill="none" stroke="orange" d="M942.35,-323.86C1046.14,-313.65 1230.49,-295.51 1335.57,-285.18"/>
</g>
<!-- C_API&#45;&#45;C_IMAGESERVER -->
<g id="edge34" class="edge">
<title>C_API&#45;&#45;C_IMAGESERVER</title>
<path fill="none" stroke="orange" d="M942.35,-346.47C1042.16,-366.1 1216.47,-400.39 1323.14,-421.38"/>
</g>
<!-- C_MONGODB_PHAIDRA&#45;&#45;C_PIXELGECKO -->
<g id="edge35" class="edge">
<title>C_MONGODB_PHAIDRA&#45;&#45;C_PIXELGECKO</title>
<path fill="none" stroke="orange" d="M1515.66,-349.44C1525.58,-352.09 1535.42,-355.07 1544.72,-358.39 1591.27,-375.04 1641.38,-403.05 1671.9,-421.38"/>
</g>
<!-- C_LAM -->
<g id="node34" class="node">
<title>C_LAM</title>
<polygon fill="none" stroke="green" points="1781.22,-102.39 1622.22,-102.39 1622.22,-98.39 1618.22,-98.39 1618.22,-94.39 1622.22,-94.39 1622.22,-74.39 1618.22,-74.39 1618.22,-70.39 1622.22,-70.39 1622.22,-66.39 1781.22,-66.39 1781.22,-102.39"/>
<polyline fill="none" stroke="green" points="1622.22,-98.39 1626.22,-98.39 1626.22,-94.39 1622.22,-94.39 "/>
<polyline fill="none" stroke="green" points="1622.22,-74.39 1626.22,-74.39 1626.22,-70.39 1622.22,-70.39 "/>
<text text-anchor="middle" x="1701.72" y="-80.69" font-family="Times,serif" font-size="14.00">phaidra&#45;demo&#45;lam&#45;1</text>
</g>
<!-- C_OPENLDAP&#45;&#45;C_LAM -->
<g id="edge36" class="edge">
<title>C_OPENLDAP&#45;&#45;C_LAM</title>
<path fill="none" stroke="orange" d="M1514.84,-377.8C1526.04,-373.35 1536.4,-367.09 1544.72,-358.39 1612.89,-287.09 1520.87,-217.8 1580.72,-139.39 1593.58,-122.54 1612.82,-110.69 1632.14,-102.42"/>
</g>
<!-- C_DBGATE&#45;&#45;C_MARIADB_PHAIDRA -->
<g id="edge37" class="edge">
<title>C_DBGATE&#45;&#45;C_MARIADB_PHAIDRA</title>
<path fill="none" stroke="orange" d="M955.76,-162.7C1046.79,-164.03 1188.2,-166.09 1290,-167.57"/>
</g>
<!-- C_DBGATE&#45;&#45;C_MONGODB_PHAIDRA -->
<g id="edge38" class="edge">
<title>C_DBGATE&#45;&#45;C_MONGODB_PHAIDRA</title>
<path fill="none" stroke="orange" d="M912.82,-179.46C990.04,-208.61 1148.82,-266.57 1286.72,-304.39 1298.33,-307.58 1310.62,-310.6 1322.81,-313.39"/>
</g>
<!-- C_DBGATE&#45;&#45;C_MARIADB_FEDORA -->
<g id="edge39" class="edge">
<title>C_DBGATE&#45;&#45;C_MARIADB_FEDORA</title>
<path fill="none" stroke="orange" d="M935.28,-143.37C1085.6,-105.86 1436,-26.63 1544.72,-73.39 1566.09,-82.58 1561.8,-97.85 1580.72,-111.39 1601.88,-126.53 1627.86,-139.05 1650.23,-148.31"/>
</g>
<!-- C_CHRONOS -->
<g id="node36" class="node">
<title>C_CHRONOS</title>
<polygon fill="none" stroke="green" points="442.72,-406.39 253.72,-406.39 253.72,-402.39 249.72,-402.39 249.72,-398.39 253.72,-398.39 253.72,-378.39 249.72,-378.39 249.72,-374.39 253.72,-374.39 253.72,-370.39 442.72,-370.39 442.72,-406.39"/>
<polyline fill="none" stroke="green" points="253.72,-402.39 257.72,-402.39 257.72,-398.39 253.72,-398.39 "/>
<polyline fill="none" stroke="green" points="253.72,-378.39 257.72,-378.39 257.72,-374.39 253.72,-374.39 "/>
<text text-anchor="middle" x="348.22" y="-384.69" font-family="Times,serif" font-size="14.00">phaidra&#45;demo&#45;chronos&#45;1</text>
</g>
<!-- C_CHRONOS&#45;&#45;HS_DATABASE_DUMPS -->
<g id="edge23" class="edge">
<title>C_CHRONOS&#45;&#45;HS_DATABASE_DUMPS</title>
<path fill="none" stroke="turquoise" d="M349.91,-406.55C355.02,-536.52 388.87,-1322.38 462.72,-1394.39 534.9,-1464.77 653.05,-1466.94 742.46,-1455.44"/>
</g>
<!-- C_CHRONOS&#45;&#45;HS_SITEMAPS -->
<g id="edge24" class="edge">
<title>C_CHRONOS&#45;&#45;HS_SITEMAPS</title>
<path fill="none" stroke="turquoise" d="M350.35,-406.45C357.82,-523.27 401.72,-1169.16 462.72,-1229.39 477.69,-1244.18 494.66,-1256.17 512.96,-1265.82"/>
</g>
<!-- C_CHRONOS&#45;&#45;HS_OAI_LOGS -->
<g id="edge25" class="edge">
<title>C_CHRONOS&#45;&#45;HS_OAI_LOGS</title>
<path fill="none" stroke="turquoise" d="M350.07,-406.47C356.06,-530.91 393.88,-1257.83 462.72,-1324.39 534.81,-1394.1 652.08,-1396.66 741.23,-1385.44"/>
</g>
<!-- C_CHRONOS&#45;&#45;BIND_CHRONOS -->
<g id="edge26" class="edge">
<title>C_CHRONOS&#45;&#45;BIND_CHRONOS</title>
<path fill="none" stroke="blue" d="M349.79,-406.48C353.07,-498.34 372.74,-911.86 462.72,-993.39 533.67,-1057.68 643.52,-1063.18 730.32,-1054.41"/>
</g>
<!-- C_CHRONOS&#45;&#45;C_API -->
<g id="edge50" class="edge">
<title>C_CHRONOS&#45;&#45;C_API</title>
<path fill="none" stroke="orange" d="M424.05,-370.39C436.89,-367.74 450.15,-365.27 462.72,-363.39 574.79,-346.66 705.88,-338.28 786.87,-334.39"/>
</g>
<!-- C_CHRONOS&#45;&#45;C_MARIADB_PHAIDRA -->
<g id="edge47" class="edge">
<title>C_CHRONOS&#45;&#45;C_MARIADB_PHAIDRA</title>
<path fill="none" stroke="orange" d="M367.44,-370.16C388.44,-350.35 424.95,-319.53 462.72,-304.39 797.03,-170.46 916.13,-285.78 1266.72,-203.39 1275.89,-201.24 1277.65,-198.92 1286.72,-196.39 1298.1,-193.22 1310.13,-190.22 1322.09,-187.45"/>
</g>
<!-- C_CHRONOS&#45;&#45;C_MONGODB_PHAIDRA -->
<g id="edge46" class="edge">
<title>C_CHRONOS&#45;&#45;C_MONGODB_PHAIDRA</title>
<path fill="none" stroke="orange" d="M442.96,-405.36C612.7,-432.11 979.98,-471.58 1266.72,-373.39 1277.23,-369.79 1276.6,-362.98 1286.72,-358.39 1294.17,-355.02 1302.05,-352.06 1310.1,-349.46"/>
</g>
<!-- C_CHRONOS&#45;&#45;C_SOLR -->
<g id="edge49" class="edge">
<title>C_CHRONOS&#45;&#45;C_SOLR</title>
<path fill="none" stroke="orange" d="M442.97,-375.16C449.65,-374.48 456.28,-373.88 462.72,-373.39 485,-371.72 1248.51,-371.32 1266.72,-358.39 1287.59,-343.58 1267.35,-321.11 1286.72,-304.39 1300.39,-292.6 1317.91,-285.52 1335.58,-281.38"/>
</g>
<!-- C_CHRONOS&#45;&#45;C_MARIADB_FEDORA -->
<g id="edge48" class="edge">
<title>C_CHRONOS&#45;&#45;C_MARIADB_FEDORA</title>
<path fill="none" stroke="orange" d="M377.89,-370.22C399.16,-355.19 427.08,-331.9 442.72,-304.39 465.35,-264.62 427.63,-232.77 462.72,-203.39 496.98,-174.72 1232.44,-217.04 1266.72,-188.39 1301.5,-159.33 1251.67,-117.13 1286.72,-88.39 1308.89,-70.22 1517.21,-80.35 1544.72,-88.39 1562.95,-93.72 1564.05,-102.3 1580.72,-111.39 1605.57,-124.94 1634.37,-138.22 1657.53,-148.33"/>
</g>
<!-- WEBSERVER&#45;&#45;HS_SITEMAPS -->
<g id="edge22" class="edge">
<title>WEBSERVER&#45;&#45;HS_SITEMAPS</title>
<path fill="none" stroke="turquoise" d="M380.17,-295.47C402.04,-310.15 429.69,-333.04 442.72,-361.39 462.87,-405.22 430.34,-1193.65 462.72,-1229.39 477.44,-1245.63 494.54,-1258.64 513.22,-1268.96"/>
</g>
<!-- WEBSERVER&#45;&#45;BIND_HTTPD_CONFIG -->
<g id="edge20" class="edge">
<title>WEBSERVER&#45;&#45;BIND_HTTPD_CONFIG</title>
<path fill="none" stroke="blue" d="M380.03,-295.54C401.82,-310.26 429.44,-333.16 442.72,-361.39 466.01,-410.9 424.94,-813.82 462.72,-853.39 534.98,-929.09 659.92,-928.2 751.18,-914.43"/>
</g>
<!-- WEBSERVER&#45;&#45;BIND_DOCUMENTATION -->
<g id="edge21" class="edge">
<title>WEBSERVER&#45;&#45;BIND_DOCUMENTATION</title>
<path fill="none" stroke="blue" d="M379.97,-295.57C401.74,-310.29 429.34,-333.2 442.72,-361.39 462.85,-403.8 430.19,-749.55 462.72,-783.39 534.99,-858.59 659.3,-858 750.39,-844.44"/>
</g>
<!-- WEBSERVER&#45;&#45;C_FEDORA -->
<g id="edge40" class="edge">
<title>WEBSERVER&#45;&#45;C_FEDORA</title>
<path fill="none" stroke="magenta" d="M434.62,-273.06C633.13,-263 1124.12,-238.12 1325.93,-227.89"/>
</g>
<!-- WEBSERVER&#45;&#45;C_API -->
<g id="edge41" class="edge">
<title>WEBSERVER&#45;&#45;C_API</title>
<path fill="none" stroke="magenta" d="M434.47,-286.34C532.71,-296.65 692.71,-313.44 787.13,-323.35"/>
</g>
<!-- WEBSERVER&#45;&#45;C_UI -->
<g id="edge42" class="edge">
<title>WEBSERVER&#45;&#45;C_UI</title>
<path fill="none" stroke="magenta" d="M357.08,-259.36C372.18,-227.29 408.62,-161.19 462.72,-134.39 760.84,13.28 1178.58,-59.48 1343.62,-97.36"/>
</g>
<!-- WEBSERVER&#45;&#45;C_SOLR -->
<g id="edge43" class="edge">
<title>WEBSERVER&#45;&#45;C_SOLR</title>
<path fill="none" stroke="magenta" d="M434.62,-277.39C636.34,-277.39 1140.08,-277.39 1335.49,-277.39"/>
</g>
<!-- WEBSERVER&#45;&#45;C_DBGATE -->
<g id="edge44" class="edge">
<title>WEBSERVER&#45;&#45;C_DBGATE</title>
<path fill="none" stroke="magenta" d="M366.94,-259.2C387.76,-239.12 424.38,-207.75 462.72,-193.39 564.26,-155.36 690.12,-151.69 773.46,-154.69"/>
</g>
<!-- WEBSERVER&#45;&#45;C_LAM -->
<g id="edge45" class="edge">
<title>WEBSERVER&#45;&#45;C_LAM</title>
<path fill="none" stroke="magenta" d="M351.6,-259.08C358.69,-213.02 384.28,-92.53 462.72,-43.39 614.14,51.45 1088.09,-39.86 1266.72,-43.39 1390.35,-45.84 1421.88,-40.23 1544.72,-54.39 1570.07,-57.31 1597.46,-62.04 1622.12,-66.89"/>
</g>
</g>
</svg>
