<?xml version="1.0" encoding="UTF-8" standalone="no"?>
<!DOCTYPE svg PUBLIC "-//W3C//DTD SVG 1.1//EN"
 "http://www.w3.org/Graphics/SVG/1.1/DTD/svg11.dtd">
<!-- Generated by graphviz version 2.43.0 (0)
 -->
<!-- Title: G Pages: 1 -->
<svg width="1929pt" height="1032pt"
 viewBox="0.00 0.00 1928.72 1032.00" xmlns="http://www.w3.org/2000/svg" xmlns:xlink="http://www.w3.org/1999/xlink">
<g id="graph0" class="graph" transform="scale(1 1) rotate(0) translate(4 1028)">
<title>G</title>
<polygon fill="white" stroke="transparent" points="-4,4 -4,-1028 1924.72,-1028 1924.72,4 -4,4"/>
<g id="clust1" class="cluster">
<title>cluster_host</title>
<polygon fill="none" stroke="red" points="213.72,-8 213.72,-1016 1912.72,-1016 1912.72,-8 213.72,-8"/>
<text text-anchor="middle" x="1063.22" y="-1000.8" font-family="Times,serif" font-size="14.00">PHAIDRA server firewall</text>
</g>
<g id="clust2" class="cluster">
<title>cluster_host_storage</title>
<polygon fill="none" stroke="blue" points="221.72,-16 221.72,-985 1050.72,-985 1050.72,-16 221.72,-16"/>
<text text-anchor="middle" x="636.22" y="-969.8" font-family="Times,serif" font-size="14.00">PHAIDRA server filesystem</text>
</g>
<g id="clust3" class="cluster">
<title>cluster_named_volumes</title>
<polygon fill="none" stroke="turquoise" points="229.72,-70 229.72,-785 1042.72,-785 1042.72,-70 229.72,-70"/>
<text text-anchor="middle" x="636.22" y="-769.8" font-family="Times,serif" font-size="14.00">Named volumes</text>
</g>
<g id="clust4" class="cluster">
<title>cluster_bind_mounts</title>
<polygon fill="none" stroke="blue" points="313.22,-793 313.22,-954 959.22,-954 959.22,-793 313.22,-793"/>
<text text-anchor="middle" x="636.22" y="-938.8" font-family="Times,serif" font-size="14.00">Bind mounts</text>
</g>
<g id="clust5" class="cluster">
<title>cluster_docker_network_host</title>
<polygon fill="none" stroke="green" points="1062.72,-153 1062.72,-572 1904.72,-572 1904.72,-153 1062.72,-153"/>
<text text-anchor="middle" x="1483.72" y="-556.8" font-family="Times,serif" font-size="14.00">PHAIDRA docker containers</text>
</g>
<!-- USER -->
<g id="node1" class="node">
<title>USER</title>
<polygon fill="none" stroke="black" points="193.59,-34.54 193.59,-49.46 139.27,-60 62.45,-60 8.13,-49.46 8.13,-34.54 62.45,-24 139.27,-24 193.59,-34.54"/>
<polygon fill="none" stroke="black" points="197.59,-31.25 197.59,-52.75 139.66,-64 62.07,-64 4.13,-52.75 4.13,-31.25 62.07,-20 139.66,-20 197.59,-31.25"/>
<polygon fill="none" stroke="black" points="201.58,-27.95 201.58,-56.05 140.04,-68 61.68,-68 0.14,-56.05 0.14,-27.95 61.68,-16 140.04,-16 201.58,-27.95"/>
<text text-anchor="middle" x="100.86" y="-38.3" font-family="Times,serif" font-size="14.00">PHAIDRA USER</text>
</g>
<!-- WEBSERVER -->
<g id="node2" class="node">
<title>WEBSERVER</title>
<ellipse fill="none" stroke="black" cx="636.22" cy="-42" rx="102.88" ry="18"/>
<text text-anchor="middle" x="636.22" y="-38.3" font-family="Times,serif" font-size="14.00">External Webserver</text>
</g>
<!-- USER&#45;&#45;WEBSERVER -->
<g id="edge34" class="edge">
<title>USER&#45;&#45;WEBSERVER</title>
<path fill="none" stroke="red" d="M201.87,-42C296.58,-42 438.11,-42 533.42,-42"/>
</g>
<!-- C_FEDORA -->
<g id="node14" class="node">
<title>C_FEDORA</title>
<g id="a_node14"><a xlink:href="https://fedora.lyrasis.org/" xlink:title="phaidra&#45;ssl&#45;nginx&#45;fedora&#45;1">
<polygon fill="none" stroke="green" points="1555.22,-217 1352.22,-217 1352.22,-213 1348.22,-213 1348.22,-209 1352.22,-209 1352.22,-189 1348.22,-189 1348.22,-185 1352.22,-185 1352.22,-181 1555.22,-181 1555.22,-217"/>
<polyline fill="none" stroke="green" points="1352.22,-213 1356.22,-213 1356.22,-209 1352.22,-209 "/>
<polyline fill="none" stroke="green" points="1352.22,-189 1356.22,-189 1356.22,-185 1352.22,-185 "/>
<text text-anchor="middle" x="1453.72" y="-195.3" font-family="Times,serif" font-size="14.00">phaidra&#45;ssl&#45;nginx&#45;fedora&#45;1</text>
</a>
</g>
</g>
<!-- WEBSERVER&#45;&#45;C_FEDORA -->
<g id="edge28" class="edge">
<title>WEBSERVER&#45;&#45;C_FEDORA</title>
<path fill="none" stroke="magenta" d="M738.82,-40.54C823.08,-41.08 945.66,-45.93 1050.72,-66 1185.93,-91.83 1338.42,-151.03 1410.57,-180.96"/>
</g>
<!-- C_API -->
<g id="node15" class="node">
<title>C_API</title>
<g id="a_node15"><a xlink:href="https://github.com/phaidra/phaidra-api" xlink:title="phaidra&#45;ssl&#45;nginx&#45;api&#45;1">
<polygon fill="none" stroke="green" points="1263.22,-261 1084.22,-261 1084.22,-257 1080.22,-257 1080.22,-253 1084.22,-253 1084.22,-233 1080.22,-233 1080.22,-229 1084.22,-229 1084.22,-225 1263.22,-225 1263.22,-261"/>
<polyline fill="none" stroke="green" points="1084.22,-257 1088.22,-257 1088.22,-253 1084.22,-253 "/>
<polyline fill="none" stroke="green" points="1084.22,-233 1088.22,-233 1088.22,-229 1084.22,-229 "/>
<text text-anchor="middle" x="1173.72" y="-239.3" font-family="Times,serif" font-size="14.00">phaidra&#45;ssl&#45;nginx&#45;api&#45;1</text>
</a>
</g>
</g>
<!-- WEBSERVER&#45;&#45;C_API -->
<g id="edge29" class="edge">
<title>WEBSERVER&#45;&#45;C_API</title>
<path fill="none" stroke="magenta" d="M688.04,-26.41C775.3,-3.14 953.56,28.52 1050.72,-66 1073.1,-87.77 1043.43,-181.45 1062.72,-206 1068.88,-213.84 1076.77,-220.04 1085.5,-224.92"/>
</g>
<!-- C_UI -->
<g id="node18" class="node">
<title>C_UI</title>
<g id="a_node18"><a xlink:href="https://github.com/phaidra/phaidra-ui" xlink:title="phaidra&#45;ssl&#45;nginx&#45;ui&#45;1">
<polygon fill="none" stroke="green" points="1538.72,-325 1368.72,-325 1368.72,-321 1364.72,-321 1364.72,-317 1368.72,-317 1368.72,-297 1364.72,-297 1364.72,-293 1368.72,-293 1368.72,-289 1538.72,-289 1538.72,-325"/>
<polyline fill="none" stroke="green" points="1368.72,-321 1372.72,-321 1372.72,-317 1368.72,-317 "/>
<polyline fill="none" stroke="green" points="1368.72,-297 1372.72,-297 1372.72,-293 1368.72,-293 "/>
<text text-anchor="middle" x="1453.72" y="-303.3" font-family="Times,serif" font-size="14.00">phaidra&#45;ssl&#45;nginx&#45;ui&#45;1</text>
</a>
</g>
</g>
<!-- WEBSERVER&#45;&#45;C_UI -->
<g id="edge30" class="edge">
<title>WEBSERVER&#45;&#45;C_UI</title>
<path fill="none" stroke="magenta" d="M687.61,-26.33C775.02,-2.64 954.58,30.06 1050.72,-66 1082.85,-98.1 1031.19,-237.32 1062.72,-270 1103.45,-312.22 1266.37,-314.34 1368.31,-311.23"/>
</g>
<!-- C_SOLR -->
<g id="node20" class="node">
<title>C_SOLR</title>
<g id="a_node20"><a xlink:href="https://solr.apache.org/" xlink:title="phaidra&#45;ssl&#45;nginx&#45;solr&#45;1">
<polygon fill="none" stroke="green" points="1545.72,-433 1361.72,-433 1361.72,-429 1357.72,-429 1357.72,-425 1361.72,-425 1361.72,-405 1357.72,-405 1357.72,-401 1361.72,-401 1361.72,-397 1545.72,-397 1545.72,-433"/>
<polyline fill="none" stroke="green" points="1361.72,-429 1365.72,-429 1365.72,-425 1361.72,-425 "/>
<polyline fill="none" stroke="green" points="1361.72,-405 1365.72,-405 1365.72,-401 1361.72,-401 "/>
<text text-anchor="middle" x="1453.72" y="-411.3" font-family="Times,serif" font-size="14.00">phaidra&#45;ssl&#45;nginx&#45;solr&#45;1</text>
</a>
</g>
</g>
<!-- WEBSERVER&#45;&#45;C_SOLR -->
<g id="edge31" class="edge">
<title>WEBSERVER&#45;&#45;C_SOLR</title>
<path fill="none" stroke="magenta" d="M687.33,-26.36C774.7,-2.56 954.76,30.5 1050.72,-66 1068.69,-84.07 1047.64,-274.46 1062.72,-295 1130.76,-387.64 1269.22,-411.05 1361.5,-415.78"/>
</g>
<!-- C_DBGATE -->
<g id="node23" class="node">
<title>C_DBGATE</title>
<polygon fill="none" stroke="green" points="1276.72,-197 1070.72,-197 1070.72,-193 1066.72,-193 1066.72,-189 1070.72,-189 1070.72,-169 1066.72,-169 1066.72,-165 1070.72,-165 1070.72,-161 1276.72,-161 1276.72,-197"/>
<polyline fill="none" stroke="green" points="1070.72,-193 1074.72,-193 1074.72,-189 1070.72,-189 "/>
<polyline fill="none" stroke="green" points="1070.72,-169 1074.72,-169 1074.72,-165 1070.72,-165 "/>
<text text-anchor="middle" x="1173.72" y="-175.3" font-family="Times,serif" font-size="14.00">phaidra&#45;ssl&#45;nginx&#45;dbgate&#45;1</text>
</g>
<!-- WEBSERVER&#45;&#45;C_DBGATE -->
<g id="edge32" class="edge">
<title>WEBSERVER&#45;&#45;C_DBGATE</title>
<path fill="none" stroke="magenta" d="M695.81,-27.24C782.38,-9.09 945.53,10.65 1050.72,-66 1062.66,-74.7 1053.78,-85.24 1062.72,-97 1083.26,-124.03 1115.01,-146.37 1139.14,-160.87"/>
</g>
<!-- C_LAM -->
<g id="node24" class="node">
<title>C_LAM</title>
<polygon fill="none" stroke="green" points="1855.22,-487 1672.22,-487 1672.22,-483 1668.22,-483 1668.22,-479 1672.22,-479 1672.22,-459 1668.22,-459 1668.22,-455 1672.22,-455 1672.22,-451 1855.22,-451 1855.22,-487"/>
<polyline fill="none" stroke="green" points="1672.22,-483 1676.22,-483 1676.22,-479 1672.22,-479 "/>
<polyline fill="none" stroke="green" points="1672.22,-459 1676.22,-459 1676.22,-455 1672.22,-455 "/>
<text text-anchor="middle" x="1763.72" y="-465.3" font-family="Times,serif" font-size="14.00">phaidra&#45;ssl&#45;nginx&#45;lam&#45;1</text>
</g>
<!-- WEBSERVER&#45;&#45;C_LAM -->
<g id="edge33" class="edge">
<title>WEBSERVER&#45;&#45;C_LAM</title>
<path fill="none" stroke="magenta" d="M687.09,-26.35C774.5,-2.38 955.16,31.14 1050.72,-66 1073.18,-88.83 1048.11,-325.5 1062.72,-354 1127.14,-479.64 1179.26,-503.92 1312.72,-550 1342.34,-560.23 1567.1,-564.78 1594.72,-550 1620.15,-536.39 1606.79,-512.1 1630.72,-496 1643.05,-487.71 1657.38,-481.87 1671.96,-477.77"/>
</g>
<!-- HS_FEDORA -->
<g id="node3" class="node">
<title>HS_FEDORA</title>
<polygon fill="none" stroke="turquoise" points="969.22,-312 966.22,-316 945.22,-316 942.22,-312 303.22,-312 303.22,-218 969.22,-218 969.22,-312"/>
<text text-anchor="start" x="315.22" y="-293.8" font-family="Times,serif" font-weight="bold" font-size="14.00">host:</text>
<text text-anchor="start" x="474.22" y="-292.8" font-family="Times,serif" font-size="14.00">$HOME/.local/share/docker/volumes/phaidra&#45;ssl&#45;nginx_fedora/_data</text>
<text text-anchor="start" x="315.22" y="-271.8" font-family="Times,serif" font-size="14.00">fedora&#45;container:</text>
<text text-anchor="start" x="474.22" y="-271.8" font-family="Times,serif" font-size="14.00">/usr/local/tomcat/fcrepo&#45;home</text>
<text text-anchor="start" x="315.22" y="-250.8" font-family="Times,serif" font-size="14.00">pixelgecko&#45;container:</text>
<text text-anchor="start" x="474.22" y="-250.8" font-family="Times,serif" font-size="14.00"> /mnt/fedora:ro</text>
<text text-anchor="start" x="315.22" y="-229.8" font-family="Times,serif" font-size="14.00">api&#45;container:</text>
<text text-anchor="start" x="474.22" y="-229.8" font-family="Times,serif" font-size="14.00"> /mnt/fedora:ro</text>
</g>
<!-- HS_FEDORA&#45;&#45;C_FEDORA -->
<g id="edge1" class="edge">
<title>HS_FEDORA&#45;&#45;C_FEDORA</title>
<path fill="none" stroke="turquoise" d="M969.46,-280.05C1109.53,-284.06 1247.19,-284 1276.72,-270 1299.56,-259.18 1291.02,-238.94 1312.72,-226 1324.73,-218.84 1338.26,-213.52 1352.05,-209.58"/>
</g>
<!-- HS_FEDORA&#45;&#45;C_API -->
<g id="edge3" class="edge">
<title>HS_FEDORA&#45;&#45;C_API</title>
<path fill="none" stroke="turquoise" d="M969.51,-251.35C1011.43,-249.63 1051.1,-248 1084.08,-246.64"/>
</g>
<!-- C_PIXELGECKO -->
<g id="node22" class="node">
<title>C_PIXELGECKO</title>
<polygon fill="none" stroke="green" points="1880.22,-541 1647.22,-541 1647.22,-537 1643.22,-537 1643.22,-533 1647.22,-533 1647.22,-513 1643.22,-513 1643.22,-509 1647.22,-509 1647.22,-505 1880.22,-505 1880.22,-541"/>
<polyline fill="none" stroke="green" points="1647.22,-537 1651.22,-537 1651.22,-533 1647.22,-533 "/>
<polyline fill="none" stroke="green" points="1647.22,-513 1651.22,-513 1651.22,-509 1647.22,-509 "/>
<text text-anchor="middle" x="1763.72" y="-519.3" font-family="Times,serif" font-size="14.00">phaidra&#45;ssl&#45;nginx&#45;pixelgecko&#45;1</text>
</g>
<!-- HS_FEDORA&#45;&#45;C_PIXELGECKO -->
<g id="edge11" class="edge">
<title>HS_FEDORA&#45;&#45;C_PIXELGECKO</title>
<path fill="none" stroke="turquoise" d="M969.48,-266.47C1000.1,-278.73 1028.06,-296.32 1050.72,-321 1069.08,-341 1043.06,-546.28 1062.72,-565 1105.53,-605.76 1536.05,-572.22 1594.72,-565 1632.17,-560.39 1673.28,-550.21 1705.46,-541.02"/>
</g>
<!-- HS_API_LOGS -->
<g id="node4" class="node">
<title>HS_API_LOGS</title>
<polygon fill="none" stroke="turquoise" points="948.22,-200 945.22,-204 924.22,-204 921.22,-200 324.22,-200 324.22,-148 948.22,-148 948.22,-200"/>
<text text-anchor="start" x="336.22" y="-181.8" font-family="Times,serif" font-weight="bold" font-size="14.00">host:</text>
<text text-anchor="start" x="441.22" y="-180.8" font-family="Times,serif" font-size="14.00">$HOME/.local/share/docker/volumes/phaidra&#45;ssl&#45;nginx_api_logs/_data</text>
<text text-anchor="start" x="336.22" y="-159.8" font-family="Times,serif" font-size="14.00">api&#45;container:</text>
<text text-anchor="start" x="441.22" y="-159.8" font-family="Times,serif" font-size="14.00">/var/log/phaidra</text>
</g>
<!-- HS_API_LOGS&#45;&#45;C_API -->
<g id="edge2" class="edge">
<title>HS_API_LOGS&#45;&#45;C_API</title>
<path fill="none" stroke="turquoise" d="M948.23,-194C982.93,-198.1 1017.66,-203.05 1050.72,-209 1072.47,-212.92 1095.94,-219 1116.44,-224.94"/>
</g>
<!-- HS_MARIADB_PHAIDRA -->
<g id="node5" class="node">
<title>HS_MARIADB_PHAIDRA</title>
<polygon fill="none" stroke="turquoise" points="1028.22,-452 1025.22,-456 1004.22,-456 1001.22,-452 244.22,-452 244.22,-400 1028.22,-400 1028.22,-452"/>
<text text-anchor="start" x="256.22" y="-433.8" font-family="Times,serif" font-weight="bold" font-size="14.00">host:</text>
<text text-anchor="start" x="458.22" y="-432.8" font-family="Times,serif" font-size="14.00">$HOME/.local/share/docker/volumes/phaidra&#45;ssl&#45;nginx_mariadb_phaidra/_data</text>
<text text-anchor="start" x="256.22" y="-411.8" font-family="Times,serif" font-size="14.00">mariadb&#45;phaidra&#45;container:</text>
<text text-anchor="start" x="458.22" y="-411.8" font-family="Times,serif" font-size="14.00">/var/lib/mysql</text>
</g>
<!-- C_MARIADB_PHAIDRA -->
<g id="node16" class="node">
<title>C_MARIADB_PHAIDRA</title>
<g id="a_node16"><a xlink:href="https://mariadb.org/" xlink:title="phaidra&#45;ssl&#45;nginx&#45;mariadb&#45;phaidra&#45;1">
<polygon fill="none" stroke="green" points="1591.22,-379 1316.22,-379 1316.22,-375 1312.22,-375 1312.22,-371 1316.22,-371 1316.22,-351 1312.22,-351 1312.22,-347 1316.22,-347 1316.22,-343 1591.22,-343 1591.22,-379"/>
<polyline fill="none" stroke="green" points="1316.22,-375 1320.22,-375 1320.22,-371 1316.22,-371 "/>
<polyline fill="none" stroke="green" points="1316.22,-351 1320.22,-351 1320.22,-347 1316.22,-347 "/>
<text text-anchor="middle" x="1453.72" y="-357.3" font-family="Times,serif" font-size="14.00">phaidra&#45;ssl&#45;nginx&#45;mariadb&#45;phaidra&#45;1</text>
</a>
</g>
</g>
<!-- HS_MARIADB_PHAIDRA&#45;&#45;C_MARIADB_PHAIDRA -->
<g id="edge5" class="edge">
<title>HS_MARIADB_PHAIDRA&#45;&#45;C_MARIADB_PHAIDRA</title>
<path fill="none" stroke="turquoise" d="M1009.76,-399.96C1023.64,-397.25 1037.34,-394.27 1050.72,-391 1056.33,-389.63 1057.1,-387.31 1062.72,-386 1145.47,-366.68 1240.61,-360.28 1316.2,-358.78"/>
</g>
<!-- HS_MONGODB_PHAIDRA -->
<g id="node6" class="node">
<title>HS_MONGODB_PHAIDRA</title>
<polygon fill="none" stroke="turquoise" points="1034.72,-382 1031.72,-386 1010.72,-386 1007.72,-382 237.72,-382 237.72,-330 1034.72,-330 1034.72,-382"/>
<text text-anchor="start" x="250.22" y="-363.8" font-family="Times,serif" font-weight="bold" font-size="14.00">host:</text>
<text text-anchor="start" x="458.22" y="-362.8" font-family="Times,serif" font-size="14.00">$HOME/.local/share/docker/volumes/phaidra&#45;ssl&#45;nginx_mongodb_phaidra/_data</text>
<text text-anchor="start" x="250.22" y="-341.8" font-family="Times,serif" font-size="14.00">phaidra&#45;mongodb&#45;container:</text>
<text text-anchor="start" x="458.22" y="-341.8" font-family="Times,serif" font-size="14.00">/data/db</text>
</g>
<!-- C_MONGODB_PHAIDRA -->
<g id="node17" class="node">
<title>C_MONGODB_PHAIDRA</title>
<g id="a_node17"><a xlink:href="https://www.mongodb.com/" xlink:title="phaidra&#45;ssl&#45;nginx&#45;mongodb&#45;phaidra&#45;1">
<polygon fill="none" stroke="green" points="1594.72,-271 1312.72,-271 1312.72,-267 1308.72,-267 1308.72,-263 1312.72,-263 1312.72,-243 1308.72,-243 1308.72,-239 1312.72,-239 1312.72,-235 1594.72,-235 1594.72,-271"/>
<polyline fill="none" stroke="green" points="1312.72,-267 1316.72,-267 1316.72,-263 1312.72,-263 "/>
<polyline fill="none" stroke="green" points="1312.72,-243 1316.72,-243 1316.72,-239 1312.72,-239 "/>
<text text-anchor="middle" x="1453.72" y="-249.3" font-family="Times,serif" font-size="14.00">phaidra&#45;ssl&#45;nginx&#45;mongodb&#45;phaidra&#45;1</text>
</a>
</g>
</g>
<!-- HS_MONGODB_PHAIDRA&#45;&#45;C_MONGODB_PHAIDRA -->
<g id="edge6" class="edge">
<title>HS_MONGODB_PHAIDRA&#45;&#45;C_MONGODB_PHAIDRA</title>
<path fill="none" stroke="turquoise" d="M972.6,-329.99C999.06,-327.21 1025.35,-324.21 1050.72,-321 1157.11,-307.52 1278.37,-286.18 1359.63,-271.01"/>
</g>
<!-- HS_OPENLDAP -->
<g id="node7" class="node">
<title>HS_OPENLDAP</title>
<polygon fill="none" stroke="turquoise" points="973.22,-592 970.22,-596 949.22,-596 946.22,-592 299.22,-592 299.22,-540 973.22,-540 973.22,-592"/>
<text text-anchor="start" x="311.22" y="-573.8" font-family="Times,serif" font-weight="bold" font-size="14.00">host:</text>
<text text-anchor="start" x="459.22" y="-572.8" font-family="Times,serif" font-size="14.00">$HOME/.local/share/docker/volumes/phaidra&#45;ssl&#45;nginx_openldap/_data</text>
<text text-anchor="start" x="311.22" y="-551.8" font-family="Times,serif" font-size="14.00">openldap&#45;container:</text>
<text text-anchor="start" x="459.22" y="-551.8" font-family="Times,serif" font-size="14.00">/bitnami/openldap</text>
</g>
<!-- C_OPENLDAP -->
<g id="node19" class="node">
<title>C_OPENLDAP</title>
<g id="a_node19"><a xlink:href="https://www.openldap.org/" xlink:title="phaidra&#45;ssl&#45;nginx&#45;openldap&#45;1">
<polygon fill="none" stroke="green" points="1564.72,-541 1342.72,-541 1342.72,-537 1338.72,-537 1338.72,-533 1342.72,-533 1342.72,-513 1338.72,-513 1338.72,-509 1342.72,-509 1342.72,-505 1564.72,-505 1564.72,-541"/>
<polyline fill="none" stroke="green" points="1342.72,-537 1346.72,-537 1346.72,-533 1342.72,-533 "/>
<polyline fill="none" stroke="green" points="1342.72,-513 1346.72,-513 1346.72,-509 1342.72,-509 "/>
<text text-anchor="middle" x="1453.72" y="-519.3" font-family="Times,serif" font-size="14.00">phaidra&#45;ssl&#45;nginx&#45;openldap&#45;1</text>
</a>
</g>
</g>
<!-- HS_OPENLDAP&#45;&#45;C_OPENLDAP -->
<g id="edge7" class="edge">
<title>HS_OPENLDAP&#45;&#45;C_OPENLDAP</title>
<path fill="none" stroke="turquoise" d="M973.34,-540.2C1003.56,-538.27 1033.69,-536.5 1062.72,-535 1157.09,-530.11 1264.42,-526.99 1342.56,-525.16"/>
</g>
<!-- HS_SOLR -->
<g id="node8" class="node">
<title>HS_SOLR</title>
<polygon fill="none" stroke="turquoise" points="935.22,-522 932.22,-526 911.22,-526 908.22,-522 337.22,-522 337.22,-470 935.22,-470 935.22,-522"/>
<text text-anchor="start" x="349.22" y="-503.8" font-family="Times,serif" font-weight="bold" font-size="14.00">host:</text>
<text text-anchor="start" x="459.22" y="-502.8" font-family="Times,serif" font-size="14.00">$HOME/.local/share/docker/volumes/phaidra&#45;ssl&#45;nginx_solr/_data</text>
<text text-anchor="start" x="349.22" y="-481.8" font-family="Times,serif" font-size="14.00">solr&#45;container:</text>
<text text-anchor="start" x="459.22" y="-481.8" font-family="Times,serif" font-size="14.00">/var/solr</text>
</g>
<!-- HS_SOLR&#45;&#45;C_SOLR -->
<g id="edge9" class="edge">
<title>HS_SOLR&#45;&#45;C_SOLR</title>
<path fill="none" stroke="turquoise" d="M935.45,-471.81C974.25,-468.36 1013.44,-464.71 1050.72,-461 1157.5,-450.37 1279.97,-436.05 1361.4,-426.23"/>
</g>
<!-- HS_PIXELGECKO -->
<g id="node9" class="node">
<title>HS_PIXELGECKO</title>
<polygon fill="none" stroke="turquoise" points="990.72,-683.5 987.72,-687.5 966.72,-687.5 963.72,-683.5 281.72,-683.5 281.72,-610.5 990.72,-610.5 990.72,-683.5"/>
<text text-anchor="start" x="294.22" y="-664.8" font-family="Times,serif" font-weight="bold" font-size="14.00">host:</text>
<text text-anchor="start" x="466.22" y="-663.8" font-family="Times,serif" font-size="14.00">$HOME/.local/share/docker/volumes/phaidra&#45;ssl&#45;nginx_pixelgecko/_data</text>
<text text-anchor="start" x="294.22" y="-642.8" font-family="Times,serif" font-size="14.00">pixelgecko&#45;container:</text>
<text text-anchor="start" x="466.22" y="-642.8" font-family="Times,serif" font-size="14.00">/mnt/converted_images</text>
<text text-anchor="start" x="294.22" y="-621.8" font-family="Times,serif" font-size="14.00">imageserver&#45;container:</text>
<text text-anchor="start" x="466.22" y="-621.8" font-family="Times,serif" font-size="14.00">/mnt/converted_images:ro</text>
</g>
<!-- C_IMAGESERVER -->
<g id="node21" class="node">
<title>C_IMAGESERVER</title>
<g id="a_node21"><a xlink:href="https://github.com/ruven/iipsrv" xlink:title="phaidra&#45;ssl&#45;nginx&#45;imageserver&#45;1">
<polygon fill="none" stroke="green" points="1576.72,-487 1330.72,-487 1330.72,-483 1326.72,-483 1326.72,-479 1330.72,-479 1330.72,-459 1326.72,-459 1326.72,-455 1330.72,-455 1330.72,-451 1576.72,-451 1576.72,-487"/>
<polyline fill="none" stroke="green" points="1330.72,-483 1334.72,-483 1334.72,-479 1330.72,-479 "/>
<polyline fill="none" stroke="green" points="1330.72,-459 1334.72,-459 1334.72,-455 1330.72,-455 "/>
<text text-anchor="middle" x="1453.72" y="-465.3" font-family="Times,serif" font-size="14.00">phaidra&#45;ssl&#45;nginx&#45;imageserver&#45;1</text>
</a>
</g>
</g>
<!-- HS_PIXELGECKO&#45;&#45;C_IMAGESERVER -->
<g id="edge10" class="edge">
<title>HS_PIXELGECKO&#45;&#45;C_IMAGESERVER</title>
<path fill="none" stroke="turquoise" d="M990.76,-640.8C1012.59,-630.68 1032.9,-617.63 1050.72,-601 1072.52,-580.66 1041.51,-555.95 1062.72,-535 1131.97,-466.59 1244.11,-453.7 1330.4,-455.83"/>
</g>
<!-- HS_PIXELGECKO&#45;&#45;C_PIXELGECKO -->
<g id="edge12" class="edge">
<title>HS_PIXELGECKO&#45;&#45;C_PIXELGECKO</title>
<path fill="none" stroke="turquoise" d="M990.99,-648.36C1173.09,-642.96 1397.65,-626.82 1594.72,-585 1640.34,-575.32 1690.18,-555.7 1723.63,-541.11"/>
</g>
<!-- HS_DBGATE -->
<g id="node10" class="node">
<title>HS_DBGATE</title>
<polygon fill="none" stroke="turquoise" points="958.22,-130 955.22,-134 934.22,-134 931.22,-130 314.22,-130 314.22,-78 958.22,-78 958.22,-130"/>
<text text-anchor="start" x="326.22" y="-111.8" font-family="Times,serif" font-weight="bold" font-size="14.00">host:</text>
<text text-anchor="start" x="459.22" y="-110.8" font-family="Times,serif" font-size="14.00">$HOME/.local/share/docker/volumes/phaidra&#45;ssl&#45;nginx_dbgate/_data</text>
<text text-anchor="start" x="326.22" y="-89.8" font-family="Times,serif" font-size="14.00">dbgate&#45;container:</text>
<text text-anchor="start" x="459.22" y="-89.8" font-family="Times,serif" font-size="14.00">/root/.dbgate</text>
</g>
<!-- HS_DBGATE&#45;&#45;C_DBGATE -->
<g id="edge13" class="edge">
<title>HS_DBGATE&#45;&#45;C_DBGATE</title>
<path fill="none" stroke="turquoise" d="M958.27,-123.77C989.65,-127.92 1020.89,-132.93 1050.72,-139 1076.17,-144.18 1103.72,-152.92 1126.19,-160.92"/>
</g>
<!-- HS_MARIADB_FEDORA -->
<g id="node11" class="node">
<title>HS_MARIADB_FEDORA</title>
<polygon fill="none" stroke="turquoise" points="1019.22,-754 1016.22,-758 995.22,-758 992.22,-754 253.22,-754 253.22,-702 1019.22,-702 1019.22,-754"/>
<text text-anchor="start" x="265.22" y="-735.8" font-family="Times,serif" font-weight="bold" font-size="14.00">host:</text>
<text text-anchor="start" x="458.22" y="-734.8" font-family="Times,serif" font-size="14.00">$HOME/.local/share/docker/volumes/phaidra&#45;ssl&#45;nginx_mariadb_fedora/_data</text>
<text text-anchor="start" x="265.22" y="-713.8" font-family="Times,serif" font-size="14.00">mariadb&#45;fedora&#45;container:</text>
<text text-anchor="start" x="458.22" y="-713.8" font-family="Times,serif" font-size="14.00">/var/lib/mysql</text>
</g>
<!-- C_MARIADB_FEDORA -->
<g id="node25" class="node">
<title>C_MARIADB_FEDORA</title>
<g id="a_node25"><a xlink:href="https://mariadb.org/" xlink:title="phaidra&#45;ssl&#45;nginx&#45;mariadb&#45;fedora&#45;1">
<polygon fill="none" stroke="green" points="1896.72,-217 1630.72,-217 1630.72,-213 1626.72,-213 1626.72,-209 1630.72,-209 1630.72,-189 1626.72,-189 1626.72,-185 1630.72,-185 1630.72,-181 1896.72,-181 1896.72,-217"/>
<polyline fill="none" stroke="green" points="1630.72,-213 1634.72,-213 1634.72,-209 1630.72,-209 "/>
<polyline fill="none" stroke="green" points="1630.72,-189 1634.72,-189 1634.72,-185 1630.72,-185 "/>
<text text-anchor="middle" x="1763.72" y="-195.3" font-family="Times,serif" font-size="14.00">phaidra&#45;ssl&#45;nginx&#45;mariadb&#45;fedora&#45;1</text>
</a>
</g>
</g>
<!-- HS_MARIADB_FEDORA&#45;&#45;C_MARIADB_FEDORA -->
<g id="edge14" class="edge">
<title>HS_MARIADB_FEDORA&#45;&#45;C_MARIADB_FEDORA</title>
<path fill="none" stroke="turquoise" d="M1019.36,-749.04C1214.64,-739.15 1442.52,-692.66 1594.72,-550 1631.64,-515.4 1610.57,-488.41 1630.72,-442 1668.68,-354.59 1727.14,-256.63 1751.48,-217.04"/>
</g>
<!-- BIND_MARIADB_PHAIDRA_INIT -->
<g id="node12" class="node">
<title>BIND_MARIADB_PHAIDRA_INIT</title>
<polygon fill="none" stroke="blue" points="951.22,-853 948.22,-857 927.22,-857 924.22,-853 321.22,-853 321.22,-801 951.22,-801 951.22,-853"/>
<text text-anchor="start" x="333.22" y="-834.8" font-family="Times,serif" font-weight="bold" font-size="14.00">host:</text>
<text text-anchor="start" x="535.22" y="-833.8" font-family="Times,serif" font-size="14.00">$REPO/container_components/mariadb/phaidradb.sql.gz</text>
<text text-anchor="start" x="333.22" y="-812.8" font-family="Times,serif" font-size="14.00">mariadb&#45;phaidra&#45;container:</text>
<text text-anchor="start" x="535.22" y="-812.8" font-family="Times,serif" font-size="14.00">/docker&#45;entrypoint&#45;initdb.d/phaidradb.sql.gz:ro</text>
</g>
<!-- BIND_MARIADB_PHAIDRA_INIT&#45;&#45;C_MARIADB_PHAIDRA -->
<g id="edge4" class="edge">
<title>BIND_MARIADB_PHAIDRA_INIT&#45;&#45;C_MARIADB_PHAIDRA</title>
<path fill="none" stroke="blue" d="M766.88,-853.03C858.05,-863.26 976.56,-859.04 1050.72,-789 1076.86,-764.32 1048.55,-742.04 1062.72,-709 1134.02,-542.82 1158.54,-482.49 1312.72,-388 1318.21,-384.64 1324.03,-381.68 1330.05,-379.08"/>
</g>
<!-- BIND_OPENLDAP_INIT -->
<g id="node13" class="node">
<title>BIND_OPENLDAP_INIT</title>
<polygon fill="none" stroke="blue" points="865.22,-923 862.22,-927 841.22,-927 838.22,-923 407.22,-923 407.22,-871 865.22,-871 865.22,-923"/>
<text text-anchor="start" x="419.22" y="-904.8" font-family="Times,serif" font-weight="bold" font-size="14.00">host:</text>
<text text-anchor="start" x="567.22" y="-903.8" font-family="Times,serif" font-size="14.00">$REPO/container_components/openldap</text>
<text text-anchor="start" x="419.22" y="-882.8" font-family="Times,serif" font-size="14.00">openldap&#45;container:</text>
<text text-anchor="start" x="567.22" y="-882.8" font-family="Times,serif" font-size="14.00">/ldifs:ro</text>
</g>
<!-- BIND_OPENLDAP_INIT&#45;&#45;C_OPENLDAP -->
<g id="edge8" class="edge">
<title>BIND_OPENLDAP_INIT&#45;&#45;C_OPENLDAP</title>
<path fill="none" stroke="blue" d="M865.27,-902.64C927.26,-897.56 993.14,-885.84 1050.72,-862 1231.23,-787.27 1390.87,-600.59 1438.39,-541.35"/>
</g>
<!-- C_FEDORA&#45;&#45;C_MARIADB_FEDORA -->
<g id="edge15" class="edge">
<title>C_FEDORA&#45;&#45;C_MARIADB_FEDORA</title>
<path fill="none" stroke="orange" d="M1555.57,-199C1579.52,-199 1605.42,-199 1630.53,-199"/>
</g>
<!-- C_API&#45;&#45;C_FEDORA -->
<g id="edge16" class="edge">
<title>C_API&#45;&#45;C_FEDORA</title>
<path fill="none" stroke="orange" d="M1263.45,-228.96C1291.57,-224.51 1322.87,-219.55 1351.79,-214.97"/>
</g>
<!-- C_API&#45;&#45;C_MARIADB_PHAIDRA -->
<g id="edge17" class="edge">
<title>C_API&#45;&#45;C_MARIADB_PHAIDRA</title>
<path fill="none" stroke="orange" d="M1196.14,-261.05C1222.05,-281.91 1267.8,-315.71 1312.72,-334 1320.98,-337.36 1329.68,-340.31 1338.53,-342.9"/>
</g>
<!-- C_API&#45;&#45;C_MONGODB_PHAIDRA -->
<g id="edge18" class="edge">
<title>C_API&#45;&#45;C_MONGODB_PHAIDRA</title>
<path fill="none" stroke="orange" d="M1263.45,-246.19C1279.18,-246.76 1295.9,-247.36 1312.65,-247.96"/>
</g>
<!-- C_API&#45;&#45;C_UI -->
<g id="edge19" class="edge">
<title>C_API&#45;&#45;C_UI</title>
<path fill="none" stroke="orange" d="M1238.38,-261.09C1261.68,-267.44 1288.31,-274.38 1312.72,-280 1330.69,-284.14 1350.06,-288.15 1368.49,-291.77"/>
</g>
<!-- C_API&#45;&#45;C_OPENLDAP -->
<g id="edge20" class="edge">
<title>C_API&#45;&#45;C_OPENLDAP</title>
<path fill="none" stroke="orange" d="M1178.93,-261.23C1190.86,-308.43 1229.5,-435.2 1312.72,-496 1321.72,-502.57 1331.87,-507.67 1342.51,-511.6"/>
</g>
<!-- C_API&#45;&#45;C_SOLR -->
<g id="edge21" class="edge">
<title>C_API&#45;&#45;C_SOLR</title>
<path fill="none" stroke="orange" d="M1186.29,-261.12C1207.34,-292.47 1255.09,-356.49 1312.72,-388 1327.6,-396.13 1344.54,-401.85 1361.37,-405.86"/>
</g>
<!-- C_API&#45;&#45;C_IMAGESERVER -->
<g id="edge22" class="edge">
<title>C_API&#45;&#45;C_IMAGESERVER</title>
<path fill="none" stroke="orange" d="M1181.65,-261.11C1197.89,-300.93 1242.45,-396.21 1312.72,-442 1318.32,-445.65 1324.3,-448.83 1330.51,-451.6"/>
</g>
<!-- C_MONGODB_PHAIDRA&#45;&#45;C_PIXELGECKO -->
<g id="edge23" class="edge">
<title>C_MONGODB_PHAIDRA&#45;&#45;C_PIXELGECKO</title>
<path fill="none" stroke="orange" d="M1584.38,-271.13C1588.06,-273.78 1591.53,-276.72 1594.72,-280 1662.66,-349.69 1563.17,-425.93 1630.72,-496 1635.59,-501.05 1641.13,-505.29 1647.12,-508.84"/>
</g>
<!-- C_OPENLDAP&#45;&#45;C_LAM -->
<g id="edge24" class="edge">
<title>C_OPENLDAP&#45;&#45;C_LAM</title>
<path fill="none" stroke="orange" d="M1557.71,-504.94C1594.7,-498.46 1636.11,-491.2 1671.98,-484.91"/>
</g>
<!-- C_DBGATE&#45;&#45;C_MARIADB_PHAIDRA -->
<g id="edge25" class="edge">
<title>C_DBGATE&#45;&#45;C_MARIADB_PHAIDRA</title>
<path fill="none" stroke="orange" d="M1250.14,-197.07C1260.01,-201.95 1269.26,-208.14 1276.72,-216 1314.47,-255.76 1271.96,-297.33 1312.72,-334 1316.4,-337.31 1320.36,-340.27 1324.54,-342.91"/>
</g>
<!-- C_DBGATE&#45;&#45;C_MONGODB_PHAIDRA -->
<g id="edge26" class="edge">
<title>C_DBGATE&#45;&#45;C_MONGODB_PHAIDRA</title>
<path fill="none" stroke="orange" d="M1222.44,-197.07C1248.79,-206.58 1282.27,-217.92 1312.72,-226 1324.8,-229.21 1337.57,-232.2 1350.27,-234.94"/>
</g>
<!-- C_DBGATE&#45;&#45;C_MARIADB_FEDORA -->
<g id="edge27" class="edge">
<title>C_DBGATE&#45;&#45;C_MARIADB_FEDORA</title>
<path fill="none" stroke="orange" d="M1276.82,-173.24C1288.91,-172.73 1301.09,-172.29 1312.72,-172 1438.02,-168.82 1469.79,-162.02 1594.72,-172 1618.43,-173.89 1643.84,-177.26 1667.53,-181"/>
</g>
</g>
</svg>
