<?xml version="1.0" encoding="UTF-8" standalone="no"?>
<!DOCTYPE svg PUBLIC "-//W3C//DTD SVG 1.1//EN"
 "http://www.w3.org/Graphics/SVG/1.1/DTD/svg11.dtd">
<!-- Generated by graphviz version 2.43.0 (0)
 -->
<!-- Title: G Pages: 1 -->
<svg width="2232pt" height="1036pt"
 viewBox="0.00 0.00 2231.72 1036.42" xmlns="http://www.w3.org/2000/svg" xmlns:xlink="http://www.w3.org/1999/xlink">
<g id="graph0" class="graph" transform="scale(1 1) rotate(0) translate(4 1032.42)">
<title>G</title>
<polygon fill="white" stroke="transparent" points="-4,4 -4,-1032.42 2227.72,-1032.42 2227.72,4 -4,4"/>
<g id="clust1" class="cluster">
<title>cluster_host</title>
<polygon fill="none" stroke="red" points="213.72,-12.42 213.72,-1020.42 2215.72,-1020.42 2215.72,-12.42 213.72,-12.42"/>
<text text-anchor="middle" x="1214.72" y="-1005.22" font-family="Times,serif" font-size="14.00">PHAIDRA server firewall</text>
</g>
<g id="clust2" class="cluster">
<title>cluster_host_storage</title>
<polygon fill="none" stroke="blue" points="221.72,-20.42 221.72,-989.42 1125.72,-989.42 1125.72,-20.42 221.72,-20.42"/>
<text text-anchor="middle" x="673.72" y="-974.22" font-family="Times,serif" font-size="14.00">PHAIDRA server filesystem</text>
</g>
<g id="clust3" class="cluster">
<title>cluster_named_volumes</title>
<polygon fill="none" stroke="turquoise" points="229.72,-74.42 229.72,-789.42 1117.72,-789.42 1117.72,-74.42 229.72,-74.42"/>
<text text-anchor="middle" x="673.72" y="-774.22" font-family="Times,serif" font-size="14.00">Named volumes</text>
</g>
<g id="clust4" class="cluster">
<title>cluster_bind_mounts</title>
<polygon fill="none" stroke="blue" points="350.72,-797.42 350.72,-958.42 996.72,-958.42 996.72,-797.42 350.72,-797.42"/>
<text text-anchor="middle" x="673.72" y="-943.22" font-family="Times,serif" font-size="14.00">Bind mounts</text>
</g>
<g id="clust5" class="cluster">
<title>cluster_docker_network_host</title>
<polygon fill="none" stroke="green" points="1137.72,-157.42 1137.72,-576.42 2207.72,-576.42 2207.72,-157.42 1137.72,-157.42"/>
<text text-anchor="middle" x="1672.72" y="-561.22" font-family="Times,serif" font-size="14.00">PHAIDRA docker containers</text>
</g>
<!-- USER -->
<g id="node1" class="node">
<title>USER</title>
<polygon fill="none" stroke="black" points="193.59,-38.96 193.59,-53.87 139.27,-64.42 62.45,-64.42 8.13,-53.87 8.13,-38.96 62.45,-28.42 139.27,-28.42 193.59,-38.96"/>
<polygon fill="none" stroke="black" points="197.59,-35.66 197.59,-57.17 139.66,-68.42 62.07,-68.42 4.13,-57.17 4.13,-35.66 62.07,-24.42 139.66,-24.42 197.59,-35.66"/>
<polygon fill="none" stroke="black" points="201.58,-32.36 201.58,-60.47 140.04,-72.42 61.68,-72.42 0.14,-60.47 0.14,-32.36 61.68,-20.42 140.04,-20.42 201.58,-32.36"/>
<text text-anchor="middle" x="100.86" y="-42.72" font-family="Times,serif" font-size="14.00">PHAIDRA USER</text>
</g>
<!-- WEBSERVER -->
<g id="node2" class="node">
<title>WEBSERVER</title>
<ellipse fill="none" stroke="black" cx="673.72" cy="-46.42" rx="102.88" ry="18"/>
<text text-anchor="middle" x="673.72" y="-42.72" font-family="Times,serif" font-size="14.00">External Webserver</text>
</g>
<!-- USER&#45;&#45;WEBSERVER -->
<g id="edge34" class="edge">
<title>USER&#45;&#45;WEBSERVER</title>
<path fill="none" stroke="red" d="M201.62,-46.42C305.18,-46.42 466.32,-46.42 570.7,-46.42"/>
</g>
<!-- C_FEDORA -->
<g id="node14" class="node">
<title>C_FEDORA</title>
<g id="a_node14"><a xlink:href="https://fedora.lyrasis.org/" xlink:title="phaidra&#45;external&#45;webserver&#45;fedora&#45;1">
<polygon fill="none" stroke="green" points="1781.72,-221.42 1503.72,-221.42 1503.72,-217.42 1499.72,-217.42 1499.72,-213.42 1503.72,-213.42 1503.72,-193.42 1499.72,-193.42 1499.72,-189.42 1503.72,-189.42 1503.72,-185.42 1781.72,-185.42 1781.72,-221.42"/>
<polyline fill="none" stroke="green" points="1503.72,-217.42 1507.72,-217.42 1507.72,-213.42 1503.72,-213.42 "/>
<polyline fill="none" stroke="green" points="1503.72,-193.42 1507.72,-193.42 1507.72,-189.42 1503.72,-189.42 "/>
<text text-anchor="middle" x="1642.72" y="-199.72" font-family="Times,serif" font-size="14.00">phaidra&#45;external&#45;webserver&#45;fedora&#45;1</text>
</a>
</g>
</g>
<!-- WEBSERVER&#45;&#45;C_FEDORA -->
<g id="edge28" class="edge">
<title>WEBSERVER&#45;&#45;C_FEDORA</title>
<path fill="none" stroke="magenta" d="M776.52,-46.07C868.31,-47.13 1006.76,-52.11 1125.72,-70.42 1296.7,-96.73 1493.22,-155.57 1586.74,-185.38"/>
</g>
<!-- C_API -->
<g id="node15" class="node">
<title>C_API</title>
<g id="a_node15"><a xlink:href="https://github.com/phaidra/phaidra-api" xlink:title="phaidra&#45;external&#45;webserver&#45;api&#45;1">
<polygon fill="none" stroke="green" points="1413.72,-265.42 1159.72,-265.42 1159.72,-261.42 1155.72,-261.42 1155.72,-257.42 1159.72,-257.42 1159.72,-237.42 1155.72,-237.42 1155.72,-233.42 1159.72,-233.42 1159.72,-229.42 1413.72,-229.42 1413.72,-265.42"/>
<polyline fill="none" stroke="green" points="1159.72,-261.42 1163.72,-261.42 1163.72,-257.42 1159.72,-257.42 "/>
<polyline fill="none" stroke="green" points="1159.72,-237.42 1163.72,-237.42 1163.72,-233.42 1159.72,-233.42 "/>
<text text-anchor="middle" x="1286.72" y="-243.72" font-family="Times,serif" font-size="14.00">phaidra&#45;external&#45;webserver&#45;api&#45;1</text>
</a>
</g>
</g>
<!-- WEBSERVER&#45;&#45;C_API -->
<g id="edge29" class="edge">
<title>WEBSERVER&#45;&#45;C_API</title>
<path fill="none" stroke="magenta" d="M724.19,-30.74C816.91,-4.76 1017.28,34.57 1125.72,-70.42 1148.16,-92.14 1117.47,-186.65 1137.72,-210.42 1144.25,-218.08 1152.1,-224.28 1160.74,-229.29"/>
</g>
<!-- C_UI -->
<g id="node18" class="node">
<title>C_UI</title>
<g id="a_node18"><a xlink:href="https://github.com/phaidra/phaidra-ui" xlink:title="phaidra&#45;external&#45;webserver&#45;ui&#45;1">
<polygon fill="none" stroke="green" points="1765.72,-329.42 1519.72,-329.42 1519.72,-325.42 1515.72,-325.42 1515.72,-321.42 1519.72,-321.42 1519.72,-301.42 1515.72,-301.42 1515.72,-297.42 1519.72,-297.42 1519.72,-293.42 1765.72,-293.42 1765.72,-329.42"/>
<polyline fill="none" stroke="green" points="1519.72,-325.42 1523.72,-325.42 1523.72,-321.42 1519.72,-321.42 "/>
<polyline fill="none" stroke="green" points="1519.72,-301.42 1523.72,-301.42 1523.72,-297.42 1519.72,-297.42 "/>
<text text-anchor="middle" x="1642.72" y="-307.72" font-family="Times,serif" font-size="14.00">phaidra&#45;external&#45;webserver&#45;ui&#45;1</text>
</a>
</g>
</g>
<!-- WEBSERVER&#45;&#45;C_UI -->
<g id="edge30" class="edge">
<title>WEBSERVER&#45;&#45;C_UI</title>
<path fill="none" stroke="magenta" d="M723.72,-30.68C816.57,-4.26 1018.42,36.29 1125.72,-70.42 1157.92,-102.44 1105.85,-242.08 1137.72,-274.42 1189.11,-326.56 1387.66,-326.44 1519.68,-320.05"/>
</g>
<!-- C_SOLR -->
<g id="node20" class="node">
<title>C_SOLR</title>
<g id="a_node20"><a xlink:href="https://solr.apache.org/" xlink:title="phaidra&#45;external&#45;webserver&#45;solr&#45;1">
<polygon fill="none" stroke="green" points="1772.72,-437.42 1512.72,-437.42 1512.72,-433.42 1508.72,-433.42 1508.72,-429.42 1512.72,-429.42 1512.72,-409.42 1508.72,-409.42 1508.72,-405.42 1512.72,-405.42 1512.72,-401.42 1772.72,-401.42 1772.72,-437.42"/>
<polyline fill="none" stroke="green" points="1512.72,-433.42 1516.72,-433.42 1516.72,-429.42 1512.72,-429.42 "/>
<polyline fill="none" stroke="green" points="1512.72,-409.42 1516.72,-409.42 1516.72,-405.42 1512.72,-405.42 "/>
<text text-anchor="middle" x="1642.72" y="-415.72" font-family="Times,serif" font-size="14.00">phaidra&#45;external&#45;webserver&#45;solr&#45;1</text>
</a>
</g>
</g>
<!-- WEBSERVER&#45;&#45;C_SOLR -->
<g id="edge31" class="edge">
<title>WEBSERVER&#45;&#45;C_SOLR</title>
<path fill="none" stroke="magenta" d="M723.79,-30.61C816.76,-4.07 1018.81,36.68 1125.72,-70.42 1144.04,-88.76 1121.46,-283.23 1137.72,-303.42 1225.92,-412.96 1394.85,-431.88 1512.71,-430.07"/>
</g>
<!-- C_DBGATE -->
<g id="node23" class="node">
<title>C_DBGATE</title>
<polygon fill="none" stroke="green" points="1427.72,-201.42 1145.72,-201.42 1145.72,-197.42 1141.72,-197.42 1141.72,-193.42 1145.72,-193.42 1145.72,-173.42 1141.72,-173.42 1141.72,-169.42 1145.72,-169.42 1145.72,-165.42 1427.72,-165.42 1427.72,-201.42"/>
<polyline fill="none" stroke="green" points="1145.72,-197.42 1149.72,-197.42 1149.72,-193.42 1145.72,-193.42 "/>
<polyline fill="none" stroke="green" points="1145.72,-173.42 1149.72,-173.42 1149.72,-169.42 1145.72,-169.42 "/>
<text text-anchor="middle" x="1286.72" y="-179.72" font-family="Times,serif" font-size="14.00">phaidra&#45;external&#45;webserver&#45;dbgate&#45;1</text>
</g>
<!-- WEBSERVER&#45;&#45;C_DBGATE -->
<g id="edge32" class="edge">
<title>WEBSERVER&#45;&#45;C_DBGATE</title>
<path fill="none" stroke="magenta" d="M731.7,-31.45C824.06,-10.79 1007.97,14.96 1125.72,-70.42 1137.68,-79.09 1128.01,-90.28 1137.72,-101.42 1163.49,-130.98 1202.63,-152.01 1234.19,-165.36"/>
</g>
<!-- C_LAM -->
<g id="node24" class="node">
<title>C_LAM</title>
<polygon fill="none" stroke="green" points="2158.22,-491.42 1899.22,-491.42 1899.22,-487.42 1895.22,-487.42 1895.22,-483.42 1899.22,-483.42 1899.22,-463.42 1895.22,-463.42 1895.22,-459.42 1899.22,-459.42 1899.22,-455.42 2158.22,-455.42 2158.22,-491.42"/>
<polyline fill="none" stroke="green" points="1899.22,-487.42 1903.22,-487.42 1903.22,-483.42 1899.22,-483.42 "/>
<polyline fill="none" stroke="green" points="1899.22,-463.42 1903.22,-463.42 1903.22,-459.42 1899.22,-459.42 "/>
<text text-anchor="middle" x="2028.72" y="-469.72" font-family="Times,serif" font-size="14.00">phaidra&#45;external&#45;webserver&#45;lam&#45;1</text>
</g>
<!-- WEBSERVER&#45;&#45;C_LAM -->
<g id="edge33" class="edge">
<title>WEBSERVER&#45;&#45;C_LAM</title>
<path fill="none" stroke="magenta" d="M723.54,-30.6C816.54,-3.87 1019.28,37.42 1125.72,-70.42 1149.08,-94.08 1120.42,-341.03 1137.72,-369.42 1224.42,-511.67 1302.65,-511.9 1463.72,-554.42 1502.18,-564.57 1786.65,-573.19 1821.72,-554.42 1847.15,-540.81 1833.44,-515.99 1857.72,-500.42 1870.3,-492.35 1884.45,-486.41 1899.08,-482.06"/>
</g>
<!-- HS_FEDORA -->
<g id="node3" class="node">
<title>HS_FEDORA</title>
<polygon fill="none" stroke="turquoise" points="1044.22,-316.42 1041.22,-320.42 1020.22,-320.42 1017.22,-316.42 303.22,-316.42 303.22,-222.42 1044.22,-222.42 1044.22,-316.42"/>
<text text-anchor="start" x="315.72" y="-298.22" font-family="Times,serif" font-weight="bold" font-size="14.00">host:</text>
<text text-anchor="start" x="474.72" y="-297.22" font-family="Times,serif" font-size="14.00">$HOME/.local/share/docker/volumes/phaidra&#45;external&#45;webserver_fedora/_data</text>
<text text-anchor="start" x="315.72" y="-276.22" font-family="Times,serif" font-size="14.00">fedora&#45;container:</text>
<text text-anchor="start" x="474.72" y="-276.22" font-family="Times,serif" font-size="14.00">/usr/local/tomcat/fcrepo&#45;home</text>
<text text-anchor="start" x="315.72" y="-255.22" font-family="Times,serif" font-size="14.00">pixelgecko&#45;container:</text>
<text text-anchor="start" x="474.72" y="-255.22" font-family="Times,serif" font-size="14.00"> /mnt/fedora:ro</text>
<text text-anchor="start" x="315.72" y="-234.22" font-family="Times,serif" font-size="14.00">api&#45;container:</text>
<text text-anchor="start" x="474.72" y="-234.22" font-family="Times,serif" font-size="14.00"> /mnt/fedora:ro</text>
</g>
<!-- HS_FEDORA&#45;&#45;C_FEDORA -->
<g id="edge1" class="edge">
<title>HS_FEDORA&#45;&#45;C_FEDORA</title>
<path fill="none" stroke="turquoise" d="M1044.38,-286.02C1216.5,-291.15 1391.43,-291.62 1427.72,-274.42 1450.56,-263.6 1441.77,-242.92 1463.72,-230.42 1476.08,-223.38 1489.67,-217.99 1503.66,-213.88"/>
</g>
<!-- HS_FEDORA&#45;&#45;C_API -->
<g id="edge3" class="edge">
<title>HS_FEDORA&#45;&#45;C_API</title>
<path fill="none" stroke="turquoise" d="M1044.24,-256.11C1085.33,-254.63 1124.8,-253.21 1159.5,-251.96"/>
</g>
<!-- C_PIXELGECKO -->
<g id="node22" class="node">
<title>C_PIXELGECKO</title>
<polygon fill="none" stroke="green" points="2182.72,-545.42 1874.72,-545.42 1874.72,-541.42 1870.72,-541.42 1870.72,-537.42 1874.72,-537.42 1874.72,-517.42 1870.72,-517.42 1870.72,-513.42 1874.72,-513.42 1874.72,-509.42 2182.72,-509.42 2182.72,-545.42"/>
<polyline fill="none" stroke="green" points="1874.72,-541.42 1878.72,-541.42 1878.72,-537.42 1874.72,-537.42 "/>
<polyline fill="none" stroke="green" points="1874.72,-517.42 1878.72,-517.42 1878.72,-513.42 1874.72,-513.42 "/>
<text text-anchor="middle" x="2028.72" y="-523.72" font-family="Times,serif" font-size="14.00">phaidra&#45;external&#45;webserver&#45;pixelgecko&#45;1</text>
</g>
<!-- HS_FEDORA&#45;&#45;C_PIXELGECKO -->
<g id="edge11" class="edge">
<title>HS_FEDORA&#45;&#45;C_PIXELGECKO</title>
<path fill="none" stroke="turquoise" d="M1044.42,-269.79C1074.92,-282.67 1102.77,-300.7 1125.72,-325.42 1144.19,-345.31 1118.06,-550.7 1137.72,-569.42 1165.24,-595.62 1783.91,-573.23 1821.72,-569.42 1867.3,-564.82 1917.7,-554.64 1957.23,-545.45"/>
</g>
<!-- HS_API_LOGS -->
<g id="node4" class="node">
<title>HS_API_LOGS</title>
<polygon fill="none" stroke="turquoise" points="1023.22,-204.42 1020.22,-208.42 999.22,-208.42 996.22,-204.42 324.22,-204.42 324.22,-152.42 1023.22,-152.42 1023.22,-204.42"/>
<text text-anchor="start" x="336.72" y="-186.22" font-family="Times,serif" font-weight="bold" font-size="14.00">host:</text>
<text text-anchor="start" x="441.72" y="-185.22" font-family="Times,serif" font-size="14.00">$HOME/.local/share/docker/volumes/phaidra&#45;external&#45;webserver_api_logs/_data</text>
<text text-anchor="start" x="336.72" y="-164.22" font-family="Times,serif" font-size="14.00">api&#45;container:</text>
<text text-anchor="start" x="441.72" y="-164.22" font-family="Times,serif" font-size="14.00">/var/log/phaidra</text>
</g>
<!-- HS_API_LOGS&#45;&#45;C_API -->
<g id="edge2" class="edge">
<title>HS_API_LOGS&#45;&#45;C_API</title>
<path fill="none" stroke="turquoise" d="M1023.32,-200.86C1057.99,-204.47 1092.59,-208.63 1125.72,-213.42 1153.69,-217.46 1184.09,-223.49 1210.8,-229.36"/>
</g>
<!-- HS_MARIADB_PHAIDRA -->
<g id="node5" class="node">
<title>HS_MARIADB_PHAIDRA</title>
<polygon fill="none" stroke="turquoise" points="1103.22,-456.42 1100.22,-460.42 1079.22,-460.42 1076.22,-456.42 244.22,-456.42 244.22,-404.42 1103.22,-404.42 1103.22,-456.42"/>
<text text-anchor="start" x="256.72" y="-438.22" font-family="Times,serif" font-weight="bold" font-size="14.00">host:</text>
<text text-anchor="start" x="458.72" y="-437.22" font-family="Times,serif" font-size="14.00">$HOME/.local/share/docker/volumes/phaidra&#45;external&#45;webserver_mariadb_phaidra/_data</text>
<text text-anchor="start" x="256.72" y="-416.22" font-family="Times,serif" font-size="14.00">mariadb&#45;phaidra&#45;container:</text>
<text text-anchor="start" x="458.72" y="-416.22" font-family="Times,serif" font-size="14.00">/var/lib/mysql</text>
</g>
<!-- C_MARIADB_PHAIDRA -->
<g id="node16" class="node">
<title>C_MARIADB_PHAIDRA</title>
<g id="a_node16"><a xlink:href="https://mariadb.org/" xlink:title="phaidra&#45;external&#45;webserver&#45;mariadb&#45;phaidra&#45;1">
<polygon fill="none" stroke="green" points="1818.22,-383.42 1467.22,-383.42 1467.22,-379.42 1463.22,-379.42 1463.22,-375.42 1467.22,-375.42 1467.22,-355.42 1463.22,-355.42 1463.22,-351.42 1467.22,-351.42 1467.22,-347.42 1818.22,-347.42 1818.22,-383.42"/>
<polyline fill="none" stroke="green" points="1467.22,-379.42 1471.22,-379.42 1471.22,-375.42 1467.22,-375.42 "/>
<polyline fill="none" stroke="green" points="1467.22,-355.42 1471.22,-355.42 1471.22,-351.42 1467.22,-351.42 "/>
<text text-anchor="middle" x="1642.72" y="-361.72" font-family="Times,serif" font-size="14.00">phaidra&#45;external&#45;webserver&#45;mariadb&#45;phaidra&#45;1</text>
</a>
</g>
</g>
<!-- HS_MARIADB_PHAIDRA&#45;&#45;C_MARIADB_PHAIDRA -->
<g id="edge5" class="edge">
<title>HS_MARIADB_PHAIDRA&#45;&#45;C_MARIADB_PHAIDRA</title>
<path fill="none" stroke="turquoise" d="M1084.3,-404.37C1098.33,-401.66 1112.17,-398.68 1125.72,-395.42 1131.34,-394.07 1132.09,-391.69 1137.72,-390.42 1245.39,-366.09 1369.17,-359.66 1467.11,-359.39"/>
</g>
<!-- HS_MONGODB_PHAIDRA -->
<g id="node6" class="node">
<title>HS_MONGODB_PHAIDRA</title>
<polygon fill="none" stroke="turquoise" points="1109.72,-386.42 1106.72,-390.42 1085.72,-390.42 1082.72,-386.42 237.72,-386.42 237.72,-334.42 1109.72,-334.42 1109.72,-386.42"/>
<text text-anchor="start" x="249.72" y="-368.22" font-family="Times,serif" font-weight="bold" font-size="14.00">host:</text>
<text text-anchor="start" x="457.72" y="-367.22" font-family="Times,serif" font-size="14.00">$HOME/.local/share/docker/volumes/phaidra&#45;external&#45;webserver_mongodb_phaidra/_data</text>
<text text-anchor="start" x="249.72" y="-346.22" font-family="Times,serif" font-size="14.00">phaidra&#45;mongodb&#45;container:</text>
<text text-anchor="start" x="457.72" y="-346.22" font-family="Times,serif" font-size="14.00">/data/db</text>
</g>
<!-- C_MONGODB_PHAIDRA -->
<g id="node17" class="node">
<title>C_MONGODB_PHAIDRA</title>
<g id="a_node17"><a xlink:href="https://www.mongodb.com/" xlink:title="phaidra&#45;external&#45;webserver&#45;mongodb&#45;phaidra&#45;1">
<polygon fill="none" stroke="green" points="1821.72,-275.42 1463.72,-275.42 1463.72,-271.42 1459.72,-271.42 1459.72,-267.42 1463.72,-267.42 1463.72,-247.42 1459.72,-247.42 1459.72,-243.42 1463.72,-243.42 1463.72,-239.42 1821.72,-239.42 1821.72,-275.42"/>
<polyline fill="none" stroke="green" points="1463.72,-271.42 1467.72,-271.42 1467.72,-267.42 1463.72,-267.42 "/>
<polyline fill="none" stroke="green" points="1463.72,-247.42 1467.72,-247.42 1467.72,-243.42 1463.72,-243.42 "/>
<text text-anchor="middle" x="1642.72" y="-253.72" font-family="Times,serif" font-size="14.00">phaidra&#45;external&#45;webserver&#45;mongodb&#45;phaidra&#45;1</text>
</a>
</g>
</g>
<!-- HS_MONGODB_PHAIDRA&#45;&#45;C_MONGODB_PHAIDRA -->
<g id="edge6" class="edge">
<title>HS_MONGODB_PHAIDRA&#45;&#45;C_MONGODB_PHAIDRA</title>
<path fill="none" stroke="turquoise" d="M1031.84,-334.39C1063.61,-331.57 1095.26,-328.57 1125.72,-325.42 1260.34,-311.51 1293.55,-304.17 1427.72,-286.42 1454.2,-282.91 1482.52,-279.11 1509.6,-275.45"/>
</g>
<!-- HS_OPENLDAP -->
<g id="node7" class="node">
<title>HS_OPENLDAP</title>
<polygon fill="none" stroke="turquoise" points="1048.22,-596.42 1045.22,-600.42 1024.22,-600.42 1021.22,-596.42 299.22,-596.42 299.22,-544.42 1048.22,-544.42 1048.22,-596.42"/>
<text text-anchor="start" x="311.72" y="-578.22" font-family="Times,serif" font-weight="bold" font-size="14.00">host:</text>
<text text-anchor="start" x="459.72" y="-577.22" font-family="Times,serif" font-size="14.00">$HOME/.local/share/docker/volumes/phaidra&#45;external&#45;webserver_openldap/_data</text>
<text text-anchor="start" x="311.72" y="-556.22" font-family="Times,serif" font-size="14.00">openldap&#45;container:</text>
<text text-anchor="start" x="459.72" y="-556.22" font-family="Times,serif" font-size="14.00">/bitnami/openldap</text>
</g>
<!-- C_OPENLDAP -->
<g id="node19" class="node">
<title>C_OPENLDAP</title>
<g id="a_node19"><a xlink:href="https://www.openldap.org/" xlink:title="phaidra&#45;external&#45;webserver&#45;openldap&#45;1">
<polygon fill="none" stroke="green" points="1791.72,-545.42 1493.72,-545.42 1493.72,-541.42 1489.72,-541.42 1489.72,-537.42 1493.72,-537.42 1493.72,-517.42 1489.72,-517.42 1489.72,-513.42 1493.72,-513.42 1493.72,-509.42 1791.72,-509.42 1791.72,-545.42"/>
<polyline fill="none" stroke="green" points="1493.72,-541.42 1497.72,-541.42 1497.72,-537.42 1493.72,-537.42 "/>
<polyline fill="none" stroke="green" points="1493.72,-517.42 1497.72,-517.42 1497.72,-513.42 1493.72,-513.42 "/>
<text text-anchor="middle" x="1642.72" y="-523.72" font-family="Times,serif" font-size="14.00">phaidra&#45;external&#45;webserver&#45;openldap&#45;1</text>
</a>
</g>
</g>
<!-- HS_OPENLDAP&#45;&#45;C_OPENLDAP -->
<g id="edge7" class="edge">
<title>HS_OPENLDAP&#45;&#45;C_OPENLDAP</title>
<path fill="none" stroke="turquoise" d="M1041.42,-544.41C1073.97,-542.54 1106.44,-540.84 1137.72,-539.42 1257.4,-533.99 1393.18,-530.94 1493.63,-529.27"/>
</g>
<!-- HS_SOLR -->
<g id="node8" class="node">
<title>HS_SOLR</title>
<polygon fill="none" stroke="turquoise" points="1010.22,-526.42 1007.22,-530.42 986.22,-530.42 983.22,-526.42 337.22,-526.42 337.22,-474.42 1010.22,-474.42 1010.22,-526.42"/>
<text text-anchor="start" x="349.72" y="-508.22" font-family="Times,serif" font-weight="bold" font-size="14.00">host:</text>
<text text-anchor="start" x="459.72" y="-507.22" font-family="Times,serif" font-size="14.00">$HOME/.local/share/docker/volumes/phaidra&#45;external&#45;webserver_solr/_data</text>
<text text-anchor="start" x="349.72" y="-486.22" font-family="Times,serif" font-size="14.00">solr&#45;container:</text>
<text text-anchor="start" x="459.72" y="-486.22" font-family="Times,serif" font-size="14.00">/var/solr</text>
</g>
<!-- HS_SOLR&#45;&#45;C_SOLR -->
<g id="edge9" class="edge">
<title>HS_SOLR&#45;&#45;C_SOLR</title>
<path fill="none" stroke="turquoise" d="M1010.31,-474.8C1049.23,-471.71 1088.35,-468.53 1125.72,-465.42 1257.59,-454.42 1408.31,-440.87 1512.67,-431.34"/>
</g>
<!-- HS_PIXELGECKO -->
<g id="node9" class="node">
<title>HS_PIXELGECKO</title>
<polygon fill="none" stroke="turquoise" points="1065.72,-687.92 1062.72,-691.92 1041.72,-691.92 1038.72,-687.92 281.72,-687.92 281.72,-614.92 1065.72,-614.92 1065.72,-687.92"/>
<text text-anchor="start" x="293.72" y="-669.22" font-family="Times,serif" font-weight="bold" font-size="14.00">host:</text>
<text text-anchor="start" x="465.72" y="-668.22" font-family="Times,serif" font-size="14.00">$HOME/.local/share/docker/volumes/phaidra&#45;external&#45;webserver_pixelgecko/_data</text>
<text text-anchor="start" x="293.72" y="-647.22" font-family="Times,serif" font-size="14.00">pixelgecko&#45;container:</text>
<text text-anchor="start" x="465.72" y="-647.22" font-family="Times,serif" font-size="14.00">/mnt/converted_images</text>
<text text-anchor="start" x="293.72" y="-626.22" font-family="Times,serif" font-size="14.00">imageserver&#45;container:</text>
<text text-anchor="start" x="465.72" y="-626.22" font-family="Times,serif" font-size="14.00">/mnt/converted_images:ro</text>
</g>
<!-- C_IMAGESERVER -->
<g id="node21" class="node">
<title>C_IMAGESERVER</title>
<g id="a_node21"><a xlink:href="https://github.com/ruven/iipsrv" xlink:title="phaidra&#45;external&#45;webserver&#45;imageserver&#45;1">
<polygon fill="none" stroke="green" points="1803.72,-491.42 1481.72,-491.42 1481.72,-487.42 1477.72,-487.42 1477.72,-483.42 1481.72,-483.42 1481.72,-463.42 1477.72,-463.42 1477.72,-459.42 1481.72,-459.42 1481.72,-455.42 1803.72,-455.42 1803.72,-491.42"/>
<polyline fill="none" stroke="green" points="1481.72,-487.42 1485.72,-487.42 1485.72,-483.42 1481.72,-483.42 "/>
<polyline fill="none" stroke="green" points="1481.72,-463.42 1485.72,-463.42 1485.72,-459.42 1481.72,-459.42 "/>
<text text-anchor="middle" x="1642.72" y="-469.72" font-family="Times,serif" font-size="14.00">phaidra&#45;external&#45;webserver&#45;imageserver&#45;1</text>
</a>
</g>
</g>
<!-- HS_PIXELGECKO&#45;&#45;C_IMAGESERVER -->
<g id="edge10" class="edge">
<title>HS_PIXELGECKO&#45;&#45;C_IMAGESERVER</title>
<path fill="none" stroke="turquoise" d="M1065.97,-645.67C1087.62,-635.21 1107.81,-621.98 1125.72,-605.42 1147.61,-585.18 1116.12,-559.97 1137.72,-539.42 1186.03,-493.45 1352.94,-478.76 1481.59,-474.43"/>
</g>
<!-- HS_PIXELGECKO&#45;&#45;C_PIXELGECKO -->
<g id="edge12" class="edge">
<title>HS_PIXELGECKO&#45;&#45;C_PIXELGECKO</title>
<path fill="none" stroke="turquoise" d="M1065.89,-653.28C1288.85,-648.61 1572.61,-632.99 1821.72,-589.42 1876.91,-579.77 1938.15,-560.14 1979.4,-545.54"/>
</g>
<!-- HS_DBGATE -->
<g id="node10" class="node">
<title>HS_DBGATE</title>
<polygon fill="none" stroke="turquoise" points="1033.22,-134.42 1030.22,-138.42 1009.22,-138.42 1006.22,-134.42 314.22,-134.42 314.22,-82.42 1033.22,-82.42 1033.22,-134.42"/>
<text text-anchor="start" x="326.72" y="-116.22" font-family="Times,serif" font-weight="bold" font-size="14.00">host:</text>
<text text-anchor="start" x="459.72" y="-115.22" font-family="Times,serif" font-size="14.00">$HOME/.local/share/docker/volumes/phaidra&#45;external&#45;webserver_dbgate/_data</text>
<text text-anchor="start" x="326.72" y="-94.22" font-family="Times,serif" font-size="14.00">dbgate&#45;container:</text>
<text text-anchor="start" x="459.72" y="-94.22" font-family="Times,serif" font-size="14.00">/root/.dbgate</text>
</g>
<!-- HS_DBGATE&#45;&#45;C_DBGATE -->
<g id="edge13" class="edge">
<title>HS_DBGATE&#45;&#45;C_DBGATE</title>
<path fill="none" stroke="turquoise" d="M1033.26,-130.74C1064.61,-134.35 1095.78,-138.55 1125.72,-143.42 1158.51,-148.75 1194.43,-157.46 1223.92,-165.4"/>
</g>
<!-- HS_MARIADB_FEDORA -->
<g id="node11" class="node">
<title>HS_MARIADB_FEDORA</title>
<polygon fill="none" stroke="turquoise" points="1094.22,-758.42 1091.22,-762.42 1070.22,-762.42 1067.22,-758.42 253.22,-758.42 253.22,-706.42 1094.22,-706.42 1094.22,-758.42"/>
<text text-anchor="start" x="265.72" y="-740.22" font-family="Times,serif" font-weight="bold" font-size="14.00">host:</text>
<text text-anchor="start" x="458.72" y="-739.22" font-family="Times,serif" font-size="14.00">$HOME/.local/share/docker/volumes/phaidra&#45;external&#45;webserver_mariadb_fedora/_data</text>
<text text-anchor="start" x="265.72" y="-718.22" font-family="Times,serif" font-size="14.00">mariadb&#45;fedora&#45;container:</text>
<text text-anchor="start" x="458.72" y="-718.22" font-family="Times,serif" font-size="14.00">/var/lib/mysql</text>
</g>
<!-- C_MARIADB_FEDORA -->
<g id="node25" class="node">
<title>C_MARIADB_FEDORA</title>
<g id="a_node25"><a xlink:href="https://mariadb.org/" xlink:title="phaidra&#45;external&#45;webserver&#45;mariadb&#45;fedora&#45;1">
<polygon fill="none" stroke="green" points="2199.72,-221.42 1857.72,-221.42 1857.72,-217.42 1853.72,-217.42 1853.72,-213.42 1857.72,-213.42 1857.72,-193.42 1853.72,-193.42 1853.72,-189.42 1857.72,-189.42 1857.72,-185.42 2199.72,-185.42 2199.72,-221.42"/>
<polyline fill="none" stroke="green" points="1857.72,-217.42 1861.72,-217.42 1861.72,-213.42 1857.72,-213.42 "/>
<polyline fill="none" stroke="green" points="1857.72,-193.42 1861.72,-193.42 1861.72,-189.42 1857.72,-189.42 "/>
<text text-anchor="middle" x="2028.72" y="-199.72" font-family="Times,serif" font-size="14.00">phaidra&#45;external&#45;webserver&#45;mariadb&#45;fedora&#45;1</text>
</a>
</g>
</g>
<!-- HS_MARIADB_FEDORA&#45;&#45;C_MARIADB_FEDORA -->
<g id="edge14" class="edge">
<title>HS_MARIADB_FEDORA&#45;&#45;C_MARIADB_FEDORA</title>
<path fill="none" stroke="turquoise" d="M847.27,-758.44C1094.85,-785.4 1550.8,-794.85 1821.72,-554.42 1859.57,-520.83 1834.98,-491.62 1857.72,-446.42 1903.42,-355.58 1979.79,-260.27 2012.31,-221.46"/>
</g>
<!-- BIND_MARIADB_PHAIDRA_INIT -->
<g id="node12" class="node">
<title>BIND_MARIADB_PHAIDRA_INIT</title>
<polygon fill="none" stroke="blue" points="988.72,-857.42 985.72,-861.42 964.72,-861.42 961.72,-857.42 358.72,-857.42 358.72,-805.42 988.72,-805.42 988.72,-857.42"/>
<text text-anchor="start" x="370.72" y="-839.22" font-family="Times,serif" font-weight="bold" font-size="14.00">host:</text>
<text text-anchor="start" x="572.72" y="-838.22" font-family="Times,serif" font-size="14.00">$REPO/container_components/mariadb/phaidradb.sql.gz</text>
<text text-anchor="start" x="370.72" y="-817.22" font-family="Times,serif" font-size="14.00">mariadb&#45;phaidra&#45;container:</text>
<text text-anchor="start" x="572.72" y="-817.22" font-family="Times,serif" font-size="14.00">/docker&#45;entrypoint&#45;initdb.d/phaidradb.sql.gz:ro</text>
</g>
<!-- BIND_MARIADB_PHAIDRA_INIT&#45;&#45;C_MARIADB_PHAIDRA -->
<g id="edge4" class="edge">
<title>BIND_MARIADB_PHAIDRA_INIT&#45;&#45;C_MARIADB_PHAIDRA</title>
<path fill="none" stroke="blue" d="M988.83,-832.95C1050.37,-826.92 1102.95,-815.08 1125.72,-793.42 1154.64,-765.91 1119.62,-739.99 1137.72,-704.42 1228.67,-525.67 1283.75,-480.91 1463.72,-392.42 1470.59,-389.04 1477.78,-386.06 1485.16,-383.43"/>
</g>
<!-- BIND_OPENLDAP_INIT -->
<g id="node13" class="node">
<title>BIND_OPENLDAP_INIT</title>
<polygon fill="none" stroke="blue" points="902.72,-927.42 899.72,-931.42 878.72,-931.42 875.72,-927.42 444.72,-927.42 444.72,-875.42 902.72,-875.42 902.72,-927.42"/>
<text text-anchor="start" x="456.72" y="-909.22" font-family="Times,serif" font-weight="bold" font-size="14.00">host:</text>
<text text-anchor="start" x="604.72" y="-908.22" font-family="Times,serif" font-size="14.00">$REPO/container_components/openldap</text>
<text text-anchor="start" x="456.72" y="-887.22" font-family="Times,serif" font-size="14.00">openldap&#45;container:</text>
<text text-anchor="start" x="604.72" y="-887.22" font-family="Times,serif" font-size="14.00">/ldifs:ro</text>
</g>
<!-- BIND_OPENLDAP_INIT&#45;&#45;C_OPENLDAP -->
<g id="edge8" class="edge">
<title>BIND_OPENLDAP_INIT&#45;&#45;C_OPENLDAP</title>
<path fill="none" stroke="blue" d="M902.88,-905.86C975.66,-901.47 1055.5,-890.42 1125.72,-866.42 1342.77,-792.23 1557.52,-605.18 1622.14,-545.81"/>
</g>
<!-- C_FEDORA&#45;&#45;C_MARIADB_FEDORA -->
<g id="edge15" class="edge">
<title>C_FEDORA&#45;&#45;C_MARIADB_FEDORA</title>
<path fill="none" stroke="orange" d="M1781.81,-203.42C1806.32,-203.42 1832.11,-203.42 1857.39,-203.42"/>
</g>
<!-- C_API&#45;&#45;C_FEDORA -->
<g id="edge16" class="edge">
<title>C_API&#45;&#45;C_FEDORA</title>
<path fill="none" stroke="orange" d="M1414.02,-231.72C1443.01,-228.12 1473.99,-224.27 1503.45,-220.6"/>
</g>
<!-- C_API&#45;&#45;C_MARIADB_PHAIDRA -->
<g id="edge17" class="edge">
<title>C_API&#45;&#45;C_MARIADB_PHAIDRA</title>
<path fill="none" stroke="orange" d="M1315.73,-265.59C1349.44,-286.56 1408.43,-320.47 1463.72,-338.42 1474.13,-341.8 1485.01,-344.75 1496.06,-347.35"/>
</g>
<!-- C_API&#45;&#45;C_MONGODB_PHAIDRA -->
<g id="edge18" class="edge">
<title>C_API&#45;&#45;C_MONGODB_PHAIDRA</title>
<path fill="none" stroke="orange" d="M1414.02,-250.99C1430.11,-251.44 1446.8,-251.91 1463.51,-252.38"/>
</g>
<!-- C_API&#45;&#45;C_UI -->
<g id="edge19" class="edge">
<title>C_API&#45;&#45;C_UI</title>
<path fill="none" stroke="orange" d="M1368.58,-265.42C1398.41,-271.8 1432.54,-278.78 1463.72,-284.42 1481.72,-287.67 1500.78,-290.85 1519.49,-293.81"/>
</g>
<!-- C_API&#45;&#45;C_OPENLDAP -->
<g id="edge20" class="edge">
<title>C_API&#45;&#45;C_OPENLDAP</title>
<path fill="none" stroke="orange" d="M1294.4,-265.59C1312.93,-313.22 1369.92,-442.03 1463.72,-500.42 1473.01,-506.2 1483.08,-510.9 1493.56,-514.72"/>
</g>
<!-- C_API&#45;&#45;C_SOLR -->
<g id="edge21" class="edge">
<title>C_API&#45;&#45;C_SOLR</title>
<path fill="none" stroke="orange" d="M1303.54,-265.75C1332.03,-297.42 1395.4,-361.92 1463.72,-392.42 1478.99,-399.23 1495.65,-404.38 1512.46,-408.26"/>
</g>
<!-- C_API&#45;&#45;C_IMAGESERVER -->
<g id="edge22" class="edge">
<title>C_API&#45;&#45;C_IMAGESERVER</title>
<path fill="none" stroke="orange" d="M1297.67,-265.49C1320.86,-305.66 1382.71,-402.31 1463.72,-446.42 1469.9,-449.78 1476.36,-452.76 1483.02,-455.4"/>
</g>
<!-- C_MONGODB_PHAIDRA&#45;&#45;C_PIXELGECKO -->
<g id="edge23" class="edge">
<title>C_MONGODB_PHAIDRA&#45;&#45;C_PIXELGECKO</title>
<path fill="none" stroke="orange" d="M1811.46,-275.68C1815.06,-278.33 1818.49,-281.24 1821.72,-284.42 1891.04,-352.73 1788.64,-431.86 1857.72,-500.42 1862.81,-505.47 1868.44,-509.81 1874.47,-513.53"/>
</g>
<!-- C_OPENLDAP&#45;&#45;C_LAM -->
<g id="edge24" class="edge">
<title>C_OPENLDAP&#45;&#45;C_LAM</title>
<path fill="none" stroke="orange" d="M1771.86,-509.4C1812.97,-503.62 1858.49,-497.22 1899.6,-491.44"/>
</g>
<!-- C_DBGATE&#45;&#45;C_MARIADB_PHAIDRA -->
<g id="edge25" class="edge">
<title>C_DBGATE&#45;&#45;C_MARIADB_PHAIDRA</title>
<path fill="none" stroke="orange" d="M1400,-201.56C1410.18,-206.48 1419.66,-212.66 1427.72,-220.42 1467.22,-258.45 1422.23,-302.57 1463.72,-338.42 1467.51,-341.69 1471.51,-344.65 1475.7,-347.34"/>
</g>
<!-- C_DBGATE&#45;&#45;C_MONGODB_PHAIDRA -->
<g id="edge26" class="edge">
<title>C_DBGATE&#45;&#45;C_MONGODB_PHAIDRA</title>
<path fill="none" stroke="orange" d="M1356.84,-201.5C1379.45,-207.47 1404.67,-214.17 1427.72,-220.42 1443.75,-224.76 1447.48,-226.94 1463.72,-230.42 1478.85,-233.66 1494.79,-236.65 1510.65,-239.37"/>
</g>
<!-- C_DBGATE&#45;&#45;C_MARIADB_FEDORA -->
<g id="edge27" class="edge">
<title>C_DBGATE&#45;&#45;C_MARIADB_FEDORA</title>
<path fill="none" stroke="orange" d="M1427.96,-177.34C1440.06,-176.97 1452.1,-176.65 1463.72,-176.42 1622.8,-173.26 1662.95,-166.06 1821.72,-176.42 1850.7,-178.31 1881.82,-181.68 1910.87,-185.41"/>
</g>
</g>
</svg>
