<?xml version="1.0" encoding="UTF-8" standalone="no"?>
<!DOCTYPE svg PUBLIC "-//W3C//DTD SVG 1.1//EN"
 "http://www.w3.org/Graphics/SVG/1.1/DTD/svg11.dtd">
<!-- Generated by graphviz version 2.43.0 (0)
 -->
<!-- Title: G Pages: 1 -->
<svg width="1812pt" height="2258pt"
 viewBox="0.00 0.00 1811.72 2257.79" xmlns="http://www.w3.org/2000/svg" xmlns:xlink="http://www.w3.org/1999/xlink">
<g id="graph0" class="graph" transform="scale(1 1) rotate(0) translate(4 2253.79)">
<title>G</title>
<polygon fill="white" stroke="transparent" points="-4,4 -4,-2253.79 1807.72,-2253.79 1807.72,4 -4,4"/>
<g id="clust1" class="cluster">
<title>cluster_host</title>
<polygon fill="none" stroke="red" points="221.72,-90.79 221.72,-2241.79 1795.72,-2241.79 1795.72,-90.79 221.72,-90.79"/>
<text text-anchor="middle" x="1008.72" y="-2226.59" font-family="Times,serif" font-size="14.00">PHAIDRA server firewall</text>
</g>
<g id="clust2" class="cluster">
<title>cluster_host_storage</title>
<polygon fill="none" stroke="blue" points="446.72,-565.79 446.72,-2210.79 1241.72,-2210.79 1241.72,-565.79 446.72,-565.79"/>
<text text-anchor="middle" x="844.22" y="-2195.59" font-family="Times,serif" font-size="14.00">PHAIDRA server filesystem</text>
</g>
<g id="clust3" class="cluster">
<title>cluster_named_volumes</title>
<polygon fill="none" stroke="turquoise" points="454.72,-1232.79 454.72,-2179.79 1233.72,-2179.79 1233.72,-1232.79 454.72,-1232.79"/>
<text text-anchor="middle" x="844.22" y="-2164.59" font-family="Times,serif" font-size="14.00">Named volumes</text>
</g>
<g id="clust4" class="cluster">
<title>cluster_bind_mounts</title>
<polygon fill="none" stroke="blue" points="551.72,-573.79 551.72,-1224.79 1136.72,-1224.79 1136.72,-573.79 551.72,-573.79"/>
<text text-anchor="middle" x="844.22" y="-1209.59" font-family="Times,serif" font-size="14.00">Bind mounts</text>
</g>
<g id="clust5" class="cluster">
<title>cluster_docker_network_host</title>
<polygon fill="none" stroke="green" points="229.72,-98.79 229.72,-557.79 1787.72,-557.79 1787.72,-98.79 229.72,-98.79"/>
<text text-anchor="middle" x="1008.72" y="-542.59" font-family="Times,serif" font-size="14.00">PHAIDRA docker containers</text>
</g>
<!-- USER -->
<g id="node1" class="node">
<title>USER</title>
<polygon fill="none" stroke="black" points="193.59,-373.34 193.59,-388.25 139.27,-398.79 62.45,-398.79 8.13,-388.25 8.13,-373.34 62.45,-362.79 139.27,-362.79 193.59,-373.34"/>
<polygon fill="none" stroke="black" points="197.59,-370.04 197.59,-391.55 139.66,-402.79 62.07,-402.79 4.13,-391.55 4.13,-370.04 62.07,-358.79 139.66,-358.79 197.59,-370.04"/>
<polygon fill="none" stroke="black" points="201.58,-366.74 201.58,-394.85 140.04,-406.79 61.68,-406.79 0.14,-394.85 0.14,-366.74 61.68,-354.79 140.04,-354.79 201.58,-366.74"/>
<text text-anchor="middle" x="100.86" y="-377.09" font-family="Times,serif" font-size="14.00">PHAIDRA USER</text>
</g>
<!-- WEBSERVER -->
<g id="node37" class="node">
<title>WEBSERVER</title>
<polygon fill="none" stroke="green" points="413.72,-367.79 250.72,-367.79 250.72,-363.79 246.72,-363.79 246.72,-359.79 250.72,-359.79 250.72,-339.79 246.72,-339.79 246.72,-335.79 250.72,-335.79 250.72,-331.79 413.72,-331.79 413.72,-367.79"/>
<polyline fill="none" stroke="green" points="250.72,-363.79 254.72,-363.79 254.72,-359.79 250.72,-359.79 "/>
<polyline fill="none" stroke="green" points="250.72,-339.79 254.72,-339.79 254.72,-335.79 250.72,-335.79 "/>
<text text-anchor="middle" x="332.22" y="-346.09" font-family="Times,serif" font-size="14.00">phaidra&#45;shib&#45;httpd&#45;1</text>
</g>
<!-- USER&#45;&#45;WEBSERVER -->
<g id="edge49" class="edge">
<title>USER&#45;&#45;WEBSERVER</title>
<path fill="none" stroke="red" d="M201.79,-367.29C218.09,-365.08 234.79,-362.83 250.55,-360.7"/>
</g>
<!-- IDP -->
<g id="node2" class="node">
<title>IDP</title>
<polygon fill="none" stroke="black" points="161.86,-330.79 39.86,-330.79 39.86,-306.79 161.86,-306.79 161.86,-330.79"/>
<polyline fill="none" stroke="black" points="42.86,-320.29 45.86,-317.29 "/>
<polyline fill="none" stroke="black" points="42.86,-317.29 45.86,-320.29 "/>
<polyline fill="none" stroke="black" points="42.86,-309.79 158.86,-309.79 "/>
<text text-anchor="middle" x="100.86" y="-315.09" font-family="Times,serif" font-size="14.00">Shibboleth IdP</text>
</g>
<!-- IDP&#45;&#45;WEBSERVER -->
<g id="edge50" class="edge">
<title>IDP&#45;&#45;WEBSERVER</title>
<path fill="none" stroke="red" d="M162.12,-326.94C189.2,-330.6 221.54,-334.97 250.66,-338.9"/>
</g>
<!-- HS_FEDORA -->
<g id="node3" class="node">
<title>HS_FEDORA</title>
<polygon fill="none" stroke="turquoise" points="1160.22,-1846.79 1157.22,-1850.79 1136.22,-1850.79 1133.22,-1846.79 528.22,-1846.79 528.22,-1752.79 1160.22,-1752.79 1160.22,-1846.79"/>
<text text-anchor="start" x="540.22" y="-1828.59" font-family="Times,serif" font-weight="bold" font-size="14.00">host:</text>
<text text-anchor="start" x="699.22" y="-1827.59" font-family="Times,serif" font-size="14.00">$HOME/.local/share/docker/volumes/phaidra&#45;shib_fedora/_data</text>
<text text-anchor="start" x="540.22" y="-1806.59" font-family="Times,serif" font-size="14.00">fedora&#45;container:</text>
<text text-anchor="start" x="699.22" y="-1806.59" font-family="Times,serif" font-size="14.00">/usr/local/tomcat/fcrepo&#45;home</text>
<text text-anchor="start" x="540.22" y="-1785.59" font-family="Times,serif" font-size="14.00">pixelgecko&#45;container:</text>
<text text-anchor="start" x="699.22" y="-1785.59" font-family="Times,serif" font-size="14.00"> /mnt/fedora:ro</text>
<text text-anchor="start" x="540.22" y="-1764.59" font-family="Times,serif" font-size="14.00">api&#45;container:</text>
<text text-anchor="start" x="699.22" y="-1764.59" font-family="Times,serif" font-size="14.00"> /mnt/fedora:ro</text>
</g>
<!-- C_FEDORA -->
<g id="node24" class="node">
<title>C_FEDORA</title>
<g id="a_node24"><a xlink:href="https://fedora.lyrasis.org/" xlink:title="phaidra&#45;shib&#45;fedora&#45;1">
<polygon fill="none" stroke="green" points="1471.22,-310.79 1301.22,-310.79 1301.22,-306.79 1297.22,-306.79 1297.22,-302.79 1301.22,-302.79 1301.22,-282.79 1297.22,-282.79 1297.22,-278.79 1301.22,-278.79 1301.22,-274.79 1471.22,-274.79 1471.22,-310.79"/>
<polyline fill="none" stroke="green" points="1301.22,-306.79 1305.22,-306.79 1305.22,-302.79 1301.22,-302.79 "/>
<polyline fill="none" stroke="green" points="1301.22,-282.79 1305.22,-282.79 1305.22,-278.79 1301.22,-278.79 "/>
<text text-anchor="middle" x="1386.22" y="-289.09" font-family="Times,serif" font-size="14.00">phaidra&#45;shib&#45;fedora&#45;1</text>
</a>
</g>
</g>
<!-- HS_FEDORA&#45;&#45;C_FEDORA -->
<g id="edge1" class="edge">
<title>HS_FEDORA&#45;&#45;C_FEDORA</title>
<path fill="none" stroke="turquoise" d="M1160.49,-1798.92C1191.36,-1786.81 1219.43,-1769.09 1241.72,-1743.79 1294.03,-1684.43 1211.68,-381.07 1261.72,-319.79 1271.72,-307.55 1285.86,-300.06 1301.02,-295.62"/>
</g>
<!-- C_API -->
<g id="node25" class="node">
<title>C_API</title>
<g id="a_node25"><a xlink:href="https://github.com/phaidra/phaidra-api" xlink:title="phaidra&#45;shib&#45;api&#45;1">
<polygon fill="none" stroke="green" points="917.22,-421.79 771.22,-421.79 771.22,-417.79 767.22,-417.79 767.22,-413.79 771.22,-413.79 771.22,-393.79 767.22,-393.79 767.22,-389.79 771.22,-389.79 771.22,-385.79 917.22,-385.79 917.22,-421.79"/>
<polyline fill="none" stroke="green" points="771.22,-417.79 775.22,-417.79 775.22,-413.79 771.22,-413.79 "/>
<polyline fill="none" stroke="green" points="771.22,-393.79 775.22,-393.79 775.22,-389.79 771.22,-389.79 "/>
<text text-anchor="middle" x="844.22" y="-400.09" font-family="Times,serif" font-size="14.00">phaidra&#45;shib&#45;api&#45;1</text>
</a>
</g>
</g>
<!-- HS_FEDORA&#45;&#45;C_API -->
<g id="edge3" class="edge">
<title>HS_FEDORA&#45;&#45;C_API</title>
<path fill="none" stroke="turquoise" d="M527.98,-1814.29C488.01,-1800.1 454.79,-1775.37 436.72,-1734.79 423.66,-1705.46 423.66,-608.13 436.72,-578.79 492.79,-452.89 669.68,-417.5 771.02,-407.59"/>
</g>
<!-- C_PIXELGECKO -->
<g id="node32" class="node">
<title>C_PIXELGECKO</title>
<polygon fill="none" stroke="green" points="1763.22,-526.79 1563.22,-526.79 1563.22,-522.79 1559.22,-522.79 1559.22,-518.79 1563.22,-518.79 1563.22,-498.79 1559.22,-498.79 1559.22,-494.79 1563.22,-494.79 1563.22,-490.79 1763.22,-490.79 1763.22,-526.79"/>
<polyline fill="none" stroke="green" points="1563.22,-522.79 1567.22,-522.79 1567.22,-518.79 1563.22,-518.79 "/>
<polyline fill="none" stroke="green" points="1563.22,-498.79 1567.22,-498.79 1567.22,-494.79 1563.22,-494.79 "/>
<text text-anchor="middle" x="1663.22" y="-505.09" font-family="Times,serif" font-size="14.00">phaidra&#45;shib&#45;pixelgecko&#45;1</text>
</g>
<!-- HS_FEDORA&#45;&#45;C_PIXELGECKO -->
<g id="edge14" class="edge">
<title>HS_FEDORA&#45;&#45;C_PIXELGECKO</title>
<path fill="none" stroke="turquoise" d="M1160.35,-1795.63C1190.74,-1783.98 1218.74,-1767.26 1241.72,-1743.79 1267.87,-1717.09 1252.87,-1613.11 1261.72,-1576.79 1369.18,-1135.72 1605.35,-628.15 1653.54,-526.89"/>
</g>
<!-- HS_API_LOGS -->
<g id="node4" class="node">
<title>HS_API_LOGS</title>
<polygon fill="none" stroke="turquoise" points="1139.22,-2078.79 1136.22,-2082.79 1115.22,-2082.79 1112.22,-2078.79 549.22,-2078.79 549.22,-2026.79 1139.22,-2026.79 1139.22,-2078.79"/>
<text text-anchor="start" x="561.22" y="-2060.59" font-family="Times,serif" font-weight="bold" font-size="14.00">host:</text>
<text text-anchor="start" x="666.22" y="-2059.59" font-family="Times,serif" font-size="14.00">$HOME/.local/share/docker/volumes/phaidra&#45;shib_api_logs/_data</text>
<text text-anchor="start" x="561.22" y="-2038.59" font-family="Times,serif" font-size="14.00">api&#45;container:</text>
<text text-anchor="start" x="666.22" y="-2038.59" font-family="Times,serif" font-size="14.00">/var/log/phaidra</text>
</g>
<!-- HS_API_LOGS&#45;&#45;C_API -->
<g id="edge2" class="edge">
<title>HS_API_LOGS&#45;&#45;C_API</title>
<path fill="none" stroke="turquoise" d="M549.21,-2056.06C493.27,-2049.1 448.41,-2035.04 436.72,-2008.79 428.64,-1990.65 428.64,-596.94 436.72,-578.79 492.79,-452.89 669.68,-417.5 771.02,-407.59"/>
</g>
<!-- HS_MARIADB_PHAIDRA -->
<g id="node5" class="node">
<title>HS_MARIADB_PHAIDRA</title>
<polygon fill="none" stroke="turquoise" points="1219.22,-1734.79 1216.22,-1738.79 1195.22,-1738.79 1192.22,-1734.79 469.22,-1734.79 469.22,-1682.79 1219.22,-1682.79 1219.22,-1734.79"/>
<text text-anchor="start" x="481.22" y="-1716.59" font-family="Times,serif" font-weight="bold" font-size="14.00">host:</text>
<text text-anchor="start" x="683.22" y="-1715.59" font-family="Times,serif" font-size="14.00">$HOME/.local/share/docker/volumes/phaidra&#45;shib_mariadb_phaidra/_data</text>
<text text-anchor="start" x="481.22" y="-1694.59" font-family="Times,serif" font-size="14.00">mariadb&#45;phaidra&#45;container:</text>
<text text-anchor="start" x="683.22" y="-1694.59" font-family="Times,serif" font-size="14.00">/var/lib/mysql</text>
</g>
<!-- C_MARIADB_PHAIDRA -->
<g id="node26" class="node">
<title>C_MARIADB_PHAIDRA</title>
<g id="a_node26"><a xlink:href="https://mariadb.org/" xlink:title="phaidra&#45;shib&#45;mariadb&#45;phaidra&#45;1">
<polygon fill="none" stroke="green" points="1507.22,-364.79 1265.22,-364.79 1265.22,-360.79 1261.22,-360.79 1261.22,-356.79 1265.22,-356.79 1265.22,-336.79 1261.22,-336.79 1261.22,-332.79 1265.22,-332.79 1265.22,-328.79 1507.22,-328.79 1507.22,-364.79"/>
<polyline fill="none" stroke="green" points="1265.22,-360.79 1269.22,-360.79 1269.22,-356.79 1265.22,-356.79 "/>
<polyline fill="none" stroke="green" points="1265.22,-336.79 1269.22,-336.79 1269.22,-332.79 1265.22,-332.79 "/>
<text text-anchor="middle" x="1386.22" y="-343.09" font-family="Times,serif" font-size="14.00">phaidra&#45;shib&#45;mariadb&#45;phaidra&#45;1</text>
</a>
</g>
</g>
<!-- HS_MARIADB_PHAIDRA&#45;&#45;C_MARIADB_PHAIDRA -->
<g id="edge6" class="edge">
<title>HS_MARIADB_PHAIDRA&#45;&#45;C_MARIADB_PHAIDRA</title>
<path fill="none" stroke="turquoise" d="M956.56,-1734.8C1047.14,-1748.67 1171.14,-1749.7 1241.72,-1673.79 1290.91,-1620.9 1216,-429.71 1261.72,-373.79 1264.36,-370.56 1267.29,-367.67 1270.45,-365.07"/>
</g>
<!-- HS_MONGODB_PHAIDRA -->
<g id="node6" class="node">
<title>HS_MONGODB_PHAIDRA</title>
<polygon fill="none" stroke="turquoise" points="1225.72,-1524.79 1222.72,-1528.79 1201.72,-1528.79 1198.72,-1524.79 462.72,-1524.79 462.72,-1472.79 1225.72,-1472.79 1225.72,-1524.79"/>
<text text-anchor="start" x="475.22" y="-1506.59" font-family="Times,serif" font-weight="bold" font-size="14.00">host:</text>
<text text-anchor="start" x="683.22" y="-1505.59" font-family="Times,serif" font-size="14.00">$HOME/.local/share/docker/volumes/phaidra&#45;shib_mongodb_phaidra/_data</text>
<text text-anchor="start" x="475.22" y="-1484.59" font-family="Times,serif" font-size="14.00">phaidra&#45;mongodb&#45;container:</text>
<text text-anchor="start" x="683.22" y="-1484.59" font-family="Times,serif" font-size="14.00">/data/db</text>
</g>
<!-- C_MONGODB_PHAIDRA -->
<g id="node27" class="node">
<title>C_MONGODB_PHAIDRA</title>
<g id="a_node27"><a xlink:href="https://www.mongodb.com/" xlink:title="phaidra&#45;shib&#45;mongodb&#45;phaidra&#45;1">
<polygon fill="none" stroke="green" points="1510.72,-418.79 1261.72,-418.79 1261.72,-414.79 1257.72,-414.79 1257.72,-410.79 1261.72,-410.79 1261.72,-390.79 1257.72,-390.79 1257.72,-386.79 1261.72,-386.79 1261.72,-382.79 1510.72,-382.79 1510.72,-418.79"/>
<polyline fill="none" stroke="green" points="1261.72,-414.79 1265.72,-414.79 1265.72,-410.79 1261.72,-410.79 "/>
<polyline fill="none" stroke="green" points="1261.72,-390.79 1265.72,-390.79 1265.72,-386.79 1261.72,-386.79 "/>
<text text-anchor="middle" x="1386.22" y="-397.09" font-family="Times,serif" font-size="14.00">phaidra&#45;shib&#45;mongodb&#45;phaidra&#45;1</text>
</a>
</g>
</g>
<!-- HS_MONGODB_PHAIDRA&#45;&#45;C_MONGODB_PHAIDRA -->
<g id="edge7" class="edge">
<title>HS_MONGODB_PHAIDRA&#45;&#45;C_MONGODB_PHAIDRA</title>
<path fill="none" stroke="turquoise" d="M956.94,-1524.8C1047.43,-1538.56 1171.11,-1539.44 1241.72,-1463.79 1281,-1421.71 1225.19,-472.28 1261.72,-427.79 1264.37,-424.57 1267.3,-421.68 1270.47,-419.08"/>
</g>
<!-- HS_OPENLDAP -->
<g id="node7" class="node">
<title>HS_OPENLDAP</title>
<polygon fill="none" stroke="turquoise" points="1164.72,-1916.79 1161.72,-1920.79 1140.72,-1920.79 1137.72,-1916.79 523.72,-1916.79 523.72,-1864.79 1164.72,-1864.79 1164.72,-1916.79"/>
<text text-anchor="start" x="536.22" y="-1898.59" font-family="Times,serif" font-weight="bold" font-size="14.00">host:</text>
<text text-anchor="start" x="684.22" y="-1897.59" font-family="Times,serif" font-size="14.00">$HOME/.local/share/docker/volumes/phaidra&#45;shib_openldap/_data</text>
<text text-anchor="start" x="536.22" y="-1876.59" font-family="Times,serif" font-size="14.00">openldap&#45;container:</text>
<text text-anchor="start" x="684.22" y="-1876.59" font-family="Times,serif" font-size="14.00">/bitnami/openldap</text>
</g>
<!-- C_OPENLDAP -->
<g id="node29" class="node">
<title>C_OPENLDAP</title>
<g id="a_node29"><a xlink:href="https://www.openldap.org/" xlink:title="phaidra&#45;shib&#45;openldap&#45;1">
<polygon fill="none" stroke="green" points="1480.72,-472.79 1291.72,-472.79 1291.72,-468.79 1287.72,-468.79 1287.72,-464.79 1291.72,-464.79 1291.72,-444.79 1287.72,-444.79 1287.72,-440.79 1291.72,-440.79 1291.72,-436.79 1480.72,-436.79 1480.72,-472.79"/>
<polyline fill="none" stroke="green" points="1291.72,-468.79 1295.72,-468.79 1295.72,-464.79 1291.72,-464.79 "/>
<polyline fill="none" stroke="green" points="1291.72,-444.79 1295.72,-444.79 1295.72,-440.79 1291.72,-440.79 "/>
<text text-anchor="middle" x="1386.22" y="-451.09" font-family="Times,serif" font-size="14.00">phaidra&#45;shib&#45;openldap&#45;1</text>
</a>
</g>
</g>
<!-- HS_OPENLDAP&#45;&#45;C_OPENLDAP -->
<g id="edge10" class="edge">
<title>HS_OPENLDAP&#45;&#45;C_OPENLDAP</title>
<path fill="none" stroke="turquoise" d="M956.57,-1916.82C1047.17,-1930.7 1171.17,-1931.73 1241.72,-1855.79 1293.68,-1799.86 1213.42,-540.91 1261.72,-481.79 1269.64,-472.1 1280.15,-465.39 1291.71,-460.81"/>
</g>
<!-- HS_SOLR -->
<g id="node8" class="node">
<title>HS_SOLR</title>
<polygon fill="none" stroke="turquoise" points="1126.22,-1664.79 1123.22,-1668.79 1102.22,-1668.79 1099.22,-1664.79 562.22,-1664.79 562.22,-1612.79 1126.22,-1612.79 1126.22,-1664.79"/>
<text text-anchor="start" x="574.22" y="-1646.59" font-family="Times,serif" font-weight="bold" font-size="14.00">host:</text>
<text text-anchor="start" x="684.22" y="-1645.59" font-family="Times,serif" font-size="14.00">$HOME/.local/share/docker/volumes/phaidra&#45;shib_solr/_data</text>
<text text-anchor="start" x="574.22" y="-1624.59" font-family="Times,serif" font-size="14.00">solr&#45;container:</text>
<text text-anchor="start" x="684.22" y="-1624.59" font-family="Times,serif" font-size="14.00">/var/solr</text>
</g>
<!-- C_SOLR -->
<g id="node30" class="node">
<title>C_SOLR</title>
<g id="a_node30"><a xlink:href="https://solr.apache.org/" xlink:title="phaidra&#45;shib&#45;solr&#45;1">
<polygon fill="none" stroke="green" points="1461.72,-256.79 1310.72,-256.79 1310.72,-252.79 1306.72,-252.79 1306.72,-248.79 1310.72,-248.79 1310.72,-228.79 1306.72,-228.79 1306.72,-224.79 1310.72,-224.79 1310.72,-220.79 1461.72,-220.79 1461.72,-256.79"/>
<polyline fill="none" stroke="green" points="1310.72,-252.79 1314.72,-252.79 1314.72,-248.79 1310.72,-248.79 "/>
<polyline fill="none" stroke="green" points="1310.72,-228.79 1314.72,-228.79 1314.72,-224.79 1310.72,-224.79 "/>
<text text-anchor="middle" x="1386.22" y="-235.09" font-family="Times,serif" font-size="14.00">phaidra&#45;shib&#45;solr&#45;1</text>
</a>
</g>
</g>
<!-- HS_SOLR&#45;&#45;C_SOLR -->
<g id="edge12" class="edge">
<title>HS_SOLR&#45;&#45;C_SOLR</title>
<path fill="none" stroke="turquoise" d="M956.57,-1664.81C1047.15,-1678.68 1171.15,-1679.72 1241.72,-1603.79 1292.33,-1549.34 1214.67,-323.35 1261.72,-265.79 1273.81,-251.01 1291.94,-243.15 1310.62,-239.23"/>
</g>
<!-- HS_PIXELGECKO -->
<g id="node9" class="node">
<title>HS_PIXELGECKO</title>
<polygon fill="none" stroke="turquoise" points="1181.72,-2008.29 1178.72,-2012.29 1157.72,-2012.29 1154.72,-2008.29 506.72,-2008.29 506.72,-1935.29 1181.72,-1935.29 1181.72,-2008.29"/>
<text text-anchor="start" x="519.22" y="-1989.59" font-family="Times,serif" font-weight="bold" font-size="14.00">host:</text>
<text text-anchor="start" x="691.22" y="-1988.59" font-family="Times,serif" font-size="14.00">$HOME/.local/share/docker/volumes/phaidra&#45;shib_pixelgecko/_data</text>
<text text-anchor="start" x="519.22" y="-1967.59" font-family="Times,serif" font-size="14.00">pixelgecko&#45;container:</text>
<text text-anchor="start" x="691.22" y="-1967.59" font-family="Times,serif" font-size="14.00">/mnt/converted_images</text>
<text text-anchor="start" x="519.22" y="-1946.59" font-family="Times,serif" font-size="14.00">imageserver&#45;container:</text>
<text text-anchor="start" x="691.22" y="-1946.59" font-family="Times,serif" font-size="14.00">/mnt/converted_images:ro</text>
</g>
<!-- C_IMAGESERVER -->
<g id="node31" class="node">
<title>C_IMAGESERVER</title>
<g id="a_node31"><a xlink:href="https://github.com/ruven/iipsrv" xlink:title="phaidra&#45;shib&#45;imageserver&#45;1">
<polygon fill="none" stroke="green" points="1492.72,-526.79 1279.72,-526.79 1279.72,-522.79 1275.72,-522.79 1275.72,-518.79 1279.72,-518.79 1279.72,-498.79 1275.72,-498.79 1275.72,-494.79 1279.72,-494.79 1279.72,-490.79 1492.72,-490.79 1492.72,-526.79"/>
<polyline fill="none" stroke="green" points="1279.72,-522.79 1283.72,-522.79 1283.72,-518.79 1279.72,-518.79 "/>
<polyline fill="none" stroke="green" points="1279.72,-498.79 1283.72,-498.79 1283.72,-494.79 1279.72,-494.79 "/>
<text text-anchor="middle" x="1386.22" y="-505.09" font-family="Times,serif" font-size="14.00">phaidra&#45;shib&#45;imageserver&#45;1</text>
</a>
</g>
</g>
<!-- HS_PIXELGECKO&#45;&#45;C_IMAGESERVER -->
<g id="edge13" class="edge">
<title>HS_PIXELGECKO&#45;&#45;C_IMAGESERVER</title>
<path fill="none" stroke="turquoise" d="M1182.02,-1968.69C1204.18,-1958.09 1224.48,-1944.07 1241.72,-1925.79 1268.38,-1897.54 1258.38,-1615.49 1261.72,-1576.79 1298.59,-1150.02 1368.61,-630.1 1382.71,-527.04"/>
</g>
<!-- HS_PIXELGECKO&#45;&#45;C_PIXELGECKO -->
<g id="edge15" class="edge">
<title>HS_PIXELGECKO&#45;&#45;C_PIXELGECKO</title>
<path fill="none" stroke="turquoise" d="M1182.07,-1960.03C1203.37,-1951.17 1223.53,-1939.93 1241.72,-1925.79 1482.33,-1738.8 1638.42,-679.17 1659.72,-526.99"/>
</g>
<!-- HS_DBGATE -->
<g id="node10" class="node">
<title>HS_DBGATE</title>
<polygon fill="none" stroke="turquoise" points="1149.22,-1594.79 1146.22,-1598.79 1125.22,-1598.79 1122.22,-1594.79 539.22,-1594.79 539.22,-1542.79 1149.22,-1542.79 1149.22,-1594.79"/>
<text text-anchor="start" x="551.22" y="-1576.59" font-family="Times,serif" font-weight="bold" font-size="14.00">host:</text>
<text text-anchor="start" x="684.22" y="-1575.59" font-family="Times,serif" font-size="14.00">$HOME/.local/share/docker/volumes/phaidra&#45;shib_dbgate/_data</text>
<text text-anchor="start" x="551.22" y="-1554.59" font-family="Times,serif" font-size="14.00">dbgate&#45;container:</text>
<text text-anchor="start" x="684.22" y="-1554.59" font-family="Times,serif" font-size="14.00">/root/.dbgate</text>
</g>
<!-- C_DBGATE -->
<g id="node33" class="node">
<title>C_DBGATE</title>
<polygon fill="none" stroke="green" points="930.72,-367.79 757.72,-367.79 757.72,-363.79 753.72,-363.79 753.72,-359.79 757.72,-359.79 757.72,-339.79 753.72,-339.79 753.72,-335.79 757.72,-335.79 757.72,-331.79 930.72,-331.79 930.72,-367.79"/>
<polyline fill="none" stroke="green" points="757.72,-363.79 761.72,-363.79 761.72,-359.79 757.72,-359.79 "/>
<polyline fill="none" stroke="green" points="757.72,-339.79 761.72,-339.79 761.72,-335.79 757.72,-335.79 "/>
<text text-anchor="middle" x="844.22" y="-346.09" font-family="Times,serif" font-size="14.00">phaidra&#45;shib&#45;dbgate&#45;1</text>
</g>
<!-- HS_DBGATE&#45;&#45;C_DBGATE -->
<g id="edge16" class="edge">
<title>HS_DBGATE&#45;&#45;C_DBGATE</title>
<path fill="none" stroke="turquoise" d="M539.21,-1570.72C487.97,-1563.36 447.7,-1549.45 436.72,-1524.79 423.85,-1495.89 423.85,-414.69 436.72,-385.79 462.19,-328.62 645.74,-333.11 757.64,-341.45"/>
</g>
<!-- HS_MARIADB_FEDORA -->
<g id="node11" class="node">
<title>HS_MARIADB_FEDORA</title>
<polygon fill="none" stroke="turquoise" points="1210.22,-2148.79 1207.22,-2152.79 1186.22,-2152.79 1183.22,-2148.79 478.22,-2148.79 478.22,-2096.79 1210.22,-2096.79 1210.22,-2148.79"/>
<text text-anchor="start" x="490.22" y="-2130.59" font-family="Times,serif" font-weight="bold" font-size="14.00">host:</text>
<text text-anchor="start" x="683.22" y="-2129.59" font-family="Times,serif" font-size="14.00">$HOME/.local/share/docker/volumes/phaidra&#45;shib_mariadb_fedora/_data</text>
<text text-anchor="start" x="490.22" y="-2108.59" font-family="Times,serif" font-size="14.00">mariadb&#45;fedora&#45;container:</text>
<text text-anchor="start" x="683.22" y="-2108.59" font-family="Times,serif" font-size="14.00">/var/lib/mysql</text>
</g>
<!-- C_MARIADB_FEDORA -->
<g id="node35" class="node">
<title>C_MARIADB_FEDORA</title>
<g id="a_node35"><a xlink:href="https://mariadb.org/" xlink:title="phaidra&#45;shib&#45;mariadb&#45;fedora&#45;1">
<polygon fill="none" stroke="green" points="1779.72,-264.79 1546.72,-264.79 1546.72,-260.79 1542.72,-260.79 1542.72,-256.79 1546.72,-256.79 1546.72,-236.79 1542.72,-236.79 1542.72,-232.79 1546.72,-232.79 1546.72,-228.79 1779.72,-228.79 1779.72,-264.79"/>
<polyline fill="none" stroke="green" points="1546.72,-260.79 1550.72,-260.79 1550.72,-256.79 1546.72,-256.79 "/>
<polyline fill="none" stroke="green" points="1546.72,-236.79 1550.72,-236.79 1550.72,-232.79 1546.72,-232.79 "/>
<text text-anchor="middle" x="1663.22" y="-243.09" font-family="Times,serif" font-size="14.00">phaidra&#45;shib&#45;mariadb&#45;fedora&#45;1</text>
</a>
</g>
</g>
<!-- HS_MARIADB_FEDORA&#45;&#45;C_MARIADB_FEDORA -->
<g id="edge17" class="edge">
<title>HS_MARIADB_FEDORA&#45;&#45;C_MARIADB_FEDORA</title>
<path fill="none" stroke="turquoise" d="M982.29,-2148.81C1067.25,-2156.63 1172.94,-2150.04 1241.72,-2087.79 1780.41,-1600.27 1316.63,-1170.93 1546.72,-481.79 1575.08,-396.85 1628.19,-303.48 1651.16,-264.95"/>
</g>
<!-- HS_DATABASE_DUMPS -->
<g id="node12" class="node">
<title>HS_DATABASE_DUMPS</title>
<polygon fill="none" stroke="turquoise" points="1218.72,-1454.79 1215.72,-1458.79 1194.72,-1458.79 1191.72,-1454.79 469.72,-1454.79 469.72,-1402.79 1218.72,-1402.79 1218.72,-1454.79"/>
<text text-anchor="start" x="482.22" y="-1436.59" font-family="Times,serif" font-weight="bold" font-size="14.00">host:</text>
<text text-anchor="start" x="621.22" y="-1435.59" font-family="Times,serif" font-size="14.00">$HOME/.local/share/docker/volumes/phaidra&#45;shib_chronos_database_dumps/_data</text>
<text text-anchor="start" x="482.22" y="-1414.59" font-family="Times,serif" font-size="14.00">chronos&#45;container:</text>
<text text-anchor="start" x="621.22" y="-1414.59" font-family="Times,serif" font-size="14.00">/mnt/database&#45;dumps</text>
</g>
<!-- HS_SITEMAPS -->
<g id="node13" class="node">
<title>HS_SITEMAPS</title>
<polygon fill="none" stroke="turquoise" points="1191.22,-1314.29 1188.22,-1318.29 1167.22,-1318.29 1164.22,-1314.29 497.22,-1314.29 497.22,-1241.29 1191.22,-1241.29 1191.22,-1314.29"/>
<text text-anchor="start" x="509.22" y="-1295.59" font-family="Times,serif" font-weight="bold" font-size="14.00">host:</text>
<text text-anchor="start" x="648.22" y="-1294.59" font-family="Times,serif" font-size="14.00">$HOME/.local/share/docker/volumes/phaidra&#45;shib_chronos_sitemaps/_data</text>
<text text-anchor="start" x="509.22" y="-1273.59" font-family="Times,serif" font-size="14.00">chronos&#45;container:</text>
<text text-anchor="start" x="648.22" y="-1273.59" font-family="Times,serif" font-size="14.00">/mnt/sitemaps</text>
<text text-anchor="start" x="509.22" y="-1252.59" font-family="Times,serif" font-size="14.00">httpd&#45;container:</text>
<text text-anchor="start" x="648.22" y="-1252.59" font-family="Times,serif" font-size="14.00">/mnt/sitemaps:ro</text>
</g>
<!-- HS_OAI_LOGS -->
<g id="node14" class="node">
<title>HS_OAI_LOGS</title>
<polygon fill="none" stroke="turquoise" points="1187.22,-1384.79 1184.22,-1388.79 1163.22,-1388.79 1160.22,-1384.79 501.22,-1384.79 501.22,-1332.79 1187.22,-1332.79 1187.22,-1384.79"/>
<text text-anchor="start" x="513.22" y="-1366.59" font-family="Times,serif" font-weight="bold" font-size="14.00">host:</text>
<text text-anchor="start" x="652.22" y="-1365.59" font-family="Times,serif" font-size="14.00">$HOME/.local/share/docker/volumes/phaidra&#45;shib_chronos_oai_logs/_data</text>
<text text-anchor="start" x="513.22" y="-1344.59" font-family="Times,serif" font-size="14.00">chronos&#45;container:</text>
<text text-anchor="start" x="652.22" y="-1344.59" font-family="Times,serif" font-size="14.00">/mnt/oai&#45;logs</text>
</g>
<!-- BIND_MARIADB_PHAIDRA_INIT -->
<g id="node15" class="node">
<title>BIND_MARIADB_PHAIDRA_INIT</title>
<polygon fill="none" stroke="blue" points="1128.22,-703.79 1125.22,-707.79 1104.22,-707.79 1101.22,-703.79 560.22,-703.79 560.22,-651.79 1128.22,-651.79 1128.22,-703.79"/>
<text text-anchor="start" x="572.22" y="-685.59" font-family="Times,serif" font-weight="bold" font-size="14.00">host:</text>
<text text-anchor="start" x="774.22" y="-684.59" font-family="Times,serif" font-size="14.00">$REPO/container_init/mariadb/phaidradb.sql.gz</text>
<text text-anchor="start" x="572.22" y="-663.59" font-family="Times,serif" font-size="14.00">mariadb&#45;phaidra&#45;container:</text>
<text text-anchor="start" x="774.22" y="-663.59" font-family="Times,serif" font-size="14.00">/docker&#45;entrypoint&#45;initdb.d/phaidradb.sql.gz:ro</text>
</g>
<!-- BIND_MARIADB_PHAIDRA_INIT&#45;&#45;C_MARIADB_PHAIDRA -->
<g id="edge5" class="edge">
<title>BIND_MARIADB_PHAIDRA_INIT&#45;&#45;C_MARIADB_PHAIDRA</title>
<path fill="none" stroke="blue" d="M963.15,-703.81C1052.28,-715.9 1171,-714.5 1241.72,-642.79 1283.81,-600.11 1222.43,-419.06 1261.72,-373.79 1264.6,-370.48 1267.78,-367.52 1271.2,-364.87"/>
</g>
<!-- BIND_OPENLDAP_INIT -->
<g id="node16" class="node">
<title>BIND_OPENLDAP_INIT</title>
<polygon fill="none" stroke="blue" points="1042.22,-773.79 1039.22,-777.79 1018.22,-777.79 1015.22,-773.79 646.22,-773.79 646.22,-721.79 1042.22,-721.79 1042.22,-773.79"/>
<text text-anchor="start" x="658.22" y="-755.59" font-family="Times,serif" font-weight="bold" font-size="14.00">host:</text>
<text text-anchor="start" x="806.22" y="-754.59" font-family="Times,serif" font-size="14.00">$REPO/container_init/openldap</text>
<text text-anchor="start" x="658.22" y="-733.59" font-family="Times,serif" font-size="14.00">openldap&#45;container:</text>
<text text-anchor="start" x="806.22" y="-733.59" font-family="Times,serif" font-size="14.00">/ldifs:ro</text>
</g>
<!-- BIND_OPENLDAP_INIT&#45;&#45;C_OPENLDAP -->
<g id="edge11" class="edge">
<title>BIND_OPENLDAP_INIT&#45;&#45;C_OPENLDAP</title>
<path fill="none" stroke="blue" d="M964.74,-773.81C1053.53,-785.51 1171.05,-783.58 1241.72,-712.79 1278.13,-676.33 1227.71,-520.5 1261.72,-481.79 1269.84,-472.56 1280.31,-466.07 1291.72,-461.58"/>
</g>
<!-- BIND_HTTPD_CONFIG -->
<g id="node17" class="node">
<title>BIND_HTTPD_CONFIG</title>
<polygon fill="none" stroke="blue" points="1068.22,-843.79 1065.22,-847.79 1044.22,-847.79 1041.22,-843.79 620.22,-843.79 620.22,-791.79 1068.22,-791.79 1068.22,-843.79"/>
<text text-anchor="start" x="632.22" y="-825.59" font-family="Times,serif" font-weight="bold" font-size="14.00">host:</text>
<text text-anchor="start" x="754.22" y="-824.59" font-family="Times,serif" font-size="14.00">$REPO/webserver_configs/phaidra&#45;shib:ro</text>
<text text-anchor="start" x="632.22" y="-803.59" font-family="Times,serif" font-size="14.00">httpd&#45;container:</text>
<text text-anchor="start" x="754.22" y="-803.59" font-family="Times,serif" font-size="14.00">/mnt/startup:ro</text>
</g>
<!-- BIND_API_CODE -->
<g id="node18" class="node">
<title>BIND_API_CODE</title>
<polygon fill="none" stroke="blue" points="1023.72,-983.79 1020.72,-987.79 999.72,-987.79 996.72,-983.79 664.72,-983.79 664.72,-931.79 1023.72,-931.79 1023.72,-983.79"/>
<text text-anchor="start" x="677.22" y="-965.59" font-family="Times,serif" font-weight="bold" font-size="14.00">host:</text>
<text text-anchor="start" x="782.22" y="-964.59" font-family="Times,serif" font-size="14.00">$REPO/src/phaidra&#45;api</text>
<text text-anchor="start" x="677.22" y="-943.59" font-family="Times,serif" font-size="14.00">api&#45;container:</text>
<text text-anchor="start" x="782.22" y="-943.59" font-family="Times,serif" font-size="14.00">/usr/local/phaidra/phaidra&#45;api:ro</text>
</g>
<!-- BIND_API_CODE&#45;&#45;C_API -->
<g id="edge4" class="edge">
<title>BIND_API_CODE&#45;&#45;C_API</title>
<path fill="none" stroke="blue" d="M664.6,-967.02C564.39,-967.13 455.9,-956.86 436.72,-913.79 429.15,-896.79 429.15,-595.79 436.72,-578.79 492.79,-452.89 669.68,-417.5 771.02,-407.59"/>
</g>
<!-- BIND_DOCUMENTATION -->
<g id="node19" class="node">
<title>BIND_DOCUMENTATION</title>
<polygon fill="none" stroke="blue" points="962.22,-913.79 959.22,-917.79 938.22,-917.79 935.22,-913.79 726.22,-913.79 726.22,-861.79 962.22,-861.79 962.22,-913.79"/>
<text text-anchor="start" x="738.22" y="-895.59" font-family="Times,serif" font-weight="bold" font-size="14.00">host:</text>
<text text-anchor="start" x="860.22" y="-894.59" font-family="Times,serif" font-size="14.00">$REPO/docs</text>
<text text-anchor="start" x="738.22" y="-873.59" font-family="Times,serif" font-size="14.00">httpd&#45;container:</text>
<text text-anchor="start" x="860.22" y="-873.59" font-family="Times,serif" font-size="14.00">/mnt/docs:ro</text>
</g>
<!-- BIND_CHRONOS -->
<g id="node20" class="node">
<title>BIND_CHRONOS</title>
<polygon fill="none" stroke="blue" points="1033.22,-1053.79 1030.22,-1057.79 1009.22,-1057.79 1006.22,-1053.79 655.22,-1053.79 655.22,-1001.79 1033.22,-1001.79 1033.22,-1053.79"/>
<text text-anchor="start" x="667.22" y="-1035.59" font-family="Times,serif" font-weight="bold" font-size="14.00">host:</text>
<text text-anchor="start" x="806.22" y="-1034.59" font-family="Times,serif" font-size="14.00">$REPO/container_init/chronos</text>
<text text-anchor="start" x="667.22" y="-1013.59" font-family="Times,serif" font-size="14.00">chronos&#45;container:</text>
<text text-anchor="start" x="806.22" y="-1013.59" font-family="Times,serif" font-size="14.00">/mnt/chronos:ro</text>
</g>
<!-- BIND_MONGODB_INIT_OAI -->
<g id="node21" class="node">
<title>BIND_MONGODB_INIT_OAI</title>
<polygon fill="none" stroke="blue" points="1106.22,-1193.79 1103.22,-1197.79 1082.22,-1197.79 1079.22,-1193.79 582.22,-1193.79 582.22,-1141.79 1106.22,-1141.79 1106.22,-1193.79"/>
<text text-anchor="start" x="594.22" y="-1175.59" font-family="Times,serif" font-weight="bold" font-size="14.00">host:</text>
<text text-anchor="start" x="743.22" y="-1174.59" font-family="Times,serif" font-size="14.00">$REPO/container_init/mongodb/init_oai_sets.json</text>
<text text-anchor="start" x="594.22" y="-1153.59" font-family="Times,serif" font-size="14.00">mongodb&#45;container:</text>
<text text-anchor="start" x="743.22" y="-1153.59" font-family="Times,serif" font-size="14.00">/mnt/init_oai_sets.json:ro</text>
</g>
<!-- BIND_MONGODB_INIT_OAI&#45;&#45;C_MONGODB_PHAIDRA -->
<g id="edge9" class="edge">
<title>BIND_MONGODB_INIT_OAI&#45;&#45;C_MONGODB_PHAIDRA</title>
<path fill="none" stroke="blue" d="M958.12,-1193.84C1048.38,-1207.3 1171.12,-1207.74 1241.72,-1132.79 1295.46,-1075.75 1211.72,-488.13 1261.72,-427.79 1264.38,-424.58 1267.33,-421.7 1270.5,-419.11"/>
</g>
<!-- BIND_MONGODB_INIT -->
<g id="node22" class="node">
<title>BIND_MONGODB_INIT</title>
<polygon fill="none" stroke="blue" points="1128.72,-1123.79 1125.72,-1127.79 1104.72,-1127.79 1101.72,-1123.79 559.72,-1123.79 559.72,-1071.79 1128.72,-1071.79 1128.72,-1123.79"/>
<text text-anchor="start" x="572.22" y="-1105.59" font-family="Times,serif" font-weight="bold" font-size="14.00">host:</text>
<text text-anchor="start" x="721.22" y="-1104.59" font-family="Times,serif" font-size="14.00">$REPO/container_init/mongodb/mongodb&#45;after&#45;entry.sh</text>
<text text-anchor="start" x="572.22" y="-1083.59" font-family="Times,serif" font-size="14.00">mongodb&#45;container:</text>
<text text-anchor="start" x="721.22" y="-1083.59" font-family="Times,serif" font-size="14.00">/docker&#45;entrypoint&#45;initdb.d/mongodb&#45;after&#45;entry.sh:ro</text>
</g>
<!-- BIND_MONGODB_INIT&#45;&#45;C_MONGODB_PHAIDRA -->
<g id="edge8" class="edge">
<title>BIND_MONGODB_INIT&#45;&#45;C_MONGODB_PHAIDRA</title>
<path fill="none" stroke="blue" d="M958.51,-1123.85C1048.7,-1137.21 1171.12,-1137.5 1241.72,-1062.79 1290.21,-1011.49 1216.6,-482.08 1261.72,-427.79 1264.39,-424.59 1267.34,-421.71 1270.52,-419.12"/>
</g>
<!-- BIND_SOLR_INIT -->
<g id="node23" class="node">
<title>BIND_SOLR_INIT</title>
<polygon fill="none" stroke="blue" points="1052.72,-633.79 1049.72,-637.79 1028.72,-637.79 1025.72,-633.79 635.72,-633.79 635.72,-581.79 1052.72,-581.79 1052.72,-633.79"/>
<text text-anchor="start" x="648.22" y="-615.59" font-family="Times,serif" font-weight="bold" font-size="14.00">host:</text>
<text text-anchor="start" x="758.22" y="-614.59" font-family="Times,serif" font-size="14.00">$REPO/container_init/solr/phaidra_core</text>
<text text-anchor="start" x="648.22" y="-593.59" font-family="Times,serif" font-size="14.00">solr&#45;container:</text>
<text text-anchor="start" x="758.22" y="-593.59" font-family="Times,serif" font-size="14.00">/tmp/phaidra:ro</text>
</g>
<!-- C_FEDORA&#45;&#45;C_MARIADB_FEDORA -->
<g id="edge25" class="edge">
<title>C_FEDORA&#45;&#45;C_MARIADB_FEDORA</title>
<path fill="none" stroke="orange" d="M1471.23,-278.74C1497.45,-274.35 1526.74,-269.45 1554.36,-264.83"/>
</g>
<!-- C_API&#45;&#45;C_FEDORA -->
<g id="edge26" class="edge">
<title>C_API&#45;&#45;C_FEDORA</title>
<path fill="none" stroke="orange" d="M917.42,-420.68C1003.74,-436.4 1148.26,-447.94 1241.72,-376.79 1263.08,-360.53 1241.61,-337.58 1261.72,-319.79 1272.82,-309.98 1286.65,-303.46 1301,-299.18"/>
</g>
<!-- C_API&#45;&#45;C_MARIADB_PHAIDRA -->
<g id="edge27" class="edge">
<title>C_API&#45;&#45;C_MARIADB_PHAIDRA</title>
<path fill="none" stroke="orange" d="M917.52,-401.87C997.23,-399.05 1129.12,-392.32 1241.72,-376.79 1263.66,-373.77 1287.26,-369.33 1308.86,-364.8"/>
</g>
<!-- C_API&#45;&#45;C_MONGODB_PHAIDRA -->
<g id="edge28" class="edge">
<title>C_API&#45;&#45;C_MONGODB_PHAIDRA</title>
<path fill="none" stroke="orange" d="M917.49,-403.39C1005.43,-402.9 1155.33,-402.07 1261.71,-401.48"/>
</g>
<!-- C_UI -->
<g id="node28" class="node">
<title>C_UI</title>
<g id="a_node28"><a xlink:href="https://github.com/phaidra/phaidra-ui" xlink:title="phaidra&#45;shib&#45;ui&#45;1">
<polygon fill="none" stroke="green" points="1454.72,-182.79 1317.72,-182.79 1317.72,-178.79 1313.72,-178.79 1313.72,-174.79 1317.72,-174.79 1317.72,-154.79 1313.72,-154.79 1313.72,-150.79 1317.72,-150.79 1317.72,-146.79 1454.72,-146.79 1454.72,-182.79"/>
<polyline fill="none" stroke="green" points="1317.72,-178.79 1321.72,-178.79 1321.72,-174.79 1317.72,-174.79 "/>
<polyline fill="none" stroke="green" points="1317.72,-154.79 1321.72,-154.79 1321.72,-150.79 1317.72,-150.79 "/>
<text text-anchor="middle" x="1386.22" y="-161.09" font-family="Times,serif" font-size="14.00">phaidra&#45;shib&#45;ui&#45;1</text>
</a>
</g>
</g>
<!-- C_API&#45;&#45;C_UI -->
<g id="edge29" class="edge">
<title>C_API&#45;&#45;C_UI</title>
<path fill="none" stroke="orange" d="M917.4,-409.37C1018.95,-415.52 1196.67,-419.53 1241.72,-376.79 1295.31,-325.95 1216.2,-269.97 1261.72,-211.79 1275.5,-194.18 1296.7,-183.16 1317.67,-176.27"/>
</g>
<!-- C_API&#45;&#45;C_OPENLDAP -->
<g id="edge30" class="edge">
<title>C_API&#45;&#45;C_OPENLDAP</title>
<path fill="none" stroke="orange" d="M917.49,-410.62C1014.05,-419.74 1185.31,-435.91 1291.64,-445.95"/>
</g>
<!-- C_API&#45;&#45;C_SOLR -->
<g id="edge31" class="edge">
<title>C_API&#45;&#45;C_SOLR</title>
<path fill="none" stroke="orange" d="M917.5,-409.04C1018.72,-414.74 1195.52,-418.16 1241.72,-376.79 1279.07,-343.35 1226.94,-301.89 1261.72,-265.79 1274.59,-252.44 1292.42,-244.96 1310.53,-240.93"/>
</g>
<!-- C_API&#45;&#45;C_IMAGESERVER -->
<g id="edge32" class="edge">
<title>C_API&#45;&#45;C_IMAGESERVER</title>
<path fill="none" stroke="orange" d="M917.49,-417.84C1014.34,-436.68 1186.33,-470.12 1292.59,-490.78"/>
</g>
<!-- C_MONGODB_PHAIDRA&#45;&#45;C_PIXELGECKO -->
<g id="edge33" class="edge">
<title>C_MONGODB_PHAIDRA&#45;&#45;C_PIXELGECKO</title>
<path fill="none" stroke="orange" d="M1482.39,-418.8C1492.07,-421.46 1501.66,-424.45 1510.72,-427.79 1555.92,-444.45 1604.38,-472.33 1634.01,-490.64"/>
</g>
<!-- C_LAM -->
<g id="node34" class="node">
<title>C_LAM</title>
<polygon fill="none" stroke="green" points="1738.22,-199.79 1588.22,-199.79 1588.22,-195.79 1584.22,-195.79 1584.22,-191.79 1588.22,-191.79 1588.22,-171.79 1584.22,-171.79 1584.22,-167.79 1588.22,-167.79 1588.22,-163.79 1738.22,-163.79 1738.22,-199.79"/>
<polyline fill="none" stroke="green" points="1588.22,-195.79 1592.22,-195.79 1592.22,-191.79 1588.22,-191.79 "/>
<polyline fill="none" stroke="green" points="1588.22,-171.79 1592.22,-171.79 1592.22,-167.79 1588.22,-167.79 "/>
<text text-anchor="middle" x="1663.22" y="-178.09" font-family="Times,serif" font-size="14.00">phaidra&#45;shib&#45;lam&#45;1</text>
</g>
<!-- C_OPENLDAP&#45;&#45;C_LAM -->
<g id="edge34" class="edge">
<title>C_OPENLDAP&#45;&#45;C_LAM</title>
<path fill="none" stroke="orange" d="M1480.94,-447C1492.11,-442.62 1502.45,-436.43 1510.72,-427.79 1575.59,-360.01 1485.41,-290.81 1546.72,-219.79 1557.48,-207.33 1572.41,-198.93 1587.96,-193.28"/>
</g>
<!-- C_DBGATE&#45;&#45;C_MARIADB_PHAIDRA -->
<g id="edge35" class="edge">
<title>C_DBGATE&#45;&#45;C_MARIADB_PHAIDRA</title>
<path fill="none" stroke="orange" d="M930.79,-349.32C1020.97,-348.82 1163.74,-348.02 1265.17,-347.46"/>
</g>
<!-- C_DBGATE&#45;&#45;C_MONGODB_PHAIDRA -->
<g id="edge36" class="edge">
<title>C_DBGATE&#45;&#45;C_MONGODB_PHAIDRA</title>
<path fill="none" stroke="orange" d="M930.91,-353.21C1011.37,-356.99 1134.99,-364.26 1241.72,-376.79 1255.77,-378.44 1270.54,-380.52 1285.04,-382.75"/>
</g>
<!-- C_DBGATE&#45;&#45;C_MARIADB_FEDORA -->
<g id="edge37" class="edge">
<title>C_DBGATE&#45;&#45;C_MARIADB_FEDORA</title>
<path fill="none" stroke="orange" d="M885.22,-331.73C958.2,-299.87 1118.65,-234.88 1261.72,-211.79 1370.98,-194.16 1400.77,-199.26 1510.72,-211.79 1539.96,-215.13 1571.76,-221.97 1598.65,-228.72"/>
</g>
<!-- C_CHRONOS -->
<g id="node36" class="node">
<title>C_CHRONOS</title>
<polygon fill="none" stroke="green" points="426.72,-478.79 237.72,-478.79 237.72,-474.79 233.72,-474.79 233.72,-470.79 237.72,-470.79 237.72,-450.79 233.72,-450.79 233.72,-446.79 237.72,-446.79 237.72,-442.79 426.72,-442.79 426.72,-478.79"/>
<polyline fill="none" stroke="green" points="237.72,-474.79 241.72,-474.79 241.72,-470.79 237.72,-470.79 "/>
<polyline fill="none" stroke="green" points="237.72,-450.79 241.72,-450.79 241.72,-446.79 237.72,-446.79 "/>
<text text-anchor="middle" x="332.22" y="-457.09" font-family="Times,serif" font-size="14.00">phaidra&#45;demo&#45;chronos&#45;1</text>
</g>
<!-- C_CHRONOS&#45;&#45;HS_DATABASE_DUMPS -->
<g id="edge21" class="edge">
<title>C_CHRONOS&#45;&#45;HS_DATABASE_DUMPS</title>
<path fill="none" stroke="turquoise" d="M334.07,-478.81C340.1,-602.85 378.12,-1327.42 446.72,-1393.79 517.12,-1461.9 631.12,-1465.32 718.86,-1454.8"/>
</g>
<!-- C_CHRONOS&#45;&#45;HS_SITEMAPS -->
<g id="edge22" class="edge">
<title>C_CHRONOS&#45;&#45;HS_SITEMAPS</title>
<path fill="none" stroke="turquoise" d="M333.07,-478.9C332.57,-584.55 335.59,-1120.27 446.72,-1228.79 461.73,-1243.45 478.73,-1255.33 497.04,-1264.88"/>
</g>
<!-- C_CHRONOS&#45;&#45;HS_OAI_LOGS -->
<g id="edge23" class="edge">
<title>C_CHRONOS&#45;&#45;HS_OAI_LOGS</title>
<path fill="none" stroke="turquoise" d="M334.27,-478.96C341.28,-597.95 383.16,-1262.89 446.72,-1323.79 516.95,-1391.08 629.81,-1394.96 717.2,-1384.81"/>
</g>
<!-- C_CHRONOS&#45;&#45;BIND_CHRONOS -->
<g id="edge24" class="edge">
<title>C_CHRONOS&#45;&#45;BIND_CHRONOS</title>
<path fill="none" stroke="blue" d="M334.29,-478.93C339.71,-563.99 367.06,-922.31 446.72,-992.79 514.52,-1052.78 616.76,-1060.54 700.43,-1053.81"/>
</g>
<!-- C_CHRONOS&#45;&#45;C_API -->
<g id="edge48" class="edge">
<title>C_CHRONOS&#45;&#45;C_API</title>
<path fill="none" stroke="orange" d="M408.35,-442.74C421.1,-440.11 434.25,-437.66 446.72,-435.79 559.24,-418.94 691.15,-410.53 770.89,-406.67"/>
</g>
<!-- C_CHRONOS&#45;&#45;C_MARIADB_PHAIDRA -->
<g id="edge45" class="edge">
<title>C_CHRONOS&#45;&#45;C_MARIADB_PHAIDRA</title>
<path fill="none" stroke="orange" d="M426.97,-447.56C433.65,-446.88 440.28,-446.28 446.72,-445.79 468.75,-444.13 1223.82,-443.74 1241.72,-430.79 1263.48,-415.06 1241.61,-391.58 1261.72,-373.79 1265.5,-370.45 1269.6,-367.49 1273.93,-364.87"/>
</g>
<!-- C_CHRONOS&#45;&#45;C_MONGODB_PHAIDRA -->
<g id="edge44" class="edge">
<title>C_CHRONOS&#45;&#45;C_MONGODB_PHAIDRA</title>
<path fill="none" stroke="orange" d="M420.05,-478.82C586.38,-509.22 958.57,-557.14 1241.72,-445.79 1252.85,-441.42 1251.08,-433.25 1261.72,-427.79 1268.36,-424.39 1275.42,-421.41 1282.66,-418.81"/>
</g>
<!-- C_CHRONOS&#45;&#45;C_SOLR -->
<g id="edge47" class="edge">
<title>C_CHRONOS&#45;&#45;C_SOLR</title>
<path fill="none" stroke="orange" d="M359.83,-442.51C380.54,-427.08 408.69,-403.33 426.72,-376.79 441.11,-355.62 426.39,-338.34 446.72,-322.79 581.31,-219.9 1112.47,-228.52 1310.38,-235.56"/>
</g>
<!-- C_CHRONOS&#45;&#45;C_MARIADB_FEDORA -->
<g id="edge46" class="edge">
<title>C_CHRONOS&#45;&#45;C_MARIADB_FEDORA</title>
<path fill="none" stroke="orange" d="M362.83,-442.58C384.3,-427.69 412.05,-404.58 426.72,-376.79 458.12,-317.31 398.6,-273.78 446.72,-226.79 531.6,-143.91 1409.63,-75.71 1510.72,-137.79 1540.87,-156.31 1519.88,-185.74 1546.72,-208.79 1556.41,-217.11 1567.97,-223.62 1579.97,-228.72"/>
</g>
<!-- WEBSERVER&#45;&#45;HS_SITEMAPS -->
<g id="edge20" class="edge">
<title>WEBSERVER&#45;&#45;HS_SITEMAPS</title>
<path fill="none" stroke="turquoise" d="M364.15,-367.88C386.01,-382.57 413.66,-405.45 426.72,-433.79 445.22,-473.91 417.05,-1196.06 446.72,-1228.79 461.4,-1244.98 478.46,-1257.92 497.11,-1268.18"/>
</g>
<!-- WEBSERVER&#45;&#45;BIND_HTTPD_CONFIG -->
<g id="edge18" class="edge">
<title>WEBSERVER&#45;&#45;BIND_HTTPD_CONFIG</title>
<path fill="none" stroke="blue" d="M363.89,-368C385.61,-382.75 413.2,-405.67 426.72,-433.79 443.55,-468.8 419.68,-754.91 446.72,-782.79 517.44,-855.72 637.68,-856.44 727.25,-843.82"/>
</g>
<!-- WEBSERVER&#45;&#45;BIND_DOCUMENTATION -->
<g id="edge19" class="edge">
<title>WEBSERVER&#45;&#45;BIND_DOCUMENTATION</title>
<path fill="none" stroke="blue" d="M363.97,-367.97C385.73,-382.7 413.34,-405.6 426.72,-433.79 446.71,-475.9 414.44,-819.18 446.72,-852.79 517.45,-926.43 638.61,-926.73 728.43,-913.81"/>
</g>
<!-- WEBSERVER&#45;&#45;C_FEDORA -->
<g id="edge38" class="edge">
<title>WEBSERVER&#45;&#45;C_FEDORA</title>
<path fill="none" stroke="magenta" d="M399.12,-331.75C414.62,-328.16 431.16,-324.87 446.72,-322.79 759.59,-281.01 1136.06,-285.27 1300.95,-289.83"/>
</g>
<!-- WEBSERVER&#45;&#45;C_API -->
<g id="edge39" class="edge">
<title>WEBSERVER&#45;&#45;C_API</title>
<path fill="none" stroke="magenta" d="M400.98,-367.85C415.96,-371.29 431.8,-374.53 446.72,-376.79 559.27,-393.89 691.45,-400.17 771.2,-402.46"/>
</g>
<!-- WEBSERVER&#45;&#45;C_UI -->
<g id="edge40" class="edge">
<title>WEBSERVER&#45;&#45;C_UI</title>
<path fill="none" stroke="magenta" d="M341.67,-331.67C357.34,-300.45 394.16,-237.33 446.72,-210.79 741.25,-62.1 1156.18,-119.64 1317.43,-150.36"/>
</g>
<!-- WEBSERVER&#45;&#45;C_SOLR -->
<g id="edge41" class="edge">
<title>WEBSERVER&#45;&#45;C_SOLR</title>
<path fill="none" stroke="magenta" d="M355.99,-331.78C377.85,-315.65 412.52,-293 446.72,-282.79 756.39,-190.36 1148.86,-214.65 1310.49,-230.35"/>
</g>
<!-- WEBSERVER&#45;&#45;C_DBGATE -->
<g id="edge42" class="edge">
<title>WEBSERVER&#45;&#45;C_DBGATE</title>
<path fill="none" stroke="magenta" d="M413.75,-349.79C507.5,-349.79 661.7,-349.79 757.58,-349.79"/>
</g>
<!-- WEBSERVER&#45;&#45;C_LAM -->
<g id="edge43" class="edge">
<title>WEBSERVER&#45;&#45;C_LAM</title>
<path fill="none" stroke="magenta" d="M335.47,-331.6C342.29,-285.22 367.4,-162.76 446.72,-112.79 840.85,135.45 1457.16,-94.83 1621.05,-163.73"/>
</g>
</g>
</svg>
