<?xml version="1.0" encoding="UTF-8" standalone="no"?>
<!DOCTYPE svg PUBLIC "-//W3C//DTD SVG 1.1//EN"
 "http://www.w3.org/Graphics/SVG/1.1/DTD/svg11.dtd">
<!-- Generated by graphviz version 2.43.0 (0)
 -->
<!-- Title: G Pages: 1 -->
<svg width="2056pt" height="2066pt"
 viewBox="0.00 0.00 2055.72 2065.77" xmlns="http://www.w3.org/2000/svg" xmlns:xlink="http://www.w3.org/1999/xlink">
<g id="graph0" class="graph" transform="scale(1 1) rotate(0) translate(4 2061.77)">
<title>G</title>
<polygon fill="white" stroke="transparent" points="-4,4 -4,-2061.77 2051.72,-2061.77 2051.72,4 -4,4"/>
<g id="clust1" class="cluster">
<title>cluster_host</title>
<polygon fill="none" stroke="red" points="221.72,-10.77 221.72,-2049.77 2039.72,-2049.77 2039.72,-10.77 221.72,-10.77"/>
<text text-anchor="middle" x="1130.72" y="-2034.57" font-family="Times,serif" font-size="14.00">PHAIDRA server firewall</text>
</g>
<g id="clust2" class="cluster">
<title>cluster_host_storage</title>
<polygon fill="none" stroke="blue" points="487.72,-465.77 487.72,-2018.77 1349.72,-2018.77 1349.72,-465.77 487.72,-465.77"/>
<text text-anchor="middle" x="918.72" y="-2003.57" font-family="Times,serif" font-size="14.00">PHAIDRA server filesystem</text>
</g>
<g id="clust3" class="cluster">
<title>cluster_named_volumes</title>
<polygon fill="none" stroke="turquoise" points="495.72,-1272.77 495.72,-1987.77 1341.72,-1987.77 1341.72,-1272.77 495.72,-1272.77"/>
<text text-anchor="middle" x="918.72" y="-1972.57" font-family="Times,serif" font-size="14.00">Named volumes</text>
</g>
<g id="clust4" class="cluster">
<title>cluster_bind_mounts</title>
<polygon fill="none" stroke="blue" points="595.72,-473.77 595.72,-1264.77 1241.72,-1264.77 1241.72,-473.77 595.72,-473.77"/>
<text text-anchor="middle" x="918.72" y="-1249.57" font-family="Times,serif" font-size="14.00">Bind mounts</text>
</g>
<g id="clust5" class="cluster">
<title>cluster_docker_network_host</title>
<polygon fill="none" stroke="green" points="229.72,-18.77 229.72,-457.77 2031.72,-457.77 2031.72,-18.77 229.72,-18.77"/>
<text text-anchor="middle" x="1130.72" y="-442.57" font-family="Times,serif" font-size="14.00">PHAIDRA docker containers</text>
</g>
<!-- USER -->
<g id="node1" class="node">
<title>USER</title>
<polygon fill="none" stroke="black" points="193.59,-401.31 193.59,-416.22 139.27,-426.77 62.45,-426.77 8.13,-416.22 8.13,-401.31 62.45,-390.77 139.27,-390.77 193.59,-401.31"/>
<polygon fill="none" stroke="black" points="197.59,-398.01 197.59,-419.52 139.66,-430.77 62.07,-430.77 4.13,-419.52 4.13,-398.01 62.07,-386.77 139.66,-386.77 197.59,-398.01"/>
<polygon fill="none" stroke="black" points="201.58,-394.71 201.58,-422.82 140.04,-434.77 61.68,-434.77 0.14,-422.82 0.14,-394.71 61.68,-382.77 140.04,-382.77 201.58,-394.71"/>
<text text-anchor="middle" x="100.86" y="-405.07" font-family="Times,serif" font-size="14.00">PHAIDRA USER</text>
</g>
<!-- WEBSERVER -->
<g id="node34" class="node">
<title>WEBSERVER</title>
<polygon fill="none" stroke="green" points="467.72,-426.77 237.72,-426.77 237.72,-422.77 233.72,-422.77 233.72,-418.77 237.72,-418.77 237.72,-398.77 233.72,-398.77 233.72,-394.77 237.72,-394.77 237.72,-390.77 467.72,-390.77 467.72,-426.77"/>
<polyline fill="none" stroke="green" points="237.72,-422.77 241.72,-422.77 241.72,-418.77 237.72,-418.77 "/>
<polyline fill="none" stroke="green" points="237.72,-398.77 241.72,-398.77 241.72,-394.77 237.72,-394.77 "/>
<text text-anchor="middle" x="352.72" y="-405.07" font-family="Times,serif" font-size="14.00">phaidra&#45;ssl&#45;shib&#45;httpd&#45;httpd&#45;1</text>
</g>
<!-- USER&#45;&#45;WEBSERVER -->
<g id="edge43" class="edge">
<title>USER&#45;&#45;WEBSERVER</title>
<path fill="none" stroke="red" d="M201.69,-408.77C213.52,-408.77 225.65,-408.77 237.66,-408.77"/>
</g>
<!-- HS_FEDORA -->
<g id="node2" class="node">
<title>HS_FEDORA</title>
<polygon fill="none" stroke="turquoise" points="1268.72,-1724.77 1265.72,-1728.77 1244.72,-1728.77 1241.72,-1724.77 568.72,-1724.77 568.72,-1630.77 1268.72,-1630.77 1268.72,-1724.77"/>
<text text-anchor="start" x="580.72" y="-1706.57" font-family="Times,serif" font-weight="bold" font-size="14.00">host:</text>
<text text-anchor="start" x="739.72" y="-1705.57" font-family="Times,serif" font-size="14.00">$HOME/.local/share/docker/volumes/phaidra&#45;ssl&#45;shib&#45;httpd_fedora/_data</text>
<text text-anchor="start" x="580.72" y="-1684.57" font-family="Times,serif" font-size="14.00">fedora&#45;container:</text>
<text text-anchor="start" x="739.72" y="-1684.57" font-family="Times,serif" font-size="14.00">/usr/local/tomcat/fcrepo&#45;home</text>
<text text-anchor="start" x="580.72" y="-1663.57" font-family="Times,serif" font-size="14.00">pixelgecko&#45;container:</text>
<text text-anchor="start" x="739.72" y="-1663.57" font-family="Times,serif" font-size="14.00"> /mnt/fedora:ro</text>
<text text-anchor="start" x="580.72" y="-1642.57" font-family="Times,serif" font-size="14.00">api&#45;container:</text>
<text text-anchor="start" x="739.72" y="-1642.57" font-family="Times,serif" font-size="14.00"> /mnt/fedora:ro</text>
</g>
<!-- C_FEDORA -->
<g id="node22" class="node">
<title>C_FEDORA</title>
<g id="a_node22"><a xlink:href="https://fedora.lyrasis.org/" xlink:title="phaidra&#45;ssl&#45;shib&#45;httpd&#45;fedora&#45;1">
<polygon fill="none" stroke="green" points="1646.72,-372.77 1409.72,-372.77 1409.72,-368.77 1405.72,-368.77 1405.72,-364.77 1409.72,-364.77 1409.72,-344.77 1405.72,-344.77 1405.72,-340.77 1409.72,-340.77 1409.72,-336.77 1646.72,-336.77 1646.72,-372.77"/>
<polyline fill="none" stroke="green" points="1409.72,-368.77 1413.72,-368.77 1413.72,-364.77 1409.72,-364.77 "/>
<polyline fill="none" stroke="green" points="1409.72,-344.77 1413.72,-344.77 1413.72,-340.77 1409.72,-340.77 "/>
<text text-anchor="middle" x="1528.22" y="-351.07" font-family="Times,serif" font-size="14.00">phaidra&#45;ssl&#45;shib&#45;httpd&#45;fedora&#45;1</text>
</a>
</g>
</g>
<!-- HS_FEDORA&#45;&#45;C_FEDORA -->
<g id="edge1" class="edge">
<title>HS_FEDORA&#45;&#45;C_FEDORA</title>
<path fill="none" stroke="turquoise" d="M1268.81,-1677.75C1299.4,-1665.06 1327.23,-1646.97 1349.72,-1621.77 1395.6,-1570.37 1324.89,-434.08 1369.72,-381.77 1380.28,-369.45 1394.24,-361.35 1409.49,-356.18"/>
</g>
<!-- C_API -->
<g id="node23" class="node">
<title>C_API</title>
<g id="a_node23"><a xlink:href="https://github.com/phaidra/phaidra-api" xlink:title="phaidra&#45;ssl&#45;shib&#45;httpd&#45;api&#45;1">
<polygon fill="none" stroke="green" points="1025.22,-372.77 812.22,-372.77 812.22,-368.77 808.22,-368.77 808.22,-364.77 812.22,-364.77 812.22,-344.77 808.22,-344.77 808.22,-340.77 812.22,-340.77 812.22,-336.77 1025.22,-336.77 1025.22,-372.77"/>
<polyline fill="none" stroke="green" points="812.22,-368.77 816.22,-368.77 816.22,-364.77 812.22,-364.77 "/>
<polyline fill="none" stroke="green" points="812.22,-344.77 816.22,-344.77 816.22,-340.77 812.22,-340.77 "/>
<text text-anchor="middle" x="918.72" y="-351.07" font-family="Times,serif" font-size="14.00">phaidra&#45;ssl&#45;shib&#45;httpd&#45;api&#45;1</text>
</a>
</g>
</g>
<!-- HS_FEDORA&#45;&#45;C_API -->
<g id="edge3" class="edge">
<title>HS_FEDORA&#45;&#45;C_API</title>
<path fill="none" stroke="turquoise" d="M568.66,-1695.05C528.89,-1679.75 496.06,-1653.95 477.72,-1612.77 464.91,-1583.99 464.91,-507.54 477.72,-478.77 531.23,-358.62 699.64,-341.96 812.17,-345.21"/>
</g>
<!-- C_PIXELGECKO -->
<g id="node30" class="node">
<title>C_PIXELGECKO</title>
<polygon fill="none" stroke="green" points="2006.72,-426.77 1739.72,-426.77 1739.72,-422.77 1735.72,-422.77 1735.72,-418.77 1739.72,-418.77 1739.72,-398.77 1735.72,-398.77 1735.72,-394.77 1739.72,-394.77 1739.72,-390.77 2006.72,-390.77 2006.72,-426.77"/>
<polyline fill="none" stroke="green" points="1739.72,-422.77 1743.72,-422.77 1743.72,-418.77 1739.72,-418.77 "/>
<polyline fill="none" stroke="green" points="1739.72,-398.77 1743.72,-398.77 1743.72,-394.77 1739.72,-394.77 "/>
<text text-anchor="middle" x="1873.22" y="-405.07" font-family="Times,serif" font-size="14.00">phaidra&#45;ssl&#45;shib&#45;httpd&#45;pixelgecko&#45;1</text>
</g>
<!-- HS_FEDORA&#45;&#45;C_PIXELGECKO -->
<g id="edge12" class="edge">
<title>HS_FEDORA&#45;&#45;C_PIXELGECKO</title>
<path fill="none" stroke="turquoise" d="M1268.85,-1664.69C1297.83,-1654.19 1325.32,-1640.2 1349.72,-1621.77 1565.64,-1458.72 1827.51,-565.42 1867.11,-426.84"/>
</g>
<!-- HS_API_LOGS -->
<g id="node3" class="node">
<title>HS_API_LOGS</title>
<polygon fill="none" stroke="turquoise" points="1247.72,-1886.77 1244.72,-1890.77 1223.72,-1890.77 1220.72,-1886.77 589.72,-1886.77 589.72,-1834.77 1247.72,-1834.77 1247.72,-1886.77"/>
<text text-anchor="start" x="601.72" y="-1868.57" font-family="Times,serif" font-weight="bold" font-size="14.00">host:</text>
<text text-anchor="start" x="706.72" y="-1867.57" font-family="Times,serif" font-size="14.00">$HOME/.local/share/docker/volumes/phaidra&#45;ssl&#45;shib&#45;httpd_api_logs/_data</text>
<text text-anchor="start" x="601.72" y="-1846.57" font-family="Times,serif" font-size="14.00">api&#45;container:</text>
<text text-anchor="start" x="706.72" y="-1846.57" font-family="Times,serif" font-size="14.00">/var/log/phaidra</text>
</g>
<!-- HS_API_LOGS&#45;&#45;C_API -->
<g id="edge2" class="edge">
<title>HS_API_LOGS&#45;&#45;C_API</title>
<path fill="none" stroke="turquoise" d="M589.71,-1865.82C533.75,-1858.35 489.68,-1843.61 477.72,-1816.77 470.16,-1799.79 470.16,-495.74 477.72,-478.77 531.23,-358.62 699.64,-341.96 812.17,-345.21"/>
</g>
<!-- HS_MARIADB_PHAIDRA -->
<g id="node4" class="node">
<title>HS_MARIADB_PHAIDRA</title>
<polygon fill="none" stroke="turquoise" points="1327.72,-1612.77 1324.72,-1616.77 1303.72,-1616.77 1300.72,-1612.77 509.72,-1612.77 509.72,-1560.77 1327.72,-1560.77 1327.72,-1612.77"/>
<text text-anchor="start" x="521.72" y="-1594.57" font-family="Times,serif" font-weight="bold" font-size="14.00">host:</text>
<text text-anchor="start" x="723.72" y="-1593.57" font-family="Times,serif" font-size="14.00">$HOME/.local/share/docker/volumes/phaidra&#45;ssl&#45;shib&#45;httpd_mariadb_phaidra/_data</text>
<text text-anchor="start" x="521.72" y="-1572.57" font-family="Times,serif" font-size="14.00">mariadb&#45;phaidra&#45;container:</text>
<text text-anchor="start" x="723.72" y="-1572.57" font-family="Times,serif" font-size="14.00">/var/lib/mysql</text>
</g>
<!-- C_MARIADB_PHAIDRA -->
<g id="node24" class="node">
<title>C_MARIADB_PHAIDRA</title>
<g id="a_node24"><a xlink:href="https://mariadb.org/" xlink:title="phaidra&#45;ssl&#45;shib&#45;httpd&#45;mariadb&#45;phaidra&#45;1">
<polygon fill="none" stroke="green" points="1683.22,-264.77 1373.22,-264.77 1373.22,-260.77 1369.22,-260.77 1369.22,-256.77 1373.22,-256.77 1373.22,-236.77 1369.22,-236.77 1369.22,-232.77 1373.22,-232.77 1373.22,-228.77 1683.22,-228.77 1683.22,-264.77"/>
<polyline fill="none" stroke="green" points="1373.22,-260.77 1377.22,-260.77 1377.22,-256.77 1373.22,-256.77 "/>
<polyline fill="none" stroke="green" points="1373.22,-236.77 1377.22,-236.77 1377.22,-232.77 1373.22,-232.77 "/>
<text text-anchor="middle" x="1528.22" y="-243.07" font-family="Times,serif" font-size="14.00">phaidra&#45;ssl&#45;shib&#45;httpd&#45;mariadb&#45;phaidra&#45;1</text>
</a>
</g>
</g>
<!-- HS_MARIADB_PHAIDRA&#45;&#45;C_MARIADB_PHAIDRA -->
<g id="edge6" class="edge">
<title>HS_MARIADB_PHAIDRA&#45;&#45;C_MARIADB_PHAIDRA</title>
<path fill="none" stroke="turquoise" d="M1327.93,-1566.95C1336.96,-1562.54 1344.35,-1557.51 1349.72,-1551.77 1398.26,-1499.94 1323.53,-327.7 1369.72,-273.77 1372.52,-270.5 1375.56,-267.53 1378.79,-264.84"/>
</g>
<!-- HS_MONGODB_PHAIDRA -->
<g id="node5" class="node">
<title>HS_MONGODB_PHAIDRA</title>
<polygon fill="none" stroke="turquoise" points="1333.72,-1472.77 1330.72,-1476.77 1309.72,-1476.77 1306.72,-1472.77 503.72,-1472.77 503.72,-1420.77 1333.72,-1420.77 1333.72,-1472.77"/>
<text text-anchor="start" x="515.72" y="-1454.57" font-family="Times,serif" font-weight="bold" font-size="14.00">host:</text>
<text text-anchor="start" x="723.72" y="-1453.57" font-family="Times,serif" font-size="14.00">$HOME/.local/share/docker/volumes/phaidra&#45;ssl&#45;shib&#45;httpd_mongodb_phaidra/_data</text>
<text text-anchor="start" x="515.72" y="-1432.57" font-family="Times,serif" font-size="14.00">phaidra&#45;mongodb&#45;container:</text>
<text text-anchor="start" x="723.72" y="-1432.57" font-family="Times,serif" font-size="14.00">/data/db</text>
</g>
<!-- C_MONGODB_PHAIDRA -->
<g id="node25" class="node">
<title>C_MONGODB_PHAIDRA</title>
<g id="a_node25"><a xlink:href="https://www.mongodb.com/" xlink:title="phaidra&#45;ssl&#45;shib&#45;httpd&#45;mongodb&#45;phaidra&#45;1">
<polygon fill="none" stroke="green" points="1686.72,-156.77 1369.72,-156.77 1369.72,-152.77 1365.72,-152.77 1365.72,-148.77 1369.72,-148.77 1369.72,-128.77 1365.72,-128.77 1365.72,-124.77 1369.72,-124.77 1369.72,-120.77 1686.72,-120.77 1686.72,-156.77"/>
<polyline fill="none" stroke="green" points="1369.72,-152.77 1373.72,-152.77 1373.72,-148.77 1369.72,-148.77 "/>
<polyline fill="none" stroke="green" points="1369.72,-128.77 1373.72,-128.77 1373.72,-124.77 1369.72,-124.77 "/>
<text text-anchor="middle" x="1528.22" y="-135.07" font-family="Times,serif" font-size="14.00">phaidra&#45;ssl&#45;shib&#45;httpd&#45;mongodb&#45;phaidra&#45;1</text>
</a>
</g>
</g>
<!-- HS_MONGODB_PHAIDRA&#45;&#45;C_MONGODB_PHAIDRA -->
<g id="edge7" class="edge">
<title>HS_MONGODB_PHAIDRA&#45;&#45;C_MONGODB_PHAIDRA</title>
<path fill="none" stroke="turquoise" d="M1333.8,-1423.86C1340.2,-1420.23 1345.56,-1416.21 1349.72,-1411.77 1397.06,-1361.25 1324.67,-218.34 1369.72,-165.77 1372.52,-162.5 1375.56,-159.54 1378.79,-156.84"/>
</g>
<!-- HS_OPENLDAP -->
<g id="node6" class="node">
<title>HS_OPENLDAP</title>
<polygon fill="none" stroke="turquoise" points="1272.72,-1332.77 1269.72,-1336.77 1248.72,-1336.77 1245.72,-1332.77 564.72,-1332.77 564.72,-1280.77 1272.72,-1280.77 1272.72,-1332.77"/>
<text text-anchor="start" x="576.72" y="-1314.57" font-family="Times,serif" font-weight="bold" font-size="14.00">host:</text>
<text text-anchor="start" x="724.72" y="-1313.57" font-family="Times,serif" font-size="14.00">$HOME/.local/share/docker/volumes/phaidra&#45;ssl&#45;shib&#45;httpd_openldap/_data</text>
<text text-anchor="start" x="576.72" y="-1292.57" font-family="Times,serif" font-size="14.00">openldap&#45;container:</text>
<text text-anchor="start" x="724.72" y="-1292.57" font-family="Times,serif" font-size="14.00">/bitnami/openldap</text>
</g>
<!-- C_OPENLDAP -->
<g id="node27" class="node">
<title>C_OPENLDAP</title>
<g id="a_node27"><a xlink:href="https://www.openldap.org/" xlink:title="phaidra&#45;ssl&#45;shib&#45;httpd&#45;openldap&#45;1">
<polygon fill="none" stroke="green" points="1656.72,-318.77 1399.72,-318.77 1399.72,-314.77 1395.72,-314.77 1395.72,-310.77 1399.72,-310.77 1399.72,-290.77 1395.72,-290.77 1395.72,-286.77 1399.72,-286.77 1399.72,-282.77 1656.72,-282.77 1656.72,-318.77"/>
<polyline fill="none" stroke="green" points="1399.72,-314.77 1403.72,-314.77 1403.72,-310.77 1399.72,-310.77 "/>
<polyline fill="none" stroke="green" points="1399.72,-290.77 1403.72,-290.77 1403.72,-286.77 1399.72,-286.77 "/>
<text text-anchor="middle" x="1528.22" y="-297.07" font-family="Times,serif" font-size="14.00">phaidra&#45;ssl&#45;shib&#45;httpd&#45;openldap&#45;1</text>
</a>
</g>
</g>
<!-- HS_OPENLDAP&#45;&#45;C_OPENLDAP -->
<g id="edge8" class="edge">
<title>HS_OPENLDAP&#45;&#45;C_OPENLDAP</title>
<path fill="none" stroke="turquoise" d="M1273.15,-1301.02C1308.02,-1294.07 1335.71,-1283.75 1349.72,-1268.77 1385.44,-1230.58 1335.59,-367.38 1369.72,-327.77 1377.96,-318.21 1388.25,-311.19 1399.59,-306.12"/>
</g>
<!-- HS_SOLR -->
<g id="node7" class="node">
<title>HS_SOLR</title>
<polygon fill="none" stroke="turquoise" points="1234.72,-1542.77 1231.72,-1546.77 1210.72,-1546.77 1207.72,-1542.77 602.72,-1542.77 602.72,-1490.77 1234.72,-1490.77 1234.72,-1542.77"/>
<text text-anchor="start" x="614.72" y="-1524.57" font-family="Times,serif" font-weight="bold" font-size="14.00">host:</text>
<text text-anchor="start" x="724.72" y="-1523.57" font-family="Times,serif" font-size="14.00">$HOME/.local/share/docker/volumes/phaidra&#45;ssl&#45;shib&#45;httpd_solr/_data</text>
<text text-anchor="start" x="614.72" y="-1502.57" font-family="Times,serif" font-size="14.00">solr&#45;container:</text>
<text text-anchor="start" x="724.72" y="-1502.57" font-family="Times,serif" font-size="14.00">/var/solr</text>
</g>
<!-- C_SOLR -->
<g id="node28" class="node">
<title>C_SOLR</title>
<g id="a_node28"><a xlink:href="https://solr.apache.org/" xlink:title="phaidra&#45;ssl&#45;shib&#45;httpd&#45;solr&#45;1">
<polygon fill="none" stroke="green" points="1637.22,-210.77 1419.22,-210.77 1419.22,-206.77 1415.22,-206.77 1415.22,-202.77 1419.22,-202.77 1419.22,-182.77 1415.22,-182.77 1415.22,-178.77 1419.22,-178.77 1419.22,-174.77 1637.22,-174.77 1637.22,-210.77"/>
<polyline fill="none" stroke="green" points="1419.22,-206.77 1423.22,-206.77 1423.22,-202.77 1419.22,-202.77 "/>
<polyline fill="none" stroke="green" points="1419.22,-182.77 1423.22,-182.77 1423.22,-178.77 1419.22,-178.77 "/>
<text text-anchor="middle" x="1528.22" y="-189.07" font-family="Times,serif" font-size="14.00">phaidra&#45;ssl&#45;shib&#45;httpd&#45;solr&#45;1</text>
</a>
</g>
</g>
<!-- HS_SOLR&#45;&#45;C_SOLR -->
<g id="edge10" class="edge">
<title>HS_SOLR&#45;&#45;C_SOLR</title>
<path fill="none" stroke="turquoise" d="M1234.78,-1519.43C1287.3,-1513.34 1330.87,-1501.89 1349.72,-1481.77 1397.66,-1430.59 1324.1,-273.02 1369.72,-219.77 1382.45,-204.92 1400.11,-196.2 1419.02,-191.36"/>
</g>
<!-- HS_PIXELGECKO -->
<g id="node8" class="node">
<title>HS_PIXELGECKO</title>
<polygon fill="none" stroke="turquoise" points="1290.22,-1816.27 1287.22,-1820.27 1266.22,-1820.27 1263.22,-1816.27 547.22,-1816.27 547.22,-1743.27 1290.22,-1743.27 1290.22,-1816.27"/>
<text text-anchor="start" x="559.72" y="-1797.57" font-family="Times,serif" font-weight="bold" font-size="14.00">host:</text>
<text text-anchor="start" x="731.72" y="-1796.57" font-family="Times,serif" font-size="14.00">$HOME/.local/share/docker/volumes/phaidra&#45;ssl&#45;shib&#45;httpd_pixelgecko/_data</text>
<text text-anchor="start" x="559.72" y="-1775.57" font-family="Times,serif" font-size="14.00">pixelgecko&#45;container:</text>
<text text-anchor="start" x="731.72" y="-1775.57" font-family="Times,serif" font-size="14.00">/mnt/converted_images</text>
<text text-anchor="start" x="559.72" y="-1754.57" font-family="Times,serif" font-size="14.00">imageserver&#45;container:</text>
<text text-anchor="start" x="731.72" y="-1754.57" font-family="Times,serif" font-size="14.00">/mnt/converted_images:ro</text>
</g>
<!-- C_IMAGESERVER -->
<g id="node29" class="node">
<title>C_IMAGESERVER</title>
<g id="a_node29"><a xlink:href="https://github.com/ruven/iipsrv" xlink:title="phaidra&#45;ssl&#45;shib&#45;httpd&#45;imageserver&#45;1">
<polygon fill="none" stroke="green" points="1668.72,-426.77 1387.72,-426.77 1387.72,-422.77 1383.72,-422.77 1383.72,-418.77 1387.72,-418.77 1387.72,-398.77 1383.72,-398.77 1383.72,-394.77 1387.72,-394.77 1387.72,-390.77 1668.72,-390.77 1668.72,-426.77"/>
<polyline fill="none" stroke="green" points="1387.72,-422.77 1391.72,-422.77 1391.72,-418.77 1387.72,-418.77 "/>
<polyline fill="none" stroke="green" points="1387.72,-398.77 1391.72,-398.77 1391.72,-394.77 1387.72,-394.77 "/>
<text text-anchor="middle" x="1528.22" y="-405.07" font-family="Times,serif" font-size="14.00">phaidra&#45;ssl&#45;shib&#45;httpd&#45;imageserver&#45;1</text>
</a>
</g>
</g>
<!-- HS_PIXELGECKO&#45;&#45;C_IMAGESERVER -->
<g id="edge11" class="edge">
<title>HS_PIXELGECKO&#45;&#45;C_IMAGESERVER</title>
<path fill="none" stroke="turquoise" d="M1290.64,-1776.86C1312.43,-1765.93 1332.46,-1751.8 1349.72,-1733.77 1374.2,-1708.19 1365.87,-1450.96 1369.72,-1415.77 1413.75,-1013.39 1504.85,-526.08 1523.74,-426.89"/>
</g>
<!-- HS_PIXELGECKO&#45;&#45;C_PIXELGECKO -->
<g id="edge13" class="edge">
<title>HS_PIXELGECKO&#45;&#45;C_PIXELGECKO</title>
<path fill="none" stroke="turquoise" d="M1290.45,-1760.28C1311.06,-1753.04 1330.99,-1744.3 1349.72,-1733.77 1564.47,-1613.12 1584.01,-1517.66 1686.72,-1293.77 1835.8,-968.8 1866.44,-521.59 1871.39,-426.85"/>
</g>
<!-- HS_DBGATE -->
<g id="node9" class="node">
<title>HS_DBGATE</title>
<polygon fill="none" stroke="turquoise" points="1257.22,-1402.77 1254.22,-1406.77 1233.22,-1406.77 1230.22,-1402.77 580.22,-1402.77 580.22,-1350.77 1257.22,-1350.77 1257.22,-1402.77"/>
<text text-anchor="start" x="592.72" y="-1384.57" font-family="Times,serif" font-weight="bold" font-size="14.00">host:</text>
<text text-anchor="start" x="725.72" y="-1383.57" font-family="Times,serif" font-size="14.00">$HOME/.local/share/docker/volumes/phaidra&#45;ssl&#45;shib&#45;httpd_dbgate/_data</text>
<text text-anchor="start" x="592.72" y="-1362.57" font-family="Times,serif" font-size="14.00">dbgate&#45;container:</text>
<text text-anchor="start" x="725.72" y="-1362.57" font-family="Times,serif" font-size="14.00">/root/.dbgate</text>
</g>
<!-- C_DBGATE -->
<g id="node31" class="node">
<title>C_DBGATE</title>
<polygon fill="none" stroke="green" points="1039.22,-264.77 798.22,-264.77 798.22,-260.77 794.22,-260.77 794.22,-256.77 798.22,-256.77 798.22,-236.77 794.22,-236.77 794.22,-232.77 798.22,-232.77 798.22,-228.77 1039.22,-228.77 1039.22,-264.77"/>
<polyline fill="none" stroke="green" points="798.22,-260.77 802.22,-260.77 802.22,-256.77 798.22,-256.77 "/>
<polyline fill="none" stroke="green" points="798.22,-236.77 802.22,-236.77 802.22,-232.77 798.22,-232.77 "/>
<text text-anchor="middle" x="918.72" y="-243.07" font-family="Times,serif" font-size="14.00">phaidra&#45;ssl&#45;shib&#45;httpd&#45;dbgate&#45;1</text>
</g>
<!-- HS_DBGATE&#45;&#45;C_DBGATE -->
<g id="edge14" class="edge">
<title>HS_DBGATE&#45;&#45;C_DBGATE</title>
<path fill="none" stroke="turquoise" d="M580.22,-1380.47C528.81,-1372.62 488.99,-1358.07 477.72,-1332.77 466.47,-1307.5 466.47,-362.04 477.72,-336.77 531.01,-217.12 703.59,-215.57 816.39,-228.76"/>
</g>
<!-- HS_MARIADB_FEDORA -->
<g id="node10" class="node">
<title>HS_MARIADB_FEDORA</title>
<polygon fill="none" stroke="turquoise" points="1318.72,-1956.77 1315.72,-1960.77 1294.72,-1960.77 1291.72,-1956.77 518.72,-1956.77 518.72,-1904.77 1318.72,-1904.77 1318.72,-1956.77"/>
<text text-anchor="start" x="530.72" y="-1938.57" font-family="Times,serif" font-weight="bold" font-size="14.00">host:</text>
<text text-anchor="start" x="723.72" y="-1937.57" font-family="Times,serif" font-size="14.00">$HOME/.local/share/docker/volumes/phaidra&#45;ssl&#45;shib&#45;httpd_mariadb_fedora/_data</text>
<text text-anchor="start" x="530.72" y="-1916.57" font-family="Times,serif" font-size="14.00">mariadb&#45;fedora&#45;container:</text>
<text text-anchor="start" x="723.72" y="-1916.57" font-family="Times,serif" font-size="14.00">/var/lib/mysql</text>
</g>
<!-- C_MARIADB_FEDORA -->
<g id="node33" class="node">
<title>C_MARIADB_FEDORA</title>
<g id="a_node33"><a xlink:href="https://mariadb.org/" xlink:title="phaidra&#45;ssl&#45;shib&#45;httpd&#45;mariadb&#45;fedora&#45;1">
<polygon fill="none" stroke="green" points="2023.72,-372.77 1722.72,-372.77 1722.72,-368.77 1718.72,-368.77 1718.72,-364.77 1722.72,-364.77 1722.72,-344.77 1718.72,-344.77 1718.72,-340.77 1722.72,-340.77 1722.72,-336.77 2023.72,-336.77 2023.72,-372.77"/>
<polyline fill="none" stroke="green" points="1722.72,-368.77 1726.72,-368.77 1726.72,-364.77 1722.72,-364.77 "/>
<polyline fill="none" stroke="green" points="1722.72,-344.77 1726.72,-344.77 1726.72,-340.77 1722.72,-340.77 "/>
<text text-anchor="middle" x="1873.22" y="-351.07" font-family="Times,serif" font-size="14.00">phaidra&#45;ssl&#45;shib&#45;httpd&#45;mariadb&#45;fedora&#45;1</text>
</a>
</g>
</g>
<!-- HS_MARIADB_FEDORA&#45;&#45;C_MARIADB_FEDORA -->
<g id="edge15" class="edge">
<title>HS_MARIADB_FEDORA&#45;&#45;C_MARIADB_FEDORA</title>
<path fill="none" stroke="turquoise" d="M1048.44,-1956.8C1142.68,-1968 1267.88,-1965.44 1349.72,-1895.77 1481.65,-1783.47 1596.42,-500.37 1722.72,-381.77 1726.18,-378.52 1729.9,-375.59 1733.81,-372.96"/>
</g>
<!-- BIND_MARIADB_PHAIDRA_INIT -->
<g id="node11" class="node">
<title>BIND_MARIADB_PHAIDRA_INIT</title>
<polygon fill="none" stroke="blue" points="1233.72,-1163.77 1230.72,-1167.77 1209.72,-1167.77 1206.72,-1163.77 603.72,-1163.77 603.72,-1111.77 1233.72,-1111.77 1233.72,-1163.77"/>
<text text-anchor="start" x="615.72" y="-1145.57" font-family="Times,serif" font-weight="bold" font-size="14.00">host:</text>
<text text-anchor="start" x="817.72" y="-1144.57" font-family="Times,serif" font-size="14.00">$REPO/container_components/mariadb/phaidradb.sql.gz</text>
<text text-anchor="start" x="615.72" y="-1123.57" font-family="Times,serif" font-size="14.00">mariadb&#45;phaidra&#45;container:</text>
<text text-anchor="start" x="817.72" y="-1123.57" font-family="Times,serif" font-size="14.00">/docker&#45;entrypoint&#45;initdb.d/phaidradb.sql.gz:ro</text>
</g>
<!-- BIND_MARIADB_PHAIDRA_INIT&#45;&#45;C_MARIADB_PHAIDRA -->
<g id="edge5" class="edge">
<title>BIND_MARIADB_PHAIDRA_INIT&#45;&#45;C_MARIADB_PHAIDRA</title>
<path fill="none" stroke="blue" d="M1233.85,-1140.4C1286.74,-1134.34 1330.69,-1122.92 1349.72,-1102.77 1381.35,-1069.28 1339.6,-308.63 1369.72,-273.77 1372.53,-270.52 1375.58,-267.56 1378.83,-264.87"/>
</g>
<!-- BIND_OPENLDAP_INIT -->
<g id="node12" class="node">
<title>BIND_OPENLDAP_INIT</title>
<polygon fill="none" stroke="blue" points="1147.72,-1233.77 1144.72,-1237.77 1123.72,-1237.77 1120.72,-1233.77 689.72,-1233.77 689.72,-1181.77 1147.72,-1181.77 1147.72,-1233.77"/>
<text text-anchor="start" x="701.72" y="-1215.57" font-family="Times,serif" font-weight="bold" font-size="14.00">host:</text>
<text text-anchor="start" x="849.72" y="-1214.57" font-family="Times,serif" font-size="14.00">$REPO/container_components/openldap</text>
<text text-anchor="start" x="701.72" y="-1193.57" font-family="Times,serif" font-size="14.00">openldap&#45;container:</text>
<text text-anchor="start" x="849.72" y="-1193.57" font-family="Times,serif" font-size="14.00">/ldifs:ro</text>
</g>
<!-- BIND_OPENLDAP_INIT&#45;&#45;C_OPENLDAP -->
<g id="edge9" class="edge">
<title>BIND_OPENLDAP_INIT&#45;&#45;C_OPENLDAP</title>
<path fill="none" stroke="blue" d="M1022.93,-1233.8C1121.89,-1251.9 1267.97,-1259.37 1349.72,-1172.77 1381.96,-1138.62 1339.03,-363.31 1369.72,-327.77 1377.97,-318.22 1388.27,-311.21 1399.61,-306.14"/>
</g>
<!-- BIND_HTTPD_SITE_CONFIG -->
<g id="node13" class="node">
<title>BIND_HTTPD_SITE_CONFIG</title>
<polygon fill="none" stroke="blue" points="1214.22,-673.77 1211.22,-677.77 1190.22,-677.77 1187.22,-673.77 623.22,-673.77 623.22,-621.77 1214.22,-621.77 1214.22,-673.77"/>
<text text-anchor="start" x="635.72" y="-655.57" font-family="Times,serif" font-weight="bold" font-size="14.00">host:</text>
<text text-anchor="start" x="757.72" y="-654.57" font-family="Times,serif" font-size="14.00">$REPO/webserver_configs/httpd&#45;docker/ssl&#45;shib/httpd&#45;ssl.conf</text>
<text text-anchor="start" x="635.72" y="-633.57" font-family="Times,serif" font-size="14.00">httpd&#45;container:</text>
<text text-anchor="start" x="757.72" y="-633.57" font-family="Times,serif" font-size="14.00">/usr/local/apache2/conf/extra/httpd&#45;ssl.conf:ro</text>
</g>
<!-- BIND_HTTPD_SERVER_CONFIG -->
<g id="node14" class="node">
<title>BIND_HTTPD_SERVER_CONFIG</title>
<polygon fill="none" stroke="blue" points="1202.22,-603.77 1199.22,-607.77 1178.22,-607.77 1175.22,-603.77 635.22,-603.77 635.22,-551.77 1202.22,-551.77 1202.22,-603.77"/>
<text text-anchor="start" x="647.72" y="-585.57" font-family="Times,serif" font-weight="bold" font-size="14.00">host:</text>
<text text-anchor="start" x="769.72" y="-584.57" font-family="Times,serif" font-size="14.00">$REPO/webserver_configs/httpd&#45;docker/ssl&#45;shib/httpd.conf</text>
<text text-anchor="start" x="647.72" y="-563.57" font-family="Times,serif" font-size="14.00">httpd&#45;container:</text>
<text text-anchor="start" x="769.72" y="-563.57" font-family="Times,serif" font-size="14.00">/usr/local/apache2/conf/extra/httpd.conf:ro</text>
</g>
<!-- BIND_HTTPD_CERT -->
<g id="node15" class="node">
<title>BIND_HTTPD_CERT</title>
<polygon fill="none" stroke="blue" points="1148.22,-1093.77 1145.22,-1097.77 1124.22,-1097.77 1121.22,-1093.77 689.22,-1093.77 689.22,-1041.77 1148.22,-1041.77 1148.22,-1093.77"/>
<text text-anchor="start" x="701.72" y="-1075.57" font-family="Times,serif" font-weight="bold" font-size="14.00">host:</text>
<text text-anchor="start" x="823.72" y="-1074.57" font-family="Times,serif" font-size="14.00">$REPO/encryption/webserver/fullchain.pem</text>
<text text-anchor="start" x="701.72" y="-1053.57" font-family="Times,serif" font-size="14.00">httpd&#45;container:</text>
<text text-anchor="start" x="823.72" y="-1053.57" font-family="Times,serif" font-size="14.00">/usr/local/apache2/conf/server.crt:ro</text>
</g>
<!-- BIND_HTTPD_KEY -->
<g id="node16" class="node">
<title>BIND_HTTPD_KEY</title>
<polygon fill="none" stroke="blue" points="1143.22,-1023.77 1140.22,-1027.77 1119.22,-1027.77 1116.22,-1023.77 694.22,-1023.77 694.22,-971.77 1143.22,-971.77 1143.22,-1023.77"/>
<text text-anchor="start" x="706.72" y="-1005.57" font-family="Times,serif" font-weight="bold" font-size="14.00">host:</text>
<text text-anchor="start" x="828.72" y="-1004.57" font-family="Times,serif" font-size="14.00">$REPO/encryption/webserver/privkey.pem</text>
<text text-anchor="start" x="706.72" y="-983.57" font-family="Times,serif" font-size="14.00">httpd&#45;container:</text>
<text text-anchor="start" x="828.72" y="-983.57" font-family="Times,serif" font-size="14.00">/usr/local/apache2/conf/server.key:ro</text>
</g>
<!-- BIND_SHIB_ENCRYPTION_KEY -->
<g id="node17" class="node">
<title>BIND_SHIB_ENCRYPTION_KEY</title>
<polygon fill="none" stroke="blue" points="1169.22,-953.77 1166.22,-957.77 1145.22,-957.77 1142.22,-953.77 668.22,-953.77 668.22,-901.77 1169.22,-901.77 1169.22,-953.77"/>
<text text-anchor="start" x="680.72" y="-935.57" font-family="Times,serif" font-weight="bold" font-size="14.00">host:</text>
<text text-anchor="start" x="802.72" y="-934.57" font-family="Times,serif" font-size="14.00">$REPO/encryption/shibboleth/sp&#45;encrypt&#45;key.pem</text>
<text text-anchor="start" x="680.72" y="-913.57" font-family="Times,serif" font-size="14.00">httpd&#45;container:</text>
<text text-anchor="start" x="802.72" y="-913.57" font-family="Times,serif" font-size="14.00">/etc/shibboleth/sp&#45;encrypt&#45;key.pem:ro</text>
</g>
<!-- BIND_SHIB_ENCRYPTION_CERT -->
<g id="node18" class="node">
<title>BIND_SHIB_ENCRYPTION_CERT</title>
<polygon fill="none" stroke="blue" points="1172.22,-883.77 1169.22,-887.77 1148.22,-887.77 1145.22,-883.77 665.22,-883.77 665.22,-831.77 1172.22,-831.77 1172.22,-883.77"/>
<text text-anchor="start" x="677.72" y="-865.57" font-family="Times,serif" font-weight="bold" font-size="14.00">host:</text>
<text text-anchor="start" x="799.72" y="-864.57" font-family="Times,serif" font-size="14.00">$REPO/encryption/shibboleth/sp&#45;encrypt&#45;cert.pem</text>
<text text-anchor="start" x="677.72" y="-843.57" font-family="Times,serif" font-size="14.00">httpd&#45;container:</text>
<text text-anchor="start" x="799.72" y="-843.57" font-family="Times,serif" font-size="14.00">/etc/shibboleth/sp&#45;encrypt&#45;cert.pem:ro</text>
</g>
<!-- BIND_SHIB_SIGNING_KEY -->
<g id="node19" class="node">
<title>BIND_SHIB_SIGNING_KEY</title>
<polygon fill="none" stroke="blue" points="1167.72,-813.77 1164.72,-817.77 1143.72,-817.77 1140.72,-813.77 669.72,-813.77 669.72,-761.77 1167.72,-761.77 1167.72,-813.77"/>
<text text-anchor="start" x="681.72" y="-795.57" font-family="Times,serif" font-weight="bold" font-size="14.00">host:</text>
<text text-anchor="start" x="803.72" y="-794.57" font-family="Times,serif" font-size="14.00">$REPO/encryption/shibboleth/sp&#45;signing&#45;key.pem</text>
<text text-anchor="start" x="681.72" y="-773.57" font-family="Times,serif" font-size="14.00">httpd&#45;container:</text>
<text text-anchor="start" x="803.72" y="-773.57" font-family="Times,serif" font-size="14.00">/etc/shibboleth/sp&#45;signing&#45;key.pem:ro</text>
</g>
<!-- BIND_SHIB_SIGNING_CERT -->
<g id="node20" class="node">
<title>BIND_SHIB_SIGNING_CERT</title>
<polygon fill="none" stroke="blue" points="1170.72,-743.77 1167.72,-747.77 1146.72,-747.77 1143.72,-743.77 666.72,-743.77 666.72,-691.77 1170.72,-691.77 1170.72,-743.77"/>
<text text-anchor="start" x="678.72" y="-725.57" font-family="Times,serif" font-weight="bold" font-size="14.00">host:</text>
<text text-anchor="start" x="800.72" y="-724.57" font-family="Times,serif" font-size="14.00">$REPO/encryption/shibboleth/sp&#45;signing&#45;cert.pem</text>
<text text-anchor="start" x="678.72" y="-703.57" font-family="Times,serif" font-size="14.00">httpd&#45;container:</text>
<text text-anchor="start" x="800.72" y="-703.57" font-family="Times,serif" font-size="14.00">/etc/shibboleth/sp&#45;signing&#45;cert.pem:ro</text>
</g>
<!-- BIND_API_CODE -->
<g id="node21" class="node">
<title>BIND_API_CODE</title>
<polygon fill="none" stroke="blue" points="1098.22,-533.77 1095.22,-537.77 1074.22,-537.77 1071.22,-533.77 739.22,-533.77 739.22,-481.77 1098.22,-481.77 1098.22,-533.77"/>
<text text-anchor="start" x="751.72" y="-515.57" font-family="Times,serif" font-weight="bold" font-size="14.00">host:</text>
<text text-anchor="start" x="856.72" y="-514.57" font-family="Times,serif" font-size="14.00">$REPO/components/phaidra&#45;api</text>
<text text-anchor="start" x="751.72" y="-493.57" font-family="Times,serif" font-size="14.00">api&#45;container:</text>
<text text-anchor="start" x="856.72" y="-493.57" font-family="Times,serif" font-size="14.00">/usr/local/phaidra/phaidra&#45;api:ro</text>
</g>
<!-- BIND_API_CODE&#45;&#45;C_API -->
<g id="edge4" class="edge">
<title>BIND_API_CODE&#45;&#45;C_API</title>
<path fill="none" stroke="blue" d="M918.72,-481.71C918.72,-445.47 918.72,-409.23 918.72,-373"/>
</g>
<!-- C_FEDORA&#45;&#45;C_MARIADB_FEDORA -->
<g id="edge24" class="edge">
<title>C_FEDORA&#45;&#45;C_MARIADB_FEDORA</title>
<path fill="none" stroke="orange" d="M1646.78,-354.77C1671.22,-354.77 1697.28,-354.77 1722.69,-354.77"/>
</g>
<!-- C_API&#45;&#45;C_FEDORA -->
<g id="edge25" class="edge">
<title>C_API&#45;&#45;C_FEDORA</title>
<path fill="none" stroke="orange" d="M1025.54,-354.77C1132.79,-354.77 1298.36,-354.77 1409.65,-354.77"/>
</g>
<!-- C_API&#45;&#45;C_MARIADB_PHAIDRA -->
<g id="edge26" class="edge">
<title>C_API&#45;&#45;C_MARIADB_PHAIDRA</title>
<path fill="none" stroke="orange" d="M1025.32,-367.14C1117.89,-372.63 1252.5,-367.11 1349.72,-305.77 1363.91,-296.82 1355.8,-283.11 1369.72,-273.77 1374.68,-270.45 1379.91,-267.49 1385.34,-264.86"/>
</g>
<!-- C_API&#45;&#45;C_MONGODB_PHAIDRA -->
<g id="edge27" class="edge">
<title>C_API&#45;&#45;C_MONGODB_PHAIDRA</title>
<path fill="none" stroke="orange" d="M1025.59,-365.71C1123.32,-369.53 1265.65,-358.1 1349.72,-273.77 1384.19,-239.2 1334.97,-200.06 1369.72,-165.77 1372.98,-162.55 1376.47,-159.64 1380.16,-157"/>
</g>
<!-- C_UI -->
<g id="node26" class="node">
<title>C_UI</title>
<g id="a_node26"><a xlink:href="https://github.com/phaidra/phaidra-ui" xlink:title="phaidra&#45;ssl&#45;shib&#45;httpd&#45;ui&#45;1">
<polygon fill="none" stroke="green" points="1630.72,-102.77 1425.72,-102.77 1425.72,-98.77 1421.72,-98.77 1421.72,-94.77 1425.72,-94.77 1425.72,-74.77 1421.72,-74.77 1421.72,-70.77 1425.72,-70.77 1425.72,-66.77 1630.72,-66.77 1630.72,-102.77"/>
<polyline fill="none" stroke="green" points="1425.72,-98.77 1429.72,-98.77 1429.72,-94.77 1425.72,-94.77 "/>
<polyline fill="none" stroke="green" points="1425.72,-74.77 1429.72,-74.77 1429.72,-70.77 1425.72,-70.77 "/>
<text text-anchor="middle" x="1528.22" y="-81.07" font-family="Times,serif" font-size="14.00">phaidra&#45;ssl&#45;shib&#45;httpd&#45;ui&#45;1</text>
</a>
</g>
</g>
<!-- C_API&#45;&#45;C_UI -->
<g id="edge28" class="edge">
<title>C_API&#45;&#45;C_UI</title>
<path fill="none" stroke="orange" d="M1025.35,-366.77C1123.95,-371.56 1267.84,-361.01 1349.72,-273.77 1399.37,-220.87 1319.64,-164.26 1369.72,-111.77 1384.47,-96.31 1404.59,-87.71 1425.53,-83.24"/>
</g>
<!-- C_API&#45;&#45;C_OPENLDAP -->
<g id="edge29" class="edge">
<title>C_API&#45;&#45;C_OPENLDAP</title>
<path fill="none" stroke="orange" d="M1025.54,-345.36C1129.56,-336.12 1288.44,-321.99 1399.45,-312.13"/>
</g>
<!-- C_API&#45;&#45;C_SOLR -->
<g id="edge30" class="edge">
<title>C_API&#45;&#45;C_SOLR</title>
<path fill="none" stroke="orange" d="M1016.11,-372.78C1112.62,-384.88 1259.41,-386.25 1349.72,-305.77 1379.02,-279.66 1341.17,-246.69 1369.72,-219.77 1383.35,-206.92 1400.74,-198.97 1418.96,-194.23"/>
</g>
<!-- C_API&#45;&#45;C_IMAGESERVER -->
<g id="edge31" class="edge">
<title>C_API&#45;&#45;C_IMAGESERVER</title>
<path fill="none" stroke="orange" d="M1025.54,-364.18C1125.91,-373.1 1277.35,-386.56 1387.58,-396.36"/>
</g>
<!-- C_MONGODB_PHAIDRA&#45;&#45;C_PIXELGECKO -->
<g id="edge32" class="edge">
<title>C_MONGODB_PHAIDRA&#45;&#45;C_PIXELGECKO</title>
<path fill="none" stroke="orange" d="M1676.36,-156.93C1680.03,-159.59 1683.49,-162.52 1686.72,-165.77 1755.38,-234.75 1654.37,-312.49 1722.72,-381.77 1727.82,-386.93 1733.54,-391.3 1739.7,-394.98"/>
</g>
<!-- C_LAM -->
<g id="node32" class="node">
<title>C_LAM</title>
<polygon fill="none" stroke="green" points="1982.22,-190.77 1764.22,-190.77 1764.22,-186.77 1760.22,-186.77 1760.22,-182.77 1764.22,-182.77 1764.22,-162.77 1760.22,-162.77 1760.22,-158.77 1764.22,-158.77 1764.22,-154.77 1982.22,-154.77 1982.22,-190.77"/>
<polyline fill="none" stroke="green" points="1764.22,-186.77 1768.22,-186.77 1768.22,-182.77 1764.22,-182.77 "/>
<polyline fill="none" stroke="green" points="1764.22,-162.77 1768.22,-162.77 1768.22,-158.77 1764.22,-158.77 "/>
<text text-anchor="middle" x="1873.22" y="-169.07" font-family="Times,serif" font-size="14.00">phaidra&#45;ssl&#45;shib&#45;httpd&#45;lam&#45;1</text>
</g>
<!-- C_OPENLDAP&#45;&#45;C_LAM -->
<g id="edge33" class="edge">
<title>C_OPENLDAP&#45;&#45;C_LAM</title>
<path fill="none" stroke="orange" d="M1656.51,-282.69C1666.84,-280.09 1677.03,-277.14 1686.72,-273.77 1747,-252.84 1811.03,-213.7 1845.87,-190.78"/>
</g>
<!-- C_DBGATE&#45;&#45;C_MARIADB_PHAIDRA -->
<g id="edge34" class="edge">
<title>C_DBGATE&#45;&#45;C_MARIADB_PHAIDRA</title>
<path fill="none" stroke="orange" d="M1039.38,-246.77C1134.96,-246.77 1269.58,-246.77 1373.2,-246.77"/>
</g>
<!-- C_DBGATE&#45;&#45;C_MONGODB_PHAIDRA -->
<g id="edge35" class="edge">
<title>C_DBGATE&#45;&#45;C_MONGODB_PHAIDRA</title>
<path fill="none" stroke="orange" d="M1018.44,-228.76C1109.58,-212.18 1248.73,-187.03 1369.72,-165.77 1386.39,-162.84 1404.06,-159.77 1421.3,-156.8"/>
</g>
<!-- C_DBGATE&#45;&#45;C_MARIADB_FEDORA -->
<g id="edge36" class="edge">
<title>C_DBGATE&#45;&#45;C_MARIADB_FEDORA</title>
<path fill="none" stroke="orange" d="M950.52,-228.7C1021.47,-188.25 1203.17,-91.32 1369.72,-57.77 1438.78,-43.86 1631.13,-14.51 1686.72,-57.77 1738.11,-97.75 1691.06,-142.88 1722.72,-199.77 1755.08,-257.92 1814.72,-310.14 1848.06,-336.56"/>
</g>
<!-- WEBSERVER&#45;&#45;BIND_HTTPD_SITE_CONFIG -->
<g id="edge16" class="edge">
<title>WEBSERVER&#45;&#45;BIND_HTTPD_SITE_CONFIG</title>
<path fill="none" stroke="blue" d="M359.48,-426.95C373.64,-468.34 414.47,-569.31 487.72,-612.77 528.55,-636.99 575.51,-651.36 623.07,-659.28"/>
</g>
<!-- WEBSERVER&#45;&#45;BIND_HTTPD_SERVER_CONFIG -->
<g id="edge17" class="edge">
<title>WEBSERVER&#45;&#45;BIND_HTTPD_SERVER_CONFIG</title>
<path fill="none" stroke="blue" d="M365.51,-427.1C386.12,-457.34 431.88,-516.94 487.72,-542.77 533.27,-563.84 584.43,-576.28 635.14,-583.16"/>
</g>
<!-- WEBSERVER&#45;&#45;BIND_HTTPD_CERT -->
<g id="edge18" class="edge">
<title>WEBSERVER&#45;&#45;BIND_HTTPD_CERT</title>
<path fill="none" stroke="blue" d="M354.79,-426.85C360.73,-520.52 392.88,-949.55 487.72,-1032.77 570.06,-1105.02 698.66,-1106.14 793.79,-1093.82"/>
</g>
<!-- WEBSERVER&#45;&#45;BIND_HTTPD_KEY -->
<g id="edge19" class="edge">
<title>WEBSERVER&#45;&#45;BIND_HTTPD_KEY</title>
<path fill="none" stroke="blue" d="M355.31,-426.82C363.37,-513.97 402.73,-890.11 487.72,-962.77 569.7,-1032.86 695.51,-1035.17 789.9,-1023.78"/>
</g>
<!-- WEBSERVER&#45;&#45;BIND_SHIB_ENCRYPTION_KEY -->
<g id="edge20" class="edge">
<title>WEBSERVER&#45;&#45;BIND_SHIB_ENCRYPTION_KEY</title>
<path fill="none" stroke="blue" d="M355.99,-426.92C366.42,-507.37 412.55,-830.61 487.72,-892.77 568.82,-959.83 690.42,-963.83 783.64,-953.78"/>
</g>
<!-- WEBSERVER&#45;&#45;BIND_SHIB_ENCRYPTION_CERT -->
<g id="edge21" class="edge">
<title>WEBSERVER&#45;&#45;BIND_SHIB_ENCRYPTION_CERT</title>
<path fill="none" stroke="blue" d="M353.16,-427.12C352.24,-493.26 358.88,-720.8 487.72,-822.77 566.94,-885.46 682.04,-891.81 773.23,-883.78"/>
</g>
<!-- WEBSERVER&#45;&#45;BIND_SHIB_SIGNING_KEY -->
<g id="edge22" class="edge">
<title>WEBSERVER&#45;&#45;BIND_SHIB_SIGNING_KEY</title>
<path fill="none" stroke="blue" d="M354.48,-426.89C357.99,-485.5 377.73,-670.83 487.72,-752.77 561.83,-807.98 664.38,-818.1 750.74,-813.77"/>
</g>
<!-- WEBSERVER&#45;&#45;BIND_SHIB_SIGNING_CERT -->
<g id="edge23" class="edge">
<title>WEBSERVER&#45;&#45;BIND_SHIB_SIGNING_CERT</title>
<path fill="none" stroke="blue" d="M356.37,-426.78C364.84,-477.24 396.29,-620.41 487.72,-682.77 539.7,-718.22 603.86,-734.17 666.62,-739.61"/>
</g>
<!-- WEBSERVER&#45;&#45;C_FEDORA -->
<g id="edge37" class="edge">
<title>WEBSERVER&#45;&#45;C_FEDORA</title>
<path fill="none" stroke="magenta" d="M467.88,-410.26C653.29,-411.65 1031.19,-410.2 1349.72,-381.77 1373.63,-379.63 1399.21,-376.34 1423.3,-372.78"/>
</g>
<!-- WEBSERVER&#45;&#45;C_API -->
<g id="edge38" class="edge">
<title>WEBSERVER&#45;&#45;C_API</title>
<path fill="none" stroke="magenta" d="M467.76,-397.69C474.52,-397.04 481.21,-396.4 487.72,-395.77 598.39,-385.13 725.08,-373.06 812.13,-364.79"/>
</g>
<!-- WEBSERVER&#45;&#45;C_UI -->
<g id="edge39" class="edge">
<title>WEBSERVER&#45;&#45;C_UI</title>
<path fill="none" stroke="magenta" d="M360.61,-390.68C376.42,-351.89 419.31,-260.93 487.72,-219.77 789.46,-38.24 1228.95,-54 1425.55,-72.52"/>
</g>
<!-- WEBSERVER&#45;&#45;C_SOLR -->
<g id="edge40" class="edge">
<title>WEBSERVER&#45;&#45;C_SOLR</title>
<path fill="none" stroke="magenta" d="M376.25,-390.42C401.62,-370.94 444.91,-341.16 487.72,-327.77 670.9,-270.48 1195.7,-388.29 1349.72,-273.77 1370.26,-258.5 1350.03,-236.12 1369.72,-219.77 1383.81,-208.07 1401.1,-200.61 1419.01,-195.98"/>
</g>
<!-- WEBSERVER&#45;&#45;C_DBGATE -->
<g id="edge41" class="edge">
<title>WEBSERVER&#45;&#45;C_DBGATE</title>
<path fill="none" stroke="magenta" d="M368.84,-390.54C391.61,-364.51 437.42,-317.45 487.72,-295.77 586.39,-253.23 709,-242.93 798.01,-242.12"/>
</g>
<!-- WEBSERVER&#45;&#45;C_LAM -->
<g id="edge42" class="edge">
<title>WEBSERVER&#45;&#45;C_LAM</title>
<path fill="none" stroke="magenta" d="M354.15,-390.47C356.65,-330.45 373.62,-138.75 487.72,-57.77 596.39,19.35 1560.37,9.56 1686.72,-32.77 1759.6,-57.18 1826.74,-122.79 1856.32,-154.76"/>
</g>
</g>
</svg>
