<?xml version="1.0" encoding="UTF-8" standalone="no"?>
<!DOCTYPE svg PUBLIC "-//W3C//DTD SVG 1.1//EN"
 "http://www.w3.org/Graphics/SVG/1.1/DTD/svg11.dtd">
<!-- Generated by graphviz version 2.43.0 (0)
 -->
<!-- Title: G Pages: 1 -->
<svg width="1919pt" height="1682pt"
 viewBox="0.00 0.00 1918.72 1682.22" xmlns="http://www.w3.org/2000/svg" xmlns:xlink="http://www.w3.org/1999/xlink">
<g id="graph0" class="graph" transform="scale(1 1) rotate(0) translate(4 1678.22)">
<title>G</title>
<polygon fill="white" stroke="transparent" points="-4,4 -4,-1678.22 1914.72,-1678.22 1914.72,4 -4,4"/>
<g id="clust1" class="cluster">
<title>cluster_host</title>
<polygon fill="none" stroke="red" points="221.72,-47.22 221.72,-1666.22 1902.72,-1666.22 1902.72,-47.22 221.72,-47.22"/>
<text text-anchor="middle" x="1062.22" y="-1651.02" font-family="Times,serif" font-size="14.00">PHAIDRA server firewall</text>
</g>
<g id="clust2" class="cluster">
<title>cluster_host_storage</title>
<polygon fill="none" stroke="blue" points="453.72,-502.22 453.72,-1635.22 1282.72,-1635.22 1282.72,-502.22 453.72,-502.22"/>
<text text-anchor="middle" x="868.22" y="-1620.02" font-family="Times,serif" font-size="14.00">PHAIDRA server filesystem</text>
</g>
<g id="clust3" class="cluster">
<title>cluster_named_volumes</title>
<polygon fill="none" stroke="turquoise" points="461.72,-889.22 461.72,-1604.22 1274.72,-1604.22 1274.72,-889.22 461.72,-889.22"/>
<text text-anchor="middle" x="868.22" y="-1589.02" font-family="Times,serif" font-size="14.00">Named volumes</text>
</g>
<g id="clust4" class="cluster">
<title>cluster_bind_mounts</title>
<polygon fill="none" stroke="blue" points="545.22,-510.22 545.22,-881.22 1191.22,-881.22 1191.22,-510.22 545.22,-510.22"/>
<text text-anchor="middle" x="868.22" y="-866.02" font-family="Times,serif" font-size="14.00">Bind mounts</text>
</g>
<g id="clust5" class="cluster">
<title>cluster_docker_network_host</title>
<polygon fill="none" stroke="green" points="229.72,-55.22 229.72,-494.22 1894.72,-494.22 1894.72,-55.22 229.72,-55.22"/>
<text text-anchor="middle" x="1062.22" y="-479.02" font-family="Times,serif" font-size="14.00">PHAIDRA docker containers</text>
</g>
<!-- USER -->
<g id="node1" class="node">
<title>USER</title>
<polygon fill="none" stroke="black" points="193.59,-333.76 193.59,-348.67 139.27,-359.22 62.45,-359.22 8.13,-348.67 8.13,-333.76 62.45,-323.22 139.27,-323.22 193.59,-333.76"/>
<polygon fill="none" stroke="black" points="197.59,-330.46 197.59,-351.97 139.66,-363.22 62.07,-363.22 4.13,-351.97 4.13,-330.46 62.07,-319.22 139.66,-319.22 197.59,-330.46"/>
<polygon fill="none" stroke="black" points="201.58,-327.16 201.58,-355.27 140.04,-367.22 61.68,-367.22 0.14,-355.27 0.14,-327.16 61.68,-315.22 140.04,-315.22 201.58,-327.16"/>
<text text-anchor="middle" x="100.86" y="-337.52" font-family="Times,serif" font-size="14.00">PHAIDRA USER</text>
</g>
<!-- WEBSERVER -->
<g id="node28" class="node">
<title>WEBSERVER</title>
<polygon fill="none" stroke="green" points="433.72,-359.22 237.72,-359.22 237.72,-355.22 233.72,-355.22 233.72,-351.22 237.72,-351.22 237.72,-331.22 233.72,-331.22 233.72,-327.22 237.72,-327.22 237.72,-323.22 433.72,-323.22 433.72,-359.22"/>
<polyline fill="none" stroke="green" points="237.72,-355.22 241.72,-355.22 241.72,-351.22 237.72,-351.22 "/>
<polyline fill="none" stroke="green" points="237.72,-331.22 241.72,-331.22 241.72,-327.22 237.72,-327.22 "/>
<text text-anchor="middle" x="335.72" y="-337.52" font-family="Times,serif" font-size="14.00">phaidra&#45;ssl&#45;nginx&#45;nginx&#45;1</text>
</g>
<!-- USER&#45;&#45;WEBSERVER -->
<g id="edge37" class="edge">
<title>USER&#45;&#45;WEBSERVER</title>
<path fill="none" stroke="red" d="M201.63,-341.22C213.48,-341.22 225.56,-341.22 237.38,-341.22"/>
</g>
<!-- HS_FEDORA -->
<g id="node2" class="node">
<title>HS_FEDORA</title>
<polygon fill="none" stroke="turquoise" points="1201.22,-1481.22 1198.22,-1485.22 1177.22,-1485.22 1174.22,-1481.22 535.22,-1481.22 535.22,-1387.22 1201.22,-1387.22 1201.22,-1481.22"/>
<text text-anchor="start" x="547.22" y="-1463.02" font-family="Times,serif" font-weight="bold" font-size="14.00">host:</text>
<text text-anchor="start" x="706.22" y="-1462.02" font-family="Times,serif" font-size="14.00">$HOME/.local/share/docker/volumes/phaidra&#45;ssl&#45;nginx_fedora/_data</text>
<text text-anchor="start" x="547.22" y="-1441.02" font-family="Times,serif" font-size="14.00">fedora&#45;container:</text>
<text text-anchor="start" x="706.22" y="-1441.02" font-family="Times,serif" font-size="14.00">/usr/local/tomcat/fcrepo&#45;home</text>
<text text-anchor="start" x="547.22" y="-1420.02" font-family="Times,serif" font-size="14.00">pixelgecko&#45;container:</text>
<text text-anchor="start" x="706.22" y="-1420.02" font-family="Times,serif" font-size="14.00"> /mnt/fedora:ro</text>
<text text-anchor="start" x="547.22" y="-1399.02" font-family="Times,serif" font-size="14.00">api&#45;container:</text>
<text text-anchor="start" x="706.22" y="-1399.02" font-family="Times,serif" font-size="14.00"> /mnt/fedora:ro</text>
</g>
<!-- C_FEDORA -->
<g id="node16" class="node">
<title>C_FEDORA</title>
<g id="a_node16"><a xlink:href="https://fedora.lyrasis.org/" xlink:title="phaidra&#45;ssl&#45;nginx&#45;fedora&#45;1">
<polygon fill="none" stroke="green" points="1545.22,-409.22 1342.22,-409.22 1342.22,-405.22 1338.22,-405.22 1338.22,-401.22 1342.22,-401.22 1342.22,-381.22 1338.22,-381.22 1338.22,-377.22 1342.22,-377.22 1342.22,-373.22 1545.22,-373.22 1545.22,-409.22"/>
<polyline fill="none" stroke="green" points="1342.22,-405.22 1346.22,-405.22 1346.22,-401.22 1342.22,-401.22 "/>
<polyline fill="none" stroke="green" points="1342.22,-381.22 1346.22,-381.22 1346.22,-377.22 1342.22,-377.22 "/>
<text text-anchor="middle" x="1443.72" y="-387.52" font-family="Times,serif" font-size="14.00">phaidra&#45;ssl&#45;nginx&#45;fedora&#45;1</text>
</a>
</g>
</g>
<!-- HS_FEDORA&#45;&#45;C_FEDORA -->
<g id="edge1" class="edge">
<title>HS_FEDORA&#45;&#45;C_FEDORA</title>
<path fill="none" stroke="turquoise" d="M1201.69,-1433.59C1232.37,-1421.2 1260.3,-1403.35 1282.72,-1378.22 1318.24,-1338.41 1268.33,-459 1302.72,-418.22 1313.01,-406.01 1327.01,-398.24 1342.18,-393.45"/>
</g>
<!-- C_API -->
<g id="node17" class="node">
<title>C_API</title>
<g id="a_node17"><a xlink:href="https://github.com/phaidra/phaidra-api" xlink:title="phaidra&#45;ssl&#45;nginx&#45;api&#45;1">
<polygon fill="none" stroke="green" points="957.72,-359.22 778.72,-359.22 778.72,-355.22 774.72,-355.22 774.72,-351.22 778.72,-351.22 778.72,-331.22 774.72,-331.22 774.72,-327.22 778.72,-327.22 778.72,-323.22 957.72,-323.22 957.72,-359.22"/>
<polyline fill="none" stroke="green" points="778.72,-355.22 782.72,-355.22 782.72,-351.22 778.72,-351.22 "/>
<polyline fill="none" stroke="green" points="778.72,-331.22 782.72,-331.22 782.72,-327.22 778.72,-327.22 "/>
<text text-anchor="middle" x="868.22" y="-337.52" font-family="Times,serif" font-size="14.00">phaidra&#45;ssl&#45;nginx&#45;api&#45;1</text>
</a>
</g>
</g>
<!-- HS_FEDORA&#45;&#45;C_API -->
<g id="edge3" class="edge">
<title>HS_FEDORA&#45;&#45;C_API</title>
<path fill="none" stroke="turquoise" d="M534.75,-1450.12C494.91,-1435.36 461.92,-1410.08 443.72,-1369.22 434.07,-1347.55 434.07,-536.89 443.72,-515.22 499.38,-390.25 671.42,-354.65 778.64,-344.75"/>
</g>
<!-- C_PIXELGECKO -->
<g id="node24" class="node">
<title>C_PIXELGECKO</title>
<polygon fill="none" stroke="green" points="1870.22,-463.22 1637.22,-463.22 1637.22,-459.22 1633.22,-459.22 1633.22,-455.22 1637.22,-455.22 1637.22,-435.22 1633.22,-435.22 1633.22,-431.22 1637.22,-431.22 1637.22,-427.22 1870.22,-427.22 1870.22,-463.22"/>
<polyline fill="none" stroke="green" points="1637.22,-459.22 1641.22,-459.22 1641.22,-455.22 1637.22,-455.22 "/>
<polyline fill="none" stroke="green" points="1637.22,-435.22 1641.22,-435.22 1641.22,-431.22 1637.22,-431.22 "/>
<text text-anchor="middle" x="1753.72" y="-441.52" font-family="Times,serif" font-size="14.00">phaidra&#45;ssl&#45;nginx&#45;pixelgecko&#45;1</text>
</g>
<!-- HS_FEDORA&#45;&#45;C_PIXELGECKO -->
<g id="edge11" class="edge">
<title>HS_FEDORA&#45;&#45;C_PIXELGECKO</title>
<path fill="none" stroke="turquoise" d="M1201.29,-1417.77C1230.2,-1408.03 1257.86,-1395.13 1282.72,-1378.22 1629.14,-1142.57 1733.07,-572.52 1750.06,-463.43"/>
</g>
<!-- HS_API_LOGS -->
<g id="node3" class="node">
<title>HS_API_LOGS</title>
<polygon fill="none" stroke="turquoise" points="1180.22,-1159.22 1177.22,-1163.22 1156.22,-1163.22 1153.22,-1159.22 556.22,-1159.22 556.22,-1107.22 1180.22,-1107.22 1180.22,-1159.22"/>
<text text-anchor="start" x="568.22" y="-1141.02" font-family="Times,serif" font-weight="bold" font-size="14.00">host:</text>
<text text-anchor="start" x="673.22" y="-1140.02" font-family="Times,serif" font-size="14.00">$HOME/.local/share/docker/volumes/phaidra&#45;ssl&#45;nginx_api_logs/_data</text>
<text text-anchor="start" x="568.22" y="-1119.02" font-family="Times,serif" font-size="14.00">api&#45;container:</text>
<text text-anchor="start" x="673.22" y="-1119.02" font-family="Times,serif" font-size="14.00">/var/log/phaidra</text>
</g>
<!-- HS_API_LOGS&#45;&#45;C_API -->
<g id="edge2" class="edge">
<title>HS_API_LOGS&#45;&#45;C_API</title>
<path fill="none" stroke="turquoise" d="M556.05,-1137.41C500.04,-1130.19 455.55,-1115.78 443.72,-1089.22 430.75,-1060.09 430.75,-544.35 443.72,-515.22 499.38,-390.25 671.42,-354.65 778.64,-344.75"/>
</g>
<!-- HS_MARIADB_PHAIDRA -->
<g id="node4" class="node">
<title>HS_MARIADB_PHAIDRA</title>
<polygon fill="none" stroke="turquoise" points="1260.22,-1229.22 1257.22,-1233.22 1236.22,-1233.22 1233.22,-1229.22 476.22,-1229.22 476.22,-1177.22 1260.22,-1177.22 1260.22,-1229.22"/>
<text text-anchor="start" x="488.22" y="-1211.02" font-family="Times,serif" font-weight="bold" font-size="14.00">host:</text>
<text text-anchor="start" x="690.22" y="-1210.02" font-family="Times,serif" font-size="14.00">$HOME/.local/share/docker/volumes/phaidra&#45;ssl&#45;nginx_mariadb_phaidra/_data</text>
<text text-anchor="start" x="488.22" y="-1189.02" font-family="Times,serif" font-size="14.00">mariadb&#45;phaidra&#45;container:</text>
<text text-anchor="start" x="690.22" y="-1189.02" font-family="Times,serif" font-size="14.00">/var/lib/mysql</text>
</g>
<!-- C_MARIADB_PHAIDRA -->
<g id="node18" class="node">
<title>C_MARIADB_PHAIDRA</title>
<g id="a_node18"><a xlink:href="https://mariadb.org/" xlink:title="phaidra&#45;ssl&#45;nginx&#45;mariadb&#45;phaidra&#45;1">
<polygon fill="none" stroke="green" points="1581.22,-301.22 1306.22,-301.22 1306.22,-297.22 1302.22,-297.22 1302.22,-293.22 1306.22,-293.22 1306.22,-273.22 1302.22,-273.22 1302.22,-269.22 1306.22,-269.22 1306.22,-265.22 1581.22,-265.22 1581.22,-301.22"/>
<polyline fill="none" stroke="green" points="1306.22,-297.22 1310.22,-297.22 1310.22,-293.22 1306.22,-293.22 "/>
<polyline fill="none" stroke="green" points="1306.22,-273.22 1310.22,-273.22 1310.22,-269.22 1306.22,-269.22 "/>
<text text-anchor="middle" x="1443.72" y="-279.52" font-family="Times,serif" font-size="14.00">phaidra&#45;ssl&#45;nginx&#45;mariadb&#45;phaidra&#45;1</text>
</a>
</g>
</g>
<!-- HS_MARIADB_PHAIDRA&#45;&#45;C_MARIADB_PHAIDRA -->
<g id="edge5" class="edge">
<title>HS_MARIADB_PHAIDRA&#45;&#45;C_MARIADB_PHAIDRA</title>
<path fill="none" stroke="turquoise" d="M1260.48,-1183.42C1269.74,-1179.03 1277.29,-1173.99 1282.72,-1168.22 1315.39,-1133.49 1271.94,-346.63 1302.72,-310.22 1305.52,-306.91 1308.59,-303.93 1311.88,-301.24"/>
</g>
<!-- HS_MONGODB_PHAIDRA -->
<g id="node5" class="node">
<title>HS_MONGODB_PHAIDRA</title>
<polygon fill="none" stroke="turquoise" points="1266.72,-1019.22 1263.72,-1023.22 1242.72,-1023.22 1239.72,-1019.22 469.72,-1019.22 469.72,-967.22 1266.72,-967.22 1266.72,-1019.22"/>
<text text-anchor="start" x="482.22" y="-1001.02" font-family="Times,serif" font-weight="bold" font-size="14.00">host:</text>
<text text-anchor="start" x="690.22" y="-1000.02" font-family="Times,serif" font-size="14.00">$HOME/.local/share/docker/volumes/phaidra&#45;ssl&#45;nginx_mongodb_phaidra/_data</text>
<text text-anchor="start" x="482.22" y="-979.02" font-family="Times,serif" font-size="14.00">phaidra&#45;mongodb&#45;container:</text>
<text text-anchor="start" x="690.22" y="-979.02" font-family="Times,serif" font-size="14.00">/data/db</text>
</g>
<!-- C_MONGODB_PHAIDRA -->
<g id="node19" class="node">
<title>C_MONGODB_PHAIDRA</title>
<g id="a_node19"><a xlink:href="https://www.mongodb.com/" xlink:title="phaidra&#45;ssl&#45;nginx&#45;mongodb&#45;phaidra&#45;1">
<polygon fill="none" stroke="green" points="1584.72,-193.22 1302.72,-193.22 1302.72,-189.22 1298.72,-189.22 1298.72,-185.22 1302.72,-185.22 1302.72,-165.22 1298.72,-165.22 1298.72,-161.22 1302.72,-161.22 1302.72,-157.22 1584.72,-157.22 1584.72,-193.22"/>
<polyline fill="none" stroke="green" points="1302.72,-189.22 1306.72,-189.22 1306.72,-185.22 1302.72,-185.22 "/>
<polyline fill="none" stroke="green" points="1302.72,-165.22 1306.72,-165.22 1306.72,-161.22 1302.72,-161.22 "/>
<text text-anchor="middle" x="1443.72" y="-171.52" font-family="Times,serif" font-size="14.00">phaidra&#45;ssl&#45;nginx&#45;mongodb&#45;phaidra&#45;1</text>
</a>
</g>
</g>
<!-- HS_MONGODB_PHAIDRA&#45;&#45;C_MONGODB_PHAIDRA -->
<g id="edge6" class="edge">
<title>HS_MONGODB_PHAIDRA&#45;&#45;C_MONGODB_PHAIDRA</title>
<path fill="none" stroke="turquoise" d="M1266.79,-970.15C1273.21,-966.57 1278.58,-962.61 1282.72,-958.22 1340.39,-897.1 1248.37,-266.3 1302.72,-202.22 1305.52,-198.91 1308.6,-195.93 1311.89,-193.25"/>
</g>
<!-- HS_OPENLDAP -->
<g id="node6" class="node">
<title>HS_OPENLDAP</title>
<polygon fill="none" stroke="turquoise" points="1205.22,-1299.22 1202.22,-1303.22 1181.22,-1303.22 1178.22,-1299.22 531.22,-1299.22 531.22,-1247.22 1205.22,-1247.22 1205.22,-1299.22"/>
<text text-anchor="start" x="543.22" y="-1281.02" font-family="Times,serif" font-weight="bold" font-size="14.00">host:</text>
<text text-anchor="start" x="691.22" y="-1280.02" font-family="Times,serif" font-size="14.00">$HOME/.local/share/docker/volumes/phaidra&#45;ssl&#45;nginx_openldap/_data</text>
<text text-anchor="start" x="543.22" y="-1259.02" font-family="Times,serif" font-size="14.00">openldap&#45;container:</text>
<text text-anchor="start" x="691.22" y="-1259.02" font-family="Times,serif" font-size="14.00">/bitnami/openldap</text>
</g>
<!-- C_OPENLDAP -->
<g id="node21" class="node">
<title>C_OPENLDAP</title>
<g id="a_node21"><a xlink:href="https://www.openldap.org/" xlink:title="phaidra&#45;ssl&#45;nginx&#45;openldap&#45;1">
<polygon fill="none" stroke="green" points="1554.72,-355.22 1332.72,-355.22 1332.72,-351.22 1328.72,-351.22 1328.72,-347.22 1332.72,-347.22 1332.72,-327.22 1328.72,-327.22 1328.72,-323.22 1332.72,-323.22 1332.72,-319.22 1554.72,-319.22 1554.72,-355.22"/>
<polyline fill="none" stroke="green" points="1332.72,-351.22 1336.72,-351.22 1336.72,-347.22 1332.72,-347.22 "/>
<polyline fill="none" stroke="green" points="1332.72,-327.22 1336.72,-327.22 1336.72,-323.22 1332.72,-323.22 "/>
<text text-anchor="middle" x="1443.72" y="-333.52" font-family="Times,serif" font-size="14.00">phaidra&#45;ssl&#45;nginx&#45;openldap&#45;1</text>
</a>
</g>
</g>
<!-- HS_OPENLDAP&#45;&#45;C_OPENLDAP -->
<g id="edge7" class="edge">
<title>HS_OPENLDAP&#45;&#45;C_OPENLDAP</title>
<path fill="none" stroke="turquoise" d="M1205.32,-1269.68C1240.6,-1263.12 1268.72,-1253.11 1282.72,-1238.22 1315.99,-1202.83 1271.37,-401.31 1302.72,-364.22 1310.79,-354.67 1321.12,-347.84 1332.51,-343.02"/>
</g>
<!-- HS_SOLR -->
<g id="node7" class="node">
<title>HS_SOLR</title>
<polygon fill="none" stroke="turquoise" points="1167.22,-1089.22 1164.22,-1093.22 1143.22,-1093.22 1140.22,-1089.22 569.22,-1089.22 569.22,-1037.22 1167.22,-1037.22 1167.22,-1089.22"/>
<text text-anchor="start" x="581.22" y="-1071.02" font-family="Times,serif" font-weight="bold" font-size="14.00">host:</text>
<text text-anchor="start" x="691.22" y="-1070.02" font-family="Times,serif" font-size="14.00">$HOME/.local/share/docker/volumes/phaidra&#45;ssl&#45;nginx_solr/_data</text>
<text text-anchor="start" x="581.22" y="-1049.02" font-family="Times,serif" font-size="14.00">solr&#45;container:</text>
<text text-anchor="start" x="691.22" y="-1049.02" font-family="Times,serif" font-size="14.00">/var/solr</text>
</g>
<!-- C_SOLR -->
<g id="node22" class="node">
<title>C_SOLR</title>
<g id="a_node22"><a xlink:href="https://solr.apache.org/" xlink:title="phaidra&#45;ssl&#45;nginx&#45;solr&#45;1">
<polygon fill="none" stroke="green" points="1535.72,-247.22 1351.72,-247.22 1351.72,-243.22 1347.72,-243.22 1347.72,-239.22 1351.72,-239.22 1351.72,-219.22 1347.72,-219.22 1347.72,-215.22 1351.72,-215.22 1351.72,-211.22 1535.72,-211.22 1535.72,-247.22"/>
<polyline fill="none" stroke="green" points="1351.72,-243.22 1355.72,-243.22 1355.72,-239.22 1351.72,-239.22 "/>
<polyline fill="none" stroke="green" points="1351.72,-219.22 1355.72,-219.22 1355.72,-215.22 1351.72,-215.22 "/>
<text text-anchor="middle" x="1443.72" y="-225.52" font-family="Times,serif" font-size="14.00">phaidra&#45;ssl&#45;nginx&#45;solr&#45;1</text>
</a>
</g>
</g>
<!-- HS_SOLR&#45;&#45;C_SOLR -->
<g id="edge9" class="edge">
<title>HS_SOLR&#45;&#45;C_SOLR</title>
<path fill="none" stroke="turquoise" d="M1167.43,-1065.15C1220.01,-1059.27 1263.97,-1048.1 1282.72,-1028.22 1312.16,-997 1274.98,-288.95 1302.72,-256.22 1315.13,-241.58 1332.85,-233.33 1351.54,-228.95"/>
</g>
<!-- HS_PIXELGECKO -->
<g id="node8" class="node">
<title>HS_PIXELGECKO</title>
<polygon fill="none" stroke="turquoise" points="1222.72,-1572.72 1219.72,-1576.72 1198.72,-1576.72 1195.72,-1572.72 513.72,-1572.72 513.72,-1499.72 1222.72,-1499.72 1222.72,-1572.72"/>
<text text-anchor="start" x="526.22" y="-1554.02" font-family="Times,serif" font-weight="bold" font-size="14.00">host:</text>
<text text-anchor="start" x="698.22" y="-1553.02" font-family="Times,serif" font-size="14.00">$HOME/.local/share/docker/volumes/phaidra&#45;ssl&#45;nginx_pixelgecko/_data</text>
<text text-anchor="start" x="526.22" y="-1532.02" font-family="Times,serif" font-size="14.00">pixelgecko&#45;container:</text>
<text text-anchor="start" x="698.22" y="-1532.02" font-family="Times,serif" font-size="14.00">/mnt/converted_images</text>
<text text-anchor="start" x="526.22" y="-1511.02" font-family="Times,serif" font-size="14.00">imageserver&#45;container:</text>
<text text-anchor="start" x="698.22" y="-1511.02" font-family="Times,serif" font-size="14.00">/mnt/converted_images:ro</text>
</g>
<!-- C_IMAGESERVER -->
<g id="node23" class="node">
<title>C_IMAGESERVER</title>
<g id="a_node23"><a xlink:href="https://github.com/ruven/iipsrv" xlink:title="phaidra&#45;ssl&#45;nginx&#45;imageserver&#45;1">
<polygon fill="none" stroke="green" points="1566.72,-463.22 1320.72,-463.22 1320.72,-459.22 1316.72,-459.22 1316.72,-455.22 1320.72,-455.22 1320.72,-435.22 1316.72,-435.22 1316.72,-431.22 1320.72,-431.22 1320.72,-427.22 1566.72,-427.22 1566.72,-463.22"/>
<polyline fill="none" stroke="green" points="1320.72,-459.22 1324.72,-459.22 1324.72,-455.22 1320.72,-455.22 "/>
<polyline fill="none" stroke="green" points="1320.72,-435.22 1324.72,-435.22 1324.72,-431.22 1320.72,-431.22 "/>
<text text-anchor="middle" x="1443.72" y="-441.52" font-family="Times,serif" font-size="14.00">phaidra&#45;ssl&#45;nginx&#45;imageserver&#45;1</text>
</a>
</g>
</g>
<!-- HS_PIXELGECKO&#45;&#45;C_IMAGESERVER -->
<g id="edge10" class="edge">
<title>HS_PIXELGECKO&#45;&#45;C_IMAGESERVER</title>
<path fill="none" stroke="turquoise" d="M1222.8,-1530.8C1244.7,-1520.52 1265,-1507.22 1282.72,-1490.22 1283.94,-1489.05 1418.89,-601.94 1439.97,-463.33"/>
</g>
<!-- HS_PIXELGECKO&#45;&#45;C_PIXELGECKO -->
<g id="edge12" class="edge">
<title>HS_PIXELGECKO&#45;&#45;C_PIXELGECKO</title>
<path fill="none" stroke="turquoise" d="M1222.89,-1513.31C1243.55,-1506.95 1263.66,-1499.32 1282.72,-1490.22 1453.16,-1408.81 1493.18,-1356.43 1584.72,-1191.22 1729.81,-929.35 1749.65,-549.99 1752.31,-463.31"/>
</g>
<!-- HS_DBGATE -->
<g id="node9" class="node">
<title>HS_DBGATE</title>
<polygon fill="none" stroke="turquoise" points="1190.22,-949.22 1187.22,-953.22 1166.22,-953.22 1163.22,-949.22 546.22,-949.22 546.22,-897.22 1190.22,-897.22 1190.22,-949.22"/>
<text text-anchor="start" x="558.22" y="-931.02" font-family="Times,serif" font-weight="bold" font-size="14.00">host:</text>
<text text-anchor="start" x="691.22" y="-930.02" font-family="Times,serif" font-size="14.00">$HOME/.local/share/docker/volumes/phaidra&#45;ssl&#45;nginx_dbgate/_data</text>
<text text-anchor="start" x="558.22" y="-909.02" font-family="Times,serif" font-size="14.00">dbgate&#45;container:</text>
<text text-anchor="start" x="691.22" y="-909.02" font-family="Times,serif" font-size="14.00">/root/.dbgate</text>
</g>
<!-- C_DBGATE -->
<g id="node25" class="node">
<title>C_DBGATE</title>
<polygon fill="none" stroke="green" points="971.22,-285.22 765.22,-285.22 765.22,-281.22 761.22,-281.22 761.22,-277.22 765.22,-277.22 765.22,-257.22 761.22,-257.22 761.22,-253.22 765.22,-253.22 765.22,-249.22 971.22,-249.22 971.22,-285.22"/>
<polyline fill="none" stroke="green" points="765.22,-281.22 769.22,-281.22 769.22,-277.22 765.22,-277.22 "/>
<polyline fill="none" stroke="green" points="765.22,-257.22 769.22,-257.22 769.22,-253.22 765.22,-253.22 "/>
<text text-anchor="middle" x="868.22" y="-263.52" font-family="Times,serif" font-size="14.00">phaidra&#45;ssl&#45;nginx&#45;dbgate&#45;1</text>
</g>
<!-- HS_DBGATE&#45;&#45;C_DBGATE -->
<g id="edge13" class="edge">
<title>HS_DBGATE&#45;&#45;C_DBGATE</title>
<path fill="none" stroke="turquoise" d="M546.03,-923.65C494.79,-915.68 454.85,-901.19 443.72,-876.22 431.22,-848.15 431.22,-351.28 443.72,-323.22 499.97,-196.91 698.58,-224.58 802.98,-249.16"/>
</g>
<!-- HS_MARIADB_FEDORA -->
<g id="node10" class="node">
<title>HS_MARIADB_FEDORA</title>
<polygon fill="none" stroke="turquoise" points="1251.22,-1369.22 1248.22,-1373.22 1227.22,-1373.22 1224.22,-1369.22 485.22,-1369.22 485.22,-1317.22 1251.22,-1317.22 1251.22,-1369.22"/>
<text text-anchor="start" x="497.22" y="-1351.02" font-family="Times,serif" font-weight="bold" font-size="14.00">host:</text>
<text text-anchor="start" x="690.22" y="-1350.02" font-family="Times,serif" font-size="14.00">$HOME/.local/share/docker/volumes/phaidra&#45;ssl&#45;nginx_mariadb_fedora/_data</text>
<text text-anchor="start" x="497.22" y="-1329.02" font-family="Times,serif" font-size="14.00">mariadb&#45;fedora&#45;container:</text>
<text text-anchor="start" x="690.22" y="-1329.02" font-family="Times,serif" font-size="14.00">/var/lib/mysql</text>
</g>
<!-- C_MARIADB_FEDORA -->
<g id="node27" class="node">
<title>C_MARIADB_FEDORA</title>
<g id="a_node27"><a xlink:href="https://mariadb.org/" xlink:title="phaidra&#45;ssl&#45;nginx&#45;mariadb&#45;fedora&#45;1">
<polygon fill="none" stroke="green" points="1886.72,-409.22 1620.72,-409.22 1620.72,-405.22 1616.72,-405.22 1616.72,-401.22 1620.72,-401.22 1620.72,-381.22 1616.72,-381.22 1616.72,-377.22 1620.72,-377.22 1620.72,-373.22 1886.72,-373.22 1886.72,-409.22"/>
<polyline fill="none" stroke="green" points="1620.72,-405.22 1624.72,-405.22 1624.72,-401.22 1620.72,-401.22 "/>
<polyline fill="none" stroke="green" points="1620.72,-381.22 1624.72,-381.22 1624.72,-377.22 1620.72,-377.22 "/>
<text text-anchor="middle" x="1753.72" y="-387.52" font-family="Times,serif" font-size="14.00">phaidra&#45;ssl&#45;nginx&#45;mariadb&#45;fedora&#45;1</text>
</a>
</g>
</g>
<!-- HS_MARIADB_FEDORA&#45;&#45;C_MARIADB_FEDORA -->
<g id="edge14" class="edge">
<title>HS_MARIADB_FEDORA&#45;&#45;C_MARIADB_FEDORA</title>
<path fill="none" stroke="turquoise" d="M991.02,-1369.28C1083.01,-1381.29 1206.12,-1379.77 1282.72,-1308.22 1304.08,-1288.27 1294.8,-1206.35 1302.72,-1178.22 1315.13,-1134.16 1585.37,-447.28 1620.72,-418.22 1624.79,-414.87 1629.16,-411.91 1633.75,-409.29"/>
</g>
<!-- BIND_MARIADB_PHAIDRA_INIT -->
<g id="node11" class="node">
<title>BIND_MARIADB_PHAIDRA_INIT</title>
<polygon fill="none" stroke="blue" points="1183.22,-780.22 1180.22,-784.22 1159.22,-784.22 1156.22,-780.22 553.22,-780.22 553.22,-728.22 1183.22,-728.22 1183.22,-780.22"/>
<text text-anchor="start" x="565.22" y="-762.02" font-family="Times,serif" font-weight="bold" font-size="14.00">host:</text>
<text text-anchor="start" x="767.22" y="-761.02" font-family="Times,serif" font-size="14.00">$REPO/container_components/mariadb/phaidradb.sql.gz</text>
<text text-anchor="start" x="565.22" y="-740.02" font-family="Times,serif" font-size="14.00">mariadb&#45;phaidra&#45;container:</text>
<text text-anchor="start" x="767.22" y="-740.02" font-family="Times,serif" font-size="14.00">/docker&#45;entrypoint&#45;initdb.d/phaidradb.sql.gz:ro</text>
</g>
<!-- BIND_MARIADB_PHAIDRA_INIT&#45;&#45;C_MARIADB_PHAIDRA -->
<g id="edge4" class="edge">
<title>BIND_MARIADB_PHAIDRA_INIT&#45;&#45;C_MARIADB_PHAIDRA</title>
<path fill="none" stroke="blue" d="M978.54,-780.22C1072.99,-795.53 1206.05,-798.66 1282.72,-719.22 1314.32,-686.48 1272.91,-344.59 1302.72,-310.22 1305.56,-306.94 1308.67,-303.99 1311.99,-301.34"/>
</g>
<!-- BIND_OPENLDAP_INIT -->
<g id="node12" class="node">
<title>BIND_OPENLDAP_INIT</title>
<polygon fill="none" stroke="blue" points="1097.22,-850.22 1094.22,-854.22 1073.22,-854.22 1070.22,-850.22 639.22,-850.22 639.22,-798.22 1097.22,-798.22 1097.22,-850.22"/>
<text text-anchor="start" x="651.22" y="-832.02" font-family="Times,serif" font-weight="bold" font-size="14.00">host:</text>
<text text-anchor="start" x="799.22" y="-831.02" font-family="Times,serif" font-size="14.00">$REPO/container_components/openldap</text>
<text text-anchor="start" x="651.22" y="-810.02" font-family="Times,serif" font-size="14.00">openldap&#45;container:</text>
<text text-anchor="start" x="799.22" y="-810.02" font-family="Times,serif" font-size="14.00">/ldifs:ro</text>
</g>
<!-- BIND_OPENLDAP_INIT&#45;&#45;C_OPENLDAP -->
<g id="edge8" class="edge">
<title>BIND_OPENLDAP_INIT&#45;&#45;C_OPENLDAP</title>
<path fill="none" stroke="blue" d="M978.57,-850.26C1073.05,-865.59 1206.13,-868.73 1282.72,-789.22 1315.52,-755.17 1271.78,-399.96 1302.72,-364.22 1310.82,-354.86 1321.1,-348.13 1332.4,-343.35"/>
</g>
<!-- BIND_NGINX_SITE_CONFIG -->
<g id="node13" class="node">
<title>BIND_NGINX_SITE_CONFIG</title>
<polygon fill="none" stroke="blue" points="1105.22,-710.22 1102.22,-714.22 1081.22,-714.22 1078.22,-710.22 631.22,-710.22 631.22,-658.22 1105.22,-658.22 1105.22,-710.22"/>
<text text-anchor="start" x="643.22" y="-692.02" font-family="Times,serif" font-weight="bold" font-size="14.00">host:</text>
<text text-anchor="start" x="765.22" y="-691.02" font-family="Times,serif" font-size="14.00">$REPO/webserver_configs/nginx&#45;docker/demo</text>
<text text-anchor="start" x="643.22" y="-670.02" font-family="Times,serif" font-size="14.00">nginx&#45;container:</text>
<text text-anchor="start" x="765.22" y="-670.02" font-family="Times,serif" font-size="14.00">/etc/nginx/templates:ro</text>
</g>
<!-- BIND_NGINX_SERVER_CONFIG -->
<g id="node14" class="node">
<title>BIND_NGINX_SERVER_CONFIG</title>
<polygon fill="none" stroke="blue" points="1144.72,-640.22 1141.72,-644.22 1120.72,-644.22 1117.72,-640.22 591.72,-640.22 591.72,-588.22 1144.72,-588.22 1144.72,-640.22"/>
<text text-anchor="start" x="604.22" y="-622.02" font-family="Times,serif" font-weight="bold" font-size="14.00">host:</text>
<text text-anchor="start" x="726.22" y="-621.02" font-family="Times,serif" font-size="14.00">$REPO/webserver_configs/nginx&#45;docker/demo/nginx.conf</text>
<text text-anchor="start" x="604.22" y="-600.02" font-family="Times,serif" font-size="14.00">nginx&#45;container:</text>
<text text-anchor="start" x="726.22" y="-600.02" font-family="Times,serif" font-size="14.00">/etc/nginx/nginx.conf:ro</text>
</g>
<!-- BIND_NGINX_CERTS -->
<g id="node15" class="node">
<title>BIND_NGINX_CERTS</title>
<polygon fill="none" stroke="blue" points="1006.72,-570.22 1003.72,-574.22 982.72,-574.22 979.72,-570.22 729.72,-570.22 729.72,-518.22 1006.72,-518.22 1006.72,-570.22"/>
<text text-anchor="start" x="742.22" y="-552.02" font-family="Times,serif" font-weight="bold" font-size="14.00">host:</text>
<text text-anchor="start" x="864.22" y="-551.02" font-family="Times,serif" font-size="14.00">$REPO/certs</text>
<text text-anchor="start" x="742.22" y="-530.02" font-family="Times,serif" font-size="14.00">nginx&#45;container:</text>
<text text-anchor="start" x="864.22" y="-530.02" font-family="Times,serif" font-size="14.00">/etc/nginx/certs:ro</text>
</g>
<!-- C_FEDORA&#45;&#45;C_MARIADB_FEDORA -->
<g id="edge18" class="edge">
<title>C_FEDORA&#45;&#45;C_MARIADB_FEDORA</title>
<path fill="none" stroke="orange" d="M1545.57,-391.22C1569.52,-391.22 1595.42,-391.22 1620.53,-391.22"/>
</g>
<!-- C_API&#45;&#45;C_FEDORA -->
<g id="edge19" class="edge">
<title>C_API&#45;&#45;C_FEDORA</title>
<path fill="none" stroke="orange" d="M957.89,-348.95C1061.64,-357.99 1233.06,-372.94 1341.82,-382.42"/>
</g>
<!-- C_API&#45;&#45;C_MARIADB_PHAIDRA -->
<g id="edge20" class="edge">
<title>C_API&#45;&#45;C_MARIADB_PHAIDRA</title>
<path fill="none" stroke="orange" d="M957.76,-336.52C1041.63,-331.56 1171.02,-322.59 1282.72,-309.22 1301.16,-307.01 1320.73,-304.21 1339.62,-301.27"/>
</g>
<!-- C_API&#45;&#45;C_MONGODB_PHAIDRA -->
<g id="edge21" class="edge">
<title>C_API&#45;&#45;C_MONGODB_PHAIDRA</title>
<path fill="none" stroke="orange" d="M957.84,-358.27C1050.72,-370.63 1195.09,-373.43 1282.72,-294.22 1313.76,-266.16 1272.79,-231.45 1302.72,-202.22 1306.09,-198.93 1309.72,-195.98 1313.57,-193.34"/>
</g>
<!-- C_UI -->
<g id="node20" class="node">
<title>C_UI</title>
<g id="a_node20"><a xlink:href="https://github.com/phaidra/phaidra-ui" xlink:title="phaidra&#45;ssl&#45;nginx&#45;ui&#45;1">
<polygon fill="none" stroke="green" points="1528.72,-119.22 1358.72,-119.22 1358.72,-115.22 1354.72,-115.22 1354.72,-111.22 1358.72,-111.22 1358.72,-91.22 1354.72,-91.22 1354.72,-87.22 1358.72,-87.22 1358.72,-83.22 1528.72,-83.22 1528.72,-119.22"/>
<polyline fill="none" stroke="green" points="1358.72,-115.22 1362.72,-115.22 1362.72,-111.22 1358.72,-111.22 "/>
<polyline fill="none" stroke="green" points="1358.72,-91.22 1362.72,-91.22 1362.72,-87.22 1358.72,-87.22 "/>
<text text-anchor="middle" x="1443.72" y="-97.52" font-family="Times,serif" font-size="14.00">phaidra&#45;ssl&#45;nginx&#45;ui&#45;1</text>
</a>
</g>
</g>
<!-- C_API&#45;&#45;C_UI -->
<g id="edge22" class="edge">
<title>C_API&#45;&#45;C_UI</title>
<path fill="none" stroke="orange" d="M956.93,-359.27C1050.78,-372.99 1197.59,-377.41 1282.72,-294.22 1329.56,-248.44 1260.96,-198.67 1302.72,-148.22 1316.86,-131.13 1337.43,-120.23 1358.47,-113.28"/>
</g>
<!-- C_API&#45;&#45;C_OPENLDAP -->
<g id="edge23" class="edge">
<title>C_API&#45;&#45;C_OPENLDAP</title>
<path fill="none" stroke="orange" d="M957.89,-340.6C1058.74,-339.89 1223.51,-338.75 1332.53,-337.99"/>
</g>
<!-- C_API&#45;&#45;C_SOLR -->
<g id="edge24" class="edge">
<title>C_API&#45;&#45;C_SOLR</title>
<path fill="none" stroke="orange" d="M954.45,-359.24C1045.13,-373.28 1188.26,-380.08 1282.72,-309.22 1302.86,-294.11 1283.47,-272.44 1302.72,-256.22 1316.54,-244.57 1333.86,-237.37 1351.56,-233.03"/>
</g>
<!-- C_API&#45;&#45;C_IMAGESERVER -->
<g id="edge25" class="edge">
<title>C_API&#45;&#45;C_IMAGESERVER</title>
<path fill="none" stroke="orange" d="M957.89,-357.3C1062.12,-376.2 1234.62,-407.48 1343.3,-427.19"/>
</g>
<!-- C_MONGODB_PHAIDRA&#45;&#45;C_PIXELGECKO -->
<g id="edge26" class="edge">
<title>C_MONGODB_PHAIDRA&#45;&#45;C_PIXELGECKO</title>
<path fill="none" stroke="orange" d="M1574.38,-193.35C1578.06,-195.99 1581.53,-198.94 1584.72,-202.22 1652.66,-271.9 1553.17,-348.15 1620.72,-418.22 1625.59,-423.27 1631.13,-427.51 1637.12,-431.05"/>
</g>
<!-- C_LAM -->
<g id="node26" class="node">
<title>C_LAM</title>
<polygon fill="none" stroke="green" points="1845.22,-227.22 1662.22,-227.22 1662.22,-223.22 1658.22,-223.22 1658.22,-219.22 1662.22,-219.22 1662.22,-199.22 1658.22,-199.22 1658.22,-195.22 1662.22,-195.22 1662.22,-191.22 1845.22,-191.22 1845.22,-227.22"/>
<polyline fill="none" stroke="green" points="1662.22,-223.22 1666.22,-223.22 1666.22,-219.22 1662.22,-219.22 "/>
<polyline fill="none" stroke="green" points="1662.22,-199.22 1666.22,-199.22 1666.22,-195.22 1662.22,-195.22 "/>
<text text-anchor="middle" x="1753.72" y="-205.52" font-family="Times,serif" font-size="14.00">phaidra&#45;ssl&#45;nginx&#45;lam&#45;1</text>
</g>
<!-- C_OPENLDAP&#45;&#45;C_LAM -->
<g id="edge27" class="edge">
<title>C_OPENLDAP&#45;&#45;C_LAM</title>
<path fill="none" stroke="orange" d="M1555.05,-319.76C1565.21,-317.01 1575.24,-313.85 1584.72,-310.22 1639.86,-289.09 1697.43,-250.21 1728.8,-227.34"/>
</g>
<!-- C_DBGATE&#45;&#45;C_MARIADB_PHAIDRA -->
<g id="edge28" class="edge">
<title>C_DBGATE&#45;&#45;C_MARIADB_PHAIDRA</title>
<path fill="none" stroke="orange" d="M971.42,-270.07C1064.73,-272.67 1203.37,-276.54 1306.15,-279.41"/>
</g>
<!-- C_DBGATE&#45;&#45;C_MONGODB_PHAIDRA -->
<g id="edge29" class="edge">
<title>C_DBGATE&#45;&#45;C_MONGODB_PHAIDRA</title>
<path fill="none" stroke="orange" d="M971.42,-250.82C1072.22,-234.65 1225.91,-210 1330.16,-193.27"/>
</g>
<!-- C_DBGATE&#45;&#45;C_MARIADB_FEDORA -->
<g id="edge30" class="edge">
<title>C_DBGATE&#45;&#45;C_MARIADB_FEDORA</title>
<path fill="none" stroke="orange" d="M971.56,-262.7C1059.9,-254.64 1187.9,-232.64 1282.72,-173.22 1294.78,-165.66 1289.9,-154.38 1302.72,-148.22 1330.96,-134.64 1558.71,-130.75 1584.72,-148.22 1619.81,-171.77 1598.75,-200.12 1620.72,-236.22 1653.99,-290.86 1706.2,-345.72 1733.94,-373.17"/>
</g>
<!-- WEBSERVER&#45;&#45;BIND_NGINX_SITE_CONFIG -->
<g id="edge15" class="edge">
<title>WEBSERVER&#45;&#45;BIND_NGINX_SITE_CONFIG</title>
<path fill="none" stroke="blue" d="M337.34,-359.3C340.28,-413.67 357.13,-576.38 453.72,-649.22 504.05,-687.17 568.29,-703.27 631.04,-708.02"/>
</g>
<!-- WEBSERVER&#45;&#45;BIND_NGINX_SERVER_CONFIG -->
<g id="edge16" class="edge">
<title>WEBSERVER&#45;&#45;BIND_NGINX_SERVER_CONFIG</title>
<path fill="none" stroke="blue" d="M339.52,-359.45C347.64,-405.39 375.78,-525.99 453.72,-579.22 494.25,-606.9 542.49,-622.32 591.47,-630.06"/>
</g>
<!-- WEBSERVER&#45;&#45;BIND_NGINX_CERTS -->
<g id="edge17" class="edge">
<title>WEBSERVER&#45;&#45;BIND_NGINX_CERTS</title>
<path fill="none" stroke="blue" d="M344.27,-359.4C359.4,-393.3 396.95,-465.67 453.72,-498.22 536.75,-545.82 644.6,-556.47 729.34,-555.66"/>
</g>
<!-- WEBSERVER&#45;&#45;C_FEDORA -->
<g id="edge31" class="edge">
<title>WEBSERVER&#45;&#45;C_FEDORA</title>
<path fill="none" stroke="magenta" d="M404.36,-359.28C420.43,-362.89 437.59,-366.19 453.72,-368.22 776.43,-408.77 1162.9,-401.91 1342.2,-395.6"/>
</g>
<!-- WEBSERVER&#45;&#45;C_API -->
<g id="edge32" class="edge">
<title>WEBSERVER&#45;&#45;C_API</title>
<path fill="none" stroke="magenta" d="M434.02,-341.22C532.44,-341.22 683.24,-341.22 778.47,-341.22"/>
</g>
<!-- WEBSERVER&#45;&#45;C_UI -->
<g id="edge33" class="edge">
<title>WEBSERVER&#45;&#45;C_UI</title>
<path fill="none" stroke="magenta" d="M351.61,-323.11C371.99,-299.69 410.96,-259.62 453.72,-240.22 764.59,-99.19 1182.24,-92.87 1358.57,-97.47"/>
</g>
<!-- WEBSERVER&#45;&#45;C_SOLR -->
<g id="edge34" class="edge">
<title>WEBSERVER&#45;&#45;C_SOLR</title>
<path fill="none" stroke="magenta" d="M404.36,-323.16C420.43,-319.55 437.59,-316.25 453.72,-314.22 499.43,-308.45 1243.57,-318.5 1282.72,-294.22 1298.94,-284.16 1287.4,-267.59 1302.72,-256.22 1316.93,-245.67 1334.13,-238.91 1351.53,-234.64"/>
</g>
<!-- WEBSERVER&#45;&#45;C_DBGATE -->
<g id="edge35" class="edge">
<title>WEBSERVER&#45;&#45;C_DBGATE</title>
<path fill="none" stroke="magenta" d="M378.44,-323.17C400.42,-314.45 428.08,-304.71 453.72,-299.22 558.28,-276.83 680.67,-269.65 765.03,-267.56"/>
</g>
<!-- WEBSERVER&#45;&#45;C_LAM -->
<g id="edge36" class="edge">
<title>WEBSERVER&#45;&#45;C_LAM</title>
<path fill="none" stroke="magenta" d="M338.88,-322.92C345.61,-275.02 371.02,-145.97 453.72,-92.22 664.48,44.77 1347.62,9.24 1584.72,-74.22 1651.43,-97.7 1711.21,-160.09 1737.93,-191.14"/>
</g>
</g>
</svg>
