<?xml version="1.0" encoding="UTF-8" standalone="no"?>
<!DOCTYPE svg PUBLIC "-//W3C//DTD SVG 1.1//EN"
 "http://www.w3.org/Graphics/SVG/1.1/DTD/svg11.dtd">
<!-- Generated by graphviz version 2.43.0 (0)
 -->
<!-- Title: G Pages: 1 -->
<svg width="3068pt" height="487pt"
 viewBox="0.00 0.00 3067.86 487.00" xmlns="http://www.w3.org/2000/svg" xmlns:xlink="http://www.w3.org/1999/xlink">
<g id="graph0" class="graph" transform="scale(1 1) rotate(0) translate(4 483)">
<title>G</title>
<polygon fill="white" stroke="transparent" points="-4,4 -4,-483 3063.86,-483 3063.86,4 -4,4"/>
<g id="clust1" class="cluster">
<title>cluster_host</title>
<polygon fill="none" stroke="red" points="211.86,-8 211.86,-471 3051.86,-471 3051.86,-8 211.86,-8"/>
<text text-anchor="middle" x="1631.86" y="-455.8" font-family="Times,serif" font-size="14.00">PHAIDRA server firewall</text>
</g>
<g id="clust2" class="cluster">
<title>cluster_host_storage</title>
<polygon fill="none" stroke="blue" points="433.86,-365 433.86,-440 3043.86,-440 3043.86,-365 433.86,-365"/>
<text text-anchor="middle" x="1738.86" y="-424.8" font-family="Times,serif" font-size="14.00">PHAIDRA server mounted directories</text>
</g>
<g id="clust3" class="cluster">
<title>cluster_docker_network_host</title>
<polygon fill="none" stroke="green" points="496.86,-16 496.86,-357 2909.86,-357 2909.86,-16 496.86,-16"/>
<text text-anchor="middle" x="1703.36" y="-341.8" font-family="Times,serif" font-size="14.00">PHAIDRA docker network</text>
</g>
<g id="clust4" class="cluster">
<title>cluster_docker_phaidra_system</title>
<polygon fill="none" stroke="green" points="745.86,-24 745.86,-243 1530.86,-243 1530.86,-24 745.86,-24"/>
<text text-anchor="middle" x="1138.36" y="-227.8" font-family="Times,serif" font-size="14.00">PHAIDRA container system</text>
</g>
<g id="clust5" class="cluster">
<title>cluster_docker_network_volumes</title>
<polygon fill="none" stroke="green" points="504.86,-251 504.86,-326 2901.86,-326 2901.86,-251 504.86,-251"/>
<text text-anchor="middle" x="1703.36" y="-310.8" font-family="Times,serif" font-size="14.00">PHAIDRA container volumes</text>
</g>
<!-- USER -->
<g id="node1" class="node">
<title>USER</title>
<polygon fill="none" stroke="black" points="193.59,-383.54 193.59,-398.46 139.27,-409 62.45,-409 8.13,-398.46 8.13,-383.54 62.45,-373 139.27,-373 193.59,-383.54"/>
<polygon fill="none" stroke="black" points="197.59,-380.25 197.59,-401.75 139.66,-413 62.07,-413 4.13,-401.75 4.13,-380.25 62.07,-369 139.66,-369 197.59,-380.25"/>
<polygon fill="none" stroke="black" points="201.58,-376.95 201.58,-405.05 140.04,-417 61.68,-417 0.14,-405.05 0.14,-376.95 61.68,-365 140.04,-365 201.58,-376.95"/>
<text text-anchor="middle" x="100.86" y="-387.3" font-family="Times,serif" font-size="14.00">PHAIDRA USER</text>
</g>
<!-- WEBSERVER -->
<g id="node3" class="node">
<title>WEBSERVER</title>
<polygon fill="none" stroke="magenta" points="488.86,-295 396.86,-295 396.86,-291 392.86,-291 392.86,-287 396.86,-287 396.86,-267 392.86,-267 392.86,-263 396.86,-263 396.86,-259 488.86,-259 488.86,-295"/>
<polyline fill="none" stroke="magenta" points="396.86,-291 400.86,-291 400.86,-287 396.86,-287 "/>
<polyline fill="none" stroke="magenta" points="396.86,-267 400.86,-267 400.86,-263 396.86,-263 "/>
<text text-anchor="middle" x="442.86" y="-273.3" font-family="Times,serif" font-size="14.00">Webserver</text>
</g>
<!-- USER&#45;&#45;WEBSERVER -->
<g id="edge48" class="edge">
<title>USER&#45;&#45;WEBSERVER</title>
<path fill="none" stroke="red" d="M163.59,-369.46C230.99,-347.39 336.5,-312.83 396.69,-293.12"/>
</g>
<!-- ADMIN -->
<g id="node2" class="node">
<title>ADMIN</title>
<polygon fill="none" stroke="black" points="420.34,-383.54 420.34,-398.46 362.65,-409 281.07,-409 223.38,-398.46 223.38,-383.54 281.07,-373 362.65,-373 420.34,-383.54"/>
<polygon fill="none" stroke="black" points="424.34,-380.21 424.34,-401.79 363.01,-413 280.71,-413 219.38,-401.79 219.38,-380.21 280.71,-369 363.01,-369 424.34,-380.21"/>
<text text-anchor="middle" x="321.86" y="-387.3" font-family="Times,serif" font-size="14.00">Developer/Admin</text>
</g>
<!-- DPS1 -->
<g id="node16" class="node">
<title>DPS1</title>
<g id="a_node16"><a xlink:href="https://fedora.lyrasis.org/" xlink:title="fedora">
<polygon fill="none" stroke="green" points="979.86,-140 917.86,-140 917.86,-136 913.86,-136 913.86,-132 917.86,-132 917.86,-112 913.86,-112 913.86,-108 917.86,-108 917.86,-104 979.86,-104 979.86,-140"/>
<polyline fill="none" stroke="green" points="917.86,-136 921.86,-136 921.86,-132 917.86,-132 "/>
<polyline fill="none" stroke="green" points="917.86,-112 921.86,-112 921.86,-108 917.86,-108 "/>
<text text-anchor="middle" x="948.86" y="-118.3" font-family="Times,serif" font-size="14.00">fedora</text>
</a>
</g>
</g>
<!-- WEBSERVER&#45;&#45;DPS1 -->
<g id="edge42" class="edge">
<title>WEBSERVER&#45;&#45;DPS1</title>
<path fill="none" stroke="magenta" d="M477.15,-258.9C484.79,-255.75 492.97,-252.87 500.86,-251 559.78,-237.03 579.14,-261.3 636.86,-243 690.71,-225.93 692.52,-197.25 744.86,-176 814,-147.93 837.77,-162.69 908.86,-140 911.74,-139.08 914.69,-138.04 917.63,-136.92"/>
</g>
<!-- DPS2 -->
<g id="node17" class="node">
<title>DPS2</title>
<g id="a_node17"><a xlink:href="https://github.com/phaidra/phaidra-api" xlink:title="api">
<polygon fill="none" stroke="green" points="937.86,-212 883.86,-212 883.86,-208 879.86,-208 879.86,-204 883.86,-204 883.86,-184 879.86,-184 879.86,-180 883.86,-180 883.86,-176 937.86,-176 937.86,-212"/>
<polyline fill="none" stroke="green" points="883.86,-208 887.86,-208 887.86,-204 883.86,-204 "/>
<polyline fill="none" stroke="green" points="883.86,-184 887.86,-184 887.86,-180 883.86,-180 "/>
<text text-anchor="middle" x="910.86" y="-190.3" font-family="Times,serif" font-size="14.00">api</text>
</a>
</g>
</g>
<!-- WEBSERVER&#45;&#45;DPS2 -->
<g id="edge43" class="edge">
<title>WEBSERVER&#45;&#45;DPS2</title>
<path fill="none" stroke="magenta" d="M476.49,-258.95C484.3,-255.71 492.72,-252.78 500.86,-251 572.08,-235.4 758.73,-262.94 828.86,-243 850.76,-236.77 872.88,-223.31 888.61,-212.23"/>
</g>
<!-- DPS5 -->
<g id="node20" class="node">
<title>DPS5</title>
<g id="a_node20"><a xlink:href="https://github.com/phaidra/phaidra-ui" xlink:title="ui">
<polygon fill="none" stroke="green" points="827.86,-140 773.86,-140 773.86,-136 769.86,-136 769.86,-132 773.86,-132 773.86,-112 769.86,-112 769.86,-108 773.86,-108 773.86,-104 827.86,-104 827.86,-140"/>
<polyline fill="none" stroke="green" points="773.86,-136 777.86,-136 777.86,-132 773.86,-132 "/>
<polyline fill="none" stroke="green" points="773.86,-112 777.86,-112 777.86,-108 773.86,-108 "/>
<text text-anchor="middle" x="800.86" y="-118.3" font-family="Times,serif" font-size="14.00">ui</text>
</a>
</g>
</g>
<!-- WEBSERVER&#45;&#45;DPS5 -->
<g id="edge44" class="edge">
<title>WEBSERVER&#45;&#45;DPS5</title>
<path fill="none" stroke="magenta" d="M473.23,-258.82C512.09,-237.33 581.93,-200.41 644.86,-176 698.76,-155.09 716.41,-162.03 769.86,-140 771.11,-139.49 772.37,-138.93 773.64,-138.35"/>
</g>
<!-- DPS7 -->
<g id="node22" class="node">
<title>DPS7</title>
<g id="a_node22"><a xlink:href="https://solr.apache.org/" xlink:title="solr">
<polygon fill="none" stroke="green" points="899.86,-140 845.86,-140 845.86,-136 841.86,-136 841.86,-132 845.86,-132 845.86,-112 841.86,-112 841.86,-108 845.86,-108 845.86,-104 899.86,-104 899.86,-140"/>
<polyline fill="none" stroke="green" points="845.86,-136 849.86,-136 849.86,-132 845.86,-132 "/>
<polyline fill="none" stroke="green" points="845.86,-112 849.86,-112 849.86,-108 845.86,-108 "/>
<text text-anchor="middle" x="872.86" y="-118.3" font-family="Times,serif" font-size="14.00">solr</text>
</a>
</g>
</g>
<!-- WEBSERVER&#45;&#45;DPS7 -->
<g id="edge45" class="edge">
<title>WEBSERVER&#45;&#45;DPS7</title>
<path fill="none" stroke="magenta" d="M477.84,-258.9C485.29,-255.84 493.22,-252.99 500.86,-251 534.59,-242.22 545.9,-254.32 578.86,-243 631.93,-224.77 634.11,-197.68 685.86,-176 749.49,-149.34 771.76,-162.85 836.86,-140 839.73,-138.99 842.68,-137.83 845.59,-136.59"/>
</g>
<!-- DPS10 -->
<g id="node25" class="node">
<title>DPS10</title>
<polygon fill="none" stroke="green" points="819.86,-212 753.86,-212 753.86,-208 749.86,-208 749.86,-204 753.86,-204 753.86,-184 749.86,-184 749.86,-180 753.86,-180 753.86,-176 819.86,-176 819.86,-212"/>
<polyline fill="none" stroke="green" points="753.86,-208 757.86,-208 757.86,-204 753.86,-204 "/>
<polyline fill="none" stroke="green" points="753.86,-184 757.86,-184 757.86,-180 753.86,-180 "/>
<text text-anchor="middle" x="786.86" y="-190.3" font-family="Times,serif" font-size="14.00">dbgate</text>
</g>
<!-- WEBSERVER&#45;&#45;DPS10 -->
<g id="edge46" class="edge">
<title>WEBSERVER&#45;&#45;DPS10</title>
<path fill="none" stroke="magenta" d="M476.5,-258.99C484.31,-255.76 492.73,-252.81 500.86,-251 527.88,-244.97 725.22,-255.61 749.86,-243 762.6,-236.48 772.25,-223.34 778.49,-212.45"/>
</g>
<!-- DPS11 -->
<g id="node26" class="node">
<title>DPS11</title>
<polygon fill="none" stroke="green" points="837.86,-68 783.86,-68 783.86,-64 779.86,-64 779.86,-60 783.86,-60 783.86,-40 779.86,-40 779.86,-36 783.86,-36 783.86,-32 837.86,-32 837.86,-68"/>
<polyline fill="none" stroke="green" points="783.86,-64 787.86,-64 787.86,-60 783.86,-60 "/>
<polyline fill="none" stroke="green" points="783.86,-40 787.86,-40 787.86,-36 783.86,-36 "/>
<text text-anchor="middle" x="810.86" y="-46.3" font-family="Times,serif" font-size="14.00">lam</text>
</g>
<!-- WEBSERVER&#45;&#45;DPS11 -->
<g id="edge47" class="edge">
<title>WEBSERVER&#45;&#45;DPS11</title>
<path fill="none" stroke="magenta" d="M448.59,-258.83C456.74,-236.84 473.66,-198.86 499.86,-176 586.68,-100.25 725.24,-66.9 783.57,-55.68"/>
</g>
<!-- HS1 -->
<g id="node4" class="node">
<title>HS1</title>
<polygon fill="none" stroke="blue" points="1439.86,-409 1436.86,-413 1415.86,-413 1412.86,-409 1287.86,-409 1287.86,-373 1439.86,-373 1439.86,-409"/>
<text text-anchor="middle" x="1363.86" y="-387.3" font-family="Times,serif" font-size="14.00">${FEDORA_DATA}</text>
</g>
<!-- DPV1 -->
<g id="node28" class="node">
<title>DPV1</title>
<polygon fill="none" stroke="green" points="1524.36,-295 1521.36,-299 1500.36,-299 1497.36,-295 1295.36,-295 1295.36,-259 1524.36,-259 1524.36,-295"/>
<text text-anchor="middle" x="1409.86" y="-273.3" font-family="Times,serif" font-size="14.00">/usr/local/tomcat/fcrepo&#45;home</text>
</g>
<!-- HS1&#45;&#45;DPV1 -->
<g id="edge2" class="edge">
<title>HS1&#45;&#45;DPV1</title>
<path fill="none" stroke="blue" d="M1370.85,-372.99C1379.49,-351.94 1394.13,-316.3 1402.81,-295.17"/>
</g>
<!-- HS2 -->
<g id="node5" class="node">
<title>HS2</title>
<polygon fill="none" stroke="blue" points="851.36,-409 848.36,-413 827.36,-413 824.36,-409 612.36,-409 612.36,-373 851.36,-373 851.36,-409"/>
<text text-anchor="middle" x="731.86" y="-387.3" font-family="Times,serif" font-size="14.00">./mariadb_init/phaidradb.sql.gz</text>
</g>
<!-- DPV2 -->
<g id="node29" class="node">
<title>DPV2</title>
<polygon fill="none" stroke="green" points="770.86,-295 767.86,-299 746.86,-299 743.86,-295 640.86,-295 640.86,-259 770.86,-259 770.86,-295"/>
<text text-anchor="middle" x="705.86" y="-273.3" font-family="Times,serif" font-size="14.00">/var/log/phaidra</text>
</g>
<!-- HS2&#45;&#45;DPV2 -->
<g id="edge5" class="edge">
<title>HS2&#45;&#45;DPV2</title>
<path fill="none" stroke="blue" d="M727.91,-372.99C723.03,-351.94 714.75,-316.3 709.85,-295.17"/>
</g>
<!-- HS3 -->
<g id="node6" class="node">
<title>HS3</title>
<polygon fill="none" stroke="blue" points="1269.86,-409 1266.86,-413 1245.86,-413 1242.86,-409 1017.86,-409 1017.86,-373 1269.86,-373 1269.86,-409"/>
<text text-anchor="middle" x="1143.86" y="-387.3" font-family="Times,serif" font-size="14.00">${FEDORA_DATA}/data/ocfl&#45;root</text>
</g>
<!-- DPV3 -->
<g id="node30" class="node">
<title>DPV3</title>
<polygon fill="none" stroke="green" points="976.86,-295 973.86,-299 952.86,-299 949.86,-295 788.86,-295 788.86,-259 976.86,-259 976.86,-295"/>
<text text-anchor="middle" x="882.86" y="-273.3" font-family="Times,serif" font-size="14.00">/mnt/fedora_ocfl_root:ro</text>
</g>
<!-- HS3&#45;&#45;DPV3 -->
<g id="edge6" class="edge">
<title>HS3&#45;&#45;DPV3</title>
<path fill="none" stroke="blue" d="M1044.76,-372.92C1020,-367.83 997.26,-362.23 985.86,-357 952.27,-341.59 919.44,-313.5 900.19,-295.3"/>
</g>
<!-- DPV11 -->
<g id="node38" class="node">
<title>DPV11</title>
<polygon fill="none" stroke="green" points="1276.86,-295 1273.86,-299 1252.86,-299 1249.86,-295 1088.86,-295 1088.86,-259 1276.86,-259 1276.86,-295"/>
<text text-anchor="middle" x="1182.86" y="-273.3" font-family="Times,serif" font-size="14.00">/mnt/fedora_ocfl_root:ro</text>
</g>
<!-- HS3&#45;&#45;DPV11 -->
<g id="edge23" class="edge">
<title>HS3&#45;&#45;DPV11</title>
<path fill="none" stroke="blue" d="M1149.78,-372.99C1157.11,-351.94 1169.53,-316.3 1176.88,-295.17"/>
</g>
<!-- HS4 -->
<g id="node7" class="node">
<title>HS4</title>
<polygon fill="none" stroke="blue" points="1954.36,-409 1951.36,-413 1930.36,-413 1927.36,-409 1715.36,-409 1715.36,-373 1954.36,-373 1954.36,-409"/>
<text text-anchor="middle" x="1834.86" y="-387.3" font-family="Times,serif" font-size="14.00">./mariadb_init/phaidradb.sql.gz</text>
</g>
<!-- DPV4 -->
<g id="node31" class="node">
<title>DPV4</title>
<polygon fill="none" stroke="green" points="1986.86,-295 1983.86,-299 1962.86,-299 1959.86,-295 1634.86,-295 1634.86,-259 1986.86,-259 1986.86,-295"/>
<text text-anchor="middle" x="1810.86" y="-273.3" font-family="Times,serif" font-size="14.00">/docker&#45;entrypoint&#45;initdb.d/phaidradb.sql.gz:ro</text>
</g>
<!-- HS4&#45;&#45;DPV4 -->
<g id="edge9" class="edge">
<title>HS4&#45;&#45;DPV4</title>
<path fill="none" stroke="blue" d="M1831.22,-372.99C1826.71,-351.94 1819.07,-316.3 1814.54,-295.17"/>
</g>
<!-- HS5 -->
<g id="node8" class="node">
<title>HS5</title>
<polygon fill="none" stroke="blue" points="2151.36,-409 2148.36,-413 2127.36,-413 2124.36,-409 1972.36,-409 1972.36,-373 2151.36,-373 2151.36,-409"/>
<text text-anchor="middle" x="2061.86" y="-387.3" font-family="Times,serif" font-size="14.00">${PHAIDRADB_DATA}</text>
</g>
<!-- DPV5 -->
<g id="node32" class="node">
<title>DPV5</title>
<polygon fill="none" stroke="green" points="2118.86,-295 2115.86,-299 2094.86,-299 2091.86,-295 2004.86,-295 2004.86,-259 2118.86,-259 2118.86,-295"/>
<text text-anchor="middle" x="2061.86" y="-273.3" font-family="Times,serif" font-size="14.00">/var/lib/mysql</text>
</g>
<!-- HS5&#45;&#45;DPV5 -->
<g id="edge10" class="edge">
<title>HS5&#45;&#45;DPV5</title>
<path fill="none" stroke="blue" d="M2061.86,-372.99C2061.86,-351.94 2061.86,-316.3 2061.86,-295.17"/>
</g>
<!-- HS6 -->
<g id="node9" class="node">
<title>HS6</title>
<polygon fill="none" stroke="blue" points="1697.36,-409 1694.36,-413 1673.36,-413 1670.36,-409 1458.36,-409 1458.36,-373 1697.36,-373 1697.36,-409"/>
<text text-anchor="middle" x="1577.86" y="-387.3" font-family="Times,serif" font-size="14.00">${MONGOPHAIDRADB_DATA}</text>
</g>
<!-- DPV6 -->
<g id="node33" class="node">
<title>DPV6</title>
<polygon fill="none" stroke="green" points="1617.36,-295 1614.36,-299 1593.36,-299 1590.36,-295 1542.36,-295 1542.36,-259 1617.36,-259 1617.36,-295"/>
<text text-anchor="middle" x="1579.86" y="-273.3" font-family="Times,serif" font-size="14.00">/data/db</text>
</g>
<!-- HS6&#45;&#45;DPV6 -->
<g id="edge12" class="edge">
<title>HS6&#45;&#45;DPV6</title>
<path fill="none" stroke="blue" d="M1578.16,-372.99C1578.54,-351.94 1579.18,-316.3 1579.55,-295.17"/>
</g>
<!-- HS7 -->
<g id="node10" class="node">
<title>HS7</title>
<polygon fill="none" stroke="blue" points="2342.36,-409 2339.36,-413 2318.36,-413 2315.36,-409 2169.36,-409 2169.36,-373 2342.36,-373 2342.36,-409"/>
<text text-anchor="middle" x="2255.86" y="-387.3" font-family="Times,serif" font-size="14.00">${OPENLDAP_DATA}</text>
</g>
<!-- DPV7 -->
<g id="node34" class="node">
<title>DPV7</title>
<polygon fill="none" stroke="green" points="2282.86,-295 2279.86,-299 2258.86,-299 2255.86,-295 2136.86,-295 2136.86,-259 2282.86,-259 2282.86,-295"/>
<text text-anchor="middle" x="2209.86" y="-273.3" font-family="Times,serif" font-size="14.00">/bitnami/openldap</text>
</g>
<!-- HS7&#45;&#45;DPV7 -->
<g id="edge15" class="edge">
<title>HS7&#45;&#45;DPV7</title>
<path fill="none" stroke="blue" d="M2248.87,-372.99C2240.23,-351.94 2225.59,-316.3 2216.91,-295.17"/>
</g>
<!-- HS8 -->
<g id="node11" class="node">
<title>HS8</title>
<polygon fill="none" stroke="blue" points="2581.36,-409 2578.36,-413 2557.36,-413 2554.36,-409 2360.36,-409 2360.36,-373 2581.36,-373 2581.36,-409"/>
<text text-anchor="middle" x="2470.86" y="-387.3" font-family="Times,serif" font-size="14.00">./container_configs/openldap</text>
</g>
<!-- DPV8 -->
<g id="node35" class="node">
<title>DPV8</title>
<polygon fill="none" stroke="green" points="2372.36,-295 2369.36,-299 2348.36,-299 2345.36,-295 2301.36,-295 2301.36,-259 2372.36,-259 2372.36,-295"/>
<text text-anchor="middle" x="2336.86" y="-273.3" font-family="Times,serif" font-size="14.00">/ldifs:ro</text>
</g>
<!-- HS8&#45;&#45;DPV8 -->
<g id="edge16" class="edge">
<title>HS8&#45;&#45;DPV8</title>
<path fill="none" stroke="blue" d="M2407.49,-372.84C2398.29,-368.61 2389.4,-363.4 2381.86,-357 2362.25,-340.35 2349.37,-312.87 2342.6,-295.11"/>
</g>
<!-- HS9 -->
<g id="node12" class="node">
<title>HS9</title>
<polygon fill="none" stroke="blue" points="999.86,-409 996.86,-413 975.86,-413 972.86,-409 869.86,-409 869.86,-373 999.86,-373 999.86,-409"/>
<text text-anchor="middle" x="934.86" y="-387.3" font-family="Times,serif" font-size="14.00">${SOLR_DATA}</text>
</g>
<!-- DPV9 -->
<g id="node36" class="node">
<title>DPV9</title>
<polygon fill="none" stroke="green" points="1070.86,-295 1067.86,-299 1046.86,-299 1043.86,-295 994.86,-295 994.86,-259 1070.86,-259 1070.86,-295"/>
<text text-anchor="middle" x="1032.86" y="-273.3" font-family="Times,serif" font-size="14.00">/var/solr</text>
</g>
<!-- HS9&#45;&#45;DPV9 -->
<g id="edge18" class="edge">
<title>HS9&#45;&#45;DPV9</title>
<path fill="none" stroke="blue" d="M966.27,-372.92C973.19,-368.3 980.15,-362.92 985.86,-357 1003.57,-338.61 1017.5,-312.35 1025.46,-295.24"/>
</g>
<!-- HS10 -->
<g id="node13" class="node">
<title>HS10</title>
<polygon fill="none" stroke="blue" points="2843.86,-409 2840.86,-413 2819.86,-413 2816.86,-409 2599.86,-409 2599.86,-373 2843.86,-373 2843.86,-409"/>
<text text-anchor="middle" x="2721.86" y="-387.3" font-family="Times,serif" font-size="14.00">${PIXELGECKO_CONVERTED}</text>
</g>
<!-- DPV10 -->
<g id="node37" class="node">
<title>DPV10</title>
<polygon fill="none" stroke="green" points="2593.36,-295 2590.36,-299 2569.36,-299 2566.36,-295 2390.36,-295 2390.36,-259 2593.36,-259 2593.36,-295"/>
<text text-anchor="middle" x="2491.86" y="-273.3" font-family="Times,serif" font-size="14.00">/mnt/converted_images:ro</text>
</g>
<!-- HS10&#45;&#45;DPV10 -->
<g id="edge20" class="edge">
<title>HS10&#45;&#45;DPV10</title>
<path fill="none" stroke="blue" d="M2645.2,-372.99C2630.8,-368.61 2616.12,-363.32 2602.86,-357 2568.05,-340.42 2532.57,-312.93 2511.38,-295.14"/>
</g>
<!-- DPV12 -->
<g id="node39" class="node">
<title>DPV12</title>
<polygon fill="none" stroke="green" points="2893.86,-295 2890.86,-299 2869.86,-299 2866.86,-295 2743.86,-295 2743.86,-259 2893.86,-259 2893.86,-295"/>
<text text-anchor="middle" x="2818.86" y="-273.3" font-family="Times,serif" font-size="14.00">/converted_images</text>
</g>
<!-- HS10&#45;&#45;DPV12 -->
<g id="edge24" class="edge">
<title>HS10&#45;&#45;DPV12</title>
<path fill="none" stroke="blue" d="M2736.59,-372.99C2754.82,-351.94 2785.69,-316.3 2803.99,-295.17"/>
</g>
<!-- HS13 -->
<g id="node14" class="node">
<title>HS13</title>
<polygon fill="none" stroke="blue" points="593.86,-409 590.86,-413 569.86,-413 566.86,-409 441.86,-409 441.86,-373 593.86,-373 593.86,-409"/>
<text text-anchor="middle" x="517.86" y="-387.3" font-family="Times,serif" font-size="14.00">${DBGATE_DATA}</text>
</g>
<!-- DPV13 -->
<g id="node40" class="node">
<title>DPV13</title>
<polygon fill="none" stroke="green" points="622.36,-295 619.36,-299 598.36,-299 595.36,-295 513.36,-295 513.36,-259 622.36,-259 622.36,-295"/>
<text text-anchor="middle" x="567.86" y="-273.3" font-family="Times,serif" font-size="14.00">/root/.dbgate</text>
</g>
<!-- HS13&#45;&#45;DPV13 -->
<g id="edge26" class="edge">
<title>HS13&#45;&#45;DPV13</title>
<path fill="none" stroke="blue" d="M525.45,-372.99C534.85,-351.94 550.76,-316.3 560.2,-295.17"/>
</g>
<!-- HS15 -->
<g id="node15" class="node">
<title>HS15</title>
<polygon fill="none" stroke="blue" points="3035.86,-409 3032.86,-413 3011.86,-413 3008.86,-409 2861.86,-409 2861.86,-373 3035.86,-373 3035.86,-409"/>
<text text-anchor="middle" x="2948.86" y="-387.3" font-family="Times,serif" font-size="14.00">${FEDORADB_DATA}</text>
</g>
<!-- DPV15 -->
<g id="node41" class="node">
<title>DPV15</title>
<polygon fill="none" stroke="green" points="2725.86,-295 2722.86,-299 2701.86,-299 2698.86,-295 2611.86,-295 2611.86,-259 2725.86,-259 2725.86,-295"/>
<text text-anchor="middle" x="2668.86" y="-273.3" font-family="Times,serif" font-size="14.00">/var/lib/mysql</text>
</g>
<!-- HS15&#45;&#45;DPV15 -->
<g id="edge28" class="edge">
<title>HS15&#45;&#45;DPV15</title>
<path fill="none" stroke="blue" d="M2890.6,-372.97C2878.23,-369.88 2865.19,-367 2852.86,-365 2826.92,-360.78 2758.28,-368.93 2734.86,-357 2708.27,-343.45 2688.28,-313.96 2677.6,-295.09"/>
</g>
<!-- DPS13 -->
<g id="node27" class="node">
<title>DPS13</title>
<g id="a_node27"><a xlink:href="https://mariadb.org/" xlink:title="mariadb&#45;fedora">
<polygon fill="none" stroke="green" points="1011.86,-68 885.86,-68 885.86,-64 881.86,-64 881.86,-60 885.86,-60 885.86,-40 881.86,-40 881.86,-36 885.86,-36 885.86,-32 1011.86,-32 1011.86,-68"/>
<polyline fill="none" stroke="green" points="885.86,-64 889.86,-64 889.86,-60 885.86,-60 "/>
<polyline fill="none" stroke="green" points="885.86,-40 889.86,-40 889.86,-36 885.86,-36 "/>
<text text-anchor="middle" x="948.86" y="-46.3" font-family="Times,serif" font-size="14.00">mariadb&#45;fedora</text>
</a>
</g>
</g>
<!-- DPS1&#45;&#45;DPS13 -->
<g id="edge29" class="edge">
<title>DPS1&#45;&#45;DPS13</title>
<path fill="none" stroke="orange" d="M948.86,-103.7C948.86,-92.85 948.86,-78.92 948.86,-68.1"/>
</g>
<!-- DPS2&#45;&#45;DPS1 -->
<g id="edge30" class="edge">
<title>DPS2&#45;&#45;DPS1</title>
<path fill="none" stroke="orange" d="M920.25,-175.7C926.14,-164.85 933.71,-150.92 939.58,-140.1"/>
</g>
<!-- DPS3 -->
<g id="node18" class="node">
<title>DPS3</title>
<g id="a_node18"><a xlink:href="https://mariadb.org/" xlink:title="mariadb&#45;phaidra">
<polygon fill="none" stroke="green" points="1293.36,-140 1158.36,-140 1158.36,-136 1154.36,-136 1154.36,-132 1158.36,-132 1158.36,-112 1154.36,-112 1154.36,-108 1158.36,-108 1158.36,-104 1293.36,-104 1293.36,-140"/>
<polyline fill="none" stroke="green" points="1158.36,-136 1162.36,-136 1162.36,-132 1158.36,-132 "/>
<polyline fill="none" stroke="green" points="1158.36,-112 1162.36,-112 1162.36,-108 1158.36,-108 "/>
<text text-anchor="middle" x="1225.86" y="-118.3" font-family="Times,serif" font-size="14.00">mariadb&#45;phaidra</text>
</a>
</g>
</g>
<!-- DPS2&#45;&#45;DPS3 -->
<g id="edge31" class="edge">
<title>DPS2&#45;&#45;DPS3</title>
<path fill="none" stroke="orange" d="M937.99,-186.97C986.49,-176.19 1089.41,-153.32 1158.12,-138.05"/>
</g>
<!-- DPS4 -->
<g id="node19" class="node">
<title>DPS4</title>
<g id="a_node19"><a xlink:href="https://www.mongodb.com/" xlink:title="mongodb&#45;phaidra">
<polygon fill="none" stroke="green" points="1139.86,-140 997.86,-140 997.86,-136 993.86,-136 993.86,-132 997.86,-132 997.86,-112 993.86,-112 993.86,-108 997.86,-108 997.86,-104 1139.86,-104 1139.86,-140"/>
<polyline fill="none" stroke="green" points="997.86,-136 1001.86,-136 1001.86,-132 997.86,-132 "/>
<polyline fill="none" stroke="green" points="997.86,-112 1001.86,-112 1001.86,-108 997.86,-108 "/>
<text text-anchor="middle" x="1068.86" y="-118.3" font-family="Times,serif" font-size="14.00">mongodb&#45;phaidra</text>
</a>
</g>
</g>
<!-- DPS2&#45;&#45;DPS4 -->
<g id="edge32" class="edge">
<title>DPS2&#45;&#45;DPS4</title>
<path fill="none" stroke="orange" d="M938.02,-180.97C963.43,-169.71 1001.65,-152.77 1030.24,-140.11"/>
</g>
<!-- DPS2&#45;&#45;DPS5 -->
<g id="edge33" class="edge">
<title>DPS2&#45;&#45;DPS5</title>
<path fill="none" stroke="orange" d="M883.95,-175.88C866.91,-165.03 844.94,-151.05 827.87,-140.19"/>
</g>
<!-- DPS6 -->
<g id="node21" class="node">
<title>DPS6</title>
<g id="a_node21"><a xlink:href="https://www.openldap.org/" xlink:title="openldap">
<polygon fill="none" stroke="green" points="1393.86,-140 1311.86,-140 1311.86,-136 1307.86,-136 1307.86,-132 1311.86,-132 1311.86,-112 1307.86,-112 1307.86,-108 1311.86,-108 1311.86,-104 1393.86,-104 1393.86,-140"/>
<polyline fill="none" stroke="green" points="1311.86,-136 1315.86,-136 1315.86,-132 1311.86,-132 "/>
<polyline fill="none" stroke="green" points="1311.86,-112 1315.86,-112 1315.86,-108 1311.86,-108 "/>
<text text-anchor="middle" x="1352.86" y="-118.3" font-family="Times,serif" font-size="14.00">openldap</text>
</a>
</g>
</g>
<!-- DPS2&#45;&#45;DPS6 -->
<g id="edge34" class="edge">
<title>DPS2&#45;&#45;DPS6</title>
<path fill="none" stroke="orange" d="M938.28,-191.13C1002.65,-186.33 1168.16,-171.69 1302.86,-140 1305.81,-139.31 1308.82,-138.51 1311.84,-137.65"/>
</g>
<!-- DPS2&#45;&#45;DPS7 -->
<g id="edge35" class="edge">
<title>DPS2&#45;&#45;DPS7</title>
<path fill="none" stroke="orange" d="M901.47,-175.7C895.58,-164.85 888.02,-150.92 882.15,-140.1"/>
</g>
<!-- DPS8 -->
<g id="node23" class="node">
<title>DPS8</title>
<g id="a_node23"><a xlink:href="https://github.com/ruven/iipsrv" xlink:title="imageserver)">
<polygon fill="none" stroke="green" points="1523.36,-140 1412.36,-140 1412.36,-136 1408.36,-136 1408.36,-132 1412.36,-132 1412.36,-112 1408.36,-112 1408.36,-108 1412.36,-108 1412.36,-104 1523.36,-104 1523.36,-140"/>
<polyline fill="none" stroke="green" points="1412.36,-136 1416.36,-136 1416.36,-132 1412.36,-132 "/>
<polyline fill="none" stroke="green" points="1412.36,-112 1416.36,-112 1416.36,-108 1412.36,-108 "/>
<text text-anchor="middle" x="1467.86" y="-118.3" font-family="Times,serif" font-size="14.00">imageserver)</text>
</a>
</g>
</g>
<!-- DPS2&#45;&#45;DPS8 -->
<g id="edge36" class="edge">
<title>DPS2&#45;&#45;DPS8</title>
<path fill="none" stroke="orange" d="M938,-191.5C1012.67,-187.05 1227.31,-172.23 1402.86,-140 1405.96,-139.43 1409.13,-138.79 1412.31,-138.11"/>
</g>
<!-- DPS9 -->
<g id="node24" class="node">
<title>DPS9</title>
<polygon fill="none" stroke="green" points="1522.86,-68 1430.86,-68 1430.86,-64 1426.86,-64 1426.86,-60 1430.86,-60 1430.86,-40 1426.86,-40 1426.86,-36 1430.86,-36 1430.86,-32 1522.86,-32 1522.86,-68"/>
<polyline fill="none" stroke="green" points="1430.86,-64 1434.86,-64 1434.86,-60 1430.86,-60 "/>
<polyline fill="none" stroke="green" points="1430.86,-40 1434.86,-40 1434.86,-36 1430.86,-36 "/>
<text text-anchor="middle" x="1476.86" y="-46.3" font-family="Times,serif" font-size="14.00">pixelgecko</text>
</g>
<!-- DPS4&#45;&#45;DPS9 -->
<g id="edge37" class="edge">
<title>DPS4&#45;&#45;DPS9</title>
<path fill="none" stroke="orange" d="M1139.94,-105.89C1143.29,-105.24 1146.61,-104.6 1149.86,-104 1249.66,-85.45 1367.28,-67.29 1430.71,-57.79"/>
</g>
<!-- DPS6&#45;&#45;DPS11 -->
<g id="edge38" class="edge">
<title>DPS6&#45;&#45;DPS11</title>
<path fill="none" stroke="orange" d="M1311.61,-106.11C1308.67,-105.32 1305.73,-104.6 1302.86,-104 1116.87,-65.13 1064.19,-99.81 876.86,-68 863.91,-65.8 849.78,-62.31 837.93,-59.07"/>
</g>
<!-- DPS10&#45;&#45;DPS3 -->
<g id="edge39" class="edge">
<title>DPS10&#45;&#45;DPS3</title>
<path fill="none" stroke="orange" d="M820.21,-186.07C836.62,-182.78 856.74,-178.94 874.86,-176 996.1,-156.34 1027.89,-161.26 1148.86,-140 1151.96,-139.45 1155.13,-138.87 1158.32,-138.26"/>
</g>
<!-- DPS10&#45;&#45;DPS4 -->
<g id="edge40" class="edge">
<title>DPS10&#45;&#45;DPS4</title>
<path fill="none" stroke="orange" d="M820.04,-184.76C864.08,-173.83 942.94,-154.26 1000.1,-140.07"/>
</g>
<!-- DPS10&#45;&#45;DPS13 -->
<g id="edge41" class="edge">
<title>DPS10&#45;&#45;DPS13</title>
<path fill="none" stroke="orange" d="M774.94,-175.91C763.11,-156.64 748.88,-125.24 764.86,-104 779.6,-84.41 838.44,-69.8 885.67,-60.93"/>
</g>
<!-- DPV1&#45;&#45;DPS1 -->
<g id="edge1" class="edge">
<title>DPV1&#45;&#45;DPS1</title>
<path fill="none" stroke="green" d="M1335.42,-258.98C1319.17,-255.83 1302,-252.92 1285.86,-251 1262.9,-248.26 1099.22,-251.88 1077.86,-243 1025.32,-221.17 981.03,-167.71 960.74,-140.11"/>
</g>
<!-- DPV2&#45;&#45;DPS2 -->
<g id="edge3" class="edge">
<title>DPV2&#45;&#45;DPS2</title>
<path fill="none" stroke="green" d="M752.49,-258.96C761.5,-256.03 770.91,-253.23 779.86,-251 801.27,-245.67 808.1,-250.48 828.86,-243 849.66,-235.51 871.15,-222.71 886.91,-212.21"/>
</g>
<!-- DPV3&#45;&#45;DPS2 -->
<g id="edge4" class="edge">
<title>DPV3&#45;&#45;DPS2</title>
<path fill="none" stroke="green" d="M888.8,-258.82C893.55,-245.08 900.18,-225.89 904.93,-212.15"/>
</g>
<!-- DPV4&#45;&#45;DPS3 -->
<g id="edge7" class="edge">
<title>DPV4&#45;&#45;DPS3</title>
<path fill="none" stroke="green" d="M1699.66,-259C1675.7,-255.86 1650.47,-252.97 1626.86,-251 1598.39,-248.63 1396.57,-253.14 1369.86,-243 1313.27,-221.51 1262.9,-167.9 1239.58,-140.19"/>
</g>
<!-- DPV5&#45;&#45;DPS3 -->
<g id="edge8" class="edge">
<title>DPV5&#45;&#45;DPS3</title>
<path fill="none" stroke="green" d="M2023.43,-258.89C2014.54,-255.65 2005.01,-252.74 1995.86,-251 1934.4,-239.3 1492.83,-260.83 1432.86,-243 1379.44,-227.12 1375.13,-203.86 1326.86,-176 1305.08,-163.43 1280.05,-150.29 1260.36,-140.23"/>
</g>
<!-- DPV6&#45;&#45;DPS4 -->
<g id="edge11" class="edge">
<title>DPV6&#45;&#45;DPS4</title>
<path fill="none" stroke="green" d="M1553.5,-258.98C1547.29,-255.75 1540.53,-252.81 1533.86,-251 1480.43,-236.5 1338.22,-257.75 1284.86,-243 1207.75,-221.69 1128.35,-167.74 1090.93,-140.02"/>
</g>
<!-- DPV7&#45;&#45;DPS6 -->
<g id="edge13" class="edge">
<title>DPV7&#45;&#45;DPS6</title>
<path fill="none" stroke="green" d="M2160.9,-258.96C2150.13,-255.81 2138.71,-252.91 2127.86,-251 2062.11,-239.4 2044.18,-250.69 1977.86,-243 1720.4,-213.15 1655.01,-204.04 1403.86,-140 1400.61,-139.17 1397.26,-138.24 1393.91,-137.25"/>
</g>
<!-- DPV8&#45;&#45;DPS6 -->
<g id="edge14" class="edge">
<title>DPV8&#45;&#45;DPS6</title>
<path fill="none" stroke="green" d="M2309.5,-258.75C2303.84,-255.77 2297.79,-253 2291.86,-251 2070.59,-176.4 2003.67,-204.04 1771.86,-176 1608.71,-156.27 1564.6,-174.2 1403.86,-140 1400.67,-139.32 1397.39,-138.51 1394.12,-137.61"/>
</g>
<!-- DPV9&#45;&#45;DPS7 -->
<g id="edge17" class="edge">
<title>DPV9&#45;&#45;DPS7</title>
<path fill="none" stroke="green" d="M1020.27,-258.99C1004.42,-238.17 975.75,-202.43 946.86,-176 932.4,-162.77 914.59,-149.92 900.06,-140.19"/>
</g>
<!-- DPV10&#45;&#45;DPS8 -->
<g id="edge19" class="edge">
<title>DPV10&#45;&#45;DPS8</title>
<path fill="none" stroke="green" d="M2417.64,-258.95C2405.68,-256.26 2393.44,-253.53 2381.86,-251 2223.04,-216.32 2184.58,-200.42 2023.86,-176 1841.96,-148.36 1624.25,-132.58 1523.75,-126.26"/>
</g>
<!-- DPV11&#45;&#45;DPS9 -->
<g id="edge21" class="edge">
<title>DPV11&#45;&#45;DPS9</title>
<path fill="none" stroke="green" d="M1252.19,-258.95C1344.56,-234.66 1500.19,-187.75 1532.86,-140 1541.9,-126.8 1539.19,-118.7 1532.86,-104 1526.67,-89.61 1514.44,-77.31 1502.99,-68.18"/>
</g>
<!-- DPV12&#45;&#45;DPS9 -->
<g id="edge22" class="edge">
<title>DPV12&#45;&#45;DPS9</title>
<path fill="none" stroke="green" d="M2797.81,-258.95C2751.37,-222.49 2635.27,-137.57 2521.86,-104 2425.35,-75.43 1712.74,-56.61 1523.11,-52.06"/>
</g>
<!-- DPV13&#45;&#45;DPS10 -->
<g id="edge25" class="edge">
<title>DPV13&#45;&#45;DPS10</title>
<path fill="none" stroke="green" d="M605.85,-258.98C614.26,-255.83 623.25,-252.93 631.86,-251 657.51,-245.26 726.68,-255.39 749.86,-243 762.48,-236.25 772.13,-223.13 778.41,-212.31"/>
</g>
<!-- DPV15&#45;&#45;DPS13 -->
<g id="edge27" class="edge">
<title>DPV15&#45;&#45;DPS13</title>
<path fill="none" stroke="green" d="M2627.35,-258.95C2619.31,-256.03 2610.89,-253.22 2602.86,-251 2420.95,-200.69 2371.66,-203.04 2184.86,-176 1737.68,-111.27 1194.64,-68.77 1012.12,-55.47"/>
</g>
</g>
</svg>
