<?xml version="1.0" encoding="UTF-8" standalone="no"?>
<!DOCTYPE svg PUBLIC "-//W3C//DTD SVG 1.1//EN"
 "http://www.w3.org/Graphics/SVG/1.1/DTD/svg11.dtd">
<!-- Generated by graphviz version 2.43.0 (0)
 -->
<!-- Title: G Pages: 1 -->
<svg width="2024pt" height="1643pt"
 viewBox="0.00 0.00 2023.72 1643.00" xmlns="http://www.w3.org/2000/svg" xmlns:xlink="http://www.w3.org/1999/xlink">
<g id="graph0" class="graph" transform="scale(1 1) rotate(0) translate(4 1639)">
<title>G</title>
<polygon fill="white" stroke="transparent" points="-4,4 -4,-1639 2019.72,-1639 2019.72,4 -4,4"/>
<g id="clust1" class="cluster">
<title>cluster_host</title>
<polygon fill="none" stroke="red" points="8,-8 8,-1627 2007.72,-1627 2007.72,-8 8,-8"/>
<text text-anchor="middle" x="1007.86" y="-1611.8" font-family="Times,serif" font-size="14.00">PHAIDRA server firewall</text>
</g>
<g id="clust2" class="cluster">
<title>cluster_host_storage</title>
<polygon fill="none" stroke="blue" points="237.72,-463 237.72,-1596 1085.72,-1596 1085.72,-463 237.72,-463"/>
<text text-anchor="middle" x="661.72" y="-1580.8" font-family="Times,serif" font-size="14.00">PHAIDRA server filesystem</text>
</g>
<g id="clust3" class="cluster">
<title>cluster_named_volumes</title>
<polygon fill="none" stroke="turquoise" points="245.72,-850 245.72,-1565 1077.72,-1565 1077.72,-850 245.72,-850"/>
<text text-anchor="middle" x="661.72" y="-1549.8" font-family="Times,serif" font-size="14.00">Named volumes</text>
</g>
<g id="clust4" class="cluster">
<title>cluster_bind_mounts</title>
<polygon fill="none" stroke="blue" points="338.72,-471 338.72,-842 984.72,-842 984.72,-471 338.72,-471"/>
<text text-anchor="middle" x="661.72" y="-826.8" font-family="Times,serif" font-size="14.00">Bind mounts</text>
</g>
<g id="clust5" class="cluster">
<title>cluster_docker_network_host</title>
<polygon fill="none" stroke="green" points="546.22,-16 546.22,-455 1999.72,-455 1999.72,-16 546.22,-16"/>
<text text-anchor="middle" x="1272.97" y="-439.8" font-family="Times,serif" font-size="14.00">PHAIDRA docker containers</text>
</g>
<!-- USER -->
<g id="node1" class="node">
<title>USER</title>
<polygon fill="none" stroke="black" points="209.59,-213.54 209.59,-228.46 155.27,-239 78.45,-239 24.13,-228.46 24.13,-213.54 78.45,-203 155.27,-203 209.59,-213.54"/>
<polygon fill="none" stroke="black" points="213.59,-210.25 213.59,-231.75 155.66,-243 78.07,-243 20.13,-231.75 20.13,-210.25 78.07,-199 155.66,-199 213.59,-210.25"/>
<polygon fill="none" stroke="black" points="217.58,-206.95 217.58,-235.05 156.04,-247 77.68,-247 16.14,-235.05 16.14,-206.95 77.68,-195 156.04,-195 217.58,-206.95"/>
<text text-anchor="middle" x="116.86" y="-217.3" font-family="Times,serif" font-size="14.00">PHAIDRA USER</text>
</g>
<!-- WEBSERVER -->
<g id="node28" class="node">
<title>WEBSERVER</title>
<polygon fill="none" stroke="green" points="769.22,-239 554.22,-239 554.22,-235 550.22,-235 550.22,-231 554.22,-231 554.22,-211 550.22,-211 550.22,-207 554.22,-207 554.22,-203 769.22,-203 769.22,-239"/>
<polyline fill="none" stroke="green" points="554.22,-235 558.22,-235 558.22,-231 554.22,-231 "/>
<polyline fill="none" stroke="green" points="554.22,-211 558.22,-211 558.22,-207 554.22,-207 "/>
<text text-anchor="middle" x="661.72" y="-217.3" font-family="Times,serif" font-size="14.00">phaidra&#45;demo&#45;nginx&#45;nginx&#45;1</text>
</g>
<!-- USER&#45;&#45;WEBSERVER -->
<g id="edge37" class="edge">
<title>USER&#45;&#45;WEBSERVER</title>
<path fill="none" stroke="red" d="M217.75,-221C313.14,-221 456.42,-221 554.02,-221"/>
</g>
<!-- HS_FEDORA -->
<g id="node2" class="node">
<title>HS_FEDORA</title>
<polygon fill="none" stroke="turquoise" points="1004.22,-1092 1001.22,-1096 980.22,-1096 977.22,-1092 319.22,-1092 319.22,-998 1004.22,-998 1004.22,-1092"/>
<text text-anchor="start" x="331.72" y="-1073.8" font-family="Times,serif" font-weight="bold" font-size="14.00">host:</text>
<text text-anchor="start" x="490.72" y="-1072.8" font-family="Times,serif" font-size="14.00">$HOME/.local/share/docker/volumes/phaidra&#45;demo&#45;nginx_fedora/_data</text>
<text text-anchor="start" x="331.72" y="-1051.8" font-family="Times,serif" font-size="14.00">fedora&#45;container:</text>
<text text-anchor="start" x="490.72" y="-1051.8" font-family="Times,serif" font-size="14.00">/usr/local/tomcat/fcrepo&#45;home</text>
<text text-anchor="start" x="331.72" y="-1030.8" font-family="Times,serif" font-size="14.00">pixelgecko&#45;container:</text>
<text text-anchor="start" x="490.72" y="-1030.8" font-family="Times,serif" font-size="14.00"> /mnt/fedora:ro</text>
<text text-anchor="start" x="331.72" y="-1009.8" font-family="Times,serif" font-size="14.00">api&#45;container:</text>
<text text-anchor="start" x="490.72" y="-1009.8" font-family="Times,serif" font-size="14.00"> /mnt/fedora:ro</text>
</g>
<!-- C_FEDORA -->
<g id="node16" class="node">
<title>C_FEDORA</title>
<g id="a_node16"><a xlink:href="https://fedora.lyrasis.org/" xlink:title="phaidra&#45;demo&#45;nginx&#45;fedora&#45;1">
<polygon fill="none" stroke="green" points="1629.72,-154 1407.72,-154 1407.72,-150 1403.72,-150 1403.72,-146 1407.72,-146 1407.72,-126 1403.72,-126 1403.72,-122 1407.72,-122 1407.72,-118 1629.72,-118 1629.72,-154"/>
<polyline fill="none" stroke="green" points="1407.72,-150 1411.72,-150 1411.72,-146 1407.72,-146 "/>
<polyline fill="none" stroke="green" points="1407.72,-126 1411.72,-126 1411.72,-122 1407.72,-122 "/>
<text text-anchor="middle" x="1518.72" y="-132.3" font-family="Times,serif" font-size="14.00">phaidra&#45;demo&#45;nginx&#45;fedora&#45;1</text>
</a>
</g>
</g>
<!-- HS_FEDORA&#45;&#45;C_FEDORA -->
<g id="edge1" class="edge">
<title>HS_FEDORA&#45;&#45;C_FEDORA</title>
<path fill="none" stroke="turquoise" d="M1004.47,-1043.33C1034.98,-1030.98 1062.9,-1013.42 1085.72,-989 1109.51,-963.54 1094.83,-709.1 1105.72,-676 1163.72,-499.76 1260.26,-496.23 1331.72,-325 1360.13,-256.93 1314.52,-214.08 1367.72,-163 1378.89,-152.28 1392.78,-145.05 1407.58,-140.27"/>
</g>
<!-- C_API -->
<g id="node17" class="node">
<title>C_API</title>
<g id="a_node17"><a xlink:href="https://github.com/phaidra/phaidra-api" xlink:title="phaidra&#45;demo&#45;nginx&#45;api&#45;1">
<polygon fill="none" stroke="green" points="1317.72,-316 1119.72,-316 1119.72,-312 1115.72,-312 1115.72,-308 1119.72,-308 1119.72,-288 1115.72,-288 1115.72,-284 1119.72,-284 1119.72,-280 1317.72,-280 1317.72,-316"/>
<polyline fill="none" stroke="green" points="1119.72,-312 1123.72,-312 1123.72,-308 1119.72,-308 "/>
<polyline fill="none" stroke="green" points="1119.72,-288 1123.72,-288 1123.72,-284 1119.72,-284 "/>
<text text-anchor="middle" x="1218.72" y="-294.3" font-family="Times,serif" font-size="14.00">phaidra&#45;demo&#45;nginx&#45;api&#45;1</text>
</a>
</g>
</g>
<!-- HS_FEDORA&#45;&#45;C_API -->
<g id="edge3" class="edge">
<title>HS_FEDORA&#45;&#45;C_API</title>
<path fill="none" stroke="turquoise" d="M1004.27,-1044.15C1034.97,-1031.69 1062.99,-1013.89 1085.72,-989 1122.02,-949.26 1091.44,-556.89 1105.72,-505 1126.54,-429.36 1179.13,-350.74 1204.13,-316.16"/>
</g>
<!-- C_PIXELGECKO -->
<g id="node24" class="node">
<title>C_PIXELGECKO</title>
<polygon fill="none" stroke="green" points="1974.72,-424 1722.72,-424 1722.72,-420 1718.72,-420 1718.72,-416 1722.72,-416 1722.72,-396 1718.72,-396 1718.72,-392 1722.72,-392 1722.72,-388 1974.72,-388 1974.72,-424"/>
<polyline fill="none" stroke="green" points="1722.72,-420 1726.72,-420 1726.72,-416 1722.72,-416 "/>
<polyline fill="none" stroke="green" points="1722.72,-396 1726.72,-396 1726.72,-392 1722.72,-392 "/>
<text text-anchor="middle" x="1848.72" y="-402.3" font-family="Times,serif" font-size="14.00">phaidra&#45;demo&#45;nginx&#45;pixelgecko&#45;1</text>
</g>
<!-- HS_FEDORA&#45;&#45;C_PIXELGECKO -->
<g id="edge12" class="edge">
<title>HS_FEDORA&#45;&#45;C_PIXELGECKO</title>
<path fill="none" stroke="turquoise" d="M1004.5,-1015.61C1032.47,-1008.45 1059.88,-999.69 1085.72,-989 1430.87,-846.17 1756.04,-506.22 1831.39,-424.09"/>
</g>
<!-- HS_API_LOGS -->
<g id="node3" class="node">
<title>HS_API_LOGS</title>
<polygon fill="none" stroke="turquoise" points="983.22,-980 980.22,-984 959.22,-984 956.22,-980 340.22,-980 340.22,-928 983.22,-928 983.22,-980"/>
<text text-anchor="start" x="352.72" y="-961.8" font-family="Times,serif" font-weight="bold" font-size="14.00">host:</text>
<text text-anchor="start" x="457.72" y="-960.8" font-family="Times,serif" font-size="14.00">$HOME/.local/share/docker/volumes/phaidra&#45;demo&#45;nginx_api_logs/_data</text>
<text text-anchor="start" x="352.72" y="-939.8" font-family="Times,serif" font-size="14.00">api&#45;container:</text>
<text text-anchor="start" x="457.72" y="-939.8" font-family="Times,serif" font-size="14.00">/var/log/phaidra</text>
</g>
<!-- HS_API_LOGS&#45;&#45;C_API -->
<g id="edge2" class="edge">
<title>HS_API_LOGS&#45;&#45;C_API</title>
<path fill="none" stroke="turquoise" d="M983.36,-954.32C1030.03,-948.01 1068.25,-937.08 1085.72,-919 1117.72,-885.88 1093.34,-549.36 1105.72,-505 1126.81,-429.43 1179.26,-350.78 1204.18,-316.18"/>
</g>
<!-- HS_MARIADB_PHAIDRA -->
<g id="node4" class="node">
<title>HS_MARIADB_PHAIDRA</title>
<polygon fill="none" stroke="turquoise" points="1063.22,-1302 1060.22,-1306 1039.22,-1306 1036.22,-1302 260.22,-1302 260.22,-1250 1063.22,-1250 1063.22,-1302"/>
<text text-anchor="start" x="272.72" y="-1283.8" font-family="Times,serif" font-weight="bold" font-size="14.00">host:</text>
<text text-anchor="start" x="474.72" y="-1282.8" font-family="Times,serif" font-size="14.00">$HOME/.local/share/docker/volumes/phaidra&#45;demo&#45;nginx_mariadb_phaidra/_data</text>
<text text-anchor="start" x="272.72" y="-1261.8" font-family="Times,serif" font-size="14.00">mariadb&#45;phaidra&#45;container:</text>
<text text-anchor="start" x="474.72" y="-1261.8" font-family="Times,serif" font-size="14.00">/var/lib/mysql</text>
</g>
<!-- C_MARIADB_PHAIDRA -->
<g id="node18" class="node">
<title>C_MARIADB_PHAIDRA</title>
<g id="a_node18"><a xlink:href="https://mariadb.org/" xlink:title="phaidra&#45;demo&#45;nginx&#45;mariadb&#45;phaidra&#45;1">
<polygon fill="none" stroke="green" points="1666.22,-316 1371.22,-316 1371.22,-312 1367.22,-312 1367.22,-308 1371.22,-308 1371.22,-288 1367.22,-288 1367.22,-284 1371.22,-284 1371.22,-280 1666.22,-280 1666.22,-316"/>
<polyline fill="none" stroke="green" points="1371.22,-312 1375.22,-312 1375.22,-308 1371.22,-308 "/>
<polyline fill="none" stroke="green" points="1371.22,-288 1375.22,-288 1375.22,-284 1371.22,-284 "/>
<text text-anchor="middle" x="1518.72" y="-294.3" font-family="Times,serif" font-size="14.00">phaidra&#45;demo&#45;nginx&#45;mariadb&#45;phaidra&#45;1</text>
</a>
</g>
</g>
<!-- HS_MARIADB_PHAIDRA&#45;&#45;C_MARIADB_PHAIDRA -->
<g id="edge6" class="edge">
<title>HS_MARIADB_PHAIDRA&#45;&#45;C_MARIADB_PHAIDRA</title>
<path fill="none" stroke="turquoise" d="M1063.33,-1255.96C1072.59,-1251.62 1080.18,-1246.66 1085.72,-1241 1111.71,-1214.41 1090.25,-940.8 1105.72,-907 1164.07,-779.54 1270.88,-813.28 1331.72,-687 1366.81,-614.17 1312.86,-384.38 1367.72,-325 1370.77,-321.7 1374.08,-318.71 1377.6,-316.02"/>
</g>
<!-- HS_MONGODB_PHAIDRA -->
<g id="node5" class="node">
<title>HS_MONGODB_PHAIDRA</title>
<polygon fill="none" stroke="turquoise" points="1069.72,-1232 1066.72,-1236 1045.72,-1236 1042.72,-1232 253.72,-1232 253.72,-1180 1069.72,-1180 1069.72,-1232"/>
<text text-anchor="start" x="265.72" y="-1213.8" font-family="Times,serif" font-weight="bold" font-size="14.00">host:</text>
<text text-anchor="start" x="473.72" y="-1212.8" font-family="Times,serif" font-size="14.00">$HOME/.local/share/docker/volumes/phaidra&#45;demo&#45;nginx_mongodb_phaidra/_data</text>
<text text-anchor="start" x="265.72" y="-1191.8" font-family="Times,serif" font-size="14.00">phaidra&#45;mongodb&#45;container:</text>
<text text-anchor="start" x="473.72" y="-1191.8" font-family="Times,serif" font-size="14.00">/data/db</text>
</g>
<!-- C_MONGODB_PHAIDRA -->
<g id="node19" class="node">
<title>C_MONGODB_PHAIDRA</title>
<g id="a_node19"><a xlink:href="https://www.mongodb.com/" xlink:title="phaidra&#45;demo&#45;nginx&#45;mongodb&#45;phaidra&#45;1">
<polygon fill="none" stroke="green" points="1669.72,-262 1367.72,-262 1367.72,-258 1363.72,-258 1363.72,-254 1367.72,-254 1367.72,-234 1363.72,-234 1363.72,-230 1367.72,-230 1367.72,-226 1669.72,-226 1669.72,-262"/>
<polyline fill="none" stroke="green" points="1367.72,-258 1371.72,-258 1371.72,-254 1367.72,-254 "/>
<polyline fill="none" stroke="green" points="1367.72,-234 1371.72,-234 1371.72,-230 1367.72,-230 "/>
<text text-anchor="middle" x="1518.72" y="-240.3" font-family="Times,serif" font-size="14.00">phaidra&#45;demo&#45;nginx&#45;mongodb&#45;phaidra&#45;1</text>
</a>
</g>
</g>
<!-- HS_MONGODB_PHAIDRA&#45;&#45;C_MONGODB_PHAIDRA -->
<g id="edge7" class="edge">
<title>HS_MONGODB_PHAIDRA&#45;&#45;C_MONGODB_PHAIDRA</title>
<path fill="none" stroke="turquoise" d="M1069.88,-1182.74C1076.23,-1179.21 1081.56,-1175.31 1085.72,-1171 1118.33,-1137.23 1081.46,-789.19 1105.72,-749 1165.95,-649.22 1268.69,-714.03 1331.72,-616 1373.41,-551.16 1315.27,-327.49 1367.72,-271 1370.78,-267.7 1374.1,-264.73 1377.62,-262.04"/>
</g>
<!-- HS_OPENLDAP -->
<g id="node6" class="node">
<title>HS_OPENLDAP</title>
<polygon fill="none" stroke="turquoise" points="1008.72,-1372 1005.72,-1376 984.72,-1376 981.72,-1372 314.72,-1372 314.72,-1320 1008.72,-1320 1008.72,-1372"/>
<text text-anchor="start" x="326.72" y="-1353.8" font-family="Times,serif" font-weight="bold" font-size="14.00">host:</text>
<text text-anchor="start" x="474.72" y="-1352.8" font-family="Times,serif" font-size="14.00">$HOME/.local/share/docker/volumes/phaidra&#45;demo&#45;nginx_openldap/_data</text>
<text text-anchor="start" x="326.72" y="-1331.8" font-family="Times,serif" font-size="14.00">openldap&#45;container:</text>
<text text-anchor="start" x="474.72" y="-1331.8" font-family="Times,serif" font-size="14.00">/bitnami/openldap</text>
</g>
<!-- C_OPENLDAP -->
<g id="node21" class="node">
<title>C_OPENLDAP</title>
<g id="a_node21"><a xlink:href="https://www.openldap.org/" xlink:title="phaidra&#45;demo&#45;nginx&#45;openldap&#45;1">
<polygon fill="none" stroke="green" points="1639.72,-370 1397.72,-370 1397.72,-366 1393.72,-366 1393.72,-362 1397.72,-362 1397.72,-342 1393.72,-342 1393.72,-338 1397.72,-338 1397.72,-334 1639.72,-334 1639.72,-370"/>
<polyline fill="none" stroke="green" points="1397.72,-366 1401.72,-366 1401.72,-362 1397.72,-362 "/>
<polyline fill="none" stroke="green" points="1397.72,-342 1401.72,-342 1401.72,-338 1397.72,-338 "/>
<text text-anchor="middle" x="1518.72" y="-348.3" font-family="Times,serif" font-size="14.00">phaidra&#45;demo&#45;nginx&#45;openldap&#45;1</text>
</a>
</g>
</g>
<!-- HS_OPENLDAP&#45;&#45;C_OPENLDAP -->
<g id="edge8" class="edge">
<title>HS_OPENLDAP&#45;&#45;C_OPENLDAP</title>
<path fill="none" stroke="turquoise" d="M770.92,-1372C867.49,-1388.12 1005.68,-1392.48 1085.72,-1311 1109.76,-1286.54 1095.41,-1035.71 1105.72,-1003 1163.89,-818.5 1266.49,-813.12 1331.72,-631 1369.87,-524.49 1289.18,-460.43 1367.72,-379 1376.17,-370.24 1386.43,-363.75 1397.57,-359.01"/>
</g>
<!-- HS_SOLR -->
<g id="node7" class="node">
<title>HS_SOLR</title>
<polygon fill="none" stroke="turquoise" points="970.72,-1162 967.72,-1166 946.72,-1166 943.72,-1162 352.72,-1162 352.72,-1110 970.72,-1110 970.72,-1162"/>
<text text-anchor="start" x="364.72" y="-1143.8" font-family="Times,serif" font-weight="bold" font-size="14.00">host:</text>
<text text-anchor="start" x="474.72" y="-1142.8" font-family="Times,serif" font-size="14.00">$HOME/.local/share/docker/volumes/phaidra&#45;demo&#45;nginx_solr/_data</text>
<text text-anchor="start" x="364.72" y="-1121.8" font-family="Times,serif" font-size="14.00">solr&#45;container:</text>
<text text-anchor="start" x="474.72" y="-1121.8" font-family="Times,serif" font-size="14.00">/var/solr</text>
</g>
<!-- C_SOLR -->
<g id="node22" class="node">
<title>C_SOLR</title>
<g id="a_node22"><a xlink:href="https://solr.apache.org/" xlink:title="phaidra&#45;demo&#45;nginx&#45;solr&#45;1">
<polygon fill="none" stroke="green" points="1620.22,-208 1417.22,-208 1417.22,-204 1413.22,-204 1413.22,-200 1417.22,-200 1417.22,-180 1413.22,-180 1413.22,-176 1417.22,-176 1417.22,-172 1620.22,-172 1620.22,-208"/>
<polyline fill="none" stroke="green" points="1417.22,-204 1421.22,-204 1421.22,-200 1417.22,-200 "/>
<polyline fill="none" stroke="green" points="1417.22,-180 1421.22,-180 1421.22,-176 1417.22,-176 "/>
<text text-anchor="middle" x="1518.72" y="-186.3" font-family="Times,serif" font-size="14.00">phaidra&#45;demo&#45;nginx&#45;solr&#45;1</text>
</a>
</g>
</g>
<!-- HS_SOLR&#45;&#45;C_SOLR -->
<g id="edge10" class="edge">
<title>HS_SOLR&#45;&#45;C_SOLR</title>
<path fill="none" stroke="turquoise" d="M970.81,-1137.82C1023.09,-1131.83 1066.67,-1120.64 1085.72,-1101 1115.39,-1070.41 1087.82,-756.67 1105.72,-718 1163.71,-592.75 1269.25,-628.08 1331.72,-505 1390.11,-389.97 1278.99,-310.63 1367.72,-217 1380.83,-203.17 1398.43,-194.99 1416.95,-190.36"/>
</g>
<!-- HS_PIXELGECKO -->
<g id="node8" class="node">
<title>HS_PIXELGECKO</title>
<polygon fill="none" stroke="turquoise" points="1025.72,-1463.5 1022.72,-1467.5 1001.72,-1467.5 998.72,-1463.5 297.72,-1463.5 297.72,-1390.5 1025.72,-1390.5 1025.72,-1463.5"/>
<text text-anchor="start" x="309.72" y="-1444.8" font-family="Times,serif" font-weight="bold" font-size="14.00">host:</text>
<text text-anchor="start" x="481.72" y="-1443.8" font-family="Times,serif" font-size="14.00">$HOME/.local/share/docker/volumes/phaidra&#45;demo&#45;nginx_pixelgecko/_data</text>
<text text-anchor="start" x="309.72" y="-1422.8" font-family="Times,serif" font-size="14.00">pixelgecko&#45;container:</text>
<text text-anchor="start" x="481.72" y="-1422.8" font-family="Times,serif" font-size="14.00">/mnt/converted_images</text>
<text text-anchor="start" x="309.72" y="-1401.8" font-family="Times,serif" font-size="14.00">imageserver&#45;container:</text>
<text text-anchor="start" x="481.72" y="-1401.8" font-family="Times,serif" font-size="14.00">/mnt/converted_images:ro</text>
</g>
<!-- C_IMAGESERVER -->
<g id="node23" class="node">
<title>C_IMAGESERVER</title>
<g id="a_node23"><a xlink:href="https://github.com/ruven/iipsrv" xlink:title="phaidra&#45;demo&#45;nginx&#45;imageserver&#45;1">
<polygon fill="none" stroke="green" points="1651.72,-424 1385.72,-424 1385.72,-420 1381.72,-420 1381.72,-416 1385.72,-416 1385.72,-396 1381.72,-396 1381.72,-392 1385.72,-392 1385.72,-388 1651.72,-388 1651.72,-424"/>
<polyline fill="none" stroke="green" points="1385.72,-420 1389.72,-420 1389.72,-416 1385.72,-416 "/>
<polyline fill="none" stroke="green" points="1385.72,-396 1389.72,-396 1389.72,-392 1385.72,-392 "/>
<text text-anchor="middle" x="1518.72" y="-402.3" font-family="Times,serif" font-size="14.00">phaidra&#45;demo&#45;nginx&#45;imageserver&#45;1</text>
</a>
</g>
</g>
<!-- HS_PIXELGECKO&#45;&#45;C_IMAGESERVER -->
<g id="edge11" class="edge">
<title>HS_PIXELGECKO&#45;&#45;C_IMAGESERVER</title>
<path fill="none" stroke="turquoise" d="M1025.83,-1424.56C1047.98,-1413.62 1068.31,-1399.35 1085.72,-1381 1113.14,-1352.1 1088.4,-1058.88 1105.72,-1023 1164.17,-901.95 1252.29,-930.45 1331.72,-822 1432.23,-684.78 1495.11,-484.63 1512.67,-424.03"/>
</g>
<!-- HS_PIXELGECKO&#45;&#45;C_PIXELGECKO -->
<g id="edge13" class="edge">
<title>HS_PIXELGECKO&#45;&#45;C_PIXELGECKO</title>
<path fill="none" stroke="turquoise" d="M1025.85,-1405.97C1046.6,-1399.13 1066.72,-1390.89 1085.72,-1381 1527.82,-1150.85 1794.44,-537.09 1840.54,-424.03"/>
</g>
<!-- HS_DBGATE -->
<g id="node9" class="node">
<title>HS_DBGATE</title>
<polygon fill="none" stroke="turquoise" points="993.22,-910 990.22,-914 969.22,-914 966.22,-910 330.22,-910 330.22,-858 993.22,-858 993.22,-910"/>
<text text-anchor="start" x="342.72" y="-891.8" font-family="Times,serif" font-weight="bold" font-size="14.00">host:</text>
<text text-anchor="start" x="475.72" y="-890.8" font-family="Times,serif" font-size="14.00">$HOME/.local/share/docker/volumes/phaidra&#45;demo&#45;nginx_dbgate/_data</text>
<text text-anchor="start" x="342.72" y="-869.8" font-family="Times,serif" font-size="14.00">dbgate&#45;container:</text>
<text text-anchor="start" x="475.72" y="-869.8" font-family="Times,serif" font-size="14.00">/root/.dbgate</text>
</g>
<!-- C_DBGATE -->
<g id="node25" class="node">
<title>C_DBGATE</title>
<polygon fill="none" stroke="green" points="1331.72,-262 1105.72,-262 1105.72,-258 1101.72,-258 1101.72,-254 1105.72,-254 1105.72,-234 1101.72,-234 1101.72,-230 1105.72,-230 1105.72,-226 1331.72,-226 1331.72,-262"/>
<polyline fill="none" stroke="green" points="1105.72,-258 1109.72,-258 1109.72,-254 1105.72,-254 "/>
<polyline fill="none" stroke="green" points="1105.72,-234 1109.72,-234 1109.72,-230 1105.72,-230 "/>
<text text-anchor="middle" x="1218.72" y="-240.3" font-family="Times,serif" font-size="14.00">phaidra&#45;demo&#45;nginx&#45;dbgate&#45;1</text>
</g>
<!-- HS_DBGATE&#45;&#45;C_DBGATE -->
<g id="edge14" class="edge">
<title>HS_DBGATE&#45;&#45;C_DBGATE</title>
<path fill="none" stroke="turquoise" d="M773.96,-910.06C870.89,-925.47 1007.79,-928.33 1085.72,-846 1129.67,-799.57 1065.3,-320.53 1105.72,-271 1108.38,-267.75 1111.35,-264.84 1114.57,-262.26"/>
</g>
<!-- HS_MARIADB_FEDORA -->
<g id="node10" class="node">
<title>HS_MARIADB_FEDORA</title>
<polygon fill="none" stroke="turquoise" points="1054.22,-1534 1051.22,-1538 1030.22,-1538 1027.22,-1534 269.22,-1534 269.22,-1482 1054.22,-1482 1054.22,-1534"/>
<text text-anchor="start" x="281.72" y="-1515.8" font-family="Times,serif" font-weight="bold" font-size="14.00">host:</text>
<text text-anchor="start" x="474.72" y="-1514.8" font-family="Times,serif" font-size="14.00">$HOME/.local/share/docker/volumes/phaidra&#45;demo&#45;nginx_mariadb_fedora/_data</text>
<text text-anchor="start" x="281.72" y="-1493.8" font-family="Times,serif" font-size="14.00">mariadb&#45;fedora&#45;container:</text>
<text text-anchor="start" x="474.72" y="-1493.8" font-family="Times,serif" font-size="14.00">/var/lib/mysql</text>
</g>
<!-- C_MARIADB_FEDORA -->
<g id="node27" class="node">
<title>C_MARIADB_FEDORA</title>
<g id="a_node27"><a xlink:href="https://mariadb.org/" xlink:title="phaidra&#45;demo&#45;nginx&#45;mariadb&#45;fedora&#45;1">
<polygon fill="none" stroke="green" points="1991.72,-154 1705.72,-154 1705.72,-150 1701.72,-150 1701.72,-146 1705.72,-146 1705.72,-126 1701.72,-126 1701.72,-122 1705.72,-122 1705.72,-118 1991.72,-118 1991.72,-154"/>
<polyline fill="none" stroke="green" points="1705.72,-150 1709.72,-150 1709.72,-146 1705.72,-146 "/>
<polyline fill="none" stroke="green" points="1705.72,-126 1709.72,-126 1709.72,-122 1705.72,-122 "/>
<text text-anchor="middle" x="1848.72" y="-132.3" font-family="Times,serif" font-size="14.00">phaidra&#45;demo&#45;nginx&#45;mariadb&#45;fedora&#45;1</text>
</a>
</g>
</g>
<!-- HS_MARIADB_FEDORA&#45;&#45;C_MARIADB_FEDORA -->
<g id="edge15" class="edge">
<title>HS_MARIADB_FEDORA&#45;&#45;C_MARIADB_FEDORA</title>
<path fill="none" stroke="turquoise" d="M1054.28,-1490.38C1065.12,-1485.22 1075.63,-1479.45 1085.72,-1473 1556.58,-1171.94 1426.95,-863.39 1705.72,-379 1754.22,-294.72 1813.13,-194.63 1836.95,-154.24"/>
</g>
<!-- BIND_MARIADB_PHAIDRA_INIT -->
<g id="node11" class="node">
<title>BIND_MARIADB_PHAIDRA_INIT</title>
<polygon fill="none" stroke="blue" points="976.72,-741 973.72,-745 952.72,-745 949.72,-741 346.72,-741 346.72,-689 976.72,-689 976.72,-741"/>
<text text-anchor="start" x="358.72" y="-722.8" font-family="Times,serif" font-weight="bold" font-size="14.00">host:</text>
<text text-anchor="start" x="560.72" y="-721.8" font-family="Times,serif" font-size="14.00">$REPO/container_components/mariadb/phaidradb.sql.gz</text>
<text text-anchor="start" x="358.72" y="-700.8" font-family="Times,serif" font-size="14.00">mariadb&#45;phaidra&#45;container:</text>
<text text-anchor="start" x="560.72" y="-700.8" font-family="Times,serif" font-size="14.00">/docker&#45;entrypoint&#45;initdb.d/phaidradb.sql.gz:ro</text>
</g>
<!-- BIND_MARIADB_PHAIDRA_INIT&#45;&#45;C_MARIADB_PHAIDRA -->
<g id="edge5" class="edge">
<title>BIND_MARIADB_PHAIDRA_INIT&#45;&#45;C_MARIADB_PHAIDRA</title>
<path fill="none" stroke="blue" d="M976.91,-717.99C1014.96,-710.06 1052.18,-697.94 1085.72,-680 1263.41,-584.99 1194.77,-428.39 1367.72,-325 1373.29,-321.67 1379.16,-318.74 1385.23,-316.15"/>
</g>
<!-- BIND_OPENLDAP_INIT -->
<g id="node12" class="node">
<title>BIND_OPENLDAP_INIT</title>
<polygon fill="none" stroke="blue" points="890.72,-811 887.72,-815 866.72,-815 863.72,-811 432.72,-811 432.72,-759 890.72,-759 890.72,-811"/>
<text text-anchor="start" x="444.72" y="-792.8" font-family="Times,serif" font-weight="bold" font-size="14.00">host:</text>
<text text-anchor="start" x="592.72" y="-791.8" font-family="Times,serif" font-size="14.00">$REPO/container_components/openldap</text>
<text text-anchor="start" x="444.72" y="-770.8" font-family="Times,serif" font-size="14.00">openldap&#45;container:</text>
<text text-anchor="start" x="592.72" y="-770.8" font-family="Times,serif" font-size="14.00">/ldifs:ro</text>
</g>
<!-- BIND_OPENLDAP_INIT&#45;&#45;C_OPENLDAP -->
<g id="edge9" class="edge">
<title>BIND_OPENLDAP_INIT&#45;&#45;C_OPENLDAP</title>
<path fill="none" stroke="blue" d="M890.74,-794.22C956.01,-789.51 1025.68,-777.07 1085.72,-750 1223.84,-687.72 1254.69,-644.47 1331.72,-514 1363.29,-460.53 1322.04,-421.06 1367.72,-379 1376.38,-371.02 1386.57,-365.01 1397.48,-360.5"/>
</g>
<!-- BIND_NGINX_SITE_CONFIG -->
<g id="node13" class="node">
<title>BIND_NGINX_SITE_CONFIG</title>
<polygon fill="none" stroke="blue" points="898.72,-531 895.72,-535 874.72,-535 871.72,-531 424.72,-531 424.72,-479 898.72,-479 898.72,-531"/>
<text text-anchor="start" x="436.72" y="-512.8" font-family="Times,serif" font-weight="bold" font-size="14.00">host:</text>
<text text-anchor="start" x="558.72" y="-511.8" font-family="Times,serif" font-size="14.00">$REPO/webserver_configs/nginx&#45;docker/demo</text>
<text text-anchor="start" x="436.72" y="-490.8" font-family="Times,serif" font-size="14.00">nginx&#45;container:</text>
<text text-anchor="start" x="558.72" y="-490.8" font-family="Times,serif" font-size="14.00">/etc/nginx/templates:ro</text>
</g>
<!-- BIND_NGINX_SERVER_CONFIG -->
<g id="node14" class="node">
<title>BIND_NGINX_SERVER_CONFIG</title>
<polygon fill="none" stroke="blue" points="938.22,-601 935.22,-605 914.22,-605 911.22,-601 385.22,-601 385.22,-549 938.22,-549 938.22,-601"/>
<text text-anchor="start" x="397.72" y="-582.8" font-family="Times,serif" font-weight="bold" font-size="14.00">host:</text>
<text text-anchor="start" x="519.72" y="-581.8" font-family="Times,serif" font-size="14.00">$REPO/webserver_configs/nginx&#45;docker/demo/nginx.conf</text>
<text text-anchor="start" x="397.72" y="-560.8" font-family="Times,serif" font-size="14.00">nginx&#45;container:</text>
<text text-anchor="start" x="519.72" y="-560.8" font-family="Times,serif" font-size="14.00">/etc/nginx/nginx.conf:ro</text>
</g>
<!-- BIND_API_CODE -->
<g id="node15" class="node">
<title>BIND_API_CODE</title>
<polygon fill="none" stroke="blue" points="841.22,-671 838.22,-675 817.22,-675 814.22,-671 482.22,-671 482.22,-619 841.22,-619 841.22,-671"/>
<text text-anchor="start" x="494.72" y="-652.8" font-family="Times,serif" font-weight="bold" font-size="14.00">host:</text>
<text text-anchor="start" x="599.72" y="-651.8" font-family="Times,serif" font-size="14.00">$REPO/components/phaidra&#45;api</text>
<text text-anchor="start" x="494.72" y="-630.8" font-family="Times,serif" font-size="14.00">api&#45;container:</text>
<text text-anchor="start" x="599.72" y="-630.8" font-family="Times,serif" font-size="14.00">/usr/local/phaidra/phaidra&#45;api:ro</text>
</g>
<!-- BIND_API_CODE&#45;&#45;C_API -->
<g id="edge4" class="edge">
<title>BIND_API_CODE&#45;&#45;C_API</title>
<path fill="none" stroke="blue" d="M785.6,-671.02C879.4,-683.22 1005.74,-681.95 1085.72,-610 1121.04,-578.23 1089.79,-549.75 1105.72,-505 1132.11,-430.9 1182.14,-351.2 1205.34,-316.21"/>
</g>
<!-- C_FEDORA&#45;&#45;C_MARIADB_FEDORA -->
<g id="edge18" class="edge">
<title>C_FEDORA&#45;&#45;C_MARIADB_FEDORA</title>
<path fill="none" stroke="orange" d="M1629.85,-136C1654.14,-136 1680.2,-136 1705.55,-136"/>
</g>
<!-- C_API&#45;&#45;C_FEDORA -->
<g id="edge19" class="edge">
<title>C_API&#45;&#45;C_FEDORA</title>
<path fill="none" stroke="orange" d="M1317.92,-281.06C1322.87,-278.19 1327.52,-274.86 1331.72,-271 1368.99,-236.78 1329.47,-196.12 1367.72,-163 1379.12,-153.13 1392.89,-146.31 1407.39,-141.68"/>
</g>
<!-- C_API&#45;&#45;C_MARIADB_PHAIDRA -->
<g id="edge20" class="edge">
<title>C_API&#45;&#45;C_MARIADB_PHAIDRA</title>
<path fill="none" stroke="orange" d="M1318.12,-298C1335.16,-298 1353.2,-298 1371.19,-298"/>
</g>
<!-- C_API&#45;&#45;C_MONGODB_PHAIDRA -->
<g id="edge21" class="edge">
<title>C_API&#45;&#45;C_MONGODB_PHAIDRA</title>
<path fill="none" stroke="orange" d="M1318.03,-280.03C1334.62,-277.01 1351.66,-273.91 1367.72,-271 1383.73,-268.1 1400.71,-265.03 1417.26,-262.05"/>
</g>
<!-- C_UI -->
<g id="node20" class="node">
<title>C_UI</title>
<g id="a_node20"><a xlink:href="https://github.com/phaidra/phaidra-ui" xlink:title="phaidra&#45;demo&#45;nginx&#45;ui&#45;1">
<polygon fill="none" stroke="green" points="1613.72,-80 1423.72,-80 1423.72,-76 1419.72,-76 1419.72,-72 1423.72,-72 1423.72,-52 1419.72,-52 1419.72,-48 1423.72,-48 1423.72,-44 1613.72,-44 1613.72,-80"/>
<polyline fill="none" stroke="green" points="1423.72,-76 1427.72,-76 1427.72,-72 1423.72,-72 "/>
<polyline fill="none" stroke="green" points="1423.72,-52 1427.72,-52 1427.72,-48 1423.72,-48 "/>
<text text-anchor="middle" x="1518.72" y="-58.3" font-family="Times,serif" font-size="14.00">phaidra&#45;demo&#45;nginx&#45;ui&#45;1</text>
</a>
</g>
</g>
<!-- C_API&#45;&#45;C_UI -->
<g id="edge22" class="edge">
<title>C_API&#45;&#45;C_UI</title>
<path fill="none" stroke="orange" d="M1317.89,-281.88C1322.92,-278.81 1327.59,-275.21 1331.72,-271 1383.41,-218.38 1317.83,-163.32 1367.72,-109 1382.49,-92.92 1402.68,-82.3 1423.45,-75.3"/>
</g>
<!-- C_API&#45;&#45;C_OPENLDAP -->
<g id="edge23" class="edge">
<title>C_API&#45;&#45;C_OPENLDAP</title>
<path fill="none" stroke="orange" d="M1318.03,-315.97C1334.62,-318.99 1351.66,-322.09 1367.72,-325 1383.73,-327.9 1400.71,-330.97 1417.26,-333.95"/>
</g>
<!-- C_API&#45;&#45;C_SOLR -->
<g id="edge24" class="edge">
<title>C_API&#45;&#45;C_SOLR</title>
<path fill="none" stroke="orange" d="M1316.24,-279.93C1321.67,-277.34 1326.88,-274.38 1331.72,-271 1355.37,-254.48 1343.6,-232.82 1367.72,-217 1382.44,-207.35 1399.63,-200.89 1417.02,-196.62"/>
</g>
<!-- C_API&#45;&#45;C_IMAGESERVER -->
<g id="edge25" class="edge">
<title>C_API&#45;&#45;C_IMAGESERVER</title>
<path fill="none" stroke="orange" d="M1246.3,-316.01C1275.01,-334.61 1322.7,-363.1 1367.72,-379 1377.33,-382.39 1387.44,-385.37 1397.68,-387.99"/>
</g>
<!-- C_MONGODB_PHAIDRA&#45;&#45;C_PIXELGECKO -->
<g id="edge26" class="edge">
<title>C_MONGODB_PHAIDRA&#45;&#45;C_PIXELGECKO</title>
<path fill="none" stroke="orange" d="M1645.47,-262.03C1653.81,-264.62 1661.97,-267.6 1669.72,-271 1735.78,-299.99 1799.81,-358.12 1829.89,-387.74"/>
</g>
<!-- C_LAM -->
<g id="node26" class="node">
<title>C_LAM</title>
<polygon fill="none" stroke="green" points="1950.22,-80 1747.22,-80 1747.22,-76 1743.22,-76 1743.22,-72 1747.22,-72 1747.22,-52 1743.22,-52 1743.22,-48 1747.22,-48 1747.22,-44 1950.22,-44 1950.22,-80"/>
<polyline fill="none" stroke="green" points="1747.22,-76 1751.22,-76 1751.22,-72 1747.22,-72 "/>
<polyline fill="none" stroke="green" points="1747.22,-52 1751.22,-52 1751.22,-48 1747.22,-48 "/>
<text text-anchor="middle" x="1848.72" y="-58.3" font-family="Times,serif" font-size="14.00">phaidra&#45;demo&#45;nginx&#45;lam&#45;1</text>
</g>
<!-- C_OPENLDAP&#45;&#45;C_LAM -->
<g id="edge27" class="edge">
<title>C_OPENLDAP&#45;&#45;C_LAM</title>
<path fill="none" stroke="orange" d="M1640.04,-344.63C1651.07,-339.94 1661.26,-333.57 1669.72,-325 1738.09,-255.74 1642.42,-182.92 1705.72,-109 1716.7,-96.18 1731.26,-86.84 1746.87,-80.04"/>
</g>
<!-- C_DBGATE&#45;&#45;C_MARIADB_PHAIDRA -->
<g id="edge28" class="edge">
<title>C_DBGATE&#45;&#45;C_MARIADB_PHAIDRA</title>
<path fill="none" stroke="orange" d="M1318.43,-262.04C1334.89,-265.04 1351.79,-268.11 1367.72,-271 1383.73,-273.9 1400.71,-276.97 1417.26,-279.95"/>
</g>
<!-- C_DBGATE&#45;&#45;C_MONGODB_PHAIDRA -->
<g id="edge29" class="edge">
<title>C_DBGATE&#45;&#45;C_MONGODB_PHAIDRA</title>
<path fill="none" stroke="orange" d="M1331.96,-244C1343.59,-244 1355.54,-244 1367.5,-244"/>
</g>
<!-- C_DBGATE&#45;&#45;C_MARIADB_FEDORA -->
<g id="edge30" class="edge">
<title>C_DBGATE&#45;&#45;C_MARIADB_FEDORA</title>
<path fill="none" stroke="orange" d="M1232.23,-225.98C1254.97,-195.02 1306.43,-132.75 1367.72,-109 1430.3,-84.75 1602.8,-103.95 1669.72,-109 1694.81,-110.89 1721.72,-114.26 1746.83,-118"/>
</g>
<!-- WEBSERVER&#45;&#45;BIND_NGINX_SITE_CONFIG -->
<g id="edge16" class="edge">
<title>WEBSERVER&#45;&#45;BIND_NGINX_SITE_CONFIG</title>
<path fill="none" stroke="blue" d="M661.72,-239.03C661.72,-318.94 661.72,-398.85 661.72,-478.77"/>
</g>
<!-- WEBSERVER&#45;&#45;BIND_NGINX_SERVER_CONFIG -->
<g id="edge17" class="edge">
<title>WEBSERVER&#45;&#45;BIND_NGINX_SERVER_CONFIG</title>
<path fill="none" stroke="blue" d="M624.99,-239.03C549.48,-276.78 372.57,-368.83 237.72,-467 232.89,-470.52 230.15,-470.54 227.72,-476 217.78,-498.33 217.78,-508.67 227.72,-531 242.68,-564.6 308.76,-579.03 385.02,-584.01"/>
</g>
<!-- WEBSERVER&#45;&#45;C_FEDORA -->
<g id="edge31" class="edge">
<title>WEBSERVER&#45;&#45;C_FEDORA</title>
<path fill="none" stroke="magenta" d="M769.28,-210.41C932.34,-194.2 1242.19,-163.39 1407.45,-146.96"/>
</g>
<!-- WEBSERVER&#45;&#45;C_API -->
<g id="edge32" class="edge">
<title>WEBSERVER&#45;&#45;C_API</title>
<path fill="none" stroke="magenta" d="M769.4,-235.8C870.48,-249.82 1021.03,-270.71 1119.3,-284.34"/>
</g>
<!-- WEBSERVER&#45;&#45;C_UI -->
<g id="edge33" class="edge">
<title>WEBSERVER&#45;&#45;C_UI</title>
<path fill="none" stroke="magenta" d="M759.55,-202.99C925.04,-172.22 1260.19,-109.89 1423.72,-79.48"/>
</g>
<!-- WEBSERVER&#45;&#45;C_SOLR -->
<g id="edge34" class="edge">
<title>WEBSERVER&#45;&#45;C_SOLR</title>
<path fill="none" stroke="magenta" d="M769.28,-217.14C935.58,-211.11 1254.59,-199.54 1417.14,-193.65"/>
</g>
<!-- WEBSERVER&#45;&#45;C_DBGATE -->
<g id="edge35" class="edge">
<title>WEBSERVER&#45;&#45;C_DBGATE</title>
<path fill="none" stroke="magenta" d="M769.4,-225.42C865.91,-229.42 1007.53,-235.29 1105.67,-239.36"/>
</g>
<!-- WEBSERVER&#45;&#45;C_LAM -->
<g id="edge36" class="edge">
<title>WEBSERVER&#45;&#45;C_LAM</title>
<path fill="none" stroke="magenta" d="M723.39,-202.92C808.51,-177.77 968.35,-131.35 1105.72,-96 1221.51,-66.2 1248.94,-48.64 1367.72,-35 1501.07,-19.68 1535.88,-24.91 1669.72,-35 1694.81,-36.89 1721.72,-40.26 1746.83,-44"/>
</g>
</g>
</svg>
