<?xml version="1.0" encoding="UTF-8" standalone="no"?>
<!DOCTYPE svg PUBLIC "-//W3C//DTD SVG 1.1//EN"
 "http://www.w3.org/Graphics/SVG/1.1/DTD/svg11.dtd">
<!-- Generated by graphviz version 2.43.0 (0)
 -->
<!-- Title: G Pages: 1 -->
<svg width="1919pt" height="1751pt"
 viewBox="0.00 0.00 1918.72 1751.32" xmlns="http://www.w3.org/2000/svg" xmlns:xlink="http://www.w3.org/1999/xlink">
<g id="graph0" class="graph" transform="scale(1 1) rotate(0) translate(4 1747.32)">
<title>G</title>
<polygon fill="white" stroke="transparent" points="-4,4 -4,-1747.32 1914.72,-1747.32 1914.72,4 -4,4"/>
<g id="clust1" class="cluster">
<title>cluster_host</title>
<polygon fill="none" stroke="red" points="221.72,-46.32 221.72,-1735.32 1902.72,-1735.32 1902.72,-46.32 221.72,-46.32"/>
<text text-anchor="middle" x="1062.22" y="-1720.12" font-family="Times,serif" font-size="14.00">PHAIDRA server firewall</text>
</g>
<g id="clust2" class="cluster">
<title>cluster_host_storage</title>
<polygon fill="none" stroke="blue" points="453.72,-501.32 453.72,-1704.32 1282.72,-1704.32 1282.72,-501.32 453.72,-501.32"/>
<text text-anchor="middle" x="868.22" y="-1689.12" font-family="Times,serif" font-size="14.00">PHAIDRA server filesystem</text>
</g>
<g id="clust3" class="cluster">
<title>cluster_named_volumes</title>
<polygon fill="none" stroke="turquoise" points="461.72,-958.32 461.72,-1673.32 1274.72,-1673.32 1274.72,-958.32 461.72,-958.32"/>
<text text-anchor="middle" x="868.22" y="-1658.12" font-family="Times,serif" font-size="14.00">Named volumes</text>
</g>
<g id="clust4" class="cluster">
<title>cluster_bind_mounts</title>
<polygon fill="none" stroke="blue" points="545.22,-509.32 545.22,-950.32 1191.22,-950.32 1191.22,-509.32 545.22,-509.32"/>
<text text-anchor="middle" x="868.22" y="-935.12" font-family="Times,serif" font-size="14.00">Bind mounts</text>
</g>
<g id="clust5" class="cluster">
<title>cluster_docker_network_host</title>
<polygon fill="none" stroke="green" points="229.72,-54.32 229.72,-493.32 1894.72,-493.32 1894.72,-54.32 229.72,-54.32"/>
<text text-anchor="middle" x="1062.22" y="-478.12" font-family="Times,serif" font-size="14.00">PHAIDRA docker containers</text>
</g>
<!-- USER -->
<g id="node1" class="node">
<title>USER</title>
<polygon fill="none" stroke="black" points="193.59,-345.87 193.59,-360.78 139.27,-371.32 62.45,-371.32 8.13,-360.78 8.13,-345.87 62.45,-335.32 139.27,-335.32 193.59,-345.87"/>
<polygon fill="none" stroke="black" points="197.59,-342.57 197.59,-364.08 139.66,-375.32 62.07,-375.32 4.13,-364.08 4.13,-342.57 62.07,-331.32 139.66,-331.32 197.59,-342.57"/>
<polygon fill="none" stroke="black" points="201.58,-339.27 201.58,-367.38 140.04,-379.32 61.68,-379.32 0.14,-367.38 0.14,-339.27 61.68,-327.32 140.04,-327.32 201.58,-339.27"/>
<text text-anchor="middle" x="100.86" y="-349.62" font-family="Times,serif" font-size="14.00">PHAIDRA USER</text>
</g>
<!-- WEBSERVER -->
<g id="node29" class="node">
<title>WEBSERVER</title>
<polygon fill="none" stroke="green" points="433.72,-371.32 237.72,-371.32 237.72,-367.32 233.72,-367.32 233.72,-363.32 237.72,-363.32 237.72,-343.32 233.72,-343.32 233.72,-339.32 237.72,-339.32 237.72,-335.32 433.72,-335.32 433.72,-371.32"/>
<polyline fill="none" stroke="green" points="237.72,-367.32 241.72,-367.32 241.72,-363.32 237.72,-363.32 "/>
<polyline fill="none" stroke="green" points="237.72,-343.32 241.72,-343.32 241.72,-339.32 237.72,-339.32 "/>
<text text-anchor="middle" x="335.72" y="-349.62" font-family="Times,serif" font-size="14.00">phaidra&#45;ssl&#45;nginx&#45;nginx&#45;1</text>
</g>
<!-- USER&#45;&#45;WEBSERVER -->
<g id="edge38" class="edge">
<title>USER&#45;&#45;WEBSERVER</title>
<path fill="none" stroke="red" d="M201.63,-353.32C213.48,-353.32 225.56,-353.32 237.38,-353.32"/>
</g>
<!-- HS_FEDORA -->
<g id="node2" class="node">
<title>HS_FEDORA</title>
<polygon fill="none" stroke="turquoise" points="1201.22,-1410.32 1198.22,-1414.32 1177.22,-1414.32 1174.22,-1410.32 535.22,-1410.32 535.22,-1316.32 1201.22,-1316.32 1201.22,-1410.32"/>
<text text-anchor="start" x="547.22" y="-1392.12" font-family="Times,serif" font-weight="bold" font-size="14.00">host:</text>
<text text-anchor="start" x="706.22" y="-1391.12" font-family="Times,serif" font-size="14.00">$HOME/.local/share/docker/volumes/phaidra&#45;ssl&#45;nginx_fedora/_data</text>
<text text-anchor="start" x="547.22" y="-1370.12" font-family="Times,serif" font-size="14.00">fedora&#45;container:</text>
<text text-anchor="start" x="706.22" y="-1370.12" font-family="Times,serif" font-size="14.00">/usr/local/tomcat/fcrepo&#45;home</text>
<text text-anchor="start" x="547.22" y="-1349.12" font-family="Times,serif" font-size="14.00">pixelgecko&#45;container:</text>
<text text-anchor="start" x="706.22" y="-1349.12" font-family="Times,serif" font-size="14.00"> /mnt/fedora:ro</text>
<text text-anchor="start" x="547.22" y="-1328.12" font-family="Times,serif" font-size="14.00">api&#45;container:</text>
<text text-anchor="start" x="706.22" y="-1328.12" font-family="Times,serif" font-size="14.00"> /mnt/fedora:ro</text>
</g>
<!-- C_FEDORA -->
<g id="node17" class="node">
<title>C_FEDORA</title>
<g id="a_node17"><a xlink:href="https://fedora.lyrasis.org/" xlink:title="phaidra&#45;ssl&#45;nginx&#45;fedora&#45;1">
<polygon fill="none" stroke="green" points="1545.22,-408.32 1342.22,-408.32 1342.22,-404.32 1338.22,-404.32 1338.22,-400.32 1342.22,-400.32 1342.22,-380.32 1338.22,-380.32 1338.22,-376.32 1342.22,-376.32 1342.22,-372.32 1545.22,-372.32 1545.22,-408.32"/>
<polyline fill="none" stroke="green" points="1342.22,-404.32 1346.22,-404.32 1346.22,-400.32 1342.22,-400.32 "/>
<polyline fill="none" stroke="green" points="1342.22,-380.32 1346.22,-380.32 1346.22,-376.32 1342.22,-376.32 "/>
<text text-anchor="middle" x="1443.72" y="-386.62" font-family="Times,serif" font-size="14.00">phaidra&#45;ssl&#45;nginx&#45;fedora&#45;1</text>
</a>
</g>
</g>
<!-- HS_FEDORA&#45;&#45;C_FEDORA -->
<g id="edge1" class="edge">
<title>HS_FEDORA&#45;&#45;C_FEDORA</title>
<path fill="none" stroke="turquoise" d="M1201.65,-1362.66C1232.34,-1350.28 1260.27,-1332.44 1282.72,-1307.32 1315.68,-1270.45 1270.81,-455.11 1302.72,-417.32 1313.02,-405.13 1327.02,-397.36 1342.2,-392.57"/>
</g>
<!-- C_API -->
<g id="node18" class="node">
<title>C_API</title>
<g id="a_node18"><a xlink:href="https://github.com/phaidra/phaidra-api" xlink:title="phaidra&#45;ssl&#45;nginx&#45;api&#45;1">
<polygon fill="none" stroke="green" points="957.72,-371.32 778.72,-371.32 778.72,-367.32 774.72,-367.32 774.72,-363.32 778.72,-363.32 778.72,-343.32 774.72,-343.32 774.72,-339.32 778.72,-339.32 778.72,-335.32 957.72,-335.32 957.72,-371.32"/>
<polyline fill="none" stroke="green" points="778.72,-367.32 782.72,-367.32 782.72,-363.32 778.72,-363.32 "/>
<polyline fill="none" stroke="green" points="778.72,-343.32 782.72,-343.32 782.72,-339.32 778.72,-339.32 "/>
<text text-anchor="middle" x="868.22" y="-349.62" font-family="Times,serif" font-size="14.00">phaidra&#45;ssl&#45;nginx&#45;api&#45;1</text>
</a>
</g>
</g>
<!-- HS_FEDORA&#45;&#45;C_API -->
<g id="edge3" class="edge">
<title>HS_FEDORA&#45;&#45;C_API</title>
<path fill="none" stroke="turquoise" d="M534.75,-1379.22C494.91,-1364.47 461.92,-1339.19 443.72,-1298.32 434.86,-1278.43 434.86,-534.22 443.72,-514.32 498.8,-390.66 671.04,-360.46 778.45,-353.98"/>
</g>
<!-- C_PIXELGECKO -->
<g id="node25" class="node">
<title>C_PIXELGECKO</title>
<polygon fill="none" stroke="green" points="1870.22,-462.32 1637.22,-462.32 1637.22,-458.32 1633.22,-458.32 1633.22,-454.32 1637.22,-454.32 1637.22,-434.32 1633.22,-434.32 1633.22,-430.32 1637.22,-430.32 1637.22,-426.32 1870.22,-426.32 1870.22,-462.32"/>
<polyline fill="none" stroke="green" points="1637.22,-458.32 1641.22,-458.32 1641.22,-454.32 1637.22,-454.32 "/>
<polyline fill="none" stroke="green" points="1637.22,-434.32 1641.22,-434.32 1641.22,-430.32 1637.22,-430.32 "/>
<text text-anchor="middle" x="1753.72" y="-440.62" font-family="Times,serif" font-size="14.00">phaidra&#45;ssl&#45;nginx&#45;pixelgecko&#45;1</text>
</g>
<!-- HS_FEDORA&#45;&#45;C_PIXELGECKO -->
<g id="edge12" class="edge">
<title>HS_FEDORA&#45;&#45;C_PIXELGECKO</title>
<path fill="none" stroke="turquoise" d="M1201.24,-1347.28C1230.2,-1337.46 1257.89,-1324.43 1282.72,-1307.32 1605.83,-1084.68 1727.73,-565.49 1749.16,-462.33"/>
</g>
<!-- HS_API_LOGS -->
<g id="node3" class="node">
<title>HS_API_LOGS</title>
<polygon fill="none" stroke="turquoise" points="1180.22,-1572.32 1177.22,-1576.32 1156.22,-1576.32 1153.22,-1572.32 556.22,-1572.32 556.22,-1520.32 1180.22,-1520.32 1180.22,-1572.32"/>
<text text-anchor="start" x="568.22" y="-1554.12" font-family="Times,serif" font-weight="bold" font-size="14.00">host:</text>
<text text-anchor="start" x="673.22" y="-1553.12" font-family="Times,serif" font-size="14.00">$HOME/.local/share/docker/volumes/phaidra&#45;ssl&#45;nginx_api_logs/_data</text>
<text text-anchor="start" x="568.22" y="-1532.12" font-family="Times,serif" font-size="14.00">api&#45;container:</text>
<text text-anchor="start" x="673.22" y="-1532.12" font-family="Times,serif" font-size="14.00">/var/log/phaidra</text>
</g>
<!-- HS_API_LOGS&#45;&#45;C_API -->
<g id="edge2" class="edge">
<title>HS_API_LOGS&#45;&#45;C_API</title>
<path fill="none" stroke="turquoise" d="M556.05,-1550.51C500.04,-1543.3 455.55,-1528.89 443.72,-1502.32 432.56,-1477.25 432.56,-539.39 443.72,-514.32 498.8,-390.66 671.04,-360.46 778.45,-353.98"/>
</g>
<!-- HS_MARIADB_PHAIDRA -->
<g id="node4" class="node">
<title>HS_MARIADB_PHAIDRA</title>
<polygon fill="none" stroke="turquoise" points="1260.22,-1298.32 1257.22,-1302.32 1236.22,-1302.32 1233.22,-1298.32 476.22,-1298.32 476.22,-1246.32 1260.22,-1246.32 1260.22,-1298.32"/>
<text text-anchor="start" x="488.22" y="-1280.12" font-family="Times,serif" font-weight="bold" font-size="14.00">host:</text>
<text text-anchor="start" x="690.22" y="-1279.12" font-family="Times,serif" font-size="14.00">$HOME/.local/share/docker/volumes/phaidra&#45;ssl&#45;nginx_mariadb_phaidra/_data</text>
<text text-anchor="start" x="488.22" y="-1258.12" font-family="Times,serif" font-size="14.00">mariadb&#45;phaidra&#45;container:</text>
<text text-anchor="start" x="690.22" y="-1258.12" font-family="Times,serif" font-size="14.00">/var/lib/mysql</text>
</g>
<!-- C_MARIADB_PHAIDRA -->
<g id="node19" class="node">
<title>C_MARIADB_PHAIDRA</title>
<g id="a_node19"><a xlink:href="https://mariadb.org/" xlink:title="phaidra&#45;ssl&#45;nginx&#45;mariadb&#45;phaidra&#45;1">
<polygon fill="none" stroke="green" points="1581.22,-300.32 1306.22,-300.32 1306.22,-296.32 1302.22,-296.32 1302.22,-292.32 1306.22,-292.32 1306.22,-272.32 1302.22,-272.32 1302.22,-268.32 1306.22,-268.32 1306.22,-264.32 1581.22,-264.32 1581.22,-300.32"/>
<polyline fill="none" stroke="green" points="1306.22,-296.32 1310.22,-296.32 1310.22,-292.32 1306.22,-292.32 "/>
<polyline fill="none" stroke="green" points="1306.22,-272.32 1310.22,-272.32 1310.22,-268.32 1306.22,-268.32 "/>
<text text-anchor="middle" x="1443.72" y="-278.62" font-family="Times,serif" font-size="14.00">phaidra&#45;ssl&#45;nginx&#45;mariadb&#45;phaidra&#45;1</text>
</a>
</g>
</g>
<!-- HS_MARIADB_PHAIDRA&#45;&#45;C_MARIADB_PHAIDRA -->
<g id="edge6" class="edge">
<title>HS_MARIADB_PHAIDRA&#45;&#45;C_MARIADB_PHAIDRA</title>
<path fill="none" stroke="turquoise" d="M1260.49,-1252.53C1269.75,-1248.14 1277.3,-1243.1 1282.72,-1237.32 1318.02,-1199.73 1269.47,-348.73 1302.72,-309.32 1305.52,-306.01 1308.58,-303.03 1311.87,-300.34"/>
</g>
<!-- HS_MONGODB_PHAIDRA -->
<g id="node5" class="node">
<title>HS_MONGODB_PHAIDRA</title>
<polygon fill="none" stroke="turquoise" points="1266.72,-1158.32 1263.72,-1162.32 1242.72,-1162.32 1239.72,-1158.32 469.72,-1158.32 469.72,-1106.32 1266.72,-1106.32 1266.72,-1158.32"/>
<text text-anchor="start" x="482.22" y="-1140.12" font-family="Times,serif" font-weight="bold" font-size="14.00">host:</text>
<text text-anchor="start" x="690.22" y="-1139.12" font-family="Times,serif" font-size="14.00">$HOME/.local/share/docker/volumes/phaidra&#45;ssl&#45;nginx_mongodb_phaidra/_data</text>
<text text-anchor="start" x="482.22" y="-1118.12" font-family="Times,serif" font-size="14.00">phaidra&#45;mongodb&#45;container:</text>
<text text-anchor="start" x="690.22" y="-1118.12" font-family="Times,serif" font-size="14.00">/data/db</text>
</g>
<!-- C_MONGODB_PHAIDRA -->
<g id="node20" class="node">
<title>C_MONGODB_PHAIDRA</title>
<g id="a_node20"><a xlink:href="https://www.mongodb.com/" xlink:title="phaidra&#45;ssl&#45;nginx&#45;mongodb&#45;phaidra&#45;1">
<polygon fill="none" stroke="green" points="1584.72,-192.32 1302.72,-192.32 1302.72,-188.32 1298.72,-188.32 1298.72,-184.32 1302.72,-184.32 1302.72,-164.32 1298.72,-164.32 1298.72,-160.32 1302.72,-160.32 1302.72,-156.32 1584.72,-156.32 1584.72,-192.32"/>
<polyline fill="none" stroke="green" points="1302.72,-188.32 1306.72,-188.32 1306.72,-184.32 1302.72,-184.32 "/>
<polyline fill="none" stroke="green" points="1302.72,-164.32 1306.72,-164.32 1306.72,-160.32 1302.72,-160.32 "/>
<text text-anchor="middle" x="1443.72" y="-170.62" font-family="Times,serif" font-size="14.00">phaidra&#45;ssl&#45;nginx&#45;mongodb&#45;phaidra&#45;1</text>
</a>
</g>
</g>
<!-- HS_MONGODB_PHAIDRA&#45;&#45;C_MONGODB_PHAIDRA -->
<g id="edge7" class="edge">
<title>HS_MONGODB_PHAIDRA&#45;&#45;C_MONGODB_PHAIDRA</title>
<path fill="none" stroke="turquoise" d="M1266.82,-1109.27C1273.23,-1105.69 1278.59,-1101.72 1282.72,-1097.32 1316.82,-1061.04 1270.6,-239.36 1302.72,-201.32 1305.52,-198.01 1308.58,-195.03 1311.87,-192.34"/>
</g>
<!-- HS_OPENLDAP -->
<g id="node6" class="node">
<title>HS_OPENLDAP</title>
<polygon fill="none" stroke="turquoise" points="1205.22,-1018.32 1202.22,-1022.32 1181.22,-1022.32 1178.22,-1018.32 531.22,-1018.32 531.22,-966.32 1205.22,-966.32 1205.22,-1018.32"/>
<text text-anchor="start" x="543.22" y="-1000.12" font-family="Times,serif" font-weight="bold" font-size="14.00">host:</text>
<text text-anchor="start" x="691.22" y="-999.12" font-family="Times,serif" font-size="14.00">$HOME/.local/share/docker/volumes/phaidra&#45;ssl&#45;nginx_openldap/_data</text>
<text text-anchor="start" x="543.22" y="-978.12" font-family="Times,serif" font-size="14.00">openldap&#45;container:</text>
<text text-anchor="start" x="691.22" y="-978.12" font-family="Times,serif" font-size="14.00">/bitnami/openldap</text>
</g>
<!-- C_OPENLDAP -->
<g id="node22" class="node">
<title>C_OPENLDAP</title>
<g id="a_node22"><a xlink:href="https://www.openldap.org/" xlink:title="phaidra&#45;ssl&#45;nginx&#45;openldap&#45;1">
<polygon fill="none" stroke="green" points="1554.72,-354.32 1332.72,-354.32 1332.72,-350.32 1328.72,-350.32 1328.72,-346.32 1332.72,-346.32 1332.72,-326.32 1328.72,-326.32 1328.72,-322.32 1332.72,-322.32 1332.72,-318.32 1554.72,-318.32 1554.72,-354.32"/>
<polyline fill="none" stroke="green" points="1332.72,-350.32 1336.72,-350.32 1336.72,-346.32 1332.72,-346.32 "/>
<polyline fill="none" stroke="green" points="1332.72,-326.32 1336.72,-326.32 1336.72,-322.32 1332.72,-322.32 "/>
<text text-anchor="middle" x="1443.72" y="-332.62" font-family="Times,serif" font-size="14.00">phaidra&#45;ssl&#45;nginx&#45;openldap&#45;1</text>
</a>
</g>
</g>
<!-- HS_OPENLDAP&#45;&#45;C_OPENLDAP -->
<g id="edge8" class="edge">
<title>HS_OPENLDAP&#45;&#45;C_OPENLDAP</title>
<path fill="none" stroke="turquoise" d="M983.14,-1018.34C1077.57,-1032.48 1208.01,-1033.49 1282.72,-954.32 1327.82,-906.54 1260.04,-413.28 1302.72,-363.32 1310.84,-353.82 1321.21,-347.01 1332.61,-342.21"/>
</g>
<!-- HS_SOLR -->
<g id="node7" class="node">
<title>HS_SOLR</title>
<polygon fill="none" stroke="turquoise" points="1167.22,-1228.32 1164.22,-1232.32 1143.22,-1232.32 1140.22,-1228.32 569.22,-1228.32 569.22,-1176.32 1167.22,-1176.32 1167.22,-1228.32"/>
<text text-anchor="start" x="581.22" y="-1210.12" font-family="Times,serif" font-weight="bold" font-size="14.00">host:</text>
<text text-anchor="start" x="691.22" y="-1209.12" font-family="Times,serif" font-size="14.00">$HOME/.local/share/docker/volumes/phaidra&#45;ssl&#45;nginx_solr/_data</text>
<text text-anchor="start" x="581.22" y="-1188.12" font-family="Times,serif" font-size="14.00">solr&#45;container:</text>
<text text-anchor="start" x="691.22" y="-1188.12" font-family="Times,serif" font-size="14.00">/var/solr</text>
</g>
<!-- C_SOLR -->
<g id="node23" class="node">
<title>C_SOLR</title>
<g id="a_node23"><a xlink:href="https://solr.apache.org/" xlink:title="phaidra&#45;ssl&#45;nginx&#45;solr&#45;1">
<polygon fill="none" stroke="green" points="1535.72,-246.32 1351.72,-246.32 1351.72,-242.32 1347.72,-242.32 1347.72,-238.32 1351.72,-238.32 1351.72,-218.32 1347.72,-218.32 1347.72,-214.32 1351.72,-214.32 1351.72,-210.32 1535.72,-210.32 1535.72,-246.32"/>
<polyline fill="none" stroke="green" points="1351.72,-242.32 1355.72,-242.32 1355.72,-238.32 1351.72,-238.32 "/>
<polyline fill="none" stroke="green" points="1351.72,-218.32 1355.72,-218.32 1355.72,-214.32 1351.72,-214.32 "/>
<text text-anchor="middle" x="1443.72" y="-224.62" font-family="Times,serif" font-size="14.00">phaidra&#45;ssl&#45;nginx&#45;solr&#45;1</text>
</a>
</g>
</g>
<!-- HS_SOLR&#45;&#45;C_SOLR -->
<g id="edge10" class="edge">
<title>HS_SOLR&#45;&#45;C_SOLR</title>
<path fill="none" stroke="turquoise" d="M1167.23,-1204.34C1219.92,-1198.47 1263.98,-1187.28 1282.72,-1167.32 1317.42,-1130.38 1270.03,-294.05 1302.72,-255.32 1315.1,-240.66 1332.81,-232.41 1351.49,-228.02"/>
</g>
<!-- HS_PIXELGECKO -->
<g id="node8" class="node">
<title>HS_PIXELGECKO</title>
<polygon fill="none" stroke="turquoise" points="1222.72,-1501.82 1219.72,-1505.82 1198.72,-1505.82 1195.72,-1501.82 513.72,-1501.82 513.72,-1428.82 1222.72,-1428.82 1222.72,-1501.82"/>
<text text-anchor="start" x="526.22" y="-1483.12" font-family="Times,serif" font-weight="bold" font-size="14.00">host:</text>
<text text-anchor="start" x="698.22" y="-1482.12" font-family="Times,serif" font-size="14.00">$HOME/.local/share/docker/volumes/phaidra&#45;ssl&#45;nginx_pixelgecko/_data</text>
<text text-anchor="start" x="526.22" y="-1461.12" font-family="Times,serif" font-size="14.00">pixelgecko&#45;container:</text>
<text text-anchor="start" x="698.22" y="-1461.12" font-family="Times,serif" font-size="14.00">/mnt/converted_images</text>
<text text-anchor="start" x="526.22" y="-1440.12" font-family="Times,serif" font-size="14.00">imageserver&#45;container:</text>
<text text-anchor="start" x="698.22" y="-1440.12" font-family="Times,serif" font-size="14.00">/mnt/converted_images:ro</text>
</g>
<!-- C_IMAGESERVER -->
<g id="node24" class="node">
<title>C_IMAGESERVER</title>
<g id="a_node24"><a xlink:href="https://github.com/ruven/iipsrv" xlink:title="phaidra&#45;ssl&#45;nginx&#45;imageserver&#45;1">
<polygon fill="none" stroke="green" points="1566.72,-462.32 1320.72,-462.32 1320.72,-458.32 1316.72,-458.32 1316.72,-454.32 1320.72,-454.32 1320.72,-434.32 1316.72,-434.32 1316.72,-430.32 1320.72,-430.32 1320.72,-426.32 1566.72,-426.32 1566.72,-462.32"/>
<polyline fill="none" stroke="green" points="1320.72,-458.32 1324.72,-458.32 1324.72,-454.32 1320.72,-454.32 "/>
<polyline fill="none" stroke="green" points="1320.72,-434.32 1324.72,-434.32 1324.72,-430.32 1320.72,-430.32 "/>
<text text-anchor="middle" x="1443.72" y="-440.62" font-family="Times,serif" font-size="14.00">phaidra&#45;ssl&#45;nginx&#45;imageserver&#45;1</text>
</a>
</g>
</g>
<!-- HS_PIXELGECKO&#45;&#45;C_IMAGESERVER -->
<g id="edge11" class="edge">
<title>HS_PIXELGECKO&#45;&#45;C_IMAGESERVER</title>
<path fill="none" stroke="turquoise" d="M1223.14,-1463.04C1245.26,-1452.13 1265.5,-1437.83 1282.72,-1419.32 1302.12,-1398.48 1298.01,-935.4 1302.72,-907.32 1332.62,-729.27 1411.04,-523.72 1435.4,-462.44"/>
</g>
<!-- HS_PIXELGECKO&#45;&#45;C_PIXELGECKO -->
<g id="edge13" class="edge">
<title>HS_PIXELGECKO&#45;&#45;C_PIXELGECKO</title>
<path fill="none" stroke="turquoise" d="M1222.85,-1442.34C1243.52,-1436 1263.64,-1428.4 1282.72,-1419.32 1452.73,-1338.47 1491.46,-1285.85 1584.72,-1122.32 1719.3,-886.36 1746.99,-544.24 1751.81,-462.39"/>
</g>
<!-- HS_DBGATE -->
<g id="node9" class="node">
<title>HS_DBGATE</title>
<polygon fill="none" stroke="turquoise" points="1190.22,-1088.32 1187.22,-1092.32 1166.22,-1092.32 1163.22,-1088.32 546.22,-1088.32 546.22,-1036.32 1190.22,-1036.32 1190.22,-1088.32"/>
<text text-anchor="start" x="558.22" y="-1070.12" font-family="Times,serif" font-weight="bold" font-size="14.00">host:</text>
<text text-anchor="start" x="691.22" y="-1069.12" font-family="Times,serif" font-size="14.00">$HOME/.local/share/docker/volumes/phaidra&#45;ssl&#45;nginx_dbgate/_data</text>
<text text-anchor="start" x="558.22" y="-1048.12" font-family="Times,serif" font-size="14.00">dbgate&#45;container:</text>
<text text-anchor="start" x="691.22" y="-1048.12" font-family="Times,serif" font-size="14.00">/root/.dbgate</text>
</g>
<!-- C_DBGATE -->
<g id="node26" class="node">
<title>C_DBGATE</title>
<polygon fill="none" stroke="green" points="971.22,-297.32 765.22,-297.32 765.22,-293.32 761.22,-293.32 761.22,-289.32 765.22,-289.32 765.22,-269.32 761.22,-269.32 761.22,-265.32 765.22,-265.32 765.22,-261.32 971.22,-261.32 971.22,-297.32"/>
<polyline fill="none" stroke="green" points="765.22,-293.32 769.22,-293.32 769.22,-289.32 765.22,-289.32 "/>
<polyline fill="none" stroke="green" points="765.22,-269.32 769.22,-269.32 769.22,-265.32 765.22,-265.32 "/>
<text text-anchor="middle" x="868.22" y="-275.62" font-family="Times,serif" font-size="14.00">phaidra&#45;ssl&#45;nginx&#45;dbgate&#45;1</text>
</g>
<!-- HS_DBGATE&#45;&#45;C_DBGATE -->
<g id="edge14" class="edge">
<title>HS_DBGATE&#45;&#45;C_DBGATE</title>
<path fill="none" stroke="turquoise" d="M546.02,-1065.12C494.78,-1057.51 454.84,-1043.28 443.72,-1018.32 436,-1000.99 436,-352.65 443.72,-335.32 499.97,-209.02 698.58,-236.69 802.98,-261.26"/>
</g>
<!-- HS_MARIADB_FEDORA -->
<g id="node10" class="node">
<title>HS_MARIADB_FEDORA</title>
<polygon fill="none" stroke="turquoise" points="1251.22,-1642.32 1248.22,-1646.32 1227.22,-1646.32 1224.22,-1642.32 485.22,-1642.32 485.22,-1590.32 1251.22,-1590.32 1251.22,-1642.32"/>
<text text-anchor="start" x="497.22" y="-1624.12" font-family="Times,serif" font-weight="bold" font-size="14.00">host:</text>
<text text-anchor="start" x="690.22" y="-1623.12" font-family="Times,serif" font-size="14.00">$HOME/.local/share/docker/volumes/phaidra&#45;ssl&#45;nginx_mariadb_fedora/_data</text>
<text text-anchor="start" x="497.22" y="-1602.12" font-family="Times,serif" font-size="14.00">mariadb&#45;fedora&#45;container:</text>
<text text-anchor="start" x="690.22" y="-1602.12" font-family="Times,serif" font-size="14.00">/var/lib/mysql</text>
</g>
<!-- C_MARIADB_FEDORA -->
<g id="node28" class="node">
<title>C_MARIADB_FEDORA</title>
<g id="a_node28"><a xlink:href="https://mariadb.org/" xlink:title="phaidra&#45;ssl&#45;nginx&#45;mariadb&#45;fedora&#45;1">
<polygon fill="none" stroke="green" points="1886.72,-408.32 1620.72,-408.32 1620.72,-404.32 1616.72,-404.32 1616.72,-400.32 1620.72,-400.32 1620.72,-380.32 1616.72,-380.32 1616.72,-376.32 1620.72,-376.32 1620.72,-372.32 1886.72,-372.32 1886.72,-408.32"/>
<polyline fill="none" stroke="green" points="1620.72,-404.32 1624.72,-404.32 1624.72,-400.32 1620.72,-400.32 "/>
<polyline fill="none" stroke="green" points="1620.72,-380.32 1624.72,-380.32 1624.72,-376.32 1620.72,-376.32 "/>
<text text-anchor="middle" x="1753.72" y="-386.62" font-family="Times,serif" font-size="14.00">phaidra&#45;ssl&#45;nginx&#45;mariadb&#45;fedora&#45;1</text>
</a>
</g>
</g>
<!-- HS_MARIADB_FEDORA&#45;&#45;C_MARIADB_FEDORA -->
<g id="edge15" class="edge">
<title>HS_MARIADB_FEDORA&#45;&#45;C_MARIADB_FEDORA</title>
<path fill="none" stroke="turquoise" d="M1017.97,-1642.33C1104.36,-1648.8 1210.13,-1640.79 1282.72,-1581.32 1386.91,-1495.98 1521.72,-508.63 1620.72,-417.32 1624.33,-413.99 1628.24,-411.03 1632.37,-408.39"/>
</g>
<!-- BIND_MARIADB_PHAIDRA_INIT -->
<g id="node11" class="node">
<title>BIND_MARIADB_PHAIDRA_INIT</title>
<polygon fill="none" stroke="blue" points="1183.22,-849.32 1180.22,-853.32 1159.22,-853.32 1156.22,-849.32 553.22,-849.32 553.22,-797.32 1183.22,-797.32 1183.22,-849.32"/>
<text text-anchor="start" x="565.22" y="-831.12" font-family="Times,serif" font-weight="bold" font-size="14.00">host:</text>
<text text-anchor="start" x="767.22" y="-830.12" font-family="Times,serif" font-size="14.00">$REPO/container_components/mariadb/phaidradb.sql.gz</text>
<text text-anchor="start" x="565.22" y="-809.12" font-family="Times,serif" font-size="14.00">mariadb&#45;phaidra&#45;container:</text>
<text text-anchor="start" x="767.22" y="-809.12" font-family="Times,serif" font-size="14.00">/docker&#45;entrypoint&#45;initdb.d/phaidradb.sql.gz:ro</text>
</g>
<!-- BIND_MARIADB_PHAIDRA_INIT&#45;&#45;C_MARIADB_PHAIDRA -->
<g id="edge5" class="edge">
<title>BIND_MARIADB_PHAIDRA_INIT&#45;&#45;C_MARIADB_PHAIDRA</title>
<path fill="none" stroke="blue" d="M978.21,-849.39C1072.79,-864.85 1206.21,-868.17 1282.72,-788.32 1319.58,-749.86 1267.96,-349.68 1302.72,-309.32 1305.55,-306.04 1308.64,-303.08 1311.96,-300.41"/>
</g>
<!-- BIND_OPENLDAP_INIT -->
<g id="node12" class="node">
<title>BIND_OPENLDAP_INIT</title>
<polygon fill="none" stroke="blue" points="1097.22,-919.32 1094.22,-923.32 1073.22,-923.32 1070.22,-919.32 639.22,-919.32 639.22,-867.32 1097.22,-867.32 1097.22,-919.32"/>
<text text-anchor="start" x="651.22" y="-901.12" font-family="Times,serif" font-weight="bold" font-size="14.00">host:</text>
<text text-anchor="start" x="799.22" y="-900.12" font-family="Times,serif" font-size="14.00">$REPO/container_components/openldap</text>
<text text-anchor="start" x="651.22" y="-879.12" font-family="Times,serif" font-size="14.00">openldap&#45;container:</text>
<text text-anchor="start" x="799.22" y="-879.12" font-family="Times,serif" font-size="14.00">/ldifs:ro</text>
</g>
<!-- BIND_OPENLDAP_INIT&#45;&#45;C_OPENLDAP -->
<g id="edge9" class="edge">
<title>BIND_OPENLDAP_INIT&#45;&#45;C_OPENLDAP</title>
<path fill="none" stroke="blue" d="M977.77,-919.33C1072.4,-934.88 1206.14,-938.35 1282.72,-858.32 1320.78,-818.55 1266.83,-405.05 1302.72,-363.32 1310.87,-353.85 1321.26,-347.06 1332.67,-342.26"/>
</g>
<!-- BIND_NGINX_SITE_CONFIG -->
<g id="node13" class="node">
<title>BIND_NGINX_SITE_CONFIG</title>
<polygon fill="none" stroke="blue" points="1095.72,-779.32 1092.72,-783.32 1071.72,-783.32 1068.72,-779.32 640.72,-779.32 640.72,-727.32 1095.72,-727.32 1095.72,-779.32"/>
<text text-anchor="start" x="653.22" y="-761.12" font-family="Times,serif" font-weight="bold" font-size="14.00">host:</text>
<text text-anchor="start" x="775.22" y="-760.12" font-family="Times,serif" font-size="14.00">$REPO/webserver_configs/nginx&#45;docker/ssl</text>
<text text-anchor="start" x="653.22" y="-739.12" font-family="Times,serif" font-size="14.00">nginx&#45;container:</text>
<text text-anchor="start" x="775.22" y="-739.12" font-family="Times,serif" font-size="14.00">/etc/nginx/templates:ro</text>
</g>
<!-- BIND_NGINX_SERVER_CONFIG -->
<g id="node14" class="node">
<title>BIND_NGINX_SERVER_CONFIG</title>
<polygon fill="none" stroke="blue" points="1135.22,-709.32 1132.22,-713.32 1111.22,-713.32 1108.22,-709.32 601.22,-709.32 601.22,-657.32 1135.22,-657.32 1135.22,-709.32"/>
<text text-anchor="start" x="613.22" y="-691.12" font-family="Times,serif" font-weight="bold" font-size="14.00">host:</text>
<text text-anchor="start" x="735.22" y="-690.12" font-family="Times,serif" font-size="14.00">$REPO/webserver_configs/nginx&#45;docker/ssl/nginx.conf</text>
<text text-anchor="start" x="613.22" y="-669.12" font-family="Times,serif" font-size="14.00">nginx&#45;container:</text>
<text text-anchor="start" x="735.22" y="-669.12" font-family="Times,serif" font-size="14.00">/etc/nginx/nginx.conf:ro</text>
</g>
<!-- BIND_NGINX_CERTS -->
<g id="node15" class="node">
<title>BIND_NGINX_CERTS</title>
<polygon fill="none" stroke="blue" points="1047.22,-639.32 1044.22,-643.32 1023.22,-643.32 1020.22,-639.32 689.22,-639.32 689.22,-587.32 1047.22,-587.32 1047.22,-639.32"/>
<text text-anchor="start" x="701.22" y="-621.12" font-family="Times,serif" font-weight="bold" font-size="14.00">host:</text>
<text text-anchor="start" x="823.22" y="-620.12" font-family="Times,serif" font-size="14.00">$REPO/encryption/webserver</text>
<text text-anchor="start" x="701.22" y="-599.12" font-family="Times,serif" font-size="14.00">nginx&#45;container:</text>
<text text-anchor="start" x="823.22" y="-599.12" font-family="Times,serif" font-size="14.00">/etc/nginx/certs:ro</text>
</g>
<!-- BIND_API_CODE -->
<g id="node16" class="node">
<title>BIND_API_CODE</title>
<polygon fill="none" stroke="blue" points="1047.72,-569.32 1044.72,-573.32 1023.72,-573.32 1020.72,-569.32 688.72,-569.32 688.72,-517.32 1047.72,-517.32 1047.72,-569.32"/>
<text text-anchor="start" x="701.22" y="-551.12" font-family="Times,serif" font-weight="bold" font-size="14.00">host:</text>
<text text-anchor="start" x="806.22" y="-550.12" font-family="Times,serif" font-size="14.00">$REPO/components/phaidra&#45;api</text>
<text text-anchor="start" x="701.22" y="-529.12" font-family="Times,serif" font-size="14.00">api&#45;container:</text>
<text text-anchor="start" x="806.22" y="-529.12" font-family="Times,serif" font-size="14.00">/usr/local/phaidra/phaidra&#45;api:ro</text>
</g>
<!-- BIND_API_CODE&#45;&#45;C_API -->
<g id="edge4" class="edge">
<title>BIND_API_CODE&#45;&#45;C_API</title>
<path fill="none" stroke="blue" d="M868.22,-517.15C868.22,-468.6 868.22,-420.05 868.22,-371.51"/>
</g>
<!-- C_FEDORA&#45;&#45;C_MARIADB_FEDORA -->
<g id="edge19" class="edge">
<title>C_FEDORA&#45;&#45;C_MARIADB_FEDORA</title>
<path fill="none" stroke="orange" d="M1545.57,-390.32C1569.52,-390.32 1595.42,-390.32 1620.53,-390.32"/>
</g>
<!-- C_API&#45;&#45;C_FEDORA -->
<g id="edge20" class="edge">
<title>C_API&#45;&#45;C_FEDORA</title>
<path fill="none" stroke="orange" d="M957.89,-359.04C1061.64,-365.74 1233.06,-376.8 1341.82,-383.81"/>
</g>
<!-- C_API&#45;&#45;C_MARIADB_PHAIDRA -->
<g id="edge21" class="edge">
<title>C_API&#45;&#45;C_MARIADB_PHAIDRA</title>
<path fill="none" stroke="orange" d="M957.78,-358.06C1043.07,-359.96 1174.68,-355.79 1282.72,-321.32 1292.6,-318.17 1293.04,-313.03 1302.72,-309.32 1311.51,-305.96 1320.77,-303 1330.17,-300.4"/>
</g>
<!-- C_API&#45;&#45;C_MONGODB_PHAIDRA -->
<g id="edge22" class="edge">
<title>C_API&#45;&#45;C_MONGODB_PHAIDRA</title>
<path fill="none" stroke="orange" d="M957.82,-370.76C1051.03,-383.54 1195.98,-386.78 1282.72,-306.32 1317.55,-274.01 1269.17,-234.95 1302.72,-201.32 1306.04,-197.99 1309.64,-195.01 1313.46,-192.34"/>
</g>
<!-- C_UI -->
<g id="node21" class="node">
<title>C_UI</title>
<g id="a_node21"><a xlink:href="https://github.com/phaidra/phaidra-ui" xlink:title="phaidra&#45;ssl&#45;nginx&#45;ui&#45;1">
<polygon fill="none" stroke="green" points="1528.72,-118.32 1358.72,-118.32 1358.72,-114.32 1354.72,-114.32 1354.72,-110.32 1358.72,-110.32 1358.72,-90.32 1354.72,-90.32 1354.72,-86.32 1358.72,-86.32 1358.72,-82.32 1528.72,-82.32 1528.72,-118.32"/>
<polyline fill="none" stroke="green" points="1358.72,-114.32 1362.72,-114.32 1362.72,-110.32 1358.72,-110.32 "/>
<polyline fill="none" stroke="green" points="1358.72,-90.32 1362.72,-90.32 1362.72,-86.32 1358.72,-86.32 "/>
<text text-anchor="middle" x="1443.72" y="-96.62" font-family="Times,serif" font-size="14.00">phaidra&#45;ssl&#45;nginx&#45;ui&#45;1</text>
</a>
</g>
</g>
<!-- C_API&#45;&#45;C_UI -->
<g id="edge23" class="edge">
<title>C_API&#45;&#45;C_UI</title>
<path fill="none" stroke="orange" d="M955.83,-371.36C1049.77,-385.39 1197.67,-390.37 1282.72,-306.32 1333.38,-256.26 1257.6,-202.43 1302.72,-147.32 1316.85,-130.06 1337.55,-119.11 1358.71,-112.16"/>
</g>
<!-- C_API&#45;&#45;C_OPENLDAP -->
<g id="edge24" class="edge">
<title>C_API&#45;&#45;C_OPENLDAP</title>
<path fill="none" stroke="orange" d="M957.89,-350.69C1058.74,-347.7 1223.51,-342.82 1332.53,-339.59"/>
</g>
<!-- C_API&#45;&#45;C_SOLR -->
<g id="edge25" class="edge">
<title>C_API&#45;&#45;C_SOLR</title>
<path fill="none" stroke="orange" d="M948.38,-371.37C1039.37,-387.17 1188.29,-397.2 1282.72,-321.32 1306.61,-302.12 1279.95,-275.84 1302.72,-255.32 1316.33,-243.06 1333.77,-235.63 1351.68,-231.26"/>
</g>
<!-- C_API&#45;&#45;C_IMAGESERVER -->
<g id="edge26" class="edge">
<title>C_API&#45;&#45;C_IMAGESERVER</title>
<path fill="none" stroke="orange" d="M957.89,-367.39C1057.71,-383.23 1220.17,-409.01 1329.2,-426.31"/>
</g>
<!-- C_MONGODB_PHAIDRA&#45;&#45;C_PIXELGECKO -->
<g id="edge27" class="edge">
<title>C_MONGODB_PHAIDRA&#45;&#45;C_PIXELGECKO</title>
<path fill="none" stroke="orange" d="M1574.38,-192.45C1578.06,-195.1 1581.53,-198.04 1584.72,-201.32 1652.66,-271.01 1553.17,-347.26 1620.72,-417.32 1625.59,-422.37 1631.13,-426.61 1637.12,-430.16"/>
</g>
<!-- C_LAM -->
<g id="node27" class="node">
<title>C_LAM</title>
<polygon fill="none" stroke="green" points="1845.22,-226.32 1662.22,-226.32 1662.22,-222.32 1658.22,-222.32 1658.22,-218.32 1662.22,-218.32 1662.22,-198.32 1658.22,-198.32 1658.22,-194.32 1662.22,-194.32 1662.22,-190.32 1845.22,-190.32 1845.22,-226.32"/>
<polyline fill="none" stroke="green" points="1662.22,-222.32 1666.22,-222.32 1666.22,-218.32 1662.22,-218.32 "/>
<polyline fill="none" stroke="green" points="1662.22,-198.32 1666.22,-198.32 1666.22,-194.32 1662.22,-194.32 "/>
<text text-anchor="middle" x="1753.72" y="-204.62" font-family="Times,serif" font-size="14.00">phaidra&#45;ssl&#45;nginx&#45;lam&#45;1</text>
</g>
<!-- C_OPENLDAP&#45;&#45;C_LAM -->
<g id="edge28" class="edge">
<title>C_OPENLDAP&#45;&#45;C_LAM</title>
<path fill="none" stroke="orange" d="M1555.05,-318.86C1565.21,-316.11 1575.24,-312.95 1584.72,-309.32 1639.86,-288.2 1697.43,-249.31 1728.8,-226.45"/>
</g>
<!-- C_DBGATE&#45;&#45;C_MARIADB_PHAIDRA -->
<g id="edge29" class="edge">
<title>C_DBGATE&#45;&#45;C_MARIADB_PHAIDRA</title>
<path fill="none" stroke="orange" d="M971.42,-279.86C1064.73,-280.35 1203.37,-281.07 1306.15,-281.61"/>
</g>
<!-- C_DBGATE&#45;&#45;C_MONGODB_PHAIDRA -->
<g id="edge30" class="edge">
<title>C_DBGATE&#45;&#45;C_MONGODB_PHAIDRA</title>
<path fill="none" stroke="orange" d="M967.81,-261.27C1073.01,-242.01 1238.72,-211.67 1343.98,-192.4"/>
</g>
<!-- C_DBGATE&#45;&#45;C_MARIADB_FEDORA -->
<g id="edge31" class="edge">
<title>C_DBGATE&#45;&#45;C_MARIADB_FEDORA</title>
<path fill="none" stroke="orange" d="M971.41,-273.97C1060.56,-264.88 1189.81,-240.65 1282.72,-176.32 1295.59,-167.41 1288.86,-154.6 1302.72,-147.32 1330.46,-132.76 1558.71,-129.86 1584.72,-147.32 1619.81,-170.88 1598.75,-199.23 1620.72,-235.32 1653.99,-289.97 1706.2,-344.82 1733.94,-372.28"/>
</g>
<!-- WEBSERVER&#45;&#45;BIND_NGINX_SITE_CONFIG -->
<g id="edge16" class="edge">
<title>WEBSERVER&#45;&#45;BIND_NGINX_SITE_CONFIG</title>
<path fill="none" stroke="blue" d="M336.15,-371.55C335.35,-432.33 341.81,-629.2 453.72,-718.32 523.89,-774.2 623.6,-784.01 707.54,-779.34"/>
</g>
<!-- WEBSERVER&#45;&#45;BIND_NGINX_SERVER_CONFIG -->
<g id="edge17" class="edge">
<title>WEBSERVER&#45;&#45;BIND_NGINX_SERVER_CONFIG</title>
<path fill="none" stroke="blue" d="M337.67,-371.41C341.52,-424.29 360.62,-579.17 453.72,-648.32 496.23,-679.9 548.42,-696.22 601.22,-703.46"/>
</g>
<!-- WEBSERVER&#45;&#45;BIND_NGINX_CERTS -->
<g id="edge18" class="edge">
<title>WEBSERVER&#45;&#45;BIND_NGINX_CERTS</title>
<path fill="none" stroke="blue" d="M340.06,-371.56C349.21,-415.76 379.17,-528.63 453.72,-578.32 521.84,-623.72 610.95,-635.71 689,-635.01"/>
</g>
<!-- WEBSERVER&#45;&#45;C_FEDORA -->
<g id="edge32" class="edge">
<title>WEBSERVER&#45;&#45;C_FEDORA</title>
<path fill="none" stroke="magenta" d="M403.41,-371.34C419.75,-375.02 437.27,-378.36 453.72,-380.32 776.41,-418.73 1162.49,-405.81 1341.88,-396.47"/>
</g>
<!-- WEBSERVER&#45;&#45;C_API -->
<g id="edge33" class="edge">
<title>WEBSERVER&#45;&#45;C_API</title>
<path fill="none" stroke="magenta" d="M434.02,-353.32C532.44,-353.32 683.24,-353.32 778.47,-353.32"/>
</g>
<!-- WEBSERVER&#45;&#45;C_UI -->
<g id="edge34" class="edge">
<title>WEBSERVER&#45;&#45;C_UI</title>
<path fill="none" stroke="magenta" d="M351.64,-335.3C372.07,-311.97 411.08,-272 453.72,-252.32 764.26,-109.03 1182.09,-96.24 1358.52,-97.97"/>
</g>
<!-- WEBSERVER&#45;&#45;C_SOLR -->
<g id="edge35" class="edge">
<title>WEBSERVER&#45;&#45;C_SOLR</title>
<path fill="none" stroke="magenta" d="M404.36,-335.27C420.43,-331.66 437.59,-328.36 453.72,-326.32 499.43,-320.56 1244.98,-332.74 1282.72,-306.32 1302.67,-292.36 1284,-270.89 1302.72,-255.32 1316.61,-243.77 1333.97,-236.61 1351.68,-232.27"/>
</g>
<!-- WEBSERVER&#45;&#45;C_DBGATE -->
<g id="edge36" class="edge">
<title>WEBSERVER&#45;&#45;C_DBGATE</title>
<path fill="none" stroke="magenta" d="M378.44,-335.27C400.42,-326.55 428.08,-316.81 453.72,-311.32 558.28,-288.93 680.67,-281.75 765.03,-279.67"/>
</g>
<!-- WEBSERVER&#45;&#45;C_LAM -->
<g id="edge37" class="edge">
<title>WEBSERVER&#45;&#45;C_LAM</title>
<path fill="none" stroke="magenta" d="M338.54,-335.05C344.53,-285.92 368.4,-150.91 453.72,-94.32 663.21,44.62 1347.61,10.14 1584.72,-73.32 1651.43,-96.8 1711.21,-159.2 1737.93,-190.25"/>
</g>
</g>
</svg>
