<?xml version="1.0" encoding="UTF-8" standalone="no"?>
<!DOCTYPE svg PUBLIC "-//W3C//DTD SVG 1.1//EN"
 "http://www.w3.org/Graphics/SVG/1.1/DTD/svg11.dtd">
<!-- Generated by graphviz version 2.43.0 (0)
 -->
<!-- Title: G Pages: 1 -->
<svg width="1812pt" height="2328pt"
 viewBox="0.00 0.00 1811.72 2327.79" xmlns="http://www.w3.org/2000/svg" xmlns:xlink="http://www.w3.org/1999/xlink">
<g id="graph0" class="graph" transform="scale(1 1) rotate(0) translate(4 2323.79)">
<title>G</title>
<polygon fill="white" stroke="transparent" points="-4,4 -4,-2323.79 1807.72,-2323.79 1807.72,4 -4,4"/>
<g id="clust1" class="cluster">
<title>cluster_host</title>
<polygon fill="none" stroke="red" points="221.72,-90.79 221.72,-2311.79 1795.72,-2311.79 1795.72,-90.79 221.72,-90.79"/>
<text text-anchor="middle" x="1008.72" y="-2296.59" font-family="Times,serif" font-size="14.00">PHAIDRA server firewall</text>
</g>
<g id="clust2" class="cluster">
<title>cluster_host_storage</title>
<polygon fill="none" stroke="blue" points="446.72,-565.79 446.72,-2280.79 1241.72,-2280.79 1241.72,-565.79 446.72,-565.79"/>
<text text-anchor="middle" x="844.22" y="-2265.59" font-family="Times,serif" font-size="14.00">PHAIDRA server filesystem</text>
</g>
<g id="clust3" class="cluster">
<title>cluster_named_volumes</title>
<polygon fill="none" stroke="turquoise" points="454.72,-1302.79 454.72,-2249.79 1233.72,-2249.79 1233.72,-1302.79 454.72,-1302.79"/>
<text text-anchor="middle" x="844.22" y="-2234.59" font-family="Times,serif" font-size="14.00">Named volumes</text>
</g>
<g id="clust4" class="cluster">
<title>cluster_bind_mounts</title>
<polygon fill="none" stroke="blue" points="551.72,-573.79 551.72,-1294.79 1136.72,-1294.79 1136.72,-573.79 551.72,-573.79"/>
<text text-anchor="middle" x="844.22" y="-1279.59" font-family="Times,serif" font-size="14.00">Bind mounts</text>
</g>
<g id="clust5" class="cluster">
<title>cluster_docker_network_host</title>
<polygon fill="none" stroke="green" points="229.72,-98.79 229.72,-557.79 1787.72,-557.79 1787.72,-98.79 229.72,-98.79"/>
<text text-anchor="middle" x="1008.72" y="-542.59" font-family="Times,serif" font-size="14.00">PHAIDRA docker containers</text>
</g>
<!-- USER -->
<g id="node1" class="node">
<title>USER</title>
<polygon fill="none" stroke="black" points="193.59,-373.34 193.59,-388.25 139.27,-398.79 62.45,-398.79 8.13,-388.25 8.13,-373.34 62.45,-362.79 139.27,-362.79 193.59,-373.34"/>
<polygon fill="none" stroke="black" points="197.59,-370.04 197.59,-391.55 139.66,-402.79 62.07,-402.79 4.13,-391.55 4.13,-370.04 62.07,-358.79 139.66,-358.79 197.59,-370.04"/>
<polygon fill="none" stroke="black" points="201.58,-366.74 201.58,-394.85 140.04,-406.79 61.68,-406.79 0.14,-394.85 0.14,-366.74 61.68,-354.79 140.04,-354.79 201.58,-366.74"/>
<text text-anchor="middle" x="100.86" y="-377.09" font-family="Times,serif" font-size="14.00">PHAIDRA USER</text>
</g>
<!-- WEBSERVER -->
<g id="node38" class="node">
<title>WEBSERVER</title>
<polygon fill="none" stroke="green" points="413.72,-367.79 250.72,-367.79 250.72,-363.79 246.72,-363.79 246.72,-359.79 250.72,-359.79 250.72,-339.79 246.72,-339.79 246.72,-335.79 250.72,-335.79 250.72,-331.79 413.72,-331.79 413.72,-367.79"/>
<polyline fill="none" stroke="green" points="250.72,-363.79 254.72,-363.79 254.72,-359.79 250.72,-359.79 "/>
<polyline fill="none" stroke="green" points="250.72,-339.79 254.72,-339.79 254.72,-335.79 250.72,-335.79 "/>
<text text-anchor="middle" x="332.22" y="-346.09" font-family="Times,serif" font-size="14.00">phaidra&#45;shib&#45;httpd&#45;1</text>
</g>
<!-- USER&#45;&#45;WEBSERVER -->
<g id="edge50" class="edge">
<title>USER&#45;&#45;WEBSERVER</title>
<path fill="none" stroke="red" d="M201.79,-367.29C218.09,-365.08 234.79,-362.83 250.55,-360.7"/>
</g>
<!-- IDP -->
<g id="node2" class="node">
<title>IDP</title>
<polygon fill="none" stroke="black" points="161.86,-330.79 39.86,-330.79 39.86,-306.79 161.86,-306.79 161.86,-330.79"/>
<polyline fill="none" stroke="black" points="42.86,-320.29 45.86,-317.29 "/>
<polyline fill="none" stroke="black" points="42.86,-317.29 45.86,-320.29 "/>
<polyline fill="none" stroke="black" points="42.86,-309.79 158.86,-309.79 "/>
<text text-anchor="middle" x="100.86" y="-315.09" font-family="Times,serif" font-size="14.00">Shibboleth IdP</text>
</g>
<!-- IDP&#45;&#45;WEBSERVER -->
<g id="edge51" class="edge">
<title>IDP&#45;&#45;WEBSERVER</title>
<path fill="none" stroke="red" d="M162.12,-326.94C189.2,-330.6 221.54,-334.97 250.66,-338.9"/>
</g>
<!-- HS_FEDORA -->
<g id="node3" class="node">
<title>HS_FEDORA</title>
<polygon fill="none" stroke="turquoise" points="1160.22,-1916.79 1157.22,-1920.79 1136.22,-1920.79 1133.22,-1916.79 528.22,-1916.79 528.22,-1822.79 1160.22,-1822.79 1160.22,-1916.79"/>
<text text-anchor="start" x="540.22" y="-1898.59" font-family="Times,serif" font-weight="bold" font-size="14.00">host:</text>
<text text-anchor="start" x="699.22" y="-1897.59" font-family="Times,serif" font-size="14.00">$HOME/.local/share/docker/volumes/phaidra&#45;shib_fedora/_data</text>
<text text-anchor="start" x="540.22" y="-1876.59" font-family="Times,serif" font-size="14.00">fedora&#45;container:</text>
<text text-anchor="start" x="699.22" y="-1876.59" font-family="Times,serif" font-size="14.00">/usr/local/tomcat/fcrepo&#45;home</text>
<text text-anchor="start" x="540.22" y="-1855.59" font-family="Times,serif" font-size="14.00">pixelgecko&#45;container:</text>
<text text-anchor="start" x="699.22" y="-1855.59" font-family="Times,serif" font-size="14.00"> /mnt/fedora:ro</text>
<text text-anchor="start" x="540.22" y="-1834.59" font-family="Times,serif" font-size="14.00">api&#45;container:</text>
<text text-anchor="start" x="699.22" y="-1834.59" font-family="Times,serif" font-size="14.00"> /mnt/fedora:ro</text>
</g>
<!-- C_FEDORA -->
<g id="node25" class="node">
<title>C_FEDORA</title>
<g id="a_node25"><a xlink:href="https://fedora.lyrasis.org/" xlink:title="phaidra&#45;shib&#45;fedora&#45;1">
<polygon fill="none" stroke="green" points="1471.22,-310.79 1301.22,-310.79 1301.22,-306.79 1297.22,-306.79 1297.22,-302.79 1301.22,-302.79 1301.22,-282.79 1297.22,-282.79 1297.22,-278.79 1301.22,-278.79 1301.22,-274.79 1471.22,-274.79 1471.22,-310.79"/>
<polyline fill="none" stroke="green" points="1301.22,-306.79 1305.22,-306.79 1305.22,-302.79 1301.22,-302.79 "/>
<polyline fill="none" stroke="green" points="1301.22,-282.79 1305.22,-282.79 1305.22,-278.79 1301.22,-278.79 "/>
<text text-anchor="middle" x="1386.22" y="-289.09" font-family="Times,serif" font-size="14.00">phaidra&#45;shib&#45;fedora&#45;1</text>
</a>
</g>
</g>
<!-- HS_FEDORA&#45;&#45;C_FEDORA -->
<g id="edge1" class="edge">
<title>HS_FEDORA&#45;&#45;C_FEDORA</title>
<path fill="none" stroke="turquoise" d="M1160.5,-1868.94C1191.37,-1856.83 1219.44,-1839.1 1241.72,-1813.79 1296.58,-1751.49 1209.24,-384.1 1261.72,-319.79 1271.71,-307.55 1285.85,-300.06 1301.02,-295.61"/>
</g>
<!-- C_API -->
<g id="node26" class="node">
<title>C_API</title>
<g id="a_node26"><a xlink:href="https://github.com/phaidra/phaidra-api" xlink:title="phaidra&#45;shib&#45;api&#45;1">
<polygon fill="none" stroke="green" points="917.22,-421.79 771.22,-421.79 771.22,-417.79 767.22,-417.79 767.22,-413.79 771.22,-413.79 771.22,-393.79 767.22,-393.79 767.22,-389.79 771.22,-389.79 771.22,-385.79 917.22,-385.79 917.22,-421.79"/>
<polyline fill="none" stroke="green" points="771.22,-417.79 775.22,-417.79 775.22,-413.79 771.22,-413.79 "/>
<polyline fill="none" stroke="green" points="771.22,-393.79 775.22,-393.79 775.22,-389.79 771.22,-389.79 "/>
<text text-anchor="middle" x="844.22" y="-400.09" font-family="Times,serif" font-size="14.00">phaidra&#45;shib&#45;api&#45;1</text>
</a>
</g>
</g>
<!-- HS_FEDORA&#45;&#45;C_API -->
<g id="edge3" class="edge">
<title>HS_FEDORA&#45;&#45;C_API</title>
<path fill="none" stroke="turquoise" d="M527.98,-1884.29C488.01,-1870.1 454.79,-1845.37 436.72,-1804.79 429.79,-1789.24 429.79,-594.35 436.72,-578.79 492.79,-452.89 669.68,-417.5 771.02,-407.59"/>
</g>
<!-- C_PIXELGECKO -->
<g id="node33" class="node">
<title>C_PIXELGECKO</title>
<polygon fill="none" stroke="green" points="1763.22,-526.79 1563.22,-526.79 1563.22,-522.79 1559.22,-522.79 1559.22,-518.79 1563.22,-518.79 1563.22,-498.79 1559.22,-498.79 1559.22,-494.79 1563.22,-494.79 1563.22,-490.79 1763.22,-490.79 1763.22,-526.79"/>
<polyline fill="none" stroke="green" points="1563.22,-522.79 1567.22,-522.79 1567.22,-518.79 1563.22,-518.79 "/>
<polyline fill="none" stroke="green" points="1563.22,-498.79 1567.22,-498.79 1567.22,-494.79 1563.22,-494.79 "/>
<text text-anchor="middle" x="1663.22" y="-505.09" font-family="Times,serif" font-size="14.00">phaidra&#45;shib&#45;pixelgecko&#45;1</text>
</g>
<!-- HS_FEDORA&#45;&#45;C_PIXELGECKO -->
<g id="edge14" class="edge">
<title>HS_FEDORA&#45;&#45;C_PIXELGECKO</title>
<path fill="none" stroke="turquoise" d="M1160.44,-1858.59C1189.88,-1848.03 1217.65,-1833.5 1241.72,-1813.79 1459.51,-1635.48 1633.78,-672.86 1659.07,-527.25"/>
</g>
<!-- HS_API_LOGS -->
<g id="node4" class="node">
<title>HS_API_LOGS</title>
<polygon fill="none" stroke="turquoise" points="1139.22,-2148.79 1136.22,-2152.79 1115.22,-2152.79 1112.22,-2148.79 549.22,-2148.79 549.22,-2096.79 1139.22,-2096.79 1139.22,-2148.79"/>
<text text-anchor="start" x="561.22" y="-2130.59" font-family="Times,serif" font-weight="bold" font-size="14.00">host:</text>
<text text-anchor="start" x="666.22" y="-2129.59" font-family="Times,serif" font-size="14.00">$HOME/.local/share/docker/volumes/phaidra&#45;shib_api_logs/_data</text>
<text text-anchor="start" x="561.22" y="-2108.59" font-family="Times,serif" font-size="14.00">api&#45;container:</text>
<text text-anchor="start" x="666.22" y="-2108.59" font-family="Times,serif" font-size="14.00">/var/log/phaidra</text>
</g>
<!-- HS_API_LOGS&#45;&#45;C_API -->
<g id="edge2" class="edge">
<title>HS_API_LOGS&#45;&#45;C_API</title>
<path fill="none" stroke="turquoise" d="M549.21,-2126.06C493.27,-2119.1 448.41,-2105.04 436.72,-2078.79 428.25,-2059.76 428.25,-597.82 436.72,-578.79 492.79,-452.89 669.68,-417.5 771.02,-407.59"/>
</g>
<!-- HS_MARIADB_PHAIDRA -->
<g id="node5" class="node">
<title>HS_MARIADB_PHAIDRA</title>
<polygon fill="none" stroke="turquoise" points="1219.22,-1804.79 1216.22,-1808.79 1195.22,-1808.79 1192.22,-1804.79 469.22,-1804.79 469.22,-1752.79 1219.22,-1752.79 1219.22,-1804.79"/>
<text text-anchor="start" x="481.22" y="-1786.59" font-family="Times,serif" font-weight="bold" font-size="14.00">host:</text>
<text text-anchor="start" x="683.22" y="-1785.59" font-family="Times,serif" font-size="14.00">$HOME/.local/share/docker/volumes/phaidra&#45;shib_mariadb_phaidra/_data</text>
<text text-anchor="start" x="481.22" y="-1764.59" font-family="Times,serif" font-size="14.00">mariadb&#45;phaidra&#45;container:</text>
<text text-anchor="start" x="683.22" y="-1764.59" font-family="Times,serif" font-size="14.00">/var/lib/mysql</text>
</g>
<!-- C_MARIADB_PHAIDRA -->
<g id="node27" class="node">
<title>C_MARIADB_PHAIDRA</title>
<g id="a_node27"><a xlink:href="https://mariadb.org/" xlink:title="phaidra&#45;shib&#45;mariadb&#45;phaidra&#45;1">
<polygon fill="none" stroke="green" points="1507.22,-364.79 1265.22,-364.79 1265.22,-360.79 1261.22,-360.79 1261.22,-356.79 1265.22,-356.79 1265.22,-336.79 1261.22,-336.79 1261.22,-332.79 1265.22,-332.79 1265.22,-328.79 1507.22,-328.79 1507.22,-364.79"/>
<polyline fill="none" stroke="green" points="1265.22,-360.79 1269.22,-360.79 1269.22,-356.79 1265.22,-356.79 "/>
<polyline fill="none" stroke="green" points="1265.22,-336.79 1269.22,-336.79 1269.22,-332.79 1265.22,-332.79 "/>
<text text-anchor="middle" x="1386.22" y="-343.09" font-family="Times,serif" font-size="14.00">phaidra&#45;shib&#45;mariadb&#45;phaidra&#45;1</text>
</a>
</g>
</g>
<!-- HS_MARIADB_PHAIDRA&#45;&#45;C_MARIADB_PHAIDRA -->
<g id="edge6" class="edge">
<title>HS_MARIADB_PHAIDRA&#45;&#45;C_MARIADB_PHAIDRA</title>
<path fill="none" stroke="turquoise" d="M956.57,-1804.82C1047.17,-1818.69 1171.17,-1819.73 1241.72,-1743.79 1293.53,-1688.03 1213.56,-432.74 1261.72,-373.79 1264.36,-370.56 1267.29,-367.66 1270.45,-365.07"/>
</g>
<!-- HS_MONGODB_PHAIDRA -->
<g id="node6" class="node">
<title>HS_MONGODB_PHAIDRA</title>
<polygon fill="none" stroke="turquoise" points="1225.72,-1594.79 1222.72,-1598.79 1201.72,-1598.79 1198.72,-1594.79 462.72,-1594.79 462.72,-1542.79 1225.72,-1542.79 1225.72,-1594.79"/>
<text text-anchor="start" x="475.22" y="-1576.59" font-family="Times,serif" font-weight="bold" font-size="14.00">host:</text>
<text text-anchor="start" x="683.22" y="-1575.59" font-family="Times,serif" font-size="14.00">$HOME/.local/share/docker/volumes/phaidra&#45;shib_mongodb_phaidra/_data</text>
<text text-anchor="start" x="475.22" y="-1554.59" font-family="Times,serif" font-size="14.00">phaidra&#45;mongodb&#45;container:</text>
<text text-anchor="start" x="683.22" y="-1554.59" font-family="Times,serif" font-size="14.00">/data/db</text>
</g>
<!-- C_MONGODB_PHAIDRA -->
<g id="node28" class="node">
<title>C_MONGODB_PHAIDRA</title>
<g id="a_node28"><a xlink:href="https://www.mongodb.com/" xlink:title="phaidra&#45;shib&#45;mongodb&#45;phaidra&#45;1">
<polygon fill="none" stroke="green" points="1510.72,-418.79 1261.72,-418.79 1261.72,-414.79 1257.72,-414.79 1257.72,-410.79 1261.72,-410.79 1261.72,-390.79 1257.72,-390.79 1257.72,-386.79 1261.72,-386.79 1261.72,-382.79 1510.72,-382.79 1510.72,-418.79"/>
<polyline fill="none" stroke="green" points="1261.72,-414.79 1265.72,-414.79 1265.72,-410.79 1261.72,-410.79 "/>
<polyline fill="none" stroke="green" points="1261.72,-390.79 1265.72,-390.79 1265.72,-386.79 1261.72,-386.79 "/>
<text text-anchor="middle" x="1386.22" y="-397.09" font-family="Times,serif" font-size="14.00">phaidra&#45;shib&#45;mongodb&#45;phaidra&#45;1</text>
</a>
</g>
</g>
<!-- HS_MONGODB_PHAIDRA&#45;&#45;C_MONGODB_PHAIDRA -->
<g id="edge7" class="edge">
<title>HS_MONGODB_PHAIDRA&#45;&#45;C_MONGODB_PHAIDRA</title>
<path fill="none" stroke="turquoise" d="M956.96,-1594.82C1047.47,-1608.6 1171.15,-1609.48 1241.72,-1533.79 1283.63,-1488.84 1222.75,-475.31 1261.72,-427.79 1264.37,-424.57 1267.3,-421.67 1270.46,-419.08"/>
</g>
<!-- HS_OPENLDAP -->
<g id="node7" class="node">
<title>HS_OPENLDAP</title>
<polygon fill="none" stroke="turquoise" points="1164.72,-1986.79 1161.72,-1990.79 1140.72,-1990.79 1137.72,-1986.79 523.72,-1986.79 523.72,-1934.79 1164.72,-1934.79 1164.72,-1986.79"/>
<text text-anchor="start" x="536.22" y="-1968.59" font-family="Times,serif" font-weight="bold" font-size="14.00">host:</text>
<text text-anchor="start" x="684.22" y="-1967.59" font-family="Times,serif" font-size="14.00">$HOME/.local/share/docker/volumes/phaidra&#45;shib_openldap/_data</text>
<text text-anchor="start" x="536.22" y="-1946.59" font-family="Times,serif" font-size="14.00">openldap&#45;container:</text>
<text text-anchor="start" x="684.22" y="-1946.59" font-family="Times,serif" font-size="14.00">/bitnami/openldap</text>
</g>
<!-- C_OPENLDAP -->
<g id="node30" class="node">
<title>C_OPENLDAP</title>
<g id="a_node30"><a xlink:href="https://www.openldap.org/" xlink:title="phaidra&#45;shib&#45;openldap&#45;1">
<polygon fill="none" stroke="green" points="1480.72,-472.79 1291.72,-472.79 1291.72,-468.79 1287.72,-468.79 1287.72,-464.79 1291.72,-464.79 1291.72,-444.79 1287.72,-444.79 1287.72,-440.79 1291.72,-440.79 1291.72,-436.79 1480.72,-436.79 1480.72,-472.79"/>
<polyline fill="none" stroke="green" points="1291.72,-468.79 1295.72,-468.79 1295.72,-464.79 1291.72,-464.79 "/>
<polyline fill="none" stroke="green" points="1291.72,-444.79 1295.72,-444.79 1295.72,-440.79 1291.72,-440.79 "/>
<text text-anchor="middle" x="1386.22" y="-451.09" font-family="Times,serif" font-size="14.00">phaidra&#45;shib&#45;openldap&#45;1</text>
</a>
</g>
</g>
<!-- HS_OPENLDAP&#45;&#45;C_OPENLDAP -->
<g id="edge10" class="edge">
<title>HS_OPENLDAP&#45;&#45;C_OPENLDAP</title>
<path fill="none" stroke="turquoise" d="M956.59,-1986.83C1047.19,-2000.72 1171.19,-2001.76 1241.72,-1925.79 1296.31,-1867 1210.98,-543.94 1261.72,-481.79 1269.63,-472.1 1280.15,-465.39 1291.71,-460.81"/>
</g>
<!-- HS_SOLR -->
<g id="node8" class="node">
<title>HS_SOLR</title>
<polygon fill="none" stroke="turquoise" points="1126.22,-1734.79 1123.22,-1738.79 1102.22,-1738.79 1099.22,-1734.79 562.22,-1734.79 562.22,-1682.79 1126.22,-1682.79 1126.22,-1734.79"/>
<text text-anchor="start" x="574.22" y="-1716.59" font-family="Times,serif" font-weight="bold" font-size="14.00">host:</text>
<text text-anchor="start" x="684.22" y="-1715.59" font-family="Times,serif" font-size="14.00">$HOME/.local/share/docker/volumes/phaidra&#45;shib_solr/_data</text>
<text text-anchor="start" x="574.22" y="-1694.59" font-family="Times,serif" font-size="14.00">solr&#45;container:</text>
<text text-anchor="start" x="684.22" y="-1694.59" font-family="Times,serif" font-size="14.00">/var/solr</text>
</g>
<!-- C_SOLR -->
<g id="node31" class="node">
<title>C_SOLR</title>
<g id="a_node31"><a xlink:href="https://solr.apache.org/" xlink:title="phaidra&#45;shib&#45;solr&#45;1">
<polygon fill="none" stroke="green" points="1461.72,-256.79 1310.72,-256.79 1310.72,-252.79 1306.72,-252.79 1306.72,-248.79 1310.72,-248.79 1310.72,-228.79 1306.72,-228.79 1306.72,-224.79 1310.72,-224.79 1310.72,-220.79 1461.72,-220.79 1461.72,-256.79"/>
<polyline fill="none" stroke="green" points="1310.72,-252.79 1314.72,-252.79 1314.72,-248.79 1310.72,-248.79 "/>
<polyline fill="none" stroke="green" points="1310.72,-228.79 1314.72,-228.79 1314.72,-224.79 1310.72,-224.79 "/>
<text text-anchor="middle" x="1386.22" y="-235.09" font-family="Times,serif" font-size="14.00">phaidra&#45;shib&#45;solr&#45;1</text>
</a>
</g>
</g>
<!-- HS_SOLR&#45;&#45;C_SOLR -->
<g id="edge12" class="edge">
<title>HS_SOLR&#45;&#45;C_SOLR</title>
<path fill="none" stroke="turquoise" d="M956.58,-1734.83C1047.18,-1748.71 1171.18,-1749.74 1241.72,-1673.79 1294.96,-1616.47 1212.24,-326.38 1261.72,-265.79 1273.8,-251 1291.93,-243.15 1310.61,-239.22"/>
</g>
<!-- HS_PIXELGECKO -->
<g id="node9" class="node">
<title>HS_PIXELGECKO</title>
<polygon fill="none" stroke="turquoise" points="1181.72,-2078.29 1178.72,-2082.29 1157.72,-2082.29 1154.72,-2078.29 506.72,-2078.29 506.72,-2005.29 1181.72,-2005.29 1181.72,-2078.29"/>
<text text-anchor="start" x="519.22" y="-2059.59" font-family="Times,serif" font-weight="bold" font-size="14.00">host:</text>
<text text-anchor="start" x="691.22" y="-2058.59" font-family="Times,serif" font-size="14.00">$HOME/.local/share/docker/volumes/phaidra&#45;shib_pixelgecko/_data</text>
<text text-anchor="start" x="519.22" y="-2037.59" font-family="Times,serif" font-size="14.00">pixelgecko&#45;container:</text>
<text text-anchor="start" x="691.22" y="-2037.59" font-family="Times,serif" font-size="14.00">/mnt/converted_images</text>
<text text-anchor="start" x="519.22" y="-2016.59" font-family="Times,serif" font-size="14.00">imageserver&#45;container:</text>
<text text-anchor="start" x="691.22" y="-2016.59" font-family="Times,serif" font-size="14.00">/mnt/converted_images:ro</text>
</g>
<!-- C_IMAGESERVER -->
<g id="node32" class="node">
<title>C_IMAGESERVER</title>
<g id="a_node32"><a xlink:href="https://github.com/ruven/iipsrv" xlink:title="phaidra&#45;shib&#45;imageserver&#45;1">
<polygon fill="none" stroke="green" points="1492.72,-526.79 1279.72,-526.79 1279.72,-522.79 1275.72,-522.79 1275.72,-518.79 1279.72,-518.79 1279.72,-498.79 1275.72,-498.79 1275.72,-494.79 1279.72,-494.79 1279.72,-490.79 1492.72,-490.79 1492.72,-526.79"/>
<polyline fill="none" stroke="green" points="1279.72,-522.79 1283.72,-522.79 1283.72,-518.79 1279.72,-518.79 "/>
<polyline fill="none" stroke="green" points="1279.72,-498.79 1283.72,-498.79 1283.72,-494.79 1279.72,-494.79 "/>
<text text-anchor="middle" x="1386.22" y="-505.09" font-family="Times,serif" font-size="14.00">phaidra&#45;shib&#45;imageserver&#45;1</text>
</a>
</g>
</g>
<!-- HS_PIXELGECKO&#45;&#45;C_IMAGESERVER -->
<g id="edge13" class="edge">
<title>HS_PIXELGECKO&#45;&#45;C_IMAGESERVER</title>
<path fill="none" stroke="turquoise" d="M1182.07,-2039.39C1204.29,-2028.65 1224.6,-2014.41 1241.72,-1995.79 1265.06,-1970.43 1258.73,-1410.12 1261.72,-1375.79 1291.6,-1032.72 1365.29,-618.03 1381.87,-527.01"/>
</g>
<!-- HS_PIXELGECKO&#45;&#45;C_PIXELGECKO -->
<g id="edge15" class="edge">
<title>HS_PIXELGECKO&#45;&#45;C_PIXELGECKO</title>
<path fill="none" stroke="turquoise" d="M1181.82,-2026.22C1202.93,-2018.2 1223.13,-2008.19 1241.72,-1995.79 1445.5,-1859.89 1431.42,-1746.54 1510.72,-1514.79 1641.81,-1131.69 1659.61,-627.98 1661.9,-526.9"/>
</g>
<!-- HS_DBGATE -->
<g id="node10" class="node">
<title>HS_DBGATE</title>
<polygon fill="none" stroke="turquoise" points="1149.22,-1664.79 1146.22,-1668.79 1125.22,-1668.79 1122.22,-1664.79 539.22,-1664.79 539.22,-1612.79 1149.22,-1612.79 1149.22,-1664.79"/>
<text text-anchor="start" x="551.22" y="-1646.59" font-family="Times,serif" font-weight="bold" font-size="14.00">host:</text>
<text text-anchor="start" x="684.22" y="-1645.59" font-family="Times,serif" font-size="14.00">$HOME/.local/share/docker/volumes/phaidra&#45;shib_dbgate/_data</text>
<text text-anchor="start" x="551.22" y="-1624.59" font-family="Times,serif" font-size="14.00">dbgate&#45;container:</text>
<text text-anchor="start" x="684.22" y="-1624.59" font-family="Times,serif" font-size="14.00">/root/.dbgate</text>
</g>
<!-- C_DBGATE -->
<g id="node34" class="node">
<title>C_DBGATE</title>
<polygon fill="none" stroke="green" points="930.72,-367.79 757.72,-367.79 757.72,-363.79 753.72,-363.79 753.72,-359.79 757.72,-359.79 757.72,-339.79 753.72,-339.79 753.72,-335.79 757.72,-335.79 757.72,-331.79 930.72,-331.79 930.72,-367.79"/>
<polyline fill="none" stroke="green" points="757.72,-363.79 761.72,-363.79 761.72,-359.79 757.72,-359.79 "/>
<polyline fill="none" stroke="green" points="757.72,-339.79 761.72,-339.79 761.72,-335.79 757.72,-335.79 "/>
<text text-anchor="middle" x="844.22" y="-346.09" font-family="Times,serif" font-size="14.00">phaidra&#45;shib&#45;dbgate&#45;1</text>
</g>
<!-- HS_DBGATE&#45;&#45;C_DBGATE -->
<g id="edge17" class="edge">
<title>HS_DBGATE&#45;&#45;C_DBGATE</title>
<path fill="none" stroke="turquoise" d="M539.21,-1640.72C487.97,-1633.36 447.7,-1619.45 436.72,-1594.79 429.89,-1579.45 429.89,-401.13 436.72,-385.79 462.19,-328.62 645.74,-333.11 757.64,-341.45"/>
</g>
<!-- HS_MARIADB_FEDORA -->
<g id="node11" class="node">
<title>HS_MARIADB_FEDORA</title>
<polygon fill="none" stroke="turquoise" points="1210.22,-2218.79 1207.22,-2222.79 1186.22,-2222.79 1183.22,-2218.79 478.22,-2218.79 478.22,-2166.79 1210.22,-2166.79 1210.22,-2218.79"/>
<text text-anchor="start" x="490.22" y="-2200.59" font-family="Times,serif" font-weight="bold" font-size="14.00">host:</text>
<text text-anchor="start" x="683.22" y="-2199.59" font-family="Times,serif" font-size="14.00">$HOME/.local/share/docker/volumes/phaidra&#45;shib_mariadb_fedora/_data</text>
<text text-anchor="start" x="490.22" y="-2178.59" font-family="Times,serif" font-size="14.00">mariadb&#45;fedora&#45;container:</text>
<text text-anchor="start" x="683.22" y="-2178.59" font-family="Times,serif" font-size="14.00">/var/lib/mysql</text>
</g>
<!-- C_MARIADB_FEDORA -->
<g id="node36" class="node">
<title>C_MARIADB_FEDORA</title>
<g id="a_node36"><a xlink:href="https://mariadb.org/" xlink:title="phaidra&#45;shib&#45;mariadb&#45;fedora&#45;1">
<polygon fill="none" stroke="green" points="1779.72,-264.79 1546.72,-264.79 1546.72,-260.79 1542.72,-260.79 1542.72,-256.79 1546.72,-256.79 1546.72,-236.79 1542.72,-236.79 1542.72,-232.79 1546.72,-232.79 1546.72,-228.79 1779.72,-228.79 1779.72,-264.79"/>
<polyline fill="none" stroke="green" points="1546.72,-260.79 1550.72,-260.79 1550.72,-256.79 1546.72,-256.79 "/>
<polyline fill="none" stroke="green" points="1546.72,-236.79 1550.72,-236.79 1550.72,-232.79 1546.72,-232.79 "/>
<text text-anchor="middle" x="1663.22" y="-243.09" font-family="Times,serif" font-size="14.00">phaidra&#45;shib&#45;mariadb&#45;fedora&#45;1</text>
</a>
</g>
</g>
<!-- HS_MARIADB_FEDORA&#45;&#45;C_MARIADB_FEDORA -->
<g id="edge18" class="edge">
<title>HS_MARIADB_FEDORA&#45;&#45;C_MARIADB_FEDORA</title>
<path fill="none" stroke="turquoise" d="M980.55,-2218.81C1065.9,-2226.98 1172.67,-2220.77 1241.72,-2157.79 1801.13,-1647.6 1309.7,-1200.86 1546.72,-481.79 1574.76,-396.74 1628.04,-303.43 1651.11,-264.93"/>
</g>
<!-- HS_DATABASE_DUMPS -->
<g id="node12" class="node">
<title>HS_DATABASE_DUMPS</title>
<polygon fill="none" stroke="turquoise" points="1218.72,-1524.79 1215.72,-1528.79 1194.72,-1528.79 1191.72,-1524.79 469.72,-1524.79 469.72,-1472.79 1218.72,-1472.79 1218.72,-1524.79"/>
<text text-anchor="start" x="482.22" y="-1506.59" font-family="Times,serif" font-weight="bold" font-size="14.00">host:</text>
<text text-anchor="start" x="621.22" y="-1505.59" font-family="Times,serif" font-size="14.00">$HOME/.local/share/docker/volumes/phaidra&#45;shib_chronos_database_dumps/_data</text>
<text text-anchor="start" x="482.22" y="-1484.59" font-family="Times,serif" font-size="14.00">chronos&#45;container:</text>
<text text-anchor="start" x="621.22" y="-1484.59" font-family="Times,serif" font-size="14.00">/mnt/database&#45;dumps</text>
</g>
<!-- HS_SITEMAPS -->
<g id="node13" class="node">
<title>HS_SITEMAPS</title>
<polygon fill="none" stroke="turquoise" points="1191.22,-1384.29 1188.22,-1388.29 1167.22,-1388.29 1164.22,-1384.29 497.22,-1384.29 497.22,-1311.29 1191.22,-1311.29 1191.22,-1384.29"/>
<text text-anchor="start" x="509.22" y="-1365.59" font-family="Times,serif" font-weight="bold" font-size="14.00">host:</text>
<text text-anchor="start" x="648.22" y="-1364.59" font-family="Times,serif" font-size="14.00">$HOME/.local/share/docker/volumes/phaidra&#45;shib_chronos_sitemaps/_data</text>
<text text-anchor="start" x="509.22" y="-1343.59" font-family="Times,serif" font-size="14.00">chronos&#45;container:</text>
<text text-anchor="start" x="648.22" y="-1343.59" font-family="Times,serif" font-size="14.00">/mnt/sitemaps</text>
<text text-anchor="start" x="509.22" y="-1322.59" font-family="Times,serif" font-size="14.00">httpd&#45;container:</text>
<text text-anchor="start" x="648.22" y="-1322.59" font-family="Times,serif" font-size="14.00">/mnt/sitemaps:ro</text>
</g>
<!-- HS_OAI_LOGS -->
<g id="node14" class="node">
<title>HS_OAI_LOGS</title>
<polygon fill="none" stroke="turquoise" points="1187.22,-1454.79 1184.22,-1458.79 1163.22,-1458.79 1160.22,-1454.79 501.22,-1454.79 501.22,-1402.79 1187.22,-1402.79 1187.22,-1454.79"/>
<text text-anchor="start" x="513.22" y="-1436.59" font-family="Times,serif" font-weight="bold" font-size="14.00">host:</text>
<text text-anchor="start" x="652.22" y="-1435.59" font-family="Times,serif" font-size="14.00">$HOME/.local/share/docker/volumes/phaidra&#45;shib_chronos_oai_logs/_data</text>
<text text-anchor="start" x="513.22" y="-1414.59" font-family="Times,serif" font-size="14.00">chronos&#45;container:</text>
<text text-anchor="start" x="652.22" y="-1414.59" font-family="Times,serif" font-size="14.00">/mnt/oai&#45;logs</text>
</g>
<!-- BIND_MARIADB_PHAIDRA_INIT -->
<g id="node15" class="node">
<title>BIND_MARIADB_PHAIDRA_INIT</title>
<polygon fill="none" stroke="blue" points="1128.22,-773.79 1125.22,-777.79 1104.22,-777.79 1101.22,-773.79 560.22,-773.79 560.22,-721.79 1128.22,-721.79 1128.22,-773.79"/>
<text text-anchor="start" x="572.22" y="-755.59" font-family="Times,serif" font-weight="bold" font-size="14.00">host:</text>
<text text-anchor="start" x="774.22" y="-754.59" font-family="Times,serif" font-size="14.00">$REPO/container_init/mariadb/phaidradb.sql.gz</text>
<text text-anchor="start" x="572.22" y="-733.59" font-family="Times,serif" font-size="14.00">mariadb&#45;phaidra&#45;container:</text>
<text text-anchor="start" x="774.22" y="-733.59" font-family="Times,serif" font-size="14.00">/docker&#45;entrypoint&#45;initdb.d/phaidradb.sql.gz:ro</text>
</g>
<!-- BIND_MARIADB_PHAIDRA_INIT&#45;&#45;C_MARIADB_PHAIDRA -->
<g id="edge5" class="edge">
<title>BIND_MARIADB_PHAIDRA_INIT&#45;&#45;C_MARIADB_PHAIDRA</title>
<path fill="none" stroke="blue" d="M961.62,-773.86C1051.12,-786.38 1171.07,-785.54 1241.72,-712.79 1294.3,-658.66 1212.69,-431.16 1261.72,-373.79 1264.57,-370.46 1267.73,-367.48 1271.14,-364.82"/>
</g>
<!-- BIND_OPENLDAP_INIT -->
<g id="node16" class="node">
<title>BIND_OPENLDAP_INIT</title>
<polygon fill="none" stroke="blue" points="1042.22,-843.79 1039.22,-847.79 1018.22,-847.79 1015.22,-843.79 646.22,-843.79 646.22,-791.79 1042.22,-791.79 1042.22,-843.79"/>
<text text-anchor="start" x="658.22" y="-825.59" font-family="Times,serif" font-weight="bold" font-size="14.00">host:</text>
<text text-anchor="start" x="806.22" y="-824.59" font-family="Times,serif" font-size="14.00">$REPO/container_init/openldap</text>
<text text-anchor="start" x="658.22" y="-803.59" font-family="Times,serif" font-size="14.00">openldap&#45;container:</text>
<text text-anchor="start" x="806.22" y="-803.59" font-family="Times,serif" font-size="14.00">/ldifs:ro</text>
</g>
<!-- BIND_OPENLDAP_INIT&#45;&#45;C_OPENLDAP -->
<g id="edge11" class="edge">
<title>BIND_OPENLDAP_INIT&#45;&#45;C_OPENLDAP</title>
<path fill="none" stroke="blue" d="M962.39,-843.84C1051.71,-856.15 1171.04,-855.03 1241.72,-782.79 1288.61,-734.88 1217.98,-532.59 1261.72,-481.79 1269.74,-472.48 1280.16,-465.95 1291.55,-461.43"/>
</g>
<!-- BIND_HTTPD_CONFIG -->
<g id="node17" class="node">
<title>BIND_HTTPD_CONFIG</title>
<polygon fill="none" stroke="blue" points="1072.72,-983.79 1069.72,-987.79 1048.72,-987.79 1045.72,-983.79 615.72,-983.79 615.72,-931.79 1072.72,-931.79 1072.72,-983.79"/>
<text text-anchor="start" x="628.22" y="-965.59" font-family="Times,serif" font-weight="bold" font-size="14.00">host:</text>
<text text-anchor="start" x="750.22" y="-964.59" font-family="Times,serif" font-size="14.00">$REPO/container_init/httpd/phaidra&#45;shib:ro</text>
<text text-anchor="start" x="628.22" y="-943.59" font-family="Times,serif" font-size="14.00">httpd&#45;container:</text>
<text text-anchor="start" x="750.22" y="-943.59" font-family="Times,serif" font-size="14.00">/mnt/startup:ro</text>
</g>
<!-- BIND_API_CODE -->
<g id="node18" class="node">
<title>BIND_API_CODE</title>
<polygon fill="none" stroke="blue" points="1023.72,-1053.79 1020.72,-1057.79 999.72,-1057.79 996.72,-1053.79 664.72,-1053.79 664.72,-1001.79 1023.72,-1001.79 1023.72,-1053.79"/>
<text text-anchor="start" x="677.22" y="-1035.59" font-family="Times,serif" font-weight="bold" font-size="14.00">host:</text>
<text text-anchor="start" x="782.22" y="-1034.59" font-family="Times,serif" font-size="14.00">$REPO/src/phaidra&#45;api</text>
<text text-anchor="start" x="677.22" y="-1013.59" font-family="Times,serif" font-size="14.00">api&#45;container:</text>
<text text-anchor="start" x="782.22" y="-1013.59" font-family="Times,serif" font-size="14.00">/usr/local/phaidra/phaidra&#45;api:ro</text>
</g>
<!-- BIND_API_CODE&#45;&#45;C_API -->
<g id="edge4" class="edge">
<title>BIND_API_CODE&#45;&#45;C_API</title>
<path fill="none" stroke="blue" d="M664.6,-1037.02C564.39,-1037.13 455.9,-1026.86 436.72,-983.79 427.57,-963.24 427.57,-599.35 436.72,-578.79 492.79,-452.89 669.68,-417.5 771.02,-407.59"/>
</g>
<!-- BIND_DOCUMENTATION -->
<g id="node19" class="node">
<title>BIND_DOCUMENTATION</title>
<polygon fill="none" stroke="blue" points="962.22,-913.79 959.22,-917.79 938.22,-917.79 935.22,-913.79 726.22,-913.79 726.22,-861.79 962.22,-861.79 962.22,-913.79"/>
<text text-anchor="start" x="738.22" y="-895.59" font-family="Times,serif" font-weight="bold" font-size="14.00">host:</text>
<text text-anchor="start" x="860.22" y="-894.59" font-family="Times,serif" font-size="14.00">$REPO/docs</text>
<text text-anchor="start" x="738.22" y="-873.59" font-family="Times,serif" font-size="14.00">httpd&#45;container:</text>
<text text-anchor="start" x="860.22" y="-873.59" font-family="Times,serif" font-size="14.00">/mnt/docs:ro</text>
</g>
<!-- BIND_CHRONOS -->
<g id="node20" class="node">
<title>BIND_CHRONOS</title>
<polygon fill="none" stroke="blue" points="1033.22,-1123.79 1030.22,-1127.79 1009.22,-1127.79 1006.22,-1123.79 655.22,-1123.79 655.22,-1071.79 1033.22,-1071.79 1033.22,-1123.79"/>
<text text-anchor="start" x="667.22" y="-1105.59" font-family="Times,serif" font-weight="bold" font-size="14.00">host:</text>
<text text-anchor="start" x="806.22" y="-1104.59" font-family="Times,serif" font-size="14.00">$REPO/container_init/chronos</text>
<text text-anchor="start" x="667.22" y="-1083.59" font-family="Times,serif" font-size="14.00">chronos&#45;container:</text>
<text text-anchor="start" x="806.22" y="-1083.59" font-family="Times,serif" font-size="14.00">/mnt/chronos:ro</text>
</g>
<!-- BIND_MONGODB_INIT_OAI -->
<g id="node21" class="node">
<title>BIND_MONGODB_INIT_OAI</title>
<polygon fill="none" stroke="blue" points="1106.22,-633.79 1103.22,-637.79 1082.22,-637.79 1079.22,-633.79 582.22,-633.79 582.22,-581.79 1106.22,-581.79 1106.22,-633.79"/>
<text text-anchor="start" x="594.22" y="-615.59" font-family="Times,serif" font-weight="bold" font-size="14.00">host:</text>
<text text-anchor="start" x="743.22" y="-614.59" font-family="Times,serif" font-size="14.00">$REPO/container_init/mongodb/init_oai_sets.json</text>
<text text-anchor="start" x="594.22" y="-593.59" font-family="Times,serif" font-size="14.00">mongodb&#45;container:</text>
<text text-anchor="start" x="743.22" y="-593.59" font-family="Times,serif" font-size="14.00">/mnt/init_oai_sets.json:ro</text>
</g>
<!-- BIND_MONGODB_INIT_OAI&#45;&#45;C_MONGODB_PHAIDRA -->
<g id="edge9" class="edge">
<title>BIND_MONGODB_INIT_OAI&#45;&#45;C_MONGODB_PHAIDRA</title>
<path fill="none" stroke="blue" d="M1106.38,-625.04C1156.69,-616.15 1205.06,-597.28 1241.72,-561.79 1284.99,-519.91 1220.6,-471.77 1261.72,-427.79 1264.79,-424.51 1268.17,-421.57 1271.77,-418.96"/>
</g>
<!-- BIND_MONGODB_INIT -->
<g id="node22" class="node">
<title>BIND_MONGODB_INIT</title>
<polygon fill="none" stroke="blue" points="1128.72,-1193.79 1125.72,-1197.79 1104.72,-1197.79 1101.72,-1193.79 559.72,-1193.79 559.72,-1141.79 1128.72,-1141.79 1128.72,-1193.79"/>
<text text-anchor="start" x="572.22" y="-1175.59" font-family="Times,serif" font-weight="bold" font-size="14.00">host:</text>
<text text-anchor="start" x="721.22" y="-1174.59" font-family="Times,serif" font-size="14.00">$REPO/container_init/mongodb/mongodb&#45;after&#45;entry.sh</text>
<text text-anchor="start" x="572.22" y="-1153.59" font-family="Times,serif" font-size="14.00">mongodb&#45;container:</text>
<text text-anchor="start" x="721.22" y="-1153.59" font-family="Times,serif" font-size="14.00">/docker&#45;entrypoint&#45;initdb.d/mongodb&#45;after&#45;entry.sh:ro</text>
</g>
<!-- BIND_MONGODB_INIT&#45;&#45;C_MONGODB_PHAIDRA -->
<g id="edge8" class="edge">
<title>BIND_MONGODB_INIT&#45;&#45;C_MONGODB_PHAIDRA</title>
<path fill="none" stroke="blue" d="M958.12,-1193.84C1048.38,-1207.3 1171.12,-1207.74 1241.72,-1132.79 1295.46,-1075.75 1211.72,-488.13 1261.72,-427.79 1264.38,-424.58 1267.33,-421.7 1270.5,-419.11"/>
</g>
<!-- BIND_SOLR_INIT -->
<g id="node23" class="node">
<title>BIND_SOLR_INIT</title>
<polygon fill="none" stroke="blue" points="1052.72,-703.79 1049.72,-707.79 1028.72,-707.79 1025.72,-703.79 635.72,-703.79 635.72,-651.79 1052.72,-651.79 1052.72,-703.79"/>
<text text-anchor="start" x="648.22" y="-685.59" font-family="Times,serif" font-weight="bold" font-size="14.00">host:</text>
<text text-anchor="start" x="758.22" y="-684.59" font-family="Times,serif" font-size="14.00">$REPO/container_init/solr/phaidra_core</text>
<text text-anchor="start" x="648.22" y="-663.59" font-family="Times,serif" font-size="14.00">solr&#45;container:</text>
<text text-anchor="start" x="758.22" y="-663.59" font-family="Times,serif" font-size="14.00">/tmp/phaidra:ro</text>
</g>
<!-- BIND_PIXELGECKO -->
<g id="node24" class="node">
<title>BIND_PIXELGECKO</title>
<polygon fill="none" stroke="blue" points="1014.72,-1263.79 1011.72,-1267.79 990.72,-1267.79 987.72,-1263.79 673.72,-1263.79 673.72,-1211.79 1014.72,-1211.79 1014.72,-1263.79"/>
<text text-anchor="start" x="686.22" y="-1245.59" font-family="Times,serif" font-weight="bold" font-size="14.00">host:</text>
<text text-anchor="start" x="845.22" y="-1244.59" font-family="Times,serif" font-size="14.00">$REPO/src/pixelgecko</text>
<text text-anchor="start" x="686.22" y="-1223.59" font-family="Times,serif" font-size="14.00">pixelgecko&#45;container:</text>
<text text-anchor="start" x="845.22" y="-1223.59" font-family="Times,serif" font-size="14.00">/opt/pixelgecko:ro</text>
</g>
<!-- BIND_PIXELGECKO&#45;&#45;C_PIXELGECKO -->
<g id="edge16" class="edge">
<title>BIND_PIXELGECKO&#45;&#45;C_PIXELGECKO</title>
<path fill="none" stroke="blue" d="M1015.13,-1255.88C1089.67,-1255.84 1175.15,-1244.26 1241.72,-1202.79 1513.17,-1033.73 1633.85,-618.82 1657.71,-526.98"/>
</g>
<!-- C_FEDORA&#45;&#45;C_MARIADB_FEDORA -->
<g id="edge26" class="edge">
<title>C_FEDORA&#45;&#45;C_MARIADB_FEDORA</title>
<path fill="none" stroke="orange" d="M1471.23,-278.74C1497.45,-274.35 1526.74,-269.45 1554.36,-264.83"/>
</g>
<!-- C_API&#45;&#45;C_FEDORA -->
<g id="edge27" class="edge">
<title>C_API&#45;&#45;C_FEDORA</title>
<path fill="none" stroke="orange" d="M917.42,-420.68C1003.74,-436.4 1148.26,-447.94 1241.72,-376.79 1263.08,-360.53 1241.61,-337.58 1261.72,-319.79 1272.82,-309.98 1286.65,-303.46 1301,-299.18"/>
</g>
<!-- C_API&#45;&#45;C_MARIADB_PHAIDRA -->
<g id="edge28" class="edge">
<title>C_API&#45;&#45;C_MARIADB_PHAIDRA</title>
<path fill="none" stroke="orange" d="M917.52,-401.87C997.23,-399.05 1129.12,-392.32 1241.72,-376.79 1263.66,-373.77 1287.26,-369.33 1308.86,-364.8"/>
</g>
<!-- C_API&#45;&#45;C_MONGODB_PHAIDRA -->
<g id="edge29" class="edge">
<title>C_API&#45;&#45;C_MONGODB_PHAIDRA</title>
<path fill="none" stroke="orange" d="M917.49,-403.39C1005.43,-402.9 1155.33,-402.07 1261.71,-401.48"/>
</g>
<!-- C_UI -->
<g id="node29" class="node">
<title>C_UI</title>
<g id="a_node29"><a xlink:href="https://github.com/phaidra/phaidra-ui" xlink:title="phaidra&#45;shib&#45;ui&#45;1">
<polygon fill="none" stroke="green" points="1454.72,-182.79 1317.72,-182.79 1317.72,-178.79 1313.72,-178.79 1313.72,-174.79 1317.72,-174.79 1317.72,-154.79 1313.72,-154.79 1313.72,-150.79 1317.72,-150.79 1317.72,-146.79 1454.72,-146.79 1454.72,-182.79"/>
<polyline fill="none" stroke="green" points="1317.72,-178.79 1321.72,-178.79 1321.72,-174.79 1317.72,-174.79 "/>
<polyline fill="none" stroke="green" points="1317.72,-154.79 1321.72,-154.79 1321.72,-150.79 1317.72,-150.79 "/>
<text text-anchor="middle" x="1386.22" y="-161.09" font-family="Times,serif" font-size="14.00">phaidra&#45;shib&#45;ui&#45;1</text>
</a>
</g>
</g>
<!-- C_API&#45;&#45;C_UI -->
<g id="edge30" class="edge">
<title>C_API&#45;&#45;C_UI</title>
<path fill="none" stroke="orange" d="M917.4,-409.37C1018.95,-415.52 1196.67,-419.53 1241.72,-376.79 1295.31,-325.95 1216.2,-269.97 1261.72,-211.79 1275.5,-194.18 1296.7,-183.16 1317.67,-176.27"/>
</g>
<!-- C_API&#45;&#45;C_OPENLDAP -->
<g id="edge31" class="edge">
<title>C_API&#45;&#45;C_OPENLDAP</title>
<path fill="none" stroke="orange" d="M917.49,-410.62C1014.05,-419.74 1185.31,-435.91 1291.64,-445.95"/>
</g>
<!-- C_API&#45;&#45;C_SOLR -->
<g id="edge32" class="edge">
<title>C_API&#45;&#45;C_SOLR</title>
<path fill="none" stroke="orange" d="M917.5,-409.04C1018.72,-414.74 1195.52,-418.16 1241.72,-376.79 1279.07,-343.35 1226.94,-301.89 1261.72,-265.79 1274.59,-252.44 1292.42,-244.96 1310.53,-240.93"/>
</g>
<!-- C_API&#45;&#45;C_IMAGESERVER -->
<g id="edge33" class="edge">
<title>C_API&#45;&#45;C_IMAGESERVER</title>
<path fill="none" stroke="orange" d="M917.49,-417.84C1014.34,-436.68 1186.33,-470.12 1292.59,-490.78"/>
</g>
<!-- C_MONGODB_PHAIDRA&#45;&#45;C_PIXELGECKO -->
<g id="edge34" class="edge">
<title>C_MONGODB_PHAIDRA&#45;&#45;C_PIXELGECKO</title>
<path fill="none" stroke="orange" d="M1482.39,-418.8C1492.07,-421.46 1501.66,-424.45 1510.72,-427.79 1555.92,-444.45 1604.38,-472.33 1634.01,-490.64"/>
</g>
<!-- C_LAM -->
<g id="node35" class="node">
<title>C_LAM</title>
<polygon fill="none" stroke="green" points="1738.22,-199.79 1588.22,-199.79 1588.22,-195.79 1584.22,-195.79 1584.22,-191.79 1588.22,-191.79 1588.22,-171.79 1584.22,-171.79 1584.22,-167.79 1588.22,-167.79 1588.22,-163.79 1738.22,-163.79 1738.22,-199.79"/>
<polyline fill="none" stroke="green" points="1588.22,-195.79 1592.22,-195.79 1592.22,-191.79 1588.22,-191.79 "/>
<polyline fill="none" stroke="green" points="1588.22,-171.79 1592.22,-171.79 1592.22,-167.79 1588.22,-167.79 "/>
<text text-anchor="middle" x="1663.22" y="-178.09" font-family="Times,serif" font-size="14.00">phaidra&#45;shib&#45;lam&#45;1</text>
</g>
<!-- C_OPENLDAP&#45;&#45;C_LAM -->
<g id="edge35" class="edge">
<title>C_OPENLDAP&#45;&#45;C_LAM</title>
<path fill="none" stroke="orange" d="M1480.94,-447C1492.11,-442.62 1502.45,-436.43 1510.72,-427.79 1575.59,-360.01 1485.41,-290.81 1546.72,-219.79 1557.48,-207.33 1572.41,-198.93 1587.96,-193.28"/>
</g>
<!-- C_DBGATE&#45;&#45;C_MARIADB_PHAIDRA -->
<g id="edge36" class="edge">
<title>C_DBGATE&#45;&#45;C_MARIADB_PHAIDRA</title>
<path fill="none" stroke="orange" d="M930.79,-349.32C1020.97,-348.82 1163.74,-348.02 1265.17,-347.46"/>
</g>
<!-- C_DBGATE&#45;&#45;C_MONGODB_PHAIDRA -->
<g id="edge37" class="edge">
<title>C_DBGATE&#45;&#45;C_MONGODB_PHAIDRA</title>
<path fill="none" stroke="orange" d="M930.91,-353.21C1011.37,-356.99 1134.99,-364.26 1241.72,-376.79 1255.77,-378.44 1270.54,-380.52 1285.04,-382.75"/>
</g>
<!-- C_DBGATE&#45;&#45;C_MARIADB_FEDORA -->
<g id="edge38" class="edge">
<title>C_DBGATE&#45;&#45;C_MARIADB_FEDORA</title>
<path fill="none" stroke="orange" d="M885.22,-331.73C958.2,-299.87 1118.65,-234.88 1261.72,-211.79 1370.98,-194.16 1400.77,-199.26 1510.72,-211.79 1539.96,-215.13 1571.76,-221.97 1598.65,-228.72"/>
</g>
<!-- C_CHRONOS -->
<g id="node37" class="node">
<title>C_CHRONOS</title>
<polygon fill="none" stroke="green" points="426.72,-478.79 237.72,-478.79 237.72,-474.79 233.72,-474.79 233.72,-470.79 237.72,-470.79 237.72,-450.79 233.72,-450.79 233.72,-446.79 237.72,-446.79 237.72,-442.79 426.72,-442.79 426.72,-478.79"/>
<polyline fill="none" stroke="green" points="237.72,-474.79 241.72,-474.79 241.72,-470.79 237.72,-470.79 "/>
<polyline fill="none" stroke="green" points="237.72,-450.79 241.72,-450.79 241.72,-446.79 237.72,-446.79 "/>
<text text-anchor="middle" x="332.22" y="-457.09" font-family="Times,serif" font-size="14.00">phaidra&#45;demo&#45;chronos&#45;1</text>
</g>
<!-- C_CHRONOS&#45;&#45;HS_DATABASE_DUMPS -->
<g id="edge22" class="edge">
<title>C_CHRONOS&#45;&#45;HS_DATABASE_DUMPS</title>
<path fill="none" stroke="turquoise" d="M333.92,-478.89C339.06,-608.47 373.11,-1391.97 446.72,-1463.79 517.21,-1532.56 632.08,-1535.62 720.08,-1524.81"/>
</g>
<!-- C_CHRONOS&#45;&#45;HS_SITEMAPS -->
<g id="edge23" class="edge">
<title>C_CHRONOS&#45;&#45;HS_SITEMAPS</title>
<path fill="none" stroke="turquoise" d="M334.38,-479.16C341.96,-596.57 386.03,-1238.8 446.72,-1298.79 461.64,-1313.54 478.58,-1325.49 496.84,-1335.09"/>
</g>
<!-- C_CHRONOS&#45;&#45;HS_OAI_LOGS -->
<g id="edge24" class="edge">
<title>C_CHRONOS&#45;&#45;HS_OAI_LOGS</title>
<path fill="none" stroke="turquoise" d="M334.07,-478.81C340.1,-602.85 378.12,-1327.42 446.72,-1393.79 517.12,-1461.9 631.12,-1465.32 718.86,-1454.8"/>
</g>
<!-- C_CHRONOS&#45;&#45;BIND_CHRONOS -->
<g id="edge25" class="edge">
<title>C_CHRONOS&#45;&#45;BIND_CHRONOS</title>
<path fill="none" stroke="blue" d="M333.81,-478.79C337.17,-570.19 357.18,-981.64 446.72,-1062.79 515.59,-1125.21 621.54,-1131.7 706.6,-1123.8"/>
</g>
<!-- C_CHRONOS&#45;&#45;C_API -->
<g id="edge49" class="edge">
<title>C_CHRONOS&#45;&#45;C_API</title>
<path fill="none" stroke="orange" d="M408.35,-442.74C421.1,-440.11 434.25,-437.66 446.72,-435.79 559.24,-418.94 691.15,-410.53 770.89,-406.67"/>
</g>
<!-- C_CHRONOS&#45;&#45;C_MARIADB_PHAIDRA -->
<g id="edge46" class="edge">
<title>C_CHRONOS&#45;&#45;C_MARIADB_PHAIDRA</title>
<path fill="none" stroke="orange" d="M426.97,-447.56C433.65,-446.88 440.28,-446.28 446.72,-445.79 468.75,-444.13 1223.82,-443.74 1241.72,-430.79 1263.48,-415.06 1241.61,-391.58 1261.72,-373.79 1265.5,-370.45 1269.6,-367.49 1273.93,-364.87"/>
</g>
<!-- C_CHRONOS&#45;&#45;C_MONGODB_PHAIDRA -->
<g id="edge45" class="edge">
<title>C_CHRONOS&#45;&#45;C_MONGODB_PHAIDRA</title>
<path fill="none" stroke="orange" d="M420.05,-478.82C586.38,-509.22 958.57,-557.14 1241.72,-445.79 1252.85,-441.42 1251.08,-433.25 1261.72,-427.79 1268.36,-424.39 1275.42,-421.41 1282.66,-418.81"/>
</g>
<!-- C_CHRONOS&#45;&#45;C_SOLR -->
<g id="edge48" class="edge">
<title>C_CHRONOS&#45;&#45;C_SOLR</title>
<path fill="none" stroke="orange" d="M359.83,-442.51C380.54,-427.08 408.69,-403.33 426.72,-376.79 441.11,-355.62 426.39,-338.34 446.72,-322.79 581.31,-219.9 1112.47,-228.52 1310.38,-235.56"/>
</g>
<!-- C_CHRONOS&#45;&#45;C_MARIADB_FEDORA -->
<g id="edge47" class="edge">
<title>C_CHRONOS&#45;&#45;C_MARIADB_FEDORA</title>
<path fill="none" stroke="orange" d="M362.83,-442.58C384.3,-427.69 412.05,-404.58 426.72,-376.79 458.12,-317.31 398.6,-273.78 446.72,-226.79 531.6,-143.91 1409.63,-75.71 1510.72,-137.79 1540.87,-156.31 1519.88,-185.74 1546.72,-208.79 1556.41,-217.11 1567.97,-223.62 1579.97,-228.72"/>
</g>
<!-- WEBSERVER&#45;&#45;HS_SITEMAPS -->
<g id="edge21" class="edge">
<title>WEBSERVER&#45;&#45;HS_SITEMAPS</title>
<path fill="none" stroke="turquoise" d="M364.17,-367.87C386.04,-382.55 413.69,-405.44 426.72,-433.79 446.8,-477.46 414.47,-1263.15 446.72,-1298.79 461.38,-1314.99 478.44,-1327.95 497.07,-1338.21"/>
</g>
<!-- WEBSERVER&#45;&#45;BIND_HTTPD_CONFIG -->
<g id="edge19" class="edge">
<title>WEBSERVER&#45;&#45;BIND_HTTPD_CONFIG</title>
<path fill="none" stroke="blue" d="M364.02,-367.94C385.82,-382.66 413.43,-405.56 426.72,-433.79 449.88,-482.99 409.19,-883.44 446.72,-922.79 517.43,-996.92 639.22,-996.93 729.21,-983.81"/>
</g>
<!-- WEBSERVER&#45;&#45;BIND_DOCUMENTATION -->
<g id="edge20" class="edge">
<title>WEBSERVER&#45;&#45;BIND_DOCUMENTATION</title>
<path fill="none" stroke="blue" d="M363.97,-367.97C385.73,-382.7 413.34,-405.6 426.72,-433.79 446.71,-475.9 414.44,-819.18 446.72,-852.79 517.45,-926.43 638.61,-926.73 728.43,-913.81"/>
</g>
<!-- WEBSERVER&#45;&#45;C_FEDORA -->
<g id="edge39" class="edge">
<title>WEBSERVER&#45;&#45;C_FEDORA</title>
<path fill="none" stroke="magenta" d="M399.12,-331.75C414.62,-328.16 431.16,-324.87 446.72,-322.79 759.59,-281.01 1136.06,-285.27 1300.95,-289.83"/>
</g>
<!-- WEBSERVER&#45;&#45;C_API -->
<g id="edge40" class="edge">
<title>WEBSERVER&#45;&#45;C_API</title>
<path fill="none" stroke="magenta" d="M400.98,-367.85C415.96,-371.29 431.8,-374.53 446.72,-376.79 559.27,-393.89 691.45,-400.17 771.2,-402.46"/>
</g>
<!-- WEBSERVER&#45;&#45;C_UI -->
<g id="edge41" class="edge">
<title>WEBSERVER&#45;&#45;C_UI</title>
<path fill="none" stroke="magenta" d="M341.67,-331.67C357.34,-300.45 394.16,-237.33 446.72,-210.79 741.25,-62.1 1156.18,-119.64 1317.43,-150.36"/>
</g>
<!-- WEBSERVER&#45;&#45;C_SOLR -->
<g id="edge42" class="edge">
<title>WEBSERVER&#45;&#45;C_SOLR</title>
<path fill="none" stroke="magenta" d="M355.99,-331.78C377.85,-315.65 412.52,-293 446.72,-282.79 756.39,-190.36 1148.86,-214.65 1310.49,-230.35"/>
</g>
<!-- WEBSERVER&#45;&#45;C_DBGATE -->
<g id="edge43" class="edge">
<title>WEBSERVER&#45;&#45;C_DBGATE</title>
<path fill="none" stroke="magenta" d="M413.75,-349.79C507.5,-349.79 661.7,-349.79 757.58,-349.79"/>
</g>
<!-- WEBSERVER&#45;&#45;C_LAM -->
<g id="edge44" class="edge">
<title>WEBSERVER&#45;&#45;C_LAM</title>
<path fill="none" stroke="magenta" d="M335.47,-331.6C342.29,-285.22 367.4,-162.76 446.72,-112.79 840.85,135.45 1457.16,-94.83 1621.05,-163.73"/>
</g>
</g>
</svg>
