<?xml version="1.0" encoding="UTF-8" standalone="no"?>
<!DOCTYPE svg PUBLIC "-//W3C//DTD SVG 1.1//EN"
 "http://www.w3.org/Graphics/SVG/1.1/DTD/svg11.dtd">
<!-- Generated by graphviz version 2.43.0 (0)
 -->
<!-- Title: G Pages: 1 -->
<svg width="3747pt" height="515pt"
 viewBox="0.00 0.00 3746.86 515.00" xmlns="http://www.w3.org/2000/svg" xmlns:xlink="http://www.w3.org/1999/xlink">
<g id="graph0" class="graph" transform="scale(1 1) rotate(0) translate(4 511)">
<title>G</title>
<polygon fill="white" stroke="transparent" points="-4,4 -4,-511 3742.86,-511 3742.86,4 -4,4"/>
<g id="clust1" class="cluster">
<title>cluster_host</title>
<polygon fill="none" stroke="red" points="209.86,-8 209.86,-499 3730.86,-499 3730.86,-8 209.86,-8"/>
<text text-anchor="middle" x="1970.36" y="-483.8" font-family="Times,serif" font-size="14.00">PHAIDRA server firewall</text>
</g>
<g id="clust2" class="cluster">
<title>cluster_host_storage</title>
<polygon fill="none" stroke="blue" points="1386.86,-354 1386.86,-468 3449.86,-468 3449.86,-354 1386.86,-354"/>
<text text-anchor="middle" x="2418.36" y="-452.8" font-family="Times,serif" font-size="14.00">PHAIDRA server mounted directories</text>
</g>
<g id="clust3" class="cluster">
<title>cluster_named_volumes</title>
<polygon fill="none" stroke="turquoise" points="1894.86,-362 1894.86,-437 3441.86,-437 3441.86,-362 1894.86,-362"/>
<text text-anchor="middle" x="2668.36" y="-421.8" font-family="Times,serif" font-size="14.00">Named volumes under $HOME/.local/share/docker/volumes/</text>
</g>
<g id="clust4" class="cluster">
<title>cluster_bind_mounts</title>
<polygon fill="none" stroke="blue" points="1394.86,-362 1394.86,-437 1886.86,-437 1886.86,-362 1394.86,-362"/>
<text text-anchor="middle" x="1640.86" y="-421.8" font-family="Times,serif" font-size="14.00">Bind mounts under $PATH/phaidra&#45;docker/container_components/</text>
</g>
<g id="clust5" class="cluster">
<title>cluster_docker_network_host</title>
<polygon fill="none" stroke="green" points="217.86,-16 217.86,-346 3722.86,-346 3722.86,-16 217.86,-16"/>
<text text-anchor="middle" x="1970.36" y="-330.8" font-family="Times,serif" font-size="14.00">PHAIDRA docker network</text>
</g>
<g id="clust6" class="cluster">
<title>cluster_docker_phaidra_system</title>
<polygon fill="none" stroke="green" points="225.86,-24 225.86,-315 1030.86,-315 1030.86,-24 225.86,-24"/>
<text text-anchor="middle" x="628.36" y="-299.8" font-family="Times,serif" font-size="14.00">PHAIDRA container system</text>
</g>
<g id="clust7" class="cluster">
<title>cluster_docker_network_volumes</title>
<polygon fill="none" stroke="green" points="1038.86,-240 1038.86,-315 3714.86,-315 3714.86,-240 1038.86,-240"/>
<text text-anchor="middle" x="2376.86" y="-299.8" font-family="Times,serif" font-size="14.00">PHAIDRA container volumes</text>
</g>
<!-- USER -->
<g id="node1" class="node">
<title>USER</title>
<polygon fill="none" stroke="black" points="193.59,-380.54 193.59,-395.46 139.27,-406 62.45,-406 8.13,-395.46 8.13,-380.54 62.45,-370 139.27,-370 193.59,-380.54"/>
<polygon fill="none" stroke="black" points="197.59,-377.25 197.59,-398.75 139.66,-410 62.07,-410 4.13,-398.75 4.13,-377.25 62.07,-366 139.66,-366 197.59,-377.25"/>
<polygon fill="none" stroke="black" points="201.58,-373.95 201.58,-402.05 140.04,-414 61.68,-414 0.14,-402.05 0.14,-373.95 61.68,-362 140.04,-362 201.58,-373.95"/>
<text text-anchor="middle" x="100.86" y="-384.3" font-family="Times,serif" font-size="14.00">PHAIDRA USER</text>
</g>
<!-- WEBSERVER -->
<g id="node27" class="node">
<title>WEBSERVER</title>
<polygon fill="none" stroke="green" points="422.86,-284 330.86,-284 330.86,-280 326.86,-280 326.86,-276 330.86,-276 330.86,-256 326.86,-256 326.86,-252 330.86,-252 330.86,-248 422.86,-248 422.86,-284"/>
<polyline fill="none" stroke="green" points="330.86,-280 334.86,-280 334.86,-276 330.86,-276 "/>
<polyline fill="none" stroke="green" points="330.86,-256 334.86,-256 334.86,-252 330.86,-252 "/>
<text text-anchor="middle" x="376.86" y="-262.3" font-family="Times,serif" font-size="14.00">Webserver</text>
</g>
<!-- USER&#45;&#45;WEBSERVER -->
<g id="edge50" class="edge">
<title>USER&#45;&#45;WEBSERVER</title>
<path fill="none" stroke="red" d="M152.77,-364.43C206.49,-341.07 289.18,-305.12 337.66,-284.04"/>
</g>
<!-- ADMIN -->
<g id="node2" class="node">
<title>ADMIN</title>
<polygon fill="none" stroke="black" points="898.34,-380.54 898.34,-395.46 840.65,-406 759.07,-406 701.38,-395.46 701.38,-380.54 759.07,-370 840.65,-370 898.34,-380.54"/>
<polygon fill="none" stroke="black" points="902.34,-377.21 902.34,-398.79 841.01,-410 758.71,-410 697.38,-398.79 697.38,-377.21 758.71,-366 841.01,-366 902.34,-377.21"/>
<text text-anchor="middle" x="799.86" y="-384.3" font-family="Times,serif" font-size="14.00">Developer/Admin</text>
</g>
<!-- HS1 -->
<g id="node3" class="node">
<title>HS1</title>
<polygon fill="none" stroke="turquoise" points="2326.86,-406 2323.86,-410 2302.86,-410 2299.86,-406 2202.86,-406 2202.86,-370 2326.86,-370 2326.86,-406"/>
<text text-anchor="middle" x="2264.86" y="-384.3" font-family="Times,serif" font-size="14.00">phaidra_fedora</text>
</g>
<!-- DPV1 -->
<g id="node28" class="node">
<title>DPV1</title>
<polygon fill="none" stroke="green" points="2071.36,-284 2068.36,-288 2047.36,-288 2044.36,-284 1842.36,-284 1842.36,-248 2071.36,-248 2071.36,-284"/>
<text text-anchor="middle" x="1956.86" y="-262.3" font-family="Times,serif" font-size="14.00">/usr/local/tomcat/fcrepo&#45;home</text>
</g>
<!-- HS1&#45;&#45;DPV1 -->
<g id="edge2" class="edge">
<title>HS1&#45;&#45;DPV1</title>
<path fill="none" stroke="turquoise" d="M2234.32,-369.83C2222.11,-363.76 2207.68,-357.57 2193.86,-354 2145.11,-341.4 2128.67,-361.79 2080.86,-346 2040.38,-332.63 1999.95,-303.09 1976.72,-284.16"/>
</g>
<!-- DPV3 -->
<g id="node30" class="node">
<title>DPV3</title>
<polygon fill="none" stroke="green" points="1824.36,-284 1821.36,-288 1800.36,-288 1797.36,-284 1705.36,-284 1705.36,-248 1824.36,-248 1824.36,-284"/>
<text text-anchor="middle" x="1764.86" y="-262.3" font-family="Times,serif" font-size="14.00">/mnt/fedora:ro</text>
</g>
<!-- HS1&#45;&#45;DPV3 -->
<g id="edge7" class="edge">
<title>HS1&#45;&#45;DPV3</title>
<path fill="none" stroke="turquoise" d="M2235.1,-369.83C2222.75,-363.6 2208.03,-357.3 2193.86,-354 2154.89,-344.93 1870.1,-362.95 1833.86,-346 1806.31,-333.11 1785.34,-303.42 1774.09,-284.33"/>
</g>
<!-- DPV11 -->
<g id="node38" class="node">
<title>DPV11</title>
<polygon fill="none" stroke="green" points="3151.36,-284 3148.36,-288 3127.36,-288 3124.36,-284 3032.36,-284 3032.36,-248 3151.36,-248 3151.36,-284"/>
<text text-anchor="middle" x="3091.86" y="-262.3" font-family="Times,serif" font-size="14.00">/mnt/fedora:ro</text>
</g>
<!-- HS1&#45;&#45;DPV11 -->
<g id="edge25" class="edge">
<title>HS1&#45;&#45;DPV11</title>
<path fill="none" stroke="turquoise" d="M2294.7,-369.92C2307.29,-363.63 2322.37,-357.25 2336.86,-354 2374.05,-345.66 2988.25,-361.97 3022.86,-346 3050.64,-333.18 3071.67,-303.17 3082.85,-284.04"/>
</g>
<!-- HS2 -->
<g id="node4" class="node">
<title>HS2</title>
<polygon fill="none" stroke="turquoise" points="2184.86,-406 2181.86,-410 2160.86,-410 2157.86,-406 2048.86,-406 2048.86,-370 2184.86,-370 2184.86,-406"/>
<text text-anchor="middle" x="2116.86" y="-384.3" font-family="Times,serif" font-size="14.00">phaidra_api_logs</text>
</g>
<!-- DPV2 -->
<g id="node29" class="node">
<title>DPV2</title>
<polygon fill="none" stroke="green" points="1686.86,-284 1683.86,-288 1662.86,-288 1659.86,-284 1556.86,-284 1556.86,-248 1686.86,-248 1686.86,-284"/>
<text text-anchor="middle" x="1621.86" y="-262.3" font-family="Times,serif" font-size="14.00">/var/log/phaidra</text>
</g>
<!-- HS2&#45;&#45;DPV2 -->
<g id="edge6" class="edge">
<title>HS2&#45;&#45;DPV2</title>
<path fill="none" stroke="turquoise" d="M2084.43,-369.84C2071.01,-363.61 2055.07,-357.31 2039.86,-354 2002.61,-345.9 1731.71,-361.45 1696.86,-346 1667.82,-333.12 1644.59,-303.12 1632.06,-284.02"/>
</g>
<!-- HS5 -->
<g id="node5" class="node">
<title>HS5</title>
<polygon fill="none" stroke="turquoise" points="2892.36,-406 2889.36,-410 2868.36,-410 2865.36,-406 2693.36,-406 2693.36,-370 2892.36,-370 2892.36,-406"/>
<text text-anchor="middle" x="2792.86" y="-384.3" font-family="Times,serif" font-size="14.00">phaidra_mariadb_phaidra</text>
</g>
<!-- DPV5 -->
<g id="node32" class="node">
<title>DPV5</title>
<polygon fill="none" stroke="green" points="2849.86,-284 2846.86,-288 2825.86,-288 2822.86,-284 2735.86,-284 2735.86,-248 2849.86,-248 2849.86,-284"/>
<text text-anchor="middle" x="2792.86" y="-262.3" font-family="Times,serif" font-size="14.00">/var/lib/mysql</text>
</g>
<!-- HS5&#45;&#45;DPV5 -->
<g id="edge12" class="edge">
<title>HS5&#45;&#45;DPV5</title>
<path fill="none" stroke="turquoise" d="M2792.86,-369.81C2792.86,-346.99 2792.86,-306.96 2792.86,-284.16"/>
</g>
<!-- HS6 -->
<g id="node6" class="node">
<title>HS6</title>
<polygon fill="none" stroke="turquoise" points="2674.86,-406 2671.86,-410 2650.86,-410 2647.86,-406 2468.86,-406 2468.86,-370 2674.86,-370 2674.86,-406"/>
<text text-anchor="middle" x="2571.86" y="-384.3" font-family="Times,serif" font-size="14.00">phaidra_mongodb_phaidra</text>
</g>
<!-- DPV6 -->
<g id="node33" class="node">
<title>DPV6</title>
<polygon fill="none" stroke="green" points="2628.36,-284 2625.36,-288 2604.36,-288 2601.36,-284 2553.36,-284 2553.36,-248 2628.36,-248 2628.36,-284"/>
<text text-anchor="middle" x="2590.86" y="-262.3" font-family="Times,serif" font-size="14.00">/data/db</text>
</g>
<!-- HS6&#45;&#45;DPV6 -->
<g id="edge14" class="edge">
<title>HS6&#45;&#45;DPV6</title>
<path fill="none" stroke="turquoise" d="M2574.58,-369.81C2578.2,-346.99 2584.53,-306.96 2588.14,-284.16"/>
</g>
<!-- HS7 -->
<g id="node7" class="node">
<title>HS7</title>
<polygon fill="none" stroke="turquoise" points="3053.36,-406 3050.36,-410 3029.36,-410 3026.36,-406 2910.36,-406 2910.36,-370 3053.36,-370 3053.36,-406"/>
<text text-anchor="middle" x="2981.86" y="-384.3" font-family="Times,serif" font-size="14.00">phaidra_openldap</text>
</g>
<!-- DPV7 -->
<g id="node34" class="node">
<title>DPV7</title>
<polygon fill="none" stroke="green" points="3013.86,-284 3010.86,-288 2989.86,-288 2986.86,-284 2867.86,-284 2867.86,-248 3013.86,-248 3013.86,-284"/>
<text text-anchor="middle" x="2940.86" y="-262.3" font-family="Times,serif" font-size="14.00">/bitnami/openldap</text>
</g>
<!-- HS7&#45;&#45;DPV7 -->
<g id="edge17" class="edge">
<title>HS7&#45;&#45;DPV7</title>
<path fill="none" stroke="turquoise" d="M2975.99,-369.81C2968.19,-346.99 2954.51,-306.96 2946.72,-284.16"/>
</g>
<!-- HS9 -->
<g id="node8" class="node">
<title>HS9</title>
<polygon fill="none" stroke="turquoise" points="2450.36,-406 2447.36,-410 2426.36,-410 2423.36,-406 2345.36,-406 2345.36,-370 2450.36,-370 2450.36,-406"/>
<text text-anchor="middle" x="2397.86" y="-384.3" font-family="Times,serif" font-size="14.00">phaidra_solr</text>
</g>
<!-- DPV9 -->
<g id="node36" class="node">
<title>DPV9</title>
<polygon fill="none" stroke="green" points="2165.86,-284 2162.86,-288 2141.86,-288 2138.86,-284 2089.86,-284 2089.86,-248 2165.86,-248 2165.86,-284"/>
<text text-anchor="middle" x="2127.86" y="-262.3" font-family="Times,serif" font-size="14.00">/var/solr</text>
</g>
<!-- HS9&#45;&#45;DPV9 -->
<g id="edge20" class="edge">
<title>HS9&#45;&#45;DPV9</title>
<path fill="none" stroke="turquoise" d="M2371.78,-369.83C2361.09,-363.69 2348.32,-357.44 2335.86,-354 2318.6,-349.23 2190.21,-355.24 2174.86,-346 2152.03,-332.25 2138.98,-302.82 2132.67,-284.02"/>
</g>
<!-- HS10 -->
<g id="node9" class="node">
<title>HS10</title>
<polygon fill="none" stroke="turquoise" points="3433.86,-406 3430.86,-410 3409.86,-410 3406.86,-406 3279.86,-406 3279.86,-370 3433.86,-370 3433.86,-406"/>
<text text-anchor="middle" x="3356.86" y="-384.3" font-family="Times,serif" font-size="14.00">phaidra_pixelgecko</text>
</g>
<!-- DPV10 -->
<g id="node37" class="node">
<title>DPV10</title>
<polygon fill="none" stroke="green" points="3505.36,-284 3502.36,-288 3481.36,-288 3478.36,-284 3302.36,-284 3302.36,-248 3505.36,-248 3505.36,-284"/>
<text text-anchor="middle" x="3403.86" y="-262.3" font-family="Times,serif" font-size="14.00">/mnt/converted_images:ro</text>
</g>
<!-- HS10&#45;&#45;DPV10 -->
<g id="edge22" class="edge">
<title>HS10&#45;&#45;DPV10</title>
<path fill="none" stroke="turquoise" d="M3363.59,-369.81C3372.53,-346.99 3388.21,-306.96 3397.14,-284.16"/>
</g>
<!-- DPV12 -->
<g id="node39" class="node">
<title>DPV12</title>
<polygon fill="none" stroke="green" points="3706.36,-284 3703.36,-288 3682.36,-288 3679.36,-284 3523.36,-284 3523.36,-248 3706.36,-248 3706.36,-284"/>
<text text-anchor="middle" x="3614.86" y="-262.3" font-family="Times,serif" font-size="14.00">/mnt/converted_images</text>
</g>
<!-- HS10&#45;&#45;DPV12 -->
<g id="edge26" class="edge">
<title>HS10&#45;&#45;DPV12</title>
<path fill="none" stroke="turquoise" d="M3433.9,-373.74C3460.42,-367.45 3489.74,-358.49 3514.86,-346 3547.35,-329.85 3579.26,-301.97 3597.99,-284.02"/>
</g>
<!-- HS13 -->
<g id="node10" class="node">
<title>HS13</title>
<polygon fill="none" stroke="turquoise" points="2030.86,-406 2027.86,-410 2006.86,-410 2003.86,-406 1902.86,-406 1902.86,-370 2030.86,-370 2030.86,-406"/>
<text text-anchor="middle" x="1966.86" y="-384.3" font-family="Times,serif" font-size="14.00">phaidra_dbgate</text>
</g>
<!-- DPV13 -->
<g id="node40" class="node">
<title>DPV13</title>
<polygon fill="none" stroke="green" points="1538.36,-284 1535.36,-288 1514.36,-288 1511.36,-284 1429.36,-284 1429.36,-248 1538.36,-248 1538.36,-284"/>
<text text-anchor="middle" x="1483.86" y="-262.3" font-family="Times,serif" font-size="14.00">/root/.dbgate</text>
</g>
<!-- HS13&#45;&#45;DPV13 -->
<g id="edge28" class="edge">
<title>HS13&#45;&#45;DPV13</title>
<path fill="none" stroke="turquoise" d="M1934.87,-369.84C1921.64,-363.61 1905.89,-357.31 1890.86,-354 1853.63,-345.81 1582.08,-362.81 1547.86,-346 1521.4,-333 1502.23,-303.34 1492.1,-284.29"/>
</g>
<!-- HS15 -->
<g id="node11" class="node">
<title>HS15</title>
<polygon fill="none" stroke="turquoise" points="3261.86,-406 3258.86,-410 3237.86,-410 3234.86,-406 3071.86,-406 3071.86,-370 3261.86,-370 3261.86,-406"/>
<text text-anchor="middle" x="3166.86" y="-384.3" font-family="Times,serif" font-size="14.00">phaidra_mariadb_fedora</text>
</g>
<!-- DPV15 -->
<g id="node41" class="node">
<title>DPV15</title>
<polygon fill="none" stroke="green" points="3283.86,-284 3280.86,-288 3259.86,-288 3256.86,-284 3169.86,-284 3169.86,-248 3283.86,-248 3283.86,-284"/>
<text text-anchor="middle" x="3226.86" y="-262.3" font-family="Times,serif" font-size="14.00">/var/lib/mysql</text>
</g>
<!-- HS15&#45;&#45;DPV15 -->
<g id="edge30" class="edge">
<title>HS15&#45;&#45;DPV15</title>
<path fill="none" stroke="turquoise" d="M3175.46,-369.81C3186.86,-346.99 3206.88,-306.96 3218.28,-284.16"/>
</g>
<!-- HS4 -->
<g id="node12" class="node">
<title>HS4</title>
<polygon fill="none" stroke="blue" points="1778.86,-406 1775.86,-410 1754.86,-410 1751.86,-406 1578.86,-406 1578.86,-370 1778.86,-370 1778.86,-406"/>
<text text-anchor="middle" x="1678.86" y="-384.3" font-family="Times,serif" font-size="14.00">mariadb/phaidradb.sql.gz</text>
</g>
<!-- DPV4 -->
<g id="node31" class="node">
<title>DPV4</title>
<polygon fill="none" stroke="green" points="2535.86,-284 2532.86,-288 2511.86,-288 2508.86,-284 2183.86,-284 2183.86,-248 2535.86,-248 2535.86,-284"/>
<text text-anchor="middle" x="2359.86" y="-262.3" font-family="Times,serif" font-size="14.00">/docker&#45;entrypoint&#45;initdb.d/phaidradb.sql.gz:ro</text>
</g>
<!-- HS4&#45;&#45;DPV4 -->
<g id="edge11" class="edge">
<title>HS4&#45;&#45;DPV4</title>
<path fill="none" stroke="blue" d="M1725.15,-369.93C1744.29,-363.68 1766.87,-357.33 1787.86,-354 1872.82,-340.52 2090.77,-364.11 2174.86,-346 2232.39,-333.61 2294.33,-303.31 2329.96,-284.04"/>
</g>
<!-- HS8 -->
<g id="node13" class="node">
<title>HS8</title>
<polygon fill="none" stroke="blue" points="1878.86,-406 1875.86,-410 1854.86,-410 1851.86,-406 1796.86,-406 1796.86,-370 1878.86,-370 1878.86,-406"/>
<text text-anchor="middle" x="1837.86" y="-384.3" font-family="Times,serif" font-size="14.00">openldap</text>
</g>
<!-- DPV8 -->
<g id="node35" class="node">
<title>DPV8</title>
<polygon fill="none" stroke="green" points="2717.36,-284 2714.36,-288 2693.36,-288 2690.36,-284 2646.36,-284 2646.36,-248 2717.36,-248 2717.36,-284"/>
<text text-anchor="middle" x="2681.86" y="-262.3" font-family="Times,serif" font-size="14.00">/ldifs:ro</text>
</g>
<!-- HS8&#45;&#45;DPV8 -->
<g id="edge18" class="edge">
<title>HS8&#45;&#45;DPV8</title>
<path fill="none" stroke="blue" d="M1859.25,-369.95C1868.43,-363.66 1879.62,-357.28 1890.86,-354 1910.78,-348.19 2620.03,-356.61 2637.86,-346 2660.39,-332.6 2672.25,-303.06 2677.77,-284.15"/>
</g>
<!-- HS16 -->
<g id="node14" class="node">
<title>HS16</title>
<polygon fill="none" stroke="blue" points="1560.36,-406 1557.36,-410 1536.36,-410 1533.36,-406 1403.36,-406 1403.36,-370 1560.36,-370 1560.36,-406"/>
<text text-anchor="middle" x="1481.86" y="-384.3" font-family="Times,serif" font-size="14.00">api/PhaidraAPI.json</text>
</g>
<!-- DPV16 -->
<g id="node42" class="node">
<title>DPV16</title>
<polygon fill="none" stroke="green" points="1411.36,-284 1408.36,-288 1387.36,-288 1384.36,-284 1046.36,-284 1046.36,-248 1411.36,-248 1411.36,-284"/>
<text text-anchor="middle" x="1228.86" y="-262.3" font-family="Times,serif" font-size="14.00">/usr/local/phaidra/phaidra&#45;api/PhaidraAPI.json:ro</text>
</g>
<!-- HS16&#45;&#45;DPV16 -->
<g id="edge8" class="edge">
<title>HS16&#45;&#45;DPV16</title>
<path fill="none" stroke="blue" d="M1445.88,-369.93C1397.72,-347.09 1312.81,-306.82 1264.72,-284.01"/>
</g>
<!-- DPS1 -->
<g id="node15" class="node">
<title>DPS1</title>
<g id="a_node15"><a xlink:href="https://fedora.lyrasis.org/" xlink:title="fedora">
<polygon fill="none" stroke="green" points="407.86,-140 345.86,-140 345.86,-136 341.86,-136 341.86,-132 345.86,-132 345.86,-112 341.86,-112 341.86,-108 345.86,-108 345.86,-104 407.86,-104 407.86,-140"/>
<polyline fill="none" stroke="green" points="345.86,-136 349.86,-136 349.86,-132 345.86,-132 "/>
<polyline fill="none" stroke="green" points="345.86,-112 349.86,-112 349.86,-108 345.86,-108 "/>
<text text-anchor="middle" x="376.86" y="-118.3" font-family="Times,serif" font-size="14.00">fedora</text>
</a>
</g>
</g>
<!-- DPS13 -->
<g id="node26" class="node">
<title>DPS13</title>
<g id="a_node26"><a xlink:href="https://mariadb.org/" xlink:title="mariadb&#45;fedora">
<polygon fill="none" stroke="green" points="439.86,-68 313.86,-68 313.86,-64 309.86,-64 309.86,-60 313.86,-60 313.86,-40 309.86,-40 309.86,-36 313.86,-36 313.86,-32 439.86,-32 439.86,-68"/>
<polyline fill="none" stroke="green" points="313.86,-64 317.86,-64 317.86,-60 313.86,-60 "/>
<polyline fill="none" stroke="green" points="313.86,-40 317.86,-40 317.86,-36 313.86,-36 "/>
<text text-anchor="middle" x="376.86" y="-46.3" font-family="Times,serif" font-size="14.00">mariadb&#45;fedora</text>
</a>
</g>
</g>
<!-- DPS1&#45;&#45;DPS13 -->
<g id="edge31" class="edge">
<title>DPS1&#45;&#45;DPS13</title>
<path fill="none" stroke="orange" d="M376.86,-103.7C376.86,-92.85 376.86,-78.92 376.86,-68.1"/>
</g>
<!-- DPS2 -->
<g id="node16" class="node">
<title>DPS2</title>
<g id="a_node16"><a xlink:href="https://github.com/phaidra/phaidra-api" xlink:title="api">
<polygon fill="none" stroke="green" points="752.86,-212 698.86,-212 698.86,-208 694.86,-208 694.86,-204 698.86,-204 698.86,-184 694.86,-184 694.86,-180 698.86,-180 698.86,-176 752.86,-176 752.86,-212"/>
<polyline fill="none" stroke="green" points="698.86,-208 702.86,-208 702.86,-204 698.86,-204 "/>
<polyline fill="none" stroke="green" points="698.86,-184 702.86,-184 702.86,-180 698.86,-180 "/>
<text text-anchor="middle" x="725.86" y="-190.3" font-family="Times,serif" font-size="14.00">api</text>
</a>
</g>
</g>
<!-- DPS2&#45;&#45;DPS1 -->
<g id="edge32" class="edge">
<title>DPS2&#45;&#45;DPS1</title>
<path fill="none" stroke="orange" d="M698.69,-188.71C628.34,-177.55 443.82,-147.92 416.86,-140 413.97,-139.15 411,-138.15 408.05,-137.07"/>
</g>
<!-- DPS3 -->
<g id="node17" class="node">
<title>DPS3</title>
<g id="a_node17"><a xlink:href="https://mariadb.org/" xlink:title="mariadb&#45;phaidra">
<polygon fill="none" stroke="green" points="793.36,-140 658.36,-140 658.36,-136 654.36,-136 654.36,-132 658.36,-132 658.36,-112 654.36,-112 654.36,-108 658.36,-108 658.36,-104 793.36,-104 793.36,-140"/>
<polyline fill="none" stroke="green" points="658.36,-136 662.36,-136 662.36,-132 658.36,-132 "/>
<polyline fill="none" stroke="green" points="658.36,-112 662.36,-112 662.36,-108 658.36,-108 "/>
<text text-anchor="middle" x="725.86" y="-118.3" font-family="Times,serif" font-size="14.00">mariadb&#45;phaidra</text>
</a>
</g>
</g>
<!-- DPS2&#45;&#45;DPS3 -->
<g id="edge33" class="edge">
<title>DPS2&#45;&#45;DPS3</title>
<path fill="none" stroke="orange" d="M725.86,-175.7C725.86,-164.85 725.86,-150.92 725.86,-140.1"/>
</g>
<!-- DPS4 -->
<g id="node18" class="node">
<title>DPS4</title>
<g id="a_node18"><a xlink:href="https://www.mongodb.com/" xlink:title="mongodb&#45;phaidra">
<polygon fill="none" stroke="green" points="639.86,-140 497.86,-140 497.86,-136 493.86,-136 493.86,-132 497.86,-132 497.86,-112 493.86,-112 493.86,-108 497.86,-108 497.86,-104 639.86,-104 639.86,-140"/>
<polyline fill="none" stroke="green" points="497.86,-136 501.86,-136 501.86,-132 497.86,-132 "/>
<polyline fill="none" stroke="green" points="497.86,-112 501.86,-112 501.86,-108 497.86,-108 "/>
<text text-anchor="middle" x="568.86" y="-118.3" font-family="Times,serif" font-size="14.00">mongodb&#45;phaidra</text>
</a>
</g>
</g>
<!-- DPS2&#45;&#45;DPS4 -->
<g id="edge34" class="edge">
<title>DPS2&#45;&#45;DPS4</title>
<path fill="none" stroke="orange" d="M698.51,-180.81C673.21,-169.53 635.35,-152.65 607.07,-140.03"/>
</g>
<!-- DPS5 -->
<g id="node19" class="node">
<title>DPS5</title>
<g id="a_node19"><a xlink:href="https://github.com/phaidra/phaidra-ui" xlink:title="ui">
<polygon fill="none" stroke="green" points="307.86,-140 253.86,-140 253.86,-136 249.86,-136 249.86,-132 253.86,-132 253.86,-112 249.86,-112 249.86,-108 253.86,-108 253.86,-104 307.86,-104 307.86,-140"/>
<polyline fill="none" stroke="green" points="253.86,-136 257.86,-136 257.86,-132 253.86,-132 "/>
<polyline fill="none" stroke="green" points="253.86,-112 257.86,-112 257.86,-108 253.86,-108 "/>
<text text-anchor="middle" x="280.86" y="-118.3" font-family="Times,serif" font-size="14.00">ui</text>
</a>
</g>
</g>
<!-- DPS2&#45;&#45;DPS5 -->
<g id="edge35" class="edge">
<title>DPS2&#45;&#45;DPS5</title>
<path fill="none" stroke="orange" d="M698.46,-188.82C675.17,-185.3 640.84,-180.19 610.86,-176 489.22,-159.02 456.92,-165.93 336.86,-140 327.33,-137.94 317.07,-135.04 307.97,-132.21"/>
</g>
<!-- DPS6 -->
<g id="node20" class="node">
<title>DPS6</title>
<g id="a_node20"><a xlink:href="https://www.openldap.org/" xlink:title="openldap">
<polygon fill="none" stroke="green" points="893.86,-140 811.86,-140 811.86,-136 807.86,-136 807.86,-132 811.86,-132 811.86,-112 807.86,-112 807.86,-108 811.86,-108 811.86,-104 893.86,-104 893.86,-140"/>
<polyline fill="none" stroke="green" points="811.86,-136 815.86,-136 815.86,-132 811.86,-132 "/>
<polyline fill="none" stroke="green" points="811.86,-112 815.86,-112 815.86,-108 811.86,-108 "/>
<text text-anchor="middle" x="852.86" y="-118.3" font-family="Times,serif" font-size="14.00">openldap</text>
</a>
</g>
</g>
<!-- DPS2&#45;&#45;DPS6 -->
<g id="edge36" class="edge">
<title>DPS2&#45;&#45;DPS6</title>
<path fill="none" stroke="orange" d="M753.11,-177.98C773.22,-166.9 800.64,-151.78 821.64,-140.21"/>
</g>
<!-- DPS7 -->
<g id="node21" class="node">
<title>DPS7</title>
<g id="a_node21"><a xlink:href="https://solr.apache.org/" xlink:title="solr">
<polygon fill="none" stroke="green" points="479.86,-140 425.86,-140 425.86,-136 421.86,-136 421.86,-132 425.86,-132 425.86,-112 421.86,-112 421.86,-108 425.86,-108 425.86,-104 479.86,-104 479.86,-140"/>
<polyline fill="none" stroke="green" points="425.86,-136 429.86,-136 429.86,-132 425.86,-132 "/>
<polyline fill="none" stroke="green" points="425.86,-112 429.86,-112 429.86,-108 425.86,-108 "/>
<text text-anchor="middle" x="452.86" y="-118.3" font-family="Times,serif" font-size="14.00">solr</text>
</a>
</g>
</g>
<!-- DPS2&#45;&#45;DPS7 -->
<g id="edge37" class="edge">
<title>DPS2&#45;&#45;DPS7</title>
<path fill="none" stroke="orange" d="M698.67,-188.93C654.04,-181.81 562.84,-165.39 488.86,-140 485.98,-139.01 483.03,-137.86 480.12,-136.64"/>
</g>
<!-- DPS8 -->
<g id="node22" class="node">
<title>DPS8</title>
<g id="a_node22"><a xlink:href="https://github.com/ruven/iipsrv" xlink:title="imageserver)">
<polygon fill="none" stroke="green" points="1023.36,-140 912.36,-140 912.36,-136 908.36,-136 908.36,-132 912.36,-132 912.36,-112 908.36,-112 908.36,-108 912.36,-108 912.36,-104 1023.36,-104 1023.36,-140"/>
<polyline fill="none" stroke="green" points="912.36,-136 916.36,-136 916.36,-132 912.36,-132 "/>
<polyline fill="none" stroke="green" points="912.36,-112 916.36,-112 916.36,-108 912.36,-108 "/>
<text text-anchor="middle" x="967.86" y="-118.3" font-family="Times,serif" font-size="14.00">imageserver)</text>
</a>
</g>
</g>
<!-- DPS2&#45;&#45;DPS8 -->
<g id="edge38" class="edge">
<title>DPS2&#45;&#45;DPS8</title>
<path fill="none" stroke="orange" d="M753.15,-185.11C791.59,-173.99 862.55,-153.46 912.34,-139.06"/>
</g>
<!-- DPS9 -->
<g id="node23" class="node">
<title>DPS9</title>
<polygon fill="none" stroke="green" points="1022.86,-68 930.86,-68 930.86,-64 926.86,-64 926.86,-60 930.86,-60 930.86,-40 926.86,-40 926.86,-36 930.86,-36 930.86,-32 1022.86,-32 1022.86,-68"/>
<polyline fill="none" stroke="green" points="930.86,-64 934.86,-64 934.86,-60 930.86,-60 "/>
<polyline fill="none" stroke="green" points="930.86,-40 934.86,-40 934.86,-36 930.86,-36 "/>
<text text-anchor="middle" x="976.86" y="-46.3" font-family="Times,serif" font-size="14.00">pixelgecko</text>
</g>
<!-- DPS4&#45;&#45;DPS9 -->
<g id="edge39" class="edge">
<title>DPS4&#45;&#45;DPS9</title>
<path fill="none" stroke="orange" d="M639.94,-105.89C643.29,-105.24 646.61,-104.6 649.86,-104 749.66,-85.45 867.28,-67.29 930.71,-57.79"/>
</g>
<!-- DPS11 -->
<g id="node25" class="node">
<title>DPS11</title>
<polygon fill="none" stroke="green" points="291.86,-68 237.86,-68 237.86,-64 233.86,-64 233.86,-60 237.86,-60 237.86,-40 233.86,-40 233.86,-36 237.86,-36 237.86,-32 291.86,-32 291.86,-68"/>
<polyline fill="none" stroke="green" points="237.86,-64 241.86,-64 241.86,-60 237.86,-60 "/>
<polyline fill="none" stroke="green" points="237.86,-40 241.86,-40 241.86,-36 237.86,-36 "/>
<text text-anchor="middle" x="264.86" y="-46.3" font-family="Times,serif" font-size="14.00">lam</text>
</g>
<!-- DPS6&#45;&#45;DPS11 -->
<g id="edge40" class="edge">
<title>DPS6&#45;&#45;DPS11</title>
<path fill="none" stroke="orange" d="M811.61,-106.07C808.67,-105.29 805.74,-104.58 802.86,-104 585.37,-59.92 520.57,-120.11 304.86,-68 300.61,-66.97 296.23,-65.54 292,-63.93"/>
</g>
<!-- DPS10 -->
<g id="node24" class="node">
<title>DPS10</title>
<polygon fill="none" stroke="green" points="601.86,-212 535.86,-212 535.86,-208 531.86,-208 531.86,-204 535.86,-204 535.86,-184 531.86,-184 531.86,-180 535.86,-180 535.86,-176 601.86,-176 601.86,-212"/>
<polyline fill="none" stroke="green" points="535.86,-208 539.86,-208 539.86,-204 535.86,-204 "/>
<polyline fill="none" stroke="green" points="535.86,-184 539.86,-184 539.86,-180 535.86,-180 "/>
<text text-anchor="middle" x="568.86" y="-190.3" font-family="Times,serif" font-size="14.00">dbgate</text>
</g>
<!-- DPS10&#45;&#45;DPS3 -->
<g id="edge41" class="edge">
<title>DPS10&#45;&#45;DPS3</title>
<path fill="none" stroke="orange" d="M602.16,-178.15C627.18,-167 661.5,-151.7 687.64,-140.04"/>
</g>
<!-- DPS10&#45;&#45;DPS4 -->
<g id="edge42" class="edge">
<title>DPS10&#45;&#45;DPS4</title>
<path fill="none" stroke="orange" d="M568.86,-175.7C568.86,-164.85 568.86,-150.92 568.86,-140.1"/>
</g>
<!-- DPS10&#45;&#45;DPS13 -->
<g id="edge43" class="edge">
<title>DPS10&#45;&#45;DPS13</title>
<path fill="none" stroke="orange" d="M535.43,-190.37C477.27,-185.02 361.33,-170.69 336.86,-140 319.33,-118.01 341.35,-87.12 359.01,-68.11"/>
</g>
<!-- WEBSERVER&#45;&#45;DPS1 -->
<g id="edge44" class="edge">
<title>WEBSERVER&#45;&#45;DPS1</title>
<path fill="none" stroke="magenta" d="M376.86,-247.87C376.86,-220.58 376.86,-167.52 376.86,-140.19"/>
</g>
<!-- WEBSERVER&#45;&#45;DPS2 -->
<g id="edge45" class="edge">
<title>WEBSERVER&#45;&#45;DPS2</title>
<path fill="none" stroke="magenta" d="M423.21,-255.7C497,-240.9 638.95,-212.43 698.51,-200.49"/>
</g>
<!-- WEBSERVER&#45;&#45;DPS5 -->
<g id="edge46" class="edge">
<title>WEBSERVER&#45;&#45;DPS5</title>
<path fill="none" stroke="magenta" d="M365.28,-247.87C346.83,-220.58 310.96,-167.52 292.48,-140.19"/>
</g>
<!-- WEBSERVER&#45;&#45;DPS7 -->
<g id="edge47" class="edge">
<title>WEBSERVER&#45;&#45;DPS7</title>
<path fill="none" stroke="magenta" d="M386.03,-247.87C400.64,-220.58 429.03,-167.52 443.66,-140.19"/>
</g>
<!-- WEBSERVER&#45;&#45;DPS10 -->
<g id="edge48" class="edge">
<title>WEBSERVER&#45;&#45;DPS10</title>
<path fill="none" stroke="magenta" d="M423.34,-248.05C458.08,-235.39 504.73,-218.38 535.74,-207.07"/>
</g>
<!-- WEBSERVER&#45;&#45;DPS11 -->
<g id="edge49" class="edge">
<title>WEBSERVER&#45;&#45;DPS11</title>
<path fill="none" stroke="magenta" d="M347.15,-247.94C314.57,-227.25 264.33,-188.98 244.86,-140 235.32,-116.01 246.04,-86.49 255.08,-68.21"/>
</g>
<!-- DPV1&#45;&#45;DPS1 -->
<g id="edge1" class="edge">
<title>DPV1&#45;&#45;DPS1</title>
<path fill="none" stroke="green" d="M1883.36,-247.97C1867.14,-244.79 1849.99,-241.89 1833.86,-240 1454.03,-195.54 1354.36,-250.32 973.86,-212 878.77,-202.42 856.55,-188.97 761.86,-176 609.12,-155.08 566.12,-178.58 416.86,-140 413.94,-139.24 410.95,-138.31 408,-137.27"/>
</g>
<!-- DPV2&#45;&#45;DPS2 -->
<g id="edge3" class="edge">
<title>DPV2&#45;&#45;DPS2</title>
<path fill="none" stroke="green" d="M1577.79,-247.88C1568.07,-244.73 1557.72,-241.86 1547.86,-240 1288.15,-191.01 1217.67,-228.05 953.86,-212 881.16,-207.58 795.54,-200.76 752.87,-197.25"/>
</g>
<!-- DPV3&#45;&#45;DPS2 -->
<g id="edge4" class="edge">
<title>DPV3&#45;&#45;DPS2</title>
<path fill="none" stroke="green" d="M1724.22,-247.92C1715.05,-244.73 1705.24,-241.83 1695.86,-240 1533.91,-208.41 1118.61,-221.25 953.86,-212 881.14,-207.92 795.52,-200.95 752.87,-197.34"/>
</g>
<!-- DPV4&#45;&#45;DPS3 -->
<g id="edge9" class="edge">
<title>DPV4&#45;&#45;DPS3</title>
<path fill="none" stroke="green" d="M2248.55,-247.94C2224.31,-244.79 2198.77,-241.9 2174.86,-240 2048.44,-229.94 1154.07,-252.41 1033.86,-212 1007.91,-203.28 1008.97,-186.92 983.86,-176 908.64,-143.29 883.13,-156.84 802.86,-140 799.78,-139.35 796.63,-138.69 793.45,-138.01"/>
</g>
<!-- DPV5&#45;&#45;DPS3 -->
<g id="edge10" class="edge">
<title>DPV5&#45;&#45;DPS3</title>
<path fill="none" stroke="green" d="M2754.42,-247.93C2745.53,-244.69 2736,-241.77 2726.86,-240 2575.09,-210.64 1489.99,-223.92 1335.86,-212 1097.53,-193.56 1038.22,-181.8 802.86,-140 799.76,-139.45 796.6,-138.86 793.4,-138.24"/>
</g>
<!-- DPV6&#45;&#45;DPS4 -->
<g id="edge13" class="edge">
<title>DPV6&#45;&#45;DPS4</title>
<path fill="none" stroke="green" d="M2564.52,-247.92C2558.31,-244.68 2551.54,-241.76 2544.86,-240 2384.77,-197.7 1218.51,-237.21 1054.86,-212 998.99,-203.39 988.19,-187.6 932.86,-176 808.77,-149.97 774.89,-161.04 649.86,-140 646.6,-139.45 643.27,-138.86 639.92,-138.25"/>
</g>
<!-- DPV7&#45;&#45;DPS6 -->
<g id="edge15" class="edge">
<title>DPV7&#45;&#45;DPS6</title>
<path fill="none" stroke="green" d="M2892.82,-247.93C2881.8,-244.7 2870.03,-241.77 2858.86,-240 2537.06,-188.89 1717.28,-242.35 1392.86,-212 1297.27,-203.06 1274.81,-190.21 1179.86,-176 1057.52,-157.69 1024.43,-167.69 903.86,-140 900.59,-139.25 897.22,-138.37 893.86,-137.42"/>
</g>
<!-- DPV8&#45;&#45;DPS6 -->
<g id="edge16" class="edge">
<title>DPV8&#45;&#45;DPS6</title>
<path fill="none" stroke="green" d="M2656.74,-247.93C2650.79,-244.7 2644.3,-241.78 2637.86,-240 2498.37,-201.53 1479.93,-225.48 1335.86,-212 1142.06,-193.86 1092.77,-186.92 903.86,-140 900.6,-139.19 897.25,-138.27 893.89,-137.29"/>
</g>
<!-- DPV9&#45;&#45;DPS7 -->
<g id="edge19" class="edge">
<title>DPV9&#45;&#45;DPS7</title>
<path fill="none" stroke="green" d="M2100.9,-247.95C2094.56,-244.72 2087.65,-241.79 2080.86,-240 1845.02,-177.97 1224.22,-253.15 983.86,-212 932.74,-203.25 923.65,-186.48 872.86,-176 704.98,-141.35 654.19,-185.28 488.86,-140 485.93,-139.2 482.94,-138.17 480,-137.01"/>
</g>
<!-- DPV10&#45;&#45;DPS8 -->
<g id="edge21" class="edge">
<title>DPV10&#45;&#45;DPS8</title>
<path fill="none" stroke="green" d="M3336.99,-248C3322.52,-244.87 3307.25,-241.97 3292.86,-240 2833.74,-177.22 1331.62,-133.03 1023.43,-124.5"/>
</g>
<!-- DPV11&#45;&#45;DPS9 -->
<g id="edge23" class="edge">
<title>DPV11&#45;&#45;DPS9</title>
<path fill="none" stroke="green" d="M3050.04,-247.92C3041.19,-244.85 3031.81,-242 3022.86,-240 2236.95,-64.37 1246.09,-51.52 1022.89,-50.94"/>
</g>
<!-- DPV12&#45;&#45;DPS9 -->
<g id="edge24" class="edge">
<title>DPV12&#45;&#45;DPS9</title>
<path fill="none" stroke="green" d="M3552.19,-247.97C3539.88,-245.01 3527.01,-242.19 3514.86,-240 2520.09,-61.13 1276.64,-51.02 1023.2,-50.89"/>
</g>
<!-- DPV13&#45;&#45;DPS10 -->
<g id="edge27" class="edge">
<title>DPV13&#45;&#45;DPS10</title>
<path fill="none" stroke="green" d="M1446.86,-247.91C1438.48,-244.72 1429.5,-241.82 1420.86,-240 1261.8,-206.43 851.78,-226.44 689.86,-212 659.96,-209.33 626.15,-204.42 601.88,-200.56"/>
</g>
<!-- DPV15&#45;&#45;DPS13 -->
<g id="edge29" class="edge">
<title>DPV15&#45;&#45;DPS13</title>
<path fill="none" stroke="green" d="M3187.65,-247.99C3178.97,-244.84 3169.72,-241.93 3160.86,-240 2616.42,-121.14 802.1,-63.27 440.04,-52.77"/>
</g>
<!-- DPV16&#45;&#45;DPS2 -->
<g id="edge5" class="edge">
<title>DPV16&#45;&#45;DPS2</title>
<path fill="none" stroke="green" d="M1106.46,-247.97C988.39,-231.54 818.25,-207.86 752.86,-198.76"/>
</g>
</g>
</svg>
