<?xml version="1.0" encoding="UTF-8" standalone="no"?>
<!DOCTYPE svg PUBLIC "-//W3C//DTD SVG 1.1//EN"
 "http://www.w3.org/Graphics/SVG/1.1/DTD/svg11.dtd">
<!-- Generated by graphviz version 2.43.0 (0)
 -->
<!-- Title: G Pages: 1 -->
<svg width="3120pt" height="487pt"
 viewBox="0.00 0.00 3119.86 487.00" xmlns="http://www.w3.org/2000/svg" xmlns:xlink="http://www.w3.org/1999/xlink">
<g id="graph0" class="graph" transform="scale(1 1) rotate(0) translate(4 483)">
<title>G</title>
<polygon fill="white" stroke="transparent" points="-4,4 -4,-483 3115.86,-483 3115.86,4 -4,4"/>
<g id="clust1" class="cluster">
<title>cluster_host</title>
<polygon fill="none" stroke="red" points="211.86,-8 211.86,-471 3103.86,-471 3103.86,-8 211.86,-8"/>
<text text-anchor="middle" x="1657.86" y="-455.8" font-family="Times,serif" font-size="14.00">PHAIDRA server firewall</text>
</g>
<g id="clust2" class="cluster">
<title>cluster_host_storage</title>
<polygon fill="none" stroke="blue" points="433.86,-365 433.86,-440 3095.86,-440 3095.86,-365 433.86,-365"/>
<text text-anchor="middle" x="1764.86" y="-424.8" font-family="Times,serif" font-size="14.00">PHAIDRA server mounted directories</text>
</g>
<g id="clust3" class="cluster">
<title>cluster_docker_network_host</title>
<polygon fill="none" stroke="green" points="498.86,-16 498.86,-357 2911.86,-357 2911.86,-16 498.86,-16"/>
<text text-anchor="middle" x="1705.36" y="-341.8" font-family="Times,serif" font-size="14.00">PHAIDRA docker network</text>
</g>
<g id="clust4" class="cluster">
<title>cluster_docker_phaidra_system</title>
<polygon fill="none" stroke="green" points="747.86,-24 747.86,-243 1532.86,-243 1532.86,-24 747.86,-24"/>
<text text-anchor="middle" x="1140.36" y="-227.8" font-family="Times,serif" font-size="14.00">PHAIDRA container system</text>
</g>
<g id="clust5" class="cluster">
<title>cluster_docker_network_volumes</title>
<polygon fill="none" stroke="green" points="506.86,-251 506.86,-326 2903.86,-326 2903.86,-251 506.86,-251"/>
<text text-anchor="middle" x="1705.36" y="-310.8" font-family="Times,serif" font-size="14.00">PHAIDRA container volumes</text>
</g>
<!-- USER -->
<g id="node1" class="node">
<title>USER</title>
<polygon fill="none" stroke="black" points="193.59,-383.54 193.59,-398.46 139.27,-409 62.45,-409 8.13,-398.46 8.13,-383.54 62.45,-373 139.27,-373 193.59,-383.54"/>
<polygon fill="none" stroke="black" points="197.59,-380.25 197.59,-401.75 139.66,-413 62.07,-413 4.13,-401.75 4.13,-380.25 62.07,-369 139.66,-369 197.59,-380.25"/>
<polygon fill="none" stroke="black" points="201.58,-376.95 201.58,-405.05 140.04,-417 61.68,-417 0.14,-405.05 0.14,-376.95 61.68,-365 140.04,-365 201.58,-376.95"/>
<text text-anchor="middle" x="100.86" y="-387.3" font-family="Times,serif" font-size="14.00">PHAIDRA USER</text>
</g>
<!-- WEBSERVER -->
<g id="node3" class="node">
<title>WEBSERVER</title>
<polygon fill="none" stroke="magenta" points="490.86,-295 398.86,-295 398.86,-291 394.86,-291 394.86,-287 398.86,-287 398.86,-267 394.86,-267 394.86,-263 398.86,-263 398.86,-259 490.86,-259 490.86,-295"/>
<polyline fill="none" stroke="magenta" points="398.86,-291 402.86,-291 402.86,-287 398.86,-287 "/>
<polyline fill="none" stroke="magenta" points="398.86,-267 402.86,-267 402.86,-263 398.86,-263 "/>
<text text-anchor="middle" x="444.86" y="-273.3" font-family="Times,serif" font-size="14.00">Webserver</text>
</g>
<!-- USER&#45;&#45;WEBSERVER -->
<g id="edge48" class="edge">
<title>USER&#45;&#45;WEBSERVER</title>
<path fill="none" stroke="red" d="M163.96,-369.46C231.84,-347.35 338.18,-312.73 398.68,-293.04"/>
</g>
<!-- ADMIN -->
<g id="node2" class="node">
<title>ADMIN</title>
<polygon fill="none" stroke="black" points="420.34,-383.54 420.34,-398.46 362.65,-409 281.07,-409 223.38,-398.46 223.38,-383.54 281.07,-373 362.65,-373 420.34,-383.54"/>
<polygon fill="none" stroke="black" points="424.34,-380.21 424.34,-401.79 363.01,-413 280.71,-413 219.38,-401.79 219.38,-380.21 280.71,-369 363.01,-369 424.34,-380.21"/>
<text text-anchor="middle" x="321.86" y="-387.3" font-family="Times,serif" font-size="14.00">Developer/Admin</text>
</g>
<!-- DPS1 -->
<g id="node16" class="node">
<title>DPS1</title>
<g id="a_node16"><a xlink:href="https://fedora.lyrasis.org/" xlink:title="fedora">
<polygon fill="none" stroke="green" points="981.86,-140 919.86,-140 919.86,-136 915.86,-136 915.86,-132 919.86,-132 919.86,-112 915.86,-112 915.86,-108 919.86,-108 919.86,-104 981.86,-104 981.86,-140"/>
<polyline fill="none" stroke="green" points="919.86,-136 923.86,-136 923.86,-132 919.86,-132 "/>
<polyline fill="none" stroke="green" points="919.86,-112 923.86,-112 923.86,-108 919.86,-108 "/>
<text text-anchor="middle" x="950.86" y="-118.3" font-family="Times,serif" font-size="14.00">fedora</text>
</a>
</g>
</g>
<!-- WEBSERVER&#45;&#45;DPS1 -->
<g id="edge42" class="edge">
<title>WEBSERVER&#45;&#45;DPS1</title>
<path fill="none" stroke="magenta" d="M479.15,-258.9C486.79,-255.75 494.97,-252.87 502.86,-251 561.78,-237.03 581.14,-261.3 638.86,-243 692.71,-225.93 694.52,-197.25 746.86,-176 816,-147.93 839.77,-162.69 910.86,-140 913.74,-139.08 916.69,-138.04 919.63,-136.92"/>
</g>
<!-- DPS2 -->
<g id="node17" class="node">
<title>DPS2</title>
<g id="a_node17"><a xlink:href="https://github.com/phaidra/phaidra-api" xlink:title="api">
<polygon fill="none" stroke="green" points="939.86,-212 885.86,-212 885.86,-208 881.86,-208 881.86,-204 885.86,-204 885.86,-184 881.86,-184 881.86,-180 885.86,-180 885.86,-176 939.86,-176 939.86,-212"/>
<polyline fill="none" stroke="green" points="885.86,-208 889.86,-208 889.86,-204 885.86,-204 "/>
<polyline fill="none" stroke="green" points="885.86,-184 889.86,-184 889.86,-180 885.86,-180 "/>
<text text-anchor="middle" x="912.86" y="-190.3" font-family="Times,serif" font-size="14.00">api</text>
</a>
</g>
</g>
<!-- WEBSERVER&#45;&#45;DPS2 -->
<g id="edge43" class="edge">
<title>WEBSERVER&#45;&#45;DPS2</title>
<path fill="none" stroke="magenta" d="M478.49,-258.95C486.3,-255.71 494.72,-252.78 502.86,-251 574.08,-235.4 760.73,-262.94 830.86,-243 852.76,-236.77 874.88,-223.31 890.61,-212.23"/>
</g>
<!-- DPS5 -->
<g id="node20" class="node">
<title>DPS5</title>
<g id="a_node20"><a xlink:href="https://github.com/phaidra/phaidra-ui" xlink:title="ui">
<polygon fill="none" stroke="green" points="829.86,-140 775.86,-140 775.86,-136 771.86,-136 771.86,-132 775.86,-132 775.86,-112 771.86,-112 771.86,-108 775.86,-108 775.86,-104 829.86,-104 829.86,-140"/>
<polyline fill="none" stroke="green" points="775.86,-136 779.86,-136 779.86,-132 775.86,-132 "/>
<polyline fill="none" stroke="green" points="775.86,-112 779.86,-112 779.86,-108 775.86,-108 "/>
<text text-anchor="middle" x="802.86" y="-118.3" font-family="Times,serif" font-size="14.00">ui</text>
</a>
</g>
</g>
<!-- WEBSERVER&#45;&#45;DPS5 -->
<g id="edge44" class="edge">
<title>WEBSERVER&#45;&#45;DPS5</title>
<path fill="none" stroke="magenta" d="M475.23,-258.82C514.09,-237.33 583.93,-200.41 646.86,-176 700.76,-155.09 718.41,-162.03 771.86,-140 773.11,-139.49 774.37,-138.93 775.64,-138.35"/>
</g>
<!-- DPS7 -->
<g id="node22" class="node">
<title>DPS7</title>
<g id="a_node22"><a xlink:href="https://solr.apache.org/" xlink:title="solr">
<polygon fill="none" stroke="green" points="901.86,-140 847.86,-140 847.86,-136 843.86,-136 843.86,-132 847.86,-132 847.86,-112 843.86,-112 843.86,-108 847.86,-108 847.86,-104 901.86,-104 901.86,-140"/>
<polyline fill="none" stroke="green" points="847.86,-136 851.86,-136 851.86,-132 847.86,-132 "/>
<polyline fill="none" stroke="green" points="847.86,-112 851.86,-112 851.86,-108 847.86,-108 "/>
<text text-anchor="middle" x="874.86" y="-118.3" font-family="Times,serif" font-size="14.00">solr</text>
</a>
</g>
</g>
<!-- WEBSERVER&#45;&#45;DPS7 -->
<g id="edge45" class="edge">
<title>WEBSERVER&#45;&#45;DPS7</title>
<path fill="none" stroke="magenta" d="M479.84,-258.9C487.29,-255.84 495.22,-252.99 502.86,-251 536.59,-242.22 547.9,-254.32 580.86,-243 633.93,-224.77 636.11,-197.68 687.86,-176 751.49,-149.34 773.76,-162.85 838.86,-140 841.73,-138.99 844.68,-137.83 847.59,-136.59"/>
</g>
<!-- DPS10 -->
<g id="node25" class="node">
<title>DPS10</title>
<polygon fill="none" stroke="green" points="821.86,-212 755.86,-212 755.86,-208 751.86,-208 751.86,-204 755.86,-204 755.86,-184 751.86,-184 751.86,-180 755.86,-180 755.86,-176 821.86,-176 821.86,-212"/>
<polyline fill="none" stroke="green" points="755.86,-208 759.86,-208 759.86,-204 755.86,-204 "/>
<polyline fill="none" stroke="green" points="755.86,-184 759.86,-184 759.86,-180 755.86,-180 "/>
<text text-anchor="middle" x="788.86" y="-190.3" font-family="Times,serif" font-size="14.00">dbgate</text>
</g>
<!-- WEBSERVER&#45;&#45;DPS10 -->
<g id="edge46" class="edge">
<title>WEBSERVER&#45;&#45;DPS10</title>
<path fill="none" stroke="magenta" d="M478.5,-258.99C486.31,-255.76 494.73,-252.81 502.86,-251 529.88,-244.97 727.22,-255.61 751.86,-243 764.6,-236.48 774.25,-223.34 780.49,-212.45"/>
</g>
<!-- DPS11 -->
<g id="node26" class="node">
<title>DPS11</title>
<polygon fill="none" stroke="green" points="839.86,-68 785.86,-68 785.86,-64 781.86,-64 781.86,-60 785.86,-60 785.86,-40 781.86,-40 781.86,-36 785.86,-36 785.86,-32 839.86,-32 839.86,-68"/>
<polyline fill="none" stroke="green" points="785.86,-64 789.86,-64 789.86,-60 785.86,-60 "/>
<polyline fill="none" stroke="green" points="785.86,-40 789.86,-40 789.86,-36 785.86,-36 "/>
<text text-anchor="middle" x="812.86" y="-46.3" font-family="Times,serif" font-size="14.00">lam</text>
</g>
<!-- WEBSERVER&#45;&#45;DPS11 -->
<g id="edge47" class="edge">
<title>WEBSERVER&#45;&#45;DPS11</title>
<path fill="none" stroke="magenta" d="M450.59,-258.83C458.74,-236.84 475.66,-198.86 501.86,-176 588.68,-100.25 727.24,-66.9 785.57,-55.68"/>
</g>
<!-- HS1 -->
<g id="node4" class="node">
<title>HS1</title>
<polygon fill="none" stroke="blue" points="1391.86,-409 1388.86,-413 1367.86,-413 1364.86,-409 1239.86,-409 1239.86,-373 1391.86,-373 1391.86,-409"/>
<text text-anchor="middle" x="1315.86" y="-387.3" font-family="Times,serif" font-size="14.00">${FEDORA_DATA}</text>
</g>
<!-- DPV1 -->
<g id="node28" class="node">
<title>DPV1</title>
<polygon fill="none" stroke="green" points="1526.36,-295 1523.36,-299 1502.36,-299 1499.36,-295 1297.36,-295 1297.36,-259 1526.36,-259 1526.36,-295"/>
<text text-anchor="middle" x="1411.86" y="-273.3" font-family="Times,serif" font-size="14.00">/usr/local/tomcat/fcrepo&#45;home</text>
</g>
<!-- HS1&#45;&#45;DPV1 -->
<g id="edge2" class="edge">
<title>HS1&#45;&#45;DPV1</title>
<path fill="none" stroke="blue" d="M1330.44,-372.99C1348.49,-351.94 1379.04,-316.3 1397.14,-295.17"/>
</g>
<!-- HS2 -->
<g id="node5" class="node">
<title>HS2</title>
<polygon fill="none" stroke="blue" points="803.36,-409 800.36,-413 779.36,-413 776.36,-409 612.36,-409 612.36,-373 803.36,-373 803.36,-409"/>
<text text-anchor="middle" x="707.86" y="-387.3" font-family="Times,serif" font-size="14.00">${PHAIDRA_API_LOGS}</text>
</g>
<!-- DPV2 -->
<g id="node29" class="node">
<title>DPV2</title>
<polygon fill="none" stroke="green" points="772.86,-295 769.86,-299 748.86,-299 745.86,-295 642.86,-295 642.86,-259 772.86,-259 772.86,-295"/>
<text text-anchor="middle" x="707.86" y="-273.3" font-family="Times,serif" font-size="14.00">/var/log/phaidra</text>
</g>
<!-- HS2&#45;&#45;DPV2 -->
<g id="edge5" class="edge">
<title>HS2&#45;&#45;DPV2</title>
<path fill="none" stroke="blue" d="M707.86,-372.99C707.86,-351.94 707.86,-316.3 707.86,-295.17"/>
</g>
<!-- HS3 -->
<g id="node6" class="node">
<title>HS3</title>
<polygon fill="none" stroke="blue" points="1221.86,-409 1218.86,-413 1197.86,-413 1194.86,-409 969.86,-409 969.86,-373 1221.86,-373 1221.86,-409"/>
<text text-anchor="middle" x="1095.86" y="-387.3" font-family="Times,serif" font-size="14.00">${FEDORA_DATA}/data/ocfl&#45;root</text>
</g>
<!-- DPV3 -->
<g id="node30" class="node">
<title>DPV3</title>
<polygon fill="none" stroke="green" points="978.86,-295 975.86,-299 954.86,-299 951.86,-295 790.86,-295 790.86,-259 978.86,-259 978.86,-295"/>
<text text-anchor="middle" x="884.86" y="-273.3" font-family="Times,serif" font-size="14.00">/mnt/fedora_ocfl_root:ro</text>
</g>
<!-- HS3&#45;&#45;DPV3 -->
<g id="edge6" class="edge">
<title>HS3&#45;&#45;DPV3</title>
<path fill="none" stroke="blue" d="M1026.71,-372.91C1013.47,-368.52 999.98,-363.24 987.86,-357 955.2,-340.19 922.37,-312.76 902.83,-295.05"/>
</g>
<!-- DPV11 -->
<g id="node38" class="node">
<title>DPV11</title>
<polygon fill="none" stroke="green" points="1278.86,-295 1275.86,-299 1254.86,-299 1251.86,-295 1090.86,-295 1090.86,-259 1278.86,-259 1278.86,-295"/>
<text text-anchor="middle" x="1184.86" y="-273.3" font-family="Times,serif" font-size="14.00">/mnt/fedora_ocfl_root:ro</text>
</g>
<!-- HS3&#45;&#45;DPV11 -->
<g id="edge23" class="edge">
<title>HS3&#45;&#45;DPV11</title>
<path fill="none" stroke="blue" d="M1109.38,-372.99C1126.11,-351.94 1154.43,-316.3 1171.22,-295.17"/>
</g>
<!-- HS4 -->
<g id="node7" class="node">
<title>HS4</title>
<polygon fill="none" stroke="blue" points="2005.86,-409 2002.86,-413 1981.86,-413 1978.86,-409 1667.86,-409 1667.86,-373 2005.86,-373 2005.86,-409"/>
<text text-anchor="middle" x="1836.86" y="-387.3" font-family="Times,serif" font-size="14.00">./container_configs/mariadb/phaidradb.sql.gz</text>
</g>
<!-- DPV4 -->
<g id="node31" class="node">
<title>DPV4</title>
<polygon fill="none" stroke="green" points="1988.86,-295 1985.86,-299 1964.86,-299 1961.86,-295 1636.86,-295 1636.86,-259 1988.86,-259 1988.86,-295"/>
<text text-anchor="middle" x="1812.86" y="-273.3" font-family="Times,serif" font-size="14.00">/docker&#45;entrypoint&#45;initdb.d/phaidradb.sql.gz:ro</text>
</g>
<!-- HS4&#45;&#45;DPV4 -->
<g id="edge9" class="edge">
<title>HS4&#45;&#45;DPV4</title>
<path fill="none" stroke="blue" d="M1833.22,-372.99C1828.71,-351.94 1821.07,-316.3 1816.54,-295.17"/>
</g>
<!-- HS5 -->
<g id="node8" class="node">
<title>HS5</title>
<polygon fill="none" stroke="blue" points="2203.36,-409 2200.36,-413 2179.36,-413 2176.36,-409 2024.36,-409 2024.36,-373 2203.36,-373 2203.36,-409"/>
<text text-anchor="middle" x="2113.86" y="-387.3" font-family="Times,serif" font-size="14.00">${PHAIDRADB_DATA}</text>
</g>
<!-- DPV5 -->
<g id="node32" class="node">
<title>DPV5</title>
<polygon fill="none" stroke="green" points="2120.86,-295 2117.86,-299 2096.86,-299 2093.86,-295 2006.86,-295 2006.86,-259 2120.86,-259 2120.86,-295"/>
<text text-anchor="middle" x="2063.86" y="-273.3" font-family="Times,serif" font-size="14.00">/var/lib/mysql</text>
</g>
<!-- HS5&#45;&#45;DPV5 -->
<g id="edge10" class="edge">
<title>HS5&#45;&#45;DPV5</title>
<path fill="none" stroke="blue" d="M2106.27,-372.99C2096.87,-351.94 2080.96,-316.3 2071.53,-295.17"/>
</g>
<!-- HS6 -->
<g id="node9" class="node">
<title>HS6</title>
<polygon fill="none" stroke="blue" points="1649.36,-409 1646.36,-413 1625.36,-413 1622.36,-409 1410.36,-409 1410.36,-373 1649.36,-373 1649.36,-409"/>
<text text-anchor="middle" x="1529.86" y="-387.3" font-family="Times,serif" font-size="14.00">${MONGOPHAIDRADB_DATA}</text>
</g>
<!-- DPV6 -->
<g id="node33" class="node">
<title>DPV6</title>
<polygon fill="none" stroke="green" points="1619.36,-295 1616.36,-299 1595.36,-299 1592.36,-295 1544.36,-295 1544.36,-259 1619.36,-259 1619.36,-295"/>
<text text-anchor="middle" x="1581.86" y="-273.3" font-family="Times,serif" font-size="14.00">/data/db</text>
</g>
<!-- HS6&#45;&#45;DPV6 -->
<g id="edge12" class="edge">
<title>HS6&#45;&#45;DPV6</title>
<path fill="none" stroke="blue" d="M1537.76,-372.99C1547.53,-351.94 1564.08,-316.3 1573.89,-295.17"/>
</g>
<!-- HS7 -->
<g id="node10" class="node">
<title>HS7</title>
<polygon fill="none" stroke="blue" points="2394.36,-409 2391.36,-413 2370.36,-413 2367.36,-409 2221.36,-409 2221.36,-373 2394.36,-373 2394.36,-409"/>
<text text-anchor="middle" x="2307.86" y="-387.3" font-family="Times,serif" font-size="14.00">${OPENLDAP_DATA}</text>
</g>
<!-- DPV7 -->
<g id="node34" class="node">
<title>DPV7</title>
<polygon fill="none" stroke="green" points="2284.86,-295 2281.86,-299 2260.86,-299 2257.86,-295 2138.86,-295 2138.86,-259 2284.86,-259 2284.86,-295"/>
<text text-anchor="middle" x="2211.86" y="-273.3" font-family="Times,serif" font-size="14.00">/bitnami/openldap</text>
</g>
<!-- HS7&#45;&#45;DPV7 -->
<g id="edge15" class="edge">
<title>HS7&#45;&#45;DPV7</title>
<path fill="none" stroke="blue" d="M2293.28,-372.99C2275.24,-351.94 2244.69,-316.3 2226.58,-295.17"/>
</g>
<!-- HS8 -->
<g id="node11" class="node">
<title>HS8</title>
<polygon fill="none" stroke="blue" points="2633.36,-409 2630.36,-413 2609.36,-413 2606.36,-409 2412.36,-409 2412.36,-373 2633.36,-373 2633.36,-409"/>
<text text-anchor="middle" x="2522.86" y="-387.3" font-family="Times,serif" font-size="14.00">./container_configs/openldap</text>
</g>
<!-- DPV8 -->
<g id="node35" class="node">
<title>DPV8</title>
<polygon fill="none" stroke="green" points="2374.36,-295 2371.36,-299 2350.36,-299 2347.36,-295 2303.36,-295 2303.36,-259 2374.36,-259 2374.36,-295"/>
<text text-anchor="middle" x="2338.86" y="-273.3" font-family="Times,serif" font-size="14.00">/ldifs:ro</text>
</g>
<!-- HS8&#45;&#45;DPV8 -->
<g id="edge16" class="edge">
<title>HS8&#45;&#45;DPV8</title>
<path fill="none" stroke="blue" d="M2439.12,-372.92C2412.7,-366.98 2389,-360.85 2383.86,-357 2363.15,-341.48 2350.5,-313.42 2344.09,-295.26"/>
</g>
<!-- HS9 -->
<g id="node12" class="node">
<title>HS9</title>
<polygon fill="none" stroke="blue" points="951.86,-409 948.86,-413 927.86,-413 924.86,-409 821.86,-409 821.86,-373 951.86,-373 951.86,-409"/>
<text text-anchor="middle" x="886.86" y="-387.3" font-family="Times,serif" font-size="14.00">${SOLR_DATA}</text>
</g>
<!-- DPV9 -->
<g id="node36" class="node">
<title>DPV9</title>
<polygon fill="none" stroke="green" points="1072.86,-295 1069.86,-299 1048.86,-299 1045.86,-295 996.86,-295 996.86,-259 1072.86,-259 1072.86,-295"/>
<text text-anchor="middle" x="1034.86" y="-273.3" font-family="Times,serif" font-size="14.00">/var/solr</text>
</g>
<!-- HS9&#45;&#45;DPV9 -->
<g id="edge18" class="edge">
<title>HS9&#45;&#45;DPV9</title>
<path fill="none" stroke="blue" d="M936.53,-372.93C944.65,-370.23 952.98,-367.5 960.86,-365 972.79,-361.22 977.98,-364.68 987.86,-357 1008.52,-340.93 1022,-313.03 1029.02,-295.05"/>
</g>
<!-- HS10 -->
<g id="node13" class="node">
<title>HS10</title>
<polygon fill="none" stroke="blue" points="2895.86,-409 2892.86,-413 2871.86,-413 2868.86,-409 2651.86,-409 2651.86,-373 2895.86,-373 2895.86,-409"/>
<text text-anchor="middle" x="2773.86" y="-387.3" font-family="Times,serif" font-size="14.00">${PIXELGECKO_CONVERTED}</text>
</g>
<!-- DPV10 -->
<g id="node37" class="node">
<title>DPV10</title>
<polygon fill="none" stroke="green" points="2595.36,-295 2592.36,-299 2571.36,-299 2568.36,-295 2392.36,-295 2392.36,-259 2595.36,-259 2595.36,-295"/>
<text text-anchor="middle" x="2493.86" y="-273.3" font-family="Times,serif" font-size="14.00">/mnt/converted_images:ro</text>
</g>
<!-- HS10&#45;&#45;DPV10 -->
<g id="edge20" class="edge">
<title>HS10&#45;&#45;DPV10</title>
<path fill="none" stroke="blue" d="M2684.66,-372.99C2645.12,-365.37 2606.95,-357.9 2604.86,-357 2569,-341.6 2533.26,-313.23 2512.37,-295.01"/>
</g>
<!-- DPV12 -->
<g id="node39" class="node">
<title>DPV12</title>
<polygon fill="none" stroke="green" points="2895.86,-295 2892.86,-299 2871.86,-299 2868.86,-295 2745.86,-295 2745.86,-259 2895.86,-259 2895.86,-295"/>
<text text-anchor="middle" x="2820.86" y="-273.3" font-family="Times,serif" font-size="14.00">/converted_images</text>
</g>
<!-- HS10&#45;&#45;DPV12 -->
<g id="edge24" class="edge">
<title>HS10&#45;&#45;DPV12</title>
<path fill="none" stroke="blue" d="M2781,-372.99C2789.83,-351.94 2804.79,-316.3 2813.66,-295.17"/>
</g>
<!-- HS13 -->
<g id="node14" class="node">
<title>HS13</title>
<polygon fill="none" stroke="blue" points="593.86,-409 590.86,-413 569.86,-413 566.86,-409 441.86,-409 441.86,-373 593.86,-373 593.86,-409"/>
<text text-anchor="middle" x="517.86" y="-387.3" font-family="Times,serif" font-size="14.00">${DBGATE_DATA}</text>
</g>
<!-- DPV13 -->
<g id="node40" class="node">
<title>DPV13</title>
<polygon fill="none" stroke="green" points="624.36,-295 621.36,-299 600.36,-299 597.36,-295 515.36,-295 515.36,-259 624.36,-259 624.36,-295"/>
<text text-anchor="middle" x="569.86" y="-273.3" font-family="Times,serif" font-size="14.00">/root/.dbgate</text>
</g>
<!-- HS13&#45;&#45;DPV13 -->
<g id="edge26" class="edge">
<title>HS13&#45;&#45;DPV13</title>
<path fill="none" stroke="blue" d="M525.76,-372.99C535.53,-351.94 552.08,-316.3 561.89,-295.17"/>
</g>
<!-- HS15 -->
<g id="node15" class="node">
<title>HS15</title>
<polygon fill="none" stroke="blue" points="3087.86,-409 3084.86,-413 3063.86,-413 3060.86,-409 2913.86,-409 2913.86,-373 3087.86,-373 3087.86,-409"/>
<text text-anchor="middle" x="3000.86" y="-387.3" font-family="Times,serif" font-size="14.00">${FEDORADB_DATA}</text>
</g>
<!-- DPV15 -->
<g id="node41" class="node">
<title>DPV15</title>
<polygon fill="none" stroke="green" points="2727.86,-295 2724.86,-299 2703.86,-299 2700.86,-295 2613.86,-295 2613.86,-259 2727.86,-259 2727.86,-295"/>
<text text-anchor="middle" x="2670.86" y="-273.3" font-family="Times,serif" font-size="14.00">/var/lib/mysql</text>
</g>
<!-- HS15&#45;&#45;DPV15 -->
<g id="edge28" class="edge">
<title>HS15&#45;&#45;DPV15</title>
<path fill="none" stroke="blue" d="M2943.39,-372.97C2930.8,-369.82 2917.46,-366.92 2904.86,-365 2886.39,-362.19 2753.6,-365.32 2736.86,-357 2710.13,-343.72 2690.19,-314.15 2679.55,-295.19"/>
</g>
<!-- DPS13 -->
<g id="node27" class="node">
<title>DPS13</title>
<g id="a_node27"><a xlink:href="https://mariadb.org/" xlink:title="mariadb&#45;fedora">
<polygon fill="none" stroke="green" points="1013.86,-68 887.86,-68 887.86,-64 883.86,-64 883.86,-60 887.86,-60 887.86,-40 883.86,-40 883.86,-36 887.86,-36 887.86,-32 1013.86,-32 1013.86,-68"/>
<polyline fill="none" stroke="green" points="887.86,-64 891.86,-64 891.86,-60 887.86,-60 "/>
<polyline fill="none" stroke="green" points="887.86,-40 891.86,-40 891.86,-36 887.86,-36 "/>
<text text-anchor="middle" x="950.86" y="-46.3" font-family="Times,serif" font-size="14.00">mariadb&#45;fedora</text>
</a>
</g>
</g>
<!-- DPS1&#45;&#45;DPS13 -->
<g id="edge29" class="edge">
<title>DPS1&#45;&#45;DPS13</title>
<path fill="none" stroke="orange" d="M950.86,-103.7C950.86,-92.85 950.86,-78.92 950.86,-68.1"/>
</g>
<!-- DPS2&#45;&#45;DPS1 -->
<g id="edge30" class="edge">
<title>DPS2&#45;&#45;DPS1</title>
<path fill="none" stroke="orange" d="M922.25,-175.7C928.14,-164.85 935.71,-150.92 941.58,-140.1"/>
</g>
<!-- DPS3 -->
<g id="node18" class="node">
<title>DPS3</title>
<g id="a_node18"><a xlink:href="https://mariadb.org/" xlink:title="mariadb&#45;phaidra">
<polygon fill="none" stroke="green" points="1295.36,-140 1160.36,-140 1160.36,-136 1156.36,-136 1156.36,-132 1160.36,-132 1160.36,-112 1156.36,-112 1156.36,-108 1160.36,-108 1160.36,-104 1295.36,-104 1295.36,-140"/>
<polyline fill="none" stroke="green" points="1160.36,-136 1164.36,-136 1164.36,-132 1160.36,-132 "/>
<polyline fill="none" stroke="green" points="1160.36,-112 1164.36,-112 1164.36,-108 1160.36,-108 "/>
<text text-anchor="middle" x="1227.86" y="-118.3" font-family="Times,serif" font-size="14.00">mariadb&#45;phaidra</text>
</a>
</g>
</g>
<!-- DPS2&#45;&#45;DPS3 -->
<g id="edge31" class="edge">
<title>DPS2&#45;&#45;DPS3</title>
<path fill="none" stroke="orange" d="M939.99,-186.97C988.49,-176.19 1091.41,-153.32 1160.12,-138.05"/>
</g>
<!-- DPS4 -->
<g id="node19" class="node">
<title>DPS4</title>
<g id="a_node19"><a xlink:href="https://www.mongodb.com/" xlink:title="mongodb&#45;phaidra">
<polygon fill="none" stroke="green" points="1141.86,-140 999.86,-140 999.86,-136 995.86,-136 995.86,-132 999.86,-132 999.86,-112 995.86,-112 995.86,-108 999.86,-108 999.86,-104 1141.86,-104 1141.86,-140"/>
<polyline fill="none" stroke="green" points="999.86,-136 1003.86,-136 1003.86,-132 999.86,-132 "/>
<polyline fill="none" stroke="green" points="999.86,-112 1003.86,-112 1003.86,-108 999.86,-108 "/>
<text text-anchor="middle" x="1070.86" y="-118.3" font-family="Times,serif" font-size="14.00">mongodb&#45;phaidra</text>
</a>
</g>
</g>
<!-- DPS2&#45;&#45;DPS4 -->
<g id="edge32" class="edge">
<title>DPS2&#45;&#45;DPS4</title>
<path fill="none" stroke="orange" d="M940.02,-180.97C965.43,-169.71 1003.65,-152.77 1032.24,-140.11"/>
</g>
<!-- DPS2&#45;&#45;DPS5 -->
<g id="edge33" class="edge">
<title>DPS2&#45;&#45;DPS5</title>
<path fill="none" stroke="orange" d="M885.95,-175.88C868.91,-165.03 846.94,-151.05 829.87,-140.19"/>
</g>
<!-- DPS6 -->
<g id="node21" class="node">
<title>DPS6</title>
<g id="a_node21"><a xlink:href="https://www.openldap.org/" xlink:title="openldap">
<polygon fill="none" stroke="green" points="1395.86,-140 1313.86,-140 1313.86,-136 1309.86,-136 1309.86,-132 1313.86,-132 1313.86,-112 1309.86,-112 1309.86,-108 1313.86,-108 1313.86,-104 1395.86,-104 1395.86,-140"/>
<polyline fill="none" stroke="green" points="1313.86,-136 1317.86,-136 1317.86,-132 1313.86,-132 "/>
<polyline fill="none" stroke="green" points="1313.86,-112 1317.86,-112 1317.86,-108 1313.86,-108 "/>
<text text-anchor="middle" x="1354.86" y="-118.3" font-family="Times,serif" font-size="14.00">openldap</text>
</a>
</g>
</g>
<!-- DPS2&#45;&#45;DPS6 -->
<g id="edge34" class="edge">
<title>DPS2&#45;&#45;DPS6</title>
<path fill="none" stroke="orange" d="M940.28,-191.13C1004.65,-186.33 1170.16,-171.69 1304.86,-140 1307.81,-139.31 1310.82,-138.51 1313.84,-137.65"/>
</g>
<!-- DPS2&#45;&#45;DPS7 -->
<g id="edge35" class="edge">
<title>DPS2&#45;&#45;DPS7</title>
<path fill="none" stroke="orange" d="M903.47,-175.7C897.58,-164.85 890.02,-150.92 884.15,-140.1"/>
</g>
<!-- DPS8 -->
<g id="node23" class="node">
<title>DPS8</title>
<g id="a_node23"><a xlink:href="https://github.com/ruven/iipsrv" xlink:title="imageserver)">
<polygon fill="none" stroke="green" points="1525.36,-140 1414.36,-140 1414.36,-136 1410.36,-136 1410.36,-132 1414.36,-132 1414.36,-112 1410.36,-112 1410.36,-108 1414.36,-108 1414.36,-104 1525.36,-104 1525.36,-140"/>
<polyline fill="none" stroke="green" points="1414.36,-136 1418.36,-136 1418.36,-132 1414.36,-132 "/>
<polyline fill="none" stroke="green" points="1414.36,-112 1418.36,-112 1418.36,-108 1414.36,-108 "/>
<text text-anchor="middle" x="1469.86" y="-118.3" font-family="Times,serif" font-size="14.00">imageserver)</text>
</a>
</g>
</g>
<!-- DPS2&#45;&#45;DPS8 -->
<g id="edge36" class="edge">
<title>DPS2&#45;&#45;DPS8</title>
<path fill="none" stroke="orange" d="M940,-191.5C1014.67,-187.05 1229.31,-172.23 1404.86,-140 1407.96,-139.43 1411.13,-138.79 1414.31,-138.11"/>
</g>
<!-- DPS9 -->
<g id="node24" class="node">
<title>DPS9</title>
<polygon fill="none" stroke="green" points="1524.86,-68 1432.86,-68 1432.86,-64 1428.86,-64 1428.86,-60 1432.86,-60 1432.86,-40 1428.86,-40 1428.86,-36 1432.86,-36 1432.86,-32 1524.86,-32 1524.86,-68"/>
<polyline fill="none" stroke="green" points="1432.86,-64 1436.86,-64 1436.86,-60 1432.86,-60 "/>
<polyline fill="none" stroke="green" points="1432.86,-40 1436.86,-40 1436.86,-36 1432.86,-36 "/>
<text text-anchor="middle" x="1478.86" y="-46.3" font-family="Times,serif" font-size="14.00">pixelgecko</text>
</g>
<!-- DPS4&#45;&#45;DPS9 -->
<g id="edge37" class="edge">
<title>DPS4&#45;&#45;DPS9</title>
<path fill="none" stroke="orange" d="M1141.94,-105.89C1145.29,-105.24 1148.61,-104.6 1151.86,-104 1251.66,-85.45 1369.28,-67.29 1432.71,-57.79"/>
</g>
<!-- DPS6&#45;&#45;DPS11 -->
<g id="edge38" class="edge">
<title>DPS6&#45;&#45;DPS11</title>
<path fill="none" stroke="orange" d="M1313.61,-106.11C1310.67,-105.32 1307.73,-104.6 1304.86,-104 1118.87,-65.13 1066.19,-99.81 878.86,-68 865.91,-65.8 851.78,-62.31 839.93,-59.07"/>
</g>
<!-- DPS10&#45;&#45;DPS3 -->
<g id="edge39" class="edge">
<title>DPS10&#45;&#45;DPS3</title>
<path fill="none" stroke="orange" d="M822.21,-186.07C838.62,-182.78 858.74,-178.94 876.86,-176 998.1,-156.34 1029.89,-161.26 1150.86,-140 1153.96,-139.45 1157.13,-138.87 1160.32,-138.26"/>
</g>
<!-- DPS10&#45;&#45;DPS4 -->
<g id="edge40" class="edge">
<title>DPS10&#45;&#45;DPS4</title>
<path fill="none" stroke="orange" d="M822.04,-184.76C866.08,-173.83 944.94,-154.26 1002.1,-140.07"/>
</g>
<!-- DPS10&#45;&#45;DPS13 -->
<g id="edge41" class="edge">
<title>DPS10&#45;&#45;DPS13</title>
<path fill="none" stroke="orange" d="M776.94,-175.91C765.11,-156.64 750.88,-125.24 766.86,-104 781.6,-84.41 840.44,-69.8 887.67,-60.93"/>
</g>
<!-- DPV1&#45;&#45;DPS1 -->
<g id="edge1" class="edge">
<title>DPV1&#45;&#45;DPS1</title>
<path fill="none" stroke="green" d="M1337.42,-258.98C1321.17,-255.83 1304,-252.92 1287.86,-251 1264.9,-248.26 1101.22,-251.88 1079.86,-243 1027.32,-221.17 983.03,-167.71 962.74,-140.11"/>
</g>
<!-- DPV2&#45;&#45;DPS2 -->
<g id="edge3" class="edge">
<title>DPV2&#45;&#45;DPS2</title>
<path fill="none" stroke="green" d="M754.49,-258.96C763.5,-256.03 772.91,-253.23 781.86,-251 803.27,-245.67 810.1,-250.48 830.86,-243 851.66,-235.51 873.15,-222.71 888.91,-212.21"/>
</g>
<!-- DPV3&#45;&#45;DPS2 -->
<g id="edge4" class="edge">
<title>DPV3&#45;&#45;DPS2</title>
<path fill="none" stroke="green" d="M890.8,-258.82C895.55,-245.08 902.18,-225.89 906.93,-212.15"/>
</g>
<!-- DPV4&#45;&#45;DPS3 -->
<g id="edge7" class="edge">
<title>DPV4&#45;&#45;DPS3</title>
<path fill="none" stroke="green" d="M1701.66,-259C1677.7,-255.86 1652.47,-252.97 1628.86,-251 1600.39,-248.63 1398.57,-253.14 1371.86,-243 1315.27,-221.51 1264.9,-167.9 1241.58,-140.19"/>
</g>
<!-- DPV5&#45;&#45;DPS3 -->
<g id="edge8" class="edge">
<title>DPV5&#45;&#45;DPS3</title>
<path fill="none" stroke="green" d="M2025.43,-258.89C2016.54,-255.65 2007.01,-252.74 1997.86,-251 1936.4,-239.3 1494.83,-260.83 1434.86,-243 1381.44,-227.12 1377.13,-203.86 1328.86,-176 1307.08,-163.43 1282.05,-150.29 1262.36,-140.23"/>
</g>
<!-- DPV6&#45;&#45;DPS4 -->
<g id="edge11" class="edge">
<title>DPV6&#45;&#45;DPS4</title>
<path fill="none" stroke="green" d="M1555.5,-258.98C1549.29,-255.75 1542.53,-252.81 1535.86,-251 1482.43,-236.5 1340.22,-257.75 1286.86,-243 1209.75,-221.69 1130.35,-167.74 1092.93,-140.02"/>
</g>
<!-- DPV7&#45;&#45;DPS6 -->
<g id="edge13" class="edge">
<title>DPV7&#45;&#45;DPS6</title>
<path fill="none" stroke="green" d="M2162.9,-258.96C2152.13,-255.81 2140.71,-252.91 2129.86,-251 2064.11,-239.4 2046.18,-250.69 1979.86,-243 1722.4,-213.15 1657.01,-204.04 1405.86,-140 1402.61,-139.17 1399.26,-138.24 1395.91,-137.25"/>
</g>
<!-- DPV8&#45;&#45;DPS6 -->
<g id="edge14" class="edge">
<title>DPV8&#45;&#45;DPS6</title>
<path fill="none" stroke="green" d="M2311.5,-258.75C2305.84,-255.77 2299.79,-253 2293.86,-251 2072.59,-176.4 2005.67,-204.04 1773.86,-176 1610.71,-156.27 1566.6,-174.2 1405.86,-140 1402.67,-139.32 1399.39,-138.51 1396.12,-137.61"/>
</g>
<!-- DPV9&#45;&#45;DPS7 -->
<g id="edge17" class="edge">
<title>DPV9&#45;&#45;DPS7</title>
<path fill="none" stroke="green" d="M1022.27,-258.99C1006.42,-238.17 977.75,-202.43 948.86,-176 934.4,-162.77 916.59,-149.92 902.06,-140.19"/>
</g>
<!-- DPV10&#45;&#45;DPS8 -->
<g id="edge19" class="edge">
<title>DPV10&#45;&#45;DPS8</title>
<path fill="none" stroke="green" d="M2419.64,-258.95C2407.68,-256.26 2395.44,-253.53 2383.86,-251 2225.04,-216.32 2186.58,-200.42 2025.86,-176 1843.96,-148.36 1626.25,-132.58 1525.75,-126.26"/>
</g>
<!-- DPV11&#45;&#45;DPS9 -->
<g id="edge21" class="edge">
<title>DPV11&#45;&#45;DPS9</title>
<path fill="none" stroke="green" d="M1254.19,-258.95C1346.56,-234.66 1502.19,-187.75 1534.86,-140 1543.9,-126.8 1541.19,-118.7 1534.86,-104 1528.67,-89.61 1516.44,-77.31 1504.99,-68.18"/>
</g>
<!-- DPV12&#45;&#45;DPS9 -->
<g id="edge22" class="edge">
<title>DPV12&#45;&#45;DPS9</title>
<path fill="none" stroke="green" d="M2799.81,-258.95C2753.37,-222.49 2637.27,-137.57 2523.86,-104 2427.35,-75.43 1714.74,-56.61 1525.11,-52.06"/>
</g>
<!-- DPV13&#45;&#45;DPS10 -->
<g id="edge25" class="edge">
<title>DPV13&#45;&#45;DPS10</title>
<path fill="none" stroke="green" d="M607.85,-258.98C616.26,-255.83 625.25,-252.93 633.86,-251 659.51,-245.26 728.68,-255.39 751.86,-243 764.48,-236.25 774.13,-223.13 780.41,-212.31"/>
</g>
<!-- DPV15&#45;&#45;DPS13 -->
<g id="edge27" class="edge">
<title>DPV15&#45;&#45;DPS13</title>
<path fill="none" stroke="green" d="M2629.35,-258.95C2621.31,-256.03 2612.89,-253.22 2604.86,-251 2422.95,-200.69 2373.66,-203.04 2186.86,-176 1739.68,-111.27 1196.64,-68.77 1014.12,-55.47"/>
</g>
</g>
</svg>
