<?xml version="1.0" encoding="UTF-8" standalone="no"?>
<!DOCTYPE svg PUBLIC "-//W3C//DTD SVG 1.1//EN"
 "http://www.w3.org/Graphics/SVG/1.1/DTD/svg11.dtd">
<!-- Generated by graphviz version 2.43.0 (0)
 -->
<!-- Title: G Pages: 1 -->
<svg width="1744pt" height="1752pt"
 viewBox="0.00 0.00 1743.72 1751.78" xmlns="http://www.w3.org/2000/svg" xmlns:xlink="http://www.w3.org/1999/xlink">
<g id="graph0" class="graph" transform="scale(1 1) rotate(0) translate(4 1747.78)">
<title>G</title>
<polygon fill="white" stroke="transparent" points="-4,4 -4,-1747.78 1739.72,-1747.78 1739.72,4 -4,4"/>
<g id="clust1" class="cluster">
<title>cluster_host</title>
<polygon fill="none" stroke="red" points="221.72,-46.78 221.72,-1735.78 1727.72,-1735.78 1727.72,-46.78 221.72,-46.78"/>
<text text-anchor="middle" x="974.72" y="-1720.58" font-family="Times,serif" font-size="14.00">PHAIDRA server firewall</text>
</g>
<g id="clust2" class="cluster">
<title>cluster_host_storage</title>
<polygon fill="none" stroke="blue" points="409.72,-501.78 409.72,-1704.78 1193.72,-1704.78 1193.72,-501.78 409.72,-501.78"/>
<text text-anchor="middle" x="801.72" y="-1689.58" font-family="Times,serif" font-size="14.00">PHAIDRA server filesystem</text>
</g>
<g id="clust3" class="cluster">
<title>cluster_named_volumes</title>
<polygon fill="none" stroke="turquoise" points="417.72,-958.78 417.72,-1673.78 1185.72,-1673.78 1185.72,-958.78 417.72,-958.78"/>
<text text-anchor="middle" x="801.72" y="-1658.58" font-family="Times,serif" font-size="14.00">Named volumes</text>
</g>
<g id="clust4" class="cluster">
<title>cluster_bind_mounts</title>
<polygon fill="none" stroke="blue" points="478.72,-509.78 478.72,-950.78 1124.72,-950.78 1124.72,-509.78 478.72,-509.78"/>
<text text-anchor="middle" x="801.72" y="-935.58" font-family="Times,serif" font-size="14.00">Bind mounts</text>
</g>
<g id="clust5" class="cluster">
<title>cluster_docker_network_host</title>
<polygon fill="none" stroke="green" points="229.72,-54.78 229.72,-493.78 1719.72,-493.78 1719.72,-54.78 229.72,-54.78"/>
<text text-anchor="middle" x="974.72" y="-478.58" font-family="Times,serif" font-size="14.00">PHAIDRA docker containers</text>
</g>
<!-- USER -->
<g id="node1" class="node">
<title>USER</title>
<polygon fill="none" stroke="black" points="193.59,-346.33 193.59,-361.24 139.27,-371.78 62.45,-371.78 8.13,-361.24 8.13,-346.33 62.45,-335.78 139.27,-335.78 193.59,-346.33"/>
<polygon fill="none" stroke="black" points="197.59,-343.03 197.59,-364.54 139.66,-375.78 62.07,-375.78 4.13,-364.54 4.13,-343.03 62.07,-331.78 139.66,-331.78 197.59,-343.03"/>
<polygon fill="none" stroke="black" points="201.58,-339.73 201.58,-367.84 140.04,-379.78 61.68,-379.78 0.14,-367.84 0.14,-339.73 61.68,-327.78 140.04,-327.78 201.58,-339.73"/>
<text text-anchor="middle" x="100.86" y="-350.08" font-family="Times,serif" font-size="14.00">PHAIDRA USER</text>
</g>
<!-- WEBSERVER -->
<g id="node29" class="node">
<title>WEBSERVER</title>
<polygon fill="none" stroke="green" points="389.72,-371.78 237.72,-371.78 237.72,-367.78 233.72,-367.78 233.72,-363.78 237.72,-363.78 237.72,-343.78 233.72,-343.78 233.72,-339.78 237.72,-339.78 237.72,-335.78 389.72,-335.78 389.72,-371.78"/>
<polyline fill="none" stroke="green" points="237.72,-367.78 241.72,-367.78 241.72,-363.78 237.72,-363.78 "/>
<polyline fill="none" stroke="green" points="237.72,-343.78 241.72,-343.78 241.72,-339.78 237.72,-339.78 "/>
<text text-anchor="middle" x="313.72" y="-350.08" font-family="Times,serif" font-size="14.00">phaidra&#45;ssl&#45;httpd&#45;1</text>
</g>
<!-- USER&#45;&#45;WEBSERVER -->
<g id="edge38" class="edge">
<title>USER&#45;&#45;WEBSERVER</title>
<path fill="none" stroke="red" d="M201.73,-353.78C213.76,-353.78 225.89,-353.78 237.48,-353.78"/>
</g>
<!-- HS_FEDORA -->
<g id="node2" class="node">
<title>HS_FEDORA</title>
<polygon fill="none" stroke="turquoise" points="1112.72,-1410.78 1109.72,-1414.78 1088.72,-1414.78 1085.72,-1410.78 490.72,-1410.78 490.72,-1316.78 1112.72,-1316.78 1112.72,-1410.78"/>
<text text-anchor="start" x="502.72" y="-1392.58" font-family="Times,serif" font-weight="bold" font-size="14.00">host:</text>
<text text-anchor="start" x="661.72" y="-1391.58" font-family="Times,serif" font-size="14.00">$HOME/.local/share/docker/volumes/phaidra&#45;ssl_fedora/_data</text>
<text text-anchor="start" x="502.72" y="-1370.58" font-family="Times,serif" font-size="14.00">fedora&#45;container:</text>
<text text-anchor="start" x="661.72" y="-1370.58" font-family="Times,serif" font-size="14.00">/usr/local/tomcat/fcrepo&#45;home</text>
<text text-anchor="start" x="502.72" y="-1349.58" font-family="Times,serif" font-size="14.00">pixelgecko&#45;container:</text>
<text text-anchor="start" x="661.72" y="-1349.58" font-family="Times,serif" font-size="14.00"> /mnt/fedora:ro</text>
<text text-anchor="start" x="502.72" y="-1328.58" font-family="Times,serif" font-size="14.00">api&#45;container:</text>
<text text-anchor="start" x="661.72" y="-1328.58" font-family="Times,serif" font-size="14.00"> /mnt/fedora:ro</text>
</g>
<!-- C_FEDORA -->
<g id="node17" class="node">
<title>C_FEDORA</title>
<g id="a_node17"><a xlink:href="https://fedora.lyrasis.org/" xlink:title="phaidra&#45;ssl&#45;fedora&#45;1">
<polygon fill="none" stroke="green" points="1412.72,-408.78 1253.72,-408.78 1253.72,-404.78 1249.72,-404.78 1249.72,-400.78 1253.72,-400.78 1253.72,-380.78 1249.72,-380.78 1249.72,-376.78 1253.72,-376.78 1253.72,-372.78 1412.72,-372.78 1412.72,-408.78"/>
<polyline fill="none" stroke="green" points="1253.72,-404.78 1257.72,-404.78 1257.72,-400.78 1253.72,-400.78 "/>
<polyline fill="none" stroke="green" points="1253.72,-380.78 1257.72,-380.78 1257.72,-376.78 1253.72,-376.78 "/>
<text text-anchor="middle" x="1333.22" y="-387.08" font-family="Times,serif" font-size="14.00">phaidra&#45;ssl&#45;fedora&#45;1</text>
</a>
</g>
</g>
<!-- HS_FEDORA&#45;&#45;C_FEDORA -->
<g id="edge1" class="edge">
<title>HS_FEDORA&#45;&#45;C_FEDORA</title>
<path fill="none" stroke="turquoise" d="M1112.97,-1362.28C1143.63,-1350.31 1171.54,-1332.79 1193.72,-1307.78 1226.54,-1270.78 1182.45,-456.09 1213.72,-417.78 1223.8,-405.44 1238.24,-398.03 1253.59,-393.72"/>
</g>
<!-- C_API -->
<g id="node18" class="node">
<title>C_API</title>
<g id="a_node18"><a xlink:href="https://github.com/phaidra/phaidra-api" xlink:title="phaidra&#45;ssl&#45;api&#45;1">
<polygon fill="none" stroke="green" points="869.22,-371.78 734.22,-371.78 734.22,-367.78 730.22,-367.78 730.22,-363.78 734.22,-363.78 734.22,-343.78 730.22,-343.78 730.22,-339.78 734.22,-339.78 734.22,-335.78 869.22,-335.78 869.22,-371.78"/>
<polyline fill="none" stroke="green" points="734.22,-367.78 738.22,-367.78 738.22,-363.78 734.22,-363.78 "/>
<polyline fill="none" stroke="green" points="734.22,-343.78 738.22,-343.78 738.22,-339.78 734.22,-339.78 "/>
<text text-anchor="middle" x="801.72" y="-350.08" font-family="Times,serif" font-size="14.00">phaidra&#45;ssl&#45;api&#45;1</text>
</a>
</g>
</g>
<!-- HS_FEDORA&#45;&#45;C_API -->
<g id="edge3" class="edge">
<title>HS_FEDORA&#45;&#45;C_API</title>
<path fill="none" stroke="turquoise" d="M490.72,-1377.7C450.86,-1363.68 417.7,-1339.15 399.72,-1298.78 390.86,-1278.89 390.86,-534.68 399.72,-514.78 455.31,-389.96 634.59,-361.22 733.92,-355.06"/>
</g>
<!-- C_PIXELGECKO -->
<g id="node25" class="node">
<title>C_PIXELGECKO</title>
<polygon fill="none" stroke="green" points="1694.72,-462.78 1505.72,-462.78 1505.72,-458.78 1501.72,-458.78 1501.72,-454.78 1505.72,-454.78 1505.72,-434.78 1501.72,-434.78 1501.72,-430.78 1505.72,-430.78 1505.72,-426.78 1694.72,-426.78 1694.72,-462.78"/>
<polyline fill="none" stroke="green" points="1505.72,-458.78 1509.72,-458.78 1509.72,-454.78 1505.72,-454.78 "/>
<polyline fill="none" stroke="green" points="1505.72,-434.78 1509.72,-434.78 1509.72,-430.78 1505.72,-430.78 "/>
<text text-anchor="middle" x="1600.22" y="-441.08" font-family="Times,serif" font-size="14.00">phaidra&#45;ssl&#45;pixelgecko&#45;1</text>
</g>
<!-- HS_FEDORA&#45;&#45;C_PIXELGECKO -->
<g id="edge12" class="edge">
<title>HS_FEDORA&#45;&#45;C_PIXELGECKO</title>
<path fill="none" stroke="turquoise" d="M1113.13,-1349.09C1142,-1339.16 1169.46,-1325.73 1193.72,-1307.78 1499.49,-1081.6 1583.03,-566.31 1596.95,-463.01"/>
</g>
<!-- HS_API_LOGS -->
<g id="node3" class="node">
<title>HS_API_LOGS</title>
<polygon fill="none" stroke="turquoise" points="1091.72,-1572.78 1088.72,-1576.78 1067.72,-1576.78 1064.72,-1572.78 511.72,-1572.78 511.72,-1520.78 1091.72,-1520.78 1091.72,-1572.78"/>
<text text-anchor="start" x="523.72" y="-1554.58" font-family="Times,serif" font-weight="bold" font-size="14.00">host:</text>
<text text-anchor="start" x="628.72" y="-1553.58" font-family="Times,serif" font-size="14.00">$HOME/.local/share/docker/volumes/phaidra&#45;ssl_api_logs/_data</text>
<text text-anchor="start" x="523.72" y="-1532.58" font-family="Times,serif" font-size="14.00">api&#45;container:</text>
<text text-anchor="start" x="628.72" y="-1532.58" font-family="Times,serif" font-size="14.00">/var/log/phaidra</text>
</g>
<!-- HS_API_LOGS&#45;&#45;C_API -->
<g id="edge2" class="edge">
<title>HS_API_LOGS&#45;&#45;C_API</title>
<path fill="none" stroke="turquoise" d="M511.72,-1549.69C456.06,-1542.79 411.33,-1528.84 399.72,-1502.78 388.56,-1477.71 388.56,-539.85 399.72,-514.78 455.31,-389.96 634.59,-361.22 733.92,-355.06"/>
</g>
<!-- HS_MARIADB_PHAIDRA -->
<g id="node4" class="node">
<title>HS_MARIADB_PHAIDRA</title>
<polygon fill="none" stroke="turquoise" points="1171.72,-1298.78 1168.72,-1302.78 1147.72,-1302.78 1144.72,-1298.78 431.72,-1298.78 431.72,-1246.78 1171.72,-1246.78 1171.72,-1298.78"/>
<text text-anchor="start" x="443.72" y="-1280.58" font-family="Times,serif" font-weight="bold" font-size="14.00">host:</text>
<text text-anchor="start" x="645.72" y="-1279.58" font-family="Times,serif" font-size="14.00">$HOME/.local/share/docker/volumes/phaidra&#45;ssl_mariadb_phaidra/_data</text>
<text text-anchor="start" x="443.72" y="-1258.58" font-family="Times,serif" font-size="14.00">mariadb&#45;phaidra&#45;container:</text>
<text text-anchor="start" x="645.72" y="-1258.58" font-family="Times,serif" font-size="14.00">/var/lib/mysql</text>
</g>
<!-- C_MARIADB_PHAIDRA -->
<g id="node19" class="node">
<title>C_MARIADB_PHAIDRA</title>
<g id="a_node19"><a xlink:href="https://mariadb.org/" xlink:title="phaidra&#45;ssl&#45;mariadb&#45;phaidra&#45;1">
<polygon fill="none" stroke="green" points="1449.22,-300.78 1217.22,-300.78 1217.22,-296.78 1213.22,-296.78 1213.22,-292.78 1217.22,-292.78 1217.22,-272.78 1213.22,-272.78 1213.22,-268.78 1217.22,-268.78 1217.22,-264.78 1449.22,-264.78 1449.22,-300.78"/>
<polyline fill="none" stroke="green" points="1217.22,-296.78 1221.22,-296.78 1221.22,-292.78 1217.22,-292.78 "/>
<polyline fill="none" stroke="green" points="1217.22,-272.78 1221.22,-272.78 1221.22,-268.78 1217.22,-268.78 "/>
<text text-anchor="middle" x="1333.22" y="-279.08" font-family="Times,serif" font-size="14.00">phaidra&#45;ssl&#45;mariadb&#45;phaidra&#45;1</text>
</a>
</g>
</g>
<!-- HS_MARIADB_PHAIDRA&#45;&#45;C_MARIADB_PHAIDRA -->
<g id="edge6" class="edge">
<title>HS_MARIADB_PHAIDRA&#45;&#45;C_MARIADB_PHAIDRA</title>
<path fill="none" stroke="turquoise" d="M916.91,-1298.83C1005.74,-1311.66 1125.09,-1311.23 1193.72,-1237.78 1228.93,-1200.11 1181.13,-349.74 1213.72,-309.78 1216.39,-306.51 1219.36,-303.59 1222.58,-300.98"/>
</g>
<!-- HS_MONGODB_PHAIDRA -->
<g id="node5" class="node">
<title>HS_MONGODB_PHAIDRA</title>
<polygon fill="none" stroke="turquoise" points="1177.72,-1158.78 1174.72,-1162.78 1153.72,-1162.78 1150.72,-1158.78 425.72,-1158.78 425.72,-1106.78 1177.72,-1106.78 1177.72,-1158.78"/>
<text text-anchor="start" x="437.72" y="-1140.58" font-family="Times,serif" font-weight="bold" font-size="14.00">host:</text>
<text text-anchor="start" x="645.72" y="-1139.58" font-family="Times,serif" font-size="14.00">$HOME/.local/share/docker/volumes/phaidra&#45;ssl_mongodb_phaidra/_data</text>
<text text-anchor="start" x="437.72" y="-1118.58" font-family="Times,serif" font-size="14.00">phaidra&#45;mongodb&#45;container:</text>
<text text-anchor="start" x="645.72" y="-1118.58" font-family="Times,serif" font-size="14.00">/data/db</text>
</g>
<!-- C_MONGODB_PHAIDRA -->
<g id="node20" class="node">
<title>C_MONGODB_PHAIDRA</title>
<g id="a_node20"><a xlink:href="https://www.mongodb.com/" xlink:title="phaidra&#45;ssl&#45;mongodb&#45;phaidra&#45;1">
<polygon fill="none" stroke="green" points="1452.72,-192.78 1213.72,-192.78 1213.72,-188.78 1209.72,-188.78 1209.72,-184.78 1213.72,-184.78 1213.72,-164.78 1209.72,-164.78 1209.72,-160.78 1213.72,-160.78 1213.72,-156.78 1452.72,-156.78 1452.72,-192.78"/>
<polyline fill="none" stroke="green" points="1213.72,-188.78 1217.72,-188.78 1217.72,-184.78 1213.72,-184.78 "/>
<polyline fill="none" stroke="green" points="1213.72,-164.78 1217.72,-164.78 1217.72,-160.78 1213.72,-160.78 "/>
<text text-anchor="middle" x="1333.22" y="-171.08" font-family="Times,serif" font-size="14.00">phaidra&#45;ssl&#45;mongodb&#45;phaidra&#45;1</text>
</a>
</g>
</g>
<!-- HS_MONGODB_PHAIDRA&#45;&#45;C_MONGODB_PHAIDRA -->
<g id="edge7" class="edge">
<title>HS_MONGODB_PHAIDRA&#45;&#45;C_MONGODB_PHAIDRA</title>
<path fill="none" stroke="turquoise" d="M916.89,-1158.82C1005.72,-1171.64 1125.06,-1171.2 1193.72,-1097.78 1227.73,-1061.42 1182.24,-240.36 1213.72,-201.78 1216.39,-198.51 1219.37,-195.59 1222.58,-192.98"/>
</g>
<!-- HS_OPENLDAP -->
<g id="node6" class="node">
<title>HS_OPENLDAP</title>
<polygon fill="none" stroke="turquoise" points="1116.72,-1018.78 1113.72,-1022.78 1092.72,-1022.78 1089.72,-1018.78 486.72,-1018.78 486.72,-966.78 1116.72,-966.78 1116.72,-1018.78"/>
<text text-anchor="start" x="498.72" y="-1000.58" font-family="Times,serif" font-weight="bold" font-size="14.00">host:</text>
<text text-anchor="start" x="646.72" y="-999.58" font-family="Times,serif" font-size="14.00">$HOME/.local/share/docker/volumes/phaidra&#45;ssl_openldap/_data</text>
<text text-anchor="start" x="498.72" y="-978.58" font-family="Times,serif" font-size="14.00">openldap&#45;container:</text>
<text text-anchor="start" x="646.72" y="-978.58" font-family="Times,serif" font-size="14.00">/bitnami/openldap</text>
</g>
<!-- C_OPENLDAP -->
<g id="node22" class="node">
<title>C_OPENLDAP</title>
<g id="a_node22"><a xlink:href="https://www.openldap.org/" xlink:title="phaidra&#45;ssl&#45;openldap&#45;1">
<polygon fill="none" stroke="green" points="1422.72,-354.78 1243.72,-354.78 1243.72,-350.78 1239.72,-350.78 1239.72,-346.78 1243.72,-346.78 1243.72,-326.78 1239.72,-326.78 1239.72,-322.78 1243.72,-322.78 1243.72,-318.78 1422.72,-318.78 1422.72,-354.78"/>
<polyline fill="none" stroke="green" points="1243.72,-350.78 1247.72,-350.78 1247.72,-346.78 1243.72,-346.78 "/>
<polyline fill="none" stroke="green" points="1243.72,-326.78 1247.72,-326.78 1247.72,-322.78 1243.72,-322.78 "/>
<text text-anchor="middle" x="1333.22" y="-333.08" font-family="Times,serif" font-size="14.00">phaidra&#45;ssl&#45;openldap&#45;1</text>
</a>
</g>
</g>
<!-- HS_OPENLDAP&#45;&#45;C_OPENLDAP -->
<g id="edge8" class="edge">
<title>HS_OPENLDAP&#45;&#45;C_OPENLDAP</title>
<path fill="none" stroke="turquoise" d="M926.38,-1018.84C1013.98,-1029.37 1127.32,-1025.51 1193.72,-954.78 1238.69,-906.88 1171.88,-414.44 1213.72,-363.78 1221.58,-354.26 1232.04,-347.69 1243.49,-343.2"/>
</g>
<!-- HS_SOLR -->
<g id="node7" class="node">
<title>HS_SOLR</title>
<polygon fill="none" stroke="turquoise" points="1078.72,-1228.78 1075.72,-1232.78 1054.72,-1232.78 1051.72,-1228.78 524.72,-1228.78 524.72,-1176.78 1078.72,-1176.78 1078.72,-1228.78"/>
<text text-anchor="start" x="536.72" y="-1210.58" font-family="Times,serif" font-weight="bold" font-size="14.00">host:</text>
<text text-anchor="start" x="646.72" y="-1209.58" font-family="Times,serif" font-size="14.00">$HOME/.local/share/docker/volumes/phaidra&#45;ssl_solr/_data</text>
<text text-anchor="start" x="536.72" y="-1188.58" font-family="Times,serif" font-size="14.00">solr&#45;container:</text>
<text text-anchor="start" x="646.72" y="-1188.58" font-family="Times,serif" font-size="14.00">/var/solr</text>
</g>
<!-- C_SOLR -->
<g id="node23" class="node">
<title>C_SOLR</title>
<g id="a_node23"><a xlink:href="https://solr.apache.org/" xlink:title="phaidra&#45;ssl&#45;solr&#45;1">
<polygon fill="none" stroke="green" points="1403.22,-246.78 1263.22,-246.78 1263.22,-242.78 1259.22,-242.78 1259.22,-238.78 1263.22,-238.78 1263.22,-218.78 1259.22,-218.78 1259.22,-214.78 1263.22,-214.78 1263.22,-210.78 1403.22,-210.78 1403.22,-246.78"/>
<polyline fill="none" stroke="green" points="1263.22,-242.78 1267.22,-242.78 1267.22,-238.78 1263.22,-238.78 "/>
<polyline fill="none" stroke="green" points="1263.22,-218.78 1267.22,-218.78 1267.22,-214.78 1263.22,-214.78 "/>
<text text-anchor="middle" x="1333.22" y="-225.08" font-family="Times,serif" font-size="14.00">phaidra&#45;ssl&#45;solr&#45;1</text>
</a>
</g>
</g>
<!-- HS_SOLR&#45;&#45;C_SOLR -->
<g id="edge10" class="edge">
<title>HS_SOLR&#45;&#45;C_SOLR</title>
<path fill="none" stroke="turquoise" d="M916.9,-1228.82C1005.73,-1241.65 1125.07,-1241.22 1193.72,-1167.78 1228.33,-1130.76 1181.68,-295.05 1213.72,-255.78 1225.86,-240.9 1244.34,-233.19 1263.12,-229.43"/>
</g>
<!-- HS_PIXELGECKO -->
<g id="node8" class="node">
<title>HS_PIXELGECKO</title>
<polygon fill="none" stroke="turquoise" points="1134.22,-1502.28 1131.22,-1506.28 1110.22,-1506.28 1107.22,-1502.28 469.22,-1502.28 469.22,-1429.28 1134.22,-1429.28 1134.22,-1502.28"/>
<text text-anchor="start" x="481.72" y="-1483.58" font-family="Times,serif" font-weight="bold" font-size="14.00">host:</text>
<text text-anchor="start" x="653.72" y="-1482.58" font-family="Times,serif" font-size="14.00">$HOME/.local/share/docker/volumes/phaidra&#45;ssl_pixelgecko/_data</text>
<text text-anchor="start" x="481.72" y="-1461.58" font-family="Times,serif" font-size="14.00">pixelgecko&#45;container:</text>
<text text-anchor="start" x="653.72" y="-1461.58" font-family="Times,serif" font-size="14.00">/mnt/converted_images</text>
<text text-anchor="start" x="481.72" y="-1440.58" font-family="Times,serif" font-size="14.00">imageserver&#45;container:</text>
<text text-anchor="start" x="653.72" y="-1440.58" font-family="Times,serif" font-size="14.00">/mnt/converted_images:ro</text>
</g>
<!-- C_IMAGESERVER -->
<g id="node24" class="node">
<title>C_IMAGESERVER</title>
<g id="a_node24"><a xlink:href="https://github.com/ruven/iipsrv" xlink:title="phaidra&#45;ssl&#45;imageserver&#45;1">
<polygon fill="none" stroke="green" points="1434.72,-462.78 1231.72,-462.78 1231.72,-458.78 1227.72,-458.78 1227.72,-454.78 1231.72,-454.78 1231.72,-434.78 1227.72,-434.78 1227.72,-430.78 1231.72,-430.78 1231.72,-426.78 1434.72,-426.78 1434.72,-462.78"/>
<polyline fill="none" stroke="green" points="1231.72,-458.78 1235.72,-458.78 1235.72,-454.78 1231.72,-454.78 "/>
<polyline fill="none" stroke="green" points="1231.72,-434.78 1235.72,-434.78 1235.72,-430.78 1231.72,-430.78 "/>
<text text-anchor="middle" x="1333.22" y="-441.08" font-family="Times,serif" font-size="14.00">phaidra&#45;ssl&#45;imageserver&#45;1</text>
</a>
</g>
</g>
<!-- HS_PIXELGECKO&#45;&#45;C_IMAGESERVER -->
<g id="edge11" class="edge">
<title>HS_PIXELGECKO&#45;&#45;C_IMAGESERVER</title>
<path fill="none" stroke="turquoise" d="M1134.33,-1462.93C1156.45,-1452.32 1176.67,-1438.22 1193.72,-1419.78 1213.05,-1398.88 1209.61,-935.95 1213.72,-907.78 1239.46,-731.26 1305.55,-524.67 1326.06,-463.02"/>
</g>
<!-- HS_PIXELGECKO&#45;&#45;C_PIXELGECKO -->
<g id="edge13" class="edge">
<title>HS_PIXELGECKO&#45;&#45;C_PIXELGECKO</title>
<path fill="none" stroke="turquoise" d="M1134.55,-1443.56C1155.04,-1437.07 1174.95,-1429.23 1193.72,-1419.78 1343.7,-1344.31 1375.06,-1293.64 1452.72,-1144.78 1581.51,-897.93 1597.08,-546.42 1598.96,-463.02"/>
</g>
<!-- HS_DBGATE -->
<g id="node9" class="node">
<title>HS_DBGATE</title>
<polygon fill="none" stroke="turquoise" points="1101.22,-1088.78 1098.22,-1092.78 1077.22,-1092.78 1074.22,-1088.78 502.22,-1088.78 502.22,-1036.78 1101.22,-1036.78 1101.22,-1088.78"/>
<text text-anchor="start" x="514.72" y="-1070.58" font-family="Times,serif" font-weight="bold" font-size="14.00">host:</text>
<text text-anchor="start" x="647.72" y="-1069.58" font-family="Times,serif" font-size="14.00">$HOME/.local/share/docker/volumes/phaidra&#45;ssl_dbgate/_data</text>
<text text-anchor="start" x="514.72" y="-1048.58" font-family="Times,serif" font-size="14.00">dbgate&#45;container:</text>
<text text-anchor="start" x="647.72" y="-1048.58" font-family="Times,serif" font-size="14.00">/root/.dbgate</text>
</g>
<!-- C_DBGATE -->
<g id="node26" class="node">
<title>C_DBGATE</title>
<polygon fill="none" stroke="green" points="883.22,-297.78 720.22,-297.78 720.22,-293.78 716.22,-293.78 716.22,-289.78 720.22,-289.78 720.22,-269.78 716.22,-269.78 716.22,-265.78 720.22,-265.78 720.22,-261.78 883.22,-261.78 883.22,-297.78"/>
<polyline fill="none" stroke="green" points="720.22,-293.78 724.22,-293.78 724.22,-289.78 720.22,-289.78 "/>
<polyline fill="none" stroke="green" points="720.22,-269.78 724.22,-269.78 724.22,-265.78 720.22,-265.78 "/>
<text text-anchor="middle" x="801.72" y="-276.08" font-family="Times,serif" font-size="14.00">phaidra&#45;ssl&#45;dbgate&#45;1</text>
</g>
<!-- HS_DBGATE&#45;&#45;C_DBGATE -->
<g id="edge14" class="edge">
<title>HS_DBGATE&#45;&#45;C_DBGATE</title>
<path fill="none" stroke="turquoise" d="M502.08,-1064.4C450.94,-1057.11 410.65,-1043.31 399.72,-1018.78 392,-1001.45 392,-353.11 399.72,-335.78 451.9,-218.63 633.07,-239.75 733.45,-261.75"/>
</g>
<!-- HS_MARIADB_FEDORA -->
<g id="node10" class="node">
<title>HS_MARIADB_FEDORA</title>
<polygon fill="none" stroke="turquoise" points="1162.72,-1642.78 1159.72,-1646.78 1138.72,-1646.78 1135.72,-1642.78 440.72,-1642.78 440.72,-1590.78 1162.72,-1590.78 1162.72,-1642.78"/>
<text text-anchor="start" x="452.72" y="-1624.58" font-family="Times,serif" font-weight="bold" font-size="14.00">host:</text>
<text text-anchor="start" x="645.72" y="-1623.58" font-family="Times,serif" font-size="14.00">$HOME/.local/share/docker/volumes/phaidra&#45;ssl_mariadb_fedora/_data</text>
<text text-anchor="start" x="452.72" y="-1602.58" font-family="Times,serif" font-size="14.00">mariadb&#45;fedora&#45;container:</text>
<text text-anchor="start" x="645.72" y="-1602.58" font-family="Times,serif" font-size="14.00">/var/lib/mysql</text>
</g>
<!-- C_MARIADB_FEDORA -->
<g id="node28" class="node">
<title>C_MARIADB_FEDORA</title>
<g id="a_node28"><a xlink:href="https://mariadb.org/" xlink:title="phaidra&#45;ssl&#45;mariadb&#45;fedora&#45;1">
<polygon fill="none" stroke="green" points="1711.72,-408.78 1488.72,-408.78 1488.72,-404.78 1484.72,-404.78 1484.72,-400.78 1488.72,-400.78 1488.72,-380.78 1484.72,-380.78 1484.72,-376.78 1488.72,-376.78 1488.72,-372.78 1711.72,-372.78 1711.72,-408.78"/>
<polyline fill="none" stroke="green" points="1488.72,-404.78 1492.72,-404.78 1492.72,-400.78 1488.72,-400.78 "/>
<polyline fill="none" stroke="green" points="1488.72,-380.78 1492.72,-380.78 1492.72,-376.78 1488.72,-376.78 "/>
<text text-anchor="middle" x="1600.22" y="-387.08" font-family="Times,serif" font-size="14.00">phaidra&#45;ssl&#45;mariadb&#45;fedora&#45;1</text>
</a>
</g>
</g>
<!-- HS_MARIADB_FEDORA&#45;&#45;C_MARIADB_FEDORA -->
<g id="edge15" class="edge">
<title>HS_MARIADB_FEDORA&#45;&#45;C_MARIADB_FEDORA</title>
<path fill="none" stroke="turquoise" d="M1163.12,-1603.42C1173.88,-1597.14 1184.13,-1589.96 1193.72,-1581.78 1295.26,-1495.23 1393.98,-511.72 1488.72,-417.78 1492.09,-414.45 1495.79,-411.5 1499.75,-408.89"/>
</g>
<!-- BIND_MARIADB_PHAIDRA_INIT -->
<g id="node11" class="node">
<title>BIND_MARIADB_PHAIDRA_INIT</title>
<polygon fill="none" stroke="blue" points="1116.72,-849.78 1113.72,-853.78 1092.72,-853.78 1089.72,-849.78 486.72,-849.78 486.72,-797.78 1116.72,-797.78 1116.72,-849.78"/>
<text text-anchor="start" x="498.72" y="-831.58" font-family="Times,serif" font-weight="bold" font-size="14.00">host:</text>
<text text-anchor="start" x="700.72" y="-830.58" font-family="Times,serif" font-size="14.00">$REPO/container_components/mariadb/phaidradb.sql.gz</text>
<text text-anchor="start" x="498.72" y="-809.58" font-family="Times,serif" font-size="14.00">mariadb&#45;phaidra&#45;container:</text>
<text text-anchor="start" x="700.72" y="-809.58" font-family="Times,serif" font-size="14.00">/docker&#45;entrypoint&#45;initdb.d/phaidradb.sql.gz:ro</text>
</g>
<!-- BIND_MARIADB_PHAIDRA_INIT&#45;&#45;C_MARIADB_PHAIDRA -->
<g id="edge5" class="edge">
<title>BIND_MARIADB_PHAIDRA_INIT&#45;&#45;C_MARIADB_PHAIDRA</title>
<path fill="none" stroke="blue" d="M919.22,-849.84C1007.54,-862.05 1125.05,-860.79 1193.72,-788.78 1230.48,-750.23 1179.64,-350.72 1213.72,-309.78 1216.42,-306.54 1219.42,-303.64 1222.66,-301.04"/>
</g>
<!-- BIND_OPENLDAP_INIT -->
<g id="node12" class="node">
<title>BIND_OPENLDAP_INIT</title>
<polygon fill="none" stroke="blue" points="1030.72,-919.78 1027.72,-923.78 1006.72,-923.78 1003.72,-919.78 572.72,-919.78 572.72,-867.78 1030.72,-867.78 1030.72,-919.78"/>
<text text-anchor="start" x="584.72" y="-901.58" font-family="Times,serif" font-weight="bold" font-size="14.00">host:</text>
<text text-anchor="start" x="732.72" y="-900.58" font-family="Times,serif" font-size="14.00">$REPO/container_components/openldap</text>
<text text-anchor="start" x="584.72" y="-879.58" font-family="Times,serif" font-size="14.00">openldap&#45;container:</text>
<text text-anchor="start" x="732.72" y="-879.58" font-family="Times,serif" font-size="14.00">/ldifs:ro</text>
</g>
<!-- BIND_OPENLDAP_INIT&#45;&#45;C_OPENLDAP -->
<g id="edge9" class="edge">
<title>BIND_OPENLDAP_INIT&#45;&#45;C_OPENLDAP</title>
<path fill="none" stroke="blue" d="M918.79,-919.8C1007.17,-932.1 1124.99,-930.96 1193.72,-858.78 1231.68,-818.92 1178.53,-406.11 1213.72,-363.78 1221.61,-354.29 1232.09,-347.73 1243.55,-343.25"/>
</g>
<!-- BIND_HTTPD_CONFIG -->
<g id="node13" class="node">
<title>BIND_HTTPD_CONFIG</title>
<polygon fill="none" stroke="blue" points="1028.22,-779.78 1025.22,-783.78 1004.22,-783.78 1001.22,-779.78 575.22,-779.78 575.22,-727.78 1028.22,-727.78 1028.22,-779.78"/>
<text text-anchor="start" x="587.72" y="-761.58" font-family="Times,serif" font-weight="bold" font-size="14.00">host:</text>
<text text-anchor="start" x="709.72" y="-760.58" font-family="Times,serif" font-size="14.00">$REPO/webserver_configs/phaidra&#45;ssl.conf</text>
<text text-anchor="start" x="587.72" y="-739.58" font-family="Times,serif" font-size="14.00">httpd&#45;container:</text>
<text text-anchor="start" x="709.72" y="-739.58" font-family="Times,serif" font-size="14.00">/usr/local/apache2/conf/httpd.conf:ro</text>
</g>
<!-- BIND_HTTPD_KEY -->
<g id="node14" class="node">
<title>BIND_HTTPD_KEY</title>
<polygon fill="none" stroke="blue" points="1035.72,-709.78 1032.72,-713.78 1011.72,-713.78 1008.72,-709.78 567.72,-709.78 567.72,-657.78 1035.72,-657.78 1035.72,-709.78"/>
<text text-anchor="start" x="579.72" y="-691.58" font-family="Times,serif" font-weight="bold" font-size="14.00">host:</text>
<text text-anchor="start" x="701.72" y="-690.58" font-family="Times,serif" font-size="14.00">$REPO/encryption/webserver/privkey.pem:ro</text>
<text text-anchor="start" x="579.72" y="-669.58" font-family="Times,serif" font-size="14.00">httpd&#45;container:</text>
<text text-anchor="start" x="701.72" y="-669.58" font-family="Times,serif" font-size="14.00">/usr/local/apache2/conf/server.key:ro</text>
</g>
<!-- BIND_HTTPD_CERT -->
<g id="node15" class="node">
<title>BIND_HTTPD_CERT</title>
<polygon fill="none" stroke="blue" points="1041.22,-639.78 1038.22,-643.78 1017.22,-643.78 1014.22,-639.78 562.22,-639.78 562.22,-587.78 1041.22,-587.78 1041.22,-639.78"/>
<text text-anchor="start" x="574.72" y="-621.58" font-family="Times,serif" font-weight="bold" font-size="14.00">host:</text>
<text text-anchor="start" x="696.72" y="-620.58" font-family="Times,serif" font-size="14.00">$REPO/encryption/webserver/fullchain.pem:ro</text>
<text text-anchor="start" x="574.72" y="-599.58" font-family="Times,serif" font-size="14.00">httpd&#45;container:</text>
<text text-anchor="start" x="696.72" y="-599.58" font-family="Times,serif" font-size="14.00">/usr/local/apache2/conf/server.crt:ro</text>
</g>
<!-- BIND_API_CODE -->
<g id="node16" class="node">
<title>BIND_API_CODE</title>
<polygon fill="none" stroke="blue" points="981.22,-569.78 978.22,-573.78 957.22,-573.78 954.22,-569.78 622.22,-569.78 622.22,-517.78 981.22,-517.78 981.22,-569.78"/>
<text text-anchor="start" x="634.72" y="-551.58" font-family="Times,serif" font-weight="bold" font-size="14.00">host:</text>
<text text-anchor="start" x="739.72" y="-550.58" font-family="Times,serif" font-size="14.00">$REPO/components/phaidra&#45;api</text>
<text text-anchor="start" x="634.72" y="-529.58" font-family="Times,serif" font-size="14.00">api&#45;container:</text>
<text text-anchor="start" x="739.72" y="-529.58" font-family="Times,serif" font-size="14.00">/usr/local/phaidra/phaidra&#45;api:ro</text>
</g>
<!-- BIND_API_CODE&#45;&#45;C_API -->
<g id="edge4" class="edge">
<title>BIND_API_CODE&#45;&#45;C_API</title>
<path fill="none" stroke="blue" d="M801.72,-517.61C801.72,-469.06 801.72,-420.51 801.72,-371.97"/>
</g>
<!-- C_FEDORA&#45;&#45;C_MARIADB_FEDORA -->
<g id="edge19" class="edge">
<title>C_FEDORA&#45;&#45;C_MARIADB_FEDORA</title>
<path fill="none" stroke="orange" d="M1413.01,-390.78C1436.66,-390.78 1463.06,-390.78 1488.37,-390.78"/>
</g>
<!-- C_API&#45;&#45;C_FEDORA -->
<g id="edge20" class="edge">
<title>C_API&#45;&#45;C_FEDORA</title>
<path fill="none" stroke="orange" d="M869.25,-358.43C967.02,-365.26 1149.18,-377.99 1253.49,-385.28"/>
</g>
<!-- C_API&#45;&#45;C_MARIADB_PHAIDRA -->
<g id="edge21" class="edge">
<title>C_API&#45;&#45;C_MARIADB_PHAIDRA</title>
<path fill="none" stroke="orange" d="M869.54,-357.41C948.84,-359.67 1084.14,-357.01 1193.72,-321.78 1203.59,-318.61 1204.1,-313.65 1213.72,-309.78 1222.04,-306.44 1230.87,-303.46 1239.8,-300.82"/>
</g>
<!-- C_API&#45;&#45;C_MONGODB_PHAIDRA -->
<g id="edge22" class="edge">
<title>C_API&#45;&#45;C_MONGODB_PHAIDRA</title>
<path fill="none" stroke="orange" d="M869.49,-367.22C956.09,-380.44 1106.39,-388.32 1193.72,-306.78 1228.45,-274.36 1180.74,-235.97 1213.72,-201.78 1216.95,-198.44 1220.49,-195.48 1224.28,-192.85"/>
</g>
<!-- C_UI -->
<g id="node21" class="node">
<title>C_UI</title>
<g id="a_node21"><a xlink:href="https://github.com/phaidra/phaidra-ui" xlink:title="phaidra&#45;ssl&#45;ui&#45;1">
<polygon fill="none" stroke="green" points="1396.72,-118.78 1269.72,-118.78 1269.72,-114.78 1265.72,-114.78 1265.72,-110.78 1269.72,-110.78 1269.72,-90.78 1265.72,-90.78 1265.72,-86.78 1269.72,-86.78 1269.72,-82.78 1396.72,-82.78 1396.72,-118.78"/>
<polyline fill="none" stroke="green" points="1269.72,-114.78 1273.72,-114.78 1273.72,-110.78 1269.72,-110.78 "/>
<polyline fill="none" stroke="green" points="1269.72,-90.78 1273.72,-90.78 1273.72,-86.78 1269.72,-86.78 "/>
<text text-anchor="middle" x="1333.22" y="-97.08" font-family="Times,serif" font-size="14.00">phaidra&#45;ssl&#45;ui&#45;1</text>
</a>
</g>
</g>
<!-- C_API&#45;&#45;C_UI -->
<g id="edge23" class="edge">
<title>C_API&#45;&#45;C_UI</title>
<path fill="none" stroke="orange" d="M869.53,-367.92C956.89,-382.11 1108.76,-391.27 1193.72,-306.78 1244.22,-256.56 1170.1,-204.08 1213.72,-147.78 1227.41,-130.11 1248.75,-119.07 1269.56,-112.17"/>
</g>
<!-- C_API&#45;&#45;C_OPENLDAP -->
<g id="edge24" class="edge">
<title>C_API&#45;&#45;C_OPENLDAP</title>
<path fill="none" stroke="orange" d="M869.25,-351.65C963.96,-348.61 1137.88,-343.02 1243.48,-339.63"/>
</g>
<!-- C_API&#45;&#45;C_SOLR -->
<g id="edge25" class="edge">
<title>C_API&#45;&#45;C_SOLR</title>
<path fill="none" stroke="orange" d="M869.35,-369.01C954.44,-384.29 1101.64,-396.11 1193.72,-321.78 1217.57,-302.53 1191.3,-276.68 1213.72,-255.78 1227.15,-243.27 1245.14,-236.14 1263.03,-232.18"/>
</g>
<!-- C_API&#45;&#45;C_IMAGESERVER -->
<g id="edge26" class="edge">
<title>C_API&#45;&#45;C_IMAGESERVER</title>
<path fill="none" stroke="orange" d="M869.25,-365.22C960.49,-380.9 1125.24,-409.21 1231.6,-427.49"/>
</g>
<!-- C_MONGODB_PHAIDRA&#45;&#45;C_PIXELGECKO -->
<g id="edge27" class="edge">
<title>C_MONGODB_PHAIDRA&#45;&#45;C_PIXELGECKO</title>
<path fill="none" stroke="orange" d="M1442.52,-192.93C1446.18,-195.54 1449.61,-198.48 1452.72,-201.78 1519.49,-272.6 1422.51,-346.45 1488.72,-417.78 1493.63,-423.07 1499.38,-427.39 1505.64,-430.92"/>
</g>
<!-- C_LAM -->
<g id="node27" class="node">
<title>C_LAM</title>
<polygon fill="none" stroke="green" points="1670.22,-226.78 1530.22,-226.78 1530.22,-222.78 1526.22,-222.78 1526.22,-218.78 1530.22,-218.78 1530.22,-198.78 1526.22,-198.78 1526.22,-194.78 1530.22,-194.78 1530.22,-190.78 1670.22,-190.78 1670.22,-226.78"/>
<polyline fill="none" stroke="green" points="1530.22,-222.78 1534.22,-222.78 1534.22,-218.78 1530.22,-218.78 "/>
<polyline fill="none" stroke="green" points="1530.22,-198.78 1534.22,-198.78 1534.22,-194.78 1530.22,-194.78 "/>
<text text-anchor="middle" x="1600.22" y="-205.08" font-family="Times,serif" font-size="14.00">phaidra&#45;ssl&#45;lam&#45;1</text>
</g>
<!-- C_OPENLDAP&#45;&#45;C_LAM -->
<g id="edge28" class="edge">
<title>C_OPENLDAP&#45;&#45;C_LAM</title>
<path fill="none" stroke="orange" d="M1422.79,-320.53C1433.07,-317.49 1443.26,-313.94 1452.72,-309.78 1501.66,-288.29 1551.36,-249.72 1578.44,-226.97"/>
</g>
<!-- C_DBGATE&#45;&#45;C_MARIADB_PHAIDRA -->
<g id="edge29" class="edge">
<title>C_DBGATE&#45;&#45;C_MARIADB_PHAIDRA</title>
<path fill="none" stroke="orange" d="M883.43,-280.24C972.31,-280.74 1115.96,-281.56 1216.74,-282.13"/>
</g>
<!-- C_DBGATE&#45;&#45;C_MONGODB_PHAIDRA -->
<g id="edge30" class="edge">
<title>C_DBGATE&#45;&#45;C_MONGODB_PHAIDRA</title>
<path fill="none" stroke="orange" d="M883.43,-263.78C979.84,-244.66 1140.68,-212.77 1241.36,-192.8"/>
</g>
<!-- C_DBGATE&#45;&#45;C_MARIADB_FEDORA -->
<g id="edge31" class="edge">
<title>C_DBGATE&#45;&#45;C_MARIADB_FEDORA</title>
<path fill="none" stroke="orange" d="M883.35,-274.88C967.58,-266.25 1100.23,-242.45 1193.72,-176.78 1206.53,-167.78 1199.86,-155.06 1213.72,-147.78 1237.23,-135.44 1430.67,-132.98 1452.72,-147.78 1487.81,-171.34 1468.32,-198.78 1488.72,-235.78 1517.76,-288.46 1561.36,-344.58 1584.14,-372.62"/>
</g>
<!-- WEBSERVER&#45;&#45;BIND_HTTPD_CONFIG -->
<g id="edge16" class="edge">
<title>WEBSERVER&#45;&#45;BIND_HTTPD_CONFIG</title>
<path fill="none" stroke="blue" d="M316.73,-372.01C324.52,-439.34 355.13,-672.55 409.72,-718.78 455.36,-757.43 515.65,-773.7 575.18,-778.39"/>
</g>
<!-- WEBSERVER&#45;&#45;BIND_HTTPD_KEY -->
<g id="edge17" class="edge">
<title>WEBSERVER&#45;&#45;BIND_HTTPD_KEY</title>
<path fill="none" stroke="blue" d="M314.27,-372.1C314.08,-424.92 321.46,-578.24 409.72,-648.78 454.11,-684.26 511.06,-700.34 567.68,-705.89"/>
</g>
<!-- WEBSERVER&#45;&#45;BIND_HTTPD_CERT -->
<g id="edge18" class="edge">
<title>WEBSERVER&#45;&#45;BIND_HTTPD_CERT</title>
<path fill="none" stroke="blue" d="M316.27,-371.87C321.1,-415.75 340.01,-527.93 409.72,-578.78 453.56,-610.77 507.96,-626.24 562.1,-632.38"/>
</g>
<!-- WEBSERVER&#45;&#45;C_FEDORA -->
<g id="edge32" class="edge">
<title>WEBSERVER&#45;&#45;C_FEDORA</title>
<path fill="none" stroke="magenta" d="M368.69,-371.8C381.96,-375.48 396.23,-378.83 409.72,-380.78 719.41,-425.65 1093.71,-407.86 1253.62,-396.91"/>
</g>
<!-- WEBSERVER&#45;&#45;C_API -->
<g id="edge33" class="edge">
<title>WEBSERVER&#45;&#45;C_API</title>
<path fill="none" stroke="magenta" d="M389.86,-353.78C484.05,-353.78 644.03,-353.78 734.06,-353.78"/>
</g>
<!-- WEBSERVER&#45;&#45;C_UI -->
<g id="edge34" class="edge">
<title>WEBSERVER&#45;&#45;C_UI</title>
<path fill="none" stroke="magenta" d="M326.34,-335.4C342.15,-312.06 372.76,-272.48 409.72,-252.78 701.94,-97.05 1114.23,-92.99 1269.67,-97.77"/>
</g>
<!-- WEBSERVER&#45;&#45;C_SOLR -->
<g id="edge35" class="edge">
<title>WEBSERVER&#45;&#45;C_SOLR</title>
<path fill="none" stroke="magenta" d="M369.21,-335.77C382.34,-332.13 396.42,-328.81 409.72,-326.78 452.79,-320.22 1158.04,-331.79 1193.72,-306.78 1213.66,-292.81 1195.27,-271.66 1213.72,-255.78 1227.48,-243.95 1245.36,-237.02 1263.05,-233.03"/>
</g>
<!-- WEBSERVER&#45;&#45;C_DBGATE -->
<g id="edge36" class="edge">
<title>WEBSERVER&#45;&#45;C_DBGATE</title>
<path fill="none" stroke="magenta" d="M348.03,-335.76C365.82,-327 388.4,-317.2 409.72,-311.78 514.68,-285.1 640.09,-279.22 720.06,-278.59"/>
</g>
<!-- WEBSERVER&#45;&#45;C_LAM -->
<g id="edge37" class="edge">
<title>WEBSERVER&#45;&#45;C_LAM</title>
<path fill="none" stroke="magenta" d="M314.88,-335.44C316.41,-286.1 328.17,-150.33 409.72,-91.78 598.03,43.41 1236.79,10.54 1452.72,-73.78 1513.61,-97.56 1564.45,-159.81 1586.88,-190.77"/>
</g>
</g>
</svg>
