<?xml version="1.0" encoding="UTF-8" standalone="no"?>
<!DOCTYPE svg PUBLIC "-//W3C//DTD SVG 1.1//EN"
 "http://www.w3.org/Graphics/SVG/1.1/DTD/svg11.dtd">
<!-- Generated by graphviz version 2.43.0 (0)
 -->
<!-- Title: G Pages: 1 -->
<svg width="1918pt" height="1725pt"
 viewBox="0.00 0.00 1917.72 1725.09" xmlns="http://www.w3.org/2000/svg" xmlns:xlink="http://www.w3.org/1999/xlink">
<g id="graph0" class="graph" transform="scale(1 1) rotate(0) translate(4 1721.09)">
<title>G</title>
<polygon fill="white" stroke="transparent" points="-4,4 -4,-1721.09 1913.72,-1721.09 1913.72,4 -4,4"/>
<g id="clust1" class="cluster">
<title>cluster_host</title>
<polygon fill="none" stroke="red" points="221.72,-20.09 221.72,-1709.09 1901.72,-1709.09 1901.72,-20.09 221.72,-20.09"/>
<text text-anchor="middle" x="1061.72" y="-1693.89" font-family="Times,serif" font-size="14.00">PHAIDRA server firewall</text>
</g>
<g id="clust2" class="cluster">
<title>cluster_host_storage</title>
<polygon fill="none" stroke="blue" points="453.72,-475.09 453.72,-1678.09 1281.72,-1678.09 1281.72,-475.09 453.72,-475.09"/>
<text text-anchor="middle" x="867.72" y="-1662.89" font-family="Times,serif" font-size="14.00">PHAIDRA server filesystem</text>
</g>
<g id="clust3" class="cluster">
<title>cluster_named_volumes</title>
<polygon fill="none" stroke="turquoise" points="461.72,-932.09 461.72,-1647.09 1273.72,-1647.09 1273.72,-932.09 461.72,-932.09"/>
<text text-anchor="middle" x="867.72" y="-1631.89" font-family="Times,serif" font-size="14.00">Named volumes</text>
</g>
<g id="clust4" class="cluster">
<title>cluster_bind_mounts</title>
<polygon fill="none" stroke="blue" points="544.72,-483.09 544.72,-924.09 1190.72,-924.09 1190.72,-483.09 544.72,-483.09"/>
<text text-anchor="middle" x="867.72" y="-908.89" font-family="Times,serif" font-size="14.00">Bind mounts</text>
</g>
<g id="clust5" class="cluster">
<title>cluster_docker_network_host</title>
<polygon fill="none" stroke="green" points="229.72,-28.09 229.72,-467.09 1893.72,-467.09 1893.72,-28.09 229.72,-28.09"/>
<text text-anchor="middle" x="1061.72" y="-451.89" font-family="Times,serif" font-size="14.00">PHAIDRA docker containers</text>
</g>
<!-- USER -->
<g id="node1" class="node">
<title>USER</title>
<polygon fill="none" stroke="black" points="193.59,-347.63 193.59,-362.54 139.27,-373.09 62.45,-373.09 8.13,-362.54 8.13,-347.63 62.45,-337.09 139.27,-337.09 193.59,-347.63"/>
<polygon fill="none" stroke="black" points="197.59,-344.33 197.59,-365.84 139.66,-377.09 62.07,-377.09 4.13,-365.84 4.13,-344.33 62.07,-333.09 139.66,-333.09 197.59,-344.33"/>
<polygon fill="none" stroke="black" points="201.58,-341.03 201.58,-369.14 140.04,-381.09 61.68,-381.09 0.14,-369.14 0.14,-341.03 61.68,-329.09 140.04,-329.09 201.58,-341.03"/>
<text text-anchor="middle" x="100.86" y="-351.39" font-family="Times,serif" font-size="14.00">PHAIDRA USER</text>
</g>
<!-- WEBSERVER -->
<g id="node29" class="node">
<title>WEBSERVER</title>
<polygon fill="none" stroke="green" points="433.72,-373.09 237.72,-373.09 237.72,-369.09 233.72,-369.09 233.72,-365.09 237.72,-365.09 237.72,-345.09 233.72,-345.09 233.72,-341.09 237.72,-341.09 237.72,-337.09 433.72,-337.09 433.72,-373.09"/>
<polyline fill="none" stroke="green" points="237.72,-369.09 241.72,-369.09 241.72,-365.09 237.72,-365.09 "/>
<polyline fill="none" stroke="green" points="237.72,-345.09 241.72,-345.09 241.72,-341.09 237.72,-341.09 "/>
<text text-anchor="middle" x="335.72" y="-351.39" font-family="Times,serif" font-size="14.00">phaidra&#45;ssl&#45;httpd&#45;httpd&#45;1</text>
</g>
<!-- USER&#45;&#45;WEBSERVER -->
<g id="edge38" class="edge">
<title>USER&#45;&#45;WEBSERVER</title>
<path fill="none" stroke="red" d="M201.63,-355.09C213.48,-355.09 225.56,-355.09 237.38,-355.09"/>
</g>
<!-- HS_FEDORA -->
<g id="node2" class="node">
<title>HS_FEDORA</title>
<polygon fill="none" stroke="turquoise" points="1200.22,-1524.09 1197.22,-1528.09 1176.22,-1528.09 1173.22,-1524.09 535.22,-1524.09 535.22,-1430.09 1200.22,-1430.09 1200.22,-1524.09"/>
<text text-anchor="start" x="547.72" y="-1505.89" font-family="Times,serif" font-weight="bold" font-size="14.00">host:</text>
<text text-anchor="start" x="706.72" y="-1504.89" font-family="Times,serif" font-size="14.00">$HOME/.local/share/docker/volumes/phaidra&#45;ssl&#45;httpd_fedora/_data</text>
<text text-anchor="start" x="547.72" y="-1483.89" font-family="Times,serif" font-size="14.00">fedora&#45;container:</text>
<text text-anchor="start" x="706.72" y="-1483.89" font-family="Times,serif" font-size="14.00">/usr/local/tomcat/fcrepo&#45;home</text>
<text text-anchor="start" x="547.72" y="-1462.89" font-family="Times,serif" font-size="14.00">pixelgecko&#45;container:</text>
<text text-anchor="start" x="706.72" y="-1462.89" font-family="Times,serif" font-size="14.00"> /mnt/fedora:ro</text>
<text text-anchor="start" x="547.72" y="-1441.89" font-family="Times,serif" font-size="14.00">api&#45;container:</text>
<text text-anchor="start" x="706.72" y="-1441.89" font-family="Times,serif" font-size="14.00"> /mnt/fedora:ro</text>
</g>
<!-- C_FEDORA -->
<g id="node17" class="node">
<title>C_FEDORA</title>
<g id="a_node17"><a xlink:href="https://fedora.lyrasis.org/" xlink:title="phaidra&#45;ssl&#45;httpd&#45;fedora&#45;1">
<polygon fill="none" stroke="green" points="1544.22,-382.09 1341.22,-382.09 1341.22,-378.09 1337.22,-378.09 1337.22,-374.09 1341.22,-374.09 1341.22,-354.09 1337.22,-354.09 1337.22,-350.09 1341.22,-350.09 1341.22,-346.09 1544.22,-346.09 1544.22,-382.09"/>
<polyline fill="none" stroke="green" points="1341.22,-378.09 1345.22,-378.09 1345.22,-374.09 1341.22,-374.09 "/>
<polyline fill="none" stroke="green" points="1341.22,-354.09 1345.22,-354.09 1345.22,-350.09 1341.22,-350.09 "/>
<text text-anchor="middle" x="1442.72" y="-360.39" font-family="Times,serif" font-size="14.00">phaidra&#45;ssl&#45;httpd&#45;fedora&#45;1</text>
</a>
</g>
</g>
<!-- HS_FEDORA&#45;&#45;C_FEDORA -->
<g id="edge1" class="edge">
<title>HS_FEDORA&#45;&#45;C_FEDORA</title>
<path fill="none" stroke="turquoise" d="M1200.33,-1476.64C1231.17,-1464.25 1259.22,-1446.35 1281.72,-1421.09 1319.79,-1378.35 1264.86,-434.87 1301.72,-391.09 1312.01,-378.88 1325.99,-371.1 1341.17,-366.31"/>
</g>
<!-- C_API -->
<g id="node18" class="node">
<title>C_API</title>
<g id="a_node18"><a xlink:href="https://github.com/phaidra/phaidra-api" xlink:title="phaidra&#45;ssl&#45;httpd&#45;api&#45;1">
<polygon fill="none" stroke="green" points="957.22,-326.09 778.22,-326.09 778.22,-322.09 774.22,-322.09 774.22,-318.09 778.22,-318.09 778.22,-298.09 774.22,-298.09 774.22,-294.09 778.22,-294.09 778.22,-290.09 957.22,-290.09 957.22,-326.09"/>
<polyline fill="none" stroke="green" points="778.22,-322.09 782.22,-322.09 782.22,-318.09 778.22,-318.09 "/>
<polyline fill="none" stroke="green" points="778.22,-298.09 782.22,-298.09 782.22,-294.09 778.22,-294.09 "/>
<text text-anchor="middle" x="867.72" y="-304.39" font-family="Times,serif" font-size="14.00">phaidra&#45;ssl&#45;httpd&#45;api&#45;1</text>
</a>
</g>
</g>
<!-- HS_FEDORA&#45;&#45;C_API -->
<g id="edge3" class="edge">
<title>HS_FEDORA&#45;&#45;C_API</title>
<path fill="none" stroke="turquoise" d="M535.14,-1493.09C495.12,-1478.37 461.98,-1453.08 443.72,-1412.09 433.28,-1388.64 433.28,-511.53 443.72,-488.09 499.52,-362.8 670.85,-324.6 777.87,-313.03"/>
</g>
<!-- C_PIXELGECKO -->
<g id="node25" class="node">
<title>C_PIXELGECKO</title>
<polygon fill="none" stroke="green" points="1869.22,-436.09 1636.22,-436.09 1636.22,-432.09 1632.22,-432.09 1632.22,-428.09 1636.22,-428.09 1636.22,-408.09 1632.22,-408.09 1632.22,-404.09 1636.22,-404.09 1636.22,-400.09 1869.22,-400.09 1869.22,-436.09"/>
<polyline fill="none" stroke="green" points="1636.22,-432.09 1640.22,-432.09 1640.22,-428.09 1636.22,-428.09 "/>
<polyline fill="none" stroke="green" points="1636.22,-408.09 1640.22,-408.09 1640.22,-404.09 1636.22,-404.09 "/>
<text text-anchor="middle" x="1752.72" y="-414.39" font-family="Times,serif" font-size="14.00">phaidra&#45;ssl&#45;httpd&#45;pixelgecko&#45;1</text>
</g>
<!-- HS_FEDORA&#45;&#45;C_PIXELGECKO -->
<g id="edge11" class="edge">
<title>HS_FEDORA&#45;&#45;C_PIXELGECKO</title>
<path fill="none" stroke="turquoise" d="M1200.43,-1461.6C1229.38,-1451.67 1257.01,-1438.47 1281.72,-1421.09 1311.47,-1400.16 1568.59,-873.17 1583.72,-840.09 1653.77,-686.99 1723.83,-495.74 1745.16,-436.46"/>
</g>
<!-- HS_API_LOGS -->
<g id="node3" class="node">
<title>HS_API_LOGS</title>
<polygon fill="none" stroke="turquoise" points="1179.22,-1132.09 1176.22,-1136.09 1155.22,-1136.09 1152.22,-1132.09 556.22,-1132.09 556.22,-1080.09 1179.22,-1080.09 1179.22,-1132.09"/>
<text text-anchor="start" x="568.72" y="-1113.89" font-family="Times,serif" font-weight="bold" font-size="14.00">host:</text>
<text text-anchor="start" x="673.72" y="-1112.89" font-family="Times,serif" font-size="14.00">$HOME/.local/share/docker/volumes/phaidra&#45;ssl&#45;httpd_api_logs/_data</text>
<text text-anchor="start" x="568.72" y="-1091.89" font-family="Times,serif" font-size="14.00">api&#45;container:</text>
<text text-anchor="start" x="673.72" y="-1091.89" font-family="Times,serif" font-size="14.00">/var/log/phaidra</text>
</g>
<!-- HS_API_LOGS&#45;&#45;C_API -->
<g id="edge2" class="edge">
<title>HS_API_LOGS&#45;&#45;C_API</title>
<path fill="none" stroke="turquoise" d="M556.19,-1110.27C500.12,-1103.07 455.56,-1088.67 443.72,-1062.09 430.75,-1032.96 430.75,-517.22 443.72,-488.09 499.52,-362.8 670.85,-324.6 777.87,-313.03"/>
</g>
<!-- HS_MARIADB_PHAIDRA -->
<g id="node4" class="node">
<title>HS_MARIADB_PHAIDRA</title>
<polygon fill="none" stroke="turquoise" points="1259.22,-1202.09 1256.22,-1206.09 1235.22,-1206.09 1232.22,-1202.09 476.22,-1202.09 476.22,-1150.09 1259.22,-1150.09 1259.22,-1202.09"/>
<text text-anchor="start" x="488.72" y="-1183.89" font-family="Times,serif" font-weight="bold" font-size="14.00">host:</text>
<text text-anchor="start" x="690.72" y="-1182.89" font-family="Times,serif" font-size="14.00">$HOME/.local/share/docker/volumes/phaidra&#45;ssl&#45;httpd_mariadb_phaidra/_data</text>
<text text-anchor="start" x="488.72" y="-1161.89" font-family="Times,serif" font-size="14.00">mariadb&#45;phaidra&#45;container:</text>
<text text-anchor="start" x="690.72" y="-1161.89" font-family="Times,serif" font-size="14.00">/var/lib/mysql</text>
</g>
<!-- C_MARIADB_PHAIDRA -->
<g id="node19" class="node">
<title>C_MARIADB_PHAIDRA</title>
<g id="a_node19"><a xlink:href="https://mariadb.org/" xlink:title="phaidra&#45;ssl&#45;httpd&#45;mariadb&#45;phaidra&#45;1">
<polygon fill="none" stroke="green" points="1580.22,-220.09 1305.22,-220.09 1305.22,-216.09 1301.22,-216.09 1301.22,-212.09 1305.22,-212.09 1305.22,-192.09 1301.22,-192.09 1301.22,-188.09 1305.22,-188.09 1305.22,-184.09 1580.22,-184.09 1580.22,-220.09"/>
<polyline fill="none" stroke="green" points="1305.22,-216.09 1309.22,-216.09 1309.22,-212.09 1305.22,-212.09 "/>
<polyline fill="none" stroke="green" points="1305.22,-192.09 1309.22,-192.09 1309.22,-188.09 1305.22,-188.09 "/>
<text text-anchor="middle" x="1442.72" y="-198.39" font-family="Times,serif" font-size="14.00">phaidra&#45;ssl&#45;httpd&#45;mariadb&#45;phaidra&#45;1</text>
</a>
</g>
</g>
<!-- HS_MARIADB_PHAIDRA&#45;&#45;C_MARIADB_PHAIDRA -->
<g id="edge5" class="edge">
<title>HS_MARIADB_PHAIDRA&#45;&#45;C_MARIADB_PHAIDRA</title>
<path fill="none" stroke="turquoise" d="M1259.51,-1156.28C1268.77,-1151.89 1276.3,-1146.86 1281.72,-1141.09 1316.42,-1104.15 1269.03,-267.81 1301.72,-229.09 1304.52,-225.78 1307.58,-222.79 1310.87,-220.11"/>
</g>
<!-- HS_MONGODB_PHAIDRA -->
<g id="node5" class="node">
<title>HS_MONGODB_PHAIDRA</title>
<polygon fill="none" stroke="turquoise" points="1265.72,-1062.09 1262.72,-1066.09 1241.72,-1066.09 1238.72,-1062.09 469.72,-1062.09 469.72,-1010.09 1265.72,-1010.09 1265.72,-1062.09"/>
<text text-anchor="start" x="481.72" y="-1043.89" font-family="Times,serif" font-weight="bold" font-size="14.00">host:</text>
<text text-anchor="start" x="689.72" y="-1042.89" font-family="Times,serif" font-size="14.00">$HOME/.local/share/docker/volumes/phaidra&#45;ssl&#45;httpd_mongodb_phaidra/_data</text>
<text text-anchor="start" x="481.72" y="-1021.89" font-family="Times,serif" font-size="14.00">phaidra&#45;mongodb&#45;container:</text>
<text text-anchor="start" x="689.72" y="-1021.89" font-family="Times,serif" font-size="14.00">/data/db</text>
</g>
<!-- C_MONGODB_PHAIDRA -->
<g id="node20" class="node">
<title>C_MONGODB_PHAIDRA</title>
<g id="a_node20"><a xlink:href="https://www.mongodb.com/" xlink:title="phaidra&#45;ssl&#45;httpd&#45;mongodb&#45;phaidra&#45;1">
<polygon fill="none" stroke="green" points="1583.72,-166.09 1301.72,-166.09 1301.72,-162.09 1297.72,-162.09 1297.72,-158.09 1301.72,-158.09 1301.72,-138.09 1297.72,-138.09 1297.72,-134.09 1301.72,-134.09 1301.72,-130.09 1583.72,-130.09 1583.72,-166.09"/>
<polyline fill="none" stroke="green" points="1301.72,-162.09 1305.72,-162.09 1305.72,-158.09 1301.72,-158.09 "/>
<polyline fill="none" stroke="green" points="1301.72,-138.09 1305.72,-138.09 1305.72,-134.09 1301.72,-134.09 "/>
<text text-anchor="middle" x="1442.72" y="-144.39" font-family="Times,serif" font-size="14.00">phaidra&#45;ssl&#45;httpd&#45;mongodb&#45;phaidra&#45;1</text>
</a>
</g>
</g>
<!-- HS_MONGODB_PHAIDRA&#45;&#45;C_MONGODB_PHAIDRA -->
<g id="edge6" class="edge">
<title>HS_MONGODB_PHAIDRA&#45;&#45;C_MONGODB_PHAIDRA</title>
<path fill="none" stroke="turquoise" d="M1265.83,-1013.02C1272.23,-1009.44 1277.59,-1005.48 1281.72,-1001.09 1313.19,-967.67 1272.07,-210.13 1301.72,-175.09 1304.52,-171.78 1307.59,-168.8 1310.88,-166.12"/>
</g>
<!-- HS_OPENLDAP -->
<g id="node6" class="node">
<title>HS_OPENLDAP</title>
<polygon fill="none" stroke="turquoise" points="1204.72,-1342.09 1201.72,-1346.09 1180.72,-1346.09 1177.72,-1342.09 530.72,-1342.09 530.72,-1290.09 1204.72,-1290.09 1204.72,-1342.09"/>
<text text-anchor="start" x="542.72" y="-1323.89" font-family="Times,serif" font-weight="bold" font-size="14.00">host:</text>
<text text-anchor="start" x="690.72" y="-1322.89" font-family="Times,serif" font-size="14.00">$HOME/.local/share/docker/volumes/phaidra&#45;ssl&#45;httpd_openldap/_data</text>
<text text-anchor="start" x="542.72" y="-1301.89" font-family="Times,serif" font-size="14.00">openldap&#45;container:</text>
<text text-anchor="start" x="690.72" y="-1301.89" font-family="Times,serif" font-size="14.00">/bitnami/openldap</text>
</g>
<!-- C_OPENLDAP -->
<g id="node22" class="node">
<title>C_OPENLDAP</title>
<g id="a_node22"><a xlink:href="https://www.openldap.org/" xlink:title="phaidra&#45;ssl&#45;httpd&#45;openldap&#45;1">
<polygon fill="none" stroke="green" points="1553.72,-328.09 1331.72,-328.09 1331.72,-324.09 1327.72,-324.09 1327.72,-320.09 1331.72,-320.09 1331.72,-300.09 1327.72,-300.09 1327.72,-296.09 1331.72,-296.09 1331.72,-292.09 1553.72,-292.09 1553.72,-328.09"/>
<polyline fill="none" stroke="green" points="1331.72,-324.09 1335.72,-324.09 1335.72,-320.09 1331.72,-320.09 "/>
<polyline fill="none" stroke="green" points="1331.72,-300.09 1335.72,-300.09 1335.72,-296.09 1331.72,-296.09 "/>
<text text-anchor="middle" x="1442.72" y="-306.39" font-family="Times,serif" font-size="14.00">phaidra&#45;ssl&#45;httpd&#45;openldap&#45;1</text>
</a>
</g>
</g>
<!-- HS_OPENLDAP&#45;&#45;C_OPENLDAP -->
<g id="edge7" class="edge">
<title>HS_OPENLDAP&#45;&#45;C_OPENLDAP</title>
<path fill="none" stroke="turquoise" d="M1204.9,-1312.46C1239.92,-1305.9 1267.81,-1295.91 1281.72,-1281.09 1317.62,-1242.84 1267.9,-377.18 1301.72,-337.09 1309.78,-327.53 1320.11,-320.7 1331.5,-315.88"/>
</g>
<!-- HS_SOLR -->
<g id="node7" class="node">
<title>HS_SOLR</title>
<polygon fill="none" stroke="turquoise" points="1166.22,-1272.09 1163.22,-1276.09 1142.22,-1276.09 1139.22,-1272.09 569.22,-1272.09 569.22,-1220.09 1166.22,-1220.09 1166.22,-1272.09"/>
<text text-anchor="start" x="581.72" y="-1253.89" font-family="Times,serif" font-weight="bold" font-size="14.00">host:</text>
<text text-anchor="start" x="691.72" y="-1252.89" font-family="Times,serif" font-size="14.00">$HOME/.local/share/docker/volumes/phaidra&#45;ssl&#45;httpd_solr/_data</text>
<text text-anchor="start" x="581.72" y="-1231.89" font-family="Times,serif" font-size="14.00">solr&#45;container:</text>
<text text-anchor="start" x="691.72" y="-1231.89" font-family="Times,serif" font-size="14.00">/var/solr</text>
</g>
<!-- C_SOLR -->
<g id="node23" class="node">
<title>C_SOLR</title>
<g id="a_node23"><a xlink:href="https://solr.apache.org/" xlink:title="phaidra&#45;ssl&#45;httpd&#45;solr&#45;1">
<polygon fill="none" stroke="green" points="1534.72,-274.09 1350.72,-274.09 1350.72,-270.09 1346.72,-270.09 1346.72,-266.09 1350.72,-266.09 1350.72,-246.09 1346.72,-246.09 1346.72,-242.09 1350.72,-242.09 1350.72,-238.09 1534.72,-238.09 1534.72,-274.09"/>
<polyline fill="none" stroke="green" points="1350.72,-270.09 1354.72,-270.09 1354.72,-266.09 1350.72,-266.09 "/>
<polyline fill="none" stroke="green" points="1350.72,-246.09 1354.72,-246.09 1354.72,-242.09 1350.72,-242.09 "/>
<text text-anchor="middle" x="1442.72" y="-252.39" font-family="Times,serif" font-size="14.00">phaidra&#45;ssl&#45;httpd&#45;solr&#45;1</text>
</a>
</g>
</g>
<!-- HS_SOLR&#45;&#45;C_SOLR -->
<g id="edge9" class="edge">
<title>HS_SOLR&#45;&#45;C_SOLR</title>
<path fill="none" stroke="turquoise" d="M1166.38,-1248.08C1219,-1242.21 1263.01,-1231.02 1281.72,-1211.09 1317.02,-1173.49 1268.47,-322.5 1301.72,-283.09 1314.09,-268.43 1331.81,-260.17 1350.49,-255.78"/>
</g>
<!-- HS_PIXELGECKO -->
<g id="node8" class="node">
<title>HS_PIXELGECKO</title>
<polygon fill="none" stroke="turquoise" points="1221.72,-1615.59 1218.72,-1619.59 1197.72,-1619.59 1194.72,-1615.59 513.72,-1615.59 513.72,-1542.59 1221.72,-1542.59 1221.72,-1615.59"/>
<text text-anchor="start" x="525.72" y="-1596.89" font-family="Times,serif" font-weight="bold" font-size="14.00">host:</text>
<text text-anchor="start" x="697.72" y="-1595.89" font-family="Times,serif" font-size="14.00">$HOME/.local/share/docker/volumes/phaidra&#45;ssl&#45;httpd_pixelgecko/_data</text>
<text text-anchor="start" x="525.72" y="-1574.89" font-family="Times,serif" font-size="14.00">pixelgecko&#45;container:</text>
<text text-anchor="start" x="697.72" y="-1574.89" font-family="Times,serif" font-size="14.00">/mnt/converted_images</text>
<text text-anchor="start" x="525.72" y="-1553.89" font-family="Times,serif" font-size="14.00">imageserver&#45;container:</text>
<text text-anchor="start" x="697.72" y="-1553.89" font-family="Times,serif" font-size="14.00">/mnt/converted_images:ro</text>
</g>
<!-- C_IMAGESERVER -->
<g id="node24" class="node">
<title>C_IMAGESERVER</title>
<g id="a_node24"><a xlink:href="https://github.com/ruven/iipsrv" xlink:title="phaidra&#45;ssl&#45;httpd&#45;imageserver&#45;1">
<polygon fill="none" stroke="green" points="1565.72,-436.09 1319.72,-436.09 1319.72,-432.09 1315.72,-432.09 1315.72,-428.09 1319.72,-428.09 1319.72,-408.09 1315.72,-408.09 1315.72,-404.09 1319.72,-404.09 1319.72,-400.09 1565.72,-400.09 1565.72,-436.09"/>
<polyline fill="none" stroke="green" points="1319.72,-432.09 1323.72,-432.09 1323.72,-428.09 1319.72,-428.09 "/>
<polyline fill="none" stroke="green" points="1319.72,-408.09 1323.72,-408.09 1323.72,-404.09 1319.72,-404.09 "/>
<text text-anchor="middle" x="1442.72" y="-414.39" font-family="Times,serif" font-size="14.00">phaidra&#45;ssl&#45;httpd&#45;imageserver&#45;1</text>
</a>
</g>
</g>
<!-- HS_PIXELGECKO&#45;&#45;C_IMAGESERVER -->
<g id="edge10" class="edge">
<title>HS_PIXELGECKO&#45;&#45;C_IMAGESERVER</title>
<path fill="none" stroke="turquoise" d="M1222.06,-1573.81C1243.88,-1563.5 1264.11,-1550.16 1281.72,-1533.09 1283.02,-1531.83 1418.47,-581.29 1439.1,-436.49"/>
</g>
<!-- HS_PIXELGECKO&#45;&#45;C_PIXELGECKO -->
<g id="edge12" class="edge">
<title>HS_PIXELGECKO&#45;&#45;C_PIXELGECKO</title>
<path fill="none" stroke="turquoise" d="M1221.78,-1560.46C1242.69,-1553.09 1262.86,-1544.06 1281.72,-1533.09 1706.17,-1286.17 1747.35,-560.56 1751.31,-436.3"/>
</g>
<!-- HS_DBGATE -->
<g id="node9" class="node">
<title>HS_DBGATE</title>
<polygon fill="none" stroke="turquoise" points="1189.22,-992.09 1186.22,-996.09 1165.22,-996.09 1162.22,-992.09 546.22,-992.09 546.22,-940.09 1189.22,-940.09 1189.22,-992.09"/>
<text text-anchor="start" x="558.72" y="-973.89" font-family="Times,serif" font-weight="bold" font-size="14.00">host:</text>
<text text-anchor="start" x="691.72" y="-972.89" font-family="Times,serif" font-size="14.00">$HOME/.local/share/docker/volumes/phaidra&#45;ssl&#45;httpd_dbgate/_data</text>
<text text-anchor="start" x="558.72" y="-951.89" font-family="Times,serif" font-size="14.00">dbgate&#45;container:</text>
<text text-anchor="start" x="691.72" y="-951.89" font-family="Times,serif" font-size="14.00">/root/.dbgate</text>
</g>
<!-- C_DBGATE -->
<g id="node26" class="node">
<title>C_DBGATE</title>
<polygon fill="none" stroke="green" points="970.72,-220.09 764.72,-220.09 764.72,-216.09 760.72,-216.09 760.72,-212.09 764.72,-212.09 764.72,-192.09 760.72,-192.09 760.72,-188.09 764.72,-188.09 764.72,-184.09 970.72,-184.09 970.72,-220.09"/>
<polyline fill="none" stroke="green" points="764.72,-216.09 768.72,-216.09 768.72,-212.09 764.72,-212.09 "/>
<polyline fill="none" stroke="green" points="764.72,-192.09 768.72,-192.09 768.72,-188.09 764.72,-188.09 "/>
<text text-anchor="middle" x="867.72" y="-198.39" font-family="Times,serif" font-size="14.00">phaidra&#45;ssl&#45;httpd&#45;dbgate&#45;1</text>
</g>
<!-- HS_DBGATE&#45;&#45;C_DBGATE -->
<g id="edge13" class="edge">
<title>HS_DBGATE&#45;&#45;C_DBGATE</title>
<path fill="none" stroke="turquoise" d="M546.17,-966.52C494.87,-958.56 454.85,-944.08 443.72,-919.09 436.61,-903.13 436.61,-306.05 443.72,-290.09 494.27,-176.6 656.23,-172.96 764.71,-184.64"/>
</g>
<!-- HS_MARIADB_FEDORA -->
<g id="node10" class="node">
<title>HS_MARIADB_FEDORA</title>
<polygon fill="none" stroke="turquoise" points="1250.22,-1412.09 1247.22,-1416.09 1226.22,-1416.09 1223.22,-1412.09 485.22,-1412.09 485.22,-1360.09 1250.22,-1360.09 1250.22,-1412.09"/>
<text text-anchor="start" x="497.72" y="-1393.89" font-family="Times,serif" font-weight="bold" font-size="14.00">host:</text>
<text text-anchor="start" x="690.72" y="-1392.89" font-family="Times,serif" font-size="14.00">$HOME/.local/share/docker/volumes/phaidra&#45;ssl&#45;httpd_mariadb_fedora/_data</text>
<text text-anchor="start" x="497.72" y="-1371.89" font-family="Times,serif" font-size="14.00">mariadb&#45;fedora&#45;container:</text>
<text text-anchor="start" x="690.72" y="-1371.89" font-family="Times,serif" font-size="14.00">/var/lib/mysql</text>
</g>
<!-- C_MARIADB_FEDORA -->
<g id="node28" class="node">
<title>C_MARIADB_FEDORA</title>
<g id="a_node28"><a xlink:href="https://mariadb.org/" xlink:title="phaidra&#45;ssl&#45;httpd&#45;mariadb&#45;fedora&#45;1">
<polygon fill="none" stroke="green" points="1885.72,-382.09 1619.72,-382.09 1619.72,-378.09 1615.72,-378.09 1615.72,-374.09 1619.72,-374.09 1619.72,-354.09 1615.72,-354.09 1615.72,-350.09 1619.72,-350.09 1619.72,-346.09 1885.72,-346.09 1885.72,-382.09"/>
<polyline fill="none" stroke="green" points="1619.72,-378.09 1623.72,-378.09 1623.72,-374.09 1619.72,-374.09 "/>
<polyline fill="none" stroke="green" points="1619.72,-354.09 1623.72,-354.09 1623.72,-350.09 1619.72,-350.09 "/>
<text text-anchor="middle" x="1752.72" y="-360.39" font-family="Times,serif" font-size="14.00">phaidra&#45;ssl&#45;httpd&#45;mariadb&#45;fedora&#45;1</text>
</a>
</g>
</g>
<!-- HS_MARIADB_FEDORA&#45;&#45;C_MARIADB_FEDORA -->
<g id="edge14" class="edge">
<title>HS_MARIADB_FEDORA&#45;&#45;C_MARIADB_FEDORA</title>
<path fill="none" stroke="turquoise" d="M987.9,-1412.11C1080.29,-1424.72 1205.09,-1424 1281.72,-1351.09 1305.77,-1328.21 1293.39,-1235.21 1301.72,-1203.09 1313.89,-1156.19 1582.66,-422.29 1619.72,-391.09 1623.66,-387.77 1627.89,-384.83 1632.35,-382.22"/>
</g>
<!-- BIND_MARIADB_PHAIDRA_INIT -->
<g id="node11" class="node">
<title>BIND_MARIADB_PHAIDRA_INIT</title>
<polygon fill="none" stroke="blue" points="1182.72,-823.09 1179.72,-827.09 1158.72,-827.09 1155.72,-823.09 552.72,-823.09 552.72,-771.09 1182.72,-771.09 1182.72,-823.09"/>
<text text-anchor="start" x="564.72" y="-804.89" font-family="Times,serif" font-weight="bold" font-size="14.00">host:</text>
<text text-anchor="start" x="766.72" y="-803.89" font-family="Times,serif" font-size="14.00">$REPO/container_components/mariadb/phaidradb.sql.gz</text>
<text text-anchor="start" x="564.72" y="-782.89" font-family="Times,serif" font-size="14.00">mariadb&#45;phaidra&#45;container:</text>
<text text-anchor="start" x="766.72" y="-782.89" font-family="Times,serif" font-size="14.00">/docker&#45;entrypoint&#45;initdb.d/phaidradb.sql.gz:ro</text>
</g>
<!-- BIND_MARIADB_PHAIDRA_INIT&#45;&#45;C_MARIADB_PHAIDRA -->
<g id="edge4" class="edge">
<title>BIND_MARIADB_PHAIDRA_INIT&#45;&#45;C_MARIADB_PHAIDRA</title>
<path fill="none" stroke="blue" d="M977.2,-823.11C1071.74,-838.66 1205.35,-842.14 1281.72,-762.09 1322.63,-719.21 1263.14,-274.07 1301.72,-229.09 1304.54,-225.8 1307.63,-222.84 1310.94,-220.16"/>
</g>
<!-- BIND_OPENLDAP_INIT -->
<g id="node12" class="node">
<title>BIND_OPENLDAP_INIT</title>
<polygon fill="none" stroke="blue" points="1096.72,-893.09 1093.72,-897.09 1072.72,-897.09 1069.72,-893.09 638.72,-893.09 638.72,-841.09 1096.72,-841.09 1096.72,-893.09"/>
<text text-anchor="start" x="650.72" y="-874.89" font-family="Times,serif" font-weight="bold" font-size="14.00">host:</text>
<text text-anchor="start" x="798.72" y="-873.89" font-family="Times,serif" font-size="14.00">$REPO/container_components/openldap</text>
<text text-anchor="start" x="650.72" y="-852.89" font-family="Times,serif" font-size="14.00">openldap&#45;container:</text>
<text text-anchor="start" x="798.72" y="-852.89" font-family="Times,serif" font-size="14.00">/ldifs:ro</text>
</g>
<!-- BIND_OPENLDAP_INIT&#45;&#45;C_OPENLDAP -->
<g id="edge8" class="edge">
<title>BIND_OPENLDAP_INIT&#45;&#45;C_OPENLDAP</title>
<path fill="none" stroke="blue" d="M977.61,-893.13C1072.09,-908.58 1205.36,-911.9 1281.72,-832.09 1319.78,-792.32 1265.83,-378.82 1301.72,-337.09 1309.87,-327.61 1320.26,-320.82 1331.67,-316.03"/>
</g>
<!-- BIND_HTTPD_SITE_CONFIG -->
<g id="node13" class="node">
<title>BIND_HTTPD_SITE_CONFIG</title>
<polygon fill="none" stroke="blue" points="1146.22,-753.09 1143.22,-757.09 1122.22,-757.09 1119.22,-753.09 589.22,-753.09 589.22,-701.09 1146.22,-701.09 1146.22,-753.09"/>
<text text-anchor="start" x="601.72" y="-734.89" font-family="Times,serif" font-weight="bold" font-size="14.00">host:</text>
<text text-anchor="start" x="723.72" y="-733.89" font-family="Times,serif" font-size="14.00">$REPO/webserver_configs/httpd&#45;docker/ssl/httpd&#45;ssl.conf</text>
<text text-anchor="start" x="601.72" y="-712.89" font-family="Times,serif" font-size="14.00">httpd&#45;container:</text>
<text text-anchor="start" x="723.72" y="-712.89" font-family="Times,serif" font-size="14.00">/usr/local/apache2/conf/extra/httpd&#45;ssl.conf:ro</text>
</g>
<!-- BIND_HTTPD_SERVER_CONFIG -->
<g id="node14" class="node">
<title>BIND_HTTPD_SERVER_CONFIG</title>
<polygon fill="none" stroke="blue" points="1134.22,-683.09 1131.22,-687.09 1110.22,-687.09 1107.22,-683.09 601.22,-683.09 601.22,-631.09 1134.22,-631.09 1134.22,-683.09"/>
<text text-anchor="start" x="613.72" y="-664.89" font-family="Times,serif" font-weight="bold" font-size="14.00">host:</text>
<text text-anchor="start" x="735.72" y="-663.89" font-family="Times,serif" font-size="14.00">$REPO/webserver_configs/httpd&#45;docker/ssl/httpd.conf</text>
<text text-anchor="start" x="613.72" y="-642.89" font-family="Times,serif" font-size="14.00">httpd&#45;container:</text>
<text text-anchor="start" x="735.72" y="-642.89" font-family="Times,serif" font-size="14.00">/usr/local/apache2/conf/extra/httpd.conf:ro</text>
</g>
<!-- BIND_HTTPD_CERT -->
<g id="node15" class="node">
<title>BIND_HTTPD_CERT</title>
<polygon fill="none" stroke="blue" points="1069.22,-613.09 1066.22,-617.09 1045.22,-617.09 1042.22,-613.09 666.22,-613.09 666.22,-561.09 1069.22,-561.09 1069.22,-613.09"/>
<text text-anchor="start" x="678.72" y="-594.89" font-family="Times,serif" font-weight="bold" font-size="14.00">host:</text>
<text text-anchor="start" x="800.72" y="-593.89" font-family="Times,serif" font-size="14.00">$REPO/certs/fullchain.pem</text>
<text text-anchor="start" x="678.72" y="-572.89" font-family="Times,serif" font-size="14.00">httpd&#45;container:</text>
<text text-anchor="start" x="800.72" y="-572.89" font-family="Times,serif" font-size="14.00">/usr/local/apache2/conf/server.crt:ro</text>
</g>
<!-- BIND_HTTPD_KEY -->
<g id="node16" class="node">
<title>BIND_HTTPD_KEY</title>
<polygon fill="none" stroke="blue" points="1071.72,-543.09 1068.72,-547.09 1047.72,-547.09 1044.72,-543.09 663.72,-543.09 663.72,-491.09 1071.72,-491.09 1071.72,-543.09"/>
<text text-anchor="start" x="675.72" y="-524.89" font-family="Times,serif" font-weight="bold" font-size="14.00">host:</text>
<text text-anchor="start" x="797.72" y="-523.89" font-family="Times,serif" font-size="14.00">$REPO/certs/privkey.pem</text>
<text text-anchor="start" x="675.72" y="-502.89" font-family="Times,serif" font-size="14.00">httpd&#45;container:</text>
<text text-anchor="start" x="797.72" y="-502.89" font-family="Times,serif" font-size="14.00">/usr/local/apache2/conf/server.key:ro</text>
</g>
<!-- C_FEDORA&#45;&#45;C_MARIADB_FEDORA -->
<g id="edge19" class="edge">
<title>C_FEDORA&#45;&#45;C_MARIADB_FEDORA</title>
<path fill="none" stroke="orange" d="M1544.57,-364.09C1568.52,-364.09 1594.42,-364.09 1619.53,-364.09"/>
</g>
<!-- C_API&#45;&#45;C_FEDORA -->
<g id="edge20" class="edge">
<title>C_API&#45;&#45;C_FEDORA</title>
<path fill="none" stroke="orange" d="M957.31,-316.75C1060.98,-326.88 1232.24,-343.62 1340.91,-354.24"/>
</g>
<!-- C_API&#45;&#45;C_MARIADB_PHAIDRA -->
<g id="edge21" class="edge">
<title>C_API&#45;&#45;C_MARIADB_PHAIDRA</title>
<path fill="none" stroke="orange" d="M957.31,-291.7C1062.08,-272.32 1235.89,-240.17 1344.34,-220.1"/>
</g>
<!-- C_API&#45;&#45;C_MONGODB_PHAIDRA -->
<g id="edge22" class="edge">
<title>C_API&#45;&#45;C_MONGODB_PHAIDRA</title>
<path fill="none" stroke="orange" d="M957.52,-314.85C1049.18,-316.91 1191.19,-305.74 1281.72,-229.09 1301.25,-212.55 1282.2,-191.64 1301.72,-175.09 1305.59,-171.81 1309.74,-168.88 1314.1,-166.26"/>
</g>
<!-- C_UI -->
<g id="node21" class="node">
<title>C_UI</title>
<g id="a_node21"><a xlink:href="https://github.com/phaidra/phaidra-ui" xlink:title="phaidra&#45;ssl&#45;httpd&#45;ui&#45;1">
<polygon fill="none" stroke="green" points="1527.72,-112.09 1357.72,-112.09 1357.72,-108.09 1353.72,-108.09 1353.72,-104.09 1357.72,-104.09 1357.72,-84.09 1353.72,-84.09 1353.72,-80.09 1357.72,-80.09 1357.72,-76.09 1527.72,-76.09 1527.72,-112.09"/>
<polyline fill="none" stroke="green" points="1357.72,-108.09 1361.72,-108.09 1361.72,-104.09 1357.72,-104.09 "/>
<polyline fill="none" stroke="green" points="1357.72,-84.09 1361.72,-84.09 1361.72,-80.09 1357.72,-80.09 "/>
<text text-anchor="middle" x="1442.72" y="-90.39" font-family="Times,serif" font-size="14.00">phaidra&#45;ssl&#45;httpd&#45;ui&#45;1</text>
</a>
</g>
</g>
<!-- C_API&#45;&#45;C_UI -->
<g id="edge23" class="edge">
<title>C_API&#45;&#45;C_UI</title>
<path fill="none" stroke="orange" d="M957.27,-317.69C1051.11,-322.56 1197.19,-314.12 1281.72,-229.09 1316.14,-194.47 1267.33,-155.73 1301.72,-121.09 1316.54,-106.16 1336.96,-98.16 1357.62,-94.15"/>
</g>
<!-- C_API&#45;&#45;C_OPENLDAP -->
<g id="edge24" class="edge">
<title>C_API&#45;&#45;C_OPENLDAP</title>
<path fill="none" stroke="orange" d="M957.31,-308.4C1058.07,-308.75 1222.7,-309.32 1331.62,-309.7"/>
</g>
<!-- C_API&#45;&#45;C_SOLR -->
<g id="edge25" class="edge">
<title>C_API&#45;&#45;C_SOLR</title>
<path fill="none" stroke="orange" d="M957.31,-300.05C1064.12,-290.36 1242.69,-274.15 1350.61,-264.36"/>
</g>
<!-- C_API&#45;&#45;C_IMAGESERVER -->
<g id="edge26" class="edge">
<title>C_API&#45;&#45;C_IMAGESERVER</title>
<path fill="none" stroke="orange" d="M957.31,-325.09C1063.18,-345.42 1239.54,-379.28 1347.74,-400.05"/>
</g>
<!-- C_MONGODB_PHAIDRA&#45;&#45;C_PIXELGECKO -->
<g id="edge27" class="edge">
<title>C_MONGODB_PHAIDRA&#45;&#45;C_PIXELGECKO</title>
<path fill="none" stroke="orange" d="M1573.38,-166.22C1577.06,-168.86 1580.53,-171.81 1583.72,-175.09 1651.66,-244.77 1552.17,-321.02 1619.72,-391.09 1624.59,-396.14 1630.13,-400.38 1636.12,-403.93"/>
</g>
<!-- C_LAM -->
<g id="node27" class="node">
<title>C_LAM</title>
<polygon fill="none" stroke="green" points="1844.22,-200.09 1661.22,-200.09 1661.22,-196.09 1657.22,-196.09 1657.22,-192.09 1661.22,-192.09 1661.22,-172.09 1657.22,-172.09 1657.22,-168.09 1661.22,-168.09 1661.22,-164.09 1844.22,-164.09 1844.22,-200.09"/>
<polyline fill="none" stroke="green" points="1661.22,-196.09 1665.22,-196.09 1665.22,-192.09 1661.22,-192.09 "/>
<polyline fill="none" stroke="green" points="1661.22,-172.09 1665.22,-172.09 1665.22,-168.09 1661.22,-168.09 "/>
<text text-anchor="middle" x="1752.72" y="-178.39" font-family="Times,serif" font-size="14.00">phaidra&#45;ssl&#45;httpd&#45;lam&#45;1</text>
</g>
<!-- C_OPENLDAP&#45;&#45;C_LAM -->
<g id="edge28" class="edge">
<title>C_OPENLDAP&#45;&#45;C_LAM</title>
<path fill="none" stroke="orange" d="M1554.05,-292.63C1564.21,-289.88 1574.24,-286.72 1583.72,-283.09 1638.86,-261.96 1696.43,-223.08 1727.8,-200.21"/>
</g>
<!-- C_DBGATE&#45;&#45;C_MARIADB_PHAIDRA -->
<g id="edge29" class="edge">
<title>C_DBGATE&#45;&#45;C_MARIADB_PHAIDRA</title>
<path fill="none" stroke="orange" d="M970.83,-202.09C1063.98,-202.09 1202.34,-202.09 1305,-202.09"/>
</g>
<!-- C_DBGATE&#45;&#45;C_MONGODB_PHAIDRA -->
<g id="edge30" class="edge">
<title>C_DBGATE&#45;&#45;C_MONGODB_PHAIDRA</title>
<path fill="none" stroke="orange" d="M970.83,-192.47C1062.93,-183.79 1199.24,-170.94 1301.53,-161.3"/>
</g>
<!-- C_DBGATE&#45;&#45;C_MARIADB_FEDORA -->
<g id="edge31" class="edge">
<title>C_DBGATE&#45;&#45;C_MARIADB_FEDORA</title>
<path fill="none" stroke="orange" d="M915.96,-184.02C1058.05,-131.06 1478.17,15.05 1583.72,-67.09 1635.11,-107.07 1589.84,-151.24 1619.72,-209.09 1648.76,-265.3 1701.73,-318.68 1730.96,-345.71"/>
</g>
<!-- WEBSERVER&#45;&#45;BIND_HTTPD_SITE_CONFIG -->
<g id="edge15" class="edge">
<title>WEBSERVER&#45;&#45;BIND_HTTPD_SITE_CONFIG</title>
<path fill="none" stroke="blue" d="M336.69,-373.16C337.68,-430.76 349.31,-610.96 453.72,-692.09 492.57,-722.28 540.13,-738.84 588.98,-746.89"/>
</g>
<!-- WEBSERVER&#45;&#45;BIND_HTTPD_SERVER_CONFIG -->
<g id="edge16" class="edge">
<title>WEBSERVER&#45;&#45;BIND_HTTPD_SERVER_CONFIG</title>
<path fill="none" stroke="blue" d="M338.49,-373.27C344.38,-422.85 368.12,-560.82 453.72,-622.09 496.51,-652.71 548.55,-668.7 601.07,-675.91"/>
</g>
<!-- WEBSERVER&#45;&#45;BIND_HTTPD_CERT -->
<g id="edge17" class="edge">
<title>WEBSERVER&#45;&#45;BIND_HTTPD_CERT</title>
<path fill="none" stroke="blue" d="M341.39,-373.18C352.82,-413.37 386.3,-509.85 453.72,-552.09 516.07,-591.15 594.5,-604.6 666.22,-606.65"/>
</g>
<!-- WEBSERVER&#45;&#45;BIND_HTTPD_KEY -->
<g id="edge18" class="edge">
<title>WEBSERVER&#45;&#45;BIND_HTTPD_KEY</title>
<path fill="none" stroke="blue" d="M348.94,-373.37C367.87,-400.01 407.01,-448.75 453.72,-471.09 518.08,-501.86 594.33,-515.72 663.69,-521.15"/>
</g>
<!-- WEBSERVER&#45;&#45;C_FEDORA -->
<g id="edge32" class="edge">
<title>WEBSERVER&#45;&#45;C_FEDORA</title>
<path fill="none" stroke="magenta" d="M433.81,-355.88C641.97,-357.57 1129.4,-361.54 1340.87,-363.27"/>
</g>
<!-- WEBSERVER&#45;&#45;C_API -->
<g id="edge33" class="edge">
<title>WEBSERVER&#45;&#45;C_API</title>
<path fill="none" stroke="magenta" d="M434.04,-342.24C440.7,-341.47 447.31,-340.75 453.72,-340.09 565.32,-328.62 694.27,-319.24 777.99,-313.67"/>
</g>
<!-- WEBSERVER&#45;&#45;C_UI -->
<g id="edge34" class="edge">
<title>WEBSERVER&#45;&#45;C_UI</title>
<path fill="none" stroke="magenta" d="M342.45,-336.81C355.38,-299.03 390.67,-212.72 453.72,-175.09 746.33,-0.44 1177.34,-47.5 1357.62,-77.78"/>
</g>
<!-- WEBSERVER&#45;&#45;C_SOLR -->
<g id="edge35" class="edge">
<title>WEBSERVER&#45;&#45;C_SOLR</title>
<path fill="none" stroke="magenta" d="M433.76,-352.56C440.52,-352.4 447.22,-352.24 453.72,-352.09 476.72,-351.56 1262.89,-348.31 1281.72,-335.09 1301.99,-320.86 1282.74,-298.98 1301.72,-283.09 1315.58,-271.49 1332.91,-264.31 1350.62,-259.97"/>
</g>
<!-- WEBSERVER&#45;&#45;C_DBGATE -->
<g id="edge36" class="edge">
<title>WEBSERVER&#45;&#45;C_DBGATE</title>
<path fill="none" stroke="magenta" d="M359.51,-337C382.12,-319.97 418.41,-295.05 453.72,-281.09 555.22,-240.96 679.02,-220.76 764.46,-210.9"/>
</g>
<!-- WEBSERVER&#45;&#45;C_LAM -->
<g id="edge37" class="edge">
<title>WEBSERVER&#45;&#45;C_LAM</title>
<path fill="none" stroke="magenta" d="M337.02,-336.93C339.05,-281.59 353.53,-114.62 453.72,-45.09 556.87,26.5 1465.67,0.65 1583.72,-42.09 1651.55,-66.65 1711.24,-131.87 1737.51,-163.87"/>
</g>
</g>
</svg>
