<?xml version="1.0" encoding="UTF-8" standalone="no"?>
<!DOCTYPE svg PUBLIC "-//W3C//DTD SVG 1.1//EN"
 "http://www.w3.org/Graphics/SVG/1.1/DTD/svg11.dtd">
<!-- Generated by graphviz version 2.43.0 (0)
 -->
<!-- Title: G Pages: 1 -->
<svg width="2013pt" height="1592pt"
 viewBox="0.00 0.00 2012.72 1591.77" xmlns="http://www.w3.org/2000/svg" xmlns:xlink="http://www.w3.org/1999/xlink">
<g id="graph0" class="graph" transform="scale(1 1) rotate(0) translate(4 1587.77)">
<title>G</title>
<polygon fill="white" stroke="transparent" points="-4,4 -4,-1587.77 2008.72,-1587.77 2008.72,4 -4,4"/>
<g id="clust1" class="cluster">
<title>cluster_host</title>
<polygon fill="none" stroke="red" points="8,-26.77 8,-1575.77 1996.72,-1575.77 1996.72,-26.77 8,-26.77"/>
<text text-anchor="middle" x="1002.36" y="-1560.57" font-family="Times,serif" font-size="14.00">PHAIDRA server firewall</text>
</g>
<g id="clust2" class="cluster">
<title>cluster_host_storage</title>
<polygon fill="none" stroke="blue" points="488.72,-481.77 488.72,-1544.77 1336.72,-1544.77 1336.72,-481.77 488.72,-481.77"/>
<text text-anchor="middle" x="912.72" y="-1529.57" font-family="Times,serif" font-size="14.00">PHAIDRA server filesystem</text>
</g>
<g id="clust3" class="cluster">
<title>cluster_named_volumes</title>
<polygon fill="none" stroke="turquoise" points="496.72,-798.77 496.72,-1513.77 1328.72,-1513.77 1328.72,-798.77 496.72,-798.77"/>
<text text-anchor="middle" x="912.72" y="-1498.57" font-family="Times,serif" font-size="14.00">Named volumes</text>
</g>
<g id="clust4" class="cluster">
<title>cluster_bind_mounts</title>
<polygon fill="none" stroke="blue" points="589.72,-489.77 589.72,-790.77 1235.72,-790.77 1235.72,-489.77 589.72,-489.77"/>
<text text-anchor="middle" x="912.72" y="-775.57" font-family="Times,serif" font-size="14.00">Bind mounts</text>
</g>
<g id="clust5" class="cluster">
<title>cluster_docker_network_host</title>
<polygon fill="none" stroke="green" points="245.72,-34.77 245.72,-473.77 1988.72,-473.77 1988.72,-34.77 245.72,-34.77"/>
<text text-anchor="middle" x="1117.22" y="-458.57" font-family="Times,serif" font-size="14.00">PHAIDRA docker containers</text>
</g>
<!-- USER -->
<g id="node1" class="node">
<title>USER</title>
<polygon fill="none" stroke="black" points="209.59,-227.31 209.59,-242.22 155.27,-252.77 78.45,-252.77 24.13,-242.22 24.13,-227.31 78.45,-216.77 155.27,-216.77 209.59,-227.31"/>
<polygon fill="none" stroke="black" points="213.59,-224.01 213.59,-245.52 155.66,-256.77 78.07,-256.77 20.13,-245.52 20.13,-224.01 78.07,-212.77 155.66,-212.77 213.59,-224.01"/>
<polygon fill="none" stroke="black" points="217.58,-220.72 217.58,-248.82 156.04,-260.77 77.68,-260.77 16.14,-248.82 16.14,-220.72 77.68,-208.77 156.04,-208.77 217.58,-220.72"/>
<text text-anchor="middle" x="116.86" y="-231.07" font-family="Times,serif" font-size="14.00">PHAIDRA USER</text>
</g>
<!-- WEBSERVER -->
<g id="node27" class="node">
<title>WEBSERVER</title>
<polygon fill="none" stroke="green" points="468.72,-252.77 253.72,-252.77 253.72,-248.77 249.72,-248.77 249.72,-244.77 253.72,-244.77 253.72,-224.77 249.72,-224.77 249.72,-220.77 253.72,-220.77 253.72,-216.77 468.72,-216.77 468.72,-252.77"/>
<polyline fill="none" stroke="green" points="253.72,-248.77 257.72,-248.77 257.72,-244.77 253.72,-244.77 "/>
<polyline fill="none" stroke="green" points="253.72,-224.77 257.72,-224.77 257.72,-220.77 253.72,-220.77 "/>
<text text-anchor="middle" x="361.22" y="-231.07" font-family="Times,serif" font-size="14.00">phaidra&#45;demo&#45;nginx&#45;nginx&#45;1</text>
</g>
<!-- USER&#45;&#45;WEBSERVER -->
<g id="edge36" class="edge">
<title>USER&#45;&#45;WEBSERVER</title>
<path fill="none" stroke="red" d="M217.84,-234.77C229.57,-234.77 241.58,-234.77 253.41,-234.77"/>
</g>
<!-- HS_FEDORA -->
<g id="node2" class="node">
<title>HS_FEDORA</title>
<polygon fill="none" stroke="turquoise" points="1255.22,-1110.77 1252.22,-1114.77 1231.22,-1114.77 1228.22,-1110.77 570.22,-1110.77 570.22,-1016.77 1255.22,-1016.77 1255.22,-1110.77"/>
<text text-anchor="start" x="582.72" y="-1092.57" font-family="Times,serif" font-weight="bold" font-size="14.00">host:</text>
<text text-anchor="start" x="741.72" y="-1091.57" font-family="Times,serif" font-size="14.00">$HOME/.local/share/docker/volumes/phaidra&#45;demo&#45;nginx_fedora/_data</text>
<text text-anchor="start" x="582.72" y="-1070.57" font-family="Times,serif" font-size="14.00">fedora&#45;container:</text>
<text text-anchor="start" x="741.72" y="-1070.57" font-family="Times,serif" font-size="14.00">/usr/local/tomcat/fcrepo&#45;home</text>
<text text-anchor="start" x="582.72" y="-1049.57" font-family="Times,serif" font-size="14.00">pixelgecko&#45;container:</text>
<text text-anchor="start" x="741.72" y="-1049.57" font-family="Times,serif" font-size="14.00"> /mnt/fedora:ro</text>
<text text-anchor="start" x="582.72" y="-1028.57" font-family="Times,serif" font-size="14.00">api&#45;container:</text>
<text text-anchor="start" x="741.72" y="-1028.57" font-family="Times,serif" font-size="14.00"> /mnt/fedora:ro</text>
</g>
<!-- C_FEDORA -->
<g id="node15" class="node">
<title>C_FEDORA</title>
<g id="a_node15"><a xlink:href="https://fedora.lyrasis.org/" xlink:title="phaidra&#45;demo&#45;nginx&#45;fedora&#45;1">
<polygon fill="none" stroke="green" points="1618.72,-206.77 1396.72,-206.77 1396.72,-202.77 1392.72,-202.77 1392.72,-198.77 1396.72,-198.77 1396.72,-178.77 1392.72,-178.77 1392.72,-174.77 1396.72,-174.77 1396.72,-170.77 1618.72,-170.77 1618.72,-206.77"/>
<polyline fill="none" stroke="green" points="1396.72,-202.77 1400.72,-202.77 1400.72,-198.77 1396.72,-198.77 "/>
<polyline fill="none" stroke="green" points="1396.72,-178.77 1400.72,-178.77 1400.72,-174.77 1396.72,-174.77 "/>
<text text-anchor="middle" x="1507.72" y="-185.07" font-family="Times,serif" font-size="14.00">phaidra&#45;demo&#45;nginx&#45;fedora&#45;1</text>
</a>
</g>
</g>
<!-- HS_FEDORA&#45;&#45;C_FEDORA -->
<g id="edge1" class="edge">
<title>HS_FEDORA&#45;&#45;C_FEDORA</title>
<path fill="none" stroke="turquoise" d="M1255.41,-1063.38C1286.14,-1050.85 1314.12,-1032.9 1336.72,-1007.77 1365.41,-975.87 1330.88,-270.01 1356.72,-235.77 1366.91,-222.26 1380.97,-212.54 1396.42,-205.57"/>
</g>
<!-- C_API -->
<g id="node16" class="node">
<title>C_API</title>
<g id="a_node16"><a xlink:href="https://github.com/phaidra/phaidra-api" xlink:title="phaidra&#45;demo&#45;nginx&#45;api&#45;1">
<polygon fill="none" stroke="green" points="1011.72,-280.77 813.72,-280.77 813.72,-276.77 809.72,-276.77 809.72,-272.77 813.72,-272.77 813.72,-252.77 809.72,-252.77 809.72,-248.77 813.72,-248.77 813.72,-244.77 1011.72,-244.77 1011.72,-280.77"/>
<polyline fill="none" stroke="green" points="813.72,-276.77 817.72,-276.77 817.72,-272.77 813.72,-272.77 "/>
<polyline fill="none" stroke="green" points="813.72,-252.77 817.72,-252.77 817.72,-248.77 813.72,-248.77 "/>
<text text-anchor="middle" x="912.72" y="-259.07" font-family="Times,serif" font-size="14.00">phaidra&#45;demo&#45;nginx&#45;api&#45;1</text>
</a>
</g>
</g>
<!-- HS_FEDORA&#45;&#45;C_API -->
<g id="edge3" class="edge">
<title>HS_FEDORA&#45;&#45;C_API</title>
<path fill="none" stroke="turquoise" d="M570,-1080.58C530.06,-1065.53 497.05,-1039.92 478.72,-998.77 470.81,-981.01 470.81,-316.53 478.72,-298.77 505.31,-239.07 693.9,-243.58 813.57,-252.81"/>
</g>
<!-- C_PIXELGECKO -->
<g id="node23" class="node">
<title>C_PIXELGECKO</title>
<polygon fill="none" stroke="green" points="1963.72,-442.77 1711.72,-442.77 1711.72,-438.77 1707.72,-438.77 1707.72,-434.77 1711.72,-434.77 1711.72,-414.77 1707.72,-414.77 1707.72,-410.77 1711.72,-410.77 1711.72,-406.77 1963.72,-406.77 1963.72,-442.77"/>
<polyline fill="none" stroke="green" points="1711.72,-438.77 1715.72,-438.77 1715.72,-434.77 1711.72,-434.77 "/>
<polyline fill="none" stroke="green" points="1711.72,-414.77 1715.72,-414.77 1715.72,-410.77 1711.72,-410.77 "/>
<text text-anchor="middle" x="1837.72" y="-421.07" font-family="Times,serif" font-size="14.00">phaidra&#45;demo&#45;nginx&#45;pixelgecko&#45;1</text>
</g>
<!-- HS_FEDORA&#45;&#45;C_PIXELGECKO -->
<g id="edge11" class="edge">
<title>HS_FEDORA&#45;&#45;C_PIXELGECKO</title>
<path fill="none" stroke="turquoise" d="M1255.24,-1041.03C1283.67,-1032.48 1311.24,-1021.58 1336.72,-1007.77 1599.6,-865.27 1785.59,-525.07 1827.69,-442.87"/>
</g>
<!-- HS_API_LOGS -->
<g id="node3" class="node">
<title>HS_API_LOGS</title>
<polygon fill="none" stroke="turquoise" points="1234.22,-928.77 1231.22,-932.77 1210.22,-932.77 1207.22,-928.77 591.22,-928.77 591.22,-876.77 1234.22,-876.77 1234.22,-928.77"/>
<text text-anchor="start" x="603.72" y="-910.57" font-family="Times,serif" font-weight="bold" font-size="14.00">host:</text>
<text text-anchor="start" x="708.72" y="-909.57" font-family="Times,serif" font-size="14.00">$HOME/.local/share/docker/volumes/phaidra&#45;demo&#45;nginx_api_logs/_data</text>
<text text-anchor="start" x="603.72" y="-888.57" font-family="Times,serif" font-size="14.00">api&#45;container:</text>
<text text-anchor="start" x="708.72" y="-888.57" font-family="Times,serif" font-size="14.00">/var/log/phaidra</text>
</g>
<!-- HS_API_LOGS&#45;&#45;C_API -->
<g id="edge2" class="edge">
<title>HS_API_LOGS&#45;&#45;C_API</title>
<path fill="none" stroke="turquoise" d="M591.11,-907.49C535,-900.14 490.64,-885.53 478.72,-858.77 466.06,-830.35 466.06,-327.19 478.72,-298.77 505.31,-239.07 693.9,-243.58 813.57,-252.81"/>
</g>
<!-- HS_MARIADB_PHAIDRA -->
<g id="node4" class="node">
<title>HS_MARIADB_PHAIDRA</title>
<polygon fill="none" stroke="turquoise" points="1314.22,-1250.77 1311.22,-1254.77 1290.22,-1254.77 1287.22,-1250.77 511.22,-1250.77 511.22,-1198.77 1314.22,-1198.77 1314.22,-1250.77"/>
<text text-anchor="start" x="523.72" y="-1232.57" font-family="Times,serif" font-weight="bold" font-size="14.00">host:</text>
<text text-anchor="start" x="725.72" y="-1231.57" font-family="Times,serif" font-size="14.00">$HOME/.local/share/docker/volumes/phaidra&#45;demo&#45;nginx_mariadb_phaidra/_data</text>
<text text-anchor="start" x="523.72" y="-1210.57" font-family="Times,serif" font-size="14.00">mariadb&#45;phaidra&#45;container:</text>
<text text-anchor="start" x="725.72" y="-1210.57" font-family="Times,serif" font-size="14.00">/var/lib/mysql</text>
</g>
<!-- C_MARIADB_PHAIDRA -->
<g id="node17" class="node">
<title>C_MARIADB_PHAIDRA</title>
<g id="a_node17"><a xlink:href="https://mariadb.org/" xlink:title="phaidra&#45;demo&#45;nginx&#45;mariadb&#45;phaidra&#45;1">
<polygon fill="none" stroke="green" points="1655.22,-334.77 1360.22,-334.77 1360.22,-330.77 1356.22,-330.77 1356.22,-326.77 1360.22,-326.77 1360.22,-306.77 1356.22,-306.77 1356.22,-302.77 1360.22,-302.77 1360.22,-298.77 1655.22,-298.77 1655.22,-334.77"/>
<polyline fill="none" stroke="green" points="1360.22,-330.77 1364.22,-330.77 1364.22,-326.77 1360.22,-326.77 "/>
<polyline fill="none" stroke="green" points="1360.22,-306.77 1364.22,-306.77 1364.22,-302.77 1360.22,-302.77 "/>
<text text-anchor="middle" x="1507.72" y="-313.07" font-family="Times,serif" font-size="14.00">phaidra&#45;demo&#45;nginx&#45;mariadb&#45;phaidra&#45;1</text>
</a>
</g>
</g>
<!-- HS_MARIADB_PHAIDRA&#45;&#45;C_MARIADB_PHAIDRA -->
<g id="edge5" class="edge">
<title>HS_MARIADB_PHAIDRA&#45;&#45;C_MARIADB_PHAIDRA</title>
<path fill="none" stroke="turquoise" d="M1314.27,-1205.13C1323.61,-1200.69 1331.22,-1195.6 1336.72,-1189.77 1368.97,-1155.56 1326.14,-379.48 1356.72,-343.77 1359.48,-340.55 1362.47,-337.63 1365.67,-334.99"/>
</g>
<!-- HS_MONGODB_PHAIDRA -->
<g id="node5" class="node">
<title>HS_MONGODB_PHAIDRA</title>
<polygon fill="none" stroke="turquoise" points="1320.72,-1180.77 1317.72,-1184.77 1296.72,-1184.77 1293.72,-1180.77 504.72,-1180.77 504.72,-1128.77 1320.72,-1128.77 1320.72,-1180.77"/>
<text text-anchor="start" x="516.72" y="-1162.57" font-family="Times,serif" font-weight="bold" font-size="14.00">host:</text>
<text text-anchor="start" x="724.72" y="-1161.57" font-family="Times,serif" font-size="14.00">$HOME/.local/share/docker/volumes/phaidra&#45;demo&#45;nginx_mongodb_phaidra/_data</text>
<text text-anchor="start" x="516.72" y="-1140.57" font-family="Times,serif" font-size="14.00">phaidra&#45;mongodb&#45;container:</text>
<text text-anchor="start" x="724.72" y="-1140.57" font-family="Times,serif" font-size="14.00">/data/db</text>
</g>
<!-- C_MONGODB_PHAIDRA -->
<g id="node18" class="node">
<title>C_MONGODB_PHAIDRA</title>
<g id="a_node18"><a xlink:href="https://www.mongodb.com/" xlink:title="phaidra&#45;demo&#45;nginx&#45;mongodb&#45;phaidra&#45;1">
<polygon fill="none" stroke="green" points="1658.72,-280.77 1356.72,-280.77 1356.72,-276.77 1352.72,-276.77 1352.72,-272.77 1356.72,-272.77 1356.72,-252.77 1352.72,-252.77 1352.72,-248.77 1356.72,-248.77 1356.72,-244.77 1658.72,-244.77 1658.72,-280.77"/>
<polyline fill="none" stroke="green" points="1356.72,-276.77 1360.72,-276.77 1360.72,-272.77 1356.72,-272.77 "/>
<polyline fill="none" stroke="green" points="1356.72,-252.77 1360.72,-252.77 1360.72,-248.77 1356.72,-248.77 "/>
<text text-anchor="middle" x="1507.72" y="-259.07" font-family="Times,serif" font-size="14.00">phaidra&#45;demo&#45;nginx&#45;mongodb&#45;phaidra&#45;1</text>
</a>
</g>
</g>
<!-- HS_MONGODB_PHAIDRA&#45;&#45;C_MONGODB_PHAIDRA -->
<g id="edge6" class="edge">
<title>HS_MONGODB_PHAIDRA&#45;&#45;C_MONGODB_PHAIDRA</title>
<path fill="none" stroke="turquoise" d="M1320.72,-1131.8C1327.16,-1128.19 1332.55,-1124.19 1336.72,-1119.77 1368.37,-1086.21 1326.71,-324.8 1356.72,-289.77 1359.48,-286.55 1362.47,-283.64 1365.67,-280.99"/>
</g>
<!-- HS_OPENLDAP -->
<g id="node6" class="node">
<title>HS_OPENLDAP</title>
<polygon fill="none" stroke="turquoise" points="1259.72,-1320.77 1256.72,-1324.77 1235.72,-1324.77 1232.72,-1320.77 565.72,-1320.77 565.72,-1268.77 1259.72,-1268.77 1259.72,-1320.77"/>
<text text-anchor="start" x="577.72" y="-1302.57" font-family="Times,serif" font-weight="bold" font-size="14.00">host:</text>
<text text-anchor="start" x="725.72" y="-1301.57" font-family="Times,serif" font-size="14.00">$HOME/.local/share/docker/volumes/phaidra&#45;demo&#45;nginx_openldap/_data</text>
<text text-anchor="start" x="577.72" y="-1280.57" font-family="Times,serif" font-size="14.00">openldap&#45;container:</text>
<text text-anchor="start" x="725.72" y="-1280.57" font-family="Times,serif" font-size="14.00">/bitnami/openldap</text>
</g>
<!-- C_OPENLDAP -->
<g id="node20" class="node">
<title>C_OPENLDAP</title>
<g id="a_node20"><a xlink:href="https://www.openldap.org/" xlink:title="phaidra&#45;demo&#45;nginx&#45;openldap&#45;1">
<polygon fill="none" stroke="green" points="1628.72,-388.77 1386.72,-388.77 1386.72,-384.77 1382.72,-384.77 1382.72,-380.77 1386.72,-380.77 1386.72,-360.77 1382.72,-360.77 1382.72,-356.77 1386.72,-356.77 1386.72,-352.77 1628.72,-352.77 1628.72,-388.77"/>
<polyline fill="none" stroke="green" points="1386.72,-384.77 1390.72,-384.77 1390.72,-380.77 1386.72,-380.77 "/>
<polyline fill="none" stroke="green" points="1386.72,-360.77 1390.72,-360.77 1390.72,-356.77 1386.72,-356.77 "/>
<text text-anchor="middle" x="1507.72" y="-367.07" font-family="Times,serif" font-size="14.00">phaidra&#45;demo&#45;nginx&#45;openldap&#45;1</text>
</a>
</g>
</g>
<!-- HS_OPENLDAP&#45;&#45;C_OPENLDAP -->
<g id="edge7" class="edge">
<title>HS_OPENLDAP&#45;&#45;C_OPENLDAP</title>
<path fill="none" stroke="turquoise" d="M1259.89,-1291.38C1294.87,-1284.73 1322.7,-1274.65 1336.72,-1259.77 1369.57,-1224.91 1325.57,-434.16 1356.72,-397.77 1364.9,-388.22 1375.2,-381.29 1386.56,-376.32"/>
</g>
<!-- HS_SOLR -->
<g id="node7" class="node">
<title>HS_SOLR</title>
<polygon fill="none" stroke="turquoise" points="1221.72,-858.77 1218.72,-862.77 1197.72,-862.77 1194.72,-858.77 603.72,-858.77 603.72,-806.77 1221.72,-806.77 1221.72,-858.77"/>
<text text-anchor="start" x="615.72" y="-840.57" font-family="Times,serif" font-weight="bold" font-size="14.00">host:</text>
<text text-anchor="start" x="725.72" y="-839.57" font-family="Times,serif" font-size="14.00">$HOME/.local/share/docker/volumes/phaidra&#45;demo&#45;nginx_solr/_data</text>
<text text-anchor="start" x="615.72" y="-818.57" font-family="Times,serif" font-size="14.00">solr&#45;container:</text>
<text text-anchor="start" x="725.72" y="-818.57" font-family="Times,serif" font-size="14.00">/var/solr</text>
</g>
<!-- C_SOLR -->
<g id="node21" class="node">
<title>C_SOLR</title>
<g id="a_node21"><a xlink:href="https://solr.apache.org/" xlink:title="phaidra&#45;demo&#45;nginx&#45;solr&#45;1">
<polygon fill="none" stroke="green" points="1609.22,-152.77 1406.22,-152.77 1406.22,-148.77 1402.22,-148.77 1402.22,-144.77 1406.22,-144.77 1406.22,-124.77 1402.22,-124.77 1402.22,-120.77 1406.22,-120.77 1406.22,-116.77 1609.22,-116.77 1609.22,-152.77"/>
<polyline fill="none" stroke="green" points="1406.22,-148.77 1410.22,-148.77 1410.22,-144.77 1406.22,-144.77 "/>
<polyline fill="none" stroke="green" points="1406.22,-124.77 1410.22,-124.77 1410.22,-120.77 1406.22,-120.77 "/>
<text text-anchor="middle" x="1507.72" y="-131.07" font-family="Times,serif" font-size="14.00">phaidra&#45;demo&#45;nginx&#45;solr&#45;1</text>
</a>
</g>
</g>
<!-- HS_SOLR&#45;&#45;C_SOLR -->
<g id="edge9" class="edge">
<title>HS_SOLR&#45;&#45;C_SOLR</title>
<path fill="none" stroke="turquoise" d="M1024.55,-858.81C1121.55,-874.33 1258.79,-877.36 1336.72,-794.77 1385.02,-743.59 1310.74,-215.04 1356.72,-161.77 1369.43,-147.05 1387.21,-138.55 1406.09,-133.93"/>
</g>
<!-- HS_PIXELGECKO -->
<g id="node8" class="node">
<title>HS_PIXELGECKO</title>
<polygon fill="none" stroke="turquoise" points="1276.72,-1482.27 1273.72,-1486.27 1252.72,-1486.27 1249.72,-1482.27 548.72,-1482.27 548.72,-1409.27 1276.72,-1409.27 1276.72,-1482.27"/>
<text text-anchor="start" x="560.72" y="-1463.57" font-family="Times,serif" font-weight="bold" font-size="14.00">host:</text>
<text text-anchor="start" x="732.72" y="-1462.57" font-family="Times,serif" font-size="14.00">$HOME/.local/share/docker/volumes/phaidra&#45;demo&#45;nginx_pixelgecko/_data</text>
<text text-anchor="start" x="560.72" y="-1441.57" font-family="Times,serif" font-size="14.00">pixelgecko&#45;container:</text>
<text text-anchor="start" x="732.72" y="-1441.57" font-family="Times,serif" font-size="14.00">/mnt/converted_images</text>
<text text-anchor="start" x="560.72" y="-1420.57" font-family="Times,serif" font-size="14.00">imageserver&#45;container:</text>
<text text-anchor="start" x="732.72" y="-1420.57" font-family="Times,serif" font-size="14.00">/mnt/converted_images:ro</text>
</g>
<!-- C_IMAGESERVER -->
<g id="node22" class="node">
<title>C_IMAGESERVER</title>
<g id="a_node22"><a xlink:href="https://github.com/ruven/iipsrv" xlink:title="phaidra&#45;demo&#45;nginx&#45;imageserver&#45;1">
<polygon fill="none" stroke="green" points="1640.72,-442.77 1374.72,-442.77 1374.72,-438.77 1370.72,-438.77 1370.72,-434.77 1374.72,-434.77 1374.72,-414.77 1370.72,-414.77 1370.72,-410.77 1374.72,-410.77 1374.72,-406.77 1640.72,-406.77 1640.72,-442.77"/>
<polyline fill="none" stroke="green" points="1374.72,-438.77 1378.72,-438.77 1378.72,-434.77 1374.72,-434.77 "/>
<polyline fill="none" stroke="green" points="1374.72,-414.77 1378.72,-414.77 1378.72,-410.77 1374.72,-410.77 "/>
<text text-anchor="middle" x="1507.72" y="-421.07" font-family="Times,serif" font-size="14.00">phaidra&#45;demo&#45;nginx&#45;imageserver&#45;1</text>
</a>
</g>
</g>
<!-- HS_PIXELGECKO&#45;&#45;C_IMAGESERVER -->
<g id="edge10" class="edge">
<title>HS_PIXELGECKO&#45;&#45;C_IMAGESERVER</title>
<path fill="none" stroke="turquoise" d="M1277.04,-1442.11C1298.99,-1431.4 1319.22,-1417.53 1336.72,-1399.77 1370.09,-1365.91 1349.9,-1233.82 1356.72,-1186.77 1400.16,-887.21 1482.77,-527.04 1502.44,-442.93"/>
</g>
<!-- HS_PIXELGECKO&#45;&#45;C_PIXELGECKO -->
<g id="edge12" class="edge">
<title>HS_PIXELGECKO&#45;&#45;C_PIXELGECKO</title>
<path fill="none" stroke="turquoise" d="M1276.83,-1429.66C1297.84,-1421.66 1318.01,-1411.81 1336.72,-1399.77 1707.42,-1161.15 1816.71,-555.53 1834.09,-442.93"/>
</g>
<!-- HS_DBGATE -->
<g id="node9" class="node">
<title>HS_DBGATE</title>
<polygon fill="none" stroke="turquoise" points="1244.22,-998.77 1241.22,-1002.77 1220.22,-1002.77 1217.22,-998.77 581.22,-998.77 581.22,-946.77 1244.22,-946.77 1244.22,-998.77"/>
<text text-anchor="start" x="593.72" y="-980.57" font-family="Times,serif" font-weight="bold" font-size="14.00">host:</text>
<text text-anchor="start" x="726.72" y="-979.57" font-family="Times,serif" font-size="14.00">$HOME/.local/share/docker/volumes/phaidra&#45;demo&#45;nginx_dbgate/_data</text>
<text text-anchor="start" x="593.72" y="-958.57" font-family="Times,serif" font-size="14.00">dbgate&#45;container:</text>
<text text-anchor="start" x="726.72" y="-958.57" font-family="Times,serif" font-size="14.00">/root/.dbgate</text>
</g>
<!-- C_DBGATE -->
<g id="node24" class="node">
<title>C_DBGATE</title>
<polygon fill="none" stroke="green" points="1025.72,-334.77 799.72,-334.77 799.72,-330.77 795.72,-330.77 795.72,-326.77 799.72,-326.77 799.72,-306.77 795.72,-306.77 795.72,-302.77 799.72,-302.77 799.72,-298.77 1025.72,-298.77 1025.72,-334.77"/>
<polyline fill="none" stroke="green" points="799.72,-330.77 803.72,-330.77 803.72,-326.77 799.72,-326.77 "/>
<polyline fill="none" stroke="green" points="799.72,-306.77 803.72,-306.77 803.72,-302.77 799.72,-302.77 "/>
<text text-anchor="middle" x="912.72" y="-313.07" font-family="Times,serif" font-size="14.00">phaidra&#45;demo&#45;nginx&#45;dbgate&#45;1</text>
</g>
<!-- HS_DBGATE&#45;&#45;C_DBGATE -->
<g id="edge13" class="edge">
<title>HS_DBGATE&#45;&#45;C_DBGATE</title>
<path fill="none" stroke="turquoise" d="M581.18,-976.09C529.82,-968.35 489.93,-953.93 478.72,-928.77 468.91,-906.74 468.91,-516.79 478.72,-494.77 532.02,-375.09 689.72,-335.53 799.56,-322.66"/>
</g>
<!-- HS_MARIADB_FEDORA -->
<g id="node10" class="node">
<title>HS_MARIADB_FEDORA</title>
<polygon fill="none" stroke="turquoise" points="1305.22,-1390.77 1302.22,-1394.77 1281.22,-1394.77 1278.22,-1390.77 520.22,-1390.77 520.22,-1338.77 1305.22,-1338.77 1305.22,-1390.77"/>
<text text-anchor="start" x="532.72" y="-1372.57" font-family="Times,serif" font-weight="bold" font-size="14.00">host:</text>
<text text-anchor="start" x="725.72" y="-1371.57" font-family="Times,serif" font-size="14.00">$HOME/.local/share/docker/volumes/phaidra&#45;demo&#45;nginx_mariadb_fedora/_data</text>
<text text-anchor="start" x="532.72" y="-1350.57" font-family="Times,serif" font-size="14.00">mariadb&#45;fedora&#45;container:</text>
<text text-anchor="start" x="725.72" y="-1350.57" font-family="Times,serif" font-size="14.00">/var/lib/mysql</text>
</g>
<!-- C_MARIADB_FEDORA -->
<g id="node26" class="node">
<title>C_MARIADB_FEDORA</title>
<g id="a_node26"><a xlink:href="https://mariadb.org/" xlink:title="phaidra&#45;demo&#45;nginx&#45;mariadb&#45;fedora&#45;1">
<polygon fill="none" stroke="green" points="1980.72,-243.77 1694.72,-243.77 1694.72,-239.77 1690.72,-239.77 1690.72,-235.77 1694.72,-235.77 1694.72,-215.77 1690.72,-215.77 1690.72,-211.77 1694.72,-211.77 1694.72,-207.77 1980.72,-207.77 1980.72,-243.77"/>
<polyline fill="none" stroke="green" points="1694.72,-239.77 1698.72,-239.77 1698.72,-235.77 1694.72,-235.77 "/>
<polyline fill="none" stroke="green" points="1694.72,-215.77 1698.72,-215.77 1698.72,-211.77 1694.72,-211.77 "/>
<text text-anchor="middle" x="1837.72" y="-222.07" font-family="Times,serif" font-size="14.00">phaidra&#45;demo&#45;nginx&#45;mariadb&#45;fedora&#45;1</text>
</a>
</g>
</g>
<!-- HS_MARIADB_FEDORA&#45;&#45;C_MARIADB_FEDORA -->
<g id="edge14" class="edge">
<title>HS_MARIADB_FEDORA&#45;&#45;C_MARIADB_FEDORA</title>
<path fill="none" stroke="turquoise" d="M1021.94,-1390.79C1118.53,-1406.92 1256.72,-1411.29 1336.72,-1329.77 1361.13,-1304.9 1347.03,-1050.24 1356.72,-1016.77 1400.31,-866.22 1606.88,-527.56 1694.72,-397.77 1735.09,-338.12 1791.76,-274.35 1819.73,-243.94"/>
</g>
<!-- BIND_MARIADB_PHAIDRA_INIT -->
<g id="node11" class="node">
<title>BIND_MARIADB_PHAIDRA_INIT</title>
<polygon fill="none" stroke="blue" points="1227.72,-689.77 1224.72,-693.77 1203.72,-693.77 1200.72,-689.77 597.72,-689.77 597.72,-637.77 1227.72,-637.77 1227.72,-689.77"/>
<text text-anchor="start" x="609.72" y="-671.57" font-family="Times,serif" font-weight="bold" font-size="14.00">host:</text>
<text text-anchor="start" x="811.72" y="-670.57" font-family="Times,serif" font-size="14.00">$REPO/container_components/mariadb/phaidradb.sql.gz</text>
<text text-anchor="start" x="609.72" y="-649.57" font-family="Times,serif" font-size="14.00">mariadb&#45;phaidra&#45;container:</text>
<text text-anchor="start" x="811.72" y="-649.57" font-family="Times,serif" font-size="14.00">/docker&#45;entrypoint&#45;initdb.d/phaidradb.sql.gz:ro</text>
</g>
<!-- BIND_MARIADB_PHAIDRA_INIT&#45;&#45;C_MARIADB_PHAIDRA -->
<g id="edge4" class="edge">
<title>BIND_MARIADB_PHAIDRA_INIT&#45;&#45;C_MARIADB_PHAIDRA</title>
<path fill="none" stroke="blue" d="M1227.84,-664.58C1277.33,-658.44 1318.28,-647.45 1336.72,-628.77 1381.33,-583.6 1314.32,-391.02 1356.72,-343.77 1359.64,-340.52 1362.8,-337.58 1366.17,-334.92"/>
</g>
<!-- BIND_OPENLDAP_INIT -->
<g id="node12" class="node">
<title>BIND_OPENLDAP_INIT</title>
<polygon fill="none" stroke="blue" points="1141.72,-759.77 1138.72,-763.77 1117.72,-763.77 1114.72,-759.77 683.72,-759.77 683.72,-707.77 1141.72,-707.77 1141.72,-759.77"/>
<text text-anchor="start" x="695.72" y="-741.57" font-family="Times,serif" font-weight="bold" font-size="14.00">host:</text>
<text text-anchor="start" x="843.72" y="-740.57" font-family="Times,serif" font-size="14.00">$REPO/container_components/openldap</text>
<text text-anchor="start" x="695.72" y="-719.57" font-family="Times,serif" font-size="14.00">openldap&#45;container:</text>
<text text-anchor="start" x="843.72" y="-719.57" font-family="Times,serif" font-size="14.00">/ldifs:ro</text>
</g>
<!-- BIND_OPENLDAP_INIT&#45;&#45;C_OPENLDAP -->
<g id="edge8" class="edge">
<title>BIND_OPENLDAP_INIT&#45;&#45;C_OPENLDAP</title>
<path fill="none" stroke="blue" d="M1022.36,-759.82C1118.89,-775.86 1256.74,-780.05 1336.72,-698.77 1383.74,-650.98 1312.04,-447.74 1356.72,-397.77 1365.01,-388.5 1375.31,-381.72 1386.61,-376.83"/>
</g>
<!-- BIND_NGINX_SITE_CONFIG -->
<g id="node13" class="node">
<title>BIND_NGINX_SITE_CONFIG</title>
<polygon fill="none" stroke="blue" points="1149.72,-619.77 1146.72,-623.77 1125.72,-623.77 1122.72,-619.77 675.72,-619.77 675.72,-567.77 1149.72,-567.77 1149.72,-619.77"/>
<text text-anchor="start" x="687.72" y="-601.57" font-family="Times,serif" font-weight="bold" font-size="14.00">host:</text>
<text text-anchor="start" x="809.72" y="-600.57" font-family="Times,serif" font-size="14.00">$REPO/webserver_configs/nginx&#45;docker/demo</text>
<text text-anchor="start" x="687.72" y="-579.57" font-family="Times,serif" font-size="14.00">nginx&#45;container:</text>
<text text-anchor="start" x="809.72" y="-579.57" font-family="Times,serif" font-size="14.00">/etc/nginx/templates:ro</text>
</g>
<!-- BIND_NGINX_SERVER_CONFIG -->
<g id="node14" class="node">
<title>BIND_NGINX_SERVER_CONFIG</title>
<polygon fill="none" stroke="blue" points="1189.22,-549.77 1186.22,-553.77 1165.22,-553.77 1162.22,-549.77 636.22,-549.77 636.22,-497.77 1189.22,-497.77 1189.22,-549.77"/>
<text text-anchor="start" x="648.72" y="-531.57" font-family="Times,serif" font-weight="bold" font-size="14.00">host:</text>
<text text-anchor="start" x="770.72" y="-530.57" font-family="Times,serif" font-size="14.00">$REPO/webserver_configs/nginx&#45;docker/demo/nginx.conf</text>
<text text-anchor="start" x="648.72" y="-509.57" font-family="Times,serif" font-size="14.00">nginx&#45;container:</text>
<text text-anchor="start" x="770.72" y="-509.57" font-family="Times,serif" font-size="14.00">/etc/nginx/nginx.conf:ro</text>
</g>
<!-- C_FEDORA&#45;&#45;C_MARIADB_FEDORA -->
<g id="edge17" class="edge">
<title>C_FEDORA&#45;&#45;C_MARIADB_FEDORA</title>
<path fill="none" stroke="orange" d="M1618.85,-201.19C1643.14,-203.93 1669.2,-206.87 1694.55,-209.73"/>
</g>
<!-- C_API&#45;&#45;C_FEDORA -->
<g id="edge18" class="edge">
<title>C_API&#45;&#45;C_FEDORA</title>
<path fill="none" stroke="orange" d="M1012.06,-251.32C1097.83,-241.24 1225.56,-225.99 1336.72,-211.77 1356.07,-209.29 1376.65,-206.58 1396.56,-203.91"/>
</g>
<!-- C_API&#45;&#45;C_MARIADB_PHAIDRA -->
<g id="edge19" class="edge">
<title>C_API&#45;&#45;C_MARIADB_PHAIDRA</title>
<path fill="none" stroke="orange" d="M1011.82,-266.42C1097.7,-270.24 1225.74,-277.44 1336.72,-289.77 1358.26,-292.16 1381.23,-295.36 1403.09,-298.73"/>
</g>
<!-- C_API&#45;&#45;C_MONGODB_PHAIDRA -->
<g id="edge20" class="edge">
<title>C_API&#45;&#45;C_MONGODB_PHAIDRA</title>
<path fill="none" stroke="orange" d="M1011.98,-262.77C1105.78,-262.77 1248.45,-262.77 1356.52,-262.77"/>
</g>
<!-- C_UI -->
<g id="node19" class="node">
<title>C_UI</title>
<g id="a_node19"><a xlink:href="https://github.com/phaidra/phaidra-ui" xlink:title="phaidra&#45;demo&#45;nginx&#45;ui&#45;1">
<polygon fill="none" stroke="green" points="1602.72,-98.77 1412.72,-98.77 1412.72,-94.77 1408.72,-94.77 1408.72,-90.77 1412.72,-90.77 1412.72,-70.77 1408.72,-70.77 1408.72,-66.77 1412.72,-66.77 1412.72,-62.77 1602.72,-62.77 1602.72,-98.77"/>
<polyline fill="none" stroke="green" points="1412.72,-94.77 1416.72,-94.77 1416.72,-90.77 1412.72,-90.77 "/>
<polyline fill="none" stroke="green" points="1412.72,-70.77 1416.72,-70.77 1416.72,-66.77 1412.72,-66.77 "/>
<text text-anchor="middle" x="1507.72" y="-77.07" font-family="Times,serif" font-size="14.00">phaidra&#45;demo&#45;nginx&#45;ui&#45;1</text>
</a>
</g>
</g>
<!-- C_API&#45;&#45;C_UI -->
<g id="edge21" class="edge">
<title>C_API&#45;&#45;C_UI</title>
<path fill="none" stroke="orange" d="M1011.91,-247.1C1101.89,-229.35 1236.03,-194.14 1336.72,-129.77 1347.86,-122.65 1345.16,-114.17 1356.72,-107.77 1373.74,-98.35 1393.35,-92.11 1412.66,-88.01"/>
</g>
<!-- C_API&#45;&#45;C_OPENLDAP -->
<g id="edge22" class="edge">
<title>C_API&#45;&#45;C_OPENLDAP</title>
<path fill="none" stroke="orange" d="M990.08,-244.72C1081.86,-227.75 1236.08,-214.85 1336.72,-289.77 1357.25,-305.05 1337.1,-327.34 1356.72,-343.77 1365.55,-351.16 1375.7,-356.82 1386.49,-361.12"/>
</g>
<!-- C_API&#45;&#45;C_SOLR -->
<g id="edge23" class="edge">
<title>C_API&#45;&#45;C_SOLR</title>
<path fill="none" stroke="orange" d="M1012.08,-252.78C1099.81,-241.45 1230.43,-218.55 1336.72,-174.77 1346.52,-170.73 1346.87,-165.67 1356.72,-161.77 1372.22,-155.63 1389.17,-150.88 1405.93,-147.2"/>
</g>
<!-- C_API&#45;&#45;C_IMAGESERVER -->
<g id="edge24" class="edge">
<title>C_API&#45;&#45;C_IMAGESERVER</title>
<path fill="none" stroke="orange" d="M979.54,-244.73C1071.58,-223.86 1238.47,-202.59 1336.72,-289.77 1373.24,-322.17 1322.12,-363.34 1356.72,-397.77 1362.07,-403.09 1368.08,-407.56 1374.55,-411.3"/>
</g>
<!-- C_MONGODB_PHAIDRA&#45;&#45;C_PIXELGECKO -->
<g id="edge25" class="edge">
<title>C_MONGODB_PHAIDRA&#45;&#45;C_PIXELGECKO</title>
<path fill="none" stroke="orange" d="M1634.47,-280.79C1642.81,-283.39 1650.97,-286.37 1658.72,-289.77 1724.78,-318.76 1788.81,-376.89 1818.89,-406.51"/>
</g>
<!-- C_LAM -->
<g id="node25" class="node">
<title>C_LAM</title>
<polygon fill="none" stroke="green" points="1939.22,-134.77 1736.22,-134.77 1736.22,-130.77 1732.22,-130.77 1732.22,-126.77 1736.22,-126.77 1736.22,-106.77 1732.22,-106.77 1732.22,-102.77 1736.22,-102.77 1736.22,-98.77 1939.22,-98.77 1939.22,-134.77"/>
<polyline fill="none" stroke="green" points="1736.22,-130.77 1740.22,-130.77 1740.22,-126.77 1736.22,-126.77 "/>
<polyline fill="none" stroke="green" points="1736.22,-106.77 1740.22,-106.77 1740.22,-102.77 1736.22,-102.77 "/>
<text text-anchor="middle" x="1837.72" y="-113.07" font-family="Times,serif" font-size="14.00">phaidra&#45;demo&#45;nginx&#45;lam&#45;1</text>
</g>
<!-- C_OPENLDAP&#45;&#45;C_LAM -->
<g id="edge26" class="edge">
<title>C_OPENLDAP&#45;&#45;C_LAM</title>
<path fill="none" stroke="orange" d="M1628.74,-362.57C1639.76,-358.02 1650.03,-351.91 1658.72,-343.77 1707.18,-298.37 1654.79,-251.82 1694.72,-198.77 1717.24,-168.86 1754.09,-148.04 1784.61,-134.87"/>
</g>
<!-- C_DBGATE&#45;&#45;C_MARIADB_PHAIDRA -->
<g id="edge27" class="edge">
<title>C_DBGATE&#45;&#45;C_MARIADB_PHAIDRA</title>
<path fill="none" stroke="orange" d="M1025.96,-316.77C1120.65,-316.77 1256.87,-316.77 1360.16,-316.77"/>
</g>
<!-- C_DBGATE&#45;&#45;C_MONGODB_PHAIDRA -->
<g id="edge28" class="edge">
<title>C_DBGATE&#45;&#45;C_MONGODB_PHAIDRA</title>
<path fill="none" stroke="orange" d="M1025.74,-312.48C1111.15,-308.52 1231.59,-301.45 1336.72,-289.77 1358.26,-287.38 1381.23,-284.17 1403.09,-280.81"/>
</g>
<!-- C_DBGATE&#45;&#45;C_MARIADB_FEDORA -->
<g id="edge29" class="edge">
<title>C_DBGATE&#45;&#45;C_MARIADB_FEDORA</title>
<path fill="none" stroke="orange" d="M990.08,-334.82C1081.86,-351.79 1236.08,-364.69 1336.72,-289.77 1357.25,-274.49 1335.87,-250.61 1356.72,-235.77 1383.76,-216.53 1562.9,-217.36 1694.45,-220.73"/>
</g>
<!-- WEBSERVER&#45;&#45;BIND_NGINX_SITE_CONFIG -->
<g id="edge15" class="edge">
<title>WEBSERVER&#45;&#45;BIND_NGINX_SITE_CONFIG</title>
<path fill="none" stroke="blue" d="M363.03,-253.01C366.6,-309.46 385.84,-482.08 488.72,-558.77 541.82,-598.35 609.77,-614.45 675.6,-618.68"/>
</g>
<!-- WEBSERVER&#45;&#45;BIND_NGINX_SERVER_CONFIG -->
<g id="edge16" class="edge">
<title>WEBSERVER&#45;&#45;BIND_NGINX_SERVER_CONFIG</title>
<path fill="none" stroke="blue" d="M365.63,-252.97C375.37,-299.42 408.03,-422.62 488.72,-477.77 532.02,-507.36 583.84,-524.08 636.12,-532.79"/>
</g>
<!-- WEBSERVER&#45;&#45;C_FEDORA -->
<g id="edge30" class="edge">
<title>WEBSERVER&#45;&#45;C_FEDORA</title>
<path fill="none" stroke="magenta" d="M468.87,-230.48C685.84,-221.76 1176.69,-202.03 1396.58,-193.2"/>
</g>
<!-- WEBSERVER&#45;&#45;C_API -->
<g id="edge31" class="edge">
<title>WEBSERVER&#45;&#45;C_API</title>
<path fill="none" stroke="magenta" d="M468.82,-240.2C568.7,-245.29 716.74,-252.83 813.72,-257.78"/>
</g>
<!-- WEBSERVER&#45;&#45;C_UI -->
<g id="edge32" class="edge">
<title>WEBSERVER&#45;&#45;C_UI</title>
<path fill="none" stroke="magenta" d="M377.11,-216.59C398.71,-191.74 441.36,-148.16 488.72,-129.77 655.41,-65.03 1193.49,-71.97 1412.59,-77.76"/>
</g>
<!-- WEBSERVER&#45;&#45;C_SOLR -->
<g id="edge33" class="edge">
<title>WEBSERVER&#45;&#45;C_SOLR</title>
<path fill="none" stroke="magenta" d="M405.62,-216.75C429.68,-207.59 460.37,-197.27 488.72,-191.77 819.75,-127.49 1221.83,-127.31 1405.91,-131.43"/>
</g>
<!-- WEBSERVER&#45;&#45;C_DBGATE -->
<g id="edge34" class="edge">
<title>WEBSERVER&#45;&#45;C_DBGATE</title>
<path fill="none" stroke="magenta" d="M395.21,-252.89C420.11,-265.62 455.55,-281.76 488.72,-289.77 592.08,-314.73 713.53,-320.11 799.71,-320.07"/>
</g>
<!-- WEBSERVER&#45;&#45;C_LAM -->
<g id="edge35" class="edge">
<title>WEBSERVER&#45;&#45;C_LAM</title>
<path fill="none" stroke="magenta" d="M369.64,-216.53C385.38,-180.62 425.89,-101.49 488.72,-69.77 720.84,47.43 1402.45,-9.76 1658.72,-53.77 1708.32,-62.29 1762.43,-83.24 1797.82,-98.65"/>
</g>
</g>
</svg>
