<?xml version="1.0" encoding="UTF-8" standalone="no"?>
<!DOCTYPE svg PUBLIC "-//W3C//DTD SVG 1.1//EN"
 "http://www.w3.org/Graphics/SVG/1.1/DTD/svg11.dtd">
<!-- Generated by graphviz version 2.43.0 (0)
 -->
<!-- Title: G Pages: 1 -->
<svg width="1997pt" height="1592pt"
 viewBox="0.00 0.00 1996.72 1591.77" xmlns="http://www.w3.org/2000/svg" xmlns:xlink="http://www.w3.org/1999/xlink">
<g id="graph0" class="graph" transform="scale(1 1) rotate(0) translate(4 1587.77)">
<title>G</title>
<polygon fill="white" stroke="transparent" points="-4,4 -4,-1587.77 1992.72,-1587.77 1992.72,4 -4,4"/>
<g id="clust1" class="cluster">
<title>cluster_host</title>
<polygon fill="none" stroke="red" points="221.72,-26.77 221.72,-1575.77 1980.72,-1575.77 1980.72,-26.77 221.72,-26.77"/>
<text text-anchor="middle" x="1101.22" y="-1560.57" font-family="Times,serif" font-size="14.00">PHAIDRA server firewall</text>
</g>
<g id="clust2" class="cluster">
<title>cluster_host_storage</title>
<polygon fill="none" stroke="blue" points="472.72,-481.77 472.72,-1544.77 1320.72,-1544.77 1320.72,-481.77 472.72,-481.77"/>
<text text-anchor="middle" x="896.72" y="-1529.57" font-family="Times,serif" font-size="14.00">PHAIDRA server filesystem</text>
</g>
<g id="clust3" class="cluster">
<title>cluster_named_volumes</title>
<polygon fill="none" stroke="turquoise" points="480.72,-798.77 480.72,-1513.77 1312.72,-1513.77 1312.72,-798.77 480.72,-798.77"/>
<text text-anchor="middle" x="896.72" y="-1498.57" font-family="Times,serif" font-size="14.00">Named volumes</text>
</g>
<g id="clust4" class="cluster">
<title>cluster_bind_mounts</title>
<polygon fill="none" stroke="blue" points="573.72,-489.77 573.72,-790.77 1219.72,-790.77 1219.72,-489.77 573.72,-489.77"/>
<text text-anchor="middle" x="896.72" y="-775.57" font-family="Times,serif" font-size="14.00">Bind mounts</text>
</g>
<g id="clust5" class="cluster">
<title>cluster_docker_network_host</title>
<polygon fill="none" stroke="green" points="229.72,-34.77 229.72,-473.77 1972.72,-473.77 1972.72,-34.77 229.72,-34.77"/>
<text text-anchor="middle" x="1101.22" y="-458.57" font-family="Times,serif" font-size="14.00">PHAIDRA docker containers</text>
</g>
<!-- USER -->
<g id="node1" class="node">
<title>USER</title>
<polygon fill="none" stroke="black" points="193.59,-227.31 193.59,-242.22 139.27,-252.77 62.45,-252.77 8.13,-242.22 8.13,-227.31 62.45,-216.77 139.27,-216.77 193.59,-227.31"/>
<polygon fill="none" stroke="black" points="197.59,-224.01 197.59,-245.52 139.66,-256.77 62.07,-256.77 4.13,-245.52 4.13,-224.01 62.07,-212.77 139.66,-212.77 197.59,-224.01"/>
<polygon fill="none" stroke="black" points="201.58,-220.72 201.58,-248.82 140.04,-260.77 61.68,-260.77 0.14,-248.82 0.14,-220.72 61.68,-208.77 140.04,-208.77 201.58,-220.72"/>
<text text-anchor="middle" x="100.86" y="-231.07" font-family="Times,serif" font-size="14.00">PHAIDRA USER</text>
</g>
<!-- WEBSERVER -->
<g id="node27" class="node">
<title>WEBSERVER</title>
<polygon fill="none" stroke="green" points="452.72,-252.77 237.72,-252.77 237.72,-248.77 233.72,-248.77 233.72,-244.77 237.72,-244.77 237.72,-224.77 233.72,-224.77 233.72,-220.77 237.72,-220.77 237.72,-216.77 452.72,-216.77 452.72,-252.77"/>
<polyline fill="none" stroke="green" points="237.72,-248.77 241.72,-248.77 241.72,-244.77 237.72,-244.77 "/>
<polyline fill="none" stroke="green" points="237.72,-224.77 241.72,-224.77 241.72,-220.77 237.72,-220.77 "/>
<text text-anchor="middle" x="345.22" y="-231.07" font-family="Times,serif" font-size="14.00">phaidra&#45;demo&#45;nginx&#45;nginx&#45;1</text>
</g>
<!-- USER&#45;&#45;WEBSERVER -->
<g id="edge36" class="edge">
<title>USER&#45;&#45;WEBSERVER</title>
<path fill="none" stroke="red" d="M201.84,-234.77C213.57,-234.77 225.58,-234.77 237.41,-234.77"/>
</g>
<!-- HS_FEDORA -->
<g id="node2" class="node">
<title>HS_FEDORA</title>
<polygon fill="none" stroke="turquoise" points="1239.22,-1110.77 1236.22,-1114.77 1215.22,-1114.77 1212.22,-1110.77 554.22,-1110.77 554.22,-1016.77 1239.22,-1016.77 1239.22,-1110.77"/>
<text text-anchor="start" x="566.72" y="-1092.57" font-family="Times,serif" font-weight="bold" font-size="14.00">host:</text>
<text text-anchor="start" x="725.72" y="-1091.57" font-family="Times,serif" font-size="14.00">$HOME/.local/share/docker/volumes/phaidra&#45;demo&#45;nginx_fedora/_data</text>
<text text-anchor="start" x="566.72" y="-1070.57" font-family="Times,serif" font-size="14.00">fedora&#45;container:</text>
<text text-anchor="start" x="725.72" y="-1070.57" font-family="Times,serif" font-size="14.00">/usr/local/tomcat/fcrepo&#45;home</text>
<text text-anchor="start" x="566.72" y="-1049.57" font-family="Times,serif" font-size="14.00">pixelgecko&#45;container:</text>
<text text-anchor="start" x="725.72" y="-1049.57" font-family="Times,serif" font-size="14.00"> /mnt/fedora:ro</text>
<text text-anchor="start" x="566.72" y="-1028.57" font-family="Times,serif" font-size="14.00">api&#45;container:</text>
<text text-anchor="start" x="725.72" y="-1028.57" font-family="Times,serif" font-size="14.00"> /mnt/fedora:ro</text>
</g>
<!-- C_FEDORA -->
<g id="node15" class="node">
<title>C_FEDORA</title>
<g id="a_node15"><a xlink:href="https://fedora.lyrasis.org/" xlink:title="phaidra&#45;demo&#45;nginx&#45;fedora&#45;1">
<polygon fill="none" stroke="green" points="1602.72,-206.77 1380.72,-206.77 1380.72,-202.77 1376.72,-202.77 1376.72,-198.77 1380.72,-198.77 1380.72,-178.77 1376.72,-178.77 1376.72,-174.77 1380.72,-174.77 1380.72,-170.77 1602.72,-170.77 1602.72,-206.77"/>
<polyline fill="none" stroke="green" points="1380.72,-202.77 1384.72,-202.77 1384.72,-198.77 1380.72,-198.77 "/>
<polyline fill="none" stroke="green" points="1380.72,-178.77 1384.72,-178.77 1384.72,-174.77 1380.72,-174.77 "/>
<text text-anchor="middle" x="1491.72" y="-185.07" font-family="Times,serif" font-size="14.00">phaidra&#45;demo&#45;nginx&#45;fedora&#45;1</text>
</a>
</g>
</g>
<!-- HS_FEDORA&#45;&#45;C_FEDORA -->
<g id="edge1" class="edge">
<title>HS_FEDORA&#45;&#45;C_FEDORA</title>
<path fill="none" stroke="turquoise" d="M1239.41,-1063.38C1270.14,-1050.85 1298.12,-1032.9 1320.72,-1007.77 1349.41,-975.87 1314.88,-270.01 1340.72,-235.77 1350.91,-222.26 1364.97,-212.54 1380.42,-205.57"/>
</g>
<!-- C_API -->
<g id="node16" class="node">
<title>C_API</title>
<g id="a_node16"><a xlink:href="https://github.com/phaidra/phaidra-api" xlink:title="phaidra&#45;demo&#45;nginx&#45;api&#45;1">
<polygon fill="none" stroke="green" points="995.72,-280.77 797.72,-280.77 797.72,-276.77 793.72,-276.77 793.72,-272.77 797.72,-272.77 797.72,-252.77 793.72,-252.77 793.72,-248.77 797.72,-248.77 797.72,-244.77 995.72,-244.77 995.72,-280.77"/>
<polyline fill="none" stroke="green" points="797.72,-276.77 801.72,-276.77 801.72,-272.77 797.72,-272.77 "/>
<polyline fill="none" stroke="green" points="797.72,-252.77 801.72,-252.77 801.72,-248.77 797.72,-248.77 "/>
<text text-anchor="middle" x="896.72" y="-259.07" font-family="Times,serif" font-size="14.00">phaidra&#45;demo&#45;nginx&#45;api&#45;1</text>
</a>
</g>
</g>
<!-- HS_FEDORA&#45;&#45;C_API -->
<g id="edge3" class="edge">
<title>HS_FEDORA&#45;&#45;C_API</title>
<path fill="none" stroke="turquoise" d="M554,-1080.58C514.06,-1065.53 481.05,-1039.92 462.72,-998.77 454.81,-981.01 454.81,-316.53 462.72,-298.77 489.31,-239.07 677.9,-243.58 797.57,-252.81"/>
</g>
<!-- C_PIXELGECKO -->
<g id="node23" class="node">
<title>C_PIXELGECKO</title>
<polygon fill="none" stroke="green" points="1947.72,-442.77 1695.72,-442.77 1695.72,-438.77 1691.72,-438.77 1691.72,-434.77 1695.72,-434.77 1695.72,-414.77 1691.72,-414.77 1691.72,-410.77 1695.72,-410.77 1695.72,-406.77 1947.72,-406.77 1947.72,-442.77"/>
<polyline fill="none" stroke="green" points="1695.72,-438.77 1699.72,-438.77 1699.72,-434.77 1695.72,-434.77 "/>
<polyline fill="none" stroke="green" points="1695.72,-414.77 1699.72,-414.77 1699.72,-410.77 1695.72,-410.77 "/>
<text text-anchor="middle" x="1821.72" y="-421.07" font-family="Times,serif" font-size="14.00">phaidra&#45;demo&#45;nginx&#45;pixelgecko&#45;1</text>
</g>
<!-- HS_FEDORA&#45;&#45;C_PIXELGECKO -->
<g id="edge11" class="edge">
<title>HS_FEDORA&#45;&#45;C_PIXELGECKO</title>
<path fill="none" stroke="turquoise" d="M1239.24,-1041.03C1267.67,-1032.48 1295.24,-1021.58 1320.72,-1007.77 1583.6,-865.27 1769.59,-525.07 1811.69,-442.87"/>
</g>
<!-- HS_API_LOGS -->
<g id="node3" class="node">
<title>HS_API_LOGS</title>
<polygon fill="none" stroke="turquoise" points="1218.22,-928.77 1215.22,-932.77 1194.22,-932.77 1191.22,-928.77 575.22,-928.77 575.22,-876.77 1218.22,-876.77 1218.22,-928.77"/>
<text text-anchor="start" x="587.72" y="-910.57" font-family="Times,serif" font-weight="bold" font-size="14.00">host:</text>
<text text-anchor="start" x="692.72" y="-909.57" font-family="Times,serif" font-size="14.00">$HOME/.local/share/docker/volumes/phaidra&#45;demo&#45;nginx_api_logs/_data</text>
<text text-anchor="start" x="587.72" y="-888.57" font-family="Times,serif" font-size="14.00">api&#45;container:</text>
<text text-anchor="start" x="692.72" y="-888.57" font-family="Times,serif" font-size="14.00">/var/log/phaidra</text>
</g>
<!-- HS_API_LOGS&#45;&#45;C_API -->
<g id="edge2" class="edge">
<title>HS_API_LOGS&#45;&#45;C_API</title>
<path fill="none" stroke="turquoise" d="M575.11,-907.49C519,-900.14 474.64,-885.53 462.72,-858.77 450.06,-830.35 450.06,-327.19 462.72,-298.77 489.31,-239.07 677.9,-243.58 797.57,-252.81"/>
</g>
<!-- HS_MARIADB_PHAIDRA -->
<g id="node4" class="node">
<title>HS_MARIADB_PHAIDRA</title>
<polygon fill="none" stroke="turquoise" points="1298.22,-1250.77 1295.22,-1254.77 1274.22,-1254.77 1271.22,-1250.77 495.22,-1250.77 495.22,-1198.77 1298.22,-1198.77 1298.22,-1250.77"/>
<text text-anchor="start" x="507.72" y="-1232.57" font-family="Times,serif" font-weight="bold" font-size="14.00">host:</text>
<text text-anchor="start" x="709.72" y="-1231.57" font-family="Times,serif" font-size="14.00">$HOME/.local/share/docker/volumes/phaidra&#45;demo&#45;nginx_mariadb_phaidra/_data</text>
<text text-anchor="start" x="507.72" y="-1210.57" font-family="Times,serif" font-size="14.00">mariadb&#45;phaidra&#45;container:</text>
<text text-anchor="start" x="709.72" y="-1210.57" font-family="Times,serif" font-size="14.00">/var/lib/mysql</text>
</g>
<!-- C_MARIADB_PHAIDRA -->
<g id="node17" class="node">
<title>C_MARIADB_PHAIDRA</title>
<g id="a_node17"><a xlink:href="https://mariadb.org/" xlink:title="phaidra&#45;demo&#45;nginx&#45;mariadb&#45;phaidra&#45;1">
<polygon fill="none" stroke="green" points="1639.22,-334.77 1344.22,-334.77 1344.22,-330.77 1340.22,-330.77 1340.22,-326.77 1344.22,-326.77 1344.22,-306.77 1340.22,-306.77 1340.22,-302.77 1344.22,-302.77 1344.22,-298.77 1639.22,-298.77 1639.22,-334.77"/>
<polyline fill="none" stroke="green" points="1344.22,-330.77 1348.22,-330.77 1348.22,-326.77 1344.22,-326.77 "/>
<polyline fill="none" stroke="green" points="1344.22,-306.77 1348.22,-306.77 1348.22,-302.77 1344.22,-302.77 "/>
<text text-anchor="middle" x="1491.72" y="-313.07" font-family="Times,serif" font-size="14.00">phaidra&#45;demo&#45;nginx&#45;mariadb&#45;phaidra&#45;1</text>
</a>
</g>
</g>
<!-- HS_MARIADB_PHAIDRA&#45;&#45;C_MARIADB_PHAIDRA -->
<g id="edge5" class="edge">
<title>HS_MARIADB_PHAIDRA&#45;&#45;C_MARIADB_PHAIDRA</title>
<path fill="none" stroke="turquoise" d="M1298.27,-1205.13C1307.61,-1200.69 1315.22,-1195.6 1320.72,-1189.77 1352.97,-1155.56 1310.14,-379.48 1340.72,-343.77 1343.48,-340.55 1346.47,-337.63 1349.67,-334.99"/>
</g>
<!-- HS_MONGODB_PHAIDRA -->
<g id="node5" class="node">
<title>HS_MONGODB_PHAIDRA</title>
<polygon fill="none" stroke="turquoise" points="1304.72,-1180.77 1301.72,-1184.77 1280.72,-1184.77 1277.72,-1180.77 488.72,-1180.77 488.72,-1128.77 1304.72,-1128.77 1304.72,-1180.77"/>
<text text-anchor="start" x="500.72" y="-1162.57" font-family="Times,serif" font-weight="bold" font-size="14.00">host:</text>
<text text-anchor="start" x="708.72" y="-1161.57" font-family="Times,serif" font-size="14.00">$HOME/.local/share/docker/volumes/phaidra&#45;demo&#45;nginx_mongodb_phaidra/_data</text>
<text text-anchor="start" x="500.72" y="-1140.57" font-family="Times,serif" font-size="14.00">phaidra&#45;mongodb&#45;container:</text>
<text text-anchor="start" x="708.72" y="-1140.57" font-family="Times,serif" font-size="14.00">/data/db</text>
</g>
<!-- C_MONGODB_PHAIDRA -->
<g id="node18" class="node">
<title>C_MONGODB_PHAIDRA</title>
<g id="a_node18"><a xlink:href="https://www.mongodb.com/" xlink:title="phaidra&#45;demo&#45;nginx&#45;mongodb&#45;phaidra&#45;1">
<polygon fill="none" stroke="green" points="1642.72,-280.77 1340.72,-280.77 1340.72,-276.77 1336.72,-276.77 1336.72,-272.77 1340.72,-272.77 1340.72,-252.77 1336.72,-252.77 1336.72,-248.77 1340.72,-248.77 1340.72,-244.77 1642.72,-244.77 1642.72,-280.77"/>
<polyline fill="none" stroke="green" points="1340.72,-276.77 1344.72,-276.77 1344.72,-272.77 1340.72,-272.77 "/>
<polyline fill="none" stroke="green" points="1340.72,-252.77 1344.72,-252.77 1344.72,-248.77 1340.72,-248.77 "/>
<text text-anchor="middle" x="1491.72" y="-259.07" font-family="Times,serif" font-size="14.00">phaidra&#45;demo&#45;nginx&#45;mongodb&#45;phaidra&#45;1</text>
</a>
</g>
</g>
<!-- HS_MONGODB_PHAIDRA&#45;&#45;C_MONGODB_PHAIDRA -->
<g id="edge6" class="edge">
<title>HS_MONGODB_PHAIDRA&#45;&#45;C_MONGODB_PHAIDRA</title>
<path fill="none" stroke="turquoise" d="M1304.72,-1131.8C1311.16,-1128.19 1316.55,-1124.19 1320.72,-1119.77 1352.37,-1086.21 1310.71,-324.8 1340.72,-289.77 1343.48,-286.55 1346.47,-283.64 1349.67,-280.99"/>
</g>
<!-- HS_OPENLDAP -->
<g id="node6" class="node">
<title>HS_OPENLDAP</title>
<polygon fill="none" stroke="turquoise" points="1243.72,-1320.77 1240.72,-1324.77 1219.72,-1324.77 1216.72,-1320.77 549.72,-1320.77 549.72,-1268.77 1243.72,-1268.77 1243.72,-1320.77"/>
<text text-anchor="start" x="561.72" y="-1302.57" font-family="Times,serif" font-weight="bold" font-size="14.00">host:</text>
<text text-anchor="start" x="709.72" y="-1301.57" font-family="Times,serif" font-size="14.00">$HOME/.local/share/docker/volumes/phaidra&#45;demo&#45;nginx_openldap/_data</text>
<text text-anchor="start" x="561.72" y="-1280.57" font-family="Times,serif" font-size="14.00">openldap&#45;container:</text>
<text text-anchor="start" x="709.72" y="-1280.57" font-family="Times,serif" font-size="14.00">/bitnami/openldap</text>
</g>
<!-- C_OPENLDAP -->
<g id="node20" class="node">
<title>C_OPENLDAP</title>
<g id="a_node20"><a xlink:href="https://www.openldap.org/" xlink:title="phaidra&#45;demo&#45;nginx&#45;openldap&#45;1">
<polygon fill="none" stroke="green" points="1612.72,-388.77 1370.72,-388.77 1370.72,-384.77 1366.72,-384.77 1366.72,-380.77 1370.72,-380.77 1370.72,-360.77 1366.72,-360.77 1366.72,-356.77 1370.72,-356.77 1370.72,-352.77 1612.72,-352.77 1612.72,-388.77"/>
<polyline fill="none" stroke="green" points="1370.72,-384.77 1374.72,-384.77 1374.72,-380.77 1370.72,-380.77 "/>
<polyline fill="none" stroke="green" points="1370.72,-360.77 1374.72,-360.77 1374.72,-356.77 1370.72,-356.77 "/>
<text text-anchor="middle" x="1491.72" y="-367.07" font-family="Times,serif" font-size="14.00">phaidra&#45;demo&#45;nginx&#45;openldap&#45;1</text>
</a>
</g>
</g>
<!-- HS_OPENLDAP&#45;&#45;C_OPENLDAP -->
<g id="edge7" class="edge">
<title>HS_OPENLDAP&#45;&#45;C_OPENLDAP</title>
<path fill="none" stroke="turquoise" d="M1243.89,-1291.38C1278.87,-1284.73 1306.7,-1274.65 1320.72,-1259.77 1353.57,-1224.91 1309.57,-434.16 1340.72,-397.77 1348.9,-388.22 1359.2,-381.29 1370.56,-376.32"/>
</g>
<!-- HS_SOLR -->
<g id="node7" class="node">
<title>HS_SOLR</title>
<polygon fill="none" stroke="turquoise" points="1205.72,-858.77 1202.72,-862.77 1181.72,-862.77 1178.72,-858.77 587.72,-858.77 587.72,-806.77 1205.72,-806.77 1205.72,-858.77"/>
<text text-anchor="start" x="599.72" y="-840.57" font-family="Times,serif" font-weight="bold" font-size="14.00">host:</text>
<text text-anchor="start" x="709.72" y="-839.57" font-family="Times,serif" font-size="14.00">$HOME/.local/share/docker/volumes/phaidra&#45;demo&#45;nginx_solr/_data</text>
<text text-anchor="start" x="599.72" y="-818.57" font-family="Times,serif" font-size="14.00">solr&#45;container:</text>
<text text-anchor="start" x="709.72" y="-818.57" font-family="Times,serif" font-size="14.00">/var/solr</text>
</g>
<!-- C_SOLR -->
<g id="node21" class="node">
<title>C_SOLR</title>
<g id="a_node21"><a xlink:href="https://solr.apache.org/" xlink:title="phaidra&#45;demo&#45;nginx&#45;solr&#45;1">
<polygon fill="none" stroke="green" points="1593.22,-152.77 1390.22,-152.77 1390.22,-148.77 1386.22,-148.77 1386.22,-144.77 1390.22,-144.77 1390.22,-124.77 1386.22,-124.77 1386.22,-120.77 1390.22,-120.77 1390.22,-116.77 1593.22,-116.77 1593.22,-152.77"/>
<polyline fill="none" stroke="green" points="1390.22,-148.77 1394.22,-148.77 1394.22,-144.77 1390.22,-144.77 "/>
<polyline fill="none" stroke="green" points="1390.22,-124.77 1394.22,-124.77 1394.22,-120.77 1390.22,-120.77 "/>
<text text-anchor="middle" x="1491.72" y="-131.07" font-family="Times,serif" font-size="14.00">phaidra&#45;demo&#45;nginx&#45;solr&#45;1</text>
</a>
</g>
</g>
<!-- HS_SOLR&#45;&#45;C_SOLR -->
<g id="edge9" class="edge">
<title>HS_SOLR&#45;&#45;C_SOLR</title>
<path fill="none" stroke="turquoise" d="M1008.55,-858.81C1105.55,-874.33 1242.79,-877.36 1320.72,-794.77 1369.02,-743.59 1294.74,-215.04 1340.72,-161.77 1353.43,-147.05 1371.21,-138.55 1390.09,-133.93"/>
</g>
<!-- HS_PIXELGECKO -->
<g id="node8" class="node">
<title>HS_PIXELGECKO</title>
<polygon fill="none" stroke="turquoise" points="1260.72,-1482.27 1257.72,-1486.27 1236.72,-1486.27 1233.72,-1482.27 532.72,-1482.27 532.72,-1409.27 1260.72,-1409.27 1260.72,-1482.27"/>
<text text-anchor="start" x="544.72" y="-1463.57" font-family="Times,serif" font-weight="bold" font-size="14.00">host:</text>
<text text-anchor="start" x="716.72" y="-1462.57" font-family="Times,serif" font-size="14.00">$HOME/.local/share/docker/volumes/phaidra&#45;demo&#45;nginx_pixelgecko/_data</text>
<text text-anchor="start" x="544.72" y="-1441.57" font-family="Times,serif" font-size="14.00">pixelgecko&#45;container:</text>
<text text-anchor="start" x="716.72" y="-1441.57" font-family="Times,serif" font-size="14.00">/mnt/converted_images</text>
<text text-anchor="start" x="544.72" y="-1420.57" font-family="Times,serif" font-size="14.00">imageserver&#45;container:</text>
<text text-anchor="start" x="716.72" y="-1420.57" font-family="Times,serif" font-size="14.00">/mnt/converted_images:ro</text>
</g>
<!-- C_IMAGESERVER -->
<g id="node22" class="node">
<title>C_IMAGESERVER</title>
<g id="a_node22"><a xlink:href="https://github.com/ruven/iipsrv" xlink:title="phaidra&#45;demo&#45;nginx&#45;imageserver&#45;1">
<polygon fill="none" stroke="green" points="1624.72,-442.77 1358.72,-442.77 1358.72,-438.77 1354.72,-438.77 1354.72,-434.77 1358.72,-434.77 1358.72,-414.77 1354.72,-414.77 1354.72,-410.77 1358.72,-410.77 1358.72,-406.77 1624.72,-406.77 1624.72,-442.77"/>
<polyline fill="none" stroke="green" points="1358.72,-438.77 1362.72,-438.77 1362.72,-434.77 1358.72,-434.77 "/>
<polyline fill="none" stroke="green" points="1358.72,-414.77 1362.72,-414.77 1362.72,-410.77 1358.72,-410.77 "/>
<text text-anchor="middle" x="1491.72" y="-421.07" font-family="Times,serif" font-size="14.00">phaidra&#45;demo&#45;nginx&#45;imageserver&#45;1</text>
</a>
</g>
</g>
<!-- HS_PIXELGECKO&#45;&#45;C_IMAGESERVER -->
<g id="edge10" class="edge">
<title>HS_PIXELGECKO&#45;&#45;C_IMAGESERVER</title>
<path fill="none" stroke="turquoise" d="M1261.04,-1442.11C1282.99,-1431.4 1303.22,-1417.53 1320.72,-1399.77 1354.09,-1365.91 1333.9,-1233.82 1340.72,-1186.77 1384.16,-887.21 1466.77,-527.04 1486.44,-442.93"/>
</g>
<!-- HS_PIXELGECKO&#45;&#45;C_PIXELGECKO -->
<g id="edge12" class="edge">
<title>HS_PIXELGECKO&#45;&#45;C_PIXELGECKO</title>
<path fill="none" stroke="turquoise" d="M1260.83,-1429.66C1281.84,-1421.66 1302.01,-1411.81 1320.72,-1399.77 1691.42,-1161.15 1800.71,-555.53 1818.09,-442.93"/>
</g>
<!-- HS_DBGATE -->
<g id="node9" class="node">
<title>HS_DBGATE</title>
<polygon fill="none" stroke="turquoise" points="1228.22,-998.77 1225.22,-1002.77 1204.22,-1002.77 1201.22,-998.77 565.22,-998.77 565.22,-946.77 1228.22,-946.77 1228.22,-998.77"/>
<text text-anchor="start" x="577.72" y="-980.57" font-family="Times,serif" font-weight="bold" font-size="14.00">host:</text>
<text text-anchor="start" x="710.72" y="-979.57" font-family="Times,serif" font-size="14.00">$HOME/.local/share/docker/volumes/phaidra&#45;demo&#45;nginx_dbgate/_data</text>
<text text-anchor="start" x="577.72" y="-958.57" font-family="Times,serif" font-size="14.00">dbgate&#45;container:</text>
<text text-anchor="start" x="710.72" y="-958.57" font-family="Times,serif" font-size="14.00">/root/.dbgate</text>
</g>
<!-- C_DBGATE -->
<g id="node24" class="node">
<title>C_DBGATE</title>
<polygon fill="none" stroke="green" points="1009.72,-334.77 783.72,-334.77 783.72,-330.77 779.72,-330.77 779.72,-326.77 783.72,-326.77 783.72,-306.77 779.72,-306.77 779.72,-302.77 783.72,-302.77 783.72,-298.77 1009.72,-298.77 1009.72,-334.77"/>
<polyline fill="none" stroke="green" points="783.72,-330.77 787.72,-330.77 787.72,-326.77 783.72,-326.77 "/>
<polyline fill="none" stroke="green" points="783.72,-306.77 787.72,-306.77 787.72,-302.77 783.72,-302.77 "/>
<text text-anchor="middle" x="896.72" y="-313.07" font-family="Times,serif" font-size="14.00">phaidra&#45;demo&#45;nginx&#45;dbgate&#45;1</text>
</g>
<!-- HS_DBGATE&#45;&#45;C_DBGATE -->
<g id="edge13" class="edge">
<title>HS_DBGATE&#45;&#45;C_DBGATE</title>
<path fill="none" stroke="turquoise" d="M565.18,-976.09C513.82,-968.35 473.93,-953.93 462.72,-928.77 452.91,-906.74 452.91,-516.79 462.72,-494.77 516.02,-375.09 673.72,-335.53 783.56,-322.66"/>
</g>
<!-- HS_MARIADB_FEDORA -->
<g id="node10" class="node">
<title>HS_MARIADB_FEDORA</title>
<polygon fill="none" stroke="turquoise" points="1289.22,-1390.77 1286.22,-1394.77 1265.22,-1394.77 1262.22,-1390.77 504.22,-1390.77 504.22,-1338.77 1289.22,-1338.77 1289.22,-1390.77"/>
<text text-anchor="start" x="516.72" y="-1372.57" font-family="Times,serif" font-weight="bold" font-size="14.00">host:</text>
<text text-anchor="start" x="709.72" y="-1371.57" font-family="Times,serif" font-size="14.00">$HOME/.local/share/docker/volumes/phaidra&#45;demo&#45;nginx_mariadb_fedora/_data</text>
<text text-anchor="start" x="516.72" y="-1350.57" font-family="Times,serif" font-size="14.00">mariadb&#45;fedora&#45;container:</text>
<text text-anchor="start" x="709.72" y="-1350.57" font-family="Times,serif" font-size="14.00">/var/lib/mysql</text>
</g>
<!-- C_MARIADB_FEDORA -->
<g id="node26" class="node">
<title>C_MARIADB_FEDORA</title>
<g id="a_node26"><a xlink:href="https://mariadb.org/" xlink:title="phaidra&#45;demo&#45;nginx&#45;mariadb&#45;fedora&#45;1">
<polygon fill="none" stroke="green" points="1964.72,-243.77 1678.72,-243.77 1678.72,-239.77 1674.72,-239.77 1674.72,-235.77 1678.72,-235.77 1678.72,-215.77 1674.72,-215.77 1674.72,-211.77 1678.72,-211.77 1678.72,-207.77 1964.72,-207.77 1964.72,-243.77"/>
<polyline fill="none" stroke="green" points="1678.72,-239.77 1682.72,-239.77 1682.72,-235.77 1678.72,-235.77 "/>
<polyline fill="none" stroke="green" points="1678.72,-215.77 1682.72,-215.77 1682.72,-211.77 1678.72,-211.77 "/>
<text text-anchor="middle" x="1821.72" y="-222.07" font-family="Times,serif" font-size="14.00">phaidra&#45;demo&#45;nginx&#45;mariadb&#45;fedora&#45;1</text>
</a>
</g>
</g>
<!-- HS_MARIADB_FEDORA&#45;&#45;C_MARIADB_FEDORA -->
<g id="edge14" class="edge">
<title>HS_MARIADB_FEDORA&#45;&#45;C_MARIADB_FEDORA</title>
<path fill="none" stroke="turquoise" d="M1005.94,-1390.79C1102.53,-1406.92 1240.72,-1411.29 1320.72,-1329.77 1345.13,-1304.9 1331.03,-1050.24 1340.72,-1016.77 1384.31,-866.22 1590.88,-527.56 1678.72,-397.77 1719.09,-338.12 1775.76,-274.35 1803.73,-243.94"/>
</g>
<!-- BIND_MARIADB_PHAIDRA_INIT -->
<g id="node11" class="node">
<title>BIND_MARIADB_PHAIDRA_INIT</title>
<polygon fill="none" stroke="blue" points="1211.72,-689.77 1208.72,-693.77 1187.72,-693.77 1184.72,-689.77 581.72,-689.77 581.72,-637.77 1211.72,-637.77 1211.72,-689.77"/>
<text text-anchor="start" x="593.72" y="-671.57" font-family="Times,serif" font-weight="bold" font-size="14.00">host:</text>
<text text-anchor="start" x="795.72" y="-670.57" font-family="Times,serif" font-size="14.00">$REPO/container_components/mariadb/phaidradb.sql.gz</text>
<text text-anchor="start" x="593.72" y="-649.57" font-family="Times,serif" font-size="14.00">mariadb&#45;phaidra&#45;container:</text>
<text text-anchor="start" x="795.72" y="-649.57" font-family="Times,serif" font-size="14.00">/docker&#45;entrypoint&#45;initdb.d/phaidradb.sql.gz:ro</text>
</g>
<!-- BIND_MARIADB_PHAIDRA_INIT&#45;&#45;C_MARIADB_PHAIDRA -->
<g id="edge4" class="edge">
<title>BIND_MARIADB_PHAIDRA_INIT&#45;&#45;C_MARIADB_PHAIDRA</title>
<path fill="none" stroke="blue" d="M1211.84,-664.58C1261.33,-658.44 1302.28,-647.45 1320.72,-628.77 1365.33,-583.6 1298.32,-391.02 1340.72,-343.77 1343.64,-340.52 1346.8,-337.58 1350.17,-334.92"/>
</g>
<!-- BIND_OPENLDAP_INIT -->
<g id="node12" class="node">
<title>BIND_OPENLDAP_INIT</title>
<polygon fill="none" stroke="blue" points="1125.72,-759.77 1122.72,-763.77 1101.72,-763.77 1098.72,-759.77 667.72,-759.77 667.72,-707.77 1125.72,-707.77 1125.72,-759.77"/>
<text text-anchor="start" x="679.72" y="-741.57" font-family="Times,serif" font-weight="bold" font-size="14.00">host:</text>
<text text-anchor="start" x="827.72" y="-740.57" font-family="Times,serif" font-size="14.00">$REPO/container_components/openldap</text>
<text text-anchor="start" x="679.72" y="-719.57" font-family="Times,serif" font-size="14.00">openldap&#45;container:</text>
<text text-anchor="start" x="827.72" y="-719.57" font-family="Times,serif" font-size="14.00">/ldifs:ro</text>
</g>
<!-- BIND_OPENLDAP_INIT&#45;&#45;C_OPENLDAP -->
<g id="edge8" class="edge">
<title>BIND_OPENLDAP_INIT&#45;&#45;C_OPENLDAP</title>
<path fill="none" stroke="blue" d="M1006.36,-759.82C1102.89,-775.86 1240.74,-780.05 1320.72,-698.77 1367.74,-650.98 1296.04,-447.74 1340.72,-397.77 1349.01,-388.5 1359.31,-381.72 1370.61,-376.83"/>
</g>
<!-- BIND_NGINX_SITE_CONFIG -->
<g id="node13" class="node">
<title>BIND_NGINX_SITE_CONFIG</title>
<polygon fill="none" stroke="blue" points="1133.72,-619.77 1130.72,-623.77 1109.72,-623.77 1106.72,-619.77 659.72,-619.77 659.72,-567.77 1133.72,-567.77 1133.72,-619.77"/>
<text text-anchor="start" x="671.72" y="-601.57" font-family="Times,serif" font-weight="bold" font-size="14.00">host:</text>
<text text-anchor="start" x="793.72" y="-600.57" font-family="Times,serif" font-size="14.00">$REPO/webserver_configs/nginx&#45;docker/demo</text>
<text text-anchor="start" x="671.72" y="-579.57" font-family="Times,serif" font-size="14.00">nginx&#45;container:</text>
<text text-anchor="start" x="793.72" y="-579.57" font-family="Times,serif" font-size="14.00">/etc/nginx/templates:ro</text>
</g>
<!-- BIND_NGINX_SERVER_CONFIG -->
<g id="node14" class="node">
<title>BIND_NGINX_SERVER_CONFIG</title>
<polygon fill="none" stroke="blue" points="1173.22,-549.77 1170.22,-553.77 1149.22,-553.77 1146.22,-549.77 620.22,-549.77 620.22,-497.77 1173.22,-497.77 1173.22,-549.77"/>
<text text-anchor="start" x="632.72" y="-531.57" font-family="Times,serif" font-weight="bold" font-size="14.00">host:</text>
<text text-anchor="start" x="754.72" y="-530.57" font-family="Times,serif" font-size="14.00">$REPO/webserver_configs/nginx&#45;docker/demo/nginx.conf</text>
<text text-anchor="start" x="632.72" y="-509.57" font-family="Times,serif" font-size="14.00">nginx&#45;container:</text>
<text text-anchor="start" x="754.72" y="-509.57" font-family="Times,serif" font-size="14.00">/etc/nginx/nginx.conf:ro</text>
</g>
<!-- C_FEDORA&#45;&#45;C_MARIADB_FEDORA -->
<g id="edge17" class="edge">
<title>C_FEDORA&#45;&#45;C_MARIADB_FEDORA</title>
<path fill="none" stroke="orange" d="M1602.85,-201.19C1627.14,-203.93 1653.2,-206.87 1678.55,-209.73"/>
</g>
<!-- C_API&#45;&#45;C_FEDORA -->
<g id="edge18" class="edge">
<title>C_API&#45;&#45;C_FEDORA</title>
<path fill="none" stroke="orange" d="M996.06,-251.32C1081.83,-241.24 1209.56,-225.99 1320.72,-211.77 1340.07,-209.29 1360.65,-206.58 1380.56,-203.91"/>
</g>
<!-- C_API&#45;&#45;C_MARIADB_PHAIDRA -->
<g id="edge19" class="edge">
<title>C_API&#45;&#45;C_MARIADB_PHAIDRA</title>
<path fill="none" stroke="orange" d="M995.82,-266.42C1081.7,-270.24 1209.74,-277.44 1320.72,-289.77 1342.26,-292.16 1365.23,-295.36 1387.09,-298.73"/>
</g>
<!-- C_API&#45;&#45;C_MONGODB_PHAIDRA -->
<g id="edge20" class="edge">
<title>C_API&#45;&#45;C_MONGODB_PHAIDRA</title>
<path fill="none" stroke="orange" d="M995.98,-262.77C1089.78,-262.77 1232.45,-262.77 1340.52,-262.77"/>
</g>
<!-- C_UI -->
<g id="node19" class="node">
<title>C_UI</title>
<g id="a_node19"><a xlink:href="https://github.com/phaidra/phaidra-ui" xlink:title="phaidra&#45;demo&#45;nginx&#45;ui&#45;1">
<polygon fill="none" stroke="green" points="1586.72,-98.77 1396.72,-98.77 1396.72,-94.77 1392.72,-94.77 1392.72,-90.77 1396.72,-90.77 1396.72,-70.77 1392.72,-70.77 1392.72,-66.77 1396.72,-66.77 1396.72,-62.77 1586.72,-62.77 1586.72,-98.77"/>
<polyline fill="none" stroke="green" points="1396.72,-94.77 1400.72,-94.77 1400.72,-90.77 1396.72,-90.77 "/>
<polyline fill="none" stroke="green" points="1396.72,-70.77 1400.72,-70.77 1400.72,-66.77 1396.72,-66.77 "/>
<text text-anchor="middle" x="1491.72" y="-77.07" font-family="Times,serif" font-size="14.00">phaidra&#45;demo&#45;nginx&#45;ui&#45;1</text>
</a>
</g>
</g>
<!-- C_API&#45;&#45;C_UI -->
<g id="edge21" class="edge">
<title>C_API&#45;&#45;C_UI</title>
<path fill="none" stroke="orange" d="M995.91,-247.1C1085.89,-229.35 1220.03,-194.14 1320.72,-129.77 1331.86,-122.65 1329.16,-114.17 1340.72,-107.77 1357.74,-98.35 1377.35,-92.11 1396.66,-88.01"/>
</g>
<!-- C_API&#45;&#45;C_OPENLDAP -->
<g id="edge22" class="edge">
<title>C_API&#45;&#45;C_OPENLDAP</title>
<path fill="none" stroke="orange" d="M974.08,-244.72C1065.86,-227.75 1220.08,-214.85 1320.72,-289.77 1341.25,-305.05 1321.1,-327.34 1340.72,-343.77 1349.55,-351.16 1359.7,-356.82 1370.49,-361.12"/>
</g>
<!-- C_API&#45;&#45;C_SOLR -->
<g id="edge23" class="edge">
<title>C_API&#45;&#45;C_SOLR</title>
<path fill="none" stroke="orange" d="M996.08,-252.78C1083.81,-241.45 1214.43,-218.55 1320.72,-174.77 1330.52,-170.73 1330.87,-165.67 1340.72,-161.77 1356.22,-155.63 1373.17,-150.88 1389.93,-147.2"/>
</g>
<!-- C_API&#45;&#45;C_IMAGESERVER -->
<g id="edge24" class="edge">
<title>C_API&#45;&#45;C_IMAGESERVER</title>
<path fill="none" stroke="orange" d="M963.54,-244.73C1055.58,-223.86 1222.47,-202.59 1320.72,-289.77 1357.24,-322.17 1306.12,-363.34 1340.72,-397.77 1346.07,-403.09 1352.08,-407.56 1358.55,-411.3"/>
</g>
<!-- C_MONGODB_PHAIDRA&#45;&#45;C_PIXELGECKO -->
<g id="edge25" class="edge">
<title>C_MONGODB_PHAIDRA&#45;&#45;C_PIXELGECKO</title>
<path fill="none" stroke="orange" d="M1618.47,-280.79C1626.81,-283.39 1634.97,-286.37 1642.72,-289.77 1708.78,-318.76 1772.81,-376.89 1802.89,-406.51"/>
</g>
<!-- C_LAM -->
<g id="node25" class="node">
<title>C_LAM</title>
<polygon fill="none" stroke="green" points="1923.22,-134.77 1720.22,-134.77 1720.22,-130.77 1716.22,-130.77 1716.22,-126.77 1720.22,-126.77 1720.22,-106.77 1716.22,-106.77 1716.22,-102.77 1720.22,-102.77 1720.22,-98.77 1923.22,-98.77 1923.22,-134.77"/>
<polyline fill="none" stroke="green" points="1720.22,-130.77 1724.22,-130.77 1724.22,-126.77 1720.22,-126.77 "/>
<polyline fill="none" stroke="green" points="1720.22,-106.77 1724.22,-106.77 1724.22,-102.77 1720.22,-102.77 "/>
<text text-anchor="middle" x="1821.72" y="-113.07" font-family="Times,serif" font-size="14.00">phaidra&#45;demo&#45;nginx&#45;lam&#45;1</text>
</g>
<!-- C_OPENLDAP&#45;&#45;C_LAM -->
<g id="edge26" class="edge">
<title>C_OPENLDAP&#45;&#45;C_LAM</title>
<path fill="none" stroke="orange" d="M1612.74,-362.57C1623.76,-358.02 1634.03,-351.91 1642.72,-343.77 1691.18,-298.37 1638.79,-251.82 1678.72,-198.77 1701.24,-168.86 1738.09,-148.04 1768.61,-134.87"/>
</g>
<!-- C_DBGATE&#45;&#45;C_MARIADB_PHAIDRA -->
<g id="edge27" class="edge">
<title>C_DBGATE&#45;&#45;C_MARIADB_PHAIDRA</title>
<path fill="none" stroke="orange" d="M1009.96,-316.77C1104.65,-316.77 1240.87,-316.77 1344.16,-316.77"/>
</g>
<!-- C_DBGATE&#45;&#45;C_MONGODB_PHAIDRA -->
<g id="edge28" class="edge">
<title>C_DBGATE&#45;&#45;C_MONGODB_PHAIDRA</title>
<path fill="none" stroke="orange" d="M1009.74,-312.48C1095.15,-308.52 1215.59,-301.45 1320.72,-289.77 1342.26,-287.38 1365.23,-284.17 1387.09,-280.81"/>
</g>
<!-- C_DBGATE&#45;&#45;C_MARIADB_FEDORA -->
<g id="edge29" class="edge">
<title>C_DBGATE&#45;&#45;C_MARIADB_FEDORA</title>
<path fill="none" stroke="orange" d="M974.08,-334.82C1065.86,-351.79 1220.08,-364.69 1320.72,-289.77 1341.25,-274.49 1319.87,-250.61 1340.72,-235.77 1367.76,-216.53 1546.9,-217.36 1678.45,-220.73"/>
</g>
<!-- WEBSERVER&#45;&#45;BIND_NGINX_SITE_CONFIG -->
<g id="edge15" class="edge">
<title>WEBSERVER&#45;&#45;BIND_NGINX_SITE_CONFIG</title>
<path fill="none" stroke="blue" d="M347.03,-253.01C350.6,-309.46 369.84,-482.08 472.72,-558.77 525.82,-598.35 593.77,-614.45 659.6,-618.68"/>
</g>
<!-- WEBSERVER&#45;&#45;BIND_NGINX_SERVER_CONFIG -->
<g id="edge16" class="edge">
<title>WEBSERVER&#45;&#45;BIND_NGINX_SERVER_CONFIG</title>
<path fill="none" stroke="blue" d="M349.63,-252.97C359.37,-299.42 392.03,-422.62 472.72,-477.77 516.02,-507.36 567.84,-524.08 620.12,-532.79"/>
</g>
<!-- WEBSERVER&#45;&#45;C_FEDORA -->
<g id="edge30" class="edge">
<title>WEBSERVER&#45;&#45;C_FEDORA</title>
<path fill="none" stroke="magenta" d="M452.87,-230.48C669.84,-221.76 1160.69,-202.03 1380.58,-193.2"/>
</g>
<!-- WEBSERVER&#45;&#45;C_API -->
<g id="edge31" class="edge">
<title>WEBSERVER&#45;&#45;C_API</title>
<path fill="none" stroke="magenta" d="M452.82,-240.2C552.7,-245.29 700.74,-252.83 797.72,-257.78"/>
</g>
<!-- WEBSERVER&#45;&#45;C_UI -->
<g id="edge32" class="edge">
<title>WEBSERVER&#45;&#45;C_UI</title>
<path fill="none" stroke="magenta" d="M361.11,-216.59C382.71,-191.74 425.36,-148.16 472.72,-129.77 639.41,-65.03 1177.49,-71.97 1396.59,-77.76"/>
</g>
<!-- WEBSERVER&#45;&#45;C_SOLR -->
<g id="edge33" class="edge">
<title>WEBSERVER&#45;&#45;C_SOLR</title>
<path fill="none" stroke="magenta" d="M389.62,-216.75C413.68,-207.59 444.37,-197.27 472.72,-191.77 803.75,-127.49 1205.83,-127.31 1389.91,-131.43"/>
</g>
<!-- WEBSERVER&#45;&#45;C_DBGATE -->
<g id="edge34" class="edge">
<title>WEBSERVER&#45;&#45;C_DBGATE</title>
<path fill="none" stroke="magenta" d="M379.21,-252.89C404.11,-265.62 439.55,-281.76 472.72,-289.77 576.08,-314.73 697.53,-320.11 783.71,-320.07"/>
</g>
<!-- WEBSERVER&#45;&#45;C_LAM -->
<g id="edge35" class="edge">
<title>WEBSERVER&#45;&#45;C_LAM</title>
<path fill="none" stroke="magenta" d="M353.64,-216.53C369.38,-180.62 409.89,-101.49 472.72,-69.77 704.84,47.43 1386.45,-9.76 1642.72,-53.77 1692.32,-62.29 1746.43,-83.24 1781.82,-98.65"/>
</g>
</g>
</svg>
