<?xml version="1.0" encoding="UTF-8" standalone="no"?>
<!DOCTYPE svg PUBLIC "-//W3C//DTD SVG 1.1//EN"
 "http://www.w3.org/Graphics/SVG/1.1/DTD/svg11.dtd">
<!-- Generated by graphviz version 2.43.0 (0)
 -->
<!-- Title: G Pages: 1 -->
<svg width="2654pt" height="526pt"
 viewBox="0.00 0.00 2653.86 526.00" xmlns="http://www.w3.org/2000/svg" xmlns:xlink="http://www.w3.org/1999/xlink">
<g id="graph0" class="graph" transform="scale(1 1) rotate(0) translate(4 522)">
<title>G</title>
<polygon fill="white" stroke="transparent" points="-4,4 -4,-522 2649.86,-522 2649.86,4 -4,4"/>
<g id="clust1" class="cluster">
<title>cluster_host</title>
<polygon fill="none" stroke="red" points="211.86,-8 211.86,-510 2637.86,-510 2637.86,-8 211.86,-8"/>
<text text-anchor="middle" x="1424.86" y="-494.8" font-family="Times,serif" font-size="14.00">PHAIDRA server firewall</text>
</g>
<g id="clust2" class="cluster">
<title>cluster_host_storage</title>
<polygon fill="none" stroke="blue" points="431.86,-365 431.86,-479 2490.86,-479 2490.86,-365 431.86,-365"/>
<text text-anchor="middle" x="1461.36" y="-463.8" font-family="Times,serif" font-size="14.00">PHAIDRA server mounted directories</text>
</g>
<g id="clust3" class="cluster">
<title>cluster_named_volumes</title>
<polygon fill="none" stroke="turquoise" points="935.86,-373 935.86,-448 2482.86,-448 2482.86,-373 935.86,-373"/>
<text text-anchor="middle" x="1709.36" y="-432.8" font-family="Times,serif" font-size="14.00">Named volumes under $HOME/.local/share/docker/volumes/</text>
</g>
<g id="clust4" class="cluster">
<title>cluster_bind_mounts</title>
<polygon fill="none" stroke="blue" points="439.86,-373 439.86,-448 927.86,-448 927.86,-373 439.86,-373"/>
<text text-anchor="middle" x="683.86" y="-432.8" font-family="Times,serif" font-size="14.00">Bind mounts under $PATH/phaidra&#45;docker/container_components/</text>
</g>
<g id="clust5" class="cluster">
<title>cluster_docker_network_host</title>
<polygon fill="none" stroke="green" points="319.86,-16 319.86,-357 2629.86,-357 2629.86,-16 319.86,-16"/>
<text text-anchor="middle" x="1474.86" y="-341.8" font-family="Times,serif" font-size="14.00">PHAIDRA docker network</text>
</g>
<g id="clust6" class="cluster">
<title>cluster_docker_phaidra_system</title>
<polygon fill="none" stroke="green" points="696.86,-24 696.86,-243 1481.86,-243 1481.86,-24 696.86,-24"/>
<text text-anchor="middle" x="1089.36" y="-227.8" font-family="Times,serif" font-size="14.00">PHAIDRA container system</text>
</g>
<g id="clust7" class="cluster">
<title>cluster_docker_network_volumes</title>
<polygon fill="none" stroke="green" points="327.86,-251 327.86,-326 2621.86,-326 2621.86,-251 327.86,-251"/>
<text text-anchor="middle" x="1474.86" y="-310.8" font-family="Times,serif" font-size="14.00">PHAIDRA container volumes</text>
</g>
<!-- USER -->
<g id="node1" class="node">
<title>USER</title>
<polygon fill="none" stroke="black" points="193.59,-391.54 193.59,-406.46 139.27,-417 62.45,-417 8.13,-406.46 8.13,-391.54 62.45,-381 139.27,-381 193.59,-391.54"/>
<polygon fill="none" stroke="black" points="197.59,-388.25 197.59,-409.75 139.66,-421 62.07,-421 4.13,-409.75 4.13,-388.25 62.07,-377 139.66,-377 197.59,-388.25"/>
<polygon fill="none" stroke="black" points="201.58,-384.95 201.58,-413.05 140.04,-425 61.68,-425 0.14,-413.05 0.14,-384.95 61.68,-373 140.04,-373 201.58,-384.95"/>
<text text-anchor="middle" x="100.86" y="-395.3" font-family="Times,serif" font-size="14.00">PHAIDRA USER</text>
</g>
<!-- WEBSERVER -->
<g id="node3" class="node">
<title>WEBSERVER</title>
<polygon fill="none" stroke="magenta" points="311.86,-295 219.86,-295 219.86,-291 215.86,-291 215.86,-287 219.86,-287 219.86,-267 215.86,-267 215.86,-263 219.86,-263 219.86,-259 311.86,-259 311.86,-295"/>
<polyline fill="none" stroke="magenta" points="219.86,-291 223.86,-291 223.86,-287 219.86,-287 "/>
<polyline fill="none" stroke="magenta" points="219.86,-267 223.86,-267 223.86,-263 219.86,-263 "/>
<text text-anchor="middle" x="265.86" y="-273.3" font-family="Times,serif" font-size="14.00">Webserver</text>
</g>
<!-- USER&#45;&#45;WEBSERVER -->
<g id="edge48" class="edge">
<title>USER&#45;&#45;WEBSERVER</title>
<path fill="none" stroke="red" d="M135.45,-372.84C167.58,-349.48 214.55,-315.32 242.48,-295.01"/>
</g>
<!-- ADMIN -->
<g id="node2" class="node">
<title>ADMIN</title>
<polygon fill="none" stroke="black" points="420.34,-391.54 420.34,-406.46 362.65,-417 281.07,-417 223.38,-406.46 223.38,-391.54 281.07,-381 362.65,-381 420.34,-391.54"/>
<polygon fill="none" stroke="black" points="424.34,-388.21 424.34,-409.79 363.01,-421 280.71,-421 219.38,-409.79 219.38,-388.21 280.71,-377 363.01,-377 424.34,-388.21"/>
<text text-anchor="middle" x="321.86" y="-395.3" font-family="Times,serif" font-size="14.00">Developer/Admin</text>
</g>
<!-- DPS1 -->
<g id="node15" class="node">
<title>DPS1</title>
<g id="a_node15"><a xlink:href="https://fedora.lyrasis.org/" xlink:title="fedora">
<polygon fill="none" stroke="green" points="930.86,-140 868.86,-140 868.86,-136 864.86,-136 864.86,-132 868.86,-132 868.86,-112 864.86,-112 864.86,-108 868.86,-108 868.86,-104 930.86,-104 930.86,-140"/>
<polyline fill="none" stroke="green" points="868.86,-136 872.86,-136 872.86,-132 868.86,-132 "/>
<polyline fill="none" stroke="green" points="868.86,-112 872.86,-112 872.86,-108 868.86,-108 "/>
<text text-anchor="middle" x="899.86" y="-118.3" font-family="Times,serif" font-size="14.00">fedora</text>
</a>
</g>
</g>
<!-- WEBSERVER&#45;&#45;DPS1 -->
<g id="edge42" class="edge">
<title>WEBSERVER&#45;&#45;DPS1</title>
<path fill="none" stroke="magenta" d="M299.81,-258.88C307.54,-255.69 315.84,-252.8 323.86,-251 375.07,-239.53 508.82,-255.2 559.86,-243 628.51,-226.59 637.11,-198.95 703.86,-176 771.15,-152.87 792.19,-162 859.86,-140 862.73,-139.07 865.68,-138.01 868.62,-136.89"/>
</g>
<!-- DPS2 -->
<g id="node16" class="node">
<title>DPS2</title>
<g id="a_node16"><a xlink:href="https://github.com/phaidra/phaidra-api" xlink:title="api">
<polygon fill="none" stroke="green" points="850.86,-212 796.86,-212 796.86,-208 792.86,-208 792.86,-204 796.86,-204 796.86,-184 792.86,-184 792.86,-180 796.86,-180 796.86,-176 850.86,-176 850.86,-212"/>
<polyline fill="none" stroke="green" points="796.86,-208 800.86,-208 800.86,-204 796.86,-204 "/>
<polyline fill="none" stroke="green" points="796.86,-184 800.86,-184 800.86,-180 796.86,-180 "/>
<text text-anchor="middle" x="823.86" y="-190.3" font-family="Times,serif" font-size="14.00">api</text>
</a>
</g>
</g>
<!-- WEBSERVER&#45;&#45;DPS2 -->
<g id="edge43" class="edge">
<title>WEBSERVER&#45;&#45;DPS2</title>
<path fill="none" stroke="magenta" d="M299.48,-258.9C307.29,-255.67 315.71,-252.75 323.86,-251 349.06,-245.57 764.9,-254.73 787.86,-243 800.66,-236.46 810.12,-223.02 816.13,-212.03"/>
</g>
<!-- DPS5 -->
<g id="node19" class="node">
<title>DPS5</title>
<g id="a_node19"><a xlink:href="https://github.com/phaidra/phaidra-ui" xlink:title="ui">
<polygon fill="none" stroke="green" points="758.86,-140 704.86,-140 704.86,-136 700.86,-136 700.86,-132 704.86,-132 704.86,-112 700.86,-112 700.86,-108 704.86,-108 704.86,-104 758.86,-104 758.86,-140"/>
<polyline fill="none" stroke="green" points="704.86,-136 708.86,-136 708.86,-132 704.86,-132 "/>
<polyline fill="none" stroke="green" points="704.86,-112 708.86,-112 708.86,-108 704.86,-108 "/>
<text text-anchor="middle" x="731.86" y="-118.3" font-family="Times,serif" font-size="14.00">ui</text>
</a>
</g>
</g>
<!-- WEBSERVER&#45;&#45;DPS5 -->
<g id="edge44" class="edge">
<title>WEBSERVER&#45;&#45;DPS5</title>
<path fill="none" stroke="magenta" d="M303.66,-258.93C310.34,-256.14 317.26,-253.38 323.86,-251 334.13,-247.29 690.78,-144.19 700.86,-140 702.11,-139.48 703.37,-138.93 704.63,-138.35"/>
</g>
<!-- DPS7 -->
<g id="node21" class="node">
<title>DPS7</title>
<g id="a_node21"><a xlink:href="https://solr.apache.org/" xlink:title="solr">
<polygon fill="none" stroke="green" points="850.86,-140 796.86,-140 796.86,-136 792.86,-136 792.86,-132 796.86,-132 796.86,-112 792.86,-112 792.86,-108 796.86,-108 796.86,-104 850.86,-104 850.86,-140"/>
<polyline fill="none" stroke="green" points="796.86,-136 800.86,-136 800.86,-132 796.86,-132 "/>
<polyline fill="none" stroke="green" points="796.86,-112 800.86,-112 800.86,-108 796.86,-108 "/>
<text text-anchor="middle" x="823.86" y="-118.3" font-family="Times,serif" font-size="14.00">solr</text>
</a>
</g>
</g>
<!-- WEBSERVER&#45;&#45;DPS7 -->
<g id="edge45" class="edge">
<title>WEBSERVER&#45;&#45;DPS7</title>
<path fill="none" stroke="magenta" d="M300.15,-258.87C307.78,-255.73 315.96,-252.86 323.86,-251 387.12,-236.13 406.37,-256.87 469.86,-243 549.2,-225.67 562.9,-201.92 639.86,-176 695.87,-157.14 711.14,-156.58 767.86,-140 777.32,-137.23 787.65,-134.12 796.84,-131.33"/>
</g>
<!-- DPS10 -->
<g id="node24" class="node">
<title>DPS10</title>
<polygon fill="none" stroke="green" points="778.86,-212 712.86,-212 712.86,-208 708.86,-208 708.86,-204 712.86,-204 712.86,-184 708.86,-184 708.86,-180 712.86,-180 712.86,-176 778.86,-176 778.86,-212"/>
<polyline fill="none" stroke="green" points="712.86,-208 716.86,-208 716.86,-204 712.86,-204 "/>
<polyline fill="none" stroke="green" points="712.86,-184 716.86,-184 716.86,-180 712.86,-180 "/>
<text text-anchor="middle" x="745.86" y="-190.3" font-family="Times,serif" font-size="14.00">dbgate</text>
</g>
<!-- WEBSERVER&#45;&#45;DPS10 -->
<g id="edge46" class="edge">
<title>WEBSERVER&#45;&#45;DPS10</title>
<path fill="none" stroke="magenta" d="M299.48,-258.93C307.3,-255.69 315.72,-252.77 323.86,-251 344.77,-246.46 689.76,-252.64 708.86,-243 721.82,-236.46 731.56,-223.02 737.79,-212.02"/>
</g>
<!-- DPS11 -->
<g id="node25" class="node">
<title>DPS11</title>
<polygon fill="none" stroke="green" points="788.86,-68 734.86,-68 734.86,-64 730.86,-64 730.86,-60 734.86,-60 734.86,-40 730.86,-40 730.86,-36 734.86,-36 734.86,-32 788.86,-32 788.86,-68"/>
<polyline fill="none" stroke="green" points="734.86,-64 738.86,-64 738.86,-60 734.86,-60 "/>
<polyline fill="none" stroke="green" points="734.86,-40 738.86,-40 738.86,-36 734.86,-36 "/>
<text text-anchor="middle" x="761.86" y="-46.3" font-family="Times,serif" font-size="14.00">lam</text>
</g>
<!-- WEBSERVER&#45;&#45;DPS11 -->
<g id="edge47" class="edge">
<title>WEBSERVER&#45;&#45;DPS11</title>
<path fill="none" stroke="magenta" d="M275.48,-258.85C288.86,-236.53 315.18,-197.81 347.86,-176 476.03,-90.44 664.8,-61.73 734.61,-53.7"/>
</g>
<!-- HS1 -->
<g id="node4" class="node">
<title>HS1</title>
<polygon fill="none" stroke="turquoise" points="1491.86,-417 1488.86,-421 1467.86,-421 1464.86,-417 1367.86,-417 1367.86,-381 1491.86,-381 1491.86,-417"/>
<text text-anchor="middle" x="1429.86" y="-395.3" font-family="Times,serif" font-size="14.00">phaidra_fedora</text>
</g>
<!-- DPV1 -->
<g id="node27" class="node">
<title>DPV1</title>
<polygon fill="none" stroke="green" points="1072.36,-295 1069.36,-299 1048.36,-299 1045.36,-295 843.36,-295 843.36,-259 1072.36,-259 1072.36,-295"/>
<text text-anchor="middle" x="957.86" y="-273.3" font-family="Times,serif" font-size="14.00">/usr/local/tomcat/fcrepo&#45;home</text>
</g>
<!-- HS1&#45;&#45;DPV1 -->
<g id="edge2" class="edge">
<title>HS1&#45;&#45;DPV1</title>
<path fill="none" stroke="turquoise" d="M1400.09,-380.87C1387.74,-374.66 1373.02,-368.34 1358.86,-365 1298.93,-350.84 1140.73,-375.08 1081.86,-357 1040.87,-344.41 1000.28,-314.32 977.21,-295.12"/>
</g>
<!-- DPV3 -->
<g id="node29" class="node">
<title>DPV3</title>
<polygon fill="none" stroke="green" points="825.36,-295 822.36,-299 801.36,-299 798.36,-295 706.36,-295 706.36,-259 825.36,-259 825.36,-295"/>
<text text-anchor="middle" x="765.86" y="-273.3" font-family="Times,serif" font-size="14.00">/mnt/fedora:ro</text>
</g>
<!-- HS1&#45;&#45;DPV3 -->
<g id="edge6" class="edge">
<title>HS1&#45;&#45;DPV3</title>
<path fill="none" stroke="turquoise" d="M1400.46,-380.95C1388.04,-374.66 1373.17,-368.28 1358.86,-365 1330.48,-358.5 861.28,-369.24 834.86,-357 807.11,-344.13 786.06,-314.13 774.88,-295.03"/>
</g>
<!-- DPV11 -->
<g id="node37" class="node">
<title>DPV11</title>
<polygon fill="none" stroke="green" points="2058.36,-295 2055.36,-299 2034.36,-299 2031.36,-295 1939.36,-295 1939.36,-259 2058.36,-259 2058.36,-295"/>
<text text-anchor="middle" x="1998.86" y="-273.3" font-family="Times,serif" font-size="14.00">/mnt/fedora:ro</text>
</g>
<!-- HS1&#45;&#45;DPV11 -->
<g id="edge23" class="edge">
<title>HS1&#45;&#45;DPV11</title>
<path fill="none" stroke="turquoise" d="M1459.27,-380.98C1471.69,-374.69 1486.56,-368.3 1500.86,-365 1524.09,-359.64 1908.25,-367.06 1929.86,-357 1957.6,-344.09 1978.64,-314.1 1989.84,-295.01"/>
</g>
<!-- HS2 -->
<g id="node5" class="node">
<title>HS2</title>
<polygon fill="none" stroke="turquoise" points="1225.86,-417 1222.86,-421 1201.86,-421 1198.86,-417 1089.86,-417 1089.86,-381 1225.86,-381 1225.86,-417"/>
<text text-anchor="middle" x="1157.86" y="-395.3" font-family="Times,serif" font-size="14.00">phaidra_api_logs</text>
</g>
<!-- DPV2 -->
<g id="node28" class="node">
<title>DPV2</title>
<polygon fill="none" stroke="green" points="593.86,-295 590.86,-299 569.86,-299 566.86,-295 463.86,-295 463.86,-259 593.86,-259 593.86,-295"/>
<text text-anchor="middle" x="528.86" y="-273.3" font-family="Times,serif" font-size="14.00">/var/log/phaidra</text>
</g>
<!-- HS2&#45;&#45;DPV2 -->
<g id="edge5" class="edge">
<title>HS2&#45;&#45;DPV2</title>
<path fill="none" stroke="turquoise" d="M1125.81,-380.96C1112.33,-374.67 1096.22,-368.29 1080.86,-365 1054.89,-359.44 627.14,-367.77 602.86,-357 574,-344.2 551.15,-314.18 538.85,-295.05"/>
</g>
<!-- HS5 -->
<g id="node6" class="node">
<title>HS5</title>
<polygon fill="none" stroke="turquoise" points="1933.36,-417 1930.36,-421 1909.36,-421 1906.36,-417 1734.36,-417 1734.36,-381 1933.36,-381 1933.36,-417"/>
<text text-anchor="middle" x="1833.86" y="-395.3" font-family="Times,serif" font-size="14.00">phaidra_mariadb_phaidra</text>
</g>
<!-- DPV5 -->
<g id="node31" class="node">
<title>DPV5</title>
<polygon fill="none" stroke="green" points="1756.86,-295 1753.86,-299 1732.86,-299 1729.86,-295 1642.86,-295 1642.86,-259 1756.86,-259 1756.86,-295"/>
<text text-anchor="middle" x="1699.86" y="-273.3" font-family="Times,serif" font-size="14.00">/var/lib/mysql</text>
</g>
<!-- HS5&#45;&#45;DPV5 -->
<g id="edge10" class="edge">
<title>HS5&#45;&#45;DPV5</title>
<path fill="none" stroke="turquoise" d="M1800.54,-380.88C1788.99,-374.19 1776.33,-365.97 1765.86,-357 1744.15,-338.39 1723.8,-312.18 1711.59,-295.14"/>
</g>
<!-- HS6 -->
<g id="node7" class="node">
<title>HS6</title>
<polygon fill="none" stroke="turquoise" points="1715.86,-417 1712.86,-421 1691.86,-421 1688.86,-417 1509.86,-417 1509.86,-381 1715.86,-381 1715.86,-417"/>
<text text-anchor="middle" x="1612.86" y="-395.3" font-family="Times,serif" font-size="14.00">phaidra_mongodb_phaidra</text>
</g>
<!-- DPV6 -->
<g id="node32" class="node">
<title>DPV6</title>
<polygon fill="none" stroke="green" points="1535.36,-295 1532.36,-299 1511.36,-299 1508.36,-295 1460.36,-295 1460.36,-259 1535.36,-259 1535.36,-295"/>
<text text-anchor="middle" x="1497.86" y="-273.3" font-family="Times,serif" font-size="14.00">/data/db</text>
</g>
<!-- HS6&#45;&#45;DPV6 -->
<g id="edge12" class="edge">
<title>HS6&#45;&#45;DPV6</title>
<path fill="none" stroke="turquoise" d="M1577.31,-380.97C1566.09,-374.5 1554.19,-366.39 1544.86,-357 1526.75,-338.78 1512.83,-312.23 1504.99,-295.04"/>
</g>
<!-- HS7 -->
<g id="node8" class="node">
<title>HS7</title>
<polygon fill="none" stroke="turquoise" points="2094.36,-417 2091.36,-421 2070.36,-421 2067.36,-417 1951.36,-417 1951.36,-381 2094.36,-381 2094.36,-417"/>
<text text-anchor="middle" x="2022.86" y="-395.3" font-family="Times,serif" font-size="14.00">phaidra_openldap</text>
</g>
<!-- DPV7 -->
<g id="node33" class="node">
<title>DPV7</title>
<polygon fill="none" stroke="green" points="1920.86,-295 1917.86,-299 1896.86,-299 1893.86,-295 1774.86,-295 1774.86,-259 1920.86,-259 1920.86,-295"/>
<text text-anchor="middle" x="1847.86" y="-273.3" font-family="Times,serif" font-size="14.00">/bitnami/openldap</text>
</g>
<!-- HS7&#45;&#45;DPV7 -->
<g id="edge15" class="edge">
<title>HS7&#45;&#45;DPV7</title>
<path fill="none" stroke="turquoise" d="M1976.32,-380.92C1961.24,-374.44 1944.81,-366.34 1930.86,-357 1904.25,-339.18 1878.28,-312.53 1862.67,-295.2"/>
</g>
<!-- HS9 -->
<g id="node9" class="node">
<title>HS9</title>
<polygon fill="none" stroke="turquoise" points="1349.36,-417 1346.36,-421 1325.36,-421 1322.36,-417 1244.36,-417 1244.36,-381 1349.36,-381 1349.36,-417"/>
<text text-anchor="middle" x="1296.86" y="-395.3" font-family="Times,serif" font-size="14.00">phaidra_solr</text>
</g>
<!-- DPV9 -->
<g id="node35" class="node">
<title>DPV9</title>
<polygon fill="none" stroke="green" points="687.86,-295 684.86,-299 663.86,-299 660.86,-295 611.86,-295 611.86,-259 687.86,-259 687.86,-295"/>
<text text-anchor="middle" x="649.86" y="-273.3" font-family="Times,serif" font-size="14.00">/var/solr</text>
</g>
<!-- HS9&#45;&#45;DPV9 -->
<g id="edge18" class="edge">
<title>HS9&#45;&#45;DPV9</title>
<path fill="none" stroke="turquoise" d="M1271.44,-380.96C1260.64,-374.67 1247.61,-368.28 1234.86,-365 1205.97,-357.56 723.76,-371.82 697.86,-357 674.6,-343.69 661.26,-314.12 654.8,-295.18"/>
</g>
<!-- HS10 -->
<g id="node10" class="node">
<title>HS10</title>
<polygon fill="none" stroke="turquoise" points="2474.86,-417 2471.86,-421 2450.86,-421 2447.86,-417 2320.86,-417 2320.86,-381 2474.86,-381 2474.86,-417"/>
<text text-anchor="middle" x="2397.86" y="-395.3" font-family="Times,serif" font-size="14.00">phaidra_pixelgecko</text>
</g>
<!-- DPV10 -->
<g id="node36" class="node">
<title>DPV10</title>
<polygon fill="none" stroke="green" points="2412.36,-295 2409.36,-299 2388.36,-299 2385.36,-295 2209.36,-295 2209.36,-259 2412.36,-259 2412.36,-295"/>
<text text-anchor="middle" x="2310.86" y="-273.3" font-family="Times,serif" font-size="14.00">/mnt/converted_images:ro</text>
</g>
<!-- HS10&#45;&#45;DPV10 -->
<g id="edge20" class="edge">
<title>HS10&#45;&#45;DPV10</title>
<path fill="none" stroke="turquoise" d="M2385.4,-380.81C2368.86,-357.99 2339.83,-317.96 2323.3,-295.16"/>
</g>
<!-- DPV12 -->
<g id="node38" class="node">
<title>DPV12</title>
<polygon fill="none" stroke="green" points="2613.36,-295 2610.36,-299 2589.36,-299 2586.36,-295 2430.36,-295 2430.36,-259 2613.36,-259 2613.36,-295"/>
<text text-anchor="middle" x="2521.86" y="-273.3" font-family="Times,serif" font-size="14.00">/mnt/converted_images</text>
</g>
<!-- HS10&#45;&#45;DPV12 -->
<g id="edge24" class="edge">
<title>HS10&#45;&#45;DPV12</title>
<path fill="none" stroke="turquoise" d="M2415.63,-380.81C2439.2,-357.99 2480.57,-317.96 2504.13,-295.16"/>
</g>
<!-- HS13 -->
<g id="node11" class="node">
<title>HS13</title>
<polygon fill="none" stroke="turquoise" points="1071.86,-417 1068.86,-421 1047.86,-421 1044.86,-417 943.86,-417 943.86,-381 1071.86,-381 1071.86,-417"/>
<text text-anchor="middle" x="1007.86" y="-395.3" font-family="Times,serif" font-size="14.00">phaidra_dbgate</text>
</g>
<!-- DPV13 -->
<g id="node39" class="node">
<title>DPV13</title>
<polygon fill="none" stroke="green" points="445.36,-295 442.36,-299 421.36,-299 418.36,-295 336.36,-295 336.36,-259 445.36,-259 445.36,-295"/>
<text text-anchor="middle" x="390.86" y="-273.3" font-family="Times,serif" font-size="14.00">/root/.dbgate</text>
</g>
<!-- HS13&#45;&#45;DPV13 -->
<g id="edge26" class="edge">
<title>HS13&#45;&#45;DPV13</title>
<path fill="none" stroke="turquoise" d="M976.25,-380.96C962.94,-374.67 947.04,-368.29 931.86,-365 905.96,-359.39 478.69,-368.61 454.86,-357 428.36,-344.09 409.2,-314.4 399.08,-295.32"/>
</g>
<!-- HS15 -->
<g id="node12" class="node">
<title>HS15</title>
<polygon fill="none" stroke="turquoise" points="2302.86,-417 2299.86,-421 2278.86,-421 2275.86,-417 2112.86,-417 2112.86,-381 2302.86,-381 2302.86,-417"/>
<text text-anchor="middle" x="2207.86" y="-395.3" font-family="Times,serif" font-size="14.00">phaidra_mariadb_fedora</text>
</g>
<!-- DPV15 -->
<g id="node40" class="node">
<title>DPV15</title>
<polygon fill="none" stroke="green" points="2190.86,-295 2187.86,-299 2166.86,-299 2163.86,-295 2076.86,-295 2076.86,-259 2190.86,-259 2190.86,-295"/>
<text text-anchor="middle" x="2133.86" y="-273.3" font-family="Times,serif" font-size="14.00">/var/lib/mysql</text>
</g>
<!-- HS15&#45;&#45;DPV15 -->
<g id="edge28" class="edge">
<title>HS15&#45;&#45;DPV15</title>
<path fill="none" stroke="turquoise" d="M2197.26,-380.81C2183.19,-357.99 2158.5,-317.96 2144.44,-295.16"/>
</g>
<!-- HS4 -->
<g id="node13" class="node">
<title>HS4</title>
<polygon fill="none" stroke="blue" points="819.86,-417 816.86,-421 795.86,-421 792.86,-417 619.86,-417 619.86,-381 819.86,-381 819.86,-417"/>
<text text-anchor="middle" x="719.86" y="-395.3" font-family="Times,serif" font-size="14.00">mariadb/phaidradb.sql.gz</text>
</g>
<!-- DPV4 -->
<g id="node30" class="node">
<title>DPV4</title>
<polygon fill="none" stroke="green" points="1442.86,-295 1439.86,-299 1418.86,-299 1415.86,-295 1090.86,-295 1090.86,-259 1442.86,-259 1442.86,-295"/>
<text text-anchor="middle" x="1266.86" y="-273.3" font-family="Times,serif" font-size="14.00">/docker&#45;entrypoint&#45;initdb.d/phaidradb.sql.gz:ro</text>
</g>
<!-- HS4&#45;&#45;DPV4 -->
<g id="edge9" class="edge">
<title>HS4&#45;&#45;DPV4</title>
<path fill="none" stroke="blue" d="M766.44,-380.96C785.52,-374.76 807.98,-368.43 828.86,-365 884.37,-355.88 1026.94,-369.14 1081.86,-357 1139.15,-344.33 1200.92,-314.27 1236.62,-295.1"/>
</g>
<!-- HS8 -->
<g id="node14" class="node">
<title>HS8</title>
<polygon fill="none" stroke="blue" points="919.86,-417 916.86,-421 895.86,-421 892.86,-417 837.86,-417 837.86,-381 919.86,-381 919.86,-417"/>
<text text-anchor="middle" x="878.86" y="-395.3" font-family="Times,serif" font-size="14.00">openldap</text>
</g>
<!-- DPV8 -->
<g id="node34" class="node">
<title>DPV8</title>
<polygon fill="none" stroke="green" points="1624.36,-295 1621.36,-299 1600.36,-299 1597.36,-295 1553.36,-295 1553.36,-259 1624.36,-259 1624.36,-295"/>
<text text-anchor="middle" x="1588.86" y="-273.3" font-family="Times,serif" font-size="14.00">/ldifs:ro</text>
</g>
<!-- HS8&#45;&#45;DPV8 -->
<g id="edge16" class="edge">
<title>HS8&#45;&#45;DPV8</title>
<path fill="none" stroke="blue" d="M900.26,-380.96C909.44,-374.68 920.63,-368.29 931.86,-365 964.55,-355.43 1515.61,-374.45 1544.86,-357 1567.38,-343.57 1579.24,-314.04 1584.77,-295.14"/>
</g>
<!-- DPS13 -->
<g id="node26" class="node">
<title>DPS13</title>
<g id="a_node26"><a xlink:href="https://mariadb.org/" xlink:title="mariadb&#45;fedora">
<polygon fill="none" stroke="green" points="962.86,-68 836.86,-68 836.86,-64 832.86,-64 832.86,-60 836.86,-60 836.86,-40 832.86,-40 832.86,-36 836.86,-36 836.86,-32 962.86,-32 962.86,-68"/>
<polyline fill="none" stroke="green" points="836.86,-64 840.86,-64 840.86,-60 836.86,-60 "/>
<polyline fill="none" stroke="green" points="836.86,-40 840.86,-40 840.86,-36 836.86,-36 "/>
<text text-anchor="middle" x="899.86" y="-46.3" font-family="Times,serif" font-size="14.00">mariadb&#45;fedora</text>
</a>
</g>
</g>
<!-- DPS1&#45;&#45;DPS13 -->
<g id="edge29" class="edge">
<title>DPS1&#45;&#45;DPS13</title>
<path fill="none" stroke="orange" d="M899.86,-103.7C899.86,-92.85 899.86,-78.92 899.86,-68.1"/>
</g>
<!-- DPS2&#45;&#45;DPS1 -->
<g id="edge30" class="edge">
<title>DPS2&#45;&#45;DPS1</title>
<path fill="none" stroke="orange" d="M842.65,-175.7C854.43,-164.85 869.55,-150.92 881.29,-140.1"/>
</g>
<!-- DPS3 -->
<g id="node17" class="node">
<title>DPS3</title>
<g id="a_node17"><a xlink:href="https://mariadb.org/" xlink:title="mariadb&#45;phaidra">
<polygon fill="none" stroke="green" points="1244.36,-140 1109.36,-140 1109.36,-136 1105.36,-136 1105.36,-132 1109.36,-132 1109.36,-112 1105.36,-112 1105.36,-108 1109.36,-108 1109.36,-104 1244.36,-104 1244.36,-140"/>
<polyline fill="none" stroke="green" points="1109.36,-136 1113.36,-136 1113.36,-132 1109.36,-132 "/>
<polyline fill="none" stroke="green" points="1109.36,-112 1113.36,-112 1113.36,-108 1109.36,-108 "/>
<text text-anchor="middle" x="1176.86" y="-118.3" font-family="Times,serif" font-size="14.00">mariadb&#45;phaidra</text>
</a>
</g>
</g>
<!-- DPS2&#45;&#45;DPS3 -->
<g id="edge31" class="edge">
<title>DPS2&#45;&#45;DPS3</title>
<path fill="none" stroke="orange" d="M850.94,-188.06C900.45,-178.96 1008.83,-158.79 1099.86,-140 1102.94,-139.36 1106.1,-138.7 1109.28,-138.03"/>
</g>
<!-- DPS4 -->
<g id="node18" class="node">
<title>DPS4</title>
<g id="a_node18"><a xlink:href="https://www.mongodb.com/" xlink:title="mongodb&#45;phaidra">
<polygon fill="none" stroke="green" points="1090.86,-140 948.86,-140 948.86,-136 944.86,-136 944.86,-132 948.86,-132 948.86,-112 944.86,-112 944.86,-108 948.86,-108 948.86,-104 1090.86,-104 1090.86,-140"/>
<polyline fill="none" stroke="green" points="948.86,-136 952.86,-136 952.86,-132 948.86,-132 "/>
<polyline fill="none" stroke="green" points="948.86,-112 952.86,-112 952.86,-108 948.86,-108 "/>
<text text-anchor="middle" x="1019.86" y="-118.3" font-family="Times,serif" font-size="14.00">mongodb&#45;phaidra</text>
</a>
</g>
</g>
<!-- DPS2&#45;&#45;DPS4 -->
<g id="edge32" class="edge">
<title>DPS2&#45;&#45;DPS4</title>
<path fill="none" stroke="orange" d="M851.11,-183.27C882.35,-172.11 934.13,-153.62 972.11,-140.05"/>
</g>
<!-- DPS2&#45;&#45;DPS5 -->
<g id="edge33" class="edge">
<title>DPS2&#45;&#45;DPS5</title>
<path fill="none" stroke="orange" d="M801.12,-175.7C786.86,-164.85 768.55,-150.92 754.34,-140.1"/>
</g>
<!-- DPS6 -->
<g id="node20" class="node">
<title>DPS6</title>
<g id="a_node20"><a xlink:href="https://www.openldap.org/" xlink:title="openldap">
<polygon fill="none" stroke="green" points="1344.86,-140 1262.86,-140 1262.86,-136 1258.86,-136 1258.86,-132 1262.86,-132 1262.86,-112 1258.86,-112 1258.86,-108 1262.86,-108 1262.86,-104 1344.86,-104 1344.86,-140"/>
<polyline fill="none" stroke="green" points="1262.86,-136 1266.86,-136 1266.86,-132 1262.86,-132 "/>
<polyline fill="none" stroke="green" points="1262.86,-112 1266.86,-112 1266.86,-108 1262.86,-108 "/>
<text text-anchor="middle" x="1303.86" y="-118.3" font-family="Times,serif" font-size="14.00">openldap</text>
</a>
</g>
</g>
<!-- DPS2&#45;&#45;DPS6 -->
<g id="edge34" class="edge">
<title>DPS2&#45;&#45;DPS6</title>
<path fill="none" stroke="orange" d="M850.86,-191.6C919.14,-187.64 1103.92,-174.35 1253.86,-140 1256.81,-139.32 1259.83,-138.54 1262.85,-137.69"/>
</g>
<!-- DPS2&#45;&#45;DPS7 -->
<g id="edge35" class="edge">
<title>DPS2&#45;&#45;DPS7</title>
<path fill="none" stroke="orange" d="M823.86,-175.7C823.86,-164.85 823.86,-150.92 823.86,-140.1"/>
</g>
<!-- DPS8 -->
<g id="node22" class="node">
<title>DPS8</title>
<g id="a_node22"><a xlink:href="https://github.com/ruven/iipsrv" xlink:title="imageserver)">
<polygon fill="none" stroke="green" points="1474.36,-140 1363.36,-140 1363.36,-136 1359.36,-136 1359.36,-132 1363.36,-132 1363.36,-112 1359.36,-112 1359.36,-108 1363.36,-108 1363.36,-104 1474.36,-104 1474.36,-140"/>
<polyline fill="none" stroke="green" points="1363.36,-136 1367.36,-136 1367.36,-132 1363.36,-132 "/>
<polyline fill="none" stroke="green" points="1363.36,-112 1367.36,-112 1367.36,-108 1363.36,-108 "/>
<text text-anchor="middle" x="1418.86" y="-118.3" font-family="Times,serif" font-size="14.00">imageserver)</text>
</a>
</g>
</g>
<!-- DPS2&#45;&#45;DPS8 -->
<g id="edge36" class="edge">
<title>DPS2&#45;&#45;DPS8</title>
<path fill="none" stroke="orange" d="M851.09,-191.78C929.64,-187.94 1163.18,-174.25 1353.86,-140 1356.96,-139.44 1360.13,-138.81 1363.32,-138.14"/>
</g>
<!-- DPS9 -->
<g id="node23" class="node">
<title>DPS9</title>
<polygon fill="none" stroke="green" points="1473.86,-68 1381.86,-68 1381.86,-64 1377.86,-64 1377.86,-60 1381.86,-60 1381.86,-40 1377.86,-40 1377.86,-36 1381.86,-36 1381.86,-32 1473.86,-32 1473.86,-68"/>
<polyline fill="none" stroke="green" points="1381.86,-64 1385.86,-64 1385.86,-60 1381.86,-60 "/>
<polyline fill="none" stroke="green" points="1381.86,-40 1385.86,-40 1385.86,-36 1381.86,-36 "/>
<text text-anchor="middle" x="1427.86" y="-46.3" font-family="Times,serif" font-size="14.00">pixelgecko</text>
</g>
<!-- DPS4&#45;&#45;DPS9 -->
<g id="edge37" class="edge">
<title>DPS4&#45;&#45;DPS9</title>
<path fill="none" stroke="orange" d="M1090.94,-105.89C1094.29,-105.24 1097.61,-104.6 1100.86,-104 1200.66,-85.45 1318.28,-67.29 1381.71,-57.79"/>
</g>
<!-- DPS6&#45;&#45;DPS11 -->
<g id="edge38" class="edge">
<title>DPS6&#45;&#45;DPS11</title>
<path fill="none" stroke="orange" d="M1262.61,-106.11C1259.67,-105.32 1256.73,-104.6 1253.86,-104 1067.87,-65.13 1015.19,-99.81 827.86,-68 814.91,-65.8 800.78,-62.31 788.93,-59.07"/>
</g>
<!-- DPS10&#45;&#45;DPS3 -->
<g id="edge39" class="edge">
<title>DPS10&#45;&#45;DPS3</title>
<path fill="none" stroke="orange" d="M779.06,-178.62C782,-177.63 784.96,-176.74 787.86,-176 923.12,-141.5 962.2,-163.08 1099.86,-140 1102.97,-139.48 1106.14,-138.92 1109.33,-138.32"/>
</g>
<!-- DPS10&#45;&#45;DPS4 -->
<g id="edge40" class="edge">
<title>DPS10&#45;&#45;DPS4</title>
<path fill="none" stroke="orange" d="M779.16,-178.96C782.08,-177.9 785.01,-176.9 787.86,-176 803.26,-171.16 886.29,-152.48 948.65,-138.66"/>
</g>
<!-- DPS10&#45;&#45;DPS13 -->
<g id="edge41" class="edge">
<title>DPS10&#45;&#45;DPS13</title>
<path fill="none" stroke="orange" d="M753.16,-175.97C763.66,-151.7 782.4,-109.47 787.86,-104 803.75,-88.1 825.33,-76.34 845.3,-68.01"/>
</g>
<!-- DPV1&#45;&#45;DPS1 -->
<g id="edge1" class="edge">
<title>DPV1&#45;&#45;DPS1</title>
<path fill="none" stroke="green" d="M951.32,-258.75C940.18,-229.36 917.65,-169.93 906.47,-140.43"/>
</g>
<!-- DPV2&#45;&#45;DPS2 -->
<g id="edge3" class="edge">
<title>DPV2&#45;&#45;DPS2</title>
<path fill="none" stroke="green" d="M572.53,-258.98C582.37,-255.78 592.86,-252.87 602.86,-251 623.09,-247.23 769.66,-252.6 787.86,-243 800.39,-236.39 809.77,-223.26 815.81,-212.4"/>
</g>
<!-- DPV3&#45;&#45;DPS2 -->
<g id="edge4" class="edge">
<title>DPV3&#45;&#45;DPS2</title>
<path fill="none" stroke="green" d="M778.16,-258.82C788,-245.08 801.74,-225.89 811.58,-212.15"/>
</g>
<!-- DPV4&#45;&#45;DPS3 -->
<g id="edge7" class="edge">
<title>DPV4&#45;&#45;DPS3</title>
<path fill="none" stroke="green" d="M1256.71,-258.75C1239.43,-229.36 1204.46,-169.93 1187.11,-140.43"/>
</g>
<!-- DPV5&#45;&#45;DPS3 -->
<g id="edge8" class="edge">
<title>DPV5&#45;&#45;DPS3</title>
<path fill="none" stroke="green" d="M1657.16,-258.99C1649.46,-256.16 1641.46,-253.38 1633.86,-251 1619.87,-246.62 1616.03,-246.77 1601.86,-243 1470.35,-208 1316.89,-163.85 1235.14,-140.06"/>
</g>
<!-- DPV6&#45;&#45;DPS4 -->
<g id="edge11" class="edge">
<title>DPV6&#45;&#45;DPS4</title>
<path fill="none" stroke="green" d="M1469.83,-258.86C1464.04,-255.88 1457.88,-253.07 1451.86,-251 1431.41,-243.96 1424.9,-248.02 1403.86,-243 1280.55,-213.6 1139.07,-165.57 1067.17,-140.1"/>
</g>
<!-- DPV7&#45;&#45;DPS6 -->
<g id="edge13" class="edge">
<title>DPV7&#45;&#45;DPS6</title>
<path fill="none" stroke="green" d="M1797.99,-258.88C1787.49,-255.82 1776.39,-252.97 1765.86,-251 1718.99,-242.21 1705.33,-253.74 1658.86,-243 1580.54,-224.9 1567.19,-201.22 1490.86,-176 1431.49,-156.38 1414.77,-157.9 1354.86,-140 1351.64,-139.04 1348.32,-138.01 1344.99,-136.96"/>
</g>
<!-- DPV8&#45;&#45;DPS6 -->
<g id="edge14" class="edge">
<title>DPV8&#45;&#45;DPS6</title>
<path fill="none" stroke="green" d="M1559.1,-258.94C1554.35,-256.26 1549.48,-253.54 1544.86,-251 1470.96,-210.39 1383.31,-164.37 1336.76,-140.1"/>
</g>
<!-- DPV9&#45;&#45;DPS7 -->
<g id="edge17" class="edge">
<title>DPV9&#45;&#45;DPS7</title>
<path fill="none" stroke="green" d="M677.72,-258.95C684.12,-255.75 691.06,-252.84 697.86,-251 715.25,-246.28 847.44,-256.05 859.86,-243 887.15,-214.33 857.44,-165.77 837.99,-140.1"/>
</g>
<!-- DPV10&#45;&#45;DPS8 -->
<g id="edge19" class="edge">
<title>DPV10&#45;&#45;DPS8</title>
<path fill="none" stroke="green" d="M2238.15,-258.98C2225.41,-256.18 2212.27,-253.41 2199.86,-251 1929.1,-198.37 1602.72,-149.57 1474.46,-130.96"/>
</g>
<!-- DPV11&#45;&#45;DPS9 -->
<g id="edge21" class="edge">
<title>DPV11&#45;&#45;DPS9</title>
<path fill="none" stroke="green" d="M1955.47,-258.9C1849.29,-217.06 1577.3,-109.88 1471.18,-68.07"/>
</g>
<!-- DPV12&#45;&#45;DPS9 -->
<g id="edge22" class="edge">
<title>DPV12&#45;&#45;DPS9</title>
<path fill="none" stroke="green" d="M2455.53,-258.96C2444.32,-256.21 2432.77,-253.46 2421.86,-251 2058.25,-169.01 1616.09,-85.82 1474.1,-59.51"/>
</g>
<!-- DPV13&#45;&#45;DPS10 -->
<g id="edge25" class="edge">
<title>DPV13&#45;&#45;DPS10</title>
<path fill="none" stroke="green" d="M428.12,-259C436.73,-255.76 445.98,-252.82 454.86,-251 482.52,-245.34 683.72,-255.86 708.86,-243 721.6,-236.48 731.25,-223.34 737.49,-212.46"/>
</g>
<!-- DPV15&#45;&#45;DPS13 -->
<g id="edge27" class="edge">
<title>DPV15&#45;&#45;DPS13</title>
<path fill="none" stroke="green" d="M2090.8,-258.87C2083.21,-256.09 2075.34,-253.35 2067.86,-251 1812.51,-170.79 1747.72,-148.9 1483.86,-104 1295.93,-72.02 1070.48,-58.47 962.93,-53.5"/>
</g>
</g>
</svg>
