<?xml version="1.0" encoding="UTF-8" standalone="no"?>
<!DOCTYPE svg PUBLIC "-//W3C//DTD SVG 1.1//EN"
 "http://www.w3.org/Graphics/SVG/1.1/DTD/svg11.dtd">
<!-- Generated by graphviz version 2.43.0 (0)
 -->
<!-- Title: G Pages: 1 -->
<svg width="2111pt" height="1906pt"
 viewBox="0.00 0.00 2111.00 1906.32" xmlns="http://www.w3.org/2000/svg" xmlns:xlink="http://www.w3.org/1999/xlink">
<g id="graph0" class="graph" transform="scale(1 1) rotate(0) translate(4 1902.32)">
<title>G</title>
<polygon fill="white" stroke="transparent" points="-4,4 -4,-1902.32 2107,-1902.32 2107,4 -4,4"/>
<g id="clust1" class="cluster">
<title>cluster_host</title>
<polygon fill="none" stroke="red" points="8,-10.32 8,-1890.32 2095,-1890.32 2095,-10.32 8,-10.32"/>
<text text-anchor="middle" x="1051.5" y="-1875.12" font-family="Times,serif" font-size="14.00">PHAIDRA server firewall</text>
</g>
<g id="clust2" class="cluster">
<title>cluster_host_storage</title>
<polygon fill="none" stroke="black" points="626,-733.32 626,-1859.32 1461,-1859.32 1461,-733.32 626,-733.32"/>
<text text-anchor="middle" x="1043.5" y="-1844.12" font-family="Times,serif" font-size="14.00">PHAIDRA server filesystem</text>
</g>
<g id="clust3" class="cluster">
<title>cluster_named_volumes</title>
<polygon fill="none" stroke="turquoise" points="634,-741.32 634,-1828.32 1453,-1828.32 1453,-741.32 634,-741.32"/>
<text text-anchor="middle" x="1043.5" y="-1813.12" font-family="Times,serif" font-size="14.00">Named volumes</text>
</g>
<g id="clust4" class="cluster">
<title>cluster_docker_network_host</title>
<polygon fill="none" stroke="green" points="16,-78.32 16,-725.32 2087,-725.32 2087,-78.32 16,-78.32"/>
<text text-anchor="middle" x="1051.5" y="-710.12" font-family="Times,serif" font-size="14.00">PHAIDRA docker containers</text>
</g>
<!-- USER -->
<g id="node1" class="node">
<title>USER</title>
<polygon fill="none" stroke="black" points="247.73,-36.86 247.73,-51.77 193.41,-62.32 116.59,-62.32 62.27,-51.77 62.27,-36.86 116.59,-26.32 193.41,-26.32 247.73,-36.86"/>
<polygon fill="none" stroke="black" points="251.73,-33.56 251.73,-55.07 193.79,-66.32 116.21,-66.32 58.27,-55.07 58.27,-33.56 116.21,-22.32 193.79,-22.32 251.73,-33.56"/>
<polygon fill="none" stroke="black" points="255.72,-30.26 255.72,-58.37 194.18,-70.32 115.82,-70.32 54.28,-58.37 54.28,-30.26 115.82,-18.32 194.18,-18.32 255.72,-30.26"/>
<text text-anchor="middle" x="155" y="-40.62" font-family="Times,serif" font-size="14.00">PHAIDRA USER</text>
</g>
<!-- C_HTTPD -->
<g id="node29" class="node">
<title>C_HTTPD</title>
<polygon fill="none" stroke="green" points="606,-296.32 322,-296.32 322,-292.32 318,-292.32 318,-288.32 322,-288.32 322,-268.32 318,-268.32 318,-264.32 322,-264.32 322,-260.32 606,-260.32 606,-296.32"/>
<polyline fill="none" stroke="green" points="322,-292.32 326,-292.32 326,-288.32 322,-288.32 "/>
<polyline fill="none" stroke="green" points="322,-268.32 326,-268.32 326,-264.32 322,-264.32 "/>
<text text-anchor="middle" x="464" y="-274.62" font-family="Times,serif" font-size="14.00">$PROJECT_NAME&#45;httpd&#45;demo&#45;local&#45;1</text>
</g>
<!-- USER&#45;&#45;C_HTTPD -->
<g id="edge65" class="edge">
<title>USER&#45;&#45;C_HTTPD</title>
<path fill="none" stroke="green" d="M252.09,-59.17C263.97,-63.09 275.58,-68.05 286,-74.32 366.36,-122.65 429.19,-219.98 452.83,-260.24"/>
</g>
<!-- HS_FEDORA -->
<g id="node2" class="node">
<title>HS_FEDORA</title>
<polygon fill="none" stroke="turquoise" points="1379.5,-1635.32 1376.5,-1639.32 1355.5,-1639.32 1352.5,-1635.32 707.5,-1635.32 707.5,-1541.32 1379.5,-1541.32 1379.5,-1635.32"/>
<text text-anchor="start" x="719.5" y="-1617.12" font-family="Times,serif" font-weight="bold" font-size="14.00">host:</text>
<text text-anchor="start" x="878.5" y="-1616.12" font-family="Times,serif" font-size="14.00">$HOME/.local/share/docker/volumes/$PROJECT_NAME_fedora/_data</text>
<text text-anchor="start" x="719.5" y="-1595.12" font-family="Times,serif" font-size="14.00">fedora&#45;container:</text>
<text text-anchor="start" x="878.5" y="-1595.12" font-family="Times,serif" font-size="14.00">/usr/local/tomcat/fcrepo&#45;home</text>
<text text-anchor="start" x="719.5" y="-1574.12" font-family="Times,serif" font-size="14.00">pixelgecko&#45;container:</text>
<text text-anchor="start" x="878.5" y="-1574.12" font-family="Times,serif" font-size="14.00"> /mnt/fedora:ro</text>
<text text-anchor="start" x="719.5" y="-1553.12" font-family="Times,serif" font-size="14.00">api&#45;container:</text>
<text text-anchor="start" x="878.5" y="-1553.12" font-family="Times,serif" font-size="14.00"> /mnt/fedora:ro</text>
</g>
<!-- C_FEDORA -->
<g id="node16" class="node">
<title>C_FEDORA</title>
<g id="a_node16"><a xlink:href="https://fedora.lyrasis.org/" xlink:title="$PROJECT_NAME&#45;fedora&#45;1">
<polygon fill="none" stroke="green" points="1730,-398.32 1521,-398.32 1521,-394.32 1517,-394.32 1517,-390.32 1521,-390.32 1521,-370.32 1517,-370.32 1517,-366.32 1521,-366.32 1521,-362.32 1730,-362.32 1730,-398.32"/>
<polyline fill="none" stroke="green" points="1521,-394.32 1525,-394.32 1525,-390.32 1521,-390.32 "/>
<polyline fill="none" stroke="green" points="1521,-370.32 1525,-370.32 1525,-366.32 1521,-366.32 "/>
<text text-anchor="middle" x="1625.5" y="-376.62" font-family="Times,serif" font-size="14.00">$PROJECT_NAME&#45;fedora&#45;1</text>
</a>
</g>
</g>
<!-- HS_FEDORA&#45;&#45;C_FEDORA -->
<g id="edge1" class="edge">
<title>HS_FEDORA&#45;&#45;C_FEDORA</title>
<path fill="none" stroke="turquoise" d="M1379.94,-1587.9C1410.64,-1575.44 1438.56,-1557.52 1461,-1532.32 1502.57,-1485.63 1440.67,-455.08 1481,-407.32 1491.39,-395.02 1505.45,-387.16 1520.73,-382.3"/>
</g>
<!-- C_API -->
<g id="node17" class="node">
<title>C_API</title>
<g id="a_node17"><a xlink:href="https://github.com/phaidra/phaidra-api" xlink:title="$PROJECT_NAME&#45;api&#45;1">
<polygon fill="none" stroke="green" points="1136,-376.32 951,-376.32 951,-372.32 947,-372.32 947,-368.32 951,-368.32 951,-348.32 947,-348.32 947,-344.32 951,-344.32 951,-340.32 1136,-340.32 1136,-376.32"/>
<polyline fill="none" stroke="green" points="951,-372.32 955,-372.32 955,-368.32 951,-368.32 "/>
<polyline fill="none" stroke="green" points="951,-348.32 955,-348.32 955,-344.32 951,-344.32 "/>
<text text-anchor="middle" x="1043.5" y="-354.62" font-family="Times,serif" font-size="14.00">$PROJECT_NAME&#45;api&#45;1</text>
</a>
</g>
</g>
<!-- HS_FEDORA&#45;&#45;C_API -->
<g id="edge2" class="edge">
<title>HS_FEDORA&#45;&#45;C_API</title>
<path fill="none" stroke="turquoise" d="M707.42,-1604.62C667.41,-1589.79 634.29,-1564.38 616,-1523.32 603.92,-1496.19 603.92,-481.44 616,-454.32 668.92,-335.5 841.88,-332.58 950.91,-343.74"/>
</g>
<!-- C_PIXELGECKO -->
<g id="node24" class="node">
<title>C_PIXELGECKO</title>
<polygon fill="none" stroke="green" points="2062,-694.32 1823,-694.32 1823,-690.32 1819,-690.32 1819,-686.32 1823,-686.32 1823,-666.32 1819,-666.32 1819,-662.32 1823,-662.32 1823,-658.32 2062,-658.32 2062,-694.32"/>
<polyline fill="none" stroke="green" points="1823,-690.32 1827,-690.32 1827,-686.32 1823,-686.32 "/>
<polyline fill="none" stroke="green" points="1823,-666.32 1827,-666.32 1827,-662.32 1823,-662.32 "/>
<text text-anchor="middle" x="1942.5" y="-672.62" font-family="Times,serif" font-size="14.00">$PROJECT_NAME&#45;pixelgecko&#45;1</text>
</g>
<!-- HS_FEDORA&#45;&#45;C_PIXELGECKO -->
<g id="edge8" class="edge">
<title>HS_FEDORA&#45;&#45;C_PIXELGECKO</title>
<path fill="none" stroke="turquoise" d="M1379.68,-1582.5C1409.68,-1570.87 1437.53,-1554.62 1461,-1532.32 1496.07,-1498.99 1463.59,-1470.46 1481,-1425.32 1603.6,-1107.35 1862.58,-774.34 1926.84,-694.35"/>
</g>
<!-- HS_MARIADB_PHAIDRA -->
<g id="node3" class="node">
<title>HS_MARIADB_PHAIDRA</title>
<polygon fill="none" stroke="turquoise" points="1438.5,-1173.32 1435.5,-1177.32 1414.5,-1177.32 1411.5,-1173.32 648.5,-1173.32 648.5,-1121.32 1438.5,-1121.32 1438.5,-1173.32"/>
<text text-anchor="start" x="660.5" y="-1155.12" font-family="Times,serif" font-weight="bold" font-size="14.00">host:</text>
<text text-anchor="start" x="862.5" y="-1154.12" font-family="Times,serif" font-size="14.00">$HOME/.local/share/docker/volumes/$PROJECT_NAME_mariadb_phaidra/_data</text>
<text text-anchor="start" x="660.5" y="-1133.12" font-family="Times,serif" font-size="14.00">mariadb&#45;phaidra&#45;container:</text>
<text text-anchor="start" x="862.5" y="-1133.12" font-family="Times,serif" font-size="14.00">/var/lib/mysql</text>
</g>
<!-- C_MARIADB_PHAIDRA -->
<g id="node18" class="node">
<title>C_MARIADB_PHAIDRA</title>
<g id="a_node18"><a xlink:href="https://mariadb.org/" xlink:title="$PROJECT_NAME&#45;mariadb&#45;phaidra&#45;1">
<polygon fill="none" stroke="green" points="1766.5,-290.32 1484.5,-290.32 1484.5,-286.32 1480.5,-286.32 1480.5,-282.32 1484.5,-282.32 1484.5,-262.32 1480.5,-262.32 1480.5,-258.32 1484.5,-258.32 1484.5,-254.32 1766.5,-254.32 1766.5,-290.32"/>
<polyline fill="none" stroke="green" points="1484.5,-286.32 1488.5,-286.32 1488.5,-282.32 1484.5,-282.32 "/>
<polyline fill="none" stroke="green" points="1484.5,-262.32 1488.5,-262.32 1488.5,-258.32 1484.5,-258.32 "/>
<text text-anchor="middle" x="1625.5" y="-268.62" font-family="Times,serif" font-size="14.00">$PROJECT_NAME&#45;mariadb&#45;phaidra&#45;1</text>
</a>
</g>
</g>
<!-- HS_MARIADB_PHAIDRA&#45;&#45;C_MARIADB_PHAIDRA -->
<g id="edge3" class="edge">
<title>HS_MARIADB_PHAIDRA&#45;&#45;C_MARIADB_PHAIDRA</title>
<path fill="none" stroke="turquoise" d="M1438.58,-1127.61C1447.92,-1123.2 1455.53,-1118.13 1461,-1112.32 1491.99,-1079.44 1451.73,-333.74 1481,-299.32 1483.79,-296.04 1486.85,-293.07 1490.11,-290.39"/>
</g>
<!-- HS_MONGODB_PHAIDRA -->
<g id="node4" class="node">
<title>HS_MONGODB_PHAIDRA</title>
<polygon fill="none" stroke="turquoise" points="1445,-871.32 1442,-875.32 1421,-875.32 1418,-871.32 642,-871.32 642,-819.32 1445,-819.32 1445,-871.32"/>
<text text-anchor="start" x="654.5" y="-853.12" font-family="Times,serif" font-weight="bold" font-size="14.00">host:</text>
<text text-anchor="start" x="862.5" y="-852.12" font-family="Times,serif" font-size="14.00">$HOME/.local/share/docker/volumes/$PROJECT_NAME_mongodb_phaidra/_data</text>
<text text-anchor="start" x="654.5" y="-831.12" font-family="Times,serif" font-size="14.00">phaidra&#45;mongodb&#45;container:</text>
<text text-anchor="start" x="862.5" y="-831.12" font-family="Times,serif" font-size="14.00">/data/db</text>
</g>
<!-- C_MONGODB_PHAIDRA -->
<g id="node19" class="node">
<title>C_MONGODB_PHAIDRA</title>
<g id="a_node19"><a xlink:href="https://www.mongodb.com/" xlink:title="$PROJECT_NAME&#45;mongodb&#45;phaidra&#45;1">
<polygon fill="none" stroke="green" points="1770,-566.32 1481,-566.32 1481,-562.32 1477,-562.32 1477,-558.32 1481,-558.32 1481,-538.32 1477,-538.32 1477,-534.32 1481,-534.32 1481,-530.32 1770,-530.32 1770,-566.32"/>
<polyline fill="none" stroke="green" points="1481,-562.32 1485,-562.32 1485,-558.32 1481,-558.32 "/>
<polyline fill="none" stroke="green" points="1481,-538.32 1485,-538.32 1485,-534.32 1481,-534.32 "/>
<text text-anchor="middle" x="1625.5" y="-544.62" font-family="Times,serif" font-size="14.00">$PROJECT_NAME&#45;mongodb&#45;phaidra&#45;1</text>
</a>
</g>
</g>
<!-- HS_MONGODB_PHAIDRA&#45;&#45;C_MONGODB_PHAIDRA -->
<g id="edge4" class="edge">
<title>HS_MONGODB_PHAIDRA&#45;&#45;C_MONGODB_PHAIDRA</title>
<path fill="none" stroke="turquoise" d="M1156.7,-871.35C1251.2,-886 1383.09,-888.14 1461,-810.32 1498.08,-773.28 1445.86,-614.2 1481,-575.32 1483.97,-572.03 1487.21,-569.06 1490.67,-566.39"/>
</g>
<!-- HS_OPENLDAP -->
<g id="node5" class="node">
<title>HS_OPENLDAP</title>
<polygon fill="none" stroke="turquoise" points="1383.5,-801.32 1380.5,-805.32 1359.5,-805.32 1356.5,-801.32 703.5,-801.32 703.5,-749.32 1383.5,-749.32 1383.5,-801.32"/>
<text text-anchor="start" x="715.5" y="-783.12" font-family="Times,serif" font-weight="bold" font-size="14.00">host:</text>
<text text-anchor="start" x="863.5" y="-782.12" font-family="Times,serif" font-size="14.00">$HOME/.local/share/docker/volumes/$PROJECT_NAME_openldap/_data</text>
<text text-anchor="start" x="715.5" y="-761.12" font-family="Times,serif" font-size="14.00">openldap&#45;container:</text>
<text text-anchor="start" x="863.5" y="-761.12" font-family="Times,serif" font-size="14.00">/bitnami/openldap</text>
</g>
<!-- C_OPENLDAP -->
<g id="node21" class="node">
<title>C_OPENLDAP</title>
<g id="a_node21"><a xlink:href="https://www.openldap.org/" xlink:title="$PROJECT_NAME&#45;openldap&#45;1">
<polygon fill="none" stroke="green" points="1740,-236.32 1511,-236.32 1511,-232.32 1507,-232.32 1507,-228.32 1511,-228.32 1511,-208.32 1507,-208.32 1507,-204.32 1511,-204.32 1511,-200.32 1740,-200.32 1740,-236.32"/>
<polyline fill="none" stroke="green" points="1511,-232.32 1515,-232.32 1515,-228.32 1511,-228.32 "/>
<polyline fill="none" stroke="green" points="1511,-208.32 1515,-208.32 1515,-204.32 1511,-204.32 "/>
<text text-anchor="middle" x="1625.5" y="-214.62" font-family="Times,serif" font-size="14.00">$PROJECT_NAME&#45;openldap&#45;1</text>
</a>
</g>
</g>
<!-- HS_OPENLDAP&#45;&#45;C_OPENLDAP -->
<g id="edge5" class="edge">
<title>HS_OPENLDAP&#45;&#45;C_OPENLDAP</title>
<path fill="none" stroke="turquoise" d="M1180.24,-801.35C1273.03,-810.57 1391.37,-803.9 1461,-729.32 1497.73,-689.97 1445.79,-286.03 1481,-245.32 1489.13,-235.92 1499.4,-229.14 1510.7,-224.3"/>
</g>
<!-- HS_SOLR -->
<g id="node6" class="node">
<title>HS_SOLR</title>
<polygon fill="none" stroke="turquoise" points="1345.5,-1383.32 1342.5,-1387.32 1321.5,-1387.32 1318.5,-1383.32 741.5,-1383.32 741.5,-1331.32 1345.5,-1331.32 1345.5,-1383.32"/>
<text text-anchor="start" x="753.5" y="-1365.12" font-family="Times,serif" font-weight="bold" font-size="14.00">host:</text>
<text text-anchor="start" x="863.5" y="-1364.12" font-family="Times,serif" font-size="14.00">$HOME/.local/share/docker/volumes/$PROJECT_NAME_solr/_data</text>
<text text-anchor="start" x="753.5" y="-1343.12" font-family="Times,serif" font-size="14.00">solr&#45;container:</text>
<text text-anchor="start" x="863.5" y="-1343.12" font-family="Times,serif" font-size="14.00">/var/solr</text>
</g>
<!-- C_SOLR -->
<g id="node22" class="node">
<title>C_SOLR</title>
<g id="a_node22"><a xlink:href="https://solr.apache.org/" xlink:title="$PROJECT_NAME&#45;solr&#45;1">
<polygon fill="none" stroke="green" points="1721,-344.32 1530,-344.32 1530,-340.32 1526,-340.32 1526,-336.32 1530,-336.32 1530,-316.32 1526,-316.32 1526,-312.32 1530,-312.32 1530,-308.32 1721,-308.32 1721,-344.32"/>
<polyline fill="none" stroke="green" points="1530,-340.32 1534,-340.32 1534,-336.32 1530,-336.32 "/>
<polyline fill="none" stroke="green" points="1530,-316.32 1534,-316.32 1534,-312.32 1530,-312.32 "/>
<text text-anchor="middle" x="1625.5" y="-322.62" font-family="Times,serif" font-size="14.00">$PROJECT_NAME&#45;solr&#45;1</text>
</a>
</g>
</g>
<!-- HS_SOLR&#45;&#45;C_SOLR -->
<g id="edge6" class="edge">
<title>HS_SOLR&#45;&#45;C_SOLR</title>
<path fill="none" stroke="turquoise" d="M1345.73,-1359.44C1398.34,-1353.53 1442.25,-1342.29 1461,-1322.32 1497.85,-1283.06 1446.2,-394.41 1481,-353.32 1493.45,-338.62 1511.16,-330.26 1529.9,-325.79"/>
</g>
<!-- HS_PIXELGECKO -->
<g id="node7" class="node">
<title>HS_PIXELGECKO</title>
<polygon fill="none" stroke="turquoise" points="1401,-1726.82 1398,-1730.82 1377,-1730.82 1374,-1726.82 686,-1726.82 686,-1653.82 1401,-1653.82 1401,-1726.82"/>
<text text-anchor="start" x="698.5" y="-1708.12" font-family="Times,serif" font-weight="bold" font-size="14.00">host:</text>
<text text-anchor="start" x="870.5" y="-1707.12" font-family="Times,serif" font-size="14.00">$HOME/.local/share/docker/volumes/$PROJECT_NAME_pixelgecko/_data</text>
<text text-anchor="start" x="698.5" y="-1686.12" font-family="Times,serif" font-size="14.00">pixelgecko&#45;container:</text>
<text text-anchor="start" x="870.5" y="-1686.12" font-family="Times,serif" font-size="14.00">/mnt/converted_images</text>
<text text-anchor="start" x="698.5" y="-1665.12" font-family="Times,serif" font-size="14.00">imageserver&#45;container:</text>
<text text-anchor="start" x="870.5" y="-1665.12" font-family="Times,serif" font-size="14.00">/mnt/converted_images:ro</text>
</g>
<!-- C_IMAGESERVER -->
<g id="node23" class="node">
<title>C_IMAGESERVER</title>
<g id="a_node23"><a xlink:href="https://github.com/ruven/iipsrv" xlink:title="$PROJECT_NAME&#45;imageserver&#45;1">
<polygon fill="none" stroke="green" points="1752,-452.32 1499,-452.32 1499,-448.32 1495,-448.32 1495,-444.32 1499,-444.32 1499,-424.32 1495,-424.32 1495,-420.32 1499,-420.32 1499,-416.32 1752,-416.32 1752,-452.32"/>
<polyline fill="none" stroke="green" points="1499,-448.32 1503,-448.32 1503,-444.32 1499,-444.32 "/>
<polyline fill="none" stroke="green" points="1499,-424.32 1503,-424.32 1503,-420.32 1499,-420.32 "/>
<text text-anchor="middle" x="1625.5" y="-430.62" font-family="Times,serif" font-size="14.00">$PROJECT_NAME&#45;imageserver&#45;1</text>
</a>
</g>
</g>
<!-- HS_PIXELGECKO&#45;&#45;C_IMAGESERVER -->
<g id="edge7" class="edge">
<title>HS_PIXELGECKO&#45;&#45;C_IMAGESERVER</title>
<path fill="none" stroke="turquoise" d="M1401.42,-1688.73C1423.59,-1677.66 1443.84,-1663.13 1461,-1644.32 1503.04,-1598.21 1449.9,-575.41 1481,-521.32 1500.1,-488.11 1537.44,-466.06 1569.24,-452.47"/>
</g>
<!-- HS_PIXELGECKO&#45;&#45;C_PIXELGECKO -->
<g id="edge9" class="edge">
<title>HS_PIXELGECKO&#45;&#45;C_PIXELGECKO</title>
<path fill="none" stroke="turquoise" d="M1401.15,-1672.91C1422.09,-1665.23 1442.23,-1655.81 1461,-1644.32 1831.78,-1417.2 1925.02,-807.99 1939.36,-694.62"/>
</g>
<!-- HS_DBGATE -->
<g id="node8" class="node">
<title>HS_DBGATE</title>
<polygon fill="none" stroke="turquoise" points="1368.5,-1313.32 1365.5,-1317.32 1344.5,-1317.32 1341.5,-1313.32 718.5,-1313.32 718.5,-1261.32 1368.5,-1261.32 1368.5,-1313.32"/>
<text text-anchor="start" x="730.5" y="-1295.12" font-family="Times,serif" font-weight="bold" font-size="14.00">host:</text>
<text text-anchor="start" x="863.5" y="-1294.12" font-family="Times,serif" font-size="14.00">$HOME/.local/share/docker/volumes/$PROJECT_NAME_dbgate/_data</text>
<text text-anchor="start" x="730.5" y="-1273.12" font-family="Times,serif" font-size="14.00">dbgate&#45;container:</text>
<text text-anchor="start" x="863.5" y="-1273.12" font-family="Times,serif" font-size="14.00">/root/.dbgate</text>
</g>
<!-- C_DBGATE -->
<g id="node25" class="node">
<title>C_DBGATE</title>
<polygon fill="none" stroke="green" points="1150,-242.32 937,-242.32 937,-238.32 933,-238.32 933,-234.32 937,-234.32 937,-214.32 933,-214.32 933,-210.32 937,-210.32 937,-206.32 1150,-206.32 1150,-242.32"/>
<polyline fill="none" stroke="green" points="937,-238.32 941,-238.32 941,-234.32 937,-234.32 "/>
<polyline fill="none" stroke="green" points="937,-214.32 941,-214.32 941,-210.32 937,-210.32 "/>
<text text-anchor="middle" x="1043.5" y="-220.62" font-family="Times,serif" font-size="14.00">$PROJECT_NAME&#45;dbgate&#45;1</text>
</g>
<!-- HS_DBGATE&#45;&#45;C_DBGATE -->
<g id="edge10" class="edge">
<title>HS_DBGATE&#45;&#45;C_DBGATE</title>
<path fill="none" stroke="turquoise" d="M718.49,-1290.31C667.14,-1282.66 627.16,-1268.37 616,-1243.32 605.8,-1220.4 605.8,-363.23 616,-340.32 667.23,-225.28 827.83,-209.95 936.93,-213.84"/>
</g>
<!-- HS_MARIADB_FEDORA -->
<g id="node9" class="node">
<title>HS_MARIADB_FEDORA</title>
<polygon fill="none" stroke="turquoise" points="1429.5,-1797.32 1426.5,-1801.32 1405.5,-1801.32 1402.5,-1797.32 657.5,-1797.32 657.5,-1745.32 1429.5,-1745.32 1429.5,-1797.32"/>
<text text-anchor="start" x="669.5" y="-1779.12" font-family="Times,serif" font-weight="bold" font-size="14.00">host:</text>
<text text-anchor="start" x="862.5" y="-1778.12" font-family="Times,serif" font-size="14.00">$HOME/.local/share/docker/volumes/$PROJECT_NAME_mariadb_fedora/_data</text>
<text text-anchor="start" x="669.5" y="-1757.12" font-family="Times,serif" font-size="14.00">mariadb&#45;fedora&#45;container:</text>
<text text-anchor="start" x="862.5" y="-1757.12" font-family="Times,serif" font-size="14.00">/var/lib/mysql</text>
</g>
<!-- C_MARIADB_FEDORA -->
<g id="node27" class="node">
<title>C_MARIADB_FEDORA</title>
<g id="a_node27"><a xlink:href="https://mariadb.org/" xlink:title="$PROJECT_NAME&#45;mariadb&#45;fedora&#45;1">
<polygon fill="none" stroke="green" points="2079,-499.32 1806,-499.32 1806,-495.32 1802,-495.32 1802,-491.32 1806,-491.32 1806,-471.32 1802,-471.32 1802,-467.32 1806,-467.32 1806,-463.32 2079,-463.32 2079,-499.32"/>
<polyline fill="none" stroke="green" points="1806,-495.32 1810,-495.32 1810,-491.32 1806,-491.32 "/>
<polyline fill="none" stroke="green" points="1806,-471.32 1810,-471.32 1810,-467.32 1806,-467.32 "/>
<text text-anchor="middle" x="1942.5" y="-477.62" font-family="Times,serif" font-size="14.00">$PROJECT_NAME&#45;mariadb&#45;fedora&#45;1</text>
</a>
</g>
</g>
<!-- HS_MARIADB_FEDORA&#45;&#45;C_MARIADB_FEDORA -->
<g id="edge11" class="edge">
<title>HS_MARIADB_FEDORA&#45;&#45;C_MARIADB_FEDORA</title>
<path fill="none" stroke="turquoise" d="M1191.76,-1797.35C1279.2,-1804.24 1387.08,-1796.66 1461,-1736.32 1838.83,-1427.89 1641.38,-1153.79 1770,-683.32 1787.17,-620.52 1764,-591.07 1806,-541.32 1822.43,-521.86 1846.42,-508.47 1869.66,-499.38"/>
</g>
<!-- HS_DATABASE_DUMPS -->
<g id="node10" class="node">
<title>HS_DATABASE_DUMPS</title>
<polygon fill="none" stroke="turquoise" points="1437.5,-1033.32 1434.5,-1037.32 1413.5,-1037.32 1410.5,-1033.32 649.5,-1033.32 649.5,-981.32 1437.5,-981.32 1437.5,-1033.32"/>
<text text-anchor="start" x="661.5" y="-1015.12" font-family="Times,serif" font-weight="bold" font-size="14.00">host:</text>
<text text-anchor="start" x="800.5" y="-1014.12" font-family="Times,serif" font-size="14.00">$HOME/.local/share/docker/volumes/$PROJECT_NAME_chronos_database_dumps/_data</text>
<text text-anchor="start" x="661.5" y="-993.12" font-family="Times,serif" font-size="14.00">chronos&#45;container:</text>
<text text-anchor="start" x="800.5" y="-993.12" font-family="Times,serif" font-size="14.00">/mnt/database&#45;dumps</text>
</g>
<!-- HS_SITEMAPS -->
<g id="node11" class="node">
<title>HS_SITEMAPS</title>
<polygon fill="none" stroke="turquoise" points="1410.5,-962.82 1407.5,-966.82 1386.5,-966.82 1383.5,-962.82 676.5,-962.82 676.5,-889.82 1410.5,-889.82 1410.5,-962.82"/>
<text text-anchor="start" x="688.5" y="-944.12" font-family="Times,serif" font-weight="bold" font-size="14.00">host:</text>
<text text-anchor="start" x="827.5" y="-943.12" font-family="Times,serif" font-size="14.00">$HOME/.local/share/docker/volumes/$PROJECT_NAME_chronos_sitemaps/_data</text>
<text text-anchor="start" x="688.5" y="-922.12" font-family="Times,serif" font-size="14.00">chronos&#45;container:</text>
<text text-anchor="start" x="827.5" y="-922.12" font-family="Times,serif" font-size="14.00">/mnt/sitemaps</text>
<text text-anchor="start" x="688.5" y="-901.12" font-family="Times,serif" font-size="14.00">httpd&#45;container:</text>
<text text-anchor="start" x="827.5" y="-901.12" font-family="Times,serif" font-size="14.00">/mnt/sitemaps:ro</text>
</g>
<!-- HS_OAI_LOGS -->
<g id="node12" class="node">
<title>HS_OAI_LOGS</title>
<polygon fill="none" stroke="turquoise" points="1406.5,-1103.32 1403.5,-1107.32 1382.5,-1107.32 1379.5,-1103.32 680.5,-1103.32 680.5,-1051.32 1406.5,-1051.32 1406.5,-1103.32"/>
<text text-anchor="start" x="692.5" y="-1085.12" font-family="Times,serif" font-weight="bold" font-size="14.00">host:</text>
<text text-anchor="start" x="831.5" y="-1084.12" font-family="Times,serif" font-size="14.00">$HOME/.local/share/docker/volumes/$PROJECT_NAME_chronos_oai_logs/_data</text>
<text text-anchor="start" x="692.5" y="-1063.12" font-family="Times,serif" font-size="14.00">chronos&#45;container:</text>
<text text-anchor="start" x="831.5" y="-1063.12" font-family="Times,serif" font-size="14.00">/mnt/oai&#45;logs</text>
</g>
<!-- HS_GRAFANA -->
<g id="node13" class="node">
<title>HS_GRAFANA</title>
<polygon fill="none" stroke="turquoise" points="1373.5,-1523.32 1370.5,-1527.32 1349.5,-1527.32 1346.5,-1523.32 713.5,-1523.32 713.5,-1471.32 1373.5,-1471.32 1373.5,-1523.32"/>
<text text-anchor="start" x="725.5" y="-1505.12" font-family="Times,serif" font-weight="bold" font-size="14.00">host:</text>
<text text-anchor="start" x="863.5" y="-1504.12" font-family="Times,serif" font-size="14.00">$HOME/.local/share/docker/volumes/$PROJECT_NAME_grafana/_data</text>
<text text-anchor="start" x="725.5" y="-1483.12" font-family="Times,serif" font-size="14.00">grafana&#45;container:</text>
<text text-anchor="start" x="863.5" y="-1483.12" font-family="Times,serif" font-size="14.00">/var/lib/grafana</text>
</g>
<!-- HS_LOKI -->
<g id="node14" class="node">
<title>HS_LOKI</title>
<polygon fill="none" stroke="turquoise" points="1344.5,-1243.32 1341.5,-1247.32 1320.5,-1247.32 1317.5,-1243.32 742.5,-1243.32 742.5,-1191.32 1344.5,-1191.32 1344.5,-1243.32"/>
<text text-anchor="start" x="754.5" y="-1225.12" font-family="Times,serif" font-weight="bold" font-size="14.00">host:</text>
<text text-anchor="start" x="863.5" y="-1224.12" font-family="Times,serif" font-size="14.00">$HOME/.local/share/docker/volumes/$PROJECT_NAME_loki/_data</text>
<text text-anchor="start" x="754.5" y="-1203.12" font-family="Times,serif" font-size="14.00">loki&#45;container:</text>
<text text-anchor="start" x="863.5" y="-1203.12" font-family="Times,serif" font-size="14.00">/loki</text>
</g>
<!-- HS_PROMETHEUS -->
<g id="node15" class="node">
<title>HS_PROMETHEUS</title>
<polygon fill="none" stroke="turquoise" points="1404.5,-1453.32 1401.5,-1457.32 1380.5,-1457.32 1377.5,-1453.32 682.5,-1453.32 682.5,-1401.32 1404.5,-1401.32 1404.5,-1453.32"/>
<text text-anchor="start" x="694.5" y="-1435.12" font-family="Times,serif" font-weight="bold" font-size="14.00">host:</text>
<text text-anchor="start" x="863.5" y="-1434.12" font-family="Times,serif" font-size="14.00">$HOME/.local/share/docker/volumes/$PROJECT_NAME_prometheus/_data</text>
<text text-anchor="start" x="694.5" y="-1413.12" font-family="Times,serif" font-size="14.00">prometheus&#45;container:</text>
<text text-anchor="start" x="863.5" y="-1413.12" font-family="Times,serif" font-size="14.00">/prometheus</text>
</g>
<!-- C_FEDORA&#45;&#45;C_MARIADB_FEDORA -->
<g id="edge19" class="edge">
<title>C_FEDORA&#45;&#45;C_MARIADB_FEDORA</title>
<path fill="none" stroke="orange" d="M1730.24,-397C1743.73,-400 1757.27,-403.43 1770,-407.32 1818.53,-422.15 1871.82,-446.51 1905.91,-463.2"/>
</g>
<!-- C_API&#45;&#45;C_FEDORA -->
<g id="edge20" class="edge">
<title>C_API&#45;&#45;C_FEDORA</title>
<path fill="none" stroke="orange" d="M1136.08,-361.79C1240.71,-365.76 1411.52,-372.24 1520.92,-376.39"/>
</g>
<!-- C_API&#45;&#45;C_MARIADB_PHAIDRA -->
<g id="edge21" class="edge">
<title>C_API&#45;&#45;C_MARIADB_PHAIDRA</title>
<path fill="none" stroke="orange" d="M1136.08,-344.74C1235.12,-330.05 1393.47,-306.57 1502.89,-290.35"/>
</g>
<!-- C_API&#45;&#45;C_MONGODB_PHAIDRA -->
<g id="edge22" class="edge">
<title>C_API&#45;&#45;C_MONGODB_PHAIDRA</title>
<path fill="none" stroke="orange" d="M1136.12,-365.11C1223.21,-374.36 1356.09,-395.89 1461,-445.32 1471.3,-450.17 1471.67,-454.8 1481,-461.32 1517.9,-487.1 1562.53,-513.45 1592.11,-530.29"/>
</g>
<!-- C_UI -->
<g id="node20" class="node">
<title>C_UI</title>
<g id="a_node20"><a xlink:href="https://github.com/phaidra/phaidra-ui" xlink:title="$PROJECT_NAME&#45;ui&#45;1">
<polygon fill="none" stroke="green" points="1714,-162.32 1537,-162.32 1537,-158.32 1533,-158.32 1533,-154.32 1537,-154.32 1537,-134.32 1533,-134.32 1533,-130.32 1537,-130.32 1537,-126.32 1714,-126.32 1714,-162.32"/>
<polyline fill="none" stroke="green" points="1537,-158.32 1541,-158.32 1541,-154.32 1537,-154.32 "/>
<polyline fill="none" stroke="green" points="1537,-134.32 1541,-134.32 1541,-130.32 1537,-130.32 "/>
<text text-anchor="middle" x="1625.5" y="-140.62" font-family="Times,serif" font-size="14.00">$PROJECT_NAME&#45;ui&#45;1</text>
</a>
</g>
</g>
<!-- C_API&#45;&#45;C_UI -->
<g id="edge23" class="edge">
<title>C_API&#45;&#45;C_UI</title>
<path fill="none" stroke="orange" d="M1136.37,-358.97C1229.68,-354.66 1372.66,-333.65 1461,-251.32 1481.56,-232.15 1461.07,-211.14 1481,-191.32 1496.24,-176.16 1516.44,-165.89 1536.86,-158.93"/>
</g>
<!-- C_API&#45;&#45;C_OPENLDAP -->
<g id="edge24" class="edge">
<title>C_API&#45;&#45;C_OPENLDAP</title>
<path fill="none" stroke="orange" d="M1118.47,-340.26C1201.93,-319.67 1341.61,-284.55 1461,-251.32 1469.94,-248.83 1471.98,-247.51 1481,-245.32 1494.05,-242.14 1507.85,-239.12 1521.53,-236.33"/>
</g>
<!-- C_API&#45;&#45;C_SOLR -->
<g id="edge25" class="edge">
<title>C_API&#45;&#45;C_SOLR</title>
<path fill="none" stroke="orange" d="M1136.08,-353.27C1243.5,-347.34 1420.69,-337.56 1529.55,-331.56"/>
</g>
<!-- C_API&#45;&#45;C_IMAGESERVER -->
<g id="edge26" class="edge">
<title>C_API&#45;&#45;C_IMAGESERVER</title>
<path fill="none" stroke="orange" d="M1136.08,-370.32C1233.92,-383.14 1389.65,-403.55 1498.9,-417.86"/>
</g>
<!-- C_MONGODB_PHAIDRA&#45;&#45;C_PIXELGECKO -->
<g id="edge27" class="edge">
<title>C_MONGODB_PHAIDRA&#45;&#45;C_PIXELGECKO</title>
<path fill="none" stroke="orange" d="M1756.23,-566.45C1761.05,-569.07 1765.67,-572.01 1770,-575.32 1799.07,-597.51 1777.05,-626.97 1806,-649.32 1811.22,-653.35 1816.89,-656.83 1822.84,-659.82"/>
</g>
<!-- C_LAM -->
<g id="node26" class="node">
<title>C_LAM</title>
<polygon fill="none" stroke="green" points="2037.5,-125.32 1847.5,-125.32 1847.5,-121.32 1843.5,-121.32 1843.5,-117.32 1847.5,-117.32 1847.5,-97.32 1843.5,-97.32 1843.5,-93.32 1847.5,-93.32 1847.5,-89.32 2037.5,-89.32 2037.5,-125.32"/>
<polyline fill="none" stroke="green" points="1847.5,-121.32 1851.5,-121.32 1851.5,-117.32 1847.5,-117.32 "/>
<polyline fill="none" stroke="green" points="1847.5,-97.32 1851.5,-97.32 1851.5,-93.32 1847.5,-93.32 "/>
<text text-anchor="middle" x="1942.5" y="-103.62" font-family="Times,serif" font-size="14.00">$PROJECT_NAME&#45;lam&#45;1</text>
</g>
<!-- C_OPENLDAP&#45;&#45;C_LAM -->
<g id="edge28" class="edge">
<title>C_OPENLDAP&#45;&#45;C_LAM</title>
<path fill="none" stroke="orange" d="M1683.59,-200.21C1709.98,-191.69 1741.67,-181.24 1770,-171.32 1812.44,-156.46 1860.36,-138.47 1894.74,-125.36"/>
</g>
<!-- C_DBGATE&#45;&#45;C_MARIADB_PHAIDRA -->
<g id="edge29" class="edge">
<title>C_DBGATE&#45;&#45;C_MARIADB_PHAIDRA</title>
<path fill="none" stroke="orange" d="M1150.25,-231.83C1234.47,-237.96 1355.34,-247.09 1461,-256.32 1468.67,-256.99 1476.54,-257.7 1484.49,-258.42"/>
</g>
<!-- C_DBGATE&#45;&#45;C_MONGODB_PHAIDRA -->
<g id="edge30" class="edge">
<title>C_DBGATE&#45;&#45;C_MONGODB_PHAIDRA</title>
<path fill="none" stroke="orange" d="M1150.18,-221.04C1245.7,-224.21 1382.94,-245.14 1461,-331.32 1500.24,-374.65 1448.51,-412.72 1481,-461.32 1502.86,-494.02 1541.57,-516.42 1573.28,-530.3"/>
</g>
<!-- C_DBGATE&#45;&#45;C_MARIADB_FEDORA -->
<g id="edge31" class="edge">
<title>C_DBGATE&#45;&#45;C_MARIADB_FEDORA</title>
<path fill="none" stroke="orange" d="M1150.21,-213.32C1338.6,-194.63 1717.64,-161.45 1770,-191.32 1877.21,-252.47 1924.2,-409.82 1937.4,-463.25"/>
</g>
<!-- C_CHRONOS -->
<g id="node28" class="node">
<title>C_CHRONOS</title>
<polygon fill="none" stroke="green" points="574,-584.32 354,-584.32 354,-580.32 350,-580.32 350,-576.32 354,-576.32 354,-556.32 350,-556.32 350,-552.32 354,-552.32 354,-548.32 574,-548.32 574,-584.32"/>
<polyline fill="none" stroke="green" points="354,-580.32 358,-580.32 358,-576.32 354,-576.32 "/>
<polyline fill="none" stroke="green" points="354,-556.32 358,-556.32 358,-552.32 354,-552.32 "/>
<text text-anchor="middle" x="464" y="-562.62" font-family="Times,serif" font-size="14.00">$PROJECT_NAME&#45;chronos&#45;1</text>
</g>
<!-- C_CHRONOS&#45;&#45;HS_DATABASE_DUMPS -->
<g id="edge13" class="edge">
<title>C_CHRONOS&#45;&#45;HS_DATABASE_DUMPS</title>
<path fill="none" stroke="turquoise" d="M465.84,-584.43C469.95,-649.69 493.57,-874.02 626,-972.32 633.43,-977.83 641.15,-982.88 649.12,-987.51"/>
</g>
<!-- C_CHRONOS&#45;&#45;HS_SITEMAPS -->
<g id="edge14" class="edge">
<title>C_CHRONOS&#45;&#45;HS_SITEMAPS</title>
<path fill="none" stroke="turquoise" d="M468.16,-584.43C478.83,-639.64 519.07,-806.61 626,-880.32 641.8,-891.21 658.76,-900.34 676.48,-907.97"/>
</g>
<!-- C_CHRONOS&#45;&#45;HS_OAI_LOGS -->
<g id="edge15" class="edge">
<title>C_CHRONOS&#45;&#45;HS_OAI_LOGS</title>
<path fill="none" stroke="turquoise" d="M464.69,-584.4C464.55,-656.29 474.54,-923.74 626,-1042.32 642.71,-1055.4 661.04,-1065.95 680.4,-1074.38"/>
</g>
<!-- C_CHRONOS&#45;&#45;C_API -->
<g id="edge36" class="edge">
<title>C_CHRONOS&#45;&#45;C_API</title>
<path fill="none" stroke="orange" d="M475.03,-548.28C496.85,-511.01 552.66,-426.04 626,-390.32 728.85,-340.22 863.1,-339.71 950.99,-346.7"/>
</g>
<!-- C_CHRONOS&#45;&#45;C_MARIADB_PHAIDRA -->
<g id="edge33" class="edge">
<title>C_CHRONOS&#45;&#45;C_MARIADB_PHAIDRA</title>
<path fill="none" stroke="orange" d="M471.12,-548C487.59,-501.89 537.75,-381.22 626,-331.32 768.85,-250.55 1245.02,-256.88 1484.47,-265.73"/>
</g>
<!-- C_CHRONOS&#45;&#45;C_MONGODB_PHAIDRA -->
<g id="edge32" class="edge">
<title>C_CHRONOS&#45;&#45;C_MONGODB_PHAIDRA</title>
<path fill="none" stroke="orange" d="M574.08,-565.88C757.33,-564.95 1138.58,-562.18 1461,-554.32 1467.53,-554.16 1474.21,-553.98 1480.95,-553.79"/>
</g>
<!-- C_CHRONOS&#45;&#45;C_SOLR -->
<g id="edge35" class="edge">
<title>C_CHRONOS&#45;&#45;C_SOLR</title>
<path fill="none" stroke="orange" d="M482.19,-547.88C509.55,-519.94 566.07,-467.75 626,-445.32 800.23,-380.11 1301.63,-481.28 1461,-385.32 1475.37,-376.67 1467.15,-362.78 1481,-353.32 1495.45,-343.45 1512.53,-336.95 1529.78,-332.7"/>
</g>
<!-- C_CHRONOS&#45;&#45;C_MARIADB_FEDORA -->
<g id="edge34" class="edge">
<title>C_CHRONOS&#45;&#45;C_MARIADB_FEDORA</title>
<path fill="none" stroke="orange" d="M574.09,-557.79C591.45,-556.55 609.21,-555.35 626,-554.32 1134.15,-523.22 1262.25,-533.3 1770,-496.32 1781.63,-495.47 1793.69,-494.53 1805.79,-493.55"/>
</g>
<!-- C_HTTPD&#45;&#45;HS_SITEMAPS -->
<g id="edge12" class="edge">
<title>C_HTTPD&#45;&#45;HS_SITEMAPS</title>
<path fill="none" stroke="turquoise" d="M478.47,-296.4C507.97,-337.19 577.91,-440.49 606,-539.32 616.38,-575.83 599.86,-852.8 626,-880.32 640.91,-896.01 657.97,-908.68 676.49,-918.81"/>
</g>
<!-- C_HTTPD&#45;&#45;C_FEDORA -->
<g id="edge58" class="edge">
<title>C_HTTPD&#45;&#45;C_FEDORA</title>
<path fill="none" stroke="magenta" d="M606.35,-287.18C612.99,-287.57 619.57,-287.95 626,-288.32 718.75,-293.59 1377.04,-291.56 1461,-331.32 1472.94,-336.97 1469.46,-346.87 1481,-353.32 1493.28,-360.18 1506.98,-365.34 1520.91,-369.2"/>
</g>
<!-- C_HTTPD&#45;&#45;C_API -->
<g id="edge59" class="edge">
<title>C_HTTPD&#45;&#45;C_API</title>
<path fill="none" stroke="magenta" d="M564.08,-296.32C584.52,-299.82 605.94,-303.32 626,-306.32 737.53,-322.97 866.42,-338.49 950.92,-348.16"/>
</g>
<!-- C_HTTPD&#45;&#45;C_UI -->
<g id="edge60" class="edge">
<title>C_HTTPD&#45;&#45;C_UI</title>
<path fill="none" stroke="magenta" d="M492.09,-260.27C523.01,-240.75 575.8,-210.65 626,-197.32 636.96,-194.41 1295.54,-160.92 1537,-148.73"/>
</g>
<!-- C_HTTPD&#45;&#45;C_SOLR -->
<g id="edge61" class="edge">
<title>C_HTTPD&#45;&#45;C_SOLR</title>
<path fill="none" stroke="magenta" d="M606.04,-273.64C799.42,-268.87 1157.49,-265.94 1461,-296.32 1468.61,-297.08 1497.95,-302.35 1529.72,-308.27"/>
</g>
<!-- C_HTTPD&#45;&#45;C_DBGATE -->
<g id="edge62" class="edge">
<title>C_HTTPD&#45;&#45;C_DBGATE</title>
<path fill="none" stroke="magenta" d="M591.47,-260.32C603.13,-258.87 614.78,-257.52 626,-256.32 731.47,-245.07 852.36,-236.23 936.64,-230.72"/>
</g>
<!-- C_HTTPD&#45;&#45;C_LAM -->
<g id="edge63" class="edge">
<title>C_HTTPD&#45;&#45;C_LAM</title>
<path fill="none" stroke="magenta" d="M481.06,-259.85C507.74,-230.69 564.37,-174.99 626,-152.32 739.53,-110.56 1565.28,-107.09 1847.35,-107.14"/>
</g>
<!-- C_GRAFANA -->
<g id="node31" class="node">
<title>C_GRAFANA</title>
<g id="a_node31"><a xlink:href="https://grafana.com/docs/grafana/latest/getting-started/" xlink:title="$PROJECT_NAME&#45;grafana&#45;1">
<polygon fill="none" stroke="green" points="1152.5,-490.32 934.5,-490.32 934.5,-486.32 930.5,-486.32 930.5,-482.32 934.5,-482.32 934.5,-462.32 930.5,-462.32 930.5,-458.32 934.5,-458.32 934.5,-454.32 1152.5,-454.32 1152.5,-490.32"/>
<polyline fill="none" stroke="green" points="934.5,-486.32 938.5,-486.32 938.5,-482.32 934.5,-482.32 "/>
<polyline fill="none" stroke="green" points="934.5,-462.32 938.5,-462.32 938.5,-458.32 934.5,-458.32 "/>
<text text-anchor="middle" x="1043.5" y="-468.62" font-family="Times,serif" font-size="14.00">$PROJECT_NAME&#45;grafana&#45;1</text>
</a>
</g>
</g>
<!-- C_HTTPD&#45;&#45;C_GRAFANA -->
<g id="edge64" class="edge">
<title>C_HTTPD&#45;&#45;C_GRAFANA</title>
<path fill="none" stroke="magenta" d="M486.38,-296.46C515.85,-320.5 571.51,-362.52 626,-385.32 726,-427.16 848.22,-449.62 934.32,-461.17"/>
</g>
<!-- C_PROMTAIL_LOCAL -->
<g id="node30" class="node">
<title>C_PROMTAIL_LOCAL</title>
<g id="a_node30"><a xlink:href="https://grafana.com/docs/loki/latest/send-data/promtail/" xlink:title="$PROJECT_NAME&#45;promtail&#45;local&#45;1">
<polygon fill="none" stroke="green" points="286,-376.32 24,-376.32 24,-372.32 20,-372.32 20,-368.32 24,-368.32 24,-348.32 20,-348.32 20,-344.32 24,-344.32 24,-340.32 286,-340.32 286,-376.32"/>
<polyline fill="none" stroke="green" points="24,-372.32 28,-372.32 28,-368.32 24,-368.32 "/>
<polyline fill="none" stroke="green" points="24,-348.32 28,-348.32 28,-344.32 24,-344.32 "/>
<text text-anchor="middle" x="155" y="-354.62" font-family="Times,serif" font-size="14.00">$PROJECT_NAME&#45;promtail&#45;local&#45;1</text>
</a>
</g>
</g>
<!-- C_PROMTAIL_LOCAL&#45;&#45;C_FEDORA -->
<g id="edge50" class="edge">
<title>C_PROMTAIL_LOCAL&#45;&#45;C_FEDORA</title>
<path fill="none" stroke="black" d="M286.09,-367.8C380.39,-374.19 511.01,-382.02 626,-385.32 996.96,-395.96 1089.93,-390.99 1461,-385.32 1480.31,-385.02 1500.9,-384.53 1520.72,-383.97"/>
</g>
<!-- C_PROMTAIL_LOCAL&#45;&#45;C_API -->
<g id="edge41" class="edge">
<title>C_PROMTAIL_LOCAL&#45;&#45;C_API</title>
<path fill="none" stroke="black" d="M286.33,-358.32C468.01,-358.32 792.85,-358.32 950.98,-358.32"/>
</g>
<!-- C_PROMTAIL_LOCAL&#45;&#45;C_MARIADB_PHAIDRA -->
<g id="edge38" class="edge">
<title>C_PROMTAIL_LOCAL&#45;&#45;C_MARIADB_PHAIDRA</title>
<path fill="none" stroke="black" d="M281.29,-340.28C282.91,-339.03 284.48,-337.71 286,-336.32 332.74,-293.5 271.9,-237.15 322,-198.32 359.65,-169.13 1343.37,-118.9 1461,-197.32 1480.23,-210.14 1463.04,-230.77 1481,-245.32 1485.14,-248.67 1489.56,-251.65 1494.19,-254.31"/>
</g>
<!-- C_PROMTAIL_LOCAL&#45;&#45;C_MONGODB_PHAIDRA -->
<g id="edge37" class="edge">
<title>C_PROMTAIL_LOCAL&#45;&#45;C_MONGODB_PHAIDRA</title>
<path fill="none" stroke="black" d="M162.19,-376.63C179.07,-423.26 230.85,-546.11 322,-593.32 526.81,-699.4 1231.49,-607.98 1509.96,-566.35"/>
</g>
<!-- C_PROMTAIL_LOCAL&#45;&#45;C_UI -->
<g id="edge42" class="edge">
<title>C_PROMTAIL_LOCAL&#45;&#45;C_UI</title>
<path fill="none" stroke="black" d="M281.71,-340.24C283.19,-338.99 284.62,-337.69 286,-336.32 351.61,-271.11 252.34,-192.19 322,-131.32 350.98,-105.99 1099.7,-91.86 1461,-119.32 1485.77,-121.2 1512.46,-124.67 1536.96,-128.43"/>
</g>
<!-- C_PROMTAIL_LOCAL&#45;&#45;C_OPENLDAP -->
<g id="edge45" class="edge">
<title>C_PROMTAIL_LOCAL&#45;&#45;C_OPENLDAP</title>
<path fill="none" stroke="black" d="M281.65,-340.17C283.15,-338.95 284.6,-337.67 286,-336.32 342.57,-281.84 262.06,-214.07 322,-163.32 354.46,-135.84 1329.67,-96.92 1461,-151.32 1472.61,-156.13 1470.29,-164.74 1481,-171.32 1501.1,-183.67 1524.81,-193.15 1547.1,-200.24"/>
</g>
<!-- C_PROMTAIL_LOCAL&#45;&#45;C_SOLR -->
<g id="edge40" class="edge">
<title>C_PROMTAIL_LOCAL&#45;&#45;C_SOLR</title>
<path fill="none" stroke="black" d="M286.09,-349.01C380.4,-342.71 511.02,-334.91 626,-331.32 958.03,-320.96 1352.45,-323.31 1529.82,-325.14"/>
</g>
<!-- C_PROMTAIL_LOCAL&#45;&#45;C_IMAGESERVER -->
<g id="edge43" class="edge">
<title>C_PROMTAIL_LOCAL&#45;&#45;C_IMAGESERVER</title>
<path fill="none" stroke="black" d="M269.67,-376.34C287.16,-378.66 305.04,-380.76 322,-382.32 752.71,-421.94 1266.29,-431.39 1498.94,-433.63"/>
</g>
<!-- C_PROMTAIL_LOCAL&#45;&#45;C_PIXELGECKO -->
<g id="edge49" class="edge">
<title>C_PROMTAIL_LOCAL&#45;&#45;C_PIXELGECKO</title>
<path fill="none" stroke="black" d="M161.08,-376.67C176,-426.65 224.9,-565.29 322,-622.32 575.34,-771.11 1493.41,-713.05 1822.82,-686.63"/>
</g>
<!-- C_PROMTAIL_LOCAL&#45;&#45;C_DBGATE -->
<g id="edge47" class="edge">
<title>C_PROMTAIL_LOCAL&#45;&#45;C_DBGATE</title>
<path fill="none" stroke="black" d="M280.73,-340.16C282.54,-338.95 284.29,-337.67 286,-336.32 318.19,-310.88 288.23,-274.61 322,-251.32 418.73,-184.6 761.11,-201.22 936.8,-214.83"/>
</g>
<!-- C_PROMTAIL_LOCAL&#45;&#45;C_LAM -->
<g id="edge46" class="edge">
<title>C_PROMTAIL_LOCAL&#45;&#45;C_LAM</title>
<path fill="none" stroke="black" d="M281.75,-340.27C283.21,-339.02 284.63,-337.7 286,-336.32 359.28,-262.03 243.21,-172.73 322,-104.32 550.16,93.79 1536.82,-42.88 1847.48,-91.82"/>
</g>
<!-- C_PROMTAIL_LOCAL&#45;&#45;C_MARIADB_FEDORA -->
<g id="edge39" class="edge">
<title>C_PROMTAIL_LOCAL&#45;&#45;C_MARIADB_FEDORA</title>
<path fill="none" stroke="black" d="M200.38,-376.4C282.62,-408.83 465.01,-475.69 626,-499.32 993.18,-553.21 1090.92,-526.92 1461,-499.32 1469.96,-498.65 1472.05,-497.13 1481,-496.32 1541.64,-490.8 1693.03,-486.54 1805.78,-483.99"/>
</g>
<!-- C_PROMTAIL_LOCAL&#45;&#45;C_CHRONOS -->
<g id="edge48" class="edge">
<title>C_PROMTAIL_LOCAL&#45;&#45;C_CHRONOS</title>
<path fill="none" stroke="black" d="M167.48,-376.34C191.49,-412.43 250.69,-493.6 322,-534.32 331.92,-539.98 342.76,-544.64 353.9,-548.48"/>
</g>
<!-- C_PROMTAIL_LOCAL&#45;&#45;C_HTTPD -->
<g id="edge44" class="edge">
<title>C_PROMTAIL_LOCAL&#45;&#45;C_HTTPD</title>
<path fill="none" stroke="black" d="M273.74,-340.27C277.91,-339.03 282,-337.72 286,-336.32 303.27,-330.26 305.04,-323.2 322,-316.32 341.15,-308.56 362.4,-301.88 382.46,-296.4"/>
</g>
<!-- C_LOKI -->
<g id="node32" class="node">
<title>C_LOKI</title>
<g id="a_node32"><a xlink:href="https://grafana.com/docs/loki/latest/" xlink:title="$PROJECT_NAME&#45;loki&#45;1">
<polygon fill="none" stroke="green" points="1720,-620.32 1531,-620.32 1531,-616.32 1527,-616.32 1527,-612.32 1531,-612.32 1531,-592.32 1527,-592.32 1527,-588.32 1531,-588.32 1531,-584.32 1720,-584.32 1720,-620.32"/>
<polyline fill="none" stroke="green" points="1531,-616.32 1535,-616.32 1535,-612.32 1531,-612.32 "/>
<polyline fill="none" stroke="green" points="1531,-592.32 1535,-592.32 1535,-588.32 1531,-588.32 "/>
<text text-anchor="middle" x="1625.5" y="-598.62" font-family="Times,serif" font-size="14.00">$PROJECT_NAME&#45;loki&#45;1</text>
</a>
</g>
</g>
<!-- C_PROMTAIL_LOCAL&#45;&#45;C_LOKI -->
<g id="edge51" class="edge">
<title>C_PROMTAIL_LOCAL&#45;&#45;C_LOKI</title>
<path fill="none" stroke="black" d="M168.5,-376.47C193.21,-410.65 252.03,-483.83 322,-514.32 349.72,-526.4 1236.61,-579.5 1530.76,-596.83"/>
</g>
<!-- C_GRAFANA&#45;&#45;HS_GRAFANA -->
<g id="edge16" class="edge">
<title>C_GRAFANA&#45;&#45;HS_GRAFANA</title>
<path fill="none" stroke="turquoise" d="M975.47,-490.37C872.4,-522.05 681.72,-598.75 616,-746.32 608.01,-764.26 608.01,-1435.38 616,-1453.32 626.78,-1477.51 664.46,-1491.67 713.29,-1499.5"/>
</g>
<!-- C_GRAFANA&#45;&#45;C_MARIADB_PHAIDRA -->
<g id="edge55" class="edge">
<title>C_GRAFANA&#45;&#45;C_MARIADB_PHAIDRA</title>
<path fill="none" stroke="black" d="M1152.81,-479.77C1246.76,-480.02 1380.05,-464.46 1461,-385.32 1489.06,-357.88 1452.67,-326.47 1481,-299.32 1484.48,-295.99 1488.23,-293 1492.2,-290.33"/>
</g>
<!-- C_GRAFANA&#45;&#45;C_MARIADB_FEDORA -->
<g id="edge54" class="edge">
<title>C_GRAFANA&#45;&#45;C_MARIADB_FEDORA</title>
<path fill="none" stroke="black" d="M1152.7,-473.4C1316.49,-475.05 1627.16,-478.16 1805.84,-479.96"/>
</g>
<!-- C_GRAFANA&#45;&#45;C_LOKI -->
<g id="edge52" class="edge">
<title>C_GRAFANA&#45;&#45;C_LOKI</title>
<path fill="none" stroke="black" d="M1152.92,-457.34C1244.39,-450.82 1373.97,-456.69 1461,-524.32 1480.22,-539.26 1462.25,-559.79 1481,-575.32 1495.16,-587.04 1512.8,-594.29 1530.83,-598.65"/>
</g>
<!-- C_PROMETHEUS -->
<g id="node34" class="node">
<title>C_PROMETHEUS</title>
<g id="a_node34"><a xlink:href="https://prometheus.io" xlink:title="$PROJECT_NAME&#45;prometheus&#45;1">
<polygon fill="none" stroke="green" points="1750,-674.32 1501,-674.32 1501,-670.32 1497,-670.32 1497,-666.32 1501,-666.32 1501,-646.32 1497,-646.32 1497,-642.32 1501,-642.32 1501,-638.32 1750,-638.32 1750,-674.32"/>
<polyline fill="none" stroke="green" points="1501,-670.32 1505,-670.32 1505,-666.32 1501,-666.32 "/>
<polyline fill="none" stroke="green" points="1501,-646.32 1505,-646.32 1505,-642.32 1501,-642.32 "/>
<text text-anchor="middle" x="1625.5" y="-652.62" font-family="Times,serif" font-size="14.00">$PROJECT_NAME&#45;prometheus&#45;1</text>
</a>
</g>
</g>
<!-- C_GRAFANA&#45;&#45;C_PROMETHEUS -->
<g id="edge53" class="edge">
<title>C_GRAFANA&#45;&#45;C_PROMETHEUS</title>
<path fill="none" stroke="black" d="M1087.44,-490.36C1164.87,-522.3 1333.55,-589.2 1481,-629.32 1492.99,-632.58 1505.64,-635.58 1518.27,-638.3"/>
</g>
<!-- C_LOKI&#45;&#45;HS_LOKI -->
<g id="edge17" class="edge">
<title>C_LOKI&#45;&#45;HS_LOKI</title>
<path fill="none" stroke="turquoise" d="M1530.81,-601.76C1511.79,-606.18 1493.73,-614.52 1481,-629.32 1440.9,-675.93 1503.43,-1137.82 1461,-1182.32 1442,-1202.24 1397.68,-1213.43 1344.71,-1219.31"/>
</g>
<!-- C_NODE_EXPORTER -->
<g id="node33" class="node">
<title>C_NODE_EXPORTER</title>
<g id="a_node33"><a xlink:href="https://prometheus.io/docs/guides/node-exporter/" xlink:title="$PROJECT_NAME&#45;node&#45;exporter&#45;1">
<polygon fill="none" stroke="green" points="2074.5,-586.32 1810.5,-586.32 1810.5,-582.32 1806.5,-582.32 1806.5,-578.32 1810.5,-578.32 1810.5,-558.32 1806.5,-558.32 1806.5,-554.32 1810.5,-554.32 1810.5,-550.32 2074.5,-550.32 2074.5,-586.32"/>
<polyline fill="none" stroke="green" points="1810.5,-582.32 1814.5,-582.32 1814.5,-578.32 1810.5,-578.32 "/>
<polyline fill="none" stroke="green" points="1810.5,-558.32 1814.5,-558.32 1814.5,-554.32 1810.5,-554.32 "/>
<text text-anchor="middle" x="1942.5" y="-564.62" font-family="Times,serif" font-size="14.00">$PROJECT_NAME&#45;node&#45;exporter&#45;1</text>
</a>
</g>
</g>
<!-- C_PROMETHEUS&#45;&#45;HS_PROMETHEUS -->
<g id="edge18" class="edge">
<title>C_PROMETHEUS&#45;&#45;HS_PROMETHEUS</title>
<path fill="none" stroke="turquoise" d="M1617.63,-674.64C1594.03,-738.47 1515.8,-957.41 1481,-1145.32 1475.99,-1172.39 1480.44,-1372.82 1461,-1392.32 1383.13,-1470.43 1250.9,-1468.12 1156.31,-1453.36"/>
</g>
<!-- C_PROMETHEUS&#45;&#45;C_NODE_EXPORTER -->
<g id="edge57" class="edge">
<title>C_PROMETHEUS&#45;&#45;C_NODE_EXPORTER</title>
<path fill="none" stroke="black" d="M1749.08,-638.29C1756.3,-635.69 1763.34,-632.71 1770,-629.32 1789.61,-619.32 1786.45,-605.42 1806,-595.32 1812.61,-591.91 1819.6,-588.92 1826.79,-586.32"/>
</g>
<!-- C_CADVISOR -->
<g id="node35" class="node">
<title>C_CADVISOR</title>
<g id="a_node35"><a xlink:href="https://github.com/google/cadvisor" xlink:title="$PROJECT_NAME&#45;cadvisor&#45;1">
<polygon fill="none" stroke="green" points="2054.5,-640.32 1830.5,-640.32 1830.5,-636.32 1826.5,-636.32 1826.5,-632.32 1830.5,-632.32 1830.5,-612.32 1826.5,-612.32 1826.5,-608.32 1830.5,-608.32 1830.5,-604.32 2054.5,-604.32 2054.5,-640.32"/>
<polyline fill="none" stroke="green" points="1830.5,-636.32 1834.5,-636.32 1834.5,-632.32 1830.5,-632.32 "/>
<polyline fill="none" stroke="green" points="1830.5,-612.32 1834.5,-612.32 1834.5,-608.32 1830.5,-608.32 "/>
<text text-anchor="middle" x="1942.5" y="-618.62" font-family="Times,serif" font-size="14.00">$PROJECT_NAME&#45;cadvisor&#45;1</text>
</a>
</g>
</g>
<!-- C_PROMETHEUS&#45;&#45;C_CADVISOR -->
<g id="edge56" class="edge">
<title>C_PROMETHEUS&#45;&#45;C_CADVISOR</title>
<path fill="none" stroke="black" d="M1750.09,-642.98C1776.55,-640.12 1804.35,-637.12 1830.3,-634.32"/>
</g>
</g>
</svg>
