<?xml version="1.0" encoding="UTF-8" standalone="no"?>
<!DOCTYPE svg PUBLIC "-//W3C//DTD SVG 1.1//EN"
 "http://www.w3.org/Graphics/SVG/1.1/DTD/svg11.dtd">
<!-- Generated by graphviz version 2.43.0 (0)
 -->
<!-- Title: G Pages: 1 -->
<svg width="2047pt" height="1908pt"
 viewBox="0.00 0.00 2047.00 1908.08" xmlns="http://www.w3.org/2000/svg" xmlns:xlink="http://www.w3.org/1999/xlink">
<g id="graph0" class="graph" transform="scale(1 1) rotate(0) translate(4 1904.08)">
<title>G</title>
<polygon fill="white" stroke="transparent" points="-4,4 -4,-1904.08 2043,-1904.08 2043,4 -4,4"/>
<g id="clust1" class="cluster">
<title>cluster_host</title>
<polygon fill="none" stroke="red" points="8,-12.08 8,-1892.08 2031,-1892.08 2031,-12.08 8,-12.08"/>
<text text-anchor="middle" x="1019.5" y="-1876.88" font-family="Times,serif" font-size="14.00">PHAIDRA server firewall</text>
</g>
<g id="clust2" class="cluster">
<title>cluster_host_storage</title>
<polygon fill="none" stroke="black" points="562,-735.08 562,-1861.08 1397,-1861.08 1397,-735.08 562,-735.08"/>
<text text-anchor="middle" x="979.5" y="-1845.88" font-family="Times,serif" font-size="14.00">PHAIDRA server filesystem</text>
</g>
<g id="clust3" class="cluster">
<title>cluster_named_volumes</title>
<polygon fill="none" stroke="turquoise" points="570,-743.08 570,-1830.08 1389,-1830.08 1389,-743.08 570,-743.08"/>
<text text-anchor="middle" x="979.5" y="-1814.88" font-family="Times,serif" font-size="14.00">Named volumes</text>
</g>
<g id="clust4" class="cluster">
<title>cluster_docker_network_host</title>
<polygon fill="none" stroke="green" points="16,-80.08 16,-727.08 2023,-727.08 2023,-80.08 16,-80.08"/>
<text text-anchor="middle" x="1019.5" y="-711.88" font-family="Times,serif" font-size="14.00">PHAIDRA docker containers</text>
</g>
<!-- USER -->
<g id="node1" class="node">
<title>USER</title>
<polygon fill="none" stroke="black" points="247.73,-38.62 247.73,-53.54 193.41,-64.08 116.59,-64.08 62.27,-53.54 62.27,-38.62 116.59,-28.08 193.41,-28.08 247.73,-38.62"/>
<polygon fill="none" stroke="black" points="251.73,-35.33 251.73,-56.84 193.79,-68.08 116.21,-68.08 58.27,-56.84 58.27,-35.33 116.21,-24.08 193.79,-24.08 251.73,-35.33"/>
<polygon fill="none" stroke="black" points="255.72,-32.03 255.72,-60.13 194.18,-72.08 115.82,-72.08 54.28,-60.13 54.28,-32.03 115.82,-20.08 194.18,-20.08 255.72,-32.03"/>
<text text-anchor="middle" x="155" y="-42.38" font-family="Times,serif" font-size="14.00">PHAIDRA USER</text>
</g>
<!-- C_HTTPD -->
<g id="node29" class="node">
<title>C_HTTPD</title>
<polygon fill="none" stroke="green" points="533.5,-298.08 330.5,-298.08 330.5,-294.08 326.5,-294.08 326.5,-290.08 330.5,-290.08 330.5,-270.08 326.5,-270.08 326.5,-266.08 330.5,-266.08 330.5,-262.08 533.5,-262.08 533.5,-298.08"/>
<polyline fill="none" stroke="green" points="330.5,-294.08 334.5,-294.08 334.5,-290.08 330.5,-290.08 "/>
<polyline fill="none" stroke="green" points="330.5,-270.08 334.5,-270.08 334.5,-266.08 330.5,-266.08 "/>
<text text-anchor="middle" x="432" y="-276.38" font-family="Times,serif" font-size="14.00">$PROJECT_NAME&#45;httpd&#45;1</text>
</g>
<!-- USER&#45;&#45;C_HTTPD -->
<g id="edge65" class="edge">
<title>USER&#45;&#45;C_HTTPD</title>
<path fill="none" stroke="green" d="M254.36,-60.58C265.55,-64.57 276.38,-69.64 286,-76.08 358.22,-124.42 406.1,-221.74 423.59,-262"/>
</g>
<!-- HS_FEDORA -->
<g id="node2" class="node">
<title>HS_FEDORA</title>
<polygon fill="none" stroke="turquoise" points="1315.5,-1637.08 1312.5,-1641.08 1291.5,-1641.08 1288.5,-1637.08 643.5,-1637.08 643.5,-1543.08 1315.5,-1543.08 1315.5,-1637.08"/>
<text text-anchor="start" x="655.5" y="-1618.88" font-family="Times,serif" font-weight="bold" font-size="14.00">host:</text>
<text text-anchor="start" x="814.5" y="-1617.88" font-family="Times,serif" font-size="14.00">$HOME/.local/share/docker/volumes/$PROJECT_NAME_fedora/_data</text>
<text text-anchor="start" x="655.5" y="-1596.88" font-family="Times,serif" font-size="14.00">fedora&#45;container:</text>
<text text-anchor="start" x="814.5" y="-1596.88" font-family="Times,serif" font-size="14.00">/usr/local/tomcat/fcrepo&#45;home</text>
<text text-anchor="start" x="655.5" y="-1575.88" font-family="Times,serif" font-size="14.00">pixelgecko&#45;container:</text>
<text text-anchor="start" x="814.5" y="-1575.88" font-family="Times,serif" font-size="14.00"> /mnt/fedora:ro</text>
<text text-anchor="start" x="655.5" y="-1554.88" font-family="Times,serif" font-size="14.00">api&#45;container:</text>
<text text-anchor="start" x="814.5" y="-1554.88" font-family="Times,serif" font-size="14.00"> /mnt/fedora:ro</text>
</g>
<!-- C_FEDORA -->
<g id="node16" class="node">
<title>C_FEDORA</title>
<g id="a_node16"><a xlink:href="https://fedora.lyrasis.org/" xlink:title="$PROJECT_NAME&#45;fedora&#45;1">
<polygon fill="none" stroke="green" points="1666,-400.08 1457,-400.08 1457,-396.08 1453,-396.08 1453,-392.08 1457,-392.08 1457,-372.08 1453,-372.08 1453,-368.08 1457,-368.08 1457,-364.08 1666,-364.08 1666,-400.08"/>
<polyline fill="none" stroke="green" points="1457,-396.08 1461,-396.08 1461,-392.08 1457,-392.08 "/>
<polyline fill="none" stroke="green" points="1457,-372.08 1461,-372.08 1461,-368.08 1457,-368.08 "/>
<text text-anchor="middle" x="1561.5" y="-378.38" font-family="Times,serif" font-size="14.00">$PROJECT_NAME&#45;fedora&#45;1</text>
</a>
</g>
</g>
<!-- HS_FEDORA&#45;&#45;C_FEDORA -->
<g id="edge1" class="edge">
<title>HS_FEDORA&#45;&#45;C_FEDORA</title>
<path fill="none" stroke="turquoise" d="M1315.94,-1589.66C1346.64,-1577.21 1374.56,-1559.28 1397,-1534.08 1438.57,-1487.39 1376.67,-456.84 1417,-409.08 1427.39,-396.78 1441.45,-388.92 1456.73,-384.06"/>
</g>
<!-- C_API -->
<g id="node17" class="node">
<title>C_API</title>
<g id="a_node17"><a xlink:href="https://github.com/phaidra/phaidra-api" xlink:title="$PROJECT_NAME&#45;api&#45;1">
<polygon fill="none" stroke="green" points="1072,-378.08 887,-378.08 887,-374.08 883,-374.08 883,-370.08 887,-370.08 887,-350.08 883,-350.08 883,-346.08 887,-346.08 887,-342.08 1072,-342.08 1072,-378.08"/>
<polyline fill="none" stroke="green" points="887,-374.08 891,-374.08 891,-370.08 887,-370.08 "/>
<polyline fill="none" stroke="green" points="887,-350.08 891,-350.08 891,-346.08 887,-346.08 "/>
<text text-anchor="middle" x="979.5" y="-356.38" font-family="Times,serif" font-size="14.00">$PROJECT_NAME&#45;api&#45;1</text>
</a>
</g>
</g>
<!-- HS_FEDORA&#45;&#45;C_API -->
<g id="edge2" class="edge">
<title>HS_FEDORA&#45;&#45;C_API</title>
<path fill="none" stroke="turquoise" d="M643.42,-1606.38C603.41,-1591.55 570.29,-1566.14 552,-1525.08 539.92,-1497.95 539.92,-483.21 552,-456.08 604.92,-337.26 777.88,-334.34 886.91,-345.5"/>
</g>
<!-- C_PIXELGECKO -->
<g id="node24" class="node">
<title>C_PIXELGECKO</title>
<polygon fill="none" stroke="green" points="1998,-696.08 1759,-696.08 1759,-692.08 1755,-692.08 1755,-688.08 1759,-688.08 1759,-668.08 1755,-668.08 1755,-664.08 1759,-664.08 1759,-660.08 1998,-660.08 1998,-696.08"/>
<polyline fill="none" stroke="green" points="1759,-692.08 1763,-692.08 1763,-688.08 1759,-688.08 "/>
<polyline fill="none" stroke="green" points="1759,-668.08 1763,-668.08 1763,-664.08 1759,-664.08 "/>
<text text-anchor="middle" x="1878.5" y="-674.38" font-family="Times,serif" font-size="14.00">$PROJECT_NAME&#45;pixelgecko&#45;1</text>
</g>
<!-- HS_FEDORA&#45;&#45;C_PIXELGECKO -->
<g id="edge8" class="edge">
<title>HS_FEDORA&#45;&#45;C_PIXELGECKO</title>
<path fill="none" stroke="turquoise" d="M1315.68,-1584.26C1345.68,-1572.63 1373.53,-1556.38 1397,-1534.08 1432.07,-1500.76 1399.59,-1472.22 1417,-1427.08 1539.6,-1109.12 1798.58,-776.11 1862.84,-696.11"/>
</g>
<!-- HS_MARIADB_PHAIDRA -->
<g id="node3" class="node">
<title>HS_MARIADB_PHAIDRA</title>
<polygon fill="none" stroke="turquoise" points="1374.5,-1175.08 1371.5,-1179.08 1350.5,-1179.08 1347.5,-1175.08 584.5,-1175.08 584.5,-1123.08 1374.5,-1123.08 1374.5,-1175.08"/>
<text text-anchor="start" x="596.5" y="-1156.88" font-family="Times,serif" font-weight="bold" font-size="14.00">host:</text>
<text text-anchor="start" x="798.5" y="-1155.88" font-family="Times,serif" font-size="14.00">$HOME/.local/share/docker/volumes/$PROJECT_NAME_mariadb_phaidra/_data</text>
<text text-anchor="start" x="596.5" y="-1134.88" font-family="Times,serif" font-size="14.00">mariadb&#45;phaidra&#45;container:</text>
<text text-anchor="start" x="798.5" y="-1134.88" font-family="Times,serif" font-size="14.00">/var/lib/mysql</text>
</g>
<!-- C_MARIADB_PHAIDRA -->
<g id="node18" class="node">
<title>C_MARIADB_PHAIDRA</title>
<g id="a_node18"><a xlink:href="https://mariadb.org/" xlink:title="$PROJECT_NAME&#45;mariadb&#45;phaidra&#45;1">
<polygon fill="none" stroke="green" points="1702.5,-292.08 1420.5,-292.08 1420.5,-288.08 1416.5,-288.08 1416.5,-284.08 1420.5,-284.08 1420.5,-264.08 1416.5,-264.08 1416.5,-260.08 1420.5,-260.08 1420.5,-256.08 1702.5,-256.08 1702.5,-292.08"/>
<polyline fill="none" stroke="green" points="1420.5,-288.08 1424.5,-288.08 1424.5,-284.08 1420.5,-284.08 "/>
<polyline fill="none" stroke="green" points="1420.5,-264.08 1424.5,-264.08 1424.5,-260.08 1420.5,-260.08 "/>
<text text-anchor="middle" x="1561.5" y="-270.38" font-family="Times,serif" font-size="14.00">$PROJECT_NAME&#45;mariadb&#45;phaidra&#45;1</text>
</a>
</g>
</g>
<!-- HS_MARIADB_PHAIDRA&#45;&#45;C_MARIADB_PHAIDRA -->
<g id="edge3" class="edge">
<title>HS_MARIADB_PHAIDRA&#45;&#45;C_MARIADB_PHAIDRA</title>
<path fill="none" stroke="turquoise" d="M1374.58,-1129.37C1383.92,-1124.96 1391.53,-1119.89 1397,-1114.08 1427.99,-1081.2 1387.73,-335.5 1417,-301.08 1419.79,-297.8 1422.85,-294.83 1426.11,-292.15"/>
</g>
<!-- HS_MONGODB_PHAIDRA -->
<g id="node4" class="node">
<title>HS_MONGODB_PHAIDRA</title>
<polygon fill="none" stroke="turquoise" points="1381,-873.08 1378,-877.08 1357,-877.08 1354,-873.08 578,-873.08 578,-821.08 1381,-821.08 1381,-873.08"/>
<text text-anchor="start" x="590.5" y="-854.88" font-family="Times,serif" font-weight="bold" font-size="14.00">host:</text>
<text text-anchor="start" x="798.5" y="-853.88" font-family="Times,serif" font-size="14.00">$HOME/.local/share/docker/volumes/$PROJECT_NAME_mongodb_phaidra/_data</text>
<text text-anchor="start" x="590.5" y="-832.88" font-family="Times,serif" font-size="14.00">phaidra&#45;mongodb&#45;container:</text>
<text text-anchor="start" x="798.5" y="-832.88" font-family="Times,serif" font-size="14.00">/data/db</text>
</g>
<!-- C_MONGODB_PHAIDRA -->
<g id="node19" class="node">
<title>C_MONGODB_PHAIDRA</title>
<g id="a_node19"><a xlink:href="https://www.mongodb.com/" xlink:title="$PROJECT_NAME&#45;mongodb&#45;phaidra&#45;1">
<polygon fill="none" stroke="green" points="1706,-568.08 1417,-568.08 1417,-564.08 1413,-564.08 1413,-560.08 1417,-560.08 1417,-540.08 1413,-540.08 1413,-536.08 1417,-536.08 1417,-532.08 1706,-532.08 1706,-568.08"/>
<polyline fill="none" stroke="green" points="1417,-564.08 1421,-564.08 1421,-560.08 1417,-560.08 "/>
<polyline fill="none" stroke="green" points="1417,-540.08 1421,-540.08 1421,-536.08 1417,-536.08 "/>
<text text-anchor="middle" x="1561.5" y="-546.38" font-family="Times,serif" font-size="14.00">$PROJECT_NAME&#45;mongodb&#45;phaidra&#45;1</text>
</a>
</g>
</g>
<!-- HS_MONGODB_PHAIDRA&#45;&#45;C_MONGODB_PHAIDRA -->
<g id="edge4" class="edge">
<title>HS_MONGODB_PHAIDRA&#45;&#45;C_MONGODB_PHAIDRA</title>
<path fill="none" stroke="turquoise" d="M1092.7,-873.11C1187.2,-887.76 1319.09,-889.9 1397,-812.08 1434.08,-775.04 1381.86,-615.97 1417,-577.08 1419.97,-573.79 1423.21,-570.82 1426.67,-568.15"/>
</g>
<!-- HS_OPENLDAP -->
<g id="node5" class="node">
<title>HS_OPENLDAP</title>
<polygon fill="none" stroke="turquoise" points="1319.5,-803.08 1316.5,-807.08 1295.5,-807.08 1292.5,-803.08 639.5,-803.08 639.5,-751.08 1319.5,-751.08 1319.5,-803.08"/>
<text text-anchor="start" x="651.5" y="-784.88" font-family="Times,serif" font-weight="bold" font-size="14.00">host:</text>
<text text-anchor="start" x="799.5" y="-783.88" font-family="Times,serif" font-size="14.00">$HOME/.local/share/docker/volumes/$PROJECT_NAME_openldap/_data</text>
<text text-anchor="start" x="651.5" y="-762.88" font-family="Times,serif" font-size="14.00">openldap&#45;container:</text>
<text text-anchor="start" x="799.5" y="-762.88" font-family="Times,serif" font-size="14.00">/bitnami/openldap</text>
</g>
<!-- C_OPENLDAP -->
<g id="node21" class="node">
<title>C_OPENLDAP</title>
<g id="a_node21"><a xlink:href="https://www.openldap.org/" xlink:title="$PROJECT_NAME&#45;openldap&#45;1">
<polygon fill="none" stroke="green" points="1676,-238.08 1447,-238.08 1447,-234.08 1443,-234.08 1443,-230.08 1447,-230.08 1447,-210.08 1443,-210.08 1443,-206.08 1447,-206.08 1447,-202.08 1676,-202.08 1676,-238.08"/>
<polyline fill="none" stroke="green" points="1447,-234.08 1451,-234.08 1451,-230.08 1447,-230.08 "/>
<polyline fill="none" stroke="green" points="1447,-210.08 1451,-210.08 1451,-206.08 1447,-206.08 "/>
<text text-anchor="middle" x="1561.5" y="-216.38" font-family="Times,serif" font-size="14.00">$PROJECT_NAME&#45;openldap&#45;1</text>
</a>
</g>
</g>
<!-- HS_OPENLDAP&#45;&#45;C_OPENLDAP -->
<g id="edge5" class="edge">
<title>HS_OPENLDAP&#45;&#45;C_OPENLDAP</title>
<path fill="none" stroke="turquoise" d="M1116.24,-803.11C1209.03,-812.33 1327.37,-805.66 1397,-731.08 1433.73,-691.74 1381.79,-287.79 1417,-247.08 1425.13,-237.68 1435.4,-230.9 1446.7,-226.06"/>
</g>
<!-- HS_SOLR -->
<g id="node6" class="node">
<title>HS_SOLR</title>
<polygon fill="none" stroke="turquoise" points="1281.5,-1385.08 1278.5,-1389.08 1257.5,-1389.08 1254.5,-1385.08 677.5,-1385.08 677.5,-1333.08 1281.5,-1333.08 1281.5,-1385.08"/>
<text text-anchor="start" x="689.5" y="-1366.88" font-family="Times,serif" font-weight="bold" font-size="14.00">host:</text>
<text text-anchor="start" x="799.5" y="-1365.88" font-family="Times,serif" font-size="14.00">$HOME/.local/share/docker/volumes/$PROJECT_NAME_solr/_data</text>
<text text-anchor="start" x="689.5" y="-1344.88" font-family="Times,serif" font-size="14.00">solr&#45;container:</text>
<text text-anchor="start" x="799.5" y="-1344.88" font-family="Times,serif" font-size="14.00">/var/solr</text>
</g>
<!-- C_SOLR -->
<g id="node22" class="node">
<title>C_SOLR</title>
<g id="a_node22"><a xlink:href="https://solr.apache.org/" xlink:title="$PROJECT_NAME&#45;solr&#45;1">
<polygon fill="none" stroke="green" points="1657,-346.08 1466,-346.08 1466,-342.08 1462,-342.08 1462,-338.08 1466,-338.08 1466,-318.08 1462,-318.08 1462,-314.08 1466,-314.08 1466,-310.08 1657,-310.08 1657,-346.08"/>
<polyline fill="none" stroke="green" points="1466,-342.08 1470,-342.08 1470,-338.08 1466,-338.08 "/>
<polyline fill="none" stroke="green" points="1466,-318.08 1470,-318.08 1470,-314.08 1466,-314.08 "/>
<text text-anchor="middle" x="1561.5" y="-324.38" font-family="Times,serif" font-size="14.00">$PROJECT_NAME&#45;solr&#45;1</text>
</a>
</g>
</g>
<!-- HS_SOLR&#45;&#45;C_SOLR -->
<g id="edge6" class="edge">
<title>HS_SOLR&#45;&#45;C_SOLR</title>
<path fill="none" stroke="turquoise" d="M1281.73,-1361.2C1334.34,-1355.29 1378.25,-1344.05 1397,-1324.08 1433.85,-1284.82 1382.2,-396.17 1417,-355.08 1429.45,-340.38 1447.16,-332.03 1465.9,-327.55"/>
</g>
<!-- HS_PIXELGECKO -->
<g id="node7" class="node">
<title>HS_PIXELGECKO</title>
<polygon fill="none" stroke="turquoise" points="1337,-1728.58 1334,-1732.58 1313,-1732.58 1310,-1728.58 622,-1728.58 622,-1655.58 1337,-1655.58 1337,-1728.58"/>
<text text-anchor="start" x="634.5" y="-1709.88" font-family="Times,serif" font-weight="bold" font-size="14.00">host:</text>
<text text-anchor="start" x="806.5" y="-1708.88" font-family="Times,serif" font-size="14.00">$HOME/.local/share/docker/volumes/$PROJECT_NAME_pixelgecko/_data</text>
<text text-anchor="start" x="634.5" y="-1687.88" font-family="Times,serif" font-size="14.00">pixelgecko&#45;container:</text>
<text text-anchor="start" x="806.5" y="-1687.88" font-family="Times,serif" font-size="14.00">/mnt/converted_images</text>
<text text-anchor="start" x="634.5" y="-1666.88" font-family="Times,serif" font-size="14.00">imageserver&#45;container:</text>
<text text-anchor="start" x="806.5" y="-1666.88" font-family="Times,serif" font-size="14.00">/mnt/converted_images:ro</text>
</g>
<!-- C_IMAGESERVER -->
<g id="node23" class="node">
<title>C_IMAGESERVER</title>
<g id="a_node23"><a xlink:href="https://github.com/ruven/iipsrv" xlink:title="$PROJECT_NAME&#45;imageserver&#45;1">
<polygon fill="none" stroke="green" points="1688,-454.08 1435,-454.08 1435,-450.08 1431,-450.08 1431,-446.08 1435,-446.08 1435,-426.08 1431,-426.08 1431,-422.08 1435,-422.08 1435,-418.08 1688,-418.08 1688,-454.08"/>
<polyline fill="none" stroke="green" points="1435,-450.08 1439,-450.08 1439,-446.08 1435,-446.08 "/>
<polyline fill="none" stroke="green" points="1435,-426.08 1439,-426.08 1439,-422.08 1435,-422.08 "/>
<text text-anchor="middle" x="1561.5" y="-432.38" font-family="Times,serif" font-size="14.00">$PROJECT_NAME&#45;imageserver&#45;1</text>
</a>
</g>
</g>
<!-- HS_PIXELGECKO&#45;&#45;C_IMAGESERVER -->
<g id="edge7" class="edge">
<title>HS_PIXELGECKO&#45;&#45;C_IMAGESERVER</title>
<path fill="none" stroke="turquoise" d="M1337.42,-1690.49C1359.59,-1679.43 1379.84,-1664.9 1397,-1646.08 1439.04,-1599.97 1385.9,-577.18 1417,-523.08 1436.1,-489.87 1473.44,-467.82 1505.24,-454.23"/>
</g>
<!-- HS_PIXELGECKO&#45;&#45;C_PIXELGECKO -->
<g id="edge9" class="edge">
<title>HS_PIXELGECKO&#45;&#45;C_PIXELGECKO</title>
<path fill="none" stroke="turquoise" d="M1337.15,-1674.67C1358.09,-1667 1378.23,-1657.58 1397,-1646.08 1767.78,-1418.96 1861.02,-809.76 1875.36,-696.38"/>
</g>
<!-- HS_DBGATE -->
<g id="node8" class="node">
<title>HS_DBGATE</title>
<polygon fill="none" stroke="turquoise" points="1304.5,-1315.08 1301.5,-1319.08 1280.5,-1319.08 1277.5,-1315.08 654.5,-1315.08 654.5,-1263.08 1304.5,-1263.08 1304.5,-1315.08"/>
<text text-anchor="start" x="666.5" y="-1296.88" font-family="Times,serif" font-weight="bold" font-size="14.00">host:</text>
<text text-anchor="start" x="799.5" y="-1295.88" font-family="Times,serif" font-size="14.00">$HOME/.local/share/docker/volumes/$PROJECT_NAME_dbgate/_data</text>
<text text-anchor="start" x="666.5" y="-1274.88" font-family="Times,serif" font-size="14.00">dbgate&#45;container:</text>
<text text-anchor="start" x="799.5" y="-1274.88" font-family="Times,serif" font-size="14.00">/root/.dbgate</text>
</g>
<!-- C_DBGATE -->
<g id="node25" class="node">
<title>C_DBGATE</title>
<polygon fill="none" stroke="green" points="1086,-244.08 873,-244.08 873,-240.08 869,-240.08 869,-236.08 873,-236.08 873,-216.08 869,-216.08 869,-212.08 873,-212.08 873,-208.08 1086,-208.08 1086,-244.08"/>
<polyline fill="none" stroke="green" points="873,-240.08 877,-240.08 877,-236.08 873,-236.08 "/>
<polyline fill="none" stroke="green" points="873,-216.08 877,-216.08 877,-212.08 873,-212.08 "/>
<text text-anchor="middle" x="979.5" y="-222.38" font-family="Times,serif" font-size="14.00">$PROJECT_NAME&#45;dbgate&#45;1</text>
</g>
<!-- HS_DBGATE&#45;&#45;C_DBGATE -->
<g id="edge10" class="edge">
<title>HS_DBGATE&#45;&#45;C_DBGATE</title>
<path fill="none" stroke="turquoise" d="M654.49,-1292.07C603.14,-1284.42 563.16,-1270.13 552,-1245.08 541.8,-1222.17 541.8,-364.99 552,-342.08 603.23,-227.05 763.83,-211.71 872.93,-215.6"/>
</g>
<!-- HS_MARIADB_FEDORA -->
<g id="node9" class="node">
<title>HS_MARIADB_FEDORA</title>
<polygon fill="none" stroke="turquoise" points="1365.5,-1799.08 1362.5,-1803.08 1341.5,-1803.08 1338.5,-1799.08 593.5,-1799.08 593.5,-1747.08 1365.5,-1747.08 1365.5,-1799.08"/>
<text text-anchor="start" x="605.5" y="-1780.88" font-family="Times,serif" font-weight="bold" font-size="14.00">host:</text>
<text text-anchor="start" x="798.5" y="-1779.88" font-family="Times,serif" font-size="14.00">$HOME/.local/share/docker/volumes/$PROJECT_NAME_mariadb_fedora/_data</text>
<text text-anchor="start" x="605.5" y="-1758.88" font-family="Times,serif" font-size="14.00">mariadb&#45;fedora&#45;container:</text>
<text text-anchor="start" x="798.5" y="-1758.88" font-family="Times,serif" font-size="14.00">/var/lib/mysql</text>
</g>
<!-- C_MARIADB_FEDORA -->
<g id="node27" class="node">
<title>C_MARIADB_FEDORA</title>
<g id="a_node27"><a xlink:href="https://mariadb.org/" xlink:title="$PROJECT_NAME&#45;mariadb&#45;fedora&#45;1">
<polygon fill="none" stroke="green" points="2015,-501.08 1742,-501.08 1742,-497.08 1738,-497.08 1738,-493.08 1742,-493.08 1742,-473.08 1738,-473.08 1738,-469.08 1742,-469.08 1742,-465.08 2015,-465.08 2015,-501.08"/>
<polyline fill="none" stroke="green" points="1742,-497.08 1746,-497.08 1746,-493.08 1742,-493.08 "/>
<polyline fill="none" stroke="green" points="1742,-473.08 1746,-473.08 1746,-469.08 1742,-469.08 "/>
<text text-anchor="middle" x="1878.5" y="-479.38" font-family="Times,serif" font-size="14.00">$PROJECT_NAME&#45;mariadb&#45;fedora&#45;1</text>
</a>
</g>
</g>
<!-- HS_MARIADB_FEDORA&#45;&#45;C_MARIADB_FEDORA -->
<g id="edge11" class="edge">
<title>HS_MARIADB_FEDORA&#45;&#45;C_MARIADB_FEDORA</title>
<path fill="none" stroke="turquoise" d="M1127.76,-1799.11C1215.2,-1806.01 1323.08,-1798.42 1397,-1738.08 1774.83,-1429.66 1577.38,-1155.55 1706,-685.08 1723.17,-622.28 1700,-592.83 1742,-543.08 1758.43,-523.62 1782.42,-510.24 1805.66,-501.14"/>
</g>
<!-- HS_DATABASE_DUMPS -->
<g id="node10" class="node">
<title>HS_DATABASE_DUMPS</title>
<polygon fill="none" stroke="turquoise" points="1373.5,-1035.08 1370.5,-1039.08 1349.5,-1039.08 1346.5,-1035.08 585.5,-1035.08 585.5,-983.08 1373.5,-983.08 1373.5,-1035.08"/>
<text text-anchor="start" x="597.5" y="-1016.88" font-family="Times,serif" font-weight="bold" font-size="14.00">host:</text>
<text text-anchor="start" x="736.5" y="-1015.88" font-family="Times,serif" font-size="14.00">$HOME/.local/share/docker/volumes/$PROJECT_NAME_chronos_database_dumps/_data</text>
<text text-anchor="start" x="597.5" y="-994.88" font-family="Times,serif" font-size="14.00">chronos&#45;container:</text>
<text text-anchor="start" x="736.5" y="-994.88" font-family="Times,serif" font-size="14.00">/mnt/database&#45;dumps</text>
</g>
<!-- HS_SITEMAPS -->
<g id="node11" class="node">
<title>HS_SITEMAPS</title>
<polygon fill="none" stroke="turquoise" points="1346.5,-964.58 1343.5,-968.58 1322.5,-968.58 1319.5,-964.58 612.5,-964.58 612.5,-891.58 1346.5,-891.58 1346.5,-964.58"/>
<text text-anchor="start" x="624.5" y="-945.88" font-family="Times,serif" font-weight="bold" font-size="14.00">host:</text>
<text text-anchor="start" x="763.5" y="-944.88" font-family="Times,serif" font-size="14.00">$HOME/.local/share/docker/volumes/$PROJECT_NAME_chronos_sitemaps/_data</text>
<text text-anchor="start" x="624.5" y="-923.88" font-family="Times,serif" font-size="14.00">chronos&#45;container:</text>
<text text-anchor="start" x="763.5" y="-923.88" font-family="Times,serif" font-size="14.00">/mnt/sitemaps</text>
<text text-anchor="start" x="624.5" y="-902.88" font-family="Times,serif" font-size="14.00">httpd&#45;container:</text>
<text text-anchor="start" x="763.5" y="-902.88" font-family="Times,serif" font-size="14.00">/mnt/sitemaps:ro</text>
</g>
<!-- HS_OAI_LOGS -->
<g id="node12" class="node">
<title>HS_OAI_LOGS</title>
<polygon fill="none" stroke="turquoise" points="1342.5,-1105.08 1339.5,-1109.08 1318.5,-1109.08 1315.5,-1105.08 616.5,-1105.08 616.5,-1053.08 1342.5,-1053.08 1342.5,-1105.08"/>
<text text-anchor="start" x="628.5" y="-1086.88" font-family="Times,serif" font-weight="bold" font-size="14.00">host:</text>
<text text-anchor="start" x="767.5" y="-1085.88" font-family="Times,serif" font-size="14.00">$HOME/.local/share/docker/volumes/$PROJECT_NAME_chronos_oai_logs/_data</text>
<text text-anchor="start" x="628.5" y="-1064.88" font-family="Times,serif" font-size="14.00">chronos&#45;container:</text>
<text text-anchor="start" x="767.5" y="-1064.88" font-family="Times,serif" font-size="14.00">/mnt/oai&#45;logs</text>
</g>
<!-- HS_GRAFANA -->
<g id="node13" class="node">
<title>HS_GRAFANA</title>
<polygon fill="none" stroke="turquoise" points="1309.5,-1525.08 1306.5,-1529.08 1285.5,-1529.08 1282.5,-1525.08 649.5,-1525.08 649.5,-1473.08 1309.5,-1473.08 1309.5,-1525.08"/>
<text text-anchor="start" x="661.5" y="-1506.88" font-family="Times,serif" font-weight="bold" font-size="14.00">host:</text>
<text text-anchor="start" x="799.5" y="-1505.88" font-family="Times,serif" font-size="14.00">$HOME/.local/share/docker/volumes/$PROJECT_NAME_grafana/_data</text>
<text text-anchor="start" x="661.5" y="-1484.88" font-family="Times,serif" font-size="14.00">grafana&#45;container:</text>
<text text-anchor="start" x="799.5" y="-1484.88" font-family="Times,serif" font-size="14.00">/var/lib/grafana</text>
</g>
<!-- HS_LOKI -->
<g id="node14" class="node">
<title>HS_LOKI</title>
<polygon fill="none" stroke="turquoise" points="1280.5,-1245.08 1277.5,-1249.08 1256.5,-1249.08 1253.5,-1245.08 678.5,-1245.08 678.5,-1193.08 1280.5,-1193.08 1280.5,-1245.08"/>
<text text-anchor="start" x="690.5" y="-1226.88" font-family="Times,serif" font-weight="bold" font-size="14.00">host:</text>
<text text-anchor="start" x="799.5" y="-1225.88" font-family="Times,serif" font-size="14.00">$HOME/.local/share/docker/volumes/$PROJECT_NAME_loki/_data</text>
<text text-anchor="start" x="690.5" y="-1204.88" font-family="Times,serif" font-size="14.00">loki&#45;container:</text>
<text text-anchor="start" x="799.5" y="-1204.88" font-family="Times,serif" font-size="14.00">/loki</text>
</g>
<!-- HS_PROMETHEUS -->
<g id="node15" class="node">
<title>HS_PROMETHEUS</title>
<polygon fill="none" stroke="turquoise" points="1340.5,-1455.08 1337.5,-1459.08 1316.5,-1459.08 1313.5,-1455.08 618.5,-1455.08 618.5,-1403.08 1340.5,-1403.08 1340.5,-1455.08"/>
<text text-anchor="start" x="630.5" y="-1436.88" font-family="Times,serif" font-weight="bold" font-size="14.00">host:</text>
<text text-anchor="start" x="799.5" y="-1435.88" font-family="Times,serif" font-size="14.00">$HOME/.local/share/docker/volumes/$PROJECT_NAME_prometheus/_data</text>
<text text-anchor="start" x="630.5" y="-1414.88" font-family="Times,serif" font-size="14.00">prometheus&#45;container:</text>
<text text-anchor="start" x="799.5" y="-1414.88" font-family="Times,serif" font-size="14.00">/prometheus</text>
</g>
<!-- C_FEDORA&#45;&#45;C_MARIADB_FEDORA -->
<g id="edge19" class="edge">
<title>C_FEDORA&#45;&#45;C_MARIADB_FEDORA</title>
<path fill="none" stroke="orange" d="M1666.24,-398.76C1679.73,-401.76 1693.27,-405.19 1706,-409.08 1754.53,-423.92 1807.82,-448.27 1841.91,-464.96"/>
</g>
<!-- C_API&#45;&#45;C_FEDORA -->
<g id="edge20" class="edge">
<title>C_API&#45;&#45;C_FEDORA</title>
<path fill="none" stroke="orange" d="M1072.08,-363.55C1176.71,-367.52 1347.52,-374 1456.92,-378.15"/>
</g>
<!-- C_API&#45;&#45;C_MARIADB_PHAIDRA -->
<g id="edge21" class="edge">
<title>C_API&#45;&#45;C_MARIADB_PHAIDRA</title>
<path fill="none" stroke="orange" d="M1072.08,-346.5C1171.12,-331.82 1329.47,-308.34 1438.89,-292.11"/>
</g>
<!-- C_API&#45;&#45;C_MONGODB_PHAIDRA -->
<g id="edge22" class="edge">
<title>C_API&#45;&#45;C_MONGODB_PHAIDRA</title>
<path fill="none" stroke="orange" d="M1072.12,-366.87C1159.21,-376.12 1292.09,-397.65 1397,-447.08 1407.3,-451.93 1407.67,-456.56 1417,-463.08 1453.9,-488.86 1498.53,-515.21 1528.11,-532.05"/>
</g>
<!-- C_UI -->
<g id="node20" class="node">
<title>C_UI</title>
<g id="a_node20"><a xlink:href="https://github.com/phaidra/phaidra-ui" xlink:title="$PROJECT_NAME&#45;ui&#45;1">
<polygon fill="none" stroke="green" points="1650,-164.08 1473,-164.08 1473,-160.08 1469,-160.08 1469,-156.08 1473,-156.08 1473,-136.08 1469,-136.08 1469,-132.08 1473,-132.08 1473,-128.08 1650,-128.08 1650,-164.08"/>
<polyline fill="none" stroke="green" points="1473,-160.08 1477,-160.08 1477,-156.08 1473,-156.08 "/>
<polyline fill="none" stroke="green" points="1473,-136.08 1477,-136.08 1477,-132.08 1473,-132.08 "/>
<text text-anchor="middle" x="1561.5" y="-142.38" font-family="Times,serif" font-size="14.00">$PROJECT_NAME&#45;ui&#45;1</text>
</a>
</g>
</g>
<!-- C_API&#45;&#45;C_UI -->
<g id="edge23" class="edge">
<title>C_API&#45;&#45;C_UI</title>
<path fill="none" stroke="orange" d="M1072.37,-360.73C1165.68,-356.42 1308.66,-335.42 1397,-253.08 1417.56,-233.91 1397.07,-212.9 1417,-193.08 1432.24,-177.92 1452.44,-167.65 1472.86,-160.69"/>
</g>
<!-- C_API&#45;&#45;C_OPENLDAP -->
<g id="edge24" class="edge">
<title>C_API&#45;&#45;C_OPENLDAP</title>
<path fill="none" stroke="orange" d="M1054.47,-342.03C1137.93,-321.44 1277.61,-286.31 1397,-253.08 1405.94,-250.59 1407.98,-249.27 1417,-247.08 1430.05,-243.9 1443.85,-240.88 1457.53,-238.09"/>
</g>
<!-- C_API&#45;&#45;C_SOLR -->
<g id="edge25" class="edge">
<title>C_API&#45;&#45;C_SOLR</title>
<path fill="none" stroke="orange" d="M1072.08,-355.03C1179.5,-349.1 1356.69,-339.32 1465.55,-333.32"/>
</g>
<!-- C_API&#45;&#45;C_IMAGESERVER -->
<g id="edge26" class="edge">
<title>C_API&#45;&#45;C_IMAGESERVER</title>
<path fill="none" stroke="orange" d="M1072.08,-372.08C1169.92,-384.9 1325.65,-405.31 1434.9,-419.62"/>
</g>
<!-- C_MONGODB_PHAIDRA&#45;&#45;C_PIXELGECKO -->
<g id="edge27" class="edge">
<title>C_MONGODB_PHAIDRA&#45;&#45;C_PIXELGECKO</title>
<path fill="none" stroke="orange" d="M1692.23,-568.22C1697.05,-570.83 1701.67,-573.77 1706,-577.08 1735.07,-599.27 1713.05,-628.73 1742,-651.08 1747.22,-655.11 1752.89,-658.59 1758.84,-661.58"/>
</g>
<!-- C_LAM -->
<g id="node26" class="node">
<title>C_LAM</title>
<polygon fill="none" stroke="green" points="1973.5,-127.08 1783.5,-127.08 1783.5,-123.08 1779.5,-123.08 1779.5,-119.08 1783.5,-119.08 1783.5,-99.08 1779.5,-99.08 1779.5,-95.08 1783.5,-95.08 1783.5,-91.08 1973.5,-91.08 1973.5,-127.08"/>
<polyline fill="none" stroke="green" points="1783.5,-123.08 1787.5,-123.08 1787.5,-119.08 1783.5,-119.08 "/>
<polyline fill="none" stroke="green" points="1783.5,-99.08 1787.5,-99.08 1787.5,-95.08 1783.5,-95.08 "/>
<text text-anchor="middle" x="1878.5" y="-105.38" font-family="Times,serif" font-size="14.00">$PROJECT_NAME&#45;lam&#45;1</text>
</g>
<!-- C_OPENLDAP&#45;&#45;C_LAM -->
<g id="edge28" class="edge">
<title>C_OPENLDAP&#45;&#45;C_LAM</title>
<path fill="none" stroke="orange" d="M1619.59,-201.97C1645.98,-193.45 1677.67,-183 1706,-173.08 1748.44,-158.22 1796.36,-140.23 1830.74,-127.12"/>
</g>
<!-- C_DBGATE&#45;&#45;C_MARIADB_PHAIDRA -->
<g id="edge29" class="edge">
<title>C_DBGATE&#45;&#45;C_MARIADB_PHAIDRA</title>
<path fill="none" stroke="orange" d="M1086.25,-233.59C1170.47,-239.72 1291.34,-248.85 1397,-258.08 1404.67,-258.75 1412.54,-259.46 1420.49,-260.19"/>
</g>
<!-- C_DBGATE&#45;&#45;C_MONGODB_PHAIDRA -->
<g id="edge30" class="edge">
<title>C_DBGATE&#45;&#45;C_MONGODB_PHAIDRA</title>
<path fill="none" stroke="orange" d="M1086.18,-222.81C1181.7,-225.98 1318.94,-246.9 1397,-333.08 1436.24,-376.41 1384.51,-414.48 1417,-463.08 1438.86,-495.78 1477.57,-518.19 1509.28,-532.06"/>
</g>
<!-- C_DBGATE&#45;&#45;C_MARIADB_FEDORA -->
<g id="edge31" class="edge">
<title>C_DBGATE&#45;&#45;C_MARIADB_FEDORA</title>
<path fill="none" stroke="orange" d="M1086.21,-215.08C1274.6,-196.39 1653.64,-163.21 1706,-193.08 1813.21,-254.23 1860.2,-411.59 1873.4,-465.02"/>
</g>
<!-- C_CHRONOS -->
<g id="node28" class="node">
<title>C_CHRONOS</title>
<polygon fill="none" stroke="green" points="542,-586.08 322,-586.08 322,-582.08 318,-582.08 318,-578.08 322,-578.08 322,-558.08 318,-558.08 318,-554.08 322,-554.08 322,-550.08 542,-550.08 542,-586.08"/>
<polyline fill="none" stroke="green" points="322,-582.08 326,-582.08 326,-578.08 322,-578.08 "/>
<polyline fill="none" stroke="green" points="322,-558.08 326,-558.08 326,-554.08 322,-554.08 "/>
<text text-anchor="middle" x="432" y="-564.38" font-family="Times,serif" font-size="14.00">$PROJECT_NAME&#45;chronos&#45;1</text>
</g>
<!-- C_CHRONOS&#45;&#45;HS_DATABASE_DUMPS -->
<g id="edge13" class="edge">
<title>C_CHRONOS&#45;&#45;HS_DATABASE_DUMPS</title>
<path fill="none" stroke="turquoise" d="M432.34,-586.51C431.09,-651.86 436.55,-873.98 562,-974.08 569.37,-979.96 577.07,-985.34 585.04,-990.25"/>
</g>
<!-- C_CHRONOS&#45;&#45;HS_SITEMAPS -->
<g id="edge14" class="edge">
<title>C_CHRONOS&#45;&#45;HS_SITEMAPS</title>
<path fill="none" stroke="turquoise" d="M434.31,-586.45C439.33,-641.69 462.43,-807.09 562,-882.08 577.54,-893.79 594.39,-903.55 612.09,-911.65"/>
</g>
<!-- C_CHRONOS&#45;&#45;HS_OAI_LOGS -->
<g id="edge15" class="edge">
<title>C_CHRONOS&#45;&#45;HS_OAI_LOGS</title>
<path fill="none" stroke="turquoise" d="M435.16,-586.19C445.02,-665.71 488.51,-982.81 562,-1044.08 637.1,-1106.7 748.54,-1113.09 837.25,-1105.1"/>
</g>
<!-- C_CHRONOS&#45;&#45;C_API -->
<g id="edge36" class="edge">
<title>C_CHRONOS&#45;&#45;C_API</title>
<path fill="none" stroke="orange" d="M440.12,-549.84C455.75,-512.59 496.94,-428.26 562,-392.08 662.46,-336.22 798.18,-337.26 886.99,-346.16"/>
</g>
<!-- C_CHRONOS&#45;&#45;C_MARIADB_PHAIDRA -->
<g id="edge33" class="edge">
<title>C_CHRONOS&#45;&#45;C_MARIADB_PHAIDRA</title>
<path fill="none" stroke="orange" d="M436.72,-549.89C447.15,-504.09 481.36,-384.08 562,-333.08 700.79,-245.31 1179.47,-255.02 1420.1,-266.09"/>
</g>
<!-- C_CHRONOS&#45;&#45;C_MONGODB_PHAIDRA -->
<g id="edge32" class="edge">
<title>C_CHRONOS&#45;&#45;C_MONGODB_PHAIDRA</title>
<path fill="none" stroke="orange" d="M542.17,-567.58C720.88,-566.57 1087.03,-563.7 1397,-556.08 1403.53,-555.92 1410.21,-555.74 1416.95,-555.54"/>
</g>
<!-- C_CHRONOS&#45;&#45;C_SOLR -->
<g id="edge35" class="edge">
<title>C_CHRONOS&#45;&#45;C_SOLR</title>
<path fill="none" stroke="orange" d="M445.93,-549.67C466.72,-521.76 510.52,-469.61 562,-447.08 732.42,-372.49 1237.63,-483.04 1397,-387.08 1411.37,-378.43 1403.15,-364.54 1417,-355.08 1431.45,-345.22 1448.53,-338.71 1465.78,-334.46"/>
</g>
<!-- C_CHRONOS&#45;&#45;C_MARIADB_FEDORA -->
<g id="edge34" class="edge">
<title>C_CHRONOS&#45;&#45;C_MARIADB_FEDORA</title>
<path fill="none" stroke="orange" d="M542.06,-557.59C548.81,-557.05 555.49,-556.54 562,-556.08 1069.84,-520.31 1198.25,-535.07 1706,-498.08 1717.63,-497.23 1729.69,-496.3 1741.79,-495.32"/>
</g>
<!-- C_HTTPD&#45;&#45;HS_SITEMAPS -->
<g id="edge12" class="edge">
<title>C_HTTPD&#45;&#45;HS_SITEMAPS</title>
<path fill="none" stroke="turquoise" d="M443.19,-298.35C465.8,-339.91 519.89,-445.39 542,-541.08 550.55,-578.06 535.86,-854.56 562,-882.08 576.91,-897.77 593.97,-910.44 612.49,-920.57"/>
</g>
<!-- C_HTTPD&#45;&#45;C_FEDORA -->
<g id="edge58" class="edge">
<title>C_HTTPD&#45;&#45;C_FEDORA</title>
<path fill="none" stroke="magenta" d="M533.69,-288.14C543.25,-288.83 552.81,-289.49 562,-290.08 654.71,-296.06 1313.04,-293.32 1397,-333.08 1408.94,-338.74 1405.46,-348.64 1417,-355.08 1429.28,-361.94 1442.98,-367.1 1456.91,-370.96"/>
</g>
<!-- C_HTTPD&#45;&#45;C_API -->
<g id="edge59" class="edge">
<title>C_HTTPD&#45;&#45;C_API</title>
<path fill="none" stroke="magenta" d="M510.55,-298.09C527.45,-301.69 545.28,-305.23 562,-308.08 673.16,-327.04 802.12,-342.08 886.75,-351.01"/>
</g>
<!-- C_HTTPD&#45;&#45;C_UI -->
<g id="edge60" class="edge">
<title>C_HTTPD&#45;&#45;C_UI</title>
<path fill="none" stroke="magenta" d="M454.1,-262C478.34,-242.46 520.15,-212.34 562,-199.08 572.81,-195.66 1231.49,-162.5 1472.98,-150.44"/>
</g>
<!-- C_HTTPD&#45;&#45;C_SOLR -->
<g id="edge61" class="edge">
<title>C_HTTPD&#45;&#45;C_SOLR</title>
<path fill="none" stroke="magenta" d="M533.59,-276.59C709.27,-271.69 1083.26,-266.58 1397,-298.08 1404.61,-298.84 1433.95,-304.12 1465.72,-310.04"/>
</g>
<!-- C_HTTPD&#45;&#45;C_DBGATE -->
<g id="edge62" class="edge">
<title>C_HTTPD&#45;&#45;C_DBGATE</title>
<path fill="none" stroke="magenta" d="M533.22,-262.06C542.93,-260.59 552.64,-259.24 562,-258.08 667.44,-245.07 788.6,-236.47 872.96,-231.49"/>
</g>
<!-- C_HTTPD&#45;&#45;C_LAM -->
<g id="edge63" class="edge">
<title>C_HTTPD&#45;&#45;C_LAM</title>
<path fill="none" stroke="magenta" d="M444.99,-261.67C465.13,-232.61 508.82,-177.02 562,-154.08 673.11,-106.15 1500.92,-106.73 1783.38,-108.36"/>
</g>
<!-- C_GRAFANA -->
<g id="node31" class="node">
<title>C_GRAFANA</title>
<g id="a_node31"><a xlink:href="https://grafana.com/docs/grafana/latest/getting-started/" xlink:title="$PROJECT_NAME&#45;grafana&#45;1">
<polygon fill="none" stroke="green" points="1088.5,-492.08 870.5,-492.08 870.5,-488.08 866.5,-488.08 866.5,-484.08 870.5,-484.08 870.5,-464.08 866.5,-464.08 866.5,-460.08 870.5,-460.08 870.5,-456.08 1088.5,-456.08 1088.5,-492.08"/>
<polyline fill="none" stroke="green" points="870.5,-488.08 874.5,-488.08 874.5,-484.08 870.5,-484.08 "/>
<polyline fill="none" stroke="green" points="870.5,-464.08 874.5,-464.08 874.5,-460.08 870.5,-460.08 "/>
<text text-anchor="middle" x="979.5" y="-470.38" font-family="Times,serif" font-size="14.00">$PROJECT_NAME&#45;grafana&#45;1</text>
</a>
</g>
</g>
<!-- C_HTTPD&#45;&#45;C_GRAFANA -->
<g id="edge64" class="edge">
<title>C_HTTPD&#45;&#45;C_GRAFANA</title>
<path fill="none" stroke="magenta" d="M449.4,-298.38C472.2,-322.61 515.87,-364.84 562,-387.08 660.15,-434.39 783.46,-456.07 870.36,-465.94"/>
</g>
<!-- C_PROMTAIL_LOCAL -->
<g id="node30" class="node">
<title>C_PROMTAIL_LOCAL</title>
<g id="a_node30"><a xlink:href="https://grafana.com/docs/loki/latest/send-data/promtail/" xlink:title="$PROJECT_NAME&#45;promtail&#45;local&#45;1">
<polygon fill="none" stroke="green" points="286,-378.08 24,-378.08 24,-374.08 20,-374.08 20,-370.08 24,-370.08 24,-350.08 20,-350.08 20,-346.08 24,-346.08 24,-342.08 286,-342.08 286,-378.08"/>
<polyline fill="none" stroke="green" points="24,-374.08 28,-374.08 28,-370.08 24,-370.08 "/>
<polyline fill="none" stroke="green" points="24,-350.08 28,-350.08 28,-346.08 24,-346.08 "/>
<text text-anchor="middle" x="155" y="-356.38" font-family="Times,serif" font-size="14.00">$PROJECT_NAME&#45;promtail&#45;local&#45;1</text>
</a>
</g>
</g>
<!-- C_PROMTAIL_LOCAL&#45;&#45;C_FEDORA -->
<g id="edge50" class="edge">
<title>C_PROMTAIL_LOCAL&#45;&#45;C_FEDORA</title>
<path fill="none" stroke="black" d="M286.17,-370.94C365.76,-377.04 469.69,-384.01 562,-387.08 932.91,-399.4 1025.93,-392.75 1397,-387.08 1416.31,-386.79 1436.9,-386.29 1456.72,-385.73"/>
</g>
<!-- C_PROMTAIL_LOCAL&#45;&#45;C_API -->
<g id="edge41" class="edge">
<title>C_PROMTAIL_LOCAL&#45;&#45;C_API</title>
<path fill="none" stroke="black" d="M286.33,-360.08C453.93,-360.08 740.77,-360.08 886.98,-360.08"/>
</g>
<!-- C_PROMTAIL_LOCAL&#45;&#45;C_MARIADB_PHAIDRA -->
<g id="edge38" class="edge">
<title>C_PROMTAIL_LOCAL&#45;&#45;C_MARIADB_PHAIDRA</title>
<path fill="none" stroke="black" d="M281.27,-342.03C282.9,-340.78 284.47,-339.46 286,-338.08 331.34,-296.92 273.84,-242.9 322,-205.08 364.03,-172.08 1247.35,-99.31 1397,-199.08 1416.23,-211.9 1399.04,-232.53 1417,-247.08 1421.14,-250.43 1425.56,-253.42 1430.19,-256.07"/>
</g>
<!-- C_PROMTAIL_LOCAL&#45;&#45;C_MONGODB_PHAIDRA -->
<g id="edge37" class="edge">
<title>C_PROMTAIL_LOCAL&#45;&#45;C_MONGODB_PHAIDRA</title>
<path fill="none" stroke="black" d="M162.19,-378.4C179.07,-425.02 230.85,-547.87 322,-595.08 515.68,-695.4 1179.43,-608.59 1447.17,-568.13"/>
</g>
<!-- C_PROMTAIL_LOCAL&#45;&#45;C_UI -->
<g id="edge42" class="edge">
<title>C_PROMTAIL_LOCAL&#45;&#45;C_UI</title>
<path fill="none" stroke="black" d="M281.72,-342.01C283.2,-340.77 284.62,-339.46 286,-338.08 353.88,-270.18 249.45,-187.97 322,-125.08 345.81,-104.44 888.15,-77.35 1397,-119.08 1421.66,-121.1 1448.2,-124.81 1472.58,-128.85"/>
</g>
<!-- C_PROMTAIL_LOCAL&#45;&#45;C_OPENLDAP -->
<g id="edge45" class="edge">
<title>C_PROMTAIL_LOCAL&#45;&#45;C_OPENLDAP</title>
<path fill="none" stroke="black" d="M281.65,-341.93C283.14,-340.71 284.6,-339.43 286,-338.08 342,-284.27 264.1,-218.84 322,-167.08 401.89,-95.67 454.97,-149.2 562,-144.08 654.67,-139.65 1314.86,-100.95 1397,-144.08 1410.86,-151.36 1404.46,-163.71 1417,-173.08 1434.01,-185.79 1454.62,-195.16 1474.85,-202.04"/>
</g>
<!-- C_PROMTAIL_LOCAL&#45;&#45;C_SOLR -->
<g id="edge40" class="edge">
<title>C_PROMTAIL_LOCAL&#45;&#45;C_SOLR</title>
<path fill="none" stroke="black" d="M286.17,-349.38C365.77,-343.35 469.69,-336.38 562,-333.08 893.98,-321.22 1288.42,-324.31 1465.81,-326.62"/>
</g>
<!-- C_PROMTAIL_LOCAL&#45;&#45;C_IMAGESERVER -->
<g id="edge43" class="edge">
<title>C_PROMTAIL_LOCAL&#45;&#45;C_IMAGESERVER</title>
<path fill="none" stroke="black" d="M264.28,-378.11C283.47,-380.81 303.29,-383.29 322,-385.08 428.27,-395.27 455.33,-390.67 562,-395.08 875.98,-408.07 1245.5,-423.2 1434.79,-430.94"/>
</g>
<!-- C_PROMTAIL_LOCAL&#45;&#45;C_PIXELGECKO -->
<g id="edge49" class="edge">
<title>C_PROMTAIL_LOCAL&#45;&#45;C_PIXELGECKO</title>
<path fill="none" stroke="black" d="M161.16,-378.2C176.3,-427.56 225.7,-564.48 322,-621.08 564.15,-763.4 1438.68,-712.17 1758.93,-687.88"/>
</g>
<!-- C_PROMTAIL_LOCAL&#45;&#45;C_DBGATE -->
<g id="edge47" class="edge">
<title>C_PROMTAIL_LOCAL&#45;&#45;C_DBGATE</title>
<path fill="none" stroke="black" d="M280.73,-341.92C282.54,-340.71 284.29,-339.43 286,-338.08 318.19,-312.64 288.27,-276.44 322,-253.08 408.34,-193.3 710.09,-205.54 872.73,-217.13"/>
</g>
<!-- C_PROMTAIL_LOCAL&#45;&#45;C_LAM -->
<g id="edge46" class="edge">
<title>C_PROMTAIL_LOCAL&#45;&#45;C_LAM</title>
<path fill="none" stroke="black" d="M281.76,-342.04C283.22,-340.79 284.64,-339.47 286,-338.08 361.27,-261.44 241.32,-170 322,-99.08 539.1,91.74 1480.74,-43.55 1783.42,-93"/>
</g>
<!-- C_PROMTAIL_LOCAL&#45;&#45;C_MARIADB_FEDORA -->
<g id="edge39" class="edge">
<title>C_PROMTAIL_LOCAL&#45;&#45;C_MARIADB_FEDORA</title>
<path fill="none" stroke="black" d="M194.05,-378.15C264.63,-410.55 421.47,-477.37 562,-501.08 744.97,-531.95 1211.96,-514.88 1397,-501.08 1405.96,-500.41 1408.05,-498.89 1417,-498.08 1477.64,-492.56 1629.03,-488.3 1741.78,-485.76"/>
</g>
<!-- C_PROMTAIL_LOCAL&#45;&#45;C_CHRONOS -->
<g id="edge48" class="edge">
<title>C_PROMTAIL_LOCAL&#45;&#45;C_CHRONOS</title>
<path fill="none" stroke="black" d="M168.08,-378.28C192.72,-413.97 252.36,-493.37 322,-536.08 330.99,-541.6 340.99,-546.2 351.18,-550.04"/>
</g>
<!-- C_PROMTAIL_LOCAL&#45;&#45;C_HTTPD -->
<g id="edge44" class="edge">
<title>C_PROMTAIL_LOCAL&#45;&#45;C_HTTPD</title>
<path fill="none" stroke="black" d="M273.74,-342.03C277.91,-340.8 282,-339.48 286,-338.08 303.27,-332.02 305.3,-325.56 322,-318.08 338.37,-310.75 356.61,-303.89 373.42,-298.09"/>
</g>
<!-- C_LOKI -->
<g id="node32" class="node">
<title>C_LOKI</title>
<g id="a_node32"><a xlink:href="https://grafana.com/docs/loki/latest/" xlink:title="$PROJECT_NAME&#45;loki&#45;1">
<polygon fill="none" stroke="green" points="1656,-622.08 1467,-622.08 1467,-618.08 1463,-618.08 1463,-614.08 1467,-614.08 1467,-594.08 1463,-594.08 1463,-590.08 1467,-590.08 1467,-586.08 1656,-586.08 1656,-622.08"/>
<polyline fill="none" stroke="green" points="1467,-618.08 1471,-618.08 1471,-614.08 1467,-614.08 "/>
<polyline fill="none" stroke="green" points="1467,-594.08 1471,-594.08 1471,-590.08 1467,-590.08 "/>
<text text-anchor="middle" x="1561.5" y="-600.38" font-family="Times,serif" font-size="14.00">$PROJECT_NAME&#45;loki&#45;1</text>
</a>
</g>
</g>
<!-- C_PROMTAIL_LOCAL&#45;&#45;C_LOKI -->
<g id="edge51" class="edge">
<title>C_PROMTAIL_LOCAL&#45;&#45;C_LOKI</title>
<path fill="none" stroke="black" d="M168.51,-378.21C193.24,-412.35 252.08,-485.47 322,-516.08 348.2,-527.55 1182.8,-580.52 1466.89,-598.27"/>
</g>
<!-- C_GRAFANA&#45;&#45;HS_GRAFANA -->
<g id="edge16" class="edge">
<title>C_GRAFANA&#45;&#45;HS_GRAFANA</title>
<path fill="none" stroke="turquoise" d="M911.47,-492.13C808.4,-523.81 617.72,-600.51 552,-748.08 544.01,-766.02 544.01,-1437.14 552,-1455.08 562.78,-1479.28 600.46,-1493.44 649.29,-1501.26"/>
</g>
<!-- C_GRAFANA&#45;&#45;C_MARIADB_PHAIDRA -->
<g id="edge55" class="edge">
<title>C_GRAFANA&#45;&#45;C_MARIADB_PHAIDRA</title>
<path fill="none" stroke="black" d="M1088.81,-481.53C1182.76,-481.79 1316.05,-466.22 1397,-387.08 1425.06,-359.65 1388.67,-328.23 1417,-301.08 1420.48,-297.75 1424.23,-294.76 1428.2,-292.09"/>
</g>
<!-- C_GRAFANA&#45;&#45;C_MARIADB_FEDORA -->
<g id="edge54" class="edge">
<title>C_GRAFANA&#45;&#45;C_MARIADB_FEDORA</title>
<path fill="none" stroke="black" d="M1088.7,-475.17C1252.49,-476.81 1563.16,-479.93 1741.84,-481.72"/>
</g>
<!-- C_GRAFANA&#45;&#45;C_LOKI -->
<g id="edge52" class="edge">
<title>C_GRAFANA&#45;&#45;C_LOKI</title>
<path fill="none" stroke="black" d="M1088.92,-459.1C1180.39,-452.58 1309.97,-458.45 1397,-526.08 1416.22,-541.02 1398.25,-561.55 1417,-577.08 1431.16,-588.8 1448.8,-596.05 1466.83,-600.42"/>
</g>
<!-- C_PROMETHEUS -->
<g id="node34" class="node">
<title>C_PROMETHEUS</title>
<g id="a_node34"><a xlink:href="https://prometheus.io" xlink:title="$PROJECT_NAME&#45;prometheus&#45;1">
<polygon fill="none" stroke="green" points="1686,-676.08 1437,-676.08 1437,-672.08 1433,-672.08 1433,-668.08 1437,-668.08 1437,-648.08 1433,-648.08 1433,-644.08 1437,-644.08 1437,-640.08 1686,-640.08 1686,-676.08"/>
<polyline fill="none" stroke="green" points="1437,-672.08 1441,-672.08 1441,-668.08 1437,-668.08 "/>
<polyline fill="none" stroke="green" points="1437,-648.08 1441,-648.08 1441,-644.08 1437,-644.08 "/>
<text text-anchor="middle" x="1561.5" y="-654.38" font-family="Times,serif" font-size="14.00">$PROJECT_NAME&#45;prometheus&#45;1</text>
</a>
</g>
</g>
<!-- C_GRAFANA&#45;&#45;C_PROMETHEUS -->
<g id="edge53" class="edge">
<title>C_GRAFANA&#45;&#45;C_PROMETHEUS</title>
<path fill="none" stroke="black" d="M1023.44,-492.12C1100.87,-524.06 1269.55,-590.96 1417,-631.08 1428.99,-634.34 1441.64,-637.34 1454.27,-640.07"/>
</g>
<!-- C_LOKI&#45;&#45;HS_LOKI -->
<g id="edge17" class="edge">
<title>C_LOKI&#45;&#45;HS_LOKI</title>
<path fill="none" stroke="turquoise" d="M1466.81,-603.52C1447.79,-607.95 1429.73,-616.28 1417,-631.08 1376.9,-677.69 1439.43,-1139.58 1397,-1184.08 1378,-1204 1333.68,-1215.19 1280.71,-1221.07"/>
</g>
<!-- C_NODE_EXPORTER -->
<g id="node33" class="node">
<title>C_NODE_EXPORTER</title>
<g id="a_node33"><a xlink:href="https://prometheus.io/docs/guides/node-exporter/" xlink:title="$PROJECT_NAME&#45;node&#45;exporter&#45;1">
<polygon fill="none" stroke="green" points="2010.5,-588.08 1746.5,-588.08 1746.5,-584.08 1742.5,-584.08 1742.5,-580.08 1746.5,-580.08 1746.5,-560.08 1742.5,-560.08 1742.5,-556.08 1746.5,-556.08 1746.5,-552.08 2010.5,-552.08 2010.5,-588.08"/>
<polyline fill="none" stroke="green" points="1746.5,-584.08 1750.5,-584.08 1750.5,-580.08 1746.5,-580.08 "/>
<polyline fill="none" stroke="green" points="1746.5,-560.08 1750.5,-560.08 1750.5,-556.08 1746.5,-556.08 "/>
<text text-anchor="middle" x="1878.5" y="-566.38" font-family="Times,serif" font-size="14.00">$PROJECT_NAME&#45;node&#45;exporter&#45;1</text>
</a>
</g>
</g>
<!-- C_PROMETHEUS&#45;&#45;HS_PROMETHEUS -->
<g id="edge18" class="edge">
<title>C_PROMETHEUS&#45;&#45;HS_PROMETHEUS</title>
<path fill="none" stroke="turquoise" d="M1553.63,-676.4C1530.03,-740.23 1451.8,-959.17 1417,-1147.08 1411.99,-1174.15 1416.44,-1374.58 1397,-1394.08 1319.13,-1472.19 1186.9,-1469.88 1092.31,-1455.12"/>
</g>
<!-- C_PROMETHEUS&#45;&#45;C_NODE_EXPORTER -->
<g id="edge57" class="edge">
<title>C_PROMETHEUS&#45;&#45;C_NODE_EXPORTER</title>
<path fill="none" stroke="black" d="M1685.08,-640.05C1692.3,-637.45 1699.34,-634.48 1706,-631.08 1725.61,-621.09 1722.45,-607.18 1742,-597.08 1748.61,-593.67 1755.6,-590.69 1762.79,-588.08"/>
</g>
<!-- C_CADVISOR -->
<g id="node35" class="node">
<title>C_CADVISOR</title>
<g id="a_node35"><a xlink:href="https://github.com/google/cadvisor" xlink:title="$PROJECT_NAME&#45;cadvisor&#45;1">
<polygon fill="none" stroke="green" points="1990.5,-642.08 1766.5,-642.08 1766.5,-638.08 1762.5,-638.08 1762.5,-634.08 1766.5,-634.08 1766.5,-614.08 1762.5,-614.08 1762.5,-610.08 1766.5,-610.08 1766.5,-606.08 1990.5,-606.08 1990.5,-642.08"/>
<polyline fill="none" stroke="green" points="1766.5,-638.08 1770.5,-638.08 1770.5,-634.08 1766.5,-634.08 "/>
<polyline fill="none" stroke="green" points="1766.5,-614.08 1770.5,-614.08 1770.5,-610.08 1766.5,-610.08 "/>
<text text-anchor="middle" x="1878.5" y="-620.38" font-family="Times,serif" font-size="14.00">$PROJECT_NAME&#45;cadvisor&#45;1</text>
</a>
</g>
</g>
<!-- C_PROMETHEUS&#45;&#45;C_CADVISOR -->
<g id="edge56" class="edge">
<title>C_PROMETHEUS&#45;&#45;C_CADVISOR</title>
<path fill="none" stroke="black" d="M1686.09,-644.74C1712.55,-641.88 1740.35,-638.88 1766.3,-636.08"/>
</g>
</g>
</svg>
