<?xml version="1.0" encoding="UTF-8" standalone="no"?>
<!DOCTYPE svg PUBLIC "-//W3C//DTD SVG 1.1//EN"
 "http://www.w3.org/Graphics/SVG/1.1/DTD/svg11.dtd">
<!-- Generated by graphviz version 2.43.0 (0)
 -->
<!-- Title: G Pages: 1 -->
<svg width="2047pt" height="1995pt"
 viewBox="0.00 0.00 2047.00 1995.00" xmlns="http://www.w3.org/2000/svg" xmlns:xlink="http://www.w3.org/1999/xlink">
<g id="graph0" class="graph" transform="scale(1 1) rotate(0) translate(4 1991)">
<title>G</title>
<polygon fill="white" stroke="transparent" points="-4,4 -4,-1991 2043,-1991 2043,4 -4,4"/>
<g id="clust1" class="cluster">
<title>cluster_host</title>
<polygon fill="none" stroke="red" points="8,-8 8,-1927 2031,-1927 2031,-8 8,-8"/>
<text text-anchor="middle" x="1019.5" y="-1911.8" font-family="Times,serif" font-size="14.00">PHAIDRA server firewall</text>
</g>
<g id="clust2" class="cluster">
<title>cluster_host_storage</title>
<polygon fill="none" stroke="black" points="562,-671 562,-1896 1397,-1896 1397,-671 562,-671"/>
<text text-anchor="middle" x="979.5" y="-1880.8" font-family="Times,serif" font-size="14.00">PHAIDRA server filesystem</text>
</g>
<g id="clust3" class="cluster">
<title>cluster_named_volumes</title>
<polygon fill="none" stroke="turquoise" points="570,-778 570,-1865 1389,-1865 1389,-778 570,-778"/>
<text text-anchor="middle" x="979.5" y="-1849.8" font-family="Times,serif" font-size="14.00">Named volumes</text>
</g>
<g id="clust4" class="cluster">
<title>cluster_bind_mounts</title>
<polygon fill="none" stroke="black" points="854,-679 854,-770 1105,-770 1105,-679 854,-679"/>
<text text-anchor="middle" x="979.5" y="-754.8" font-family="Times,serif" font-size="14.00">Bind mounts</text>
</g>
<g id="clust5" class="cluster">
<title>cluster_docker_network_host</title>
<polygon fill="none" stroke="green" points="16,-16 16,-663 2023,-663 2023,-16 16,-16"/>
<text text-anchor="middle" x="1019.5" y="-647.8" font-family="Times,serif" font-size="14.00">PHAIDRA docker containers</text>
</g>
<!-- USER -->
<g id="node1" class="node">
<title>USER</title>
<polygon fill="none" stroke="black" points="247.73,-1953.54 247.73,-1968.46 193.41,-1979 116.59,-1979 62.27,-1968.46 62.27,-1953.54 116.59,-1943 193.41,-1943 247.73,-1953.54"/>
<polygon fill="none" stroke="black" points="251.73,-1950.25 251.73,-1971.75 193.79,-1983 116.21,-1983 58.27,-1971.75 58.27,-1950.25 116.21,-1939 193.79,-1939 251.73,-1950.25"/>
<polygon fill="none" stroke="black" points="255.72,-1946.95 255.72,-1975.05 194.18,-1987 115.82,-1987 54.28,-1975.05 54.28,-1946.95 115.82,-1935 194.18,-1935 255.72,-1946.95"/>
<text text-anchor="middle" x="155" y="-1957.3" font-family="Times,serif" font-size="14.00">PHAIDRA USER</text>
</g>
<!-- C_HTTPD -->
<g id="node30" class="node">
<title>C_HTTPD</title>
<polygon fill="none" stroke="green" points="533.5,-390 330.5,-390 330.5,-386 326.5,-386 326.5,-382 330.5,-382 330.5,-362 326.5,-362 326.5,-358 330.5,-358 330.5,-354 533.5,-354 533.5,-390"/>
<polyline fill="none" stroke="green" points="330.5,-386 334.5,-386 334.5,-382 330.5,-382 "/>
<polyline fill="none" stroke="green" points="330.5,-362 334.5,-362 334.5,-358 330.5,-358 "/>
<text text-anchor="middle" x="432" y="-368.3" font-family="Times,serif" font-size="14.00">$PROJECT_NAME&#45;httpd&#45;1</text>
</g>
<!-- USER&#45;&#45;C_HTTPD -->
<g id="edge66" class="edge">
<title>USER&#45;&#45;C_HTTPD</title>
<path fill="none" stroke="red" d="M158.46,-1934.88C177.31,-1734.95 298.84,-454.17 322,-422 332.28,-407.72 347.65,-397.42 363.63,-390.03"/>
</g>
<!-- HS_FEDORA -->
<g id="node2" class="node">
<title>HS_FEDORA</title>
<polygon fill="none" stroke="turquoise" points="1315.5,-1672 1312.5,-1676 1291.5,-1676 1288.5,-1672 643.5,-1672 643.5,-1578 1315.5,-1578 1315.5,-1672"/>
<text text-anchor="start" x="655.5" y="-1653.8" font-family="Times,serif" font-weight="bold" font-size="14.00">host:</text>
<text text-anchor="start" x="814.5" y="-1652.8" font-family="Times,serif" font-size="14.00">$HOME/.local/share/docker/volumes/$PROJECT_NAME_fedora/_data</text>
<text text-anchor="start" x="655.5" y="-1631.8" font-family="Times,serif" font-size="14.00">fedora&#45;container:</text>
<text text-anchor="start" x="814.5" y="-1631.8" font-family="Times,serif" font-size="14.00">/usr/local/tomcat/fcrepo&#45;home</text>
<text text-anchor="start" x="655.5" y="-1610.8" font-family="Times,serif" font-size="14.00">pixelgecko&#45;container:</text>
<text text-anchor="start" x="814.5" y="-1610.8" font-family="Times,serif" font-size="14.00"> /mnt/fedora:ro</text>
<text text-anchor="start" x="655.5" y="-1589.8" font-family="Times,serif" font-size="14.00">api&#45;container:</text>
<text text-anchor="start" x="814.5" y="-1589.8" font-family="Times,serif" font-size="14.00"> /mnt/fedora:ro</text>
</g>
<!-- C_FEDORA -->
<g id="node17" class="node">
<title>C_FEDORA</title>
<g id="a_node17"><a xlink:href="https://fedora.lyrasis.org/" xlink:title="$PROJECT_NAME&#45;fedora&#45;1">
<polygon fill="none" stroke="green" points="1666,-336 1457,-336 1457,-332 1453,-332 1453,-328 1457,-328 1457,-308 1453,-308 1453,-304 1457,-304 1457,-300 1666,-300 1666,-336"/>
<polyline fill="none" stroke="green" points="1457,-332 1461,-332 1461,-328 1457,-328 "/>
<polyline fill="none" stroke="green" points="1457,-308 1461,-308 1461,-304 1457,-304 "/>
<text text-anchor="middle" x="1561.5" y="-314.3" font-family="Times,serif" font-size="14.00">$PROJECT_NAME&#45;fedora&#45;1</text>
</a>
</g>
</g>
<!-- HS_FEDORA&#45;&#45;C_FEDORA -->
<g id="edge1" class="edge">
<title>HS_FEDORA&#45;&#45;C_FEDORA</title>
<path fill="none" stroke="turquoise" d="M1315.96,-1624.6C1346.65,-1612.14 1374.57,-1594.21 1397,-1569 1440.73,-1519.85 1381.2,-440.19 1417,-385 1432.26,-361.47 1458.14,-346.06 1483.76,-336.02"/>
</g>
<!-- C_API -->
<g id="node18" class="node">
<title>C_API</title>
<g id="a_node18"><a xlink:href="https://github.com/phaidra/phaidra-api" xlink:title="$PROJECT_NAME&#45;api&#45;1">
<polygon fill="none" stroke="green" points="1072,-256 887,-256 887,-252 883,-252 883,-248 887,-248 887,-228 883,-228 883,-224 887,-224 887,-220 1072,-220 1072,-256"/>
<polyline fill="none" stroke="green" points="887,-252 891,-252 891,-248 887,-248 "/>
<polyline fill="none" stroke="green" points="887,-228 891,-228 891,-224 887,-224 "/>
<text text-anchor="middle" x="979.5" y="-234.3" font-family="Times,serif" font-size="14.00">$PROJECT_NAME&#45;api&#45;1</text>
</a>
</g>
</g>
<!-- HS_FEDORA&#45;&#45;C_API -->
<g id="edge2" class="edge">
<title>HS_FEDORA&#45;&#45;C_API</title>
<path fill="none" stroke="turquoise" d="M643.42,-1641.3C603.41,-1626.47 570.29,-1601.06 552,-1560 538.82,-1530.41 538.82,-423.59 552,-394 606.8,-270.95 778.24,-242.61 886.63,-237.4"/>
</g>
<!-- C_PIXELGECKO -->
<g id="node25" class="node">
<title>C_PIXELGECKO</title>
<polygon fill="none" stroke="green" points="1998,-632 1759,-632 1759,-628 1755,-628 1755,-624 1759,-624 1759,-604 1755,-604 1755,-600 1759,-600 1759,-596 1998,-596 1998,-632"/>
<polyline fill="none" stroke="green" points="1759,-628 1763,-628 1763,-624 1759,-624 "/>
<polyline fill="none" stroke="green" points="1759,-604 1763,-604 1763,-600 1759,-600 "/>
<text text-anchor="middle" x="1878.5" y="-610.3" font-family="Times,serif" font-size="14.00">$PROJECT_NAME&#45;pixelgecko&#45;1</text>
</g>
<!-- HS_FEDORA&#45;&#45;C_PIXELGECKO -->
<g id="edge8" class="edge">
<title>HS_FEDORA&#45;&#45;C_PIXELGECKO</title>
<path fill="none" stroke="turquoise" d="M1315.71,-1620.3C1345.85,-1608.49 1373.72,-1591.89 1397,-1569 1439.31,-1527.4 1397.76,-1493.13 1417,-1437 1536.33,-1088.91 1801.07,-717.68 1863.92,-632.24"/>
</g>
<!-- HS_MARIADB_PHAIDRA -->
<g id="node3" class="node">
<title>HS_MARIADB_PHAIDRA</title>
<polygon fill="none" stroke="turquoise" points="1374.5,-1210 1371.5,-1214 1350.5,-1214 1347.5,-1210 584.5,-1210 584.5,-1158 1374.5,-1158 1374.5,-1210"/>
<text text-anchor="start" x="596.5" y="-1191.8" font-family="Times,serif" font-weight="bold" font-size="14.00">host:</text>
<text text-anchor="start" x="798.5" y="-1190.8" font-family="Times,serif" font-size="14.00">$HOME/.local/share/docker/volumes/$PROJECT_NAME_mariadb_phaidra/_data</text>
<text text-anchor="start" x="596.5" y="-1169.8" font-family="Times,serif" font-size="14.00">mariadb&#45;phaidra&#45;container:</text>
<text text-anchor="start" x="798.5" y="-1169.8" font-family="Times,serif" font-size="14.00">/var/lib/mysql</text>
</g>
<!-- C_MARIADB_PHAIDRA -->
<g id="node19" class="node">
<title>C_MARIADB_PHAIDRA</title>
<g id="a_node19"><a xlink:href="https://mariadb.org/" xlink:title="$PROJECT_NAME&#45;mariadb&#45;phaidra&#45;1">
<polygon fill="none" stroke="green" points="1702.5,-430 1420.5,-430 1420.5,-426 1416.5,-426 1416.5,-422 1420.5,-422 1420.5,-402 1416.5,-402 1416.5,-398 1420.5,-398 1420.5,-394 1702.5,-394 1702.5,-430"/>
<polyline fill="none" stroke="green" points="1420.5,-426 1424.5,-426 1424.5,-422 1420.5,-422 "/>
<polyline fill="none" stroke="green" points="1420.5,-402 1424.5,-402 1424.5,-398 1420.5,-398 "/>
<text text-anchor="middle" x="1561.5" y="-408.3" font-family="Times,serif" font-size="14.00">$PROJECT_NAME&#45;mariadb&#45;phaidra&#45;1</text>
</a>
</g>
</g>
<!-- HS_MARIADB_PHAIDRA&#45;&#45;C_MARIADB_PHAIDRA -->
<g id="edge3" class="edge">
<title>HS_MARIADB_PHAIDRA&#45;&#45;C_MARIADB_PHAIDRA</title>
<path fill="none" stroke="turquoise" d="M1374.55,-1164.26C1383.89,-1159.86 1391.51,-1154.8 1397,-1149 1449.73,-1093.3 1371.1,-520.45 1417,-459 1426.49,-446.29 1439.51,-436.97 1453.86,-430.14"/>
</g>
<!-- HS_MONGODB_PHAIDRA -->
<g id="node4" class="node">
<title>HS_MONGODB_PHAIDRA</title>
<polygon fill="none" stroke="turquoise" points="1381,-908 1378,-912 1357,-912 1354,-908 578,-908 578,-856 1381,-856 1381,-908"/>
<text text-anchor="start" x="590.5" y="-889.8" font-family="Times,serif" font-weight="bold" font-size="14.00">host:</text>
<text text-anchor="start" x="798.5" y="-888.8" font-family="Times,serif" font-size="14.00">$HOME/.local/share/docker/volumes/$PROJECT_NAME_mongodb_phaidra/_data</text>
<text text-anchor="start" x="590.5" y="-867.8" font-family="Times,serif" font-size="14.00">phaidra&#45;mongodb&#45;container:</text>
<text text-anchor="start" x="798.5" y="-867.8" font-family="Times,serif" font-size="14.00">/data/db</text>
</g>
<!-- C_MONGODB_PHAIDRA -->
<g id="node20" class="node">
<title>C_MONGODB_PHAIDRA</title>
<g id="a_node20"><a xlink:href="https://www.mongodb.com/" xlink:title="$PROJECT_NAME&#45;mongodb&#45;phaidra&#45;1">
<polygon fill="none" stroke="green" points="1706,-504 1417,-504 1417,-500 1413,-500 1413,-496 1417,-496 1417,-476 1413,-476 1413,-472 1417,-472 1417,-468 1706,-468 1706,-504"/>
<polyline fill="none" stroke="green" points="1417,-500 1421,-500 1421,-496 1417,-496 "/>
<polyline fill="none" stroke="green" points="1417,-476 1421,-476 1421,-472 1417,-472 "/>
<text text-anchor="middle" x="1561.5" y="-482.3" font-family="Times,serif" font-size="14.00">$PROJECT_NAME&#45;mongodb&#45;phaidra&#45;1</text>
</a>
</g>
</g>
<!-- HS_MONGODB_PHAIDRA&#45;&#45;C_MONGODB_PHAIDRA -->
<g id="edge4" class="edge">
<title>HS_MONGODB_PHAIDRA&#45;&#45;C_MONGODB_PHAIDRA</title>
<path fill="none" stroke="turquoise" d="M1090.39,-908.07C1185.38,-923.42 1319.32,-926.57 1397,-847 1448.94,-793.8 1367.84,-568.79 1417,-513 1419.85,-509.77 1422.95,-506.84 1426.26,-504.2"/>
</g>
<!-- HS_OPENLDAP -->
<g id="node5" class="node">
<title>HS_OPENLDAP</title>
<polygon fill="none" stroke="turquoise" points="1319.5,-838 1316.5,-842 1295.5,-842 1292.5,-838 639.5,-838 639.5,-786 1319.5,-786 1319.5,-838"/>
<text text-anchor="start" x="651.5" y="-819.8" font-family="Times,serif" font-weight="bold" font-size="14.00">host:</text>
<text text-anchor="start" x="799.5" y="-818.8" font-family="Times,serif" font-size="14.00">$HOME/.local/share/docker/volumes/$PROJECT_NAME_openldap/_data</text>
<text text-anchor="start" x="651.5" y="-797.8" font-family="Times,serif" font-size="14.00">openldap&#45;container:</text>
<text text-anchor="start" x="799.5" y="-797.8" font-family="Times,serif" font-size="14.00">/bitnami/openldap</text>
</g>
<!-- C_OPENLDAP -->
<g id="node22" class="node">
<title>C_OPENLDAP</title>
<g id="a_node22"><a xlink:href="https://www.openldap.org/" xlink:title="$PROJECT_NAME&#45;openldap&#45;1">
<polygon fill="none" stroke="green" points="1676,-174 1447,-174 1447,-170 1443,-170 1443,-166 1447,-166 1447,-146 1443,-146 1443,-142 1447,-142 1447,-138 1676,-138 1676,-174"/>
<polyline fill="none" stroke="green" points="1447,-170 1451,-170 1451,-166 1447,-166 "/>
<polyline fill="none" stroke="green" points="1447,-146 1451,-146 1451,-142 1447,-142 "/>
<text text-anchor="middle" x="1561.5" y="-152.3" font-family="Times,serif" font-size="14.00">$PROJECT_NAME&#45;openldap&#45;1</text>
</a>
</g>
</g>
<!-- HS_OPENLDAP&#45;&#45;C_OPENLDAP -->
<g id="edge5" class="edge">
<title>HS_OPENLDAP&#45;&#45;C_OPENLDAP</title>
<path fill="none" stroke="turquoise" d="M1093.35,-838.01C1188.6,-852.59 1321.22,-854.24 1397,-774 1442.11,-726.23 1374.21,-232.86 1417,-183 1425.17,-173.48 1435.55,-166.63 1446.97,-161.78"/>
</g>
<!-- HS_SOLR -->
<g id="node6" class="node">
<title>HS_SOLR</title>
<polygon fill="none" stroke="turquoise" points="1281.5,-1420 1278.5,-1424 1257.5,-1424 1254.5,-1420 677.5,-1420 677.5,-1368 1281.5,-1368 1281.5,-1420"/>
<text text-anchor="start" x="689.5" y="-1401.8" font-family="Times,serif" font-weight="bold" font-size="14.00">host:</text>
<text text-anchor="start" x="799.5" y="-1400.8" font-family="Times,serif" font-size="14.00">$HOME/.local/share/docker/volumes/$PROJECT_NAME_solr/_data</text>
<text text-anchor="start" x="689.5" y="-1379.8" font-family="Times,serif" font-size="14.00">solr&#45;container:</text>
<text text-anchor="start" x="799.5" y="-1379.8" font-family="Times,serif" font-size="14.00">/var/solr</text>
</g>
<!-- C_SOLR -->
<g id="node23" class="node">
<title>C_SOLR</title>
<g id="a_node23"><a xlink:href="https://solr.apache.org/" xlink:title="$PROJECT_NAME&#45;solr&#45;1">
<polygon fill="none" stroke="green" points="1657,-282 1466,-282 1466,-278 1462,-278 1462,-274 1466,-274 1466,-254 1462,-254 1462,-250 1466,-250 1466,-246 1657,-246 1657,-282"/>
<polyline fill="none" stroke="green" points="1466,-278 1470,-278 1470,-274 1466,-274 "/>
<polyline fill="none" stroke="green" points="1466,-254 1470,-254 1470,-250 1466,-250 "/>
<text text-anchor="middle" x="1561.5" y="-260.3" font-family="Times,serif" font-size="14.00">$PROJECT_NAME&#45;solr&#45;1</text>
</a>
</g>
</g>
<!-- HS_SOLR&#45;&#45;C_SOLR -->
<g id="edge6" class="edge">
<title>HS_SOLR&#45;&#45;C_SOLR</title>
<path fill="none" stroke="turquoise" d="M1281.76,-1396.15C1334.36,-1390.23 1378.27,-1378.99 1397,-1359 1437.57,-1315.69 1378.69,-336.32 1417,-291 1429.44,-276.29 1447.14,-267.93 1465.88,-263.45"/>
</g>
<!-- HS_PIXELGECKO -->
<g id="node7" class="node">
<title>HS_PIXELGECKO</title>
<polygon fill="none" stroke="turquoise" points="1337,-1763.5 1334,-1767.5 1313,-1767.5 1310,-1763.5 622,-1763.5 622,-1690.5 1337,-1690.5 1337,-1763.5"/>
<text text-anchor="start" x="634.5" y="-1744.8" font-family="Times,serif" font-weight="bold" font-size="14.00">host:</text>
<text text-anchor="start" x="806.5" y="-1743.8" font-family="Times,serif" font-size="14.00">$HOME/.local/share/docker/volumes/$PROJECT_NAME_pixelgecko/_data</text>
<text text-anchor="start" x="634.5" y="-1722.8" font-family="Times,serif" font-size="14.00">pixelgecko&#45;container:</text>
<text text-anchor="start" x="806.5" y="-1722.8" font-family="Times,serif" font-size="14.00">/mnt/converted_images</text>
<text text-anchor="start" x="634.5" y="-1701.8" font-family="Times,serif" font-size="14.00">imageserver&#45;container:</text>
<text text-anchor="start" x="806.5" y="-1701.8" font-family="Times,serif" font-size="14.00">/mnt/converted_images:ro</text>
</g>
<!-- C_IMAGESERVER -->
<g id="node24" class="node">
<title>C_IMAGESERVER</title>
<g id="a_node24"><a xlink:href="https://github.com/ruven/iipsrv" xlink:title="$PROJECT_NAME&#45;imageserver&#45;1">
<polygon fill="none" stroke="green" points="1688,-228 1435,-228 1435,-224 1431,-224 1431,-220 1435,-220 1435,-200 1431,-200 1431,-196 1435,-196 1435,-192 1688,-192 1688,-228"/>
<polyline fill="none" stroke="green" points="1435,-224 1439,-224 1439,-220 1435,-220 "/>
<polyline fill="none" stroke="green" points="1435,-200 1439,-200 1439,-196 1435,-196 "/>
<text text-anchor="middle" x="1561.5" y="-206.3" font-family="Times,serif" font-size="14.00">$PROJECT_NAME&#45;imageserver&#45;1</text>
</a>
</g>
</g>
<!-- HS_PIXELGECKO&#45;&#45;C_IMAGESERVER -->
<g id="edge7" class="edge">
<title>HS_PIXELGECKO&#45;&#45;C_IMAGESERVER</title>
<path fill="none" stroke="turquoise" d="M1337.03,-1725.72C1359.37,-1714.61 1379.76,-1699.98 1397,-1681 1450.94,-1621.61 1365.36,-298.4 1417,-237 1422.14,-230.89 1428.19,-225.87 1434.84,-221.78"/>
</g>
<!-- HS_PIXELGECKO&#45;&#45;C_PIXELGECKO -->
<g id="edge9" class="edge">
<title>HS_PIXELGECKO&#45;&#45;C_PIXELGECKO</title>
<path fill="none" stroke="turquoise" d="M1337.25,-1710.78C1358.23,-1702.82 1378.35,-1693.02 1397,-1681 1794.93,-1424.64 1866.54,-751.05 1876.2,-632.08"/>
</g>
<!-- HS_DBGATE -->
<g id="node8" class="node">
<title>HS_DBGATE</title>
<polygon fill="none" stroke="turquoise" points="1304.5,-1350 1301.5,-1354 1280.5,-1354 1277.5,-1350 654.5,-1350 654.5,-1298 1304.5,-1298 1304.5,-1350"/>
<text text-anchor="start" x="666.5" y="-1331.8" font-family="Times,serif" font-weight="bold" font-size="14.00">host:</text>
<text text-anchor="start" x="799.5" y="-1330.8" font-family="Times,serif" font-size="14.00">$HOME/.local/share/docker/volumes/$PROJECT_NAME_dbgate/_data</text>
<text text-anchor="start" x="666.5" y="-1309.8" font-family="Times,serif" font-size="14.00">dbgate&#45;container:</text>
<text text-anchor="start" x="799.5" y="-1309.8" font-family="Times,serif" font-size="14.00">/root/.dbgate</text>
</g>
<!-- C_DBGATE -->
<g id="node26" class="node">
<title>C_DBGATE</title>
<polygon fill="none" stroke="green" points="1086,-430 873,-430 873,-426 869,-426 869,-422 873,-422 873,-402 869,-402 869,-398 873,-398 873,-394 1086,-394 1086,-430"/>
<polyline fill="none" stroke="green" points="873,-426 877,-426 877,-422 873,-422 "/>
<polyline fill="none" stroke="green" points="873,-402 877,-402 877,-398 873,-398 "/>
<text text-anchor="middle" x="979.5" y="-408.3" font-family="Times,serif" font-size="14.00">$PROJECT_NAME&#45;dbgate&#45;1</text>
</g>
<!-- HS_DBGATE&#45;&#45;C_DBGATE -->
<g id="edge10" class="edge">
<title>HS_DBGATE&#45;&#45;C_DBGATE</title>
<path fill="none" stroke="turquoise" d="M654.49,-1326.99C603.14,-1319.34 563.16,-1305.05 552,-1280 542.82,-1259.4 542.82,-488.6 552,-468 577.66,-410.39 754.75,-404.36 872.8,-406.96"/>
</g>
<!-- HS_MARIADB_FEDORA -->
<g id="node9" class="node">
<title>HS_MARIADB_FEDORA</title>
<polygon fill="none" stroke="turquoise" points="1365.5,-1834 1362.5,-1838 1341.5,-1838 1338.5,-1834 593.5,-1834 593.5,-1782 1365.5,-1782 1365.5,-1834"/>
<text text-anchor="start" x="605.5" y="-1815.8" font-family="Times,serif" font-weight="bold" font-size="14.00">host:</text>
<text text-anchor="start" x="798.5" y="-1814.8" font-family="Times,serif" font-size="14.00">$HOME/.local/share/docker/volumes/$PROJECT_NAME_mariadb_fedora/_data</text>
<text text-anchor="start" x="605.5" y="-1793.8" font-family="Times,serif" font-size="14.00">mariadb&#45;fedora&#45;container:</text>
<text text-anchor="start" x="798.5" y="-1793.8" font-family="Times,serif" font-size="14.00">/var/lib/mysql</text>
</g>
<!-- C_MARIADB_FEDORA -->
<g id="node28" class="node">
<title>C_MARIADB_FEDORA</title>
<g id="a_node28"><a xlink:href="https://mariadb.org/" xlink:title="$PROJECT_NAME&#45;mariadb&#45;fedora&#45;1">
<polygon fill="none" stroke="green" points="2015,-383 1742,-383 1742,-379 1738,-379 1738,-375 1742,-375 1742,-355 1738,-355 1738,-351 1742,-351 1742,-347 2015,-347 2015,-383"/>
<polyline fill="none" stroke="green" points="1742,-379 1746,-379 1746,-375 1742,-375 "/>
<polyline fill="none" stroke="green" points="1742,-355 1746,-355 1746,-351 1742,-351 "/>
<text text-anchor="middle" x="1878.5" y="-361.3" font-family="Times,serif" font-size="14.00">$PROJECT_NAME&#45;mariadb&#45;fedora&#45;1</text>
</a>
</g>
</g>
<!-- HS_MARIADB_FEDORA&#45;&#45;C_MARIADB_FEDORA -->
<g id="edge11" class="edge">
<title>HS_MARIADB_FEDORA&#45;&#45;C_MARIADB_FEDORA</title>
<path fill="none" stroke="turquoise" d="M1121.31,-1834.04C1210.13,-1842.13 1321.84,-1835.83 1397,-1773 1803.71,-1433.01 1572.2,-1133.93 1706,-621 1722.43,-558 1707.43,-534.17 1742,-479 1768.28,-437.06 1815.1,-402.78 1846.23,-383.12"/>
</g>
<!-- HS_DATABASE_DUMPS -->
<g id="node10" class="node">
<title>HS_DATABASE_DUMPS</title>
<polygon fill="none" stroke="turquoise" points="1373.5,-1070 1370.5,-1074 1349.5,-1074 1346.5,-1070 585.5,-1070 585.5,-1018 1373.5,-1018 1373.5,-1070"/>
<text text-anchor="start" x="597.5" y="-1051.8" font-family="Times,serif" font-weight="bold" font-size="14.00">host:</text>
<text text-anchor="start" x="736.5" y="-1050.8" font-family="Times,serif" font-size="14.00">$HOME/.local/share/docker/volumes/$PROJECT_NAME_chronos_database_dumps/_data</text>
<text text-anchor="start" x="597.5" y="-1029.8" font-family="Times,serif" font-size="14.00">chronos&#45;container:</text>
<text text-anchor="start" x="736.5" y="-1029.8" font-family="Times,serif" font-size="14.00">/mnt/database&#45;dumps</text>
</g>
<!-- HS_SITEMAPS -->
<g id="node11" class="node">
<title>HS_SITEMAPS</title>
<polygon fill="none" stroke="turquoise" points="1346.5,-999.5 1343.5,-1003.5 1322.5,-1003.5 1319.5,-999.5 612.5,-999.5 612.5,-926.5 1346.5,-926.5 1346.5,-999.5"/>
<text text-anchor="start" x="624.5" y="-980.8" font-family="Times,serif" font-weight="bold" font-size="14.00">host:</text>
<text text-anchor="start" x="763.5" y="-979.8" font-family="Times,serif" font-size="14.00">$HOME/.local/share/docker/volumes/$PROJECT_NAME_chronos_sitemaps/_data</text>
<text text-anchor="start" x="624.5" y="-958.8" font-family="Times,serif" font-size="14.00">chronos&#45;container:</text>
<text text-anchor="start" x="763.5" y="-958.8" font-family="Times,serif" font-size="14.00">/mnt/sitemaps</text>
<text text-anchor="start" x="624.5" y="-937.8" font-family="Times,serif" font-size="14.00">httpd&#45;container:</text>
<text text-anchor="start" x="763.5" y="-937.8" font-family="Times,serif" font-size="14.00">/mnt/sitemaps:ro</text>
</g>
<!-- HS_OAI_LOGS -->
<g id="node12" class="node">
<title>HS_OAI_LOGS</title>
<polygon fill="none" stroke="turquoise" points="1342.5,-1140 1339.5,-1144 1318.5,-1144 1315.5,-1140 616.5,-1140 616.5,-1088 1342.5,-1088 1342.5,-1140"/>
<text text-anchor="start" x="628.5" y="-1121.8" font-family="Times,serif" font-weight="bold" font-size="14.00">host:</text>
<text text-anchor="start" x="767.5" y="-1120.8" font-family="Times,serif" font-size="14.00">$HOME/.local/share/docker/volumes/$PROJECT_NAME_chronos_oai_logs/_data</text>
<text text-anchor="start" x="628.5" y="-1099.8" font-family="Times,serif" font-size="14.00">chronos&#45;container:</text>
<text text-anchor="start" x="767.5" y="-1099.8" font-family="Times,serif" font-size="14.00">/mnt/oai&#45;logs</text>
</g>
<!-- HS_GRAFANA -->
<g id="node13" class="node">
<title>HS_GRAFANA</title>
<polygon fill="none" stroke="turquoise" points="1309.5,-1560 1306.5,-1564 1285.5,-1564 1282.5,-1560 649.5,-1560 649.5,-1508 1309.5,-1508 1309.5,-1560"/>
<text text-anchor="start" x="661.5" y="-1541.8" font-family="Times,serif" font-weight="bold" font-size="14.00">host:</text>
<text text-anchor="start" x="799.5" y="-1540.8" font-family="Times,serif" font-size="14.00">$HOME/.local/share/docker/volumes/$PROJECT_NAME_grafana/_data</text>
<text text-anchor="start" x="661.5" y="-1519.8" font-family="Times,serif" font-size="14.00">grafana&#45;container:</text>
<text text-anchor="start" x="799.5" y="-1519.8" font-family="Times,serif" font-size="14.00">/var/lib/grafana</text>
</g>
<!-- HS_LOKI -->
<g id="node14" class="node">
<title>HS_LOKI</title>
<polygon fill="none" stroke="turquoise" points="1280.5,-1280 1277.5,-1284 1256.5,-1284 1253.5,-1280 678.5,-1280 678.5,-1228 1280.5,-1228 1280.5,-1280"/>
<text text-anchor="start" x="690.5" y="-1261.8" font-family="Times,serif" font-weight="bold" font-size="14.00">host:</text>
<text text-anchor="start" x="799.5" y="-1260.8" font-family="Times,serif" font-size="14.00">$HOME/.local/share/docker/volumes/$PROJECT_NAME_loki/_data</text>
<text text-anchor="start" x="690.5" y="-1239.8" font-family="Times,serif" font-size="14.00">loki&#45;container:</text>
<text text-anchor="start" x="799.5" y="-1239.8" font-family="Times,serif" font-size="14.00">/loki</text>
</g>
<!-- HS_PROMETHEUS -->
<g id="node15" class="node">
<title>HS_PROMETHEUS</title>
<polygon fill="none" stroke="turquoise" points="1340.5,-1490 1337.5,-1494 1316.5,-1494 1313.5,-1490 618.5,-1490 618.5,-1438 1340.5,-1438 1340.5,-1490"/>
<text text-anchor="start" x="630.5" y="-1471.8" font-family="Times,serif" font-weight="bold" font-size="14.00">host:</text>
<text text-anchor="start" x="799.5" y="-1470.8" font-family="Times,serif" font-size="14.00">$HOME/.local/share/docker/volumes/$PROJECT_NAME_prometheus/_data</text>
<text text-anchor="start" x="630.5" y="-1449.8" font-family="Times,serif" font-size="14.00">prometheus&#45;container:</text>
<text text-anchor="start" x="799.5" y="-1449.8" font-family="Times,serif" font-size="14.00">/prometheus</text>
</g>
<!-- BIND_HTTPD_CERTS -->
<g id="node16" class="node">
<title>BIND_HTTPD_CERTS</title>
<polygon fill="none" stroke="blue" points="1097,-739 1094,-743 1073,-743 1070,-739 862,-739 862,-687 1097,-687 1097,-739"/>
<text text-anchor="start" x="874.5" y="-720.8" font-family="Times,serif" font-weight="bold" font-size="14.00">host:</text>
<text text-anchor="start" x="996.5" y="-719.8" font-family="Times,serif" font-size="14.00">./certs/httpd</text>
<text text-anchor="start" x="874.5" y="-698.8" font-family="Times,serif" font-size="14.00">httpd&#45;container:</text>
<text text-anchor="start" x="996.5" y="-698.8" font-family="Times,serif" font-size="14.00">/ssl:ro</text>
</g>
<!-- C_FEDORA&#45;&#45;C_MARIADB_FEDORA -->
<g id="edge20" class="edge">
<title>C_FEDORA&#45;&#45;C_MARIADB_FEDORA</title>
<path fill="none" stroke="orange" d="M1666.08,-333.45C1695.04,-337.78 1726.76,-342.51 1756.63,-346.97"/>
</g>
<!-- C_API&#45;&#45;C_FEDORA -->
<g id="edge21" class="edge">
<title>C_API&#45;&#45;C_FEDORA</title>
<path fill="none" stroke="orange" d="M1072.07,-248.22C1156.57,-257.94 1285.45,-273.49 1397,-290 1417.23,-292.99 1438.81,-296.48 1459.44,-299.96"/>
</g>
<!-- C_API&#45;&#45;C_MARIADB_PHAIDRA -->
<g id="edge22" class="edge">
<title>C_API&#45;&#45;C_MARIADB_PHAIDRA</title>
<path fill="none" stroke="orange" d="M1072.2,-246.92C1159.05,-257.95 1291.51,-281.56 1397,-330 1407.1,-334.64 1407.47,-339.29 1417,-345 1448.72,-364.02 1486.72,-381.55 1515.64,-393.9"/>
</g>
<!-- C_API&#45;&#45;C_MONGODB_PHAIDRA -->
<g id="edge23" class="edge">
<title>C_API&#45;&#45;C_MONGODB_PHAIDRA</title>
<path fill="none" stroke="orange" d="M1072.36,-247.72C1165.65,-262.24 1308.62,-297.98 1397,-385 1415.24,-402.96 1398.56,-421.25 1417,-439 1430.32,-451.82 1447.18,-461.14 1464.63,-467.92"/>
</g>
<!-- C_UI -->
<g id="node21" class="node">
<title>C_UI</title>
<g id="a_node21"><a xlink:href="https://github.com/phaidra/phaidra-ui" xlink:title="$PROJECT_NAME&#45;ui&#45;1">
<polygon fill="none" stroke="green" points="1650,-120 1473,-120 1473,-116 1469,-116 1469,-112 1473,-112 1473,-92 1469,-92 1469,-88 1473,-88 1473,-84 1650,-84 1650,-120"/>
<polyline fill="none" stroke="green" points="1473,-116 1477,-116 1477,-112 1473,-112 "/>
<polyline fill="none" stroke="green" points="1473,-92 1477,-92 1477,-88 1473,-88 "/>
<text text-anchor="middle" x="1561.5" y="-98.3" font-family="Times,serif" font-size="14.00">$PROJECT_NAME&#45;ui&#45;1</text>
</a>
</g>
</g>
<!-- C_API&#45;&#45;C_UI -->
<g id="edge24" class="edge">
<title>C_API&#45;&#45;C_UI</title>
<path fill="none" stroke="orange" d="M1072.06,-244.13C1162.8,-245.52 1301.66,-234.53 1397,-166 1412.18,-155.09 1401.9,-140.02 1417,-129 1433.17,-117.19 1453.03,-110.1 1472.76,-105.94"/>
</g>
<!-- C_API&#45;&#45;C_OPENLDAP -->
<g id="edge25" class="edge">
<title>C_API&#45;&#45;C_OPENLDAP</title>
<path fill="none" stroke="orange" d="M1072.08,-225.05C1173.59,-210.7 1337.42,-187.54 1447,-172.05"/>
</g>
<!-- C_API&#45;&#45;C_SOLR -->
<g id="edge26" class="edge">
<title>C_API&#45;&#45;C_SOLR</title>
<path fill="none" stroke="orange" d="M1072.08,-242.11C1179.5,-246.92 1356.69,-254.86 1465.55,-259.74"/>
</g>
<!-- C_API&#45;&#45;C_IMAGESERVER -->
<g id="edge27" class="edge">
<title>C_API&#45;&#45;C_IMAGESERVER</title>
<path fill="none" stroke="orange" d="M1072.08,-233.58C1169.92,-228.86 1325.65,-221.34 1434.9,-216.06"/>
</g>
<!-- C_MONGODB_PHAIDRA&#45;&#45;C_PIXELGECKO -->
<g id="edge28" class="edge">
<title>C_MONGODB_PHAIDRA&#45;&#45;C_PIXELGECKO</title>
<path fill="none" stroke="orange" d="M1692.23,-504.14C1697.05,-506.75 1701.67,-509.69 1706,-513 1735.07,-535.19 1713.05,-564.65 1742,-587 1747.22,-591.03 1752.89,-594.51 1758.84,-597.5"/>
</g>
<!-- C_LAM -->
<g id="node27" class="node">
<title>C_LAM</title>
<polygon fill="none" stroke="green" points="1973.5,-83 1783.5,-83 1783.5,-79 1779.5,-79 1779.5,-75 1783.5,-75 1783.5,-55 1779.5,-55 1779.5,-51 1783.5,-51 1783.5,-47 1973.5,-47 1973.5,-83"/>
<polyline fill="none" stroke="green" points="1783.5,-79 1787.5,-79 1787.5,-75 1783.5,-75 "/>
<polyline fill="none" stroke="green" points="1783.5,-55 1787.5,-55 1787.5,-51 1783.5,-51 "/>
<text text-anchor="middle" x="1878.5" y="-61.3" font-family="Times,serif" font-size="14.00">$PROJECT_NAME&#45;lam&#45;1</text>
</g>
<!-- C_OPENLDAP&#45;&#45;C_LAM -->
<g id="edge29" class="edge">
<title>C_OPENLDAP&#45;&#45;C_LAM</title>
<path fill="none" stroke="orange" d="M1669.54,-137.96C1681.91,-135.25 1694.28,-132.26 1706,-129 1751,-116.47 1800.87,-97.23 1835.18,-83.11"/>
</g>
<!-- C_DBGATE&#45;&#45;C_MARIADB_PHAIDRA -->
<g id="edge30" class="edge">
<title>C_DBGATE&#45;&#45;C_MARIADB_PHAIDRA</title>
<path fill="none" stroke="orange" d="M1086.21,-412C1179.9,-412 1317.42,-412 1420.28,-412"/>
</g>
<!-- C_DBGATE&#45;&#45;C_MONGODB_PHAIDRA -->
<g id="edge31" class="edge">
<title>C_DBGATE&#45;&#45;C_MONGODB_PHAIDRA</title>
<path fill="none" stroke="orange" d="M1086.39,-422.44C1170.68,-431.11 1291.59,-444.36 1397,-459 1416.23,-461.67 1436.69,-464.81 1456.39,-467.99"/>
</g>
<!-- C_DBGATE&#45;&#45;C_MARIADB_FEDORA -->
<g id="edge32" class="edge">
<title>C_DBGATE&#45;&#45;C_MARIADB_FEDORA</title>
<path fill="none" stroke="orange" d="M1086.31,-404.91C1174.69,-399.12 1304.03,-390.95 1417,-385 1526.28,-379.25 1650.21,-373.93 1741.96,-370.23"/>
</g>
<!-- C_CHRONOS -->
<g id="node29" class="node">
<title>C_CHRONOS</title>
<polygon fill="none" stroke="green" points="542,-467 322,-467 322,-463 318,-463 318,-459 322,-459 322,-439 318,-439 318,-435 322,-435 322,-431 542,-431 542,-467"/>
<polyline fill="none" stroke="green" points="322,-463 326,-463 326,-459 322,-459 "/>
<polyline fill="none" stroke="green" points="322,-439 326,-439 326,-435 322,-435 "/>
<text text-anchor="middle" x="432" y="-445.3" font-family="Times,serif" font-size="14.00">$PROJECT_NAME&#45;chronos&#45;1</text>
</g>
<!-- C_CHRONOS&#45;&#45;HS_DATABASE_DUMPS -->
<g id="edge13" class="edge">
<title>C_CHRONOS&#45;&#45;HS_DATABASE_DUMPS</title>
<path fill="none" stroke="turquoise" d="M434.39,-467.23C441.5,-555.25 476.81,-935.16 562,-1009 638.49,-1075.3 755.3,-1079.73 845.76,-1070.04"/>
</g>
<!-- C_CHRONOS&#45;&#45;HS_SITEMAPS -->
<g id="edge14" class="edge">
<title>C_CHRONOS&#45;&#45;HS_SITEMAPS</title>
<path fill="none" stroke="turquoise" d="M435.28,-467.02C445.58,-545.47 490.41,-855.97 562,-917 577.36,-930.1 594.29,-940.89 612.26,-949.74"/>
</g>
<!-- C_CHRONOS&#45;&#45;HS_OAI_LOGS -->
<g id="edge15" class="edge">
<title>C_CHRONOS&#45;&#45;HS_OAI_LOGS</title>
<path fill="none" stroke="turquoise" d="M433.89,-467.24C438.92,-561.74 466.95,-994.57 562,-1079 639.17,-1147.55 759.18,-1150.73 850.59,-1140.01"/>
</g>
<!-- C_CHRONOS&#45;&#45;C_API -->
<g id="edge37" class="edge">
<title>C_CHRONOS&#45;&#45;C_API</title>
<path fill="none" stroke="orange" d="M497.6,-430.93C514.17,-423.48 530.53,-413.16 542,-399 567.52,-367.5 532.63,-337.94 562,-310 648.39,-227.81 792.93,-220.95 886.98,-226.91"/>
</g>
<!-- C_CHRONOS&#45;&#45;C_MARIADB_PHAIDRA -->
<g id="edge34" class="edge">
<title>C_CHRONOS&#45;&#45;C_MARIADB_PHAIDRA</title>
<path fill="none" stroke="orange" d="M542.05,-453.29C720.98,-459.12 1087.91,-465.96 1397,-439 1419.64,-437.02 1443.88,-433.7 1466.57,-430.04"/>
</g>
<!-- C_CHRONOS&#45;&#45;C_MONGODB_PHAIDRA -->
<g id="edge33" class="edge">
<title>C_CHRONOS&#45;&#45;C_MONGODB_PHAIDRA</title>
<path fill="none" stroke="orange" d="M460.27,-467.2C485.45,-482.84 524.52,-504.21 562,-513 742.66,-555.35 1212.07,-528.17 1397,-513 1420.08,-511.11 1444.81,-507.73 1467.88,-504"/>
</g>
<!-- C_CHRONOS&#45;&#45;C_SOLR -->
<g id="edge36" class="edge">
<title>C_CHRONOS&#45;&#45;C_SOLR</title>
<path fill="none" stroke="orange" d="M487.06,-430.96C505.74,-423.05 525.98,-412.46 542,-399 553.99,-388.93 548.48,-377.9 562,-370 722.86,-275.98 1212.4,-319.28 1397,-294 1410.94,-292.09 1437.98,-287.28 1466.11,-282.06"/>
</g>
<!-- C_CHRONOS&#45;&#45;C_MARIADB_FEDORA -->
<g id="edge35" class="edge">
<title>C_CHRONOS&#45;&#45;C_MARIADB_FEDORA</title>
<path fill="none" stroke="orange" d="M477.13,-430.92C497.33,-422.11 521.32,-410.85 542,-399 551.41,-393.6 551.69,-388.37 562,-385 742.64,-325.96 1226.97,-369.41 1417,-367 1526.32,-365.61 1650.25,-365.14 1741.99,-364.99"/>
</g>
<!-- C_HTTPD&#45;&#45;HS_SITEMAPS -->
<g id="edge12" class="edge">
<title>C_HTTPD&#45;&#45;HS_SITEMAPS</title>
<path fill="none" stroke="turquoise" d="M502.16,-390.11C517.72,-397.47 532.44,-407.73 542,-422 572.65,-467.72 524.46,-876.75 562,-917 576.76,-932.83 593.72,-945.6 612.16,-955.81"/>
</g>
<!-- C_HTTPD&#45;&#45;BIND_HTTPD_CERTS -->
<g id="edge19" class="edge">
<title>C_HTTPD&#45;&#45;BIND_HTTPD_CERTS</title>
<path fill="none" stroke="blue" d="M501.19,-390.12C516.96,-397.49 532.03,-407.76 542,-422 573.34,-466.74 523.93,-627.83 562,-667 637.8,-744.99 767.11,-747.58 861.58,-736.24"/>
</g>
<!-- C_HTTPD&#45;&#45;C_FEDORA -->
<g id="edge59" class="edge">
<title>C_HTTPD&#45;&#45;C_FEDORA</title>
<path fill="none" stroke="magenta" d="M533.55,-367.18C746.48,-356.99 1240.96,-333.3 1456.71,-322.97"/>
</g>
<!-- C_HTTPD&#45;&#45;C_API -->
<g id="edge60" class="edge">
<title>C_HTTPD&#45;&#45;C_API</title>
<path fill="none" stroke="magenta" d="M449.21,-353.71C471.78,-329.65 515.2,-288.31 562,-270 667.87,-228.59 800.24,-225.89 886.97,-230.03"/>
</g>
<!-- C_HTTPD&#45;&#45;C_UI -->
<g id="edge61" class="edge">
<title>C_HTTPD&#45;&#45;C_UI</title>
<path fill="none" stroke="magenta" d="M441.45,-353.86C458.63,-319.27 501.25,-244.35 562,-211 601.77,-189.17 1236.83,-130.79 1472.97,-109.72"/>
</g>
<!-- C_HTTPD&#45;&#45;C_SOLR -->
<g id="edge62" class="edge">
<title>C_HTTPD&#45;&#45;C_SOLR</title>
<path fill="none" stroke="magenta" d="M461.94,-353.9C487.27,-339.1 525.62,-319.17 562,-310 648.03,-288.31 1233.78,-271.92 1465.97,-266.2"/>
</g>
<!-- C_HTTPD&#45;&#45;C_DBGATE -->
<g id="edge63" class="edge">
<title>C_HTTPD&#45;&#45;C_DBGATE</title>
<path fill="none" stroke="magenta" d="M533.69,-379.38C630.05,-386.45 774.83,-397.07 872.82,-404.25"/>
</g>
<!-- C_HTTPD&#45;&#45;C_LAM -->
<g id="edge64" class="edge">
<title>C_HTTPD&#45;&#45;C_LAM</title>
<path fill="none" stroke="magenta" d="M435.78,-353.9C444.33,-305.23 475.13,-171.44 562,-115 663.58,-49.01 1499.07,-58.02 1783.28,-63.07"/>
</g>
<!-- C_GRAFANA -->
<g id="node32" class="node">
<title>C_GRAFANA</title>
<g id="a_node32"><a xlink:href="https://grafana.com/docs/grafana/latest/getting-started/" xlink:title="$PROJECT_NAME&#45;grafana&#45;1">
<polygon fill="none" stroke="green" points="1088.5,-504 870.5,-504 870.5,-500 866.5,-500 866.5,-496 870.5,-496 870.5,-476 866.5,-476 866.5,-472 870.5,-472 870.5,-468 1088.5,-468 1088.5,-504"/>
<polyline fill="none" stroke="green" points="870.5,-500 874.5,-500 874.5,-496 870.5,-496 "/>
<polyline fill="none" stroke="green" points="870.5,-476 874.5,-476 874.5,-472 870.5,-472 "/>
<text text-anchor="middle" x="979.5" y="-482.3" font-family="Times,serif" font-size="14.00">$PROJECT_NAME&#45;grafana&#45;1</text>
</a>
</g>
</g>
<!-- C_HTTPD&#45;&#45;C_GRAFANA -->
<g id="edge65" class="edge">
<title>C_HTTPD&#45;&#45;C_GRAFANA</title>
<path fill="none" stroke="magenta" d="M479.8,-390.12C499.64,-398.63 522.6,-409.64 542,-422 551.84,-428.27 551.29,-434.37 562,-439 660.34,-481.56 783.35,-490.71 870.11,-490.8"/>
</g>
<!-- C_PROMTAIL_LOCAL -->
<g id="node31" class="node">
<title>C_PROMTAIL_LOCAL</title>
<g id="a_node31"><a xlink:href="https://grafana.com/docs/loki/latest/send-data/promtail/" xlink:title="$PROJECT_NAME&#45;promtail&#45;local&#45;1">
<polygon fill="none" stroke="green" points="286,-313 24,-313 24,-309 20,-309 20,-305 24,-305 24,-285 20,-285 20,-281 24,-281 24,-277 286,-277 286,-313"/>
<polyline fill="none" stroke="green" points="24,-309 28,-309 28,-305 24,-305 "/>
<polyline fill="none" stroke="green" points="24,-285 28,-285 28,-281 24,-281 "/>
<text text-anchor="middle" x="155" y="-291.3" font-family="Times,serif" font-size="14.00">$PROJECT_NAME&#45;promtail&#45;local&#45;1</text>
</a>
</g>
</g>
<!-- C_PROMTAIL_LOCAL&#45;&#45;C_FEDORA -->
<g id="edge51" class="edge">
<title>C_PROMTAIL_LOCAL&#45;&#45;C_FEDORA</title>
<path fill="none" stroke="black" d="M286.24,-297.13C563.02,-301.67 1204.97,-312.18 1456.63,-316.3"/>
</g>
<!-- C_PROMTAIL_LOCAL&#45;&#45;C_API -->
<g id="edge42" class="edge">
<title>C_PROMTAIL_LOCAL&#45;&#45;C_API</title>
<path fill="none" stroke="black" d="M286.33,-285.97C453.93,-274.35 740.77,-254.48 886.98,-244.34"/>
</g>
<!-- C_PROMTAIL_LOCAL&#45;&#45;C_MARIADB_PHAIDRA -->
<g id="edge39" class="edge">
<title>C_PROMTAIL_LOCAL&#45;&#45;C_MARIADB_PHAIDRA</title>
<path fill="none" stroke="black" d="M286.05,-302.92C559.19,-319.8 1184.76,-359.83 1397,-385 1417.57,-387.44 1439.5,-390.64 1460.4,-393.99"/>
</g>
<!-- C_PROMTAIL_LOCAL&#45;&#45;C_MONGODB_PHAIDRA -->
<g id="edge38" class="edge">
<title>C_PROMTAIL_LOCAL&#45;&#45;C_MONGODB_PHAIDRA</title>
<path fill="none" stroke="black" d="M166.97,-313.01C190.46,-349.91 249.41,-434.15 322,-476 416.64,-530.56 453.41,-517.15 562,-529 654.23,-539.06 1309.45,-559.71 1397,-529 1407.74,-525.23 1406.65,-517.75 1417,-513 1424.37,-509.62 1432.14,-506.66 1440.1,-504.07"/>
</g>
<!-- C_PROMTAIL_LOCAL&#45;&#45;C_UI -->
<g id="edge43" class="edge">
<title>C_PROMTAIL_LOCAL&#45;&#45;C_UI</title>
<path fill="none" stroke="black" d="M169.03,-276.94C194.2,-243.71 253.15,-173.66 322,-145 529.93,-58.44 1226.19,-84.71 1472.91,-97.15"/>
</g>
<!-- C_PROMTAIL_LOCAL&#45;&#45;C_OPENLDAP -->
<g id="edge46" class="edge">
<title>C_PROMTAIL_LOCAL&#45;&#45;C_OPENLDAP</title>
<path fill="none" stroke="black" d="M175.6,-276.81C204.88,-250.89 262.96,-204.22 322,-184 527.75,-113.51 1181.42,-136.92 1446.85,-149.86"/>
</g>
<!-- C_PROMTAIL_LOCAL&#45;&#45;C_SOLR -->
<g id="edge41" class="edge">
<title>C_PROMTAIL_LOCAL&#45;&#45;C_SOLR</title>
<path fill="none" stroke="black" d="M222.16,-276.97C301.99,-256.22 440.63,-223.42 562,-211 654.3,-201.55 1313.77,-170.02 1397,-211 1410.08,-217.44 1404.58,-229.37 1417,-237 1431.69,-246.02 1448.7,-252.15 1465.76,-256.29"/>
</g>
<!-- C_PROMTAIL_LOCAL&#45;&#45;C_IMAGESERVER -->
<g id="edge44" class="edge">
<title>C_PROMTAIL_LOCAL&#45;&#45;C_IMAGESERVER</title>
<path fill="none" stroke="black" d="M183.42,-276.82C215.27,-256.72 270.1,-225.17 322,-210 424.85,-179.94 454.97,-192.12 562,-187 932.69,-169.28 1026.79,-161.09 1397,-187 1413.3,-188.14 1430.45,-189.91 1447.25,-191.98"/>
</g>
<!-- C_PROMTAIL_LOCAL&#45;&#45;C_PIXELGECKO -->
<g id="edge50" class="edge">
<title>C_PROMTAIL_LOCAL&#45;&#45;C_PIXELGECKO</title>
<path fill="none" stroke="black" d="M162.41,-313.19C179.81,-359.62 232.71,-482.76 322,-538 561.05,-685.9 1438.02,-643.68 1758.88,-622.61"/>
</g>
<!-- C_PROMTAIL_LOCAL&#45;&#45;C_DBGATE -->
<g id="edge48" class="edge">
<title>C_PROMTAIL_LOCAL&#45;&#45;C_DBGATE</title>
<path fill="none" stroke="black" d="M176.68,-313.26C206.39,-338.18 263.99,-381.71 322,-399 421.89,-428.78 714.08,-422.65 872.86,-416.71"/>
</g>
<!-- C_PROMTAIL_LOCAL&#45;&#45;C_LAM -->
<g id="edge47" class="edge">
<title>C_PROMTAIL_LOCAL&#45;&#45;C_LAM</title>
<path fill="none" stroke="black" d="M162.37,-276.86C179.69,-230.58 232.42,-108.06 322,-55 444.36,17.48 656.37,-27.6 1397,-30 1534.34,-30.44 1569.33,-18.52 1706,-32 1736.93,-35.05 1770.58,-40.95 1799.82,-46.92"/>
</g>
<!-- C_PROMTAIL_LOCAL&#45;&#45;C_MARIADB_FEDORA -->
<g id="edge40" class="edge">
<title>C_PROMTAIL_LOCAL&#45;&#45;C_MARIADB_FEDORA</title>
<path fill="none" stroke="black" d="M164.96,-276.81C185.96,-236.42 242.63,-139.67 322,-99 458.88,-28.86 1572.4,1.2 1706,-75 1813.21,-136.15 1860.2,-293.51 1873.4,-346.94"/>
</g>
<!-- C_PROMTAIL_LOCAL&#45;&#45;C_CHRONOS -->
<g id="edge49" class="edge">
<title>C_PROMTAIL_LOCAL&#45;&#45;C_CHRONOS</title>
<path fill="none" stroke="black" d="M176.01,-313.1C205.81,-339.19 264.53,-387.39 322,-416 333.59,-421.77 346.39,-426.75 359.01,-430.96"/>
</g>
<!-- C_PROMTAIL_LOCAL&#45;&#45;C_HTTPD -->
<g id="edge45" class="edge">
<title>C_PROMTAIL_LOCAL&#45;&#45;C_HTTPD</title>
<path fill="none" stroke="black" d="M220.48,-313.05C264.45,-325.37 322.46,-341.61 366.45,-353.93"/>
</g>
<!-- C_LOKI -->
<g id="node33" class="node">
<title>C_LOKI</title>
<g id="a_node33"><a xlink:href="https://grafana.com/docs/loki/latest/" xlink:title="$PROJECT_NAME&#45;loki&#45;1">
<polygon fill="none" stroke="green" points="1656,-558 1467,-558 1467,-554 1463,-554 1463,-550 1467,-550 1467,-530 1463,-530 1463,-526 1467,-526 1467,-522 1656,-522 1656,-558"/>
<polyline fill="none" stroke="green" points="1467,-554 1471,-554 1471,-550 1467,-550 "/>
<polyline fill="none" stroke="green" points="1467,-530 1471,-530 1471,-526 1467,-526 "/>
<text text-anchor="middle" x="1561.5" y="-536.3" font-family="Times,serif" font-size="14.00">$PROJECT_NAME&#45;loki&#45;1</text>
</a>
</g>
</g>
<!-- C_PROMTAIL_LOCAL&#45;&#45;C_LOKI -->
<g id="edge52" class="edge">
<title>C_PROMTAIL_LOCAL&#45;&#45;C_LOKI</title>
<path fill="none" stroke="black" d="M164.33,-313.2C184.58,-355.18 240.8,-458.8 322,-506 515.4,-618.42 1212.13,-570.6 1466.6,-548.72"/>
</g>
<!-- C_GRAFANA&#45;&#45;HS_GRAFANA -->
<g id="edge16" class="edge">
<title>C_GRAFANA&#45;&#45;HS_GRAFANA</title>
<path fill="none" stroke="turquoise" d="M870.47,-497.57C762.54,-515.89 605.87,-563.05 552,-684 542.89,-704.45 542.89,-1469.55 552,-1490 562.78,-1514.2 600.46,-1528.35 649.29,-1536.18"/>
</g>
<!-- C_GRAFANA&#45;&#45;C_MARIADB_PHAIDRA -->
<g id="edge56" class="edge">
<title>C_GRAFANA&#45;&#45;C_MARIADB_PHAIDRA</title>
<path fill="none" stroke="black" d="M1088.59,-489.01C1173.84,-488.69 1294.96,-482.26 1397,-454 1406.58,-451.35 1407.64,-447.33 1417,-444 1432.03,-438.66 1448.28,-434.02 1464.25,-430.05"/>
</g>
<!-- C_GRAFANA&#45;&#45;C_MARIADB_FEDORA -->
<g id="edge55" class="edge">
<title>C_GRAFANA&#45;&#45;C_MARIADB_FEDORA</title>
<path fill="none" stroke="black" d="M1088.56,-479.23C1288.94,-466.66 1698.59,-440.78 1706,-439 1756.6,-426.83 1811.17,-400.83 1844.83,-383.13"/>
</g>
<!-- C_GRAFANA&#45;&#45;C_LOKI -->
<g id="edge53" class="edge">
<title>C_GRAFANA&#45;&#45;C_LOKI</title>
<path fill="none" stroke="black" d="M1088.57,-496.06C1197.38,-506.19 1363.51,-521.66 1466.87,-531.28"/>
</g>
<!-- C_PROMETHEUS -->
<g id="node35" class="node">
<title>C_PROMETHEUS</title>
<g id="a_node35"><a xlink:href="https://prometheus.io" xlink:title="$PROJECT_NAME&#45;prometheus&#45;1">
<polygon fill="none" stroke="green" points="1686,-612 1437,-612 1437,-608 1433,-608 1433,-604 1437,-604 1437,-584 1433,-584 1433,-580 1437,-580 1437,-576 1686,-576 1686,-612"/>
<polyline fill="none" stroke="green" points="1437,-608 1441,-608 1441,-604 1437,-604 "/>
<polyline fill="none" stroke="green" points="1437,-584 1441,-584 1441,-580 1437,-580 "/>
<text text-anchor="middle" x="1561.5" y="-590.3" font-family="Times,serif" font-size="14.00">$PROJECT_NAME&#45;prometheus&#45;1</text>
</a>
</g>
</g>
<!-- C_GRAFANA&#45;&#45;C_PROMETHEUS -->
<g id="edge54" class="edge">
<title>C_GRAFANA&#45;&#45;C_PROMETHEUS</title>
<path fill="none" stroke="black" d="M1077.25,-504.02C1184.42,-523.97 1356.2,-555.96 1463.47,-575.93"/>
</g>
<!-- C_LOKI&#45;&#45;HS_LOKI -->
<g id="edge17" class="edge">
<title>C_LOKI&#45;&#45;HS_LOKI</title>
<path fill="none" stroke="turquoise" d="M1466.75,-539.39C1447.73,-543.82 1429.69,-552.17 1417,-567 1369.88,-622.07 1446.87,-1166.41 1397,-1219 1378.03,-1239.01 1333.61,-1250.22 1280.53,-1256.1"/>
</g>
<!-- C_NODE_EXPORTER -->
<g id="node34" class="node">
<title>C_NODE_EXPORTER</title>
<g id="a_node34"><a xlink:href="https://prometheus.io/docs/guides/node-exporter/" xlink:title="$PROJECT_NAME&#45;node&#45;exporter&#45;1">
<polygon fill="none" stroke="green" points="2010.5,-578 1746.5,-578 1746.5,-574 1742.5,-574 1742.5,-570 1746.5,-570 1746.5,-550 1742.5,-550 1742.5,-546 1746.5,-546 1746.5,-542 2010.5,-542 2010.5,-578"/>
<polyline fill="none" stroke="green" points="1746.5,-574 1750.5,-574 1750.5,-570 1746.5,-570 "/>
<polyline fill="none" stroke="green" points="1746.5,-550 1750.5,-550 1750.5,-546 1746.5,-546 "/>
<text text-anchor="middle" x="1878.5" y="-556.3" font-family="Times,serif" font-size="14.00">$PROJECT_NAME&#45;node&#45;exporter&#45;1</text>
</a>
</g>
</g>
<!-- C_PROMETHEUS&#45;&#45;HS_PROMETHEUS -->
<g id="edge18" class="edge">
<title>C_PROMETHEUS&#45;&#45;HS_PROMETHEUS</title>
<path fill="none" stroke="turquoise" d="M1554.23,-612.34C1531.28,-680.31 1451.43,-924.72 1417,-1133 1411.62,-1165.52 1420.12,-1405.5 1397,-1429 1319.27,-1508.02 1186.01,-1505.2 1091.17,-1490.07"/>
</g>
<!-- C_PROMETHEUS&#45;&#45;C_NODE_EXPORTER -->
<g id="edge58" class="edge">
<title>C_PROMETHEUS&#45;&#45;C_NODE_EXPORTER</title>
<path fill="none" stroke="black" d="M1686.09,-580.66C1705.91,-578.52 1726.49,-576.3 1746.48,-574.14"/>
</g>
<!-- C_CADVISOR -->
<g id="node36" class="node">
<title>C_CADVISOR</title>
<g id="a_node36"><a xlink:href="https://github.com/google/cadvisor" xlink:title="$PROJECT_NAME&#45;cadvisor&#45;1">
<polygon fill="none" stroke="green" points="1990.5,-524 1766.5,-524 1766.5,-520 1762.5,-520 1762.5,-516 1766.5,-516 1766.5,-496 1762.5,-496 1762.5,-492 1766.5,-492 1766.5,-488 1990.5,-488 1990.5,-524"/>
<polyline fill="none" stroke="green" points="1766.5,-520 1770.5,-520 1770.5,-516 1766.5,-516 "/>
<polyline fill="none" stroke="green" points="1766.5,-496 1770.5,-496 1770.5,-492 1766.5,-492 "/>
<text text-anchor="middle" x="1878.5" y="-502.3" font-family="Times,serif" font-size="14.00">$PROJECT_NAME&#45;cadvisor&#45;1</text>
</a>
</g>
</g>
<!-- C_PROMETHEUS&#45;&#45;C_CADVISOR -->
<g id="edge57" class="edge">
<title>C_PROMETHEUS&#45;&#45;C_CADVISOR</title>
<path fill="none" stroke="black" d="M1685.08,-575.97C1692.3,-573.37 1699.34,-570.4 1706,-567 1725.61,-557.01 1722.45,-543.1 1742,-533 1749.67,-529.04 1757.87,-525.66 1766.28,-522.77"/>
</g>
</g>
</svg>
