<?xml version="1.0" encoding="UTF-8" standalone="no"?>
<!DOCTYPE svg PUBLIC "-//W3C//DTD SVG 1.1//EN"
 "http://www.w3.org/Graphics/SVG/1.1/DTD/svg11.dtd">
<!-- Generated by graphviz version 2.43.0 (0)
 -->
<!-- Title: G Pages: 1 -->
<svg width="2091pt" height="2008pt"
 viewBox="0.00 0.00 2091.00 2007.63" xmlns="http://www.w3.org/2000/svg" xmlns:xlink="http://www.w3.org/1999/xlink">
<g id="graph0" class="graph" transform="scale(1 1) rotate(0) translate(4 2003.63)">
<title>G</title>
<polygon fill="white" stroke="transparent" points="-4,4 -4,-2003.63 2087,-2003.63 2087,4 -4,4"/>
<g id="clust1" class="cluster">
<title>cluster_host</title>
<polygon fill="none" stroke="red" points="8,-20.63 8,-1939.63 2075,-1939.63 2075,-20.63 8,-20.63"/>
<text text-anchor="middle" x="1041.5" y="-1924.43" font-family="Times,serif" font-size="14.00">PHAIDRA server firewall</text>
</g>
<g id="clust2" class="cluster">
<title>cluster_host_storage</title>
<polygon fill="none" stroke="black" points="606,-683.63 606,-1908.63 1441,-1908.63 1441,-683.63 606,-683.63"/>
<text text-anchor="middle" x="1023.5" y="-1893.43" font-family="Times,serif" font-size="14.00">PHAIDRA server filesystem</text>
</g>
<g id="clust3" class="cluster">
<title>cluster_named_volumes</title>
<polygon fill="none" stroke="turquoise" points="614,-790.63 614,-1877.63 1433,-1877.63 1433,-790.63 614,-790.63"/>
<text text-anchor="middle" x="1023.5" y="-1862.43" font-family="Times,serif" font-size="14.00">Named volumes</text>
</g>
<g id="clust4" class="cluster">
<title>cluster_bind_mounts</title>
<polygon fill="none" stroke="black" points="898,-691.63 898,-782.63 1149,-782.63 1149,-691.63 898,-691.63"/>
<text text-anchor="middle" x="1023.5" y="-767.43" font-family="Times,serif" font-size="14.00">Bind mounts</text>
</g>
<g id="clust5" class="cluster">
<title>cluster_docker_network_host</title>
<polygon fill="none" stroke="green" points="16,-28.63 16,-675.63 2067,-675.63 2067,-28.63 16,-28.63"/>
<text text-anchor="middle" x="1041.5" y="-660.43" font-family="Times,serif" font-size="14.00">PHAIDRA docker containers</text>
</g>
<!-- USER -->
<g id="node1" class="node">
<title>USER</title>
<polygon fill="none" stroke="black" points="247.73,-1966.18 247.73,-1981.09 193.41,-1991.63 116.59,-1991.63 62.27,-1981.09 62.27,-1966.18 116.59,-1955.63 193.41,-1955.63 247.73,-1966.18"/>
<polygon fill="none" stroke="black" points="251.73,-1962.88 251.73,-1984.39 193.79,-1995.63 116.21,-1995.63 58.27,-1984.39 58.27,-1962.88 116.21,-1951.63 193.79,-1951.63 251.73,-1962.88"/>
<polygon fill="none" stroke="black" points="255.72,-1959.58 255.72,-1987.69 194.18,-1999.63 115.82,-1999.63 54.28,-1987.69 54.28,-1959.58 115.82,-1947.63 194.18,-1947.63 255.72,-1959.58"/>
<text text-anchor="middle" x="155" y="-1969.93" font-family="Times,serif" font-size="14.00">PHAIDRA USER</text>
</g>
<!-- C_HTTPD -->
<g id="node30" class="node">
<title>C_HTTPD</title>
<polygon fill="none" stroke="green" points="586,-402.63 322,-402.63 322,-398.63 318,-398.63 318,-394.63 322,-394.63 322,-374.63 318,-374.63 318,-370.63 322,-370.63 322,-366.63 586,-366.63 586,-402.63"/>
<polyline fill="none" stroke="green" points="322,-398.63 326,-398.63 326,-394.63 322,-394.63 "/>
<polyline fill="none" stroke="green" points="322,-374.63 326,-374.63 326,-370.63 322,-370.63 "/>
<text text-anchor="middle" x="454" y="-380.93" font-family="Times,serif" font-size="14.00">$PROJECT_NAME&#45;httpd&#45;ssl&#45;local&#45;1</text>
</g>
<!-- USER&#45;&#45;C_HTTPD -->
<g id="edge66" class="edge">
<title>USER&#45;&#45;C_HTTPD</title>
<path fill="none" stroke="red" d="M158.44,-1947.5C177.14,-1747.46 297.8,-466.03 322,-434.63 333.07,-420.27 348.8,-410.03 365.52,-402.74"/>
</g>
<!-- HS_FEDORA -->
<g id="node2" class="node">
<title>HS_FEDORA</title>
<polygon fill="none" stroke="turquoise" points="1359.5,-1684.63 1356.5,-1688.63 1335.5,-1688.63 1332.5,-1684.63 687.5,-1684.63 687.5,-1590.63 1359.5,-1590.63 1359.5,-1684.63"/>
<text text-anchor="start" x="699.5" y="-1666.43" font-family="Times,serif" font-weight="bold" font-size="14.00">host:</text>
<text text-anchor="start" x="858.5" y="-1665.43" font-family="Times,serif" font-size="14.00">$HOME/.local/share/docker/volumes/$PROJECT_NAME_fedora/_data</text>
<text text-anchor="start" x="699.5" y="-1644.43" font-family="Times,serif" font-size="14.00">fedora&#45;container:</text>
<text text-anchor="start" x="858.5" y="-1644.43" font-family="Times,serif" font-size="14.00">/usr/local/tomcat/fcrepo&#45;home</text>
<text text-anchor="start" x="699.5" y="-1623.43" font-family="Times,serif" font-size="14.00">agent-libvips&#45;container:</text>
<text text-anchor="start" x="858.5" y="-1623.43" font-family="Times,serif" font-size="14.00"> /mnt/fedora:ro</text>
<text text-anchor="start" x="699.5" y="-1602.43" font-family="Times,serif" font-size="14.00">api&#45;container:</text>
<text text-anchor="start" x="858.5" y="-1602.43" font-family="Times,serif" font-size="14.00"> /mnt/fedora:ro</text>
</g>
<!-- C_FEDORA -->
<g id="node17" class="node">
<title>C_FEDORA</title>
<g id="a_node17"><a xlink:href="https://fedora.lyrasis.org/" xlink:title="$PROJECT_NAME&#45;fedora&#45;1">
<polygon fill="none" stroke="green" points="1710,-348.63 1501,-348.63 1501,-344.63 1497,-344.63 1497,-340.63 1501,-340.63 1501,-320.63 1497,-320.63 1497,-316.63 1501,-316.63 1501,-312.63 1710,-312.63 1710,-348.63"/>
<polyline fill="none" stroke="green" points="1501,-344.63 1505,-344.63 1505,-340.63 1501,-340.63 "/>
<polyline fill="none" stroke="green" points="1501,-320.63 1505,-320.63 1505,-316.63 1501,-316.63 "/>
<text text-anchor="middle" x="1605.5" y="-326.93" font-family="Times,serif" font-size="14.00">$PROJECT_NAME&#45;fedora&#45;1</text>
</a>
</g>
</g>
<!-- HS_FEDORA&#45;&#45;C_FEDORA -->
<g id="edge1" class="edge">
<title>HS_FEDORA&#45;&#45;C_FEDORA</title>
<path fill="none" stroke="turquoise" d="M1359.96,-1637.23C1390.65,-1624.78 1418.57,-1606.85 1441,-1581.63 1484.73,-1532.48 1425.2,-452.83 1461,-397.63 1476.26,-374.11 1502.14,-358.69 1527.76,-348.66"/>
</g>
<!-- C_API -->
<g id="node18" class="node">
<title>C_API</title>
<g id="a_node18"><a xlink:href="https://github.com/phaidra/phaidra-api" xlink:title="$PROJECT_NAME&#45;api&#45;1">
<polygon fill="none" stroke="green" points="1116,-268.63 931,-268.63 931,-264.63 927,-264.63 927,-260.63 931,-260.63 931,-240.63 927,-240.63 927,-236.63 931,-236.63 931,-232.63 1116,-232.63 1116,-268.63"/>
<polyline fill="none" stroke="green" points="931,-264.63 935,-264.63 935,-260.63 931,-260.63 "/>
<polyline fill="none" stroke="green" points="931,-240.63 935,-240.63 935,-236.63 931,-236.63 "/>
<text text-anchor="middle" x="1023.5" y="-246.93" font-family="Times,serif" font-size="14.00">$PROJECT_NAME&#45;api&#45;1</text>
</a>
</g>
</g>
<!-- HS_FEDORA&#45;&#45;C_API -->
<g id="edge2" class="edge">
<title>HS_FEDORA&#45;&#45;C_API</title>
<path fill="none" stroke="turquoise" d="M687.42,-1653.94C647.41,-1639.11 614.29,-1613.7 596,-1572.63 582.82,-1543.05 582.82,-436.22 596,-406.63 650.8,-283.58 822.24,-255.24 930.63,-250.04"/>
</g>
<!-- C_AGENT_LIBVIPS -->
<g id="node25" class="node">
<title>C_AGENT_LIBVIPS</title>
<polygon fill="none" stroke="green" points="2042,-644.63 1803,-644.63 1803,-640.63 1799,-640.63 1799,-636.63 1803,-636.63 1803,-616.63 1799,-616.63 1799,-612.63 1803,-612.63 1803,-608.63 2042,-608.63 2042,-644.63"/>
<polyline fill="none" stroke="green" points="1803,-640.63 1807,-640.63 1807,-636.63 1803,-636.63 "/>
<polyline fill="none" stroke="green" points="1803,-616.63 1807,-616.63 1807,-612.63 1803,-612.63 "/>
<text text-anchor="middle" x="1922.5" y="-622.93" font-family="Times,serif" font-size="14.00">$PROJECT_NAME&#45;agent-libvips&#45;1</text>
</g>
<!-- HS_FEDORA&#45;&#45;C_AGENT_LIBVIPS -->
<g id="edge8" class="edge">
<title>HS_FEDORA&#45;&#45;C_AGENT_LIBVIPS</title>
<path fill="none" stroke="turquoise" d="M1359.71,-1632.94C1389.85,-1621.13 1417.72,-1604.53 1441,-1581.63 1483.31,-1540.03 1441.76,-1505.76 1461,-1449.63 1580.33,-1101.54 1845.07,-730.32 1907.92,-644.87"/>
</g>
<!-- HS_MARIADB_PHAIDRA -->
<g id="node3" class="node">
<title>HS_MARIADB_PHAIDRA</title>
<polygon fill="none" stroke="turquoise" points="1418.5,-1222.63 1415.5,-1226.63 1394.5,-1226.63 1391.5,-1222.63 628.5,-1222.63 628.5,-1170.63 1418.5,-1170.63 1418.5,-1222.63"/>
<text text-anchor="start" x="640.5" y="-1204.43" font-family="Times,serif" font-weight="bold" font-size="14.00">host:</text>
<text text-anchor="start" x="842.5" y="-1203.43" font-family="Times,serif" font-size="14.00">$HOME/.local/share/docker/volumes/$PROJECT_NAME_mariadb_phaidra/_data</text>
<text text-anchor="start" x="640.5" y="-1182.43" font-family="Times,serif" font-size="14.00">mariadb&#45;phaidra&#45;container:</text>
<text text-anchor="start" x="842.5" y="-1182.43" font-family="Times,serif" font-size="14.00">/var/lib/mysql</text>
</g>
<!-- C_MARIADB_PHAIDRA -->
<g id="node19" class="node">
<title>C_MARIADB_PHAIDRA</title>
<g id="a_node19"><a xlink:href="https://mariadb.org/" xlink:title="$PROJECT_NAME&#45;mariadb&#45;phaidra&#45;1">
<polygon fill="none" stroke="green" points="1746.5,-442.63 1464.5,-442.63 1464.5,-438.63 1460.5,-438.63 1460.5,-434.63 1464.5,-434.63 1464.5,-414.63 1460.5,-414.63 1460.5,-410.63 1464.5,-410.63 1464.5,-406.63 1746.5,-406.63 1746.5,-442.63"/>
<polyline fill="none" stroke="green" points="1464.5,-438.63 1468.5,-438.63 1468.5,-434.63 1464.5,-434.63 "/>
<polyline fill="none" stroke="green" points="1464.5,-414.63 1468.5,-414.63 1468.5,-410.63 1464.5,-410.63 "/>
<text text-anchor="middle" x="1605.5" y="-420.93" font-family="Times,serif" font-size="14.00">$PROJECT_NAME&#45;mariadb&#45;phaidra&#45;1</text>
</a>
</g>
</g>
<!-- HS_MARIADB_PHAIDRA&#45;&#45;C_MARIADB_PHAIDRA -->
<g id="edge3" class="edge">
<title>HS_MARIADB_PHAIDRA&#45;&#45;C_MARIADB_PHAIDRA</title>
<path fill="none" stroke="turquoise" d="M1418.55,-1176.9C1427.89,-1172.49 1435.51,-1167.43 1441,-1161.63 1493.73,-1105.93 1415.1,-533.08 1461,-471.63 1470.49,-458.93 1483.51,-449.6 1497.86,-442.77"/>
</g>
<!-- HS_MONGODB_PHAIDRA -->
<g id="node4" class="node">
<title>HS_MONGODB_PHAIDRA</title>
<polygon fill="none" stroke="turquoise" points="1425,-920.63 1422,-924.63 1401,-924.63 1398,-920.63 622,-920.63 622,-868.63 1425,-868.63 1425,-920.63"/>
<text text-anchor="start" x="634.5" y="-902.43" font-family="Times,serif" font-weight="bold" font-size="14.00">host:</text>
<text text-anchor="start" x="842.5" y="-901.43" font-family="Times,serif" font-size="14.00">$HOME/.local/share/docker/volumes/$PROJECT_NAME_mongodb_phaidra/_data</text>
<text text-anchor="start" x="634.5" y="-880.43" font-family="Times,serif" font-size="14.00">phaidra&#45;mongodb&#45;container:</text>
<text text-anchor="start" x="842.5" y="-880.43" font-family="Times,serif" font-size="14.00">/data/db</text>
</g>
<!-- C_MONGODB_PHAIDRA -->
<g id="node20" class="node">
<title>C_MONGODB_PHAIDRA</title>
<g id="a_node20"><a xlink:href="https://www.mongodb.com/" xlink:title="$PROJECT_NAME&#45;mongodb&#45;phaidra&#45;1">
<polygon fill="none" stroke="green" points="1750,-516.63 1461,-516.63 1461,-512.63 1457,-512.63 1457,-508.63 1461,-508.63 1461,-488.63 1457,-488.63 1457,-484.63 1461,-484.63 1461,-480.63 1750,-480.63 1750,-516.63"/>
<polyline fill="none" stroke="green" points="1461,-512.63 1465,-512.63 1465,-508.63 1461,-508.63 "/>
<polyline fill="none" stroke="green" points="1461,-488.63 1465,-488.63 1465,-484.63 1461,-484.63 "/>
<text text-anchor="middle" x="1605.5" y="-494.93" font-family="Times,serif" font-size="14.00">$PROJECT_NAME&#45;mongodb&#45;phaidra&#45;1</text>
</a>
</g>
</g>
<!-- HS_MONGODB_PHAIDRA&#45;&#45;C_MONGODB_PHAIDRA -->
<g id="edge4" class="edge">
<title>HS_MONGODB_PHAIDRA&#45;&#45;C_MONGODB_PHAIDRA</title>
<path fill="none" stroke="turquoise" d="M1134.39,-920.7C1229.38,-936.05 1363.32,-939.21 1441,-859.63 1492.94,-806.43 1411.84,-581.42 1461,-525.63 1463.85,-522.4 1466.95,-519.48 1470.26,-516.84"/>
</g>
<!-- HS_OPENLDAP -->
<g id="node5" class="node">
<title>HS_OPENLDAP</title>
<polygon fill="none" stroke="turquoise" points="1363.5,-850.63 1360.5,-854.63 1339.5,-854.63 1336.5,-850.63 683.5,-850.63 683.5,-798.63 1363.5,-798.63 1363.5,-850.63"/>
<text text-anchor="start" x="695.5" y="-832.43" font-family="Times,serif" font-weight="bold" font-size="14.00">host:</text>
<text text-anchor="start" x="843.5" y="-831.43" font-family="Times,serif" font-size="14.00">$HOME/.local/share/docker/volumes/$PROJECT_NAME_openldap/_data</text>
<text text-anchor="start" x="695.5" y="-810.43" font-family="Times,serif" font-size="14.00">openldap&#45;container:</text>
<text text-anchor="start" x="843.5" y="-810.43" font-family="Times,serif" font-size="14.00">/bitnami/openldap</text>
</g>
<!-- C_OPENLDAP -->
<g id="node22" class="node">
<title>C_OPENLDAP</title>
<g id="a_node22"><a xlink:href="https://www.openldap.org/" xlink:title="$PROJECT_NAME&#45;openldap&#45;1">
<polygon fill="none" stroke="green" points="1720,-186.63 1491,-186.63 1491,-182.63 1487,-182.63 1487,-178.63 1491,-178.63 1491,-158.63 1487,-158.63 1487,-154.63 1491,-154.63 1491,-150.63 1720,-150.63 1720,-186.63"/>
<polyline fill="none" stroke="green" points="1491,-182.63 1495,-182.63 1495,-178.63 1491,-178.63 "/>
<polyline fill="none" stroke="green" points="1491,-158.63 1495,-158.63 1495,-154.63 1491,-154.63 "/>
<text text-anchor="middle" x="1605.5" y="-164.93" font-family="Times,serif" font-size="14.00">$PROJECT_NAME&#45;openldap&#45;1</text>
</a>
</g>
</g>
<!-- HS_OPENLDAP&#45;&#45;C_OPENLDAP -->
<g id="edge5" class="edge">
<title>HS_OPENLDAP&#45;&#45;C_OPENLDAP</title>
<path fill="none" stroke="turquoise" d="M1137.35,-850.64C1232.6,-865.23 1365.22,-866.87 1441,-786.63 1486.11,-738.87 1418.21,-245.49 1461,-195.63 1469.17,-186.11 1479.55,-179.26 1490.97,-174.41"/>
</g>
<!-- HS_SOLR -->
<g id="node6" class="node">
<title>HS_SOLR</title>
<polygon fill="none" stroke="turquoise" points="1325.5,-1432.63 1322.5,-1436.63 1301.5,-1436.63 1298.5,-1432.63 721.5,-1432.63 721.5,-1380.63 1325.5,-1380.63 1325.5,-1432.63"/>
<text text-anchor="start" x="733.5" y="-1414.43" font-family="Times,serif" font-weight="bold" font-size="14.00">host:</text>
<text text-anchor="start" x="843.5" y="-1413.43" font-family="Times,serif" font-size="14.00">$HOME/.local/share/docker/volumes/$PROJECT_NAME_solr/_data</text>
<text text-anchor="start" x="733.5" y="-1392.43" font-family="Times,serif" font-size="14.00">solr&#45;container:</text>
<text text-anchor="start" x="843.5" y="-1392.43" font-family="Times,serif" font-size="14.00">/var/solr</text>
</g>
<!-- C_SOLR -->
<g id="node23" class="node">
<title>C_SOLR</title>
<g id="a_node23"><a xlink:href="https://solr.apache.org/" xlink:title="$PROJECT_NAME&#45;solr&#45;1">
<polygon fill="none" stroke="green" points="1701,-294.63 1510,-294.63 1510,-290.63 1506,-290.63 1506,-286.63 1510,-286.63 1510,-266.63 1506,-266.63 1506,-262.63 1510,-262.63 1510,-258.63 1701,-258.63 1701,-294.63"/>
<polyline fill="none" stroke="green" points="1510,-290.63 1514,-290.63 1514,-286.63 1510,-286.63 "/>
<polyline fill="none" stroke="green" points="1510,-266.63 1514,-266.63 1514,-262.63 1510,-262.63 "/>
<text text-anchor="middle" x="1605.5" y="-272.93" font-family="Times,serif" font-size="14.00">$PROJECT_NAME&#45;solr&#45;1</text>
</a>
</g>
</g>
<!-- HS_SOLR&#45;&#45;C_SOLR -->
<g id="edge6" class="edge">
<title>HS_SOLR&#45;&#45;C_SOLR</title>
<path fill="none" stroke="turquoise" d="M1325.76,-1408.78C1378.36,-1402.87 1422.27,-1391.62 1441,-1371.63 1481.57,-1328.33 1422.69,-348.96 1461,-303.63 1473.44,-288.92 1491.14,-280.56 1509.88,-276.09"/>
</g>
<!-- HS_AGENT_LIBVIPS -->
<g id="node7" class="node">
<title>HS_AGENT_LIBVIPS</title>
<polygon fill="none" stroke="turquoise" points="1381,-1776.13 1378,-1780.13 1357,-1780.13 1354,-1776.13 666,-1776.13 666,-1703.13 1381,-1703.13 1381,-1776.13"/>
<text text-anchor="start" x="678.5" y="-1757.43" font-family="Times,serif" font-weight="bold" font-size="14.00">host:</text>
<text text-anchor="start" x="850.5" y="-1756.43" font-family="Times,serif" font-size="14.00">$HOME/.local/share/docker/volumes/$PROJECT_NAME_agent-libvips/_data</text>
<text text-anchor="start" x="678.5" y="-1735.43" font-family="Times,serif" font-size="14.00">agent-libvips&#45;container:</text>
<text text-anchor="start" x="850.5" y="-1735.43" font-family="Times,serif" font-size="14.00">/mnt/derivates-images</text>
<text text-anchor="start" x="678.5" y="-1714.43" font-family="Times,serif" font-size="14.00">imageserver&#45;container:</text>
<text text-anchor="start" x="850.5" y="-1714.43" font-family="Times,serif" font-size="14.00">/mnt/derivates-images:ro</text>
</g>
<!-- C_IMAGESERVER -->
<g id="node24" class="node">
<title>C_IMAGESERVER</title>
<g id="a_node24"><a xlink:href="https://github.com/ruven/iipsrv" xlink:title="$PROJECT_NAME&#45;imageserver&#45;1">
<polygon fill="none" stroke="green" points="1732,-240.63 1479,-240.63 1479,-236.63 1475,-236.63 1475,-232.63 1479,-232.63 1479,-212.63 1475,-212.63 1475,-208.63 1479,-208.63 1479,-204.63 1732,-204.63 1732,-240.63"/>
<polyline fill="none" stroke="green" points="1479,-236.63 1483,-236.63 1483,-232.63 1479,-232.63 "/>
<polyline fill="none" stroke="green" points="1479,-212.63 1483,-212.63 1483,-208.63 1479,-208.63 "/>
<text text-anchor="middle" x="1605.5" y="-218.93" font-family="Times,serif" font-size="14.00">$PROJECT_NAME&#45;imageserver&#45;1</text>
</a>
</g>
</g>
<!-- HS_AGENT_LIBVIPS&#45;&#45;C_IMAGESERVER -->
<g id="edge7" class="edge">
<title>HS_AGENT_LIBVIPS&#45;&#45;C_IMAGESERVER</title>
<path fill="none" stroke="turquoise" d="M1381.03,-1738.36C1403.37,-1727.25 1423.76,-1712.62 1441,-1693.63 1494.94,-1634.24 1409.36,-311.03 1461,-249.63 1466.14,-243.52 1472.19,-238.51 1478.84,-234.41"/>
</g>
<!-- HS_AGENT_LIBVIPS&#45;&#45;C_AGENT_LIBVIPS -->
<g id="edge9" class="edge">
<title>HS_AGENT_LIBVIPS&#45;&#45;C_AGENT_LIBVIPS</title>
<path fill="none" stroke="turquoise" d="M1381.25,-1723.41C1402.23,-1715.46 1422.35,-1705.65 1441,-1693.63 1838.93,-1437.27 1910.54,-763.68 1920.2,-644.72"/>
</g>
<!-- HS_DBGATE -->
<g id="node8" class="node">
<title>HS_DBGATE</title>
<polygon fill="none" stroke="turquoise" points="1348.5,-1362.63 1345.5,-1366.63 1324.5,-1366.63 1321.5,-1362.63 698.5,-1362.63 698.5,-1310.63 1348.5,-1310.63 1348.5,-1362.63"/>
<text text-anchor="start" x="710.5" y="-1344.43" font-family="Times,serif" font-weight="bold" font-size="14.00">host:</text>
<text text-anchor="start" x="843.5" y="-1343.43" font-family="Times,serif" font-size="14.00">$HOME/.local/share/docker/volumes/$PROJECT_NAME_dbgate/_data</text>
<text text-anchor="start" x="710.5" y="-1322.43" font-family="Times,serif" font-size="14.00">dbgate&#45;container:</text>
<text text-anchor="start" x="843.5" y="-1322.43" font-family="Times,serif" font-size="14.00">/root/.dbgate</text>
</g>
<!-- C_DBGATE -->
<g id="node26" class="node">
<title>C_DBGATE</title>
<polygon fill="none" stroke="green" points="1130,-442.63 917,-442.63 917,-438.63 913,-438.63 913,-434.63 917,-434.63 917,-414.63 913,-414.63 913,-410.63 917,-410.63 917,-406.63 1130,-406.63 1130,-442.63"/>
<polyline fill="none" stroke="green" points="917,-438.63 921,-438.63 921,-434.63 917,-434.63 "/>
<polyline fill="none" stroke="green" points="917,-414.63 921,-414.63 921,-410.63 917,-410.63 "/>
<text text-anchor="middle" x="1023.5" y="-420.93" font-family="Times,serif" font-size="14.00">$PROJECT_NAME&#45;dbgate&#45;1</text>
</g>
<!-- HS_DBGATE&#45;&#45;C_DBGATE -->
<g id="edge10" class="edge">
<title>HS_DBGATE&#45;&#45;C_DBGATE</title>
<path fill="none" stroke="turquoise" d="M698.49,-1339.62C647.14,-1331.97 607.16,-1317.68 596,-1292.63 586.82,-1272.03 586.82,-501.24 596,-480.63 621.66,-423.03 798.75,-416.99 916.8,-419.6"/>
</g>
<!-- HS_MARIADB_FEDORA -->
<g id="node9" class="node">
<title>HS_MARIADB_FEDORA</title>
<polygon fill="none" stroke="turquoise" points="1409.5,-1846.63 1406.5,-1850.63 1385.5,-1850.63 1382.5,-1846.63 637.5,-1846.63 637.5,-1794.63 1409.5,-1794.63 1409.5,-1846.63"/>
<text text-anchor="start" x="649.5" y="-1828.43" font-family="Times,serif" font-weight="bold" font-size="14.00">host:</text>
<text text-anchor="start" x="842.5" y="-1827.43" font-family="Times,serif" font-size="14.00">$HOME/.local/share/docker/volumes/$PROJECT_NAME_mariadb_fedora/_data</text>
<text text-anchor="start" x="649.5" y="-1806.43" font-family="Times,serif" font-size="14.00">mariadb&#45;fedora&#45;container:</text>
<text text-anchor="start" x="842.5" y="-1806.43" font-family="Times,serif" font-size="14.00">/var/lib/mysql</text>
</g>
<!-- C_MARIADB_FEDORA -->
<g id="node28" class="node">
<title>C_MARIADB_FEDORA</title>
<g id="a_node28"><a xlink:href="https://mariadb.org/" xlink:title="$PROJECT_NAME&#45;mariadb&#45;fedora&#45;1">
<polygon fill="none" stroke="green" points="2059,-395.63 1786,-395.63 1786,-391.63 1782,-391.63 1782,-387.63 1786,-387.63 1786,-367.63 1782,-367.63 1782,-363.63 1786,-363.63 1786,-359.63 2059,-359.63 2059,-395.63"/>
<polyline fill="none" stroke="green" points="1786,-391.63 1790,-391.63 1790,-387.63 1786,-387.63 "/>
<polyline fill="none" stroke="green" points="1786,-367.63 1790,-367.63 1790,-363.63 1786,-363.63 "/>
<text text-anchor="middle" x="1922.5" y="-373.93" font-family="Times,serif" font-size="14.00">$PROJECT_NAME&#45;mariadb&#45;fedora&#45;1</text>
</a>
</g>
</g>
<!-- HS_MARIADB_FEDORA&#45;&#45;C_MARIADB_FEDORA -->
<g id="edge11" class="edge">
<title>HS_MARIADB_FEDORA&#45;&#45;C_MARIADB_FEDORA</title>
<path fill="none" stroke="turquoise" d="M1165.31,-1846.68C1254.13,-1854.76 1365.84,-1848.46 1441,-1785.63 1847.71,-1445.64 1616.2,-1146.57 1750,-633.63 1766.43,-570.64 1751.43,-546.8 1786,-491.63 1812.28,-449.69 1859.1,-415.42 1890.23,-395.75"/>
</g>
<!-- HS_DATABASE_DUMPS -->
<g id="node10" class="node">
<title>HS_DATABASE_DUMPS</title>
<polygon fill="none" stroke="turquoise" points="1417.5,-1082.63 1414.5,-1086.63 1393.5,-1086.63 1390.5,-1082.63 629.5,-1082.63 629.5,-1030.63 1417.5,-1030.63 1417.5,-1082.63"/>
<text text-anchor="start" x="641.5" y="-1064.43" font-family="Times,serif" font-weight="bold" font-size="14.00">host:</text>
<text text-anchor="start" x="780.5" y="-1063.43" font-family="Times,serif" font-size="14.00">$HOME/.local/share/docker/volumes/$PROJECT_NAME_chronos_database_dumps/_data</text>
<text text-anchor="start" x="641.5" y="-1042.43" font-family="Times,serif" font-size="14.00">chronos&#45;container:</text>
<text text-anchor="start" x="780.5" y="-1042.43" font-family="Times,serif" font-size="14.00">/mnt/database&#45;dumps</text>
</g>
<!-- HS_SITEMAPS -->
<g id="node11" class="node">
<title>HS_SITEMAPS</title>
<polygon fill="none" stroke="turquoise" points="1390.5,-1012.13 1387.5,-1016.13 1366.5,-1016.13 1363.5,-1012.13 656.5,-1012.13 656.5,-939.13 1390.5,-939.13 1390.5,-1012.13"/>
<text text-anchor="start" x="668.5" y="-993.43" font-family="Times,serif" font-weight="bold" font-size="14.00">host:</text>
<text text-anchor="start" x="807.5" y="-992.43" font-family="Times,serif" font-size="14.00">$HOME/.local/share/docker/volumes/$PROJECT_NAME_chronos_sitemaps/_data</text>
<text text-anchor="start" x="668.5" y="-971.43" font-family="Times,serif" font-size="14.00">chronos&#45;container:</text>
<text text-anchor="start" x="807.5" y="-971.43" font-family="Times,serif" font-size="14.00">/mnt/sitemaps</text>
<text text-anchor="start" x="668.5" y="-950.43" font-family="Times,serif" font-size="14.00">httpd&#45;container:</text>
<text text-anchor="start" x="807.5" y="-950.43" font-family="Times,serif" font-size="14.00">/mnt/sitemaps:ro</text>
</g>
<!-- HS_OAI_LOGS -->
<g id="node12" class="node">
<title>HS_OAI_LOGS</title>
<polygon fill="none" stroke="turquoise" points="1386.5,-1152.63 1383.5,-1156.63 1362.5,-1156.63 1359.5,-1152.63 660.5,-1152.63 660.5,-1100.63 1386.5,-1100.63 1386.5,-1152.63"/>
<text text-anchor="start" x="672.5" y="-1134.43" font-family="Times,serif" font-weight="bold" font-size="14.00">host:</text>
<text text-anchor="start" x="811.5" y="-1133.43" font-family="Times,serif" font-size="14.00">$HOME/.local/share/docker/volumes/$PROJECT_NAME_chronos_oai_logs/_data</text>
<text text-anchor="start" x="672.5" y="-1112.43" font-family="Times,serif" font-size="14.00">chronos&#45;container:</text>
<text text-anchor="start" x="811.5" y="-1112.43" font-family="Times,serif" font-size="14.00">/mnt/oai&#45;logs</text>
</g>
<!-- HS_GRAFANA -->
<g id="node13" class="node">
<title>HS_GRAFANA</title>
<polygon fill="none" stroke="turquoise" points="1353.5,-1572.63 1350.5,-1576.63 1329.5,-1576.63 1326.5,-1572.63 693.5,-1572.63 693.5,-1520.63 1353.5,-1520.63 1353.5,-1572.63"/>
<text text-anchor="start" x="705.5" y="-1554.43" font-family="Times,serif" font-weight="bold" font-size="14.00">host:</text>
<text text-anchor="start" x="843.5" y="-1553.43" font-family="Times,serif" font-size="14.00">$HOME/.local/share/docker/volumes/$PROJECT_NAME_grafana/_data</text>
<text text-anchor="start" x="705.5" y="-1532.43" font-family="Times,serif" font-size="14.00">grafana&#45;container:</text>
<text text-anchor="start" x="843.5" y="-1532.43" font-family="Times,serif" font-size="14.00">/var/lib/grafana</text>
</g>
<!-- HS_LOKI -->
<g id="node14" class="node">
<title>HS_LOKI</title>
<polygon fill="none" stroke="turquoise" points="1324.5,-1292.63 1321.5,-1296.63 1300.5,-1296.63 1297.5,-1292.63 722.5,-1292.63 722.5,-1240.63 1324.5,-1240.63 1324.5,-1292.63"/>
<text text-anchor="start" x="734.5" y="-1274.43" font-family="Times,serif" font-weight="bold" font-size="14.00">host:</text>
<text text-anchor="start" x="843.5" y="-1273.43" font-family="Times,serif" font-size="14.00">$HOME/.local/share/docker/volumes/$PROJECT_NAME_loki/_data</text>
<text text-anchor="start" x="734.5" y="-1252.43" font-family="Times,serif" font-size="14.00">loki&#45;container:</text>
<text text-anchor="start" x="843.5" y="-1252.43" font-family="Times,serif" font-size="14.00">/loki</text>
</g>
<!-- HS_PROMETHEUS -->
<g id="node15" class="node">
<title>HS_PROMETHEUS</title>
<polygon fill="none" stroke="turquoise" points="1384.5,-1502.63 1381.5,-1506.63 1360.5,-1506.63 1357.5,-1502.63 662.5,-1502.63 662.5,-1450.63 1384.5,-1450.63 1384.5,-1502.63"/>
<text text-anchor="start" x="674.5" y="-1484.43" font-family="Times,serif" font-weight="bold" font-size="14.00">host:</text>
<text text-anchor="start" x="843.5" y="-1483.43" font-family="Times,serif" font-size="14.00">$HOME/.local/share/docker/volumes/$PROJECT_NAME_prometheus/_data</text>
<text text-anchor="start" x="674.5" y="-1462.43" font-family="Times,serif" font-size="14.00">prometheus&#45;container:</text>
<text text-anchor="start" x="843.5" y="-1462.43" font-family="Times,serif" font-size="14.00">/prometheus</text>
</g>
<!-- BIND_HTTPD_CERTS -->
<g id="node16" class="node">
<title>BIND_HTTPD_CERTS</title>
<polygon fill="none" stroke="blue" points="1141,-751.63 1138,-755.63 1117,-755.63 1114,-751.63 906,-751.63 906,-699.63 1141,-699.63 1141,-751.63"/>
<text text-anchor="start" x="918.5" y="-733.43" font-family="Times,serif" font-weight="bold" font-size="14.00">host:</text>
<text text-anchor="start" x="1040.5" y="-732.43" font-family="Times,serif" font-size="14.00">./certs/httpd</text>
<text text-anchor="start" x="918.5" y="-711.43" font-family="Times,serif" font-size="14.00">httpd&#45;container:</text>
<text text-anchor="start" x="1040.5" y="-711.43" font-family="Times,serif" font-size="14.00">/ssl:ro</text>
</g>
<!-- C_FEDORA&#45;&#45;C_MARIADB_FEDORA -->
<g id="edge20" class="edge">
<title>C_FEDORA&#45;&#45;C_MARIADB_FEDORA</title>
<path fill="none" stroke="orange" d="M1710.08,-346.09C1739.04,-350.41 1770.76,-355.14 1800.63,-359.6"/>
</g>
<!-- C_API&#45;&#45;C_FEDORA -->
<g id="edge21" class="edge">
<title>C_API&#45;&#45;C_FEDORA</title>
<path fill="none" stroke="orange" d="M1116.07,-260.86C1200.57,-270.58 1329.45,-286.13 1441,-302.63 1461.23,-305.63 1482.81,-309.11 1503.44,-312.59"/>
</g>
<!-- C_API&#45;&#45;C_MARIADB_PHAIDRA -->
<g id="edge22" class="edge">
<title>C_API&#45;&#45;C_MARIADB_PHAIDRA</title>
<path fill="none" stroke="orange" d="M1116.2,-259.56C1203.05,-270.59 1335.51,-294.2 1441,-342.63 1451.1,-347.27 1451.47,-351.92 1461,-357.63 1492.72,-376.65 1530.72,-394.18 1559.64,-406.54"/>
</g>
<!-- C_API&#45;&#45;C_MONGODB_PHAIDRA -->
<g id="edge23" class="edge">
<title>C_API&#45;&#45;C_MONGODB_PHAIDRA</title>
<path fill="none" stroke="orange" d="M1116.36,-260.35C1209.65,-274.87 1352.62,-310.61 1441,-397.63 1459.24,-415.59 1442.56,-433.89 1461,-451.63 1474.32,-464.45 1491.18,-473.77 1508.63,-480.55"/>
</g>
<!-- C_UI -->
<g id="node21" class="node">
<title>C_UI</title>
<g id="a_node21"><a xlink:href="https://github.com/phaidra/phaidra-ui" xlink:title="$PROJECT_NAME&#45;ui&#45;1">
<polygon fill="none" stroke="green" points="1694,-132.63 1517,-132.63 1517,-128.63 1513,-128.63 1513,-124.63 1517,-124.63 1517,-104.63 1513,-104.63 1513,-100.63 1517,-100.63 1517,-96.63 1694,-96.63 1694,-132.63"/>
<polyline fill="none" stroke="green" points="1517,-128.63 1521,-128.63 1521,-124.63 1517,-124.63 "/>
<polyline fill="none" stroke="green" points="1517,-104.63 1521,-104.63 1521,-100.63 1517,-100.63 "/>
<text text-anchor="middle" x="1605.5" y="-110.93" font-family="Times,serif" font-size="14.00">$PROJECT_NAME&#45;ui&#45;1</text>
</a>
</g>
</g>
<!-- C_API&#45;&#45;C_UI -->
<g id="edge24" class="edge">
<title>C_API&#45;&#45;C_UI</title>
<path fill="none" stroke="orange" d="M1116.06,-256.76C1206.8,-258.15 1345.66,-247.16 1441,-178.63 1456.18,-167.72 1445.9,-152.66 1461,-141.63 1477.17,-129.83 1497.03,-122.73 1516.76,-118.57"/>
</g>
<!-- C_API&#45;&#45;C_OPENLDAP -->
<g id="edge25" class="edge">
<title>C_API&#45;&#45;C_OPENLDAP</title>
<path fill="none" stroke="orange" d="M1116.08,-237.69C1217.59,-223.34 1381.42,-200.17 1491,-184.68"/>
</g>
<!-- C_API&#45;&#45;C_SOLR -->
<g id="edge26" class="edge">
<title>C_API&#45;&#45;C_SOLR</title>
<path fill="none" stroke="orange" d="M1116.08,-254.74C1223.5,-259.56 1400.69,-267.5 1509.55,-272.38"/>
</g>
<!-- C_API&#45;&#45;C_IMAGESERVER -->
<g id="edge27" class="edge">
<title>C_API&#45;&#45;C_IMAGESERVER</title>
<path fill="none" stroke="orange" d="M1116.08,-246.21C1213.92,-241.49 1369.65,-233.97 1478.9,-228.7"/>
</g>
<!-- C_MONGODB_PHAIDRA&#45;&#45;C_AGENT_LIBVIPS -->
<g id="edge28" class="edge">
<title>C_MONGODB_PHAIDRA&#45;&#45;C_AGENT_LIBVIPS</title>
<path fill="none" stroke="orange" d="M1736.23,-516.77C1741.05,-519.39 1745.67,-522.33 1750,-525.63 1779.07,-547.83 1757.05,-577.29 1786,-599.63 1791.22,-603.67 1796.89,-607.14 1802.84,-610.14"/>
</g>
<!-- C_LAM -->
<g id="node27" class="node">
<title>C_LAM</title>
<polygon fill="none" stroke="green" points="2017.5,-95.63 1827.5,-95.63 1827.5,-91.63 1823.5,-91.63 1823.5,-87.63 1827.5,-87.63 1827.5,-67.63 1823.5,-67.63 1823.5,-63.63 1827.5,-63.63 1827.5,-59.63 2017.5,-59.63 2017.5,-95.63"/>
<polyline fill="none" stroke="green" points="1827.5,-91.63 1831.5,-91.63 1831.5,-87.63 1827.5,-87.63 "/>
<polyline fill="none" stroke="green" points="1827.5,-67.63 1831.5,-67.63 1831.5,-63.63 1827.5,-63.63 "/>
<text text-anchor="middle" x="1922.5" y="-73.93" font-family="Times,serif" font-size="14.00">$PROJECT_NAME&#45;lam&#45;1</text>
</g>
<!-- C_OPENLDAP&#45;&#45;C_LAM -->
<g id="edge29" class="edge">
<title>C_OPENLDAP&#45;&#45;C_LAM</title>
<path fill="none" stroke="orange" d="M1713.54,-150.59C1725.91,-147.89 1738.28,-144.9 1750,-141.63 1795,-129.1 1844.87,-109.86 1879.18,-95.75"/>
</g>
<!-- C_DBGATE&#45;&#45;C_MARIADB_PHAIDRA -->
<g id="edge30" class="edge">
<title>C_DBGATE&#45;&#45;C_MARIADB_PHAIDRA</title>
<path fill="none" stroke="orange" d="M1130.21,-424.63C1223.9,-424.63 1361.42,-424.63 1464.28,-424.63"/>
</g>
<!-- C_DBGATE&#45;&#45;C_MONGODB_PHAIDRA -->
<g id="edge31" class="edge">
<title>C_DBGATE&#45;&#45;C_MONGODB_PHAIDRA</title>
<path fill="none" stroke="orange" d="M1130.39,-435.07C1214.68,-443.74 1335.59,-456.99 1441,-471.63 1460.23,-474.31 1480.69,-477.45 1500.39,-480.62"/>
</g>
<!-- C_DBGATE&#45;&#45;C_MARIADB_FEDORA -->
<g id="edge32" class="edge">
<title>C_DBGATE&#45;&#45;C_MARIADB_FEDORA</title>
<path fill="none" stroke="orange" d="M1130.31,-417.54C1218.69,-411.75 1348.03,-403.58 1461,-397.63 1570.28,-391.88 1694.21,-386.57 1785.96,-382.87"/>
</g>
<!-- C_CHRONOS -->
<g id="node29" class="node">
<title>C_CHRONOS</title>
<polygon fill="none" stroke="green" points="564,-479.63 344,-479.63 344,-475.63 340,-475.63 340,-471.63 344,-471.63 344,-451.63 340,-451.63 340,-447.63 344,-447.63 344,-443.63 564,-443.63 564,-479.63"/>
<polyline fill="none" stroke="green" points="344,-475.63 348,-475.63 348,-471.63 344,-471.63 "/>
<polyline fill="none" stroke="green" points="344,-451.63 348,-451.63 348,-447.63 344,-447.63 "/>
<text text-anchor="middle" x="454" y="-457.93" font-family="Times,serif" font-size="14.00">$PROJECT_NAME&#45;chronos&#45;1</text>
</g>
<!-- C_CHRONOS&#45;&#45;HS_DATABASE_DUMPS -->
<g id="edge13" class="edge">
<title>C_CHRONOS&#45;&#45;HS_DATABASE_DUMPS</title>
<path fill="none" stroke="turquoise" d="M457.14,-479.9C467.84,-568.1 518.65,-948.71 606,-1021.63 681.2,-1084.41 792.91,-1090.71 881.72,-1082.64"/>
</g>
<!-- C_CHRONOS&#45;&#45;HS_SITEMAPS -->
<g id="edge14" class="edge">
<title>C_CHRONOS&#45;&#45;HS_SITEMAPS</title>
<path fill="none" stroke="turquoise" d="M454.48,-479.75C453.55,-550.61 460.47,-810.9 606,-929.63 621.5,-942.28 638.48,-952.74 656.44,-961.34"/>
</g>
<!-- C_CHRONOS&#45;&#45;HS_OAI_LOGS -->
<g id="edge15" class="edge">
<title>C_CHRONOS&#45;&#45;HS_OAI_LOGS</title>
<path fill="none" stroke="turquoise" d="M456.56,-479.91C465.04,-574.59 508.84,-1008.18 606,-1091.63 682.24,-1157.12 797.89,-1161.99 888,-1152.67"/>
</g>
<!-- C_CHRONOS&#45;&#45;C_API -->
<g id="edge37" class="edge">
<title>C_CHRONOS&#45;&#45;C_API</title>
<path fill="none" stroke="orange" d="M538.9,-443.55C556.55,-436.24 573.57,-425.99 586,-411.63 612.54,-380.98 576.63,-350.58 606,-322.63 692.39,-240.44 836.93,-233.59 930.98,-239.54"/>
</g>
<!-- C_CHRONOS&#45;&#45;C_MARIADB_PHAIDRA -->
<g id="edge34" class="edge">
<title>C_CHRONOS&#45;&#45;C_MARIADB_PHAIDRA</title>
<path fill="none" stroke="orange" d="M564.33,-465.99C746.52,-472.02 1123.58,-479.29 1441,-451.63 1463.64,-449.66 1487.88,-446.34 1510.57,-442.68"/>
</g>
<!-- C_CHRONOS&#45;&#45;C_MONGODB_PHAIDRA -->
<g id="edge33" class="edge">
<title>C_CHRONOS&#45;&#45;C_MONGODB_PHAIDRA</title>
<path fill="none" stroke="orange" d="M487.06,-479.71C516.82,-495.38 562.89,-516.88 606,-525.63 787.84,-562.58 1256.07,-540.8 1441,-525.63 1464.08,-523.74 1488.81,-520.37 1511.88,-516.64"/>
</g>
<!-- C_CHRONOS&#45;&#45;C_SOLR -->
<g id="edge36" class="edge">
<title>C_CHRONOS&#45;&#45;C_SOLR</title>
<path fill="none" stroke="orange" d="M525.38,-443.52C546.28,-435.93 568.29,-425.54 586,-411.63 598.31,-401.96 592.48,-390.53 606,-382.63 766.86,-288.62 1256.4,-331.92 1441,-306.63 1454.94,-304.73 1481.98,-299.92 1510.11,-294.7"/>
</g>
<!-- C_CHRONOS&#45;&#45;C_MARIADB_FEDORA -->
<g id="edge35" class="edge">
<title>C_CHRONOS&#45;&#45;C_MARIADB_FEDORA</title>
<path fill="none" stroke="orange" d="M511.47,-443.52C535.08,-435.08 562.45,-424.12 586,-411.63 595.59,-406.55 595.69,-401.01 606,-397.63 786.64,-338.6 1270.97,-382.05 1461,-379.63 1570.32,-378.25 1694.25,-377.77 1785.99,-377.63"/>
</g>
<!-- C_HTTPD&#45;&#45;HS_SITEMAPS -->
<g id="edge12" class="edge">
<title>C_HTTPD&#45;&#45;HS_SITEMAPS</title>
<path fill="none" stroke="turquoise" d="M544.22,-402.64C560.52,-409.94 575.63,-420.21 586,-434.63 618.13,-479.33 568.46,-889.38 606,-929.63 620.76,-945.46 637.72,-958.23 656.16,-968.44"/>
</g>
<!-- C_HTTPD&#45;&#45;BIND_HTTPD_CERTS -->
<g id="edge19" class="edge">
<title>C_HTTPD&#45;&#45;BIND_HTTPD_CERTS</title>
<path fill="none" stroke="blue" d="M543.09,-402.67C559.68,-409.97 575.19,-420.23 586,-434.63 618.79,-478.32 567.93,-640.46 606,-679.63 681.8,-757.63 811.11,-760.22 905.58,-748.87"/>
</g>
<!-- C_HTTPD&#45;&#45;C_FEDORA -->
<g id="edge59" class="edge">
<title>C_HTTPD&#45;&#45;C_FEDORA</title>
<path fill="none" stroke="magenta" d="M586.02,-378.48C816.82,-367.64 1291.22,-345.35 1500.92,-335.5"/>
</g>
<!-- C_HTTPD&#45;&#45;C_API -->
<g id="edge60" class="edge">
<title>C_HTTPD&#45;&#45;C_API</title>
<path fill="none" stroke="magenta" d="M474.62,-366.35C501.77,-342.3 553.42,-300.96 606,-282.63 713,-245.34 844.54,-241.65 930.81,-244.44"/>
</g>
<!-- C_HTTPD&#45;&#45;C_UI -->
<g id="edge61" class="edge">
<title>C_HTTPD&#45;&#45;C_UI</title>
<path fill="none" stroke="magenta" d="M465.74,-366.45C487.34,-331.79 539.66,-256.76 606,-223.63 646.56,-203.38 1280.38,-144.08 1516.63,-122.56"/>
</g>
<!-- C_HTTPD&#45;&#45;C_SOLR -->
<g id="edge62" class="edge">
<title>C_HTTPD&#45;&#45;C_SOLR</title>
<path fill="none" stroke="magenta" d="M489.28,-366.57C519.19,-351.79 564.22,-331.88 606,-322.63 692.57,-303.47 1277.31,-285.59 1509.62,-279.15"/>
</g>
<!-- C_HTTPD&#45;&#45;C_DBGATE -->
<g id="edge63" class="edge">
<title>C_HTTPD&#45;&#45;C_DBGATE</title>
<path fill="none" stroke="magenta" d="M586.27,-393.89C686.61,-400.96 823.14,-410.58 916.58,-417.17"/>
</g>
<!-- C_HTTPD&#45;&#45;C_LAM -->
<g id="edge64" class="edge">
<title>C_HTTPD&#45;&#45;C_LAM</title>
<path fill="none" stroke="magenta" d="M459.31,-366.43C471.96,-317.51 514.07,-183.13 606,-127.63 810.95,-3.9 1561.46,-49.2 1827.35,-69.74"/>
</g>
<!-- C_GRAFANA -->
<g id="node32" class="node">
<title>C_GRAFANA</title>
<g id="a_node32"><a xlink:href="https://grafana.com/docs/grafana/latest/getting-started/" xlink:title="$PROJECT_NAME&#45;grafana&#45;1">
<polygon fill="none" stroke="green" points="1132.5,-516.63 914.5,-516.63 914.5,-512.63 910.5,-512.63 910.5,-508.63 914.5,-508.63 914.5,-488.63 910.5,-488.63 910.5,-484.63 914.5,-484.63 914.5,-480.63 1132.5,-480.63 1132.5,-516.63"/>
<polyline fill="none" stroke="green" points="914.5,-512.63 918.5,-512.63 918.5,-508.63 914.5,-508.63 "/>
<polyline fill="none" stroke="green" points="914.5,-488.63 918.5,-488.63 918.5,-484.63 914.5,-484.63 "/>
<text text-anchor="middle" x="1023.5" y="-494.93" font-family="Times,serif" font-size="14.00">$PROJECT_NAME&#45;grafana&#45;1</text>
</a>
</g>
</g>
<!-- C_HTTPD&#45;&#45;C_GRAFANA -->
<g id="edge65" class="edge">
<title>C_HTTPD&#45;&#45;C_GRAFANA</title>
<path fill="none" stroke="magenta" d="M515.01,-402.71C538.02,-410.86 564.01,-421.61 586,-434.63 596.04,-440.58 595.29,-447 606,-451.63 704.34,-494.19 827.35,-503.34 914.11,-503.44"/>
</g>
<!-- C_PROMTAIL_LOCAL -->
<g id="node31" class="node">
<title>C_PROMTAIL_LOCAL</title>
<g id="a_node31"><a xlink:href="https://grafana.com/docs/loki/latest/send-data/promtail/" xlink:title="$PROJECT_NAME&#45;promtail&#45;local&#45;1">
<polygon fill="none" stroke="green" points="286,-325.63 24,-325.63 24,-321.63 20,-321.63 20,-317.63 24,-317.63 24,-297.63 20,-297.63 20,-293.63 24,-293.63 24,-289.63 286,-289.63 286,-325.63"/>
<polyline fill="none" stroke="green" points="24,-321.63 28,-321.63 28,-317.63 24,-317.63 "/>
<polyline fill="none" stroke="green" points="24,-297.63 28,-297.63 28,-293.63 24,-293.63 "/>
<text text-anchor="middle" x="155" y="-303.93" font-family="Times,serif" font-size="14.00">$PROJECT_NAME&#45;promtail&#45;local&#45;1</text>
</a>
</g>
</g>
<!-- C_PROMTAIL_LOCAL&#45;&#45;C_FEDORA -->
<g id="edge51" class="edge">
<title>C_PROMTAIL_LOCAL&#45;&#45;C_FEDORA</title>
<path fill="none" stroke="black" d="M286.14,-309.7C570.53,-314.22 1242.59,-324.89 1500.88,-328.99"/>
</g>
<!-- C_PROMTAIL_LOCAL&#45;&#45;C_API -->
<g id="edge42" class="edge">
<title>C_PROMTAIL_LOCAL&#45;&#45;C_API</title>
<path fill="none" stroke="black" d="M286.19,-299.07C463.48,-287.41 776.41,-266.82 930.92,-256.66"/>
</g>
<!-- C_PROMTAIL_LOCAL&#45;&#45;C_MARIADB_PHAIDRA -->
<g id="edge39" class="edge">
<title>C_PROMTAIL_LOCAL&#45;&#45;C_MARIADB_PHAIDRA</title>
<path fill="none" stroke="black" d="M286.14,-315.19C566.52,-331.73 1220.07,-371.71 1441,-397.63 1461.57,-400.05 1483.51,-403.24 1504.41,-406.58"/>
</g>
<!-- C_PROMTAIL_LOCAL&#45;&#45;C_MONGODB_PHAIDRA -->
<g id="edge38" class="edge">
<title>C_PROMTAIL_LOCAL&#45;&#45;C_MONGODB_PHAIDRA</title>
<path fill="none" stroke="black" d="M166.85,-325.86C190.11,-363.16 248.67,-448.11 322,-488.63 434.31,-550.7 478.21,-529.03 606,-540.63 698.4,-549.02 1352.98,-569.97 1441,-540.63 1451.54,-537.12 1450.83,-530.11 1461,-525.63 1468.66,-522.26 1476.72,-519.31 1484.97,-516.73"/>
</g>
<!-- C_PROMTAIL_LOCAL&#45;&#45;C_UI -->
<g id="edge43" class="edge">
<title>C_PROMTAIL_LOCAL&#45;&#45;C_UI</title>
<path fill="none" stroke="black" d="M168.46,-289.48C193.11,-255.35 251.82,-182.47 322,-153.63 538.48,-64.7 1263.62,-95.49 1516.56,-109.38"/>
</g>
<!-- C_PROMTAIL_LOCAL&#45;&#45;C_OPENLDAP -->
<g id="edge46" class="edge">
<title>C_PROMTAIL_LOCAL&#45;&#45;C_OPENLDAP</title>
<path fill="none" stroke="black" d="M175.56,-289.33C204.79,-263.27 262.82,-216.43 322,-196.63 536.64,-124.83 1218.88,-149.39 1490.92,-162.57"/>
</g>
<!-- C_PROMTAIL_LOCAL&#45;&#45;C_SOLR -->
<g id="edge41" class="edge">
<title>C_PROMTAIL_LOCAL&#45;&#45;C_SOLR</title>
<path fill="none" stroke="black" d="M229.47,-289.6C318.08,-268.85 471.86,-236.04 606,-223.63 698.38,-215.09 1357.77,-182.65 1441,-223.63 1454.08,-230.07 1448.58,-242.01 1461,-249.63 1475.69,-258.65 1492.7,-264.79 1509.76,-268.93"/>
</g>
<!-- C_PROMTAIL_LOCAL&#45;&#45;C_IMAGESERVER -->
<g id="edge44" class="edge">
<title>C_PROMTAIL_LOCAL&#45;&#45;C_IMAGESERVER</title>
<path fill="none" stroke="black" d="M183.1,-289.5C214.87,-269.28 269.83,-237.47 322,-222.63 443.81,-188 479.47,-204.75 606,-199.63 976.81,-184.64 1070.79,-173.72 1441,-199.63 1457.3,-200.78 1474.45,-202.55 1491.25,-204.62"/>
</g>
<!-- C_PROMTAIL_LOCAL&#45;&#45;C_AGENT_LIBVIPS -->
<g id="edge50" class="edge">
<title>C_PROMTAIL_LOCAL&#45;&#45;C_AGENT_LIBVIPS</title>
<path fill="none" stroke="black" d="M162.15,-325.77C179.09,-372.66 231.33,-498.04 322,-552.63 570.41,-702.22 1476.22,-657.14 1802.96,-635.34"/>
</g>
<!-- C_PROMTAIL_LOCAL&#45;&#45;C_DBGATE -->
<g id="edge48" class="edge">
<title>C_PROMTAIL_LOCAL&#45;&#45;C_DBGATE</title>
<path fill="none" stroke="black" d="M176.68,-325.91C206.39,-350.84 263.98,-394.38 322,-411.63 377.27,-428.07 735,-427.29 916.79,-425.78"/>
</g>
<!-- C_PROMTAIL_LOCAL&#45;&#45;C_LAM -->
<g id="edge47" class="edge">
<title>C_PROMTAIL_LOCAL&#45;&#45;C_LAM</title>
<path fill="none" stroke="black" d="M162.53,-289.47C180.04,-243.78 232.88,-124.27 322,-75.63 582.75,66.64 1524.75,-30.28 1827.26,-65.97"/>
</g>
<!-- C_PROMTAIL_LOCAL&#45;&#45;C_MARIADB_FEDORA -->
<g id="edge40" class="edge">
<title>C_PROMTAIL_LOCAL&#45;&#45;C_MARIADB_FEDORA</title>
<path fill="none" stroke="black" d="M164.17,-289.38C184.09,-247.36 239.64,-144.26 322,-102.63 392.81,-66.85 1681.09,-48.33 1750,-87.63 1857.21,-148.78 1904.2,-306.14 1917.4,-359.57"/>
</g>
<!-- C_PROMTAIL_LOCAL&#45;&#45;C_CHRONOS -->
<g id="edge49" class="edge">
<title>C_PROMTAIL_LOCAL&#45;&#45;C_CHRONOS</title>
<path fill="none" stroke="black" d="M175.35,-325.65C204.77,-352.1 263.55,-401.24 322,-428.63 334.64,-434.56 348.47,-439.51 362.27,-443.62"/>
</g>
<!-- C_PROMTAIL_LOCAL&#45;&#45;C_HTTPD -->
<g id="edge45" class="edge">
<title>C_PROMTAIL_LOCAL&#45;&#45;C_HTTPD</title>
<path fill="none" stroke="black" d="M220.94,-325.64C251.55,-334.03 288.6,-344.03 322,-352.63 340.02,-357.28 359.49,-362.12 377.76,-366.6"/>
</g>
<!-- C_LOKI -->
<g id="node33" class="node">
<title>C_LOKI</title>
<g id="a_node33"><a xlink:href="https://grafana.com/docs/loki/latest/" xlink:title="$PROJECT_NAME&#45;loki&#45;1">
<polygon fill="none" stroke="green" points="1700,-570.63 1511,-570.63 1511,-566.63 1507,-566.63 1507,-562.63 1511,-562.63 1511,-542.63 1507,-542.63 1507,-538.63 1511,-538.63 1511,-534.63 1700,-534.63 1700,-570.63"/>
<polyline fill="none" stroke="green" points="1511,-566.63 1515,-566.63 1515,-562.63 1511,-562.63 "/>
<polyline fill="none" stroke="green" points="1511,-542.63 1515,-542.63 1515,-538.63 1511,-538.63 "/>
<text text-anchor="middle" x="1605.5" y="-548.93" font-family="Times,serif" font-size="14.00">$PROJECT_NAME&#45;loki&#45;1</text>
</a>
</g>
</g>
<!-- C_PROMTAIL_LOCAL&#45;&#45;C_LOKI -->
<g id="edge52" class="edge">
<title>C_PROMTAIL_LOCAL&#45;&#45;C_LOKI</title>
<path fill="none" stroke="black" d="M164.08,-325.69C184.01,-367.81 239.91,-472.53 322,-518.63 524.83,-632.53 1250.46,-583.2 1510.74,-561.18"/>
</g>
<!-- C_GRAFANA&#45;&#45;HS_GRAFANA -->
<g id="edge16" class="edge">
<title>C_GRAFANA&#45;&#45;HS_GRAFANA</title>
<path fill="none" stroke="turquoise" d="M914.47,-510.2C806.54,-528.53 649.87,-575.69 596,-696.63 586.89,-717.09 586.89,-1482.18 596,-1502.63 606.78,-1526.83 644.46,-1540.99 693.29,-1548.82"/>
</g>
<!-- C_GRAFANA&#45;&#45;C_MARIADB_PHAIDRA -->
<g id="edge56" class="edge">
<title>C_GRAFANA&#45;&#45;C_MARIADB_PHAIDRA</title>
<path fill="none" stroke="black" d="M1132.59,-501.64C1217.84,-501.33 1338.96,-494.89 1441,-466.63 1450.58,-463.98 1451.64,-459.96 1461,-456.63 1476.03,-451.29 1492.28,-446.65 1508.25,-442.69"/>
</g>
<!-- C_GRAFANA&#45;&#45;C_MARIADB_FEDORA -->
<g id="edge55" class="edge">
<title>C_GRAFANA&#45;&#45;C_MARIADB_FEDORA</title>
<path fill="none" stroke="black" d="M1132.56,-491.87C1332.94,-479.29 1742.59,-453.42 1750,-451.63 1800.6,-439.46 1855.17,-413.47 1888.83,-395.76"/>
</g>
<!-- C_GRAFANA&#45;&#45;C_LOKI -->
<g id="edge53" class="edge">
<title>C_GRAFANA&#45;&#45;C_LOKI</title>
<path fill="none" stroke="black" d="M1132.57,-508.7C1241.38,-518.83 1407.51,-534.29 1510.87,-543.92"/>
</g>
<!-- C_PROMETHEUS -->
<g id="node35" class="node">
<title>C_PROMETHEUS</title>
<g id="a_node35"><a xlink:href="https://prometheus.io" xlink:title="$PROJECT_NAME&#45;prometheus&#45;1">
<polygon fill="none" stroke="green" points="1730,-624.63 1481,-624.63 1481,-620.63 1477,-620.63 1477,-616.63 1481,-616.63 1481,-596.63 1477,-596.63 1477,-592.63 1481,-592.63 1481,-588.63 1730,-588.63 1730,-624.63"/>
<polyline fill="none" stroke="green" points="1481,-620.63 1485,-620.63 1485,-616.63 1481,-616.63 "/>
<polyline fill="none" stroke="green" points="1481,-596.63 1485,-596.63 1485,-592.63 1481,-592.63 "/>
<text text-anchor="middle" x="1605.5" y="-602.93" font-family="Times,serif" font-size="14.00">$PROJECT_NAME&#45;prometheus&#45;1</text>
</a>
</g>
</g>
<!-- C_GRAFANA&#45;&#45;C_PROMETHEUS -->
<g id="edge54" class="edge">
<title>C_GRAFANA&#45;&#45;C_PROMETHEUS</title>
<path fill="none" stroke="black" d="M1121.25,-516.65C1228.42,-536.61 1400.2,-568.59 1507.47,-588.57"/>
</g>
<!-- C_LOKI&#45;&#45;HS_LOKI -->
<g id="edge17" class="edge">
<title>C_LOKI&#45;&#45;HS_LOKI</title>
<path fill="none" stroke="turquoise" d="M1510.75,-552.02C1491.73,-556.45 1473.69,-564.8 1461,-579.63 1413.88,-634.71 1490.87,-1179.04 1441,-1231.63 1422.03,-1251.64 1377.61,-1262.86 1324.53,-1268.73"/>
</g>
<!-- C_NODE_EXPORTER -->
<g id="node34" class="node">
<title>C_NODE_EXPORTER</title>
<g id="a_node34"><a xlink:href="https://prometheus.io/docs/guides/node-exporter/" xlink:title="$PROJECT_NAME&#45;node&#45;exporter&#45;1">
<polygon fill="none" stroke="green" points="2054.5,-590.63 1790.5,-590.63 1790.5,-586.63 1786.5,-586.63 1786.5,-582.63 1790.5,-582.63 1790.5,-562.63 1786.5,-562.63 1786.5,-558.63 1790.5,-558.63 1790.5,-554.63 2054.5,-554.63 2054.5,-590.63"/>
<polyline fill="none" stroke="green" points="1790.5,-586.63 1794.5,-586.63 1794.5,-582.63 1790.5,-582.63 "/>
<polyline fill="none" stroke="green" points="1790.5,-562.63 1794.5,-562.63 1794.5,-558.63 1790.5,-558.63 "/>
<text text-anchor="middle" x="1922.5" y="-568.93" font-family="Times,serif" font-size="14.00">$PROJECT_NAME&#45;node&#45;exporter&#45;1</text>
</a>
</g>
</g>
<!-- C_PROMETHEUS&#45;&#45;HS_PROMETHEUS -->
<g id="edge18" class="edge">
<title>C_PROMETHEUS&#45;&#45;HS_PROMETHEUS</title>
<path fill="none" stroke="turquoise" d="M1598.23,-624.97C1575.28,-692.94 1495.43,-937.36 1461,-1145.63 1455.62,-1178.16 1464.12,-1418.14 1441,-1441.63 1363.27,-1520.65 1230.01,-1517.83 1135.17,-1502.71"/>
</g>
<!-- C_PROMETHEUS&#45;&#45;C_NODE_EXPORTER -->
<g id="edge58" class="edge">
<title>C_PROMETHEUS&#45;&#45;C_NODE_EXPORTER</title>
<path fill="none" stroke="black" d="M1730.09,-593.29C1749.91,-591.16 1770.49,-588.93 1790.48,-586.78"/>
</g>
<!-- C_CADVISOR -->
<g id="node36" class="node">
<title>C_CADVISOR</title>
<g id="a_node36"><a xlink:href="https://github.com/google/cadvisor" xlink:title="$PROJECT_NAME&#45;cadvisor&#45;1">
<polygon fill="none" stroke="green" points="2034.5,-536.63 1810.5,-536.63 1810.5,-532.63 1806.5,-532.63 1806.5,-528.63 1810.5,-528.63 1810.5,-508.63 1806.5,-508.63 1806.5,-504.63 1810.5,-504.63 1810.5,-500.63 2034.5,-500.63 2034.5,-536.63"/>
<polyline fill="none" stroke="green" points="1810.5,-532.63 1814.5,-532.63 1814.5,-528.63 1810.5,-528.63 "/>
<polyline fill="none" stroke="green" points="1810.5,-508.63 1814.5,-508.63 1814.5,-504.63 1810.5,-504.63 "/>
<text text-anchor="middle" x="1922.5" y="-514.93" font-family="Times,serif" font-size="14.00">$PROJECT_NAME&#45;cadvisor&#45;1</text>
</a>
</g>
</g>
<!-- C_PROMETHEUS&#45;&#45;C_CADVISOR -->
<g id="edge57" class="edge">
<title>C_PROMETHEUS&#45;&#45;C_CADVISOR</title>
<path fill="none" stroke="black" d="M1729.08,-588.6C1736.3,-586 1743.34,-583.03 1750,-579.63 1769.61,-569.64 1766.45,-555.73 1786,-545.63 1793.67,-541.67 1801.87,-538.29 1810.28,-535.4"/>
</g>
</g>
</svg>
