<?xml version="1.0" encoding="utf-8"?>
<!-- Generator: Adobe Illustrator 24.3.0, SVG Export Plug-In . SVG Version: 6.00 Build 0)  -->
<svg version="1.1" id="Layer_1" xmlns="http://www.w3.org/2000/svg" xmlns:xlink="http://www.w3.org/1999/xlink" x="0px" y="0px"
	 viewBox="0 0 1000 1000" style="enable-background:new 0 0 1000 1000;" xml:space="preserve">
<style type="text/css">
	.st0{fill:#FF204E;}
	.st1{fill:#212121;}
</style>
<g>
	<g>
		<g>
			<path class="st0" d="M269.5,918h-35V504c0-71.99,28.03-139.66,78.93-190.57S432.01,234.5,504,234.5s139.66,28.03,190.57,78.93
				c50.9,50.9,78.93,118.58,78.93,190.57s-28.03,139.66-78.93,190.57c-50.9,50.9-118.58,78.93-190.57,78.93H387v-35h117
				c129.3,0,234.5-105.2,234.5-234.5S633.3,269.5,504,269.5S269.5,374.7,269.5,504V918z"/>
		</g>
	</g>
</g>
<path class="st1" d="M885,343.04c-20.83-49.24-50.64-93.46-88.61-131.43c-37.97-37.97-82.19-67.78-131.43-88.61
	C613.97,101.44,559.81,90.5,504,90.5S394.03,101.44,343.04,123c-49.24,20.83-93.46,50.64-131.43,88.61
	c-37.97,37.97-67.78,82.19-88.61,131.43C101.44,394.03,90.5,448.19,90.5,504v414h35V504c0-208.71,169.79-378.5,378.5-378.5
	c208.71,0,378.5,169.79,378.5,378.5c0,208.71-169.79,378.5-378.5,378.5h-90.5v-253H504c69.2,0,125.5-56.3,125.5-125.5
	c0-69.2-56.3-125.5-125.5-125.5c-69.2,0-125.5,56.3-125.5,125.5v414h35v-0.5H504c55.81,0,109.97-10.94,160.96-32.5
	c49.24-20.83,93.46-50.64,131.43-88.61S864.17,714.2,885,664.96c21.57-50.99,32.5-105.14,32.5-160.96S906.56,394.03,885,343.04z
	 M413.5,504c0-49.9,40.6-90.5,90.5-90.5c49.9,0,90.5,40.6,90.5,90.5c0,49.9-40.6,90.5-90.5,90.5h-90.5V504z"/>
</svg>
