<?xml version="1.0" encoding="utf-8"?>
<!-- Generator: Adobe Illustrator 18.1.1, SVG Export Plug-In . SVG Version: 6.00 Build 0)  -->
<svg version="1.1" id="Ebene_1" xmlns="http://www.w3.org/2000/svg" xmlns:xlink="http://www.w3.org/1999/xlink" x="0px" y="0px"
	 width="95px" height="95px" viewBox="47.5 13.5 95 95" enable-background="new 47.5 13.5 95 95" xml:space="preserve">
<g>
	<path fill="#005096" d="M106.5,93.6c-0.4,0-0.8,0.3-1.1,0.7c-0.3,0.4-0.4,0.8-0.4,1.4s0.1,1,0.4,1.4c0.3,0.4,0.6,0.7,1.1,0.7
		c0.6,0,1-0.3,1.3-0.7c0.3-0.4,0.4-0.8,0.4-1.4c0-0.4-0.1-1-0.4-1.4C107.5,93.9,107.1,93.6,106.5,93.6z M98.8,93.6
		c-0.4,0-0.8,0.3-1.1,0.7c-0.3,0.4-0.4,0.8-0.4,1.4s0.1,1.1,0.4,1.4c0.3,0.4,0.6,0.6,1.1,0.6s1-0.1,1.3-0.6c0.3-0.4,0.4-0.8,0.4-1.4
		c0-0.4-0.1-1-0.4-1.4C99.7,93.9,99.3,93.6,98.8,93.6z M122.5,93.6c-0.6,0-1,0.1-1.3,0.4c-0.1,0.3-0.3,0.6-0.3,0.8h2.8
		c0-0.4-0.1-0.7-0.4-1C123.2,93.8,122.8,93.6,122.5,93.6L122.5,93.6z M47.5,13.5v95h95v-95H47.5z M120.4,65.7h4.2l-4,19h-4.4
		L120.4,65.7z M110.9,65.7h4.2l-4,19H107L110.9,65.7z M108.8,90v1.4h-1.7V90H108.8z M101.6,65.7h4.2l-4.1,19h-4.2L101.6,65.7z
		 M106.1,90v1.4h-1.7V90H106.1z M78.6,65.7H83v7.1c0.4-0.7,1-1.3,1.7-1.7c0.8-0.4,1.7-0.6,2.5-0.6c1.1,0,2,0.1,2.7,0.6
		c0.7,0.4,1.3,0.8,1.6,1.3c0.3,0.6,0.4,1,0.6,1.7c0.1,0.6,0.1,1.1,0.1,1.7v8.9h-4.7v-6.7c0-1,0-1.8-0.1-2.5c-0.1-0.7-0.8-1.1-2-1.1
		c-0.8,0-1.4,0.3-1.8,0.8c-0.4,0.6-0.6,1.3-0.6,2v7.6h-4.4V65.7z M59.1,84.7h-4.2l4-19h4.2L59.1,84.7z M75.2,69h-1.1
		c-0.6,0-0.8,0-1.3,0.1c-0.3,0.1-0.4,0.6-0.4,1.1V71H75v2.8h-2.5v10.9h-4.7V73.8h-2V71h2c0-1,0.1-1.8,0.3-2.5s0.6-1.3,1-1.6
		c0.4-0.4,0.8-0.8,1.6-1c0.7-0.1,1.6-0.1,2.5-0.1h2.1L75.2,69L75.2,69z M80.9,94.8c0.4,0.1,0.8,0.3,1.4,0.4c0.6,0.1,1.1,0.3,1.4,0.6
		c0.4,0.3,0.6,0.6,0.6,1.1c0,0.8-0.3,1.4-1,1.8c-0.6,0.4-1.3,0.6-2,0.6c-0.7,0-1.4-0.1-2-0.6s-1-1-1-1.8h1.7c0,0.4,0.1,0.7,0.4,0.8
		c0.3,0.1,0.7,0.3,1,0.3c0.3,0,0.4,0,0.7-0.1s0.4-0.3,0.4-0.6s-0.1-0.4-0.6-0.7c-0.4-0.3-0.8-0.3-1.4-0.4c-0.6-0.1-1-0.3-1.4-0.4
		c-0.4-0.1-0.7-0.6-0.7-1.3c0-0.8,0.3-1.4,0.8-1.7s1.3-0.4,2-0.4c0.7,0,1.4,0.1,2,0.4c0.6,0.3,0.8,0.8,1,1.7h-1.8
		c0-0.4-0.1-0.6-0.4-0.7c-0.3-0.1-0.6-0.1-0.7-0.1c-0.3,0-0.6,0-0.7,0.1c-0.3,0-0.4,0.3-0.4,0.4C80.2,94.3,80.3,94.6,80.9,94.8
		L80.9,94.8z M89.3,93.6H88v3.1c0,0.4,0,0.6,0.1,0.7c0,0,0.3,0.1,0.7,0.1h0.6V99h-1.1c-0.4,0-1-0.1-1.4-0.3s-0.7-0.6-0.7-1.3v-4H85
		v-1.1h1.1v-2H88v2h1.3V93.6L89.3,93.6z M92.7,99h-1.8v-2h1.8V99L92.7,99z M101.4,98.2c-0.4,0.7-1.1,1-2.1,1c-0.4,0-0.7-0.1-1.1-0.3
		c-0.4-0.1-0.6-0.4-0.7-0.8h-0.1v3.3h-1.7v-8.8h1.7v0.7c0.3-0.4,0.6-0.6,0.8-0.7s0.7-0.1,1-0.1c1.1,0,1.8,0.3,2.3,1
		c0.4,0.7,0.7,1.6,0.7,2.5C102.1,96.7,101.9,97.5,101.4,98.2L101.4,98.2z M109.1,98.2c-0.6,0.7-1.4,1-2.5,1c-1,0-1.8-0.3-2.4-1
		c-0.6-0.6-1-1.4-1-2.5c0-1,0.3-1.8,1-2.4c0.6-0.6,1.4-1,2.4-1c1.1,0,2,0.3,2.5,1c0.6,0.6,1,1.4,1,2.4
		C110.1,96.6,109.8,97.5,109.1,98.2z M113.2,99h-1.8V90h1.8V99L113.2,99z M118.4,93.6h-1.3v3.1c0,0.4,0,0.6,0.1,0.7
		c0.1,0,0.3,0.1,0.6,0.1h0.6V99h-1.1c-0.6,0-1-0.1-1.4-0.3s-0.7-0.6-0.7-1.3v-4H114v-1.1h1.1v-2h1.8v2h1.3v1.3L118.4,93.6
		L118.4,93.6z M121.4,97.3c0.3,0.3,0.6,0.4,1.1,0.4c0.4,0,0.7-0.1,1-0.3s0.4-0.3,0.6-0.4h1.4c-0.3,0.7-0.6,1.3-1.1,1.7
		c-0.4,0.4-1.1,0.6-1.8,0.6c-1,0-1.8-0.3-2.4-1c-0.6-0.7-1-1.6-1-2.5c0-1,0.3-1.8,1-2.4c0.6-0.6,1.4-1,2.4-1c1.1,0,2,0.4,2.4,1.1
		c0.4,0.7,0.7,1.6,0.7,2.5H121C121,96.6,121.1,97,121.4,97.3L121.4,97.3z M133,99h-1.8v-3.7c0-0.4-0.1-0.8-0.3-1.3
		c-0.1-0.3-0.4-0.4-0.8-0.4s-0.8,0.1-1,0.4c-0.1,0.3-0.3,0.7-0.3,1.4V99h-1.8v-6.5h1.7v0.7c0.3-0.3,0.6-0.4,1-0.7
		c0.4-0.3,0.7-0.3,1.1-0.3c1,0,1.7,0.3,2,0.7c0.3,0.6,0.4,1.1,0.4,1.8V99L133,99L133,99z"/>
</g>
</svg>
