<?xml version="1.0" encoding="UTF-8" standalone="no"?>
<!DOCTYPE svg PUBLIC "-//W3C//DTD SVG 1.1//EN"
 "http://www.w3.org/Graphics/SVG/1.1/DTD/svg11.dtd">
<!-- Generated by graphviz version 2.43.0 (0)
 -->
<!-- Title: G Pages: 1 -->
<svg width="1082pt" height="589pt"
 viewBox="0.00 0.00 1082.09 589.00" xmlns="http://www.w3.org/2000/svg" xmlns:xlink="http://www.w3.org/1999/xlink">
<g id="graph0" class="graph" transform="scale(1 1) rotate(0) translate(4 585)">
<title>G</title>
<polygon fill="white" stroke="transparent" points="-4,4 -4,-585 1078.09,-585 1078.09,4 -4,4"/>
<g id="clust1" class="cluster">
<title>cluster_host</title>
<polygon fill="none" stroke="red" points="32.09,-80 32.09,-573 1066.09,-573 1066.09,-80 32.09,-80"/>
<text text-anchor="middle" x="549.09" y="-557.8" font-family="Times,serif" font-size="14.00">localhost</text>
</g>
<g id="clust2" class="cluster">
<title>cluster_host_storage</title>
<polygon fill="none" stroke="blue" points="249.09,-467 249.09,-542 1058.09,-542 1058.09,-467 249.09,-467"/>
<text text-anchor="middle" x="653.59" y="-526.8" font-family="Times,serif" font-size="14.00">host filesystem</text>
</g>
<g id="clust3" class="cluster">
<title>cluster_docker_network_host</title>
<polygon fill="none" stroke="green" points="99.09,-160 99.09,-459 1058.09,-459 1058.09,-160 99.09,-160"/>
<text text-anchor="middle" x="578.59" y="-443.8" font-family="Times,serif" font-size="14.00">PHAIDRA components</text>
</g>
<!-- a1 -->
<g id="node1" class="node">
<title>a1</title>
<polygon fill="none" stroke="red" points="132.09,-128 40.09,-128 40.09,-124 36.09,-124 36.09,-120 40.09,-120 40.09,-100 36.09,-100 36.09,-96 40.09,-96 40.09,-92 132.09,-92 132.09,-128"/>
<polyline fill="none" stroke="red" points="40.09,-124 44.09,-124 44.09,-120 40.09,-120 "/>
<polyline fill="none" stroke="red" points="40.09,-100 44.09,-100 44.09,-96 40.09,-96 "/>
<text text-anchor="middle" x="86.09" y="-106.3" font-family="Times,serif" font-size="14.00">webserver</text>
</g>
<!-- d1 -->
<g id="node21" class="node">
<title>d1</title>
<polygon fill="none" stroke="black" points="164.25,-18.54 164.25,-33.46 118.47,-44 53.71,-44 7.92,-33.46 7.92,-18.54 53.71,-8 118.47,-8 164.25,-18.54"/>
<polygon fill="none" stroke="black" points="168.26,-15.36 168.26,-36.64 118.92,-48 53.25,-48 3.92,-36.64 3.92,-15.36 53.25,-4 118.92,-4 168.26,-15.36"/>
<polygon fill="none" stroke="black" points="172.26,-12.18 172.26,-39.82 119.38,-52 52.8,-52 -0.09,-39.82 -0.09,-12.18 52.8,0 119.38,0 172.26,-12.18"/>
<text text-anchor="middle" x="86.09" y="-22.3" font-family="Times,serif" font-size="14.00">Phaidra User</text>
</g>
<!-- a1&#45;&#45;d1 -->
<g id="edge23" class="edge">
<title>a1&#45;&#45;d1</title>
<path fill="none" stroke="red" d="M86.09,-91.61C86.09,-80.14 86.09,-64.93 86.09,-52.15"/>
</g>
<!-- a2 -->
<g id="node2" class="node">
<title>a2</title>
<polygon fill="none" stroke="magenta" points="380.12,-102.54 380.12,-117.46 313.91,-128 220.27,-128 154.05,-117.46 154.05,-102.54 220.27,-92 313.91,-92 380.12,-102.54"/>
<polygon fill="none" stroke="magenta" points="384.11,-99.13 384.11,-120.87 314.22,-132 219.95,-132 150.06,-120.87 150.06,-99.13 219.95,-88 314.22,-88 384.11,-99.13"/>
<text text-anchor="middle" x="267.09" y="-106.3" font-family="Times,serif" font-size="14.00">developer&#39;s browser</text>
</g>
<!-- b1 -->
<g id="node3" class="node">
<title>b1</title>
<polygon fill="none" stroke="blue" points="359.09,-511 356.09,-515 335.09,-515 332.09,-511 257.09,-511 257.09,-475 359.09,-475 359.09,-511"/>
<text text-anchor="middle" x="308.09" y="-489.3" font-family="Times,serif" font-size="14.00">Fedora data</text>
</g>
<!-- c1 -->
<g id="node9" class="node">
<title>c1</title>
<g id="a_node9"><a xlink:href="https://fedora.lyrasis.org/" xlink:title="Fedora\n(object and metadata store)">
<polygon fill="none" stroke="green" points="739.59,-428 524.59,-428 524.59,-424 520.59,-424 520.59,-420 524.59,-420 524.59,-398 520.59,-398 520.59,-394 524.59,-394 524.59,-390 739.59,-390 739.59,-428"/>
<polyline fill="none" stroke="green" points="524.59,-424 528.59,-424 528.59,-420 524.59,-420 "/>
<polyline fill="none" stroke="green" points="524.59,-398 528.59,-398 528.59,-394 524.59,-394 "/>
<text text-anchor="middle" x="632.09" y="-412.8" font-family="Times,serif" font-size="14.00">Fedora</text>
<text text-anchor="middle" x="632.09" y="-397.8" font-family="Times,serif" font-size="14.00">(object and metadata store)</text>
</a>
</g>
</g>
<!-- b1&#45;&#45;c1 -->
<g id="edge17" class="edge">
<title>b1&#45;&#45;c1</title>
<path fill="none" stroke="blue" d="M345.76,-474.98C353.07,-472.05 360.75,-469.24 368.09,-467 385.43,-461.71 390.34,-462.72 408.09,-459 455.62,-449.05 508.72,-437.45 551.29,-428.04"/>
</g>
<!-- b2 -->
<g id="node4" class="node">
<title>b2</title>
<polygon fill="none" stroke="blue" points="493.09,-511 490.09,-515 469.09,-515 466.09,-511 377.09,-511 377.09,-475 493.09,-475 493.09,-511"/>
<text text-anchor="middle" x="435.09" y="-489.3" font-family="Times,serif" font-size="14.00">MariaDB data</text>
</g>
<!-- c3 -->
<g id="node11" class="node">
<title>c3</title>
<g id="a_node11"><a xlink:href="https://mariadb.org/" xlink:title="MariaDB\n(general databases)">
<polygon fill="none" stroke="green" points="318.09,-280 160.09,-280 160.09,-276 156.09,-276 156.09,-272 160.09,-272 160.09,-250 156.09,-250 156.09,-246 160.09,-246 160.09,-242 318.09,-242 318.09,-280"/>
<polyline fill="none" stroke="green" points="160.09,-276 164.09,-276 164.09,-272 160.09,-272 "/>
<polyline fill="none" stroke="green" points="160.09,-250 164.09,-250 164.09,-246 160.09,-246 "/>
<text text-anchor="middle" x="239.09" y="-264.8" font-family="Times,serif" font-size="14.00">MariaDB</text>
<text text-anchor="middle" x="239.09" y="-249.8" font-family="Times,serif" font-size="14.00">(general databases)</text>
</a>
</g>
</g>
<!-- b2&#45;&#45;c3 -->
<g id="edge18" class="edge">
<title>b2&#45;&#45;c3</title>
<path fill="none" stroke="blue" d="M475.11,-474.89C484.16,-471.7 493.83,-468.8 503.09,-467 556.77,-456.54 696.23,-473.06 749.09,-459 853.99,-431.09 1021.51,-395.02 947.09,-316 901.3,-267.38 413.45,-287.5 347.09,-280 337.74,-278.94 327.97,-277.62 318.28,-276.18"/>
</g>
<!-- b3 -->
<g id="node5" class="node">
<title>b3</title>
<polygon fill="none" stroke="blue" points="634.59,-511 631.59,-515 610.59,-515 607.59,-511 511.59,-511 511.59,-475 634.59,-475 634.59,-511"/>
<text text-anchor="middle" x="573.09" y="-489.3" font-family="Times,serif" font-size="14.00">MongoDB data</text>
</g>
<!-- c4 -->
<g id="node12" class="node">
<title>c4</title>
<g id="a_node12"><a xlink:href="https://www.mongodb.com/" xlink:title="MongoDB\n(job&#45;tracking)">
<polygon fill="none" stroke="green" points="469.59,-280 356.59,-280 356.59,-276 352.59,-276 352.59,-272 356.59,-272 356.59,-250 352.59,-250 352.59,-246 356.59,-246 356.59,-242 469.59,-242 469.59,-280"/>
<polyline fill="none" stroke="green" points="356.59,-276 360.59,-276 360.59,-272 356.59,-272 "/>
<polyline fill="none" stroke="green" points="356.59,-250 360.59,-250 360.59,-246 356.59,-246 "/>
<text text-anchor="middle" x="413.09" y="-264.8" font-family="Times,serif" font-size="14.00">MongoDB</text>
<text text-anchor="middle" x="413.09" y="-249.8" font-family="Times,serif" font-size="14.00">(job&#45;tracking)</text>
</a>
</g>
</g>
<!-- b3&#45;&#45;c4 -->
<g id="edge19" class="edge">
<title>b3&#45;&#45;c4</title>
<path fill="none" stroke="blue" d="M614.54,-474.96C624.09,-471.72 634.32,-468.79 644.09,-467 662.56,-463.62 968.96,-472.44 982.09,-459 1004.29,-436.27 1003.74,-339.26 982.09,-316 943.91,-274.99 534.32,-289.42 479.09,-280 476.04,-279.48 472.94,-278.88 469.81,-278.22"/>
</g>
<!-- b4 -->
<g id="node6" class="node">
<title>b4</title>
<polygon fill="none" stroke="blue" points="745.59,-511 742.59,-515 721.59,-515 718.59,-511 652.59,-511 652.59,-475 745.59,-475 745.59,-511"/>
<text text-anchor="middle" x="699.09" y="-489.3" font-family="Times,serif" font-size="14.00">iipsrv data</text>
</g>
<!-- c8 -->
<g id="node16" class="node">
<title>c8</title>
<g id="a_node16"><a xlink:href="https://github.com/ruven/iipsrv" xlink:title="iipsrv\n(display large images)">
<polygon fill="none" stroke="green" points="662.59,-280 487.59,-280 487.59,-276 483.59,-276 483.59,-272 487.59,-272 487.59,-250 483.59,-250 483.59,-246 487.59,-246 487.59,-242 662.59,-242 662.59,-280"/>
<polyline fill="none" stroke="green" points="487.59,-276 491.59,-276 491.59,-272 487.59,-272 "/>
<polyline fill="none" stroke="green" points="487.59,-250 491.59,-250 491.59,-246 487.59,-246 "/>
<text text-anchor="middle" x="575.09" y="-264.8" font-family="Times,serif" font-size="14.00">iipsrv</text>
<text text-anchor="middle" x="575.09" y="-249.8" font-family="Times,serif" font-size="14.00">(display large images)</text>
</a>
</g>
</g>
<!-- b4&#45;&#45;c8 -->
<g id="edge20" class="edge">
<title>b4&#45;&#45;c8</title>
<path fill="none" stroke="blue" d="M731.52,-474.99C739.06,-471.75 747.2,-468.81 755.09,-467 768.47,-463.92 992.54,-468.86 1002.09,-459 1024.19,-436.17 1023.3,-339.66 1002.09,-316 952.84,-261.08 745.07,-290.74 672.09,-280 669.04,-279.55 665.94,-279.08 662.81,-278.58"/>
</g>
<!-- b5 -->
<g id="node7" class="node">
<title>b5</title>
<polygon fill="none" stroke="blue" points="902.09,-511 899.09,-515 878.09,-515 875.09,-511 764.09,-511 764.09,-475 902.09,-475 902.09,-511"/>
<text text-anchor="middle" x="833.09" y="-489.3" font-family="Times,serif" font-size="14.00">Apache Solr data</text>
</g>
<!-- c7 -->
<g id="node15" class="node">
<title>c7</title>
<g id="a_node15"><a xlink:href="https://solr.apache.org/" xlink:title="Apache Solr\n(object search engine)">
<polygon fill="none" stroke="green" points="855.59,-280 680.59,-280 680.59,-276 676.59,-276 676.59,-272 680.59,-272 680.59,-250 676.59,-250 676.59,-246 680.59,-246 680.59,-242 855.59,-242 855.59,-280"/>
<polyline fill="none" stroke="green" points="680.59,-276 684.59,-276 684.59,-272 680.59,-272 "/>
<polyline fill="none" stroke="green" points="680.59,-250 684.59,-250 684.59,-246 680.59,-246 "/>
<text text-anchor="middle" x="768.09" y="-264.8" font-family="Times,serif" font-size="14.00">Apache Solr</text>
<text text-anchor="middle" x="768.09" y="-249.8" font-family="Times,serif" font-size="14.00">(object search engine)</text>
</a>
</g>
</g>
<!-- b5&#45;&#45;c7 -->
<g id="edge21" class="edge">
<title>b5&#45;&#45;c7</title>
<path fill="none" stroke="blue" d="M880.05,-474.96C890.17,-471.85 900.9,-468.97 911.09,-467 923.23,-464.65 1013.66,-468.05 1022.09,-459 1043.74,-435.74 1042.09,-340.7 1022.09,-316 1011.38,-302.77 924.93,-286.36 855.82,-275.13"/>
</g>
<!-- b6 -->
<g id="node8" class="node">
<title>b6</title>
<polygon fill="none" stroke="blue" points="1050.09,-511 1047.09,-515 1026.09,-515 1023.09,-511 920.09,-511 920.09,-475 1050.09,-475 1050.09,-511"/>
<text text-anchor="middle" x="985.09" y="-489.3" font-family="Times,serif" font-size="14.00">OpenLDAP data</text>
</g>
<!-- c6 -->
<g id="node14" class="node">
<title>c6</title>
<g id="a_node14"><a xlink:href="https://www.openldap.org/" xlink:title="OpenLDAP\n(user management)">
<polygon fill="none" stroke="green" points="1050.09,-280 894.09,-280 894.09,-276 890.09,-276 890.09,-272 894.09,-272 894.09,-250 890.09,-250 890.09,-246 894.09,-246 894.09,-242 1050.09,-242 1050.09,-280"/>
<polyline fill="none" stroke="green" points="894.09,-276 898.09,-276 898.09,-272 894.09,-272 "/>
<polyline fill="none" stroke="green" points="894.09,-250 898.09,-250 898.09,-246 894.09,-246 "/>
<text text-anchor="middle" x="972.09" y="-264.8" font-family="Times,serif" font-size="14.00">OpenLDAP</text>
<text text-anchor="middle" x="972.09" y="-249.8" font-family="Times,serif" font-size="14.00">(user management)</text>
</a>
</g>
</g>
<!-- b6&#45;&#45;c6 -->
<g id="edge22" class="edge">
<title>b6&#45;&#45;c6</title>
<path fill="none" stroke="blue" d="M1027.01,-474.85C1033.04,-470.57 1038.43,-465.34 1042.09,-459 1073.83,-403.94 1070.12,-373.04 1042.09,-316 1034.71,-300.99 1020.92,-288.97 1007.52,-280.12"/>
</g>
<!-- c2 -->
<g id="node10" class="node">
<title>c2</title>
<g id="a_node10"><a xlink:href="https://github.com/phaidra/phaidra-api" xlink:title="phaidra&#45;api\n(general transmitter)">
<polygon fill="none" stroke="green" points="768.09,-354 600.09,-354 600.09,-350 596.09,-350 596.09,-346 600.09,-346 600.09,-324 596.09,-324 596.09,-320 600.09,-320 600.09,-316 768.09,-316 768.09,-354"/>
<polyline fill="none" stroke="green" points="600.09,-350 604.09,-350 604.09,-346 600.09,-346 "/>
<polyline fill="none" stroke="green" points="600.09,-324 604.09,-324 604.09,-320 600.09,-320 "/>
<text text-anchor="middle" x="684.09" y="-338.8" font-family="Times,serif" font-size="14.00">phaidra&#45;api</text>
<text text-anchor="middle" x="684.09" y="-323.8" font-family="Times,serif" font-size="14.00">(general transmitter)</text>
</a>
</g>
</g>
<!-- c1&#45;&#45;c2 -->
<g id="edge1" class="edge">
<title>c1&#45;&#45;c2</title>
<path fill="none" stroke="green" d="M645.21,-389.83C653.03,-379 662.94,-365.29 670.79,-354.41"/>
</g>
<!-- c1&#45;&#45;c3 -->
<g id="edge8" class="edge">
<title>c1&#45;&#45;c3</title>
<path fill="none" stroke="green" d="M617.37,-389.98C609.24,-379.7 599.18,-366.43 591.09,-354 580.56,-337.83 585.94,-327 570.09,-316 480.76,-253.99 435.19,-298.78 328.09,-280 324.83,-279.43 321.5,-278.83 318.15,-278.21"/>
</g>
<!-- c2&#45;&#45;a1 -->
<g id="edge24" class="edge">
<title>c2&#45;&#45;a1</title>
<path fill="none" stroke="red" d="M599.83,-319.98C589.82,-318.53 579.74,-317.16 570.09,-316 521.94,-310.21 172.63,-310.71 135.09,-280 111.26,-260.51 94.59,-167 88.57,-128.07"/>
</g>
<!-- c2&#45;&#45;a2 -->
<g id="edge28" class="edge">
<title>c2&#45;&#45;a2</title>
<path fill="none" stroke="magenta" d="M599.83,-320.01C589.82,-318.55 579.73,-317.17 570.09,-316 523.7,-310.35 182.68,-314.43 151.09,-280 106.81,-231.76 186.11,-165.56 234.21,-132.14"/>
</g>
<!-- c2&#45;&#45;c3 -->
<g id="edge2" class="edge">
<title>c2&#45;&#45;c3</title>
<path fill="none" stroke="green" d="M599.93,-318.31C595.25,-317.51 590.61,-316.74 586.09,-316 473.55,-297.7 444.54,-298.84 332.09,-280 327.55,-279.24 322.89,-278.43 318.19,-277.59"/>
</g>
<!-- c2&#45;&#45;c4 -->
<g id="edge3" class="edge">
<title>c2&#45;&#45;c4</title>
<path fill="none" stroke="green" d="M614.78,-315.9C575.04,-305.49 524.24,-292.1 479.09,-280 475.99,-279.17 472.81,-278.31 469.6,-277.45"/>
</g>
<!-- c5 -->
<g id="node13" class="node">
<title>c5</title>
<g id="a_node13"><a xlink:href="https://github.com/phaidra/phaidra-ui" xlink:title="phaidra&#45;ui\n(webinterface)">
<polygon fill="none" stroke="green" points="397.09,-206 277.09,-206 277.09,-202 273.09,-202 273.09,-198 277.09,-198 277.09,-176 273.09,-176 273.09,-172 277.09,-172 277.09,-168 397.09,-168 397.09,-206"/>
<polyline fill="none" stroke="green" points="277.09,-202 281.09,-202 281.09,-198 277.09,-198 "/>
<polyline fill="none" stroke="green" points="277.09,-176 281.09,-176 281.09,-172 277.09,-172 "/>
<text text-anchor="middle" x="337.09" y="-190.8" font-family="Times,serif" font-size="14.00">phaidra&#45;ui</text>
<text text-anchor="middle" x="337.09" y="-175.8" font-family="Times,serif" font-size="14.00">(webinterface)</text>
</a>
</g>
</g>
<!-- c2&#45;&#45;c5 -->
<g id="edge4" class="edge">
<title>c2&#45;&#45;c5</title>
<path fill="none" stroke="green" d="M599.92,-318.36C595.24,-317.55 590.61,-316.76 586.09,-316 533.11,-307.15 384.28,-318.75 347.09,-280 328.4,-260.52 329.93,-226.99 333.2,-206.24"/>
</g>
<!-- c2&#45;&#45;c6 -->
<g id="edge5" class="edge">
<title>c2&#45;&#45;c6</title>
<path fill="none" stroke="green" d="M756.39,-315.92C800.3,-304.95 856.14,-290.99 900,-280.02"/>
</g>
<!-- c2&#45;&#45;c7 -->
<g id="edge10" class="edge">
<title>c2&#45;&#45;c7</title>
<path fill="none" stroke="green" d="M705.28,-315.83C718.02,-304.92 734.17,-291.08 746.9,-280.16"/>
</g>
<!-- c2&#45;&#45;c8 -->
<g id="edge9" class="edge">
<title>c2&#45;&#45;c8</title>
<path fill="none" stroke="green" d="M656.58,-315.83C640.06,-304.92 619.11,-291.08 602.58,-280.16"/>
</g>
<!-- c5&#45;&#45;a1 -->
<g id="edge25" class="edge">
<title>c5&#45;&#45;a1</title>
<path fill="none" stroke="red" d="M295.82,-167.99C288.34,-165.09 280.54,-162.28 273.09,-160 215.75,-142.42 198.61,-148.97 141.09,-132 137.07,-130.81 132.93,-129.47 128.8,-128.05"/>
</g>
<!-- c5&#45;&#45;a2 -->
<g id="edge29" class="edge">
<title>c5&#45;&#45;a2</title>
<path fill="none" stroke="magenta" d="M320.14,-167.84C310.11,-157.09 297.35,-143.42 286.85,-132.18"/>
</g>
<!-- c5&#45;&#45;c1 -->
<g id="edge7" class="edge">
<title>c5&#45;&#45;c1</title>
<path fill="none" stroke="green" d="M397.24,-187.18C519.13,-186.63 790.07,-191.32 865.09,-242 880.9,-252.68 871.88,-266.23 885.09,-280 907.15,-302.99 931.19,-288.39 947.09,-316 955.51,-330.64 957.97,-341.09 947.09,-354 920.71,-385.28 820.16,-398.44 739.66,-403.98"/>
</g>
<!-- c7&#45;&#45;c5 -->
<g id="edge6" class="edge">
<title>c7&#45;&#45;c5</title>
<path fill="none" stroke="green" d="M680.47,-243.48C677.64,-242.97 674.84,-242.48 672.09,-242 576.18,-225.28 464.51,-207.65 397.38,-197.24"/>
</g>
<!-- c9 -->
<g id="node17" class="node">
<title>c9</title>
<polygon fill="none" stroke="green" points="938.09,-354 786.09,-354 786.09,-350 782.09,-350 782.09,-346 786.09,-346 786.09,-324 782.09,-324 782.09,-320 786.09,-320 786.09,-316 938.09,-316 938.09,-354"/>
<polyline fill="none" stroke="green" points="786.09,-350 790.09,-350 790.09,-346 786.09,-346 "/>
<polyline fill="none" stroke="green" points="786.09,-324 790.09,-324 790.09,-320 786.09,-320 "/>
<text text-anchor="middle" x="862.09" y="-338.8" font-family="Times,serif" font-size="14.00">pixelgecko</text>
<text text-anchor="middle" x="862.09" y="-323.8" font-family="Times,serif" font-size="14.00">(image conversion)</text>
</g>
<!-- c9&#45;&#45;c4 -->
<g id="edge12" class="edge">
<title>c9&#45;&#45;c4</title>
<path fill="none" stroke="green" d="M785.69,-317.49C782.79,-316.97 779.91,-316.47 777.09,-316 645.48,-294.16 610.01,-305.62 479.09,-280 476.06,-279.41 472.96,-278.75 469.85,-278.04"/>
</g>
<!-- c9&#45;&#45;c8 -->
<g id="edge11" class="edge">
<title>c9&#45;&#45;c8</title>
<path fill="none" stroke="green" d="M790.04,-315.92C746.37,-304.97 690.84,-291.04 647.17,-280.08"/>
</g>
<!-- c10 -->
<g id="node18" class="node">
<title>c10</title>
<polygon fill="none" stroke="green" points="561.59,-354 340.59,-354 340.59,-350 336.59,-350 336.59,-346 340.59,-346 340.59,-324 336.59,-324 336.59,-320 340.59,-320 340.59,-316 561.59,-316 561.59,-354"/>
<polyline fill="none" stroke="green" points="340.59,-350 344.59,-350 344.59,-346 340.59,-346 "/>
<polyline fill="none" stroke="green" points="340.59,-324 344.59,-324 344.59,-320 340.59,-320 "/>
<text text-anchor="middle" x="451.09" y="-338.8" font-family="Times,serif" font-size="14.00">dbgate</text>
<text text-anchor="middle" x="451.09" y="-323.8" font-family="Times,serif" font-size="14.00">(webinterface for databases)</text>
</g>
<!-- c10&#45;&#45;a1 -->
<g id="edge26" class="edge">
<title>c10&#45;&#45;a1</title>
<path fill="none" stroke="red" d="M340.2,-317.17C241.78,-302.11 113.16,-282.09 111.09,-280 70.41,-238.89 77.2,-162.35 82.74,-128.21"/>
</g>
<!-- c10&#45;&#45;a2 -->
<g id="edge30" class="edge">
<title>c10&#45;&#45;a2</title>
<path fill="none" stroke="magenta" d="M340.37,-316.71C250.99,-302.49 139.5,-284.05 136.09,-280 101.71,-239.23 105.69,-203.82 136.09,-160 147.16,-144.04 164.1,-133.27 182.17,-126"/>
</g>
<!-- c10&#45;&#45;c3 -->
<g id="edge13" class="edge">
<title>c10&#45;&#45;c3</title>
<path fill="none" stroke="green" d="M397.86,-315.92C365.61,-304.97 324.59,-291.04 292.33,-280.08"/>
</g>
<!-- c10&#45;&#45;c4 -->
<g id="edge14" class="edge">
<title>c10&#45;&#45;c4</title>
<path fill="none" stroke="green" d="M441.5,-315.83C435.78,-305 428.55,-291.29 422.81,-280.41"/>
</g>
<!-- c11 -->
<g id="node19" class="node">
<title>c11</title>
<polygon fill="none" stroke="green" points="399.09,-428 243.09,-428 243.09,-424 239.09,-424 239.09,-420 243.09,-420 243.09,-398 239.09,-398 239.09,-394 243.09,-394 243.09,-390 399.09,-390 399.09,-428"/>
<polyline fill="none" stroke="green" points="243.09,-424 247.09,-424 247.09,-420 243.09,-420 "/>
<polyline fill="none" stroke="green" points="243.09,-398 247.09,-398 247.09,-394 243.09,-394 "/>
<text text-anchor="middle" x="321.09" y="-412.8" font-family="Times,serif" font-size="14.00">openldap</text>
<text text-anchor="middle" x="321.09" y="-397.8" font-family="Times,serif" font-size="14.00">(user management)</text>
</g>
<!-- c11&#45;&#45;c2 -->
<g id="edge16" class="edge">
<title>c11&#45;&#45;c2</title>
<path fill="none" stroke="green" d="M399.41,-392.47C458.49,-380.75 539.43,-364.69 599.9,-352.7"/>
</g>
<!-- c12 -->
<g id="node20" class="node">
<title>c12</title>
<polygon fill="none" stroke="green" points="322.59,-354 107.59,-354 107.59,-350 103.59,-350 103.59,-346 107.59,-346 107.59,-324 103.59,-324 103.59,-320 107.59,-320 107.59,-316 322.59,-316 322.59,-354"/>
<polyline fill="none" stroke="green" points="107.59,-350 111.59,-350 111.59,-346 107.59,-346 "/>
<polyline fill="none" stroke="green" points="107.59,-324 111.59,-324 111.59,-320 107.59,-320 "/>
<text text-anchor="middle" x="215.09" y="-338.8" font-family="Times,serif" font-size="14.00">Ldap Account Manager</text>
<text text-anchor="middle" x="215.09" y="-323.8" font-family="Times,serif" font-size="14.00">(webinterface for openldap)</text>
</g>
<!-- c11&#45;&#45;c12 -->
<g id="edge15" class="edge">
<title>c11&#45;&#45;c12</title>
<path fill="none" stroke="green" d="M294.34,-389.83C278.27,-378.92 257.89,-365.08 241.83,-354.16"/>
</g>
<!-- c12&#45;&#45;a1 -->
<g id="edge27" class="edge">
<title>c12&#45;&#45;a1</title>
<path fill="none" stroke="red" d="M107.32,-317.52C87.24,-309.45 68.65,-297.54 56.09,-280 25.03,-236.65 41.62,-211.33 56.09,-160 59.33,-148.48 66.13,-136.99 72.43,-128.04"/>
</g>
<!-- c12&#45;&#45;a2 -->
<g id="edge31" class="edge">
<title>c12&#45;&#45;a2</title>
<path fill="none" stroke="magenta" d="M141.33,-315.89C123.55,-307.88 106.66,-296.4 96.09,-280 67.2,-235.17 63.99,-202.59 96.09,-160 107.01,-145.51 143.93,-134 180.68,-125.79"/>
</g>
</g>
</svg>
