<?xml version="1.0" encoding="UTF-8" standalone="no"?>
<!DOCTYPE svg PUBLIC "-//W3C//DTD SVG 1.1//EN"
 "http://www.w3.org/Graphics/SVG/1.1/DTD/svg11.dtd">
<!-- Generated by graphviz version 2.43.0 (0)
 -->
<!-- Title: G Pages: 1 -->
<svg width="3281pt" height="575pt"
 viewBox="0.00 0.00 3280.86 575.00" xmlns="http://www.w3.org/2000/svg" xmlns:xlink="http://www.w3.org/1999/xlink">
<g id="graph0" class="graph" transform="scale(1 1) rotate(0) translate(4 571)">
<title>G</title>
<polygon fill="white" stroke="transparent" points="-4,4 -4,-571 3276.86,-571 3276.86,4 -4,4"/>
<g id="clust1" class="cluster">
<title>cluster_host</title>
<polygon fill="none" stroke="red" points="209.86,-8 209.86,-559 3264.86,-559 3264.86,-8 209.86,-8"/>
<text text-anchor="middle" x="1737.36" y="-543.8" font-family="Times,serif" font-size="14.00">PHAIDRA server firewall</text>
</g>
<g id="clust2" class="cluster">
<title>cluster_host_storage</title>
<polygon fill="none" stroke="blue" points="431.86,-453 431.86,-528 3256.86,-528 3256.86,-453 431.86,-453"/>
<text text-anchor="middle" x="1844.36" y="-512.8" font-family="Times,serif" font-size="14.00">PHAIDRA server mounted directories</text>
</g>
<g id="clust3" class="cluster">
<title>cluster_docker_network_host</title>
<polygon fill="none" stroke="green" points="574.86,-16 574.86,-445 3171.86,-445 3171.86,-16 574.86,-16"/>
<text text-anchor="middle" x="1873.36" y="-429.8" font-family="Times,serif" font-size="14.00">PHAIDRA docker network</text>
</g>
<g id="clust4" class="cluster">
<title>cluster_docker_phaidra_system</title>
<polygon fill="none" stroke="green" points="1373.86,-24 1373.86,-331 2146.86,-331 2146.86,-24 1373.86,-24"/>
<text text-anchor="middle" x="1760.36" y="-315.8" font-family="Times,serif" font-size="14.00">PHAIDRA container system</text>
</g>
<g id="clust5" class="cluster">
<title>cluster_docker_network_volumes</title>
<polygon fill="none" stroke="green" points="582.86,-339 582.86,-414 3163.86,-414 3163.86,-339 582.86,-339"/>
<text text-anchor="middle" x="1873.36" y="-398.8" font-family="Times,serif" font-size="14.00">PHAIDRA container volumes</text>
</g>
<!-- USER -->
<g id="node1" class="node">
<title>USER</title>
<polygon fill="none" stroke="black" points="193.59,-122.54 193.59,-137.46 139.27,-148 62.45,-148 8.13,-137.46 8.13,-122.54 62.45,-112 139.27,-112 193.59,-122.54"/>
<polygon fill="none" stroke="black" points="197.59,-119.25 197.59,-140.75 139.66,-152 62.07,-152 4.13,-140.75 4.13,-119.25 62.07,-108 139.66,-108 197.59,-119.25"/>
<polygon fill="none" stroke="black" points="201.58,-115.95 201.58,-144.05 140.04,-156 61.68,-156 0.14,-144.05 0.14,-115.95 61.68,-104 140.04,-104 201.58,-115.95"/>
<text text-anchor="middle" x="100.86" y="-126.3" font-family="Times,serif" font-size="14.00">PHAIDRA USER</text>
</g>
<!-- DPS12 -->
<g id="node27" class="node">
<title>DPS12</title>
<polygon fill="none" stroke="green" points="1948.86,-68 1892.86,-68 1892.86,-64 1888.86,-64 1888.86,-60 1892.86,-60 1892.86,-40 1888.86,-40 1888.86,-36 1892.86,-36 1892.86,-32 1948.86,-32 1948.86,-68"/>
<polyline fill="none" stroke="green" points="1892.86,-64 1896.86,-64 1896.86,-60 1892.86,-60 "/>
<polyline fill="none" stroke="green" points="1892.86,-40 1896.86,-40 1896.86,-36 1892.86,-36 "/>
<text text-anchor="middle" x="1920.86" y="-46.3" font-family="Times,serif" font-size="14.00">nginx</text>
</g>
<!-- USER&#45;&#45;DPS12 -->
<g id="edge48" class="edge">
<title>USER&#45;&#45;DPS12</title>
<path fill="none" stroke="red" d="M201.63,-124.68C550.78,-109.72 1698.08,-60.55 1892.69,-52.21"/>
</g>
<!-- ADMIN -->
<g id="node2" class="node">
<title>ADMIN</title>
<polygon fill="none" stroke="magenta" points="418.34,-471.54 418.34,-486.46 360.65,-497 279.07,-497 221.38,-486.46 221.38,-471.54 279.07,-461 360.65,-461 418.34,-471.54"/>
<polygon fill="none" stroke="magenta" points="422.34,-468.21 422.34,-489.79 361.01,-501 278.71,-501 217.38,-489.79 217.38,-468.21 278.71,-457 361.01,-457 422.34,-468.21"/>
<text text-anchor="middle" x="319.86" y="-475.3" font-family="Times,serif" font-size="14.00">Developer/Admin</text>
</g>
<!-- HS1 -->
<g id="node3" class="node">
<title>HS1</title>
<polygon fill="none" stroke="blue" points="1960.86,-497 1957.86,-501 1936.86,-501 1933.86,-497 1808.86,-497 1808.86,-461 1960.86,-461 1960.86,-497"/>
<text text-anchor="middle" x="1884.86" y="-475.3" font-family="Times,serif" font-size="14.00">${FEDORA_DATA}</text>
</g>
<!-- DPV1 -->
<g id="node29" class="node">
<title>DPV1</title>
<polygon fill="none" stroke="green" points="1857.36,-383 1854.36,-387 1833.36,-387 1830.36,-383 1628.36,-383 1628.36,-347 1857.36,-347 1857.36,-383"/>
<text text-anchor="middle" x="1742.86" y="-361.3" font-family="Times,serif" font-size="14.00">/usr/local/tomcat/fcrepo&#45;home</text>
</g>
<!-- HS1&#45;&#45;DPV1 -->
<g id="edge2" class="edge">
<title>HS1&#45;&#45;DPV1</title>
<path fill="none" stroke="blue" d="M1863.29,-460.99C1836.6,-439.94 1791.41,-404.3 1764.63,-383.17"/>
</g>
<!-- HS2 -->
<g id="node4" class="node">
<title>HS2</title>
<polygon fill="none" stroke="blue" points="2218.36,-497 2215.36,-501 2194.36,-501 2191.36,-497 1979.36,-497 1979.36,-461 2218.36,-461 2218.36,-497"/>
<text text-anchor="middle" x="2098.86" y="-475.3" font-family="Times,serif" font-size="14.00">./mariadb_init/phaidradb.sql.gz</text>
</g>
<!-- DPV2 -->
<g id="node30" class="node">
<title>DPV2</title>
<polygon fill="none" stroke="green" points="2211.86,-383 2208.86,-387 2187.86,-387 2184.86,-383 2081.86,-383 2081.86,-347 2211.86,-347 2211.86,-383"/>
<text text-anchor="middle" x="2146.86" y="-361.3" font-family="Times,serif" font-size="14.00">/var/log/phaidra</text>
</g>
<!-- HS2&#45;&#45;DPV2 -->
<g id="edge5" class="edge">
<title>HS2&#45;&#45;DPV2</title>
<path fill="none" stroke="blue" d="M2106.15,-460.99C2115.17,-439.94 2130.45,-404.3 2139.5,-383.17"/>
</g>
<!-- HS3 -->
<g id="node5" class="node">
<title>HS3</title>
<polygon fill="none" stroke="blue" points="1359.86,-497 1356.86,-501 1335.86,-501 1332.86,-497 1107.86,-497 1107.86,-461 1359.86,-461 1359.86,-497"/>
<text text-anchor="middle" x="1233.86" y="-475.3" font-family="Times,serif" font-size="14.00">${FEDORA_DATA}/data/ocfl&#45;root</text>
</g>
<!-- DPV3 -->
<g id="node31" class="node">
<title>DPV3</title>
<polygon fill="none" stroke="green" points="2063.86,-383 2060.86,-387 2039.86,-387 2036.86,-383 1875.86,-383 1875.86,-347 2063.86,-347 2063.86,-383"/>
<text text-anchor="middle" x="1969.86" y="-361.3" font-family="Times,serif" font-size="14.00">/mnt/fedora_ocfl_root:ro</text>
</g>
<!-- HS3&#45;&#45;DPV3 -->
<g id="edge6" class="edge">
<title>HS3&#45;&#45;DPV3</title>
<path fill="none" stroke="blue" d="M1314.09,-460.97C1332.34,-457.74 1351.71,-454.8 1369.86,-453 1397.34,-450.27 1840.78,-454.08 1866.86,-445 1902.61,-432.55 1935.8,-402.42 1954.39,-383.17"/>
</g>
<!-- DPV11 -->
<g id="node39" class="node">
<title>DPV11</title>
<polygon fill="none" stroke="green" points="1355.86,-383 1352.86,-387 1331.86,-387 1328.86,-383 1167.86,-383 1167.86,-347 1355.86,-347 1355.86,-383"/>
<text text-anchor="middle" x="1261.86" y="-361.3" font-family="Times,serif" font-size="14.00">/mnt/fedora_ocfl_root:ro</text>
</g>
<!-- HS3&#45;&#45;DPV11 -->
<g id="edge23" class="edge">
<title>HS3&#45;&#45;DPV11</title>
<path fill="none" stroke="blue" d="M1238.11,-460.99C1243.38,-439.94 1252.29,-404.3 1257.57,-383.17"/>
</g>
<!-- HS4 -->
<g id="node6" class="node">
<title>HS4</title>
<polygon fill="none" stroke="blue" points="2843.36,-497 2840.36,-501 2819.36,-501 2816.36,-497 2604.36,-497 2604.36,-461 2843.36,-461 2843.36,-497"/>
<text text-anchor="middle" x="2723.86" y="-475.3" font-family="Times,serif" font-size="14.00">./mariadb_init/phaidradb.sql.gz</text>
</g>
<!-- DPV4 -->
<g id="node32" class="node">
<title>DPV4</title>
<polygon fill="none" stroke="green" points="2841.86,-383 2838.86,-387 2817.86,-387 2814.86,-383 2489.86,-383 2489.86,-347 2841.86,-347 2841.86,-383"/>
<text text-anchor="middle" x="2665.86" y="-361.3" font-family="Times,serif" font-size="14.00">/docker&#45;entrypoint&#45;initdb.d/phaidradb.sql.gz:ro</text>
</g>
<!-- HS4&#45;&#45;DPV4 -->
<g id="edge9" class="edge">
<title>HS4&#45;&#45;DPV4</title>
<path fill="none" stroke="blue" d="M2715.05,-460.99C2704.15,-439.94 2685.69,-404.3 2674.75,-383.17"/>
</g>
<!-- HS5 -->
<g id="node7" class="node">
<title>HS5</title>
<polygon fill="none" stroke="blue" points="2586.36,-497 2583.36,-501 2562.36,-501 2559.36,-497 2407.36,-497 2407.36,-461 2586.36,-461 2586.36,-497"/>
<text text-anchor="middle" x="2496.86" y="-475.3" font-family="Times,serif" font-size="14.00">${PHAIDRADB_DATA}</text>
</g>
<!-- DPV5 -->
<g id="node33" class="node">
<title>DPV5</title>
<polygon fill="none" stroke="green" points="2471.86,-383 2468.86,-387 2447.86,-387 2444.86,-383 2357.86,-383 2357.86,-347 2471.86,-347 2471.86,-383"/>
<text text-anchor="middle" x="2414.86" y="-361.3" font-family="Times,serif" font-size="14.00">/var/lib/mysql</text>
</g>
<!-- HS5&#45;&#45;DPV5 -->
<g id="edge10" class="edge">
<title>HS5&#45;&#45;DPV5</title>
<path fill="none" stroke="blue" d="M2484.41,-460.99C2468.99,-439.94 2442.9,-404.3 2427.43,-383.17"/>
</g>
<!-- HS6 -->
<g id="node8" class="node">
<title>HS6</title>
<polygon fill="none" stroke="blue" points="1089.36,-497 1086.36,-501 1065.36,-501 1062.36,-497 850.36,-497 850.36,-461 1089.36,-461 1089.36,-497"/>
<text text-anchor="middle" x="969.86" y="-475.3" font-family="Times,serif" font-size="14.00">${MONGOPHAIDRADB_DATA}</text>
</g>
<!-- DPV6 -->
<g id="node34" class="node">
<title>DPV6</title>
<polygon fill="none" stroke="green" points="1149.36,-383 1146.36,-387 1125.36,-387 1122.36,-383 1074.36,-383 1074.36,-347 1149.36,-347 1149.36,-383"/>
<text text-anchor="middle" x="1111.86" y="-361.3" font-family="Times,serif" font-size="14.00">/data/db</text>
</g>
<!-- HS6&#45;&#45;DPV6 -->
<g id="edge12" class="edge">
<title>HS6&#45;&#45;DPV6</title>
<path fill="none" stroke="blue" d="M1038.36,-460.8C1047.85,-456.6 1057.01,-451.4 1064.86,-445 1085.02,-428.56 1098.56,-401.03 1105.74,-383.19"/>
</g>
<!-- HS7 -->
<g id="node9" class="node">
<title>HS7</title>
<polygon fill="none" stroke="blue" points="1790.36,-497 1787.36,-501 1766.36,-501 1763.36,-497 1617.36,-497 1617.36,-461 1790.36,-461 1790.36,-497"/>
<text text-anchor="middle" x="1703.86" y="-475.3" font-family="Times,serif" font-size="14.00">${OPENLDAP_DATA}</text>
</g>
<!-- DPV7 -->
<g id="node35" class="node">
<title>DPV7</title>
<polygon fill="none" stroke="green" points="1609.86,-383 1606.86,-387 1585.86,-387 1582.86,-383 1463.86,-383 1463.86,-347 1609.86,-347 1609.86,-383"/>
<text text-anchor="middle" x="1536.86" y="-361.3" font-family="Times,serif" font-size="14.00">/bitnami/openldap</text>
</g>
<!-- HS7&#45;&#45;DPV7 -->
<g id="edge15" class="edge">
<title>HS7&#45;&#45;DPV7</title>
<path fill="none" stroke="blue" d="M1651.24,-460.95C1640.48,-456.47 1629.51,-451.15 1619.86,-445 1592.69,-427.68 1566.67,-400.64 1551.22,-383.12"/>
</g>
<!-- HS8 -->
<g id="node10" class="node">
<title>HS8</title>
<polygon fill="none" stroke="blue" points="1599.36,-497 1596.36,-501 1575.36,-501 1572.36,-497 1378.36,-497 1378.36,-461 1599.36,-461 1599.36,-497"/>
<text text-anchor="middle" x="1488.86" y="-475.3" font-family="Times,serif" font-size="14.00">./container_configs/openldap</text>
</g>
<!-- DPV8 -->
<g id="node36" class="node">
<title>DPV8</title>
<polygon fill="none" stroke="green" points="1445.36,-383 1442.36,-387 1421.36,-387 1418.36,-383 1374.36,-383 1374.36,-347 1445.36,-347 1445.36,-383"/>
<text text-anchor="middle" x="1409.86" y="-361.3" font-family="Times,serif" font-size="14.00">/ldifs:ro</text>
</g>
<!-- HS8&#45;&#45;DPV8 -->
<g id="edge16" class="edge">
<title>HS8&#45;&#45;DPV8</title>
<path fill="none" stroke="blue" d="M1469.17,-460.73C1464.21,-455.89 1459.09,-450.46 1454.86,-445 1439.59,-425.28 1426.03,-399.81 1417.88,-383.2"/>
</g>
<!-- HS9 -->
<g id="node11" class="node">
<title>HS9</title>
<polygon fill="none" stroke="blue" points="831.86,-497 828.86,-501 807.86,-501 804.86,-497 701.86,-497 701.86,-461 831.86,-461 831.86,-497"/>
<text text-anchor="middle" x="766.86" y="-475.3" font-family="Times,serif" font-size="14.00">${SOLR_DATA}</text>
</g>
<!-- DPV9 -->
<g id="node37" class="node">
<title>DPV9</title>
<polygon fill="none" stroke="green" points="1055.86,-383 1052.86,-387 1031.86,-387 1028.86,-383 979.86,-383 979.86,-347 1055.86,-347 1055.86,-383"/>
<text text-anchor="middle" x="1017.86" y="-361.3" font-family="Times,serif" font-size="14.00">/var/solr</text>
</g>
<!-- HS9&#45;&#45;DPV9 -->
<g id="edge18" class="edge">
<title>HS9&#45;&#45;DPV9</title>
<path fill="none" stroke="blue" d="M811.57,-461C821.42,-457.84 831.89,-454.94 841.86,-453 870.06,-447.52 946.35,-459.96 970.86,-445 993.47,-431.2 1006.52,-402.08 1012.9,-383.31"/>
</g>
<!-- HS10 -->
<g id="node12" class="node">
<title>HS10</title>
<polygon fill="none" stroke="blue" points="683.86,-497 680.86,-501 659.86,-501 656.86,-497 439.86,-497 439.86,-461 683.86,-461 683.86,-497"/>
<text text-anchor="middle" x="561.86" y="-475.3" font-family="Times,serif" font-size="14.00">${PIXELGECKO_CONVERTED}</text>
</g>
<!-- DPV10 -->
<g id="node38" class="node">
<title>DPV10</title>
<polygon fill="none" stroke="green" points="961.36,-383 958.36,-387 937.36,-387 934.36,-383 758.36,-383 758.36,-347 961.36,-347 961.36,-383"/>
<text text-anchor="middle" x="859.86" y="-361.3" font-family="Times,serif" font-size="14.00">/mnt/converted_images:ro</text>
</g>
<!-- HS10&#45;&#45;DPV10 -->
<g id="edge20" class="edge">
<title>HS10&#45;&#45;DPV10</title>
<path fill="none" stroke="blue" d="M647.72,-460.99C662.74,-458.19 678.24,-455.42 692.86,-453 718.1,-448.82 726.12,-454.52 749.86,-445 786.09,-430.48 821.59,-401.57 842.07,-383.04"/>
</g>
<!-- DPV12 -->
<g id="node40" class="node">
<title>DPV12</title>
<polygon fill="none" stroke="green" points="740.86,-383 737.86,-387 716.86,-387 713.86,-383 590.86,-383 590.86,-347 740.86,-347 740.86,-383"/>
<text text-anchor="middle" x="665.86" y="-361.3" font-family="Times,serif" font-size="14.00">/converted_images</text>
</g>
<!-- HS10&#45;&#45;DPV12 -->
<g id="edge24" class="edge">
<title>HS10&#45;&#45;DPV12</title>
<path fill="none" stroke="blue" d="M577.66,-460.99C597.2,-439.94 630.3,-404.3 649.92,-383.17"/>
</g>
<!-- HS13 -->
<g id="node13" class="node">
<title>HS13</title>
<polygon fill="none" stroke="blue" points="2388.86,-497 2385.86,-501 2364.86,-501 2361.86,-497 2236.86,-497 2236.86,-461 2388.86,-461 2388.86,-497"/>
<text text-anchor="middle" x="2312.86" y="-475.3" font-family="Times,serif" font-size="14.00">${DBGATE_DATA}</text>
</g>
<!-- DPV13 -->
<g id="node41" class="node">
<title>DPV13</title>
<polygon fill="none" stroke="green" points="2339.36,-383 2336.36,-387 2315.36,-387 2312.36,-383 2230.36,-383 2230.36,-347 2339.36,-347 2339.36,-383"/>
<text text-anchor="middle" x="2284.86" y="-361.3" font-family="Times,serif" font-size="14.00">/root/.dbgate</text>
</g>
<!-- HS13&#45;&#45;DPV13 -->
<g id="edge26" class="edge">
<title>HS13&#45;&#45;DPV13</title>
<path fill="none" stroke="blue" d="M2308.61,-460.99C2303.35,-439.94 2294.43,-404.3 2289.15,-383.17"/>
</g>
<!-- HS14 -->
<g id="node14" class="node">
<title>HS14</title>
<polygon fill="none" stroke="blue" points="3249.36,-497 3246.36,-501 3225.36,-501 3222.36,-497 3054.36,-497 3054.36,-461 3249.36,-461 3249.36,-497"/>
<text text-anchor="middle" x="3151.86" y="-475.3" font-family="Times,serif" font-size="14.00">./container_configs/nginx</text>
</g>
<!-- DPV14 -->
<g id="node42" class="node">
<title>DPV14</title>
<polygon fill="none" stroke="green" points="3155.36,-383 3152.36,-387 3131.36,-387 3128.36,-383 2992.36,-383 2992.36,-347 3155.36,-347 3155.36,-383"/>
<text text-anchor="middle" x="3073.86" y="-361.3" font-family="Times,serif" font-size="14.00">/etc/nginx/templates</text>
</g>
<!-- HS14&#45;&#45;DPV14 -->
<g id="edge28" class="edge">
<title>HS14&#45;&#45;DPV14</title>
<path fill="none" stroke="blue" d="M3140.01,-460.99C3125.35,-439.94 3100.53,-404.3 3085.82,-383.17"/>
</g>
<!-- HS15 -->
<g id="node15" class="node">
<title>HS15</title>
<polygon fill="none" stroke="blue" points="3035.86,-497 3032.86,-501 3011.86,-501 3008.86,-497 2861.86,-497 2861.86,-461 3035.86,-461 3035.86,-497"/>
<text text-anchor="middle" x="2948.86" y="-475.3" font-family="Times,serif" font-size="14.00">${FEDORADB_DATA}</text>
</g>
<!-- DPV15 -->
<g id="node43" class="node">
<title>DPV15</title>
<polygon fill="none" stroke="green" points="2973.86,-383 2970.86,-387 2949.86,-387 2946.86,-383 2859.86,-383 2859.86,-347 2973.86,-347 2973.86,-383"/>
<text text-anchor="middle" x="2916.86" y="-361.3" font-family="Times,serif" font-size="14.00">/var/lib/mysql</text>
</g>
<!-- HS15&#45;&#45;DPV15 -->
<g id="edge30" class="edge">
<title>HS15&#45;&#45;DPV15</title>
<path fill="none" stroke="blue" d="M2944,-460.99C2937.99,-439.94 2927.8,-404.3 2921.77,-383.17"/>
</g>
<!-- DPS1 -->
<g id="node16" class="node">
<title>DPS1</title>
<g id="a_node16"><a xlink:href="https://fedora.lyrasis.org/" xlink:title="fedora">
<polygon fill="none" stroke="green" points="1744.86,-228 1682.86,-228 1682.86,-224 1678.86,-224 1678.86,-220 1682.86,-220 1682.86,-200 1678.86,-200 1678.86,-196 1682.86,-196 1682.86,-192 1744.86,-192 1744.86,-228"/>
<polyline fill="none" stroke="green" points="1682.86,-224 1686.86,-224 1686.86,-220 1682.86,-220 "/>
<polyline fill="none" stroke="green" points="1682.86,-200 1686.86,-200 1686.86,-196 1682.86,-196 "/>
<text text-anchor="middle" x="1713.86" y="-206.3" font-family="Times,serif" font-size="14.00">fedora</text>
</a>
</g>
</g>
<!-- DPS13 -->
<g id="node28" class="node">
<title>DPS13</title>
<g id="a_node28"><a xlink:href="https://mariadb.org/" xlink:title="mariadb&#45;fedora">
<polygon fill="none" stroke="green" points="2108.86,-148 1982.86,-148 1982.86,-144 1978.86,-144 1978.86,-140 1982.86,-140 1982.86,-120 1978.86,-120 1978.86,-116 1982.86,-116 1982.86,-112 2108.86,-112 2108.86,-148"/>
<polyline fill="none" stroke="green" points="1982.86,-144 1986.86,-144 1986.86,-140 1982.86,-140 "/>
<polyline fill="none" stroke="green" points="1982.86,-120 1986.86,-120 1986.86,-116 1982.86,-116 "/>
<text text-anchor="middle" x="2045.86" y="-126.3" font-family="Times,serif" font-size="14.00">mariadb&#45;fedora</text>
</a>
</g>
</g>
<!-- DPS1&#45;&#45;DPS13 -->
<g id="edge31" class="edge">
<title>DPS1&#45;&#45;DPS13</title>
<path fill="none" stroke="orange" d="M1745.08,-195.02C1748.02,-193.92 1750.98,-192.89 1753.86,-192 1831.81,-167.92 1854.04,-172.89 1933.86,-156 1949.75,-152.64 1966.87,-148.88 1982.83,-145.33"/>
</g>
<!-- DPS2 -->
<g id="node17" class="node">
<title>DPS2</title>
<g id="a_node17"><a xlink:href="https://github.com/phaidra/phaidra-api" xlink:title="api">
<polygon fill="none" stroke="green" points="1919.86,-300 1865.86,-300 1865.86,-296 1861.86,-296 1861.86,-292 1865.86,-292 1865.86,-272 1861.86,-272 1861.86,-268 1865.86,-268 1865.86,-264 1919.86,-264 1919.86,-300"/>
<polyline fill="none" stroke="green" points="1865.86,-296 1869.86,-296 1869.86,-292 1865.86,-292 "/>
<polyline fill="none" stroke="green" points="1865.86,-272 1869.86,-272 1869.86,-268 1865.86,-268 "/>
<text text-anchor="middle" x="1892.86" y="-278.3" font-family="Times,serif" font-size="14.00">api</text>
</a>
</g>
</g>
<!-- DPS2&#45;&#45;DPS1 -->
<g id="edge32" class="edge">
<title>DPS2&#45;&#45;DPS1</title>
<path fill="none" stroke="orange" d="M1865.84,-271.04C1837.74,-260.6 1792.55,-243.59 1753.86,-228 1751.06,-226.87 1748.16,-225.68 1745.26,-224.48"/>
</g>
<!-- DPS3 -->
<g id="node18" class="node">
<title>DPS3</title>
<g id="a_node18"><a xlink:href="https://mariadb.org/" xlink:title="mariadb&#45;phaidra">
<polygon fill="none" stroke="green" points="2138.36,-228 2003.36,-228 2003.36,-224 1999.36,-224 1999.36,-220 2003.36,-220 2003.36,-200 1999.36,-200 1999.36,-196 2003.36,-196 2003.36,-192 2138.36,-192 2138.36,-228"/>
<polyline fill="none" stroke="green" points="2003.36,-224 2007.36,-224 2007.36,-220 2003.36,-220 "/>
<polyline fill="none" stroke="green" points="2003.36,-200 2007.36,-200 2007.36,-196 2003.36,-196 "/>
<text text-anchor="middle" x="2070.86" y="-206.3" font-family="Times,serif" font-size="14.00">mariadb&#45;phaidra</text>
</a>
</g>
</g>
<!-- DPS2&#45;&#45;DPS3 -->
<g id="edge33" class="edge">
<title>DPS2&#45;&#45;DPS3</title>
<path fill="none" stroke="orange" d="M1919.9,-270.37C1948.49,-259.12 1994.02,-241.22 2027.61,-228.01"/>
</g>
<!-- DPS4 -->
<g id="node19" class="node">
<title>DPS4</title>
<g id="a_node19"><a xlink:href="https://www.mongodb.com/" xlink:title="mongodb&#45;phaidra">
<polygon fill="none" stroke="green" points="1904.86,-228 1762.86,-228 1762.86,-224 1758.86,-224 1758.86,-220 1762.86,-220 1762.86,-200 1758.86,-200 1758.86,-196 1762.86,-196 1762.86,-192 1904.86,-192 1904.86,-228"/>
<polyline fill="none" stroke="green" points="1762.86,-224 1766.86,-224 1766.86,-220 1762.86,-220 "/>
<polyline fill="none" stroke="green" points="1762.86,-200 1766.86,-200 1766.86,-196 1762.86,-196 "/>
<text text-anchor="middle" x="1833.86" y="-206.3" font-family="Times,serif" font-size="14.00">mongodb&#45;phaidra</text>
</a>
</g>
</g>
<!-- DPS2&#45;&#45;DPS4 -->
<g id="edge34" class="edge">
<title>DPS2&#45;&#45;DPS4</title>
<path fill="none" stroke="orange" d="M1878.28,-263.7C1869.13,-252.85 1857.39,-238.92 1848.28,-228.1"/>
</g>
<!-- DPS5 -->
<g id="node20" class="node">
<title>DPS5</title>
<g id="a_node20"><a xlink:href="https://github.com/phaidra/phaidra-ui" xlink:title="ui">
<polygon fill="none" stroke="green" points="1924.86,-148 1870.86,-148 1870.86,-144 1866.86,-144 1866.86,-140 1870.86,-140 1870.86,-120 1866.86,-120 1866.86,-116 1870.86,-116 1870.86,-112 1924.86,-112 1924.86,-148"/>
<polyline fill="none" stroke="green" points="1870.86,-144 1874.86,-144 1874.86,-140 1870.86,-140 "/>
<polyline fill="none" stroke="green" points="1870.86,-120 1874.86,-120 1874.86,-116 1870.86,-116 "/>
<text text-anchor="middle" x="1897.86" y="-126.3" font-family="Times,serif" font-size="14.00">ui</text>
</a>
</g>
</g>
<!-- DPS2&#45;&#45;DPS5 -->
<g id="edge35" class="edge">
<title>DPS2&#45;&#45;DPS5</title>
<path fill="none" stroke="orange" d="M1901.58,-263.83C1906.24,-253.69 1911.49,-240.44 1913.86,-228 1919.17,-200.17 1910.87,-167.65 1904.37,-148.22"/>
</g>
<!-- DPS6 -->
<g id="node21" class="node">
<title>DPS6</title>
<g id="a_node21"><a xlink:href="https://www.openldap.org/" xlink:title="openldap">
<polygon fill="none" stroke="green" points="1664.86,-228 1582.86,-228 1582.86,-224 1578.86,-224 1578.86,-220 1582.86,-220 1582.86,-200 1578.86,-200 1578.86,-196 1582.86,-196 1582.86,-192 1664.86,-192 1664.86,-228"/>
<polyline fill="none" stroke="green" points="1582.86,-224 1586.86,-224 1586.86,-220 1582.86,-220 "/>
<polyline fill="none" stroke="green" points="1582.86,-200 1586.86,-200 1586.86,-196 1582.86,-196 "/>
<text text-anchor="middle" x="1623.86" y="-206.3" font-family="Times,serif" font-size="14.00">openldap</text>
</a>
</g>
</g>
<!-- DPS2&#45;&#45;DPS6 -->
<g id="edge36" class="edge">
<title>DPS2&#45;&#45;DPS6</title>
<path fill="none" stroke="orange" d="M1865.68,-275.25C1824.08,-266.27 1742.23,-247.85 1673.86,-228 1670.96,-227.16 1667.97,-226.25 1664.97,-225.3"/>
</g>
<!-- DPS7 -->
<g id="node22" class="node">
<title>DPS7</title>
<g id="a_node22"><a xlink:href="https://solr.apache.org/" xlink:title="solr">
<polygon fill="none" stroke="green" points="1564.86,-228 1510.86,-228 1510.86,-224 1506.86,-224 1506.86,-220 1510.86,-220 1510.86,-200 1506.86,-200 1506.86,-196 1510.86,-196 1510.86,-192 1564.86,-192 1564.86,-228"/>
<polyline fill="none" stroke="green" points="1510.86,-224 1514.86,-224 1514.86,-220 1510.86,-220 "/>
<polyline fill="none" stroke="green" points="1510.86,-200 1514.86,-200 1514.86,-196 1510.86,-196 "/>
<text text-anchor="middle" x="1537.86" y="-206.3" font-family="Times,serif" font-size="14.00">solr</text>
</a>
</g>
</g>
<!-- DPS2&#45;&#45;DPS7 -->
<g id="edge37" class="edge">
<title>DPS2&#45;&#45;DPS7</title>
<path fill="none" stroke="orange" d="M1865.81,-279.04C1810.08,-274.45 1678.89,-260.82 1573.86,-228 1570.96,-227.09 1567.99,-226 1565.06,-224.8"/>
</g>
<!-- DPS8 -->
<g id="node23" class="node">
<title>DPS8</title>
<g id="a_node23"><a xlink:href="https://github.com/ruven/iipsrv" xlink:title="imageserver)">
<polygon fill="none" stroke="green" points="1492.36,-228 1381.36,-228 1381.36,-224 1377.36,-224 1377.36,-220 1381.36,-220 1381.36,-200 1377.36,-200 1377.36,-196 1381.36,-196 1381.36,-192 1492.36,-192 1492.36,-228"/>
<polyline fill="none" stroke="green" points="1381.36,-224 1385.36,-224 1385.36,-220 1381.36,-220 "/>
<polyline fill="none" stroke="green" points="1381.36,-200 1385.36,-200 1385.36,-196 1381.36,-196 "/>
<text text-anchor="middle" x="1436.86" y="-206.3" font-family="Times,serif" font-size="14.00">imageserver)</text>
</a>
</g>
</g>
<!-- DPS2&#45;&#45;DPS8 -->
<g id="edge38" class="edge">
<title>DPS2&#45;&#45;DPS8</title>
<path fill="none" stroke="orange" d="M1865.65,-278.46C1801.76,-272.24 1637.27,-254.78 1501.86,-228 1498.77,-227.39 1495.61,-226.72 1492.43,-226.01"/>
</g>
<!-- DPS2&#45;&#45;DPS12 -->
<g id="edge39" class="edge">
<title>DPS2&#45;&#45;DPS12</title>
<path fill="none" stroke="orange" d="M1902.67,-263.81C1908.1,-253.66 1914.6,-240.41 1918.86,-228 1936.89,-175.5 1940.52,-159.11 1933.86,-104 1932.41,-91.96 1929.16,-78.71 1926.27,-68.47"/>
</g>
<!-- DPS9 -->
<g id="node24" class="node">
<title>DPS9</title>
<polygon fill="none" stroke="green" points="1473.86,-148 1381.86,-148 1381.86,-144 1377.86,-144 1377.86,-140 1381.86,-140 1381.86,-120 1377.86,-120 1377.86,-116 1381.86,-116 1381.86,-112 1473.86,-112 1473.86,-148"/>
<polyline fill="none" stroke="green" points="1381.86,-144 1385.86,-144 1385.86,-140 1381.86,-140 "/>
<polyline fill="none" stroke="green" points="1381.86,-120 1385.86,-120 1385.86,-116 1381.86,-116 "/>
<text text-anchor="middle" x="1427.86" y="-126.3" font-family="Times,serif" font-size="14.00">pixelgecko</text>
</g>
<!-- DPS4&#45;&#45;DPS9 -->
<g id="edge40" class="edge">
<title>DPS4&#45;&#45;DPS9</title>
<path fill="none" stroke="orange" d="M1762.78,-193.8C1759.77,-193.19 1756.79,-192.58 1753.86,-192 1654.34,-172.12 1537.33,-150.7 1474.09,-139.28"/>
</g>
<!-- DPS5&#45;&#45;DPS12 -->
<g id="edge41" class="edge">
<title>DPS5&#45;&#45;DPS12</title>
<path fill="none" stroke="orange" d="M1902.97,-111.69C1906.78,-98.76 1911.96,-81.18 1915.77,-68.26"/>
</g>
<!-- DPS11 -->
<g id="node26" class="node">
<title>DPS11</title>
<polygon fill="none" stroke="green" points="1751.86,-148 1697.86,-148 1697.86,-144 1693.86,-144 1693.86,-140 1697.86,-140 1697.86,-120 1693.86,-120 1693.86,-116 1697.86,-116 1697.86,-112 1751.86,-112 1751.86,-148"/>
<polyline fill="none" stroke="green" points="1697.86,-144 1701.86,-144 1701.86,-140 1697.86,-140 "/>
<polyline fill="none" stroke="green" points="1697.86,-120 1701.86,-120 1701.86,-116 1697.86,-116 "/>
<text text-anchor="middle" x="1724.86" y="-126.3" font-family="Times,serif" font-size="14.00">lam</text>
</g>
<!-- DPS6&#45;&#45;DPS11 -->
<g id="edge42" class="edge">
<title>DPS6&#45;&#45;DPS11</title>
<path fill="none" stroke="orange" d="M1646.28,-191.69C1663.01,-178.76 1685.79,-161.18 1702.51,-148.26"/>
</g>
<!-- DPS10 -->
<g id="node25" class="node">
<title>DPS10</title>
<polygon fill="none" stroke="green" points="2016.86,-300 1950.86,-300 1950.86,-296 1946.86,-296 1946.86,-292 1950.86,-292 1950.86,-272 1946.86,-272 1946.86,-268 1950.86,-268 1950.86,-264 2016.86,-264 2016.86,-300"/>
<polyline fill="none" stroke="green" points="1950.86,-296 1954.86,-296 1954.86,-292 1950.86,-292 "/>
<polyline fill="none" stroke="green" points="1950.86,-272 1954.86,-272 1954.86,-268 1950.86,-268 "/>
<text text-anchor="middle" x="1983.86" y="-278.3" font-family="Times,serif" font-size="14.00">dbgate</text>
</g>
<!-- DPS10&#45;&#45;DPS3 -->
<g id="edge43" class="edge">
<title>DPS10&#45;&#45;DPS3</title>
<path fill="none" stroke="orange" d="M2005.37,-263.7C2018.85,-252.85 2036.16,-238.92 2049.6,-228.1"/>
</g>
<!-- DPS10&#45;&#45;DPS4 -->
<g id="edge44" class="edge">
<title>DPS10&#45;&#45;DPS4</title>
<path fill="none" stroke="orange" d="M1950.57,-265.46C1926.84,-254.39 1894.93,-239.5 1870.47,-228.09"/>
</g>
<!-- DPS10&#45;&#45;DPS12 -->
<g id="edge46" class="edge">
<title>DPS10&#45;&#45;DPS12</title>
<path fill="none" stroke="orange" d="M1980.18,-263.76C1973.25,-231.92 1957.38,-161.89 1939.86,-104 1936.18,-91.84 1931.34,-78.36 1927.46,-68.04"/>
</g>
<!-- DPS10&#45;&#45;DPS13 -->
<g id="edge45" class="edge">
<title>DPS10&#45;&#45;DPS13</title>
<path fill="none" stroke="orange" d="M1983.16,-263.85C1983.04,-245.36 1984.69,-215.42 1994.86,-192 2002.17,-175.16 2015.65,-159.35 2026.92,-148.05"/>
</g>
<!-- DPS11&#45;&#45;DPS12 -->
<g id="edge47" class="edge">
<title>DPS11&#45;&#45;DPS12</title>
<path fill="none" stroke="orange" d="M1752.11,-118.15C1789.14,-103.42 1855.01,-77.2 1892.57,-62.26"/>
</g>
<!-- DPV1&#45;&#45;DPS1 -->
<g id="edge1" class="edge">
<title>DPV1&#45;&#45;DPS1</title>
<path fill="none" stroke="green" d="M1739.59,-346.75C1734.02,-317.36 1722.76,-257.93 1717.16,-228.43"/>
</g>
<!-- DPV2&#45;&#45;DPS2 -->
<g id="edge3" class="edge">
<title>DPV2&#45;&#45;DPS2</title>
<path fill="none" stroke="green" d="M2102.77,-346.98C2093.05,-343.83 2082.71,-340.93 2072.86,-339 2044.24,-333.39 1968.51,-342.84 1941.86,-331 1927.06,-324.43 1914.16,-311.29 1905.31,-300.42"/>
</g>
<!-- DPV3&#45;&#45;DPS2 -->
<g id="edge4" class="edge">
<title>DPV3&#45;&#45;DPS2</title>
<path fill="none" stroke="green" d="M1953.53,-346.82C1940.46,-333.08 1922.23,-313.89 1909.17,-300.15"/>
</g>
<!-- DPV4&#45;&#45;DPS3 -->
<g id="edge7" class="edge">
<title>DPV4&#45;&#45;DPS3</title>
<path fill="none" stroke="green" d="M2544.54,-346.95C2523.33,-344.16 2501.46,-341.4 2480.86,-339 2444.49,-334.77 2433.95,-341.46 2398.86,-331 2337.33,-312.65 2330.71,-287.26 2270.86,-264 2228,-247.35 2178,-234.1 2138.72,-225.01"/>
</g>
<!-- DPV5&#45;&#45;DPS3 -->
<g id="edge8" class="edge">
<title>DPV5&#45;&#45;DPS3</title>
<path fill="none" stroke="green" d="M2376.4,-346.89C2310.22,-317.46 2175.53,-257.55 2109.34,-228.11"/>
</g>
<!-- DPV6&#45;&#45;DPS4 -->
<g id="edge11" class="edge">
<title>DPV6&#45;&#45;DPS4</title>
<path fill="none" stroke="green" d="M1139.68,-346.95C1145.81,-343.84 1152.41,-340.96 1158.86,-339 1192.2,-328.85 1202.4,-336.19 1236.86,-331 1428.17,-302.2 1651.04,-253.25 1762.58,-227.68"/>
</g>
<!-- DPV7&#45;&#45;DPS6 -->
<g id="edge13" class="edge">
<title>DPV7&#45;&#45;DPS6</title>
<path fill="none" stroke="green" d="M1546.67,-346.75C1563.38,-317.36 1597.18,-257.93 1613.95,-228.43"/>
</g>
<!-- DPV8&#45;&#45;DPS6 -->
<g id="edge14" class="edge">
<title>DPV8&#45;&#45;DPS6</title>
<path fill="none" stroke="green" d="M1433.99,-346.75C1475.2,-317.28 1558.67,-257.61 1599.82,-228.19"/>
</g>
<!-- DPV9&#45;&#45;DPS7 -->
<g id="edge17" class="edge">
<title>DPV9&#45;&#45;DPS7</title>
<path fill="none" stroke="green" d="M1048.1,-346.91C1053.89,-344.03 1059.98,-341.25 1065.86,-339 1252.67,-267.67 1313.7,-295.67 1501.86,-228 1504.72,-226.97 1507.66,-225.79 1510.57,-224.55"/>
</g>
<!-- DPV10&#45;&#45;DPS8 -->
<g id="edge19" class="edge">
<title>DPV10&#45;&#45;DPS8</title>
<path fill="none" stroke="green" d="M890.59,-346.96C932.67,-324.39 1011.2,-285 1082.86,-264 1185.73,-233.85 1310.7,-220.27 1381.28,-214.62"/>
</g>
<!-- DPV11&#45;&#45;DPS9 -->
<g id="edge21" class="edge">
<title>DPV11&#45;&#45;DPS9</title>
<path fill="none" stroke="green" d="M1271.71,-346.79C1290.12,-315.11 1331.6,-245.9 1372.86,-192 1384.74,-176.49 1399.65,-160.11 1410.95,-148.23"/>
</g>
<!-- DPV12&#45;&#45;DPS9 -->
<g id="edge22" class="edge">
<title>DPV12&#45;&#45;DPS9</title>
<path fill="none" stroke="green" d="M704.6,-346.9C753.61,-325.67 840.92,-289.19 917.86,-264 1086.13,-208.9 1291.4,-161.11 1381.6,-141.06"/>
</g>
<!-- DPV13&#45;&#45;DPS10 -->
<g id="edge25" class="edge">
<title>DPV13&#45;&#45;DPS10</title>
<path fill="none" stroke="green" d="M2243.51,-346.87C2236.03,-344.06 2228.26,-341.31 2220.86,-339 2149.42,-316.73 2063.47,-298.48 2017.23,-289.34"/>
</g>
<!-- DPV14&#45;&#45;DPS12 -->
<g id="edge27" class="edge">
<title>DPV14&#45;&#45;DPS12</title>
<path fill="none" stroke="green" d="M3013.25,-346.93C2941.91,-326.88 2819.86,-292.71 2714.86,-264 2415.43,-182.14 2051.66,-85.63 1949.02,-58.45"/>
</g>
<!-- DPV15&#45;&#45;DPS13 -->
<g id="edge29" class="edge">
<title>DPV15&#45;&#45;DPS13</title>
<path fill="none" stroke="green" d="M2873.79,-346.91C2866.2,-344.12 2858.34,-341.37 2850.86,-339 2578.29,-252.45 2245.45,-175.28 2108.89,-144.81"/>
</g>
</g>
</svg>
