<?xml version="1.0" encoding="UTF-8" standalone="no"?>
<!DOCTYPE svg PUBLIC "-//W3C//DTD SVG 1.1//EN"
 "http://www.w3.org/Graphics/SVG/1.1/DTD/svg11.dtd">
<!-- Generated by graphviz version 2.43.0 (0)
 -->
<!-- Title: G Pages: 1 -->
<svg width="1379pt" height="525pt"
 viewBox="0.00 0.00 1379.09 525.00" xmlns="http://www.w3.org/2000/svg" xmlns:xlink="http://www.w3.org/1999/xlink">
<g id="graph0" class="graph" transform="scale(1 1) rotate(0) translate(4 521)">
<title>G</title>
<polygon fill="white" stroke="transparent" points="-4,4 -4,-521 1375.09,-521 1375.09,4 -4,4"/>
<g id="clust1" class="cluster">
<title>cluster_host</title>
<polygon fill="none" stroke="red" points="8,-8 8,-509 1191,-509 1191,-8 8,-8"/>
<text text-anchor="middle" x="599.5" y="-493.8" font-family="Times,serif" font-size="14.00">host</text>
</g>
<g id="clust2" class="cluster">
<title>cluster_host_storage</title>
<polygon fill="none" stroke="blue" points="230,-403 230,-478 1106,-478 1106,-403 230,-403"/>
<text text-anchor="middle" x="668" y="-462.8" font-family="Times,serif" font-size="14.00">host filesystem</text>
</g>
<g id="clust3" class="cluster">
<title>cluster_docker_network_host</title>
<polygon fill="none" stroke="green" points="16,-16 16,-395 1183,-395 1183,-16 16,-16"/>
<text text-anchor="middle" x="599.5" y="-379.8" font-family="Times,serif" font-size="14.00">docker network</text>
</g>
<!-- a1 -->
<g id="node1" class="node">
<title>a1</title>
<polygon fill="none" stroke="blue" points="359.5,-447 356.5,-451 335.5,-451 332.5,-447 238.5,-447 238.5,-411 359.5,-411 359.5,-447"/>
<text text-anchor="middle" x="299" y="-425.3" font-family="Times,serif" font-size="14.00">fedora storage</text>
</g>
<!-- b1 -->
<g id="node7" class="node">
<title>b1</title>
<polygon fill="none" stroke="green" points="351.5,-364 98.5,-364 98.5,-360 94.5,-360 94.5,-356 98.5,-356 98.5,-336 94.5,-336 94.5,-332 98.5,-332 98.5,-328 351.5,-328 351.5,-364"/>
<polyline fill="none" stroke="green" points="98.5,-360 102.5,-360 102.5,-356 98.5,-356 "/>
<polyline fill="none" stroke="green" points="98.5,-336 102.5,-336 102.5,-332 98.5,-332 "/>
<text text-anchor="middle" x="225" y="-342.3" font-family="Times,serif" font-size="14.00">fedora (data and metadata store)</text>
</g>
<!-- a1&#45;&#45;b1 -->
<g id="edge13" class="edge">
<title>a1&#45;&#45;b1</title>
<path fill="none" stroke="black" d="M283.31,-410.82C270.75,-397.08 253.22,-377.89 240.67,-364.15"/>
</g>
<!-- a2 -->
<g id="node2" class="node">
<title>a2</title>
<polygon fill="none" stroke="blue" points="512,-447 509,-451 488,-451 485,-447 378,-447 378,-411 512,-411 512,-447"/>
<text text-anchor="middle" x="445" y="-425.3" font-family="Times,serif" font-size="14.00">mariadb storage</text>
</g>
<!-- b3 -->
<g id="node9" class="node">
<title>b3</title>
<polygon fill="none" stroke="green" points="265.5,-220 44.5,-220 44.5,-216 40.5,-216 40.5,-212 44.5,-212 44.5,-192 40.5,-192 40.5,-188 44.5,-188 44.5,-184 265.5,-184 265.5,-220"/>
<polyline fill="none" stroke="green" points="44.5,-216 48.5,-216 48.5,-212 44.5,-212 "/>
<polyline fill="none" stroke="green" points="44.5,-192 48.5,-192 48.5,-188 44.5,-188 "/>
<text text-anchor="middle" x="155" y="-198.3" font-family="Times,serif" font-size="14.00">mariadb (general databases)</text>
</g>
<!-- a2&#45;&#45;b3 -->
<g id="edge14" class="edge">
<title>a2&#45;&#45;b3</title>
<path fill="none" stroke="black" d="M450.74,-410.89C460.95,-376.89 477.88,-300.25 440,-256 428.3,-242.33 340.74,-227.4 265.73,-216.87"/>
</g>
<!-- a3 -->
<g id="node3" class="node">
<title>a3</title>
<polygon fill="none" stroke="blue" points="671.5,-447 668.5,-451 647.5,-451 644.5,-447 530.5,-447 530.5,-411 671.5,-411 671.5,-447"/>
<text text-anchor="middle" x="601" y="-425.3" font-family="Times,serif" font-size="14.00">mongodb storage</text>
</g>
<!-- b4 -->
<g id="node10" class="node">
<title>b4</title>
<polygon fill="none" stroke="green" points="608,-220 324,-220 324,-216 320,-216 320,-212 324,-212 324,-192 320,-192 320,-188 324,-188 324,-184 608,-184 608,-220"/>
<polyline fill="none" stroke="green" points="324,-216 328,-216 328,-212 324,-212 "/>
<polyline fill="none" stroke="green" points="324,-192 328,-192 328,-188 324,-188 "/>
<text text-anchor="middle" x="466" y="-198.3" font-family="Times,serif" font-size="14.00">mongodb (databases for job&#45;tracking)</text>
</g>
<!-- a3&#45;&#45;b4 -->
<g id="edge15" class="edge">
<title>a3&#45;&#45;b4</title>
<path fill="none" stroke="black" d="M590.63,-410.72C565.44,-368.73 501.26,-261.76 476.22,-220.03"/>
</g>
<!-- a4 -->
<g id="node4" class="node">
<title>a4</title>
<polygon fill="none" stroke="blue" points="854,-447 851,-451 830,-451 827,-447 690,-447 690,-411 854,-411 854,-447"/>
<text text-anchor="middle" x="772" y="-425.3" font-family="Times,serif" font-size="14.00">imageserver storage</text>
</g>
<!-- b8 -->
<g id="node14" class="node">
<title>b8</title>
<polygon fill="none" stroke="green" points="895.5,-220 626.5,-220 626.5,-216 622.5,-216 622.5,-212 626.5,-212 626.5,-192 622.5,-192 622.5,-188 626.5,-188 626.5,-184 895.5,-184 895.5,-220"/>
<polyline fill="none" stroke="green" points="626.5,-216 630.5,-216 630.5,-212 626.5,-212 "/>
<polyline fill="none" stroke="green" points="626.5,-192 630.5,-192 630.5,-188 626.5,-188 "/>
<text text-anchor="middle" x="761" y="-198.3" font-family="Times,serif" font-size="14.00">imageserver (display large images)</text>
</g>
<!-- a4&#45;&#45;b8 -->
<g id="edge16" class="edge">
<title>a4&#45;&#45;b8</title>
<path fill="none" stroke="black" d="M771.16,-410.72C769.1,-368.73 763.87,-261.76 761.83,-220.03"/>
</g>
<!-- a5 -->
<g id="node5" class="node">
<title>a5</title>
<polygon fill="none" stroke="blue" points="974,-447 971,-451 950,-451 947,-447 872,-447 872,-411 974,-411 974,-447"/>
<text text-anchor="middle" x="923" y="-425.3" font-family="Times,serif" font-size="14.00">solr storage</text>
</g>
<!-- b7 -->
<g id="node13" class="node">
<title>b7</title>
<polygon fill="none" stroke="green" points="1102.5,-220 913.5,-220 913.5,-216 909.5,-216 909.5,-212 913.5,-212 913.5,-192 909.5,-192 909.5,-188 913.5,-188 913.5,-184 1102.5,-184 1102.5,-220"/>
<polyline fill="none" stroke="green" points="913.5,-216 917.5,-216 917.5,-212 913.5,-212 "/>
<polyline fill="none" stroke="green" points="913.5,-192 917.5,-192 917.5,-188 913.5,-188 "/>
<text text-anchor="middle" x="1008" y="-198.3" font-family="Times,serif" font-size="14.00">solr (site search engine)</text>
</g>
<!-- a5&#45;&#45;b7 -->
<g id="edge17" class="edge">
<title>a5&#45;&#45;b7</title>
<path fill="none" stroke="black" d="M929.53,-410.72C945.39,-368.73 985.8,-261.76 1001.57,-220.03"/>
</g>
<!-- a6 -->
<g id="node6" class="node">
<title>a6</title>
<polygon fill="none" stroke="blue" points="1098,-447 1095,-451 1074,-451 1071,-447 992,-447 992,-411 1098,-411 1098,-447"/>
<text text-anchor="middle" x="1045" y="-425.3" font-family="Times,serif" font-size="14.00">ldap storage</text>
</g>
<!-- b6 -->
<g id="node12" class="node">
<title>b6</title>
<polygon fill="none" stroke="green" points="1175,-220 1121,-220 1121,-216 1117,-216 1117,-212 1121,-212 1121,-192 1117,-192 1117,-188 1121,-188 1121,-184 1175,-184 1175,-220"/>
<polyline fill="none" stroke="green" points="1121,-216 1125,-216 1125,-212 1121,-212 "/>
<polyline fill="none" stroke="green" points="1121,-192 1125,-192 1125,-188 1121,-188 "/>
<text text-anchor="middle" x="1148" y="-198.3" font-family="Times,serif" font-size="14.00">ldap</text>
</g>
<!-- a6&#45;&#45;b6 -->
<g id="edge18" class="edge">
<title>a6&#45;&#45;b6</title>
<path fill="none" stroke="black" d="M1052.91,-410.72C1072.13,-368.73 1121.1,-261.76 1140.2,-220.03"/>
</g>
<!-- b2 -->
<g id="node8" class="node">
<title>b2</title>
<polygon fill="none" stroke="green" points="431,-292 177,-292 177,-288 173,-288 173,-284 177,-284 177,-264 173,-264 173,-260 177,-260 177,-256 431,-256 431,-292"/>
<polyline fill="none" stroke="green" points="177,-288 181,-288 181,-284 177,-284 "/>
<polyline fill="none" stroke="green" points="177,-264 181,-264 181,-260 177,-260 "/>
<text text-anchor="middle" x="304" y="-270.3" font-family="Times,serif" font-size="14.00">phaidra&#45;api (general transmitter)</text>
</g>
<!-- b1&#45;&#45;b2 -->
<g id="edge1" class="edge">
<title>b1&#45;&#45;b2</title>
<path fill="none" stroke="black" d="M244.53,-327.7C256.77,-316.85 272.49,-302.92 284.7,-292.1"/>
</g>
<!-- b1&#45;&#45;b3 -->
<g id="edge10" class="edge">
<title>b1&#45;&#45;b3</title>
<path fill="none" stroke="black" d="M199.92,-327.94C188.32,-318.69 175.47,-306.24 168,-292 156.02,-269.19 154.09,-238.81 154.22,-220.09"/>
</g>
<!-- b2&#45;&#45;b3 -->
<g id="edge2" class="edge">
<title>b2&#45;&#45;b3</title>
<path fill="none" stroke="black" d="M267.55,-255.88C244.37,-244.99 214.48,-230.95 191.33,-220.07"/>
</g>
<!-- b2&#45;&#45;b4 -->
<g id="edge3" class="edge">
<title>b2&#45;&#45;b4</title>
<path fill="none" stroke="black" d="M343.63,-255.88C368.83,-244.99 401.33,-230.95 426.5,-220.07"/>
</g>
<!-- b5 -->
<g id="node11" class="node">
<title>b5</title>
<polygon fill="none" stroke="green" points="285.5,-140 52.5,-140 52.5,-136 48.5,-136 48.5,-132 52.5,-132 52.5,-112 48.5,-112 48.5,-108 52.5,-108 52.5,-104 285.5,-104 285.5,-140"/>
<polyline fill="none" stroke="green" points="52.5,-136 56.5,-136 56.5,-132 52.5,-132 "/>
<polyline fill="none" stroke="green" points="52.5,-112 56.5,-112 56.5,-108 52.5,-108 "/>
<text text-anchor="middle" x="169" y="-118.3" font-family="Times,serif" font-size="14.00">phaidra&#45;ui (user webinterface)</text>
</g>
<!-- b2&#45;&#45;b5 -->
<g id="edge4" class="edge">
<title>b2&#45;&#45;b5</title>
<path fill="none" stroke="black" d="M302.12,-255.85C299.23,-236.53 292.1,-205.07 275,-184 259.21,-164.55 235.46,-150.07 214.43,-140.11"/>
</g>
<!-- b2&#45;&#45;b6 -->
<g id="edge5" class="edge">
<title>b2&#45;&#45;b6</title>
<path fill="none" stroke="black" d="M431.27,-270.44C625.64,-265.56 987.05,-252.35 1112,-220 1114.94,-219.24 1117.94,-218.24 1120.88,-217.1"/>
</g>
<!-- b2&#45;&#45;b7 -->
<g id="edge12" class="edge">
<title>b2&#45;&#45;b7</title>
<path fill="none" stroke="black" d="M431.22,-264.59C553.07,-255.86 741.98,-240.61 905,-220 907.79,-219.65 910.61,-219.28 913.47,-218.89"/>
</g>
<!-- b2&#45;&#45;b8 -->
<g id="edge11" class="edge">
<title>b2&#45;&#45;b8</title>
<path fill="none" stroke="black" d="M415.21,-255.97C486.41,-245.06 578.46,-230.96 649.69,-220.05"/>
</g>
<!-- b9 -->
<g id="node15" class="node">
<title>b9</title>
<polygon fill="none" stroke="green" points="351,-60 259,-60 259,-56 255,-56 255,-52 259,-52 259,-32 255,-32 255,-28 259,-28 259,-24 351,-24 351,-60"/>
<polyline fill="none" stroke="green" points="259,-56 263,-56 263,-52 259,-52 "/>
<polyline fill="none" stroke="green" points="259,-32 263,-32 263,-28 259,-28 "/>
<text text-anchor="middle" x="305" y="-38.3" font-family="Times,serif" font-size="14.00">webserver</text>
</g>
<!-- b2&#45;&#45;b9 -->
<g id="edge7" class="edge">
<title>b2&#45;&#45;b9</title>
<path fill="none" stroke="black" d="M304.08,-255.71C304.26,-212.98 304.74,-102.78 304.93,-60.17"/>
</g>
<!-- b5&#45;&#45;b1 -->
<g id="edge9" class="edge">
<title>b5&#45;&#45;b1</title>
<path fill="none" stroke="black" d="M94.91,-140.08C72.08,-149.2 49.44,-163.05 36,-184 27.36,-197.47 28.42,-205.91 36,-220 65.34,-274.57 130.11,-309.31 175.62,-327.96"/>
</g>
<!-- b5&#45;&#45;b9 -->
<g id="edge8" class="edge">
<title>b5&#45;&#45;b9</title>
<path fill="none" stroke="black" d="M198.85,-103.88C221.52,-90.88 252.57,-73.07 275.22,-60.08"/>
</g>
<!-- b7&#45;&#45;b5 -->
<g id="edge6" class="edge">
<title>b7&#45;&#45;b5</title>
<path fill="none" stroke="black" d="M913.47,-185.09C910.62,-184.71 907.79,-184.35 905,-184 686.93,-157.01 431,-138.82 285.62,-129.74"/>
</g>
<!-- c1 -->
<g id="node16" class="node">
<title>c1</title>
<polygon fill="none" stroke="black" points="1363.17,-114.54 1363.17,-129.46 1317.38,-140 1252.62,-140 1206.83,-129.46 1206.83,-114.54 1252.62,-104 1317.38,-104 1363.17,-114.54"/>
<polygon fill="none" stroke="black" points="1367.17,-111.36 1367.17,-132.64 1317.83,-144 1252.17,-144 1202.83,-132.64 1202.83,-111.36 1252.17,-100 1317.83,-100 1367.17,-111.36"/>
<polygon fill="none" stroke="black" points="1371.18,-108.18 1371.18,-135.82 1318.29,-148 1251.71,-148 1198.82,-135.82 1198.82,-108.18 1251.71,-96 1318.29,-96 1371.18,-108.18"/>
<text text-anchor="middle" x="1285" y="-118.3" font-family="Times,serif" font-size="14.00">Phaidra User</text>
</g>
<!-- c1&#45;&#45;b9 -->
<g id="edge19" class="edge">
<title>c1&#45;&#45;b9</title>
<path fill="none" stroke="black" d="M1221.31,-102.89C1209.96,-100.2 1198.19,-97.75 1187,-96 870.23,-46.54 482.82,-42.51 351.24,-42.7"/>
</g>
</g>
</svg>
