<?xml version="1.0" encoding="UTF-8" standalone="no"?>
<!DOCTYPE svg PUBLIC "-//W3C//DTD SVG 1.1//EN"
 "http://www.w3.org/Graphics/SVG/1.1/DTD/svg11.dtd">
<!-- Generated by graphviz version 2.43.0 (0)
 -->
<!-- Title: G Pages: 1 -->
<svg width="1180pt" height="515pt"
 viewBox="0.00 0.00 1180.09 515.00" xmlns="http://www.w3.org/2000/svg" xmlns:xlink="http://www.w3.org/1999/xlink">
<g id="graph0" class="graph" transform="scale(1 1) rotate(0) translate(4 511)">
<title>G</title>
<polygon fill="white" stroke="transparent" points="-4,4 -4,-511 1176.09,-511 1176.09,4 -4,4"/>
<g id="clust1" class="cluster">
<title>cluster_host</title>
<polygon fill="none" stroke="red" points="32.09,-80 32.09,-499 1164.09,-499 1164.09,-80 32.09,-80"/>
<text text-anchor="middle" x="598.09" y="-483.8" font-family="Times,serif" font-size="14.00">localhost</text>
</g>
<g id="clust2" class="cluster">
<title>cluster_host_storage</title>
<polygon fill="none" stroke="blue" points="347.09,-393 347.09,-468 1156.09,-468 1156.09,-393 347.09,-393"/>
<text text-anchor="middle" x="751.59" y="-452.8" font-family="Times,serif" font-size="14.00">host filesystem</text>
</g>
<g id="clust3" class="cluster">
<title>cluster_docker_network_host</title>
<polygon fill="none" stroke="green" points="152.09,-160 152.09,-385 1156.09,-385 1156.09,-160 152.09,-160"/>
<text text-anchor="middle" x="654.09" y="-369.8" font-family="Times,serif" font-size="14.00">PHAIDRA components</text>
</g>
<!-- a1 -->
<g id="node1" class="node">
<title>a1</title>
<polygon fill="none" stroke="red" points="132.09,-128 40.09,-128 40.09,-124 36.09,-124 36.09,-120 40.09,-120 40.09,-100 36.09,-100 36.09,-96 40.09,-96 40.09,-92 132.09,-92 132.09,-128"/>
<polyline fill="none" stroke="red" points="40.09,-124 44.09,-124 44.09,-120 40.09,-120 "/>
<polyline fill="none" stroke="red" points="40.09,-100 44.09,-100 44.09,-96 40.09,-96 "/>
<text text-anchor="middle" x="86.09" y="-106.3" font-family="Times,serif" font-size="14.00">webserver</text>
</g>
<!-- d1 -->
<g id="node20" class="node">
<title>d1</title>
<polygon fill="none" stroke="black" points="164.25,-18.54 164.25,-33.46 118.47,-44 53.71,-44 7.92,-33.46 7.92,-18.54 53.71,-8 118.47,-8 164.25,-18.54"/>
<polygon fill="none" stroke="black" points="168.26,-15.36 168.26,-36.64 118.92,-48 53.25,-48 3.92,-36.64 3.92,-15.36 53.25,-4 118.92,-4 168.26,-15.36"/>
<polygon fill="none" stroke="black" points="172.26,-12.18 172.26,-39.82 119.38,-52 52.8,-52 -0.09,-39.82 -0.09,-12.18 52.8,0 119.38,0 172.26,-12.18"/>
<text text-anchor="middle" x="86.09" y="-22.3" font-family="Times,serif" font-size="14.00">Phaidra User</text>
</g>
<!-- a1&#45;&#45;d1 -->
<g id="edge28" class="edge">
<title>a1&#45;&#45;d1</title>
<path fill="none" stroke="red" d="M86.09,-91.61C86.09,-80.14 86.09,-64.93 86.09,-52.15"/>
</g>
<!-- a2 -->
<g id="node2" class="node">
<title>a2</title>
<polygon fill="none" stroke="magenta" points="380.12,-102.54 380.12,-117.46 313.91,-128 220.27,-128 154.05,-117.46 154.05,-102.54 220.27,-92 313.91,-92 380.12,-102.54"/>
<polygon fill="none" stroke="magenta" points="384.11,-99.13 384.11,-120.87 314.22,-132 219.95,-132 150.06,-120.87 150.06,-99.13 219.95,-88 314.22,-88 384.11,-99.13"/>
<text text-anchor="middle" x="267.09" y="-106.3" font-family="Times,serif" font-size="14.00">developer&#39;s browser</text>
</g>
<!-- b1 -->
<g id="node3" class="node">
<title>b1</title>
<polygon fill="none" stroke="blue" points="457.09,-437 454.09,-441 433.09,-441 430.09,-437 355.09,-437 355.09,-401 457.09,-401 457.09,-437"/>
<text text-anchor="middle" x="406.09" y="-415.3" font-family="Times,serif" font-size="14.00">Fedora data</text>
</g>
<!-- c1 -->
<g id="node9" class="node">
<title>c1</title>
<g id="a_node9"><a xlink:href="https://fedora.lyrasis.org/" xlink:title="Fedora\n(object and metadata store)">
<polygon fill="none" stroke="green" points="741.59,-354 526.59,-354 526.59,-350 522.59,-350 522.59,-346 526.59,-346 526.59,-324 522.59,-324 522.59,-320 526.59,-320 526.59,-316 741.59,-316 741.59,-354"/>
<polyline fill="none" stroke="green" points="526.59,-350 530.59,-350 530.59,-346 526.59,-346 "/>
<polyline fill="none" stroke="green" points="526.59,-324 530.59,-324 530.59,-320 526.59,-320 "/>
<text text-anchor="middle" x="634.09" y="-338.8" font-family="Times,serif" font-size="14.00">Fedora</text>
<text text-anchor="middle" x="634.09" y="-323.8" font-family="Times,serif" font-size="14.00">(object and metadata store)</text>
</a>
</g>
</g>
<!-- b1&#45;&#45;c1 -->
<g id="edge14" class="edge">
<title>b1&#45;&#45;c1</title>
<path fill="none" stroke="blue" d="M445.96,-400.95C452.65,-398.21 459.54,-395.47 466.09,-393 502.97,-379.08 544.97,-364.83 577.75,-354.06"/>
</g>
<!-- b2 -->
<g id="node4" class="node">
<title>b2</title>
<polygon fill="none" stroke="blue" points="591.09,-437 588.09,-441 567.09,-441 564.09,-437 475.09,-437 475.09,-401 591.09,-401 591.09,-437"/>
<text text-anchor="middle" x="533.09" y="-415.3" font-family="Times,serif" font-size="14.00">MariaDB data</text>
</g>
<!-- c3 -->
<g id="node11" class="node">
<title>c3</title>
<g id="a_node11"><a xlink:href="https://mariadb.org/" xlink:title="MariaDB\n(general databases)">
<polygon fill="none" stroke="green" points="318.09,-206 160.09,-206 160.09,-202 156.09,-202 156.09,-198 160.09,-198 160.09,-176 156.09,-176 156.09,-172 160.09,-172 160.09,-168 318.09,-168 318.09,-206"/>
<polyline fill="none" stroke="green" points="160.09,-202 164.09,-202 164.09,-198 160.09,-198 "/>
<polyline fill="none" stroke="green" points="160.09,-176 164.09,-176 164.09,-172 160.09,-172 "/>
<text text-anchor="middle" x="239.09" y="-190.8" font-family="Times,serif" font-size="14.00">MariaDB</text>
<text text-anchor="middle" x="239.09" y="-175.8" font-family="Times,serif" font-size="14.00">(general databases)</text>
</a>
</g>
</g>
<!-- b2&#45;&#45;c3 -->
<g id="edge15" class="edge">
<title>b2&#45;&#45;c3</title>
<path fill="none" stroke="blue" d="M572.89,-400.9C581.7,-397.75 591.09,-394.87 600.09,-393 665.89,-379.32 685.59,-400.06 751.09,-385 868.14,-358.09 933.68,-380.07 1000.09,-280 1009.43,-265.93 1011.71,-254.26 1000.09,-242 948.57,-187.65 401.36,-215.53 327.09,-206 324.15,-205.62 321.16,-205.2 318.15,-204.75"/>
</g>
<!-- b3 -->
<g id="node5" class="node">
<title>b3</title>
<polygon fill="none" stroke="blue" points="880.59,-437 877.59,-441 856.59,-441 853.59,-437 757.59,-437 757.59,-401 880.59,-401 880.59,-437"/>
<text text-anchor="middle" x="819.09" y="-415.3" font-family="Times,serif" font-size="14.00">MongoDB data</text>
</g>
<!-- c4 -->
<g id="node12" class="node">
<title>c4</title>
<g id="a_node12"><a xlink:href="https://www.mongodb.com/" xlink:title="MongoDB\n(job&#45;tracking)">
<polygon fill="none" stroke="green" points="761.59,-206 648.59,-206 648.59,-202 644.59,-202 644.59,-198 648.59,-198 648.59,-176 644.59,-176 644.59,-172 648.59,-172 648.59,-168 761.59,-168 761.59,-206"/>
<polyline fill="none" stroke="green" points="648.59,-202 652.59,-202 652.59,-198 648.59,-198 "/>
<polyline fill="none" stroke="green" points="648.59,-176 652.59,-176 652.59,-172 648.59,-172 "/>
<text text-anchor="middle" x="705.09" y="-190.8" font-family="Times,serif" font-size="14.00">MongoDB</text>
<text text-anchor="middle" x="705.09" y="-175.8" font-family="Times,serif" font-size="14.00">(job&#45;tracking)</text>
</a>
</g>
</g>
<!-- b3&#45;&#45;c4 -->
<g id="edge16" class="edge">
<title>b3&#45;&#45;c4</title>
<path fill="none" stroke="blue" d="M861.34,-400.93C870.67,-397.78 880.6,-394.89 890.09,-393 905.91,-389.84 1024,-396.72 1035.09,-385 1056.93,-361.92 1055.98,-265.94 1035.09,-242 996.15,-197.39 829.11,-217.81 771.09,-206 768.06,-205.38 764.97,-204.71 761.86,-203.99"/>
</g>
<!-- b4 -->
<g id="node6" class="node">
<title>b4</title>
<polygon fill="none" stroke="blue" points="991.59,-437 988.59,-441 967.59,-441 964.59,-437 898.59,-437 898.59,-401 991.59,-401 991.59,-437"/>
<text text-anchor="middle" x="945.09" y="-415.3" font-family="Times,serif" font-size="14.00">iipsrv data</text>
</g>
<!-- c8 -->
<g id="node16" class="node">
<title>c8</title>
<g id="a_node16"><a xlink:href="https://github.com/ruven/iipsrv" xlink:title="iipsrv\n(display large images)">
<polygon fill="none" stroke="green" points="954.59,-206 779.59,-206 779.59,-202 775.59,-202 775.59,-198 779.59,-198 779.59,-176 775.59,-176 775.59,-172 779.59,-172 779.59,-168 954.59,-168 954.59,-206"/>
<polyline fill="none" stroke="green" points="779.59,-202 783.59,-202 783.59,-198 779.59,-198 "/>
<polyline fill="none" stroke="green" points="779.59,-176 783.59,-176 783.59,-172 779.59,-172 "/>
<text text-anchor="middle" x="867.09" y="-190.8" font-family="Times,serif" font-size="14.00">iipsrv</text>
<text text-anchor="middle" x="867.09" y="-175.8" font-family="Times,serif" font-size="14.00">(display large images)</text>
</a>
</g>
</g>
<!-- b4&#45;&#45;c8 -->
<g id="edge17" class="edge">
<title>b4&#45;&#45;c8</title>
<path fill="none" stroke="blue" d="M979.48,-400.89C986.5,-397.9 993.93,-395.08 1001.09,-393 1012.73,-389.61 1047.16,-394.18 1055.09,-385 1075.85,-360.94 1074.21,-267.38 1055.09,-242 1048.06,-232.68 994.35,-217.79 946.13,-206.01"/>
</g>
<!-- b5 -->
<g id="node7" class="node">
<title>b5</title>
<polygon fill="none" stroke="blue" points="1148.09,-437 1145.09,-441 1124.09,-441 1121.09,-437 1010.09,-437 1010.09,-401 1148.09,-401 1148.09,-437"/>
<text text-anchor="middle" x="1079.09" y="-415.3" font-family="Times,serif" font-size="14.00">Apache Solr data</text>
</g>
<!-- c7 -->
<g id="node15" class="node">
<title>c7</title>
<g id="a_node15"><a xlink:href="https://solr.apache.org/" xlink:title="Apache Solr\n(object search engine)">
<polygon fill="none" stroke="green" points="1147.59,-206 972.59,-206 972.59,-202 968.59,-202 968.59,-198 972.59,-198 972.59,-176 968.59,-176 968.59,-172 972.59,-172 972.59,-168 1147.59,-168 1147.59,-206"/>
<polyline fill="none" stroke="green" points="972.59,-202 976.59,-202 976.59,-198 972.59,-198 "/>
<polyline fill="none" stroke="green" points="972.59,-176 976.59,-176 976.59,-172 972.59,-172 "/>
<text text-anchor="middle" x="1060.09" y="-190.8" font-family="Times,serif" font-size="14.00">Apache Solr</text>
<text text-anchor="middle" x="1060.09" y="-175.8" font-family="Times,serif" font-size="14.00">(object search engine)</text>
</a>
</g>
</g>
<!-- b5&#45;&#45;c7 -->
<g id="edge18" class="edge">
<title>b5&#45;&#45;c7</title>
<path fill="none" stroke="blue" d="M1080.1,-400.89C1081.65,-369.3 1083.63,-299.75 1075.09,-242 1073.29,-229.87 1069.63,-216.6 1066.38,-206.25"/>
</g>
<!-- b6 -->
<g id="node8" class="node">
<title>b6</title>
<polygon fill="none" stroke="blue" points="739.09,-437 736.09,-441 715.09,-441 712.09,-437 609.09,-437 609.09,-401 739.09,-401 739.09,-437"/>
<text text-anchor="middle" x="674.09" y="-415.3" font-family="Times,serif" font-size="14.00">OpenLDAP data</text>
</g>
<!-- c6 -->
<g id="node14" class="node">
<title>c6</title>
<g id="a_node14"><a xlink:href="https://www.openldap.org/" xlink:title="OpenLDAP\n(user management)">
<polygon fill="none" stroke="green" points="630.09,-206 474.09,-206 474.09,-202 470.09,-202 470.09,-198 474.09,-198 474.09,-176 470.09,-176 470.09,-172 474.09,-172 474.09,-168 630.09,-168 630.09,-206"/>
<polyline fill="none" stroke="green" points="474.09,-202 478.09,-202 478.09,-198 474.09,-198 "/>
<polyline fill="none" stroke="green" points="474.09,-176 478.09,-176 478.09,-172 474.09,-172 "/>
<text text-anchor="middle" x="552.09" y="-190.8" font-family="Times,serif" font-size="14.00">OpenLDAP</text>
<text text-anchor="middle" x="552.09" y="-175.8" font-family="Times,serif" font-size="14.00">(user management)</text>
</a>
</g>
</g>
<!-- b6&#45;&#45;c6 -->
<g id="edge19" class="edge">
<title>b6&#45;&#45;c6</title>
<path fill="none" stroke="blue" d="M718.35,-400.88C728.32,-397.69 738.95,-394.8 749.09,-393 763.64,-390.41 1004.79,-395.61 1015.09,-385 1037.22,-362.19 1036.46,-265.52 1015.09,-242 986.94,-211.02 681.48,-212.2 640.09,-206 636.85,-205.51 633.55,-204.99 630.22,-204.43"/>
</g>
<!-- c2 -->
<g id="node10" class="node">
<title>c2</title>
<g id="a_node10"><a xlink:href="https://github.com/phaidra/phaidra-api" xlink:title="phaidra&#45;api\n(general transmitter)">
<polygon fill="none" stroke="green" points="821.09,-280 653.09,-280 653.09,-276 649.09,-276 649.09,-272 653.09,-272 653.09,-250 649.09,-250 649.09,-246 653.09,-246 653.09,-242 821.09,-242 821.09,-280"/>
<polyline fill="none" stroke="green" points="653.09,-276 657.09,-276 657.09,-272 653.09,-272 "/>
<polyline fill="none" stroke="green" points="653.09,-250 657.09,-250 657.09,-246 653.09,-246 "/>
<text text-anchor="middle" x="737.09" y="-264.8" font-family="Times,serif" font-size="14.00">phaidra&#45;api</text>
<text text-anchor="middle" x="737.09" y="-249.8" font-family="Times,serif" font-size="14.00">(general transmitter)</text>
</a>
</g>
</g>
<!-- c1&#45;&#45;c2 -->
<g id="edge1" class="edge">
<title>c1&#45;&#45;c2</title>
<path fill="none" stroke="green" d="M660.08,-315.83C675.69,-304.92 695.49,-291.08 711.1,-280.16"/>
</g>
<!-- c1&#45;&#45;c3 -->
<g id="edge7" class="edge">
<title>c1&#45;&#45;c3</title>
<path fill="none" stroke="green" d="M638.08,-315.67C641.43,-294.82 643.06,-261.2 624.09,-242 577.37,-194.7 392.71,-216.67 327.09,-206 324.16,-205.52 321.19,-205.02 318.19,-204.49"/>
</g>
<!-- c2&#45;&#45;a1 -->
<g id="edge20" class="edge">
<title>c2&#45;&#45;a1</title>
<path fill="none" stroke="red" d="M652.97,-245.8C643.25,-244.4 633.46,-243.09 624.09,-242 516.52,-229.47 229.15,-264.62 138.09,-206 110.42,-188.19 96.28,-150.34 90.1,-128.16"/>
</g>
<!-- c2&#45;&#45;a2 -->
<g id="edge24" class="edge">
<title>c2&#45;&#45;a2</title>
<path fill="none" stroke="magenta" d="M652.96,-245.82C643.24,-244.41 633.46,-243.1 624.09,-242 571.74,-235.85 186.92,-244.66 151.09,-206 137.19,-191.01 139.79,-177.04 151.09,-160 160.87,-145.24 176.08,-134.92 192.3,-127.7"/>
</g>
<!-- c2&#45;&#45;c3 -->
<g id="edge2" class="edge">
<title>c2&#45;&#45;c3</title>
<path fill="none" stroke="green" d="M652.95,-244.17C648.27,-243.41 643.62,-242.68 639.09,-242 501.03,-221.38 464.93,-228.01 327.09,-206 324.16,-205.53 321.19,-205.04 318.18,-204.52"/>
</g>
<!-- c2&#45;&#45;c4 -->
<g id="edge3" class="edge">
<title>c2&#45;&#45;c4</title>
<path fill="none" stroke="green" d="M729.01,-241.83C724.2,-231 718.1,-217.29 713.27,-206.41"/>
</g>
<!-- c5 -->
<g id="node13" class="node">
<title>c5</title>
<g id="a_node13"><a xlink:href="https://github.com/phaidra/phaidra-ui" xlink:title="phaidra&#45;ui\n(webinterface)">
<polygon fill="none" stroke="green" points="456.09,-206 336.09,-206 336.09,-202 332.09,-202 332.09,-198 336.09,-198 336.09,-176 332.09,-176 332.09,-172 336.09,-172 336.09,-168 456.09,-168 456.09,-206"/>
<polyline fill="none" stroke="green" points="336.09,-202 340.09,-202 340.09,-198 336.09,-198 "/>
<polyline fill="none" stroke="green" points="336.09,-176 340.09,-176 340.09,-172 336.09,-172 "/>
<text text-anchor="middle" x="396.09" y="-190.8" font-family="Times,serif" font-size="14.00">phaidra&#45;ui</text>
<text text-anchor="middle" x="396.09" y="-175.8" font-family="Times,serif" font-size="14.00">(webinterface)</text>
</a>
</g>
</g>
<!-- c2&#45;&#45;c5 -->
<g id="edge4" class="edge">
<title>c2&#45;&#45;c5</title>
<path fill="none" stroke="green" d="M652.88,-244.61C599.01,-234.44 527.73,-220.38 465.09,-206 462.19,-205.34 459.23,-204.64 456.25,-203.92"/>
</g>
<!-- c2&#45;&#45;c6 -->
<g id="edge5" class="edge">
<title>c2&#45;&#45;c6</title>
<path fill="none" stroke="green" d="M690.4,-241.83C662.25,-230.88 626.53,-216.97 598.44,-206.04"/>
</g>
<!-- c2&#45;&#45;c7 -->
<g id="edge6" class="edge">
<title>c2&#45;&#45;c7</title>
<path fill="none" stroke="green" d="M818.18,-241.92C867.42,-230.95 930.05,-216.99 979.24,-206.02"/>
</g>
<!-- c2&#45;&#45;c8 -->
<g id="edge8" class="edge">
<title>c2&#45;&#45;c8</title>
<path fill="none" stroke="green" d="M769.89,-241.83C789.6,-230.92 814.59,-217.08 834.29,-206.16"/>
</g>
<!-- c5&#45;&#45;a1 -->
<g id="edge21" class="edge">
<title>c5&#45;&#45;a1</title>
<path fill="none" stroke="red" d="M352.36,-167.95C344.07,-164.97 335.39,-162.16 327.09,-160 246.19,-138.92 221.94,-153.26 141.09,-132 136.84,-130.88 132.46,-129.55 128.13,-128.1"/>
</g>
<!-- c5&#45;&#45;a2 -->
<g id="edge25" class="edge">
<title>c5&#45;&#45;a2</title>
<path fill="none" stroke="magenta" d="M364.86,-167.84C346.37,-157.09 322.85,-143.42 303.52,-132.18"/>
</g>
<!-- c9 -->
<g id="node17" class="node">
<title>c9</title>
<polygon fill="none" stroke="green" points="991.09,-280 839.09,-280 839.09,-276 835.09,-276 835.09,-272 839.09,-272 839.09,-250 835.09,-250 835.09,-246 839.09,-246 839.09,-242 991.09,-242 991.09,-280"/>
<polyline fill="none" stroke="green" points="839.09,-276 843.09,-276 843.09,-272 839.09,-272 "/>
<polyline fill="none" stroke="green" points="839.09,-250 843.09,-250 843.09,-246 839.09,-246 "/>
<text text-anchor="middle" x="915.09" y="-264.8" font-family="Times,serif" font-size="14.00">pixelgecko</text>
<text text-anchor="middle" x="915.09" y="-249.8" font-family="Times,serif" font-size="14.00">(image conversion)</text>
</g>
<!-- c9&#45;&#45;c4 -->
<g id="edge10" class="edge">
<title>c9&#45;&#45;c4</title>
<path fill="none" stroke="green" d="M862.37,-241.92C830.41,-230.97 789.79,-217.04 757.83,-206.08"/>
</g>
<!-- c9&#45;&#45;c8 -->
<g id="edge9" class="edge">
<title>c9&#45;&#45;c8</title>
<path fill="none" stroke="green" d="M902.98,-241.83C895.75,-231 886.61,-217.29 879.36,-206.41"/>
</g>
<!-- c10 -->
<g id="node18" class="node">
<title>c10</title>
<polygon fill="none" stroke="green" points="614.59,-280 393.59,-280 393.59,-276 389.59,-276 389.59,-272 393.59,-272 393.59,-250 389.59,-250 389.59,-246 393.59,-246 393.59,-242 614.59,-242 614.59,-280"/>
<polyline fill="none" stroke="green" points="393.59,-276 397.59,-276 397.59,-272 393.59,-272 "/>
<polyline fill="none" stroke="green" points="393.59,-250 397.59,-250 397.59,-246 393.59,-246 "/>
<text text-anchor="middle" x="504.09" y="-264.8" font-family="Times,serif" font-size="14.00">dbgate</text>
<text text-anchor="middle" x="504.09" y="-249.8" font-family="Times,serif" font-size="14.00">(webinterface for databases)</text>
</g>
<!-- c10&#45;&#45;a1 -->
<g id="edge22" class="edge">
<title>c10&#45;&#45;a1</title>
<path fill="none" stroke="red" d="M393.57,-243.15C390.72,-242.76 387.88,-242.37 385.09,-242 316.57,-232.83 122.06,-257.63 76.09,-206 57.12,-184.69 68.15,-149.13 77.44,-128.09"/>
</g>
<!-- c10&#45;&#45;a2 -->
<g id="edge26" class="edge">
<title>c10&#45;&#45;a2</title>
<path fill="none" stroke="magenta" d="M393.56,-243.26C390.71,-242.83 387.88,-242.41 385.09,-242 329.78,-233.82 172.68,-248.27 136.09,-206 122.71,-190.54 124.44,-176.8 136.09,-160 147.16,-144.04 164.1,-133.27 182.17,-126"/>
</g>
<!-- c10&#45;&#45;c3 -->
<g id="edge11" class="edge">
<title>c10&#45;&#45;c3</title>
<path fill="none" stroke="green" d="M437.56,-241.92C397.24,-230.97 345.97,-217.04 305.64,-206.08"/>
</g>
<!-- c10&#45;&#45;c4 -->
<g id="edge12" class="edge">
<title>c10&#45;&#45;c4</title>
<path fill="none" stroke="green" d="M554.55,-241.92C585.13,-230.97 624.02,-217.04 654.61,-206.08"/>
</g>
<!-- c11 -->
<g id="node19" class="node">
<title>c11</title>
<polygon fill="none" stroke="green" points="375.59,-280 160.59,-280 160.59,-276 156.59,-276 156.59,-272 160.59,-272 160.59,-250 156.59,-250 156.59,-246 160.59,-246 160.59,-242 375.59,-242 375.59,-280"/>
<polyline fill="none" stroke="green" points="160.59,-276 164.59,-276 164.59,-272 160.59,-272 "/>
<polyline fill="none" stroke="green" points="160.59,-250 164.59,-250 164.59,-246 160.59,-246 "/>
<text text-anchor="middle" x="268.09" y="-264.8" font-family="Times,serif" font-size="14.00">Ldap Account Manager</text>
<text text-anchor="middle" x="268.09" y="-249.8" font-family="Times,serif" font-size="14.00">(webinterface for openldap)</text>
</g>
<!-- c11&#45;&#45;a1 -->
<g id="edge23" class="edge">
<title>c11&#45;&#45;a1</title>
<path fill="none" stroke="red" d="M160.52,-245.04C115.18,-236.33 69.72,-223.54 56.09,-206 38.04,-182.78 57.19,-148.51 72.1,-128.1"/>
</g>
<!-- c11&#45;&#45;a2 -->
<g id="edge27" class="edge">
<title>c11&#45;&#45;a2</title>
<path fill="none" stroke="magenta" d="M163.42,-241.94C144.83,-233.95 127.72,-222.47 116.09,-206 104.3,-189.3 104.07,-176.54 116.09,-160 128.73,-142.61 147.68,-131.27 167.93,-123.9"/>
</g>
<!-- c11&#45;&#45;c6 -->
<g id="edge13" class="edge">
<title>c11&#45;&#45;c6</title>
<path fill="none" stroke="green" d="M339.39,-241.92C382.6,-230.97 437.54,-217.04 480.76,-206.08"/>
</g>
</g>
</svg>
