<?xml version="1.0" encoding="UTF-8" standalone="no"?>
<!DOCTYPE svg PUBLIC "-//W3C//DTD SVG 1.1//EN"
 "http://www.w3.org/Graphics/SVG/1.1/DTD/svg11.dtd">
<!-- Generated by graphviz version 2.43.0 (0)
 -->
<!-- Title: G Pages: 1 -->
<svg width="1382pt" height="453pt"
 viewBox="0.00 0.00 1382.09 453.00" xmlns="http://www.w3.org/2000/svg" xmlns:xlink="http://www.w3.org/1999/xlink">
<g id="graph0" class="graph" transform="scale(1 1) rotate(0) translate(4 449)">
<title>G</title>
<polygon fill="white" stroke="transparent" points="-4,4 -4,-449 1378.09,-449 1378.09,4 -4,4"/>
<g id="clust1" class="cluster">
<title>cluster_host</title>
<polygon fill="none" stroke="red" points="8,-8 8,-437 1194,-437 1194,-8 8,-8"/>
<text text-anchor="middle" x="601" y="-421.8" font-family="Times,serif" font-size="14.00">host</text>
</g>
<g id="clust2" class="cluster">
<title>cluster_host_storage</title>
<polygon fill="none" stroke="blue" points="236,-331 236,-406 1111,-406 1111,-331 236,-331"/>
<text text-anchor="middle" x="673.5" y="-390.8" font-family="Times,serif" font-size="14.00">host filesystem</text>
</g>
<g id="clust3" class="cluster">
<title>cluster_docker_network_host</title>
<polygon fill="none" stroke="green" points="16,-16 16,-323 1186,-323 1186,-16 16,-16"/>
<text text-anchor="middle" x="601" y="-307.8" font-family="Times,serif" font-size="14.00">docker network</text>
</g>
<!-- a1 -->
<g id="node1" class="node">
<title>a1</title>
<polygon fill="none" stroke="blue" points="676.5,-375 673.5,-379 652.5,-379 649.5,-375 555.5,-375 555.5,-339 676.5,-339 676.5,-375"/>
<text text-anchor="middle" x="616" y="-353.3" font-family="Times,serif" font-size="14.00">fedora storage</text>
</g>
<!-- b1 -->
<g id="node7" class="node">
<title>b1</title>
<polygon fill="none" stroke="green" points="720.5,-292 467.5,-292 467.5,-288 463.5,-288 463.5,-284 467.5,-284 467.5,-264 463.5,-264 463.5,-260 467.5,-260 467.5,-256 720.5,-256 720.5,-292"/>
<polyline fill="none" stroke="green" points="467.5,-288 471.5,-288 471.5,-284 467.5,-284 "/>
<polyline fill="none" stroke="green" points="467.5,-264 471.5,-264 471.5,-260 467.5,-260 "/>
<text text-anchor="middle" x="594" y="-270.3" font-family="Times,serif" font-size="14.00">fedora (data and metadata store)</text>
</g>
<!-- a1&#45;&#45;b1 -->
<g id="edge12" class="edge">
<title>a1&#45;&#45;b1</title>
<path fill="none" stroke="black" d="M611.33,-338.82C607.6,-325.08 602.39,-305.89 598.66,-292.15"/>
</g>
<!-- a2 -->
<g id="node2" class="node">
<title>a2</title>
<polygon fill="none" stroke="blue" points="378,-375 375,-379 354,-379 351,-375 244,-375 244,-339 378,-339 378,-375"/>
<text text-anchor="middle" x="311" y="-353.3" font-family="Times,serif" font-size="14.00">mariadb storage</text>
</g>
<!-- b3 -->
<g id="node9" class="node">
<title>b3</title>
<polygon fill="none" stroke="green" points="244.5,-140 23.5,-140 23.5,-136 19.5,-136 19.5,-132 23.5,-132 23.5,-112 19.5,-112 19.5,-108 23.5,-108 23.5,-104 244.5,-104 244.5,-140"/>
<polyline fill="none" stroke="green" points="23.5,-136 27.5,-136 27.5,-132 23.5,-132 "/>
<polyline fill="none" stroke="green" points="23.5,-112 27.5,-112 27.5,-108 23.5,-108 "/>
<text text-anchor="middle" x="134" y="-118.3" font-family="Times,serif" font-size="14.00">mariadb (general databases)</text>
</g>
<!-- a2&#45;&#45;b3 -->
<g id="edge13" class="edge">
<title>a2&#45;&#45;b3</title>
<path fill="none" stroke="black" d="M297.98,-338.87C265.25,-295.78 179.79,-183.27 147.03,-140.16"/>
</g>
<!-- a3 -->
<g id="node3" class="node">
<title>a3</title>
<polygon fill="none" stroke="blue" points="537.5,-375 534.5,-379 513.5,-379 510.5,-375 396.5,-375 396.5,-339 537.5,-339 537.5,-375"/>
<text text-anchor="middle" x="467" y="-353.3" font-family="Times,serif" font-size="14.00">mongodb storage</text>
</g>
<!-- b4 -->
<g id="node10" class="node">
<title>b4</title>
<polygon fill="none" stroke="green" points="547,-140 263,-140 263,-136 259,-136 259,-132 263,-132 263,-112 259,-112 259,-108 263,-108 263,-104 547,-104 547,-140"/>
<polyline fill="none" stroke="green" points="263,-136 267,-136 267,-132 263,-132 "/>
<polyline fill="none" stroke="green" points="263,-112 267,-112 267,-108 263,-108 "/>
<text text-anchor="middle" x="405" y="-118.3" font-family="Times,serif" font-size="14.00">mongodb (databases for job&#45;tracking)</text>
</g>
<!-- a3&#45;&#45;b4 -->
<g id="edge14" class="edge">
<title>a3&#45;&#45;b4</title>
<path fill="none" stroke="black" d="M462.25,-338.84C455.14,-313.07 441.34,-262.81 430,-220 422.61,-192.09 414.29,-159.59 409.36,-140.19"/>
</g>
<!-- a4 -->
<g id="node4" class="node">
<title>a4</title>
<polygon fill="none" stroke="blue" points="979,-375 976,-379 955,-379 952,-375 815,-375 815,-339 979,-339 979,-375"/>
<text text-anchor="middle" x="897" y="-353.3" font-family="Times,serif" font-size="14.00">imageserver storage</text>
</g>
<!-- b8 -->
<g id="node14" class="node">
<title>b8</title>
<polygon fill="none" stroke="green" points="1105.5,-140 836.5,-140 836.5,-136 832.5,-136 832.5,-132 836.5,-132 836.5,-112 832.5,-112 832.5,-108 836.5,-108 836.5,-104 1105.5,-104 1105.5,-140"/>
<polyline fill="none" stroke="green" points="836.5,-136 840.5,-136 840.5,-132 836.5,-132 "/>
<polyline fill="none" stroke="green" points="836.5,-112 840.5,-112 840.5,-108 836.5,-108 "/>
<text text-anchor="middle" x="971" y="-118.3" font-family="Times,serif" font-size="14.00">imageserver (display large images)</text>
</g>
<!-- a4&#45;&#45;b8 -->
<g id="edge15" class="edge">
<title>a4&#45;&#45;b8</title>
<path fill="none" stroke="black" d="M902.44,-338.87C916.13,-295.78 951.86,-183.27 965.55,-140.16"/>
</g>
<!-- a5 -->
<g id="node5" class="node">
<title>a5</title>
<polygon fill="none" stroke="blue" points="797,-375 794,-379 773,-379 770,-375 695,-375 695,-339 797,-339 797,-375"/>
<text text-anchor="middle" x="746" y="-353.3" font-family="Times,serif" font-size="14.00">solr storage</text>
</g>
<!-- b7 -->
<g id="node13" class="node">
<title>b7</title>
<polygon fill="none" stroke="green" points="920.5,-220 731.5,-220 731.5,-216 727.5,-216 727.5,-212 731.5,-212 731.5,-192 727.5,-192 727.5,-188 731.5,-188 731.5,-184 920.5,-184 920.5,-220"/>
<polyline fill="none" stroke="green" points="731.5,-216 735.5,-216 735.5,-212 731.5,-212 "/>
<polyline fill="none" stroke="green" points="731.5,-192 735.5,-192 735.5,-188 731.5,-188 "/>
<text text-anchor="middle" x="826" y="-198.3" font-family="Times,serif" font-size="14.00">solr (site search engine)</text>
</g>
<!-- a5&#45;&#45;b7 -->
<g id="edge16" class="edge">
<title>a5&#45;&#45;b7</title>
<path fill="none" stroke="black" d="M755.02,-338.75C770.39,-309.36 801.46,-249.93 816.89,-220.43"/>
</g>
<!-- a6 -->
<g id="node6" class="node">
<title>a6</title>
<polygon fill="none" stroke="blue" points="1103,-375 1100,-379 1079,-379 1076,-375 997,-375 997,-339 1103,-339 1103,-375"/>
<text text-anchor="middle" x="1050" y="-353.3" font-family="Times,serif" font-size="14.00">ldap storage</text>
</g>
<!-- b6 -->
<g id="node12" class="node">
<title>b6</title>
<polygon fill="none" stroke="green" points="1178,-140 1124,-140 1124,-136 1120,-136 1120,-132 1124,-132 1124,-112 1120,-112 1120,-108 1124,-108 1124,-104 1178,-104 1178,-140"/>
<polyline fill="none" stroke="green" points="1124,-136 1128,-136 1128,-132 1124,-132 "/>
<polyline fill="none" stroke="green" points="1124,-112 1128,-112 1128,-108 1124,-108 "/>
<text text-anchor="middle" x="1151" y="-118.3" font-family="Times,serif" font-size="14.00">ldap</text>
</g>
<!-- a6&#45;&#45;b6 -->
<g id="edge17" class="edge">
<title>a6&#45;&#45;b6</title>
<path fill="none" stroke="black" d="M1057.43,-338.87C1076.1,-295.78 1124.87,-183.27 1143.56,-140.16"/>
</g>
<!-- b2 -->
<g id="node8" class="node">
<title>b2</title>
<polygon fill="none" stroke="green" points="693,-220 439,-220 439,-216 435,-216 435,-212 439,-212 439,-192 435,-192 435,-188 439,-188 439,-184 693,-184 693,-220"/>
<polyline fill="none" stroke="green" points="439,-216 443,-216 443,-212 439,-212 "/>
<polyline fill="none" stroke="green" points="439,-192 443,-192 443,-188 439,-188 "/>
<text text-anchor="middle" x="566" y="-198.3" font-family="Times,serif" font-size="14.00">phaidra&#45;api (general transmitter)</text>
</g>
<!-- b1&#45;&#45;b2 -->
<g id="edge1" class="edge">
<title>b1&#45;&#45;b2</title>
<path fill="none" stroke="black" d="M587.08,-255.7C582.74,-244.85 577.17,-230.92 572.84,-220.1"/>
</g>
<!-- b1&#45;&#45;b3 -->
<g id="edge10" class="edge">
<title>b1&#45;&#45;b3</title>
<path fill="none" stroke="black" d="M541.17,-255.99C509.02,-245.62 467.13,-232.08 430,-220 344.38,-192.14 244.92,-159.49 185.85,-140.06"/>
</g>
<!-- b2&#45;&#45;b3 -->
<g id="edge2" class="edge">
<title>b2&#45;&#45;b3</title>
<path fill="none" stroke="black" d="M459.69,-183.94C399.28,-174 322.29,-160.91 254,-148 240.93,-145.53 227.09,-142.78 213.64,-140.02"/>
</g>
<!-- b2&#45;&#45;b4 -->
<g id="edge3" class="edge">
<title>b2&#45;&#45;b4</title>
<path fill="none" stroke="black" d="M530.67,-183.88C503.82,-170.88 467.07,-153.07 440.25,-140.08"/>
</g>
<!-- b5 -->
<g id="node11" class="node">
<title>b5</title>
<polygon fill="none" stroke="green" points="818.5,-140 585.5,-140 585.5,-136 581.5,-136 581.5,-132 585.5,-132 585.5,-112 581.5,-112 581.5,-108 585.5,-108 585.5,-104 818.5,-104 818.5,-140"/>
<polyline fill="none" stroke="green" points="585.5,-136 589.5,-136 589.5,-132 585.5,-132 "/>
<polyline fill="none" stroke="green" points="585.5,-112 589.5,-112 589.5,-108 585.5,-108 "/>
<text text-anchor="middle" x="702" y="-118.3" font-family="Times,serif" font-size="14.00">phaidra&#45;ui (user webinterface)</text>
</g>
<!-- b2&#45;&#45;b5 -->
<g id="edge4" class="edge">
<title>b2&#45;&#45;b5</title>
<path fill="none" stroke="black" d="M595.85,-183.88C618.52,-170.88 649.57,-153.07 672.22,-140.08"/>
</g>
<!-- b2&#45;&#45;b6 -->
<g id="edge5" class="edge">
<title>b2&#45;&#45;b6</title>
<path fill="none" stroke="black" d="M693.23,-187.05C703.3,-186 713.32,-184.97 723,-184 897.09,-166.58 950.61,-207.87 1115,-148 1120.29,-146.07 1125.53,-143.17 1130.31,-140.02"/>
</g>
<!-- b2&#45;&#45;b8 -->
<g id="edge11" class="edge">
<title>b2&#45;&#45;b8</title>
<path fill="none" stroke="black" d="M654.38,-183.98C721.99,-170.96 814.81,-153.08 882.46,-140.05"/>
</g>
<!-- b9 -->
<g id="node15" class="node">
<title>b9</title>
<polygon fill="none" stroke="green" points="748,-60 656,-60 656,-56 652,-56 652,-52 656,-52 656,-32 652,-32 652,-28 656,-28 656,-24 748,-24 748,-60"/>
<polyline fill="none" stroke="green" points="656,-56 660,-56 660,-52 656,-52 "/>
<polyline fill="none" stroke="green" points="656,-32 660,-32 660,-28 656,-28 "/>
<text text-anchor="middle" x="702" y="-38.3" font-family="Times,serif" font-size="14.00">webserver</text>
</g>
<!-- b2&#45;&#45;b9 -->
<g id="edge7" class="edge">
<title>b2&#45;&#45;b9</title>
<path fill="none" stroke="black" d="M562.88,-183.86C559.79,-161.38 557.92,-121.78 577,-96 595.58,-70.89 628.41,-57.58 655.77,-50.57"/>
</g>
<!-- b5&#45;&#45;b1 -->
<g id="edge9" class="edge">
<title>b5&#45;&#45;b1</title>
<path fill="none" stroke="black" d="M707.13,-140.26C712.17,-160.9 717.14,-195.7 702,-220 691.73,-236.49 674.66,-247.99 657.1,-255.95"/>
</g>
<!-- b5&#45;&#45;b9 -->
<g id="edge8" class="edge">
<title>b5&#45;&#45;b9</title>
<path fill="none" stroke="black" d="M702,-103.69C702,-90.76 702,-73.18 702,-60.26"/>
</g>
<!-- b7&#45;&#45;b5 -->
<g id="edge6" class="edge">
<title>b7&#45;&#45;b5</title>
<path fill="none" stroke="black" d="M798.79,-183.88C778.11,-170.88 749.81,-153.07 729.15,-140.08"/>
</g>
<!-- c1 -->
<g id="node16" class="node">
<title>c1</title>
<polygon fill="none" stroke="black" points="1366.17,-114.54 1366.17,-129.46 1320.38,-140 1255.62,-140 1209.83,-129.46 1209.83,-114.54 1255.62,-104 1320.38,-104 1366.17,-114.54"/>
<polygon fill="none" stroke="black" points="1370.17,-111.36 1370.17,-132.64 1320.83,-144 1255.17,-144 1205.83,-132.64 1205.83,-111.36 1255.17,-100 1320.83,-100 1370.17,-111.36"/>
<polygon fill="none" stroke="black" points="1374.18,-108.18 1374.18,-135.82 1321.29,-148 1254.71,-148 1201.82,-135.82 1201.82,-108.18 1254.71,-96 1321.29,-96 1374.18,-108.18"/>
<text text-anchor="middle" x="1288" y="-118.3" font-family="Times,serif" font-size="14.00">Phaidra User</text>
</g>
<!-- c1&#45;&#45;b9 -->
<g id="edge18" class="edge">
<title>c1&#45;&#45;b9</title>
<path fill="none" stroke="black" d="M1223.44,-103.15C1212.35,-100.48 1200.89,-97.97 1190,-96 1028.99,-66.87 835,-51.62 748.06,-45.82"/>
</g>
</g>
</svg>
