<?xml version="1.0" encoding="UTF-8" standalone="no"?>
<!DOCTYPE svg PUBLIC "-//W3C//DTD SVG 1.1//EN"
 "http://www.w3.org/Graphics/SVG/1.1/DTD/svg11.dtd">
<!-- Generated by graphviz version 2.43.0 (0)
 -->
<!-- Title: G Pages: 1 -->
<svg width="1199pt" height="573pt"
 viewBox="0.00 0.00 1199.00 573.00" xmlns="http://www.w3.org/2000/svg" xmlns:xlink="http://www.w3.org/1999/xlink">
<g id="graph0" class="graph" transform="scale(1 1) rotate(0) translate(4 569)">
<title>G</title>
<polygon fill="white" stroke="transparent" points="-4,4 -4,-569 1195,-569 1195,4 -4,4"/>
<g id="clust1" class="cluster">
<title>cluster_host</title>
<polygon fill="none" stroke="red" points="8,-80 8,-557 1183,-557 1183,-80 8,-80"/>
<text text-anchor="middle" x="595.5" y="-541.8" font-family="Times,serif" font-size="14.00">host</text>
</g>
<g id="clust2" class="cluster">
<title>cluster_host_storage</title>
<polygon fill="none" stroke="blue" points="299,-451 299,-526 1175,-526 1175,-451 299,-451"/>
<text text-anchor="middle" x="737" y="-510.8" font-family="Times,serif" font-size="14.00">host filesystem</text>
</g>
<g id="clust3" class="cluster">
<title>cluster_docker_network_host</title>
<polygon fill="none" stroke="green" points="28,-152 28,-443 1175,-443 1175,-152 28,-152"/>
<text text-anchor="middle" x="601.5" y="-427.8" font-family="Times,serif" font-size="14.00">docker network</text>
</g>
<!-- a1 -->
<g id="node1" class="node">
<title>a1</title>
<polygon fill="none" stroke="red" points="277,-124 185,-124 185,-120 181,-120 181,-116 185,-116 185,-96 181,-96 181,-92 185,-92 185,-88 277,-88 277,-124"/>
<polyline fill="none" stroke="red" points="185,-120 189,-120 189,-116 185,-116 "/>
<polyline fill="none" stroke="red" points="185,-96 189,-96 189,-92 185,-92 "/>
<text text-anchor="middle" x="231" y="-102.3" font-family="Times,serif" font-size="14.00">webserver</text>
</g>
<!-- d1 -->
<g id="node17" class="node">
<title>d1</title>
<polygon fill="none" stroke="black" points="309.17,-18.54 309.17,-33.46 263.38,-44 198.62,-44 152.83,-33.46 152.83,-18.54 198.62,-8 263.38,-8 309.17,-18.54"/>
<polygon fill="none" stroke="black" points="313.17,-15.36 313.17,-36.64 263.83,-48 198.17,-48 148.83,-36.64 148.83,-15.36 198.17,-4 263.83,-4 313.17,-15.36"/>
<polygon fill="none" stroke="black" points="317.18,-12.18 317.18,-39.82 264.29,-52 197.71,-52 144.82,-39.82 144.82,-12.18 197.71,0 264.29,0 317.18,-12.18"/>
<text text-anchor="middle" x="231" y="-22.3" font-family="Times,serif" font-size="14.00">Phaidra User</text>
</g>
<!-- a1&#45;&#45;d1 -->
<g id="edge19" class="edge">
<title>a1&#45;&#45;d1</title>
<path fill="none" stroke="red" d="M231,-87.69C231,-77.28 231,-63.84 231,-52.26"/>
</g>
<!-- b1 -->
<g id="node2" class="node">
<title>b1</title>
<polygon fill="none" stroke="blue" points="428.5,-495 425.5,-499 404.5,-499 401.5,-495 307.5,-495 307.5,-459 428.5,-459 428.5,-495"/>
<text text-anchor="middle" x="368" y="-473.3" font-family="Times,serif" font-size="14.00">fedora storage</text>
</g>
<!-- c1 -->
<g id="node8" class="node">
<title>c1</title>
<polygon fill="none" stroke="green" points="588.5,-412 335.5,-412 335.5,-408 331.5,-408 331.5,-404 335.5,-404 335.5,-384 331.5,-384 331.5,-380 335.5,-380 335.5,-376 588.5,-376 588.5,-412"/>
<polyline fill="none" stroke="green" points="335.5,-408 339.5,-408 339.5,-404 335.5,-404 "/>
<polyline fill="none" stroke="green" points="335.5,-384 339.5,-384 339.5,-380 335.5,-380 "/>
<text text-anchor="middle" x="462" y="-390.3" font-family="Times,serif" font-size="14.00">fedora (data and metadata store)</text>
</g>
<!-- b1&#45;&#45;c1 -->
<g id="edge13" class="edge">
<title>b1&#45;&#45;c1</title>
<path fill="none" stroke="blue" d="M387.93,-458.82C403.89,-445.08 426.15,-425.89 442.09,-412.15"/>
</g>
<!-- b2 -->
<g id="node3" class="node">
<title>b2</title>
<polygon fill="none" stroke="blue" points="923,-495 920,-499 899,-499 896,-495 789,-495 789,-459 923,-459 923,-495"/>
<text text-anchor="middle" x="856" y="-473.3" font-family="Times,serif" font-size="14.00">mariadb storage</text>
</g>
<!-- c3 -->
<g id="node10" class="node">
<title>c3</title>
<polygon fill="none" stroke="green" points="887.5,-268 666.5,-268 666.5,-264 662.5,-264 662.5,-260 666.5,-260 666.5,-240 662.5,-240 662.5,-236 666.5,-236 666.5,-232 887.5,-232 887.5,-268"/>
<polyline fill="none" stroke="green" points="666.5,-264 670.5,-264 670.5,-260 666.5,-260 "/>
<polyline fill="none" stroke="green" points="666.5,-240 670.5,-240 670.5,-236 666.5,-236 "/>
<text text-anchor="middle" x="777" y="-246.3" font-family="Times,serif" font-size="14.00">mariadb (general databases)</text>
</g>
<!-- b2&#45;&#45;c3 -->
<g id="edge14" class="edge">
<title>b2&#45;&#45;c3</title>
<path fill="none" stroke="blue" d="M849.93,-458.72C835.19,-416.73 797.63,-309.76 782.98,-268.03"/>
</g>
<!-- b3 -->
<g id="node4" class="node">
<title>b3</title>
<polygon fill="none" stroke="blue" points="770.5,-495 767.5,-499 746.5,-499 743.5,-495 629.5,-495 629.5,-459 770.5,-459 770.5,-495"/>
<text text-anchor="middle" x="700" y="-473.3" font-family="Times,serif" font-size="14.00">mongodb storage</text>
</g>
<!-- c4 -->
<g id="node11" class="node">
<title>c4</title>
<polygon fill="none" stroke="green" points="628,-268 344,-268 344,-264 340,-264 340,-260 344,-260 344,-240 340,-240 340,-236 344,-236 344,-232 628,-232 628,-268"/>
<polyline fill="none" stroke="green" points="344,-264 348,-264 348,-260 344,-260 "/>
<polyline fill="none" stroke="green" points="344,-240 348,-240 348,-236 344,-236 "/>
<text text-anchor="middle" x="486" y="-246.3" font-family="Times,serif" font-size="14.00">mongodb (databases for job&#45;tracking)</text>
</g>
<!-- b3&#45;&#45;c4 -->
<g id="edge15" class="edge">
<title>b3&#45;&#45;c4</title>
<path fill="none" stroke="blue" d="M716.99,-458.82C720.67,-454.07 724.04,-448.65 726,-443 746.23,-384.63 764.69,-352.16 726,-304 712.47,-287.16 672.1,-275.35 628.24,-267.22"/>
</g>
<!-- b4 -->
<g id="node5" class="node">
<title>b4</title>
<polygon fill="none" stroke="blue" points="611,-495 608,-499 587,-499 584,-495 447,-495 447,-459 611,-459 611,-495"/>
<text text-anchor="middle" x="529" y="-473.3" font-family="Times,serif" font-size="14.00">imageserver storage</text>
</g>
<!-- c8 -->
<g id="node15" class="node">
<title>c8</title>
<polygon fill="none" stroke="green" points="325.5,-268 56.5,-268 56.5,-264 52.5,-264 52.5,-260 56.5,-260 56.5,-240 52.5,-240 52.5,-236 56.5,-236 56.5,-232 325.5,-232 325.5,-268"/>
<polyline fill="none" stroke="green" points="56.5,-264 60.5,-264 60.5,-260 56.5,-260 "/>
<polyline fill="none" stroke="green" points="56.5,-240 60.5,-240 60.5,-236 56.5,-236 "/>
<text text-anchor="middle" x="191" y="-246.3" font-family="Times,serif" font-size="14.00">imageserver (display large images)</text>
</g>
<!-- b4&#45;&#45;c8 -->
<g id="edge16" class="edge">
<title>b4&#45;&#45;c8</title>
<path fill="none" stroke="blue" d="M571.37,-458.95C580.55,-454.4 589.91,-449.04 598,-443 657.56,-398.54 740.85,-359.14 691,-304 664.34,-274.51 374.52,-272.33 335,-268 331.87,-267.66 328.71,-267.31 325.51,-266.95"/>
</g>
<!-- b5 -->
<g id="node6" class="node">
<title>b5</title>
<polygon fill="none" stroke="blue" points="1043,-495 1040,-499 1019,-499 1016,-495 941,-495 941,-459 1043,-459 1043,-495"/>
<text text-anchor="middle" x="992" y="-473.3" font-family="Times,serif" font-size="14.00">solr storage</text>
</g>
<!-- c7 -->
<g id="node14" class="node">
<title>c7</title>
<polygon fill="none" stroke="green" points="1094.5,-268 905.5,-268 905.5,-264 901.5,-264 901.5,-260 905.5,-260 905.5,-240 901.5,-240 901.5,-236 905.5,-236 905.5,-232 1094.5,-232 1094.5,-268"/>
<polyline fill="none" stroke="green" points="905.5,-264 909.5,-264 909.5,-260 905.5,-260 "/>
<polyline fill="none" stroke="green" points="905.5,-240 909.5,-240 909.5,-236 905.5,-236 "/>
<text text-anchor="middle" x="1000" y="-246.3" font-family="Times,serif" font-size="14.00">solr (site search engine)</text>
</g>
<!-- b5&#45;&#45;c7 -->
<g id="edge17" class="edge">
<title>b5&#45;&#45;c7</title>
<path fill="none" stroke="blue" d="M992.61,-458.72C994.11,-416.73 997.91,-309.76 999.39,-268.03"/>
</g>
<!-- b6 -->
<g id="node7" class="node">
<title>b6</title>
<polygon fill="none" stroke="blue" points="1167,-495 1164,-499 1143,-499 1140,-495 1061,-495 1061,-459 1167,-459 1167,-495"/>
<text text-anchor="middle" x="1114" y="-473.3" font-family="Times,serif" font-size="14.00">ldap storage</text>
</g>
<!-- c6 -->
<g id="node13" class="node">
<title>c6</title>
<polygon fill="none" stroke="green" points="1167,-268 1113,-268 1113,-264 1109,-264 1109,-260 1113,-260 1113,-240 1109,-240 1109,-236 1113,-236 1113,-232 1167,-232 1167,-268"/>
<polyline fill="none" stroke="green" points="1113,-264 1117,-264 1117,-260 1113,-260 "/>
<polyline fill="none" stroke="green" points="1113,-240 1117,-240 1117,-236 1113,-236 "/>
<text text-anchor="middle" x="1140" y="-246.3" font-family="Times,serif" font-size="14.00">ldap</text>
</g>
<!-- b6&#45;&#45;c6 -->
<g id="edge18" class="edge">
<title>b6&#45;&#45;c6</title>
<path fill="none" stroke="blue" d="M1116,-458.72C1120.85,-416.73 1133.21,-309.76 1138.03,-268.03"/>
</g>
<!-- c2 -->
<g id="node9" class="node">
<title>c2</title>
<polygon fill="none" stroke="green" points="682,-340 428,-340 428,-336 424,-336 424,-332 428,-332 428,-312 424,-312 424,-308 428,-308 428,-304 682,-304 682,-340"/>
<polyline fill="none" stroke="green" points="428,-336 432,-336 432,-332 428,-332 "/>
<polyline fill="none" stroke="green" points="428,-312 432,-312 432,-308 428,-308 "/>
<text text-anchor="middle" x="555" y="-318.3" font-family="Times,serif" font-size="14.00">phaidra&#45;api (general transmitter)</text>
</g>
<!-- c1&#45;&#45;c2 -->
<g id="edge1" class="edge">
<title>c1&#45;&#45;c2</title>
<path fill="none" stroke="green" d="M484.99,-375.7C499.4,-364.85 517.91,-350.92 532.28,-340.1"/>
</g>
<!-- c1&#45;&#45;c3 -->
<g id="edge8" class="edge">
<title>c1&#45;&#45;c3</title>
<path fill="none" stroke="green" d="M588.64,-377.2C623.34,-369.34 659.92,-357.59 691,-340 722.79,-322.01 750.28,-288.67 765.17,-268.29"/>
</g>
<!-- c2&#45;&#45;a1 -->
<g id="edge20" class="edge">
<title>c2&#45;&#45;a1</title>
<path fill="none" stroke="red" d="M427.96,-305.01C424.95,-304.66 421.96,-304.33 419,-304 377.73,-299.42 74.91,-298.75 47,-268 -5.93,-209.7 114.46,-151.36 184.78,-123.64"/>
</g>
<!-- c2&#45;&#45;c3 -->
<g id="edge2" class="edge">
<title>c2&#45;&#45;c3</title>
<path fill="none" stroke="green" d="M609.02,-303.97C643.55,-293.08 688.16,-279.01 722.73,-268.11"/>
</g>
<!-- c2&#45;&#45;c4 -->
<g id="edge3" class="edge">
<title>c2&#45;&#45;c4</title>
<path fill="none" stroke="green" d="M537.94,-303.7C527.25,-292.85 513.52,-278.92 502.86,-268.1"/>
</g>
<!-- c5 -->
<g id="node12" class="node">
<title>c5</title>
<polygon fill="none" stroke="green" points="516.5,-196 283.5,-196 283.5,-192 279.5,-192 279.5,-188 283.5,-188 283.5,-168 279.5,-168 279.5,-164 283.5,-164 283.5,-160 516.5,-160 516.5,-196"/>
<polyline fill="none" stroke="green" points="283.5,-192 287.5,-192 287.5,-188 283.5,-188 "/>
<polyline fill="none" stroke="green" points="283.5,-168 287.5,-168 287.5,-164 283.5,-164 "/>
<text text-anchor="middle" x="400" y="-174.3" font-family="Times,serif" font-size="14.00">phaidra&#45;ui (user webinterface)</text>
</g>
<!-- c2&#45;&#45;c5 -->
<g id="edge4" class="edge">
<title>c2&#45;&#45;c5</title>
<path fill="none" stroke="green" d="M597.62,-303.99C612.87,-295.58 628.41,-283.78 637,-268 644.65,-253.95 647,-244.49 637,-232 621.22,-212.3 568.34,-199.43 516.53,-191.32"/>
</g>
<!-- c2&#45;&#45;c6 -->
<g id="edge5" class="edge">
<title>c2&#45;&#45;c6</title>
<path fill="none" stroke="green" d="M682.06,-321.04C794.79,-318.19 962.98,-306.83 1104,-268 1106.93,-267.19 1109.92,-266.16 1112.86,-265"/>
</g>
<!-- c2&#45;&#45;c7 -->
<g id="edge10" class="edge">
<title>c2&#45;&#45;c7</title>
<path fill="none" stroke="green" d="M666.71,-303.97C733.55,-293.71 820.17,-280.29 897,-268 899.77,-267.56 902.59,-267.1 905.43,-266.65"/>
</g>
<!-- c2&#45;&#45;c8 -->
<g id="edge9" class="edge">
<title>c2&#45;&#45;c8</title>
<path fill="none" stroke="green" d="M466.42,-303.97C409.71,-293.06 336.39,-278.96 279.66,-268.05"/>
</g>
<!-- c5&#45;&#45;a1 -->
<g id="edge21" class="edge">
<title>c5&#45;&#45;a1</title>
<path fill="none" stroke="red" d="M358.66,-159.88C332.37,-148.99 298.47,-134.95 272.21,-124.07"/>
</g>
<!-- c5&#45;&#45;c1 -->
<g id="edge7" class="edge">
<title>c5&#45;&#45;c1</title>
<path fill="none" stroke="green" d="M283.25,-180.66C192.54,-184.72 77.23,-196.9 47,-232 15.68,-268.37 15.28,-303.97 47,-340 66,-361.58 220.33,-376.75 335.27,-385.17"/>
</g>
<!-- c7&#45;&#45;c5 -->
<g id="edge6" class="edge">
<title>c7&#45;&#45;c5</title>
<path fill="none" stroke="green" d="M905.46,-233.18C902.61,-232.77 899.78,-232.38 897,-232 767.16,-214.38 617.58,-199.1 516.72,-189.54"/>
</g>
<!-- c9 -->
<g id="node16" class="node">
<title>c9</title>
<polygon fill="none" stroke="green" points="409.5,-340 56.5,-340 56.5,-336 52.5,-336 52.5,-332 56.5,-332 56.5,-312 52.5,-312 52.5,-308 56.5,-308 56.5,-304 409.5,-304 409.5,-340"/>
<polyline fill="none" stroke="green" points="56.5,-336 60.5,-336 60.5,-332 56.5,-332 "/>
<polyline fill="none" stroke="green" points="56.5,-312 60.5,-312 60.5,-308 56.5,-308 "/>
<text text-anchor="middle" x="233" y="-318.3" font-family="Times,serif" font-size="14.00">pixelgecko (imageserver fileformat conversion)</text>
</g>
<!-- c9&#45;&#45;c4 -->
<g id="edge12" class="edge">
<title>c9&#45;&#45;c4</title>
<path fill="none" stroke="green" d="M294.57,-303.97C333.91,-293.08 384.76,-279.01 424.16,-268.11"/>
</g>
<!-- c9&#45;&#45;c8 -->
<g id="edge11" class="edge">
<title>c9&#45;&#45;c8</title>
<path fill="none" stroke="green" d="M222.62,-303.7C216.11,-292.85 207.75,-278.92 201.26,-268.1"/>
</g>
</g>
</svg>
