<?xml version="1.0" encoding="UTF-8" standalone="no"?>
<!DOCTYPE svg PUBLIC "-//W3C//DTD SVG 1.1//EN"
 "http://www.w3.org/Graphics/SVG/1.1/DTD/svg11.dtd">
<!-- Generated by graphviz version 2.43.0 (0)
 -->
<!-- Title: G Pages: 1 -->
<svg width="959pt" height="581pt"
 viewBox="0.00 0.00 959.00 581.00" xmlns="http://www.w3.org/2000/svg" xmlns:xlink="http://www.w3.org/1999/xlink">
<g id="graph0" class="graph" transform="scale(1 1) rotate(0) translate(4 577)">
<title>G</title>
<polygon fill="white" stroke="transparent" points="-4,4 -4,-577 955,-577 955,4 -4,4"/>
<g id="clust1" class="cluster">
<title>cluster_host</title>
<polygon fill="none" stroke="red" points="8,-80 8,-565 943,-565 943,-80 8,-80"/>
<text text-anchor="middle" x="475.5" y="-549.8" font-family="Times,serif" font-size="14.00">host</text>
</g>
<g id="clust2" class="cluster">
<title>cluster_host_storage</title>
<polygon fill="none" stroke="blue" points="120,-459 120,-534 929,-534 929,-459 120,-459"/>
<text text-anchor="middle" x="524.5" y="-518.8" font-family="Times,serif" font-size="14.00">host filesystem</text>
</g>
<g id="clust3" class="cluster">
<title>cluster_docker_network_host</title>
<polygon fill="none" stroke="green" points="28,-152 28,-451 935,-451 935,-152 28,-152"/>
<text text-anchor="middle" x="481.5" y="-435.8" font-family="Times,serif" font-size="14.00">PHAIDRA components</text>
</g>
<!-- a1 -->
<g id="node1" class="node">
<title>a1</title>
<polygon fill="none" stroke="red" points="196,-124 104,-124 104,-120 100,-120 100,-116 104,-116 104,-96 100,-96 100,-92 104,-92 104,-88 196,-88 196,-124"/>
<polyline fill="none" stroke="red" points="104,-120 108,-120 108,-116 104,-116 "/>
<polyline fill="none" stroke="red" points="104,-96 108,-96 108,-92 104,-92 "/>
<text text-anchor="middle" x="150" y="-102.3" font-family="Times,serif" font-size="14.00">webserver</text>
</g>
<!-- d1 -->
<g id="node17" class="node">
<title>d1</title>
<polygon fill="none" stroke="black" points="228.17,-18.54 228.17,-33.46 182.38,-44 117.62,-44 71.83,-33.46 71.83,-18.54 117.62,-8 182.38,-8 228.17,-18.54"/>
<polygon fill="none" stroke="black" points="232.17,-15.36 232.17,-36.64 182.83,-48 117.17,-48 67.83,-36.64 67.83,-15.36 117.17,-4 182.83,-4 232.17,-15.36"/>
<polygon fill="none" stroke="black" points="236.18,-12.18 236.18,-39.82 183.29,-52 116.71,-52 63.82,-39.82 63.82,-12.18 116.71,0 183.29,0 236.18,-12.18"/>
<text text-anchor="middle" x="150" y="-22.3" font-family="Times,serif" font-size="14.00">Phaidra User</text>
</g>
<!-- a1&#45;&#45;d1 -->
<g id="edge19" class="edge">
<title>a1&#45;&#45;d1</title>
<path fill="none" stroke="red" d="M150,-87.69C150,-77.28 150,-63.84 150,-52.26"/>
</g>
<!-- b1 -->
<g id="node2" class="node">
<title>b1</title>
<polygon fill="none" stroke="blue" points="230,-503 227,-507 206,-507 203,-503 128,-503 128,-467 230,-467 230,-503"/>
<text text-anchor="middle" x="179" y="-481.3" font-family="Times,serif" font-size="14.00">Fedora data</text>
</g>
<!-- c1 -->
<g id="node8" class="node">
<title>c1</title>
<g id="a_node8"><a xlink:href="https://fedora.lyrasis.org/" xlink:title="Fedora\n(object and metadata store)">
<polygon fill="none" stroke="green" points="350.5,-420 135.5,-420 135.5,-416 131.5,-416 131.5,-412 135.5,-412 135.5,-390 131.5,-390 131.5,-386 135.5,-386 135.5,-382 350.5,-382 350.5,-420"/>
<polyline fill="none" stroke="green" points="135.5,-416 139.5,-416 139.5,-412 135.5,-412 "/>
<polyline fill="none" stroke="green" points="135.5,-390 139.5,-390 139.5,-386 135.5,-386 "/>
<text text-anchor="middle" x="243" y="-404.8" font-family="Times,serif" font-size="14.00">Fedora</text>
<text text-anchor="middle" x="243" y="-389.8" font-family="Times,serif" font-size="14.00">(object and metadata store)</text>
</a>
</g>
</g>
<!-- b1&#45;&#45;c1 -->
<g id="edge13" class="edge">
<title>b1&#45;&#45;c1</title>
<path fill="none" stroke="blue" d="M192.57,-466.61C203.21,-452.98 217.98,-434.06 228.78,-420.22"/>
</g>
<!-- b2 -->
<g id="node3" class="node">
<title>b2</title>
<polygon fill="none" stroke="blue" points="617,-503 614,-507 593,-507 590,-503 501,-503 501,-467 617,-467 617,-503"/>
<text text-anchor="middle" x="559" y="-481.3" font-family="Times,serif" font-size="14.00">MariaDB data</text>
</g>
<!-- c3 -->
<g id="node10" class="node">
<title>c3</title>
<g id="a_node10"><a xlink:href="https://mariadb.org/" xlink:title="MariaDB\n(general databases)">
<polygon fill="none" stroke="green" points="559,-272 401,-272 401,-268 397,-268 397,-264 401,-264 401,-242 397,-242 397,-238 401,-238 401,-234 559,-234 559,-272"/>
<polyline fill="none" stroke="green" points="401,-268 405,-268 405,-264 401,-264 "/>
<polyline fill="none" stroke="green" points="401,-242 405,-242 405,-238 401,-238 "/>
<text text-anchor="middle" x="480" y="-256.8" font-family="Times,serif" font-size="14.00">MariaDB</text>
<text text-anchor="middle" x="480" y="-241.8" font-family="Times,serif" font-size="14.00">(general databases)</text>
</a>
</g>
</g>
<!-- b2&#45;&#45;c3 -->
<g id="edge14" class="edge">
<title>b2&#45;&#45;c3</title>
<path fill="none" stroke="blue" d="M553.06,-466.71C538.49,-424.3 501.09,-315.4 486.22,-272.12"/>
</g>
<!-- b3 -->
<g id="node4" class="node">
<title>b3</title>
<polygon fill="none" stroke="blue" points="482.5,-503 479.5,-507 458.5,-507 455.5,-503 359.5,-503 359.5,-467 482.5,-467 482.5,-503"/>
<text text-anchor="middle" x="421" y="-481.3" font-family="Times,serif" font-size="14.00">MongoDB data</text>
</g>
<!-- c4 -->
<g id="node11" class="node">
<title>c4</title>
<g id="a_node11"><a xlink:href="https://www.mongodb.com/" xlink:title="MongoDB\n(job&#45;tracking)">
<polygon fill="none" stroke="green" points="362.5,-272 249.5,-272 249.5,-268 245.5,-268 245.5,-264 249.5,-264 249.5,-242 245.5,-242 245.5,-238 249.5,-238 249.5,-234 362.5,-234 362.5,-272"/>
<polyline fill="none" stroke="green" points="249.5,-268 253.5,-268 253.5,-264 249.5,-264 "/>
<polyline fill="none" stroke="green" points="249.5,-242 253.5,-242 253.5,-238 249.5,-238 "/>
<text text-anchor="middle" x="306" y="-256.8" font-family="Times,serif" font-size="14.00">MongoDB</text>
<text text-anchor="middle" x="306" y="-241.8" font-family="Times,serif" font-size="14.00">(job&#45;tracking)</text>
</a>
</g>
</g>
<!-- b3&#45;&#45;c4 -->
<g id="edge15" class="edge">
<title>b3&#45;&#45;c4</title>
<path fill="none" stroke="blue" d="M431.81,-466.8C434.35,-461.88 436.69,-456.39 438,-451 452.97,-389.23 473.43,-360.77 438,-308 421.16,-282.92 390.39,-269.48 362.8,-262.28"/>
</g>
<!-- b4 -->
<g id="node5" class="node">
<title>b4</title>
<polygon fill="none" stroke="blue" points="341.5,-503 338.5,-507 317.5,-507 314.5,-503 248.5,-503 248.5,-467 341.5,-467 341.5,-503"/>
<text text-anchor="middle" x="295" y="-481.3" font-family="Times,serif" font-size="14.00">iipsrv data</text>
</g>
<!-- c8 -->
<g id="node15" class="node">
<title>c8</title>
<g id="a_node15"><a xlink:href="https://github.com/ruven/iipsrv" xlink:title="iipsrv\n(display large images)">
<polygon fill="none" stroke="green" points="231.5,-272 56.5,-272 56.5,-268 52.5,-268 52.5,-264 56.5,-264 56.5,-242 52.5,-242 52.5,-238 56.5,-238 56.5,-234 231.5,-234 231.5,-272"/>
<polyline fill="none" stroke="green" points="56.5,-268 60.5,-268 60.5,-264 56.5,-264 "/>
<polyline fill="none" stroke="green" points="56.5,-242 60.5,-242 60.5,-238 56.5,-238 "/>
<text text-anchor="middle" x="144" y="-256.8" font-family="Times,serif" font-size="14.00">iipsrv</text>
<text text-anchor="middle" x="144" y="-241.8" font-family="Times,serif" font-size="14.00">(display large images)</text>
</a>
</g>
</g>
<!-- b4&#45;&#45;c8 -->
<g id="edge16" class="edge">
<title>b4&#45;&#45;c8</title>
<path fill="none" stroke="blue" d="M334.26,-466.85C345.5,-461.34 355.84,-455.51 360,-451 404.99,-402.21 444.87,-359.5 403,-308 400.19,-304.55 305.84,-285.48 231.82,-270.97"/>
</g>
<!-- b5 -->
<g id="node6" class="node">
<title>b5</title>
<polygon fill="none" stroke="blue" points="773,-503 770,-507 749,-507 746,-503 635,-503 635,-467 773,-467 773,-503"/>
<text text-anchor="middle" x="704" y="-481.3" font-family="Times,serif" font-size="14.00">Apache Solr data</text>
</g>
<!-- c7 -->
<g id="node14" class="node">
<title>c7</title>
<g id="a_node14"><a xlink:href="https://solr.apache.org/" xlink:title="Apache Solr\n(object search engine)">
<polygon fill="none" stroke="green" points="752.5,-272 577.5,-272 577.5,-268 573.5,-268 573.5,-264 577.5,-264 577.5,-242 573.5,-242 573.5,-238 577.5,-238 577.5,-234 752.5,-234 752.5,-272"/>
<polyline fill="none" stroke="green" points="577.5,-268 581.5,-268 581.5,-264 577.5,-264 "/>
<polyline fill="none" stroke="green" points="577.5,-242 581.5,-242 581.5,-238 577.5,-238 "/>
<text text-anchor="middle" x="665" y="-256.8" font-family="Times,serif" font-size="14.00">Apache Solr</text>
<text text-anchor="middle" x="665" y="-241.8" font-family="Times,serif" font-size="14.00">(object search engine)</text>
</a>
</g>
</g>
<!-- b5&#45;&#45;c7 -->
<g id="edge17" class="edge">
<title>b5&#45;&#45;c7</title>
<path fill="none" stroke="blue" d="M701.07,-466.71C693.88,-424.3 675.41,-315.4 668.07,-272.12"/>
</g>
<!-- b6 -->
<g id="node7" class="node">
<title>b6</title>
<polygon fill="none" stroke="blue" points="921,-503 918,-507 897,-507 894,-503 791,-503 791,-467 921,-467 921,-503"/>
<text text-anchor="middle" x="856" y="-481.3" font-family="Times,serif" font-size="14.00">OpenLDAP data</text>
</g>
<!-- c6 -->
<g id="node13" class="node">
<title>c6</title>
<g id="a_node13"><a xlink:href="https://www.openldap.org/" xlink:title="OpenLDAP\n(user management)">
<polygon fill="none" stroke="green" points="927,-272 771,-272 771,-268 767,-268 767,-264 771,-264 771,-242 767,-242 767,-238 771,-238 771,-234 927,-234 927,-272"/>
<polyline fill="none" stroke="green" points="771,-268 775,-268 775,-264 771,-264 "/>
<polyline fill="none" stroke="green" points="771,-242 775,-242 775,-238 771,-238 "/>
<text text-anchor="middle" x="849" y="-256.8" font-family="Times,serif" font-size="14.00">OpenLDAP</text>
<text text-anchor="middle" x="849" y="-241.8" font-family="Times,serif" font-size="14.00">(user management)</text>
</a>
</g>
</g>
<!-- b6&#45;&#45;c6 -->
<g id="edge18" class="edge">
<title>b6&#45;&#45;c6</title>
<path fill="none" stroke="blue" d="M855.47,-466.71C854.18,-424.3 850.87,-315.4 849.55,-272.12"/>
</g>
<!-- c2 -->
<g id="node9" class="node">
<title>c2</title>
<g id="a_node9"><a xlink:href="https://github.com/phaidra/phaidra-api" xlink:title="phaidra&#45;api\n(general transmitter)">
<polygon fill="none" stroke="green" points="394,-346 226,-346 226,-342 222,-342 222,-338 226,-338 226,-316 222,-316 222,-312 226,-312 226,-308 394,-308 394,-346"/>
<polyline fill="none" stroke="green" points="226,-342 230,-342 230,-338 226,-338 "/>
<polyline fill="none" stroke="green" points="226,-316 230,-316 230,-312 226,-312 "/>
<text text-anchor="middle" x="310" y="-330.8" font-family="Times,serif" font-size="14.00">phaidra&#45;api</text>
<text text-anchor="middle" x="310" y="-315.8" font-family="Times,serif" font-size="14.00">(general transmitter)</text>
</a>
</g>
</g>
<!-- c1&#45;&#45;c2 -->
<g id="edge1" class="edge">
<title>c1&#45;&#45;c2</title>
<path fill="none" stroke="green" d="M259.91,-381.83C269.99,-371 282.75,-357.29 292.87,-346.41"/>
</g>
<!-- c1&#45;&#45;c3 -->
<g id="edge8" class="edge">
<title>c1&#45;&#45;c3</title>
<path fill="none" stroke="green" d="M324.33,-381.96C350.87,-373.69 379.52,-362.05 403,-346 431.89,-326.25 456.02,-292.8 469.2,-272.14"/>
</g>
<!-- c2&#45;&#45;a1 -->
<g id="edge20" class="edge">
<title>c2&#45;&#45;a1</title>
<path fill="none" stroke="red" d="M225.97,-309.39C149.56,-294.19 48.46,-273.79 47,-272 6.34,-222.15 83.23,-155.12 125.24,-124.09"/>
</g>
<!-- c2&#45;&#45;c3 -->
<g id="edge2" class="edge">
<title>c2&#45;&#45;c3</title>
<path fill="none" stroke="green" d="M352.9,-307.83C378.77,-296.88 411.6,-282.97 437.41,-272.04"/>
</g>
<!-- c2&#45;&#45;c4 -->
<g id="edge3" class="edge">
<title>c2&#45;&#45;c4</title>
<path fill="none" stroke="green" d="M308.99,-307.83C308.39,-297 307.63,-283.29 307.02,-272.41"/>
</g>
<!-- c5 -->
<g id="node12" class="node">
<title>c5</title>
<g id="a_node12"><a xlink:href="https://github.com/phaidra/phaidra-ui" xlink:title="phaidra&#45;ui\n(webinterface)">
<polygon fill="none" stroke="green" points="299,-198 179,-198 179,-194 175,-194 175,-190 179,-190 179,-168 175,-168 175,-164 179,-164 179,-160 299,-160 299,-198"/>
<polyline fill="none" stroke="green" points="179,-194 183,-194 183,-190 179,-190 "/>
<polyline fill="none" stroke="green" points="179,-168 183,-168 183,-164 179,-164 "/>
<text text-anchor="middle" x="239" y="-182.8" font-family="Times,serif" font-size="14.00">phaidra&#45;ui</text>
<text text-anchor="middle" x="239" y="-167.8" font-family="Times,serif" font-size="14.00">(webinterface)</text>
</a>
</g>
</g>
<!-- c2&#45;&#45;c5 -->
<g id="edge4" class="edge">
<title>c2&#45;&#45;c5</title>
<path fill="none" stroke="green" d="M340.5,-307.78C352.68,-298.71 365.38,-286.55 372,-272 379,-256.63 381.43,-248.01 372,-234 355.65,-209.71 326.29,-196.34 299.3,-188.99"/>
</g>
<!-- c2&#45;&#45;c6 -->
<g id="edge5" class="edge">
<title>c2&#45;&#45;c6</title>
<path fill="none" stroke="green" d="M394.02,-318.12C485.01,-309.09 634.27,-292.8 762,-272 764.89,-271.53 767.83,-271.03 770.8,-270.51"/>
</g>
<!-- c2&#45;&#45;c7 -->
<g id="edge10" class="edge">
<title>c2&#45;&#45;c7</title>
<path fill="none" stroke="green" d="M394.13,-308.94C449.39,-297.73 521.52,-283.1 577.46,-271.76"/>
</g>
<!-- c2&#45;&#45;c8 -->
<g id="edge9" class="edge">
<title>c2&#45;&#45;c8</title>
<path fill="none" stroke="green" d="M268.11,-307.83C242.85,-296.88 210.79,-282.97 185.59,-272.04"/>
</g>
<!-- c5&#45;&#45;a1 -->
<g id="edge21" class="edge">
<title>c5&#45;&#45;a1</title>
<path fill="none" stroke="red" d="M216.08,-159.72C202.28,-148.7 184.82,-134.78 171.31,-124"/>
</g>
<!-- c5&#45;&#45;c1 -->
<g id="edge7" class="edge">
<title>c5&#45;&#45;c1</title>
<path fill="none" stroke="green" d="M178.54,-188.94C128.45,-197.72 63,-212.89 47,-234 16.94,-273.68 16.84,-306.4 47,-346 58.71,-361.37 96.26,-373.47 135.41,-382.29"/>
</g>
<!-- c7&#45;&#45;c5 -->
<g id="edge6" class="edge">
<title>c7&#45;&#45;c5</title>
<path fill="none" stroke="green" d="M577.25,-235.63C574.13,-235.08 571.04,-234.53 568,-234 474.21,-217.6 365.11,-199.98 299.1,-189.48"/>
</g>
<!-- c9 -->
<g id="node16" class="node">
<title>c9</title>
<polygon fill="none" stroke="green" points="208,-346 56,-346 56,-342 52,-342 52,-338 56,-338 56,-316 52,-316 52,-312 56,-312 56,-308 208,-308 208,-346"/>
<polyline fill="none" stroke="green" points="56,-342 60,-342 60,-338 56,-338 "/>
<polyline fill="none" stroke="green" points="56,-316 60,-316 60,-312 56,-312 "/>
<text text-anchor="middle" x="132" y="-330.8" font-family="Times,serif" font-size="14.00">pixelgecko</text>
<text text-anchor="middle" x="132" y="-315.8" font-family="Times,serif" font-size="14.00">(image conversion)</text>
</g>
<!-- c9&#45;&#45;c4 -->
<g id="edge12" class="edge">
<title>c9&#45;&#45;c4</title>
<path fill="none" stroke="green" d="M175.91,-307.83C202.39,-296.88 235.99,-282.97 262.41,-272.04"/>
</g>
<!-- c9&#45;&#45;c8 -->
<g id="edge11" class="edge">
<title>c9&#45;&#45;c8</title>
<path fill="none" stroke="green" d="M135.03,-307.83C136.83,-297 139.12,-283.29 140.93,-272.41"/>
</g>
</g>
</svg>
