<?xml version="1.0" encoding="utf-8"?>
<!-- Generator: Adobe Illustrator 24.3.0, SVG Export Plug-In . SVG Version: 6.00 Build 0)  -->
<svg version="1.1" id="PHAIDRA_Logo_copy_xA0_Image_1_"
	 xmlns="http://www.w3.org/2000/svg" xmlns:xlink="http://www.w3.org/1999/xlink" x="0px" y="0px" viewBox="0 0 468.8 83.2"
	 style="enable-background:new 0 0 468.8 83.2;" xml:space="preserve">
<style type="text/css">
	.st0{fill:#FF204E;}
	.st1{fill:#212121;}
</style>
<g>
	<g>
		<g>
			<path class="st0" d="M18,83.2h-3.5V41.6c0-7.2,2.8-14,7.9-19.1s11.9-7.9,19.1-7.9s14,2.8,19.1,7.9c5.1,5.1,7.9,11.9,7.9,19.1
				s-2.8,14-7.9,19.1c-5.1,5.1-11.9,7.9-19.1,7.9H29.8v-3.5h11.8c13,0,23.6-10.6,23.6-23.6S54.5,18,41.5,18S18,28.6,18,41.5V83.2z"
				/>
		</g>
	</g>
</g>
<path class="st1" d="M79.8,25.4c-2.1-4.9-5.1-9.4-8.9-13.2c-3.8-3.8-8.3-6.8-13.2-8.9C52.6,1.1,47.2,0,41.5,0s-11,1.1-16.2,3.3
	c-4.9,2.1-9.4,5.1-13.2,8.9C8.4,16,5.4,20.4,3.3,25.4C1.1,30.5,0,35.9,0,41.5v41.6h3.5V41.5c0-21,17.1-38,38-38s38,17.1,38,38
	s-17.1,38-38,38h-9.1V54.2h9.1c7,0,12.6-5.7,12.6-12.6s-5.7-12.6-12.6-12.6s-12.6,5.7-12.6,12.6v41.6h3.5v0h9.1
	c5.6,0,11-1.1,16.2-3.3c5-2.1,9.4-5.1,13.2-8.9c3.8-3.8,6.8-8.3,8.9-13.2c2.2-5.1,3.3-10.6,3.3-16.2C83.1,35.9,82,30.5,79.8,25.4z
	 M32.5,41.5c0-5,4.1-9.1,9.1-9.1s9.1,4.1,9.1,9.1s-4.1,9.1-9.1,9.1h-9.1V41.5z"/>
<g>
	<g>
		<path class="st1" d="M106.7,19.2h12.4c9.7,0,16.3,3.3,16.3,12.8c0,9.1-6.5,13.4-16,13.4h-7.1v17.2h-5.5V19.2z M118.6,40.9
			c7.6,0,11.2-2.7,11.2-8.9c0-6.2-3.8-8.3-11.5-8.3h-6.2v17.2H118.6z"/>
		<path class="st1" d="M144.1,19.2h5.5v18.1h20.1V19.2h5.5v43.3h-5.5V42.2h-20.1v20.4h-5.5V19.2z"/>
		<path class="st1" d="M196,19.2h6.2l14.7,43.3H211l-7.6-24.2c-1.6-4.8-2.9-9.6-4.3-14.6h-0.3c-1.3,5-2.7,9.8-4.3,14.6L187,62.6
			h-5.6L196,19.2z M189.1,45H209v4.4h-19.9V45z"/>
		<path class="st1" d="M223,19.2h5.5v43.3H223V19.2z"/>
		<path class="st1" d="M240.4,19.2h10.8c13.3,0,20.5,7.7,20.5,21.5s-7.1,21.8-20.2,21.8h-11.1V19.2z M250.8,58
			c10.1,0,15.2-6.3,15.2-17.3c0-10.9-5-17-15.2-17h-4.9V58H250.8z"/>
		<path class="st1" d="M280.9,19.2h13.6c8.8,0,15.2,3.2,15.2,12.2c0,8.7-6.3,12.8-15.2,12.8h-8.1v18.3h-5.5V19.2z M293.7,39.8
			c6.7,0,10.5-2.7,10.5-8.3c0-5.7-3.7-7.7-10.5-7.7h-7.3v16.1H293.7z M293.4,42.7l4.3-2.9L311,62.6h-6.2L293.4,42.7z"/>
		<path class="st1" d="M327.4,19.2h6.2l14.7,43.3h-5.8l-7.6-24.2c-1.6-4.8-2.9-9.6-4.3-14.6h-0.3c-1.3,5-2.7,9.8-4.3,14.6l-7.6,24.2
			h-5.6L327.4,19.2z M320.5,45h19.9v4.4h-19.9V45z"/>
		<path class="st0" d="M351.5,46.6c0-10.7,7.2-16.9,15.4-16.9c4.2,0,7.1,1.7,9.4,3.8l-2.8,3.6c-1.9-1.7-3.8-2.8-6.4-2.8
			c-5.8,0-10.1,5-10.1,12.4c0,7.4,4,12.3,9.9,12.3c2.9,0,5.5-1.4,7.5-3.2l2.4,3.6c-2.9,2.6-6.5,4.1-10.4,4.1
			C358,63.4,351.5,57.2,351.5,46.6z"/>
		<path class="st0" d="M381.6,46.6c0-10.7,7-16.9,14.9-16.9s14.9,6.2,14.9,16.9c0,10.6-7,16.8-14.9,16.8S381.6,57.2,381.6,46.6z
			 M405.7,46.6c0-7.4-3.7-12.4-9.3-12.4c-5.5,0-9.3,5-9.3,12.4c0,7.4,3.7,12.3,9.3,12.3C402,58.8,405.7,53.9,405.7,46.6z"/>
		<path class="st0" d="M419.8,30.5h4.5l0.5,4.6h0.2c3.1-3,6.4-5.4,10.8-5.4c6.8,0,9.8,4.4,9.8,12.5v20.3H440V42.9
			c0-6-1.8-8.5-6.1-8.5c-3.3,0-5.6,1.7-8.8,4.9v23.2h-5.4V30.5z"/>
	</g>
</g>
</svg>
