<?xml version="1.0" encoding="utf-8"?>
<!-- Generator: Adobe Illustrator 24.3.0, SVG Export Plug-In . SVG Version: 6.00 Build 0)  -->
<svg version="1.1" id="PHAIDRA_Logo_copy_xA0_Image_1_"
	 xmlns="http://www.w3.org/2000/svg" xmlns:xlink="http://www.w3.org/1999/xlink" x="0px" y="0px" viewBox="0 0 348.5 83.1"
	 style="enable-background:new 0 0 348.5 83.1;" xml:space="preserve">
<style type="text/css">
	.st0{fill:#FFFFFF;}
	.st1{fill:#FFFFFF;stroke:#212121;stroke-width:35;stroke-miterlimit:10;}
</style>
<g>
	<g>
		<g>
			<g>
				<path class="st0" d="M41.6,18c-3,0-5.4-2.4-5.4-5.4s2.4-5.4,5.4-5.4S47,9.6,47,12.6S44.5,18,41.6,18z M41.6,10.8
					c-1,0-1.9,0.8-1.9,1.9s0.8,1.9,1.9,1.9s1.9-0.8,1.9-1.9S42.6,10.8,41.6,10.8z"/>
			</g>
		</g>
	</g>
	<g>
		<g>
			<g>
				<path class="st0" d="M12.7,46.9c-3,0-5.4-2.4-5.4-5.4s2.4-5.4,5.4-5.4s5.4,2.4,5.4,5.4C18,44.5,15.6,46.9,12.7,46.9z M12.7,39.7
					c-1,0-1.9,0.8-1.9,1.9s0.8,1.9,1.9,1.9s1.9-0.8,1.9-1.9S13.7,39.7,12.7,39.7z"/>
			</g>
		</g>
	</g>
	<g>
		<g>
			<g>
				<path class="st0" d="M70.5,46.9c-3,0-5.4-2.4-5.4-5.4s2.4-5.4,5.4-5.4s5.4,2.4,5.4,5.4S73.4,46.9,70.5,46.9z M70.5,39.7
					c-1,0-1.9,0.8-1.9,1.9s0.8,1.9,1.9,1.9s1.9-0.8,1.9-1.9S71.5,39.7,70.5,39.7z"/>
			</g>
		</g>
	</g>
	<g>
		<g>
			<g>
				<path class="st0" d="M16.3,32.5c-3,0-5.4-2.4-5.4-5.4s2.4-5.4,5.4-5.4s5.4,2.4,5.4,5.4S19.2,32.5,16.3,32.5z M16.3,25.3
					c-1,0-1.9,0.8-1.9,1.9s0.8,1.9,1.9,1.9s1.9-0.8,1.9-1.9S17.3,25.3,16.3,25.3z"/>
			</g>
		</g>
	</g>
	<g>
		<g>
			<g>
				<path class="st0" d="M66.9,32.5c-3,0-5.4-2.4-5.4-5.4s2.4-5.4,5.4-5.4s5.4,2.4,5.4,5.4S69.8,32.5,66.9,32.5z M66.9,25.3
					c-1,0-1.9,0.8-1.9,1.9s0.8,1.9,1.9,1.9s1.9-0.8,1.9-1.9S67.9,25.3,66.9,25.3z"/>
			</g>
		</g>
	</g>
	<g>
		<g>
			<g>
				<path class="st0" d="M27.1,21.7c-3,0-5.4-2.4-5.4-5.4s2.4-5.4,5.4-5.4s5.4,2.4,5.4,5.4S30.1,21.7,27.1,21.7z M27.1,14.4
					c-1,0-1.9,0.8-1.9,1.9s0.8,1.9,1.9,1.9s1.9-0.8,1.9-1.9S28.1,14.4,27.1,14.4z"/>
			</g>
		</g>
	</g>
	<g>
		<g>
			<g>
				<path class="st0" d="M56,21.7c-3,0-5.4-2.4-5.4-5.4s2.4-5.4,5.4-5.4s5.4,2.4,5.4,5.4S59,21.7,56,21.7z M56,14.4
					c-1,0-1.9,0.8-1.9,1.9s0.8,1.9,1.9,1.9s1.9-0.8,1.9-1.9S57,14.4,56,14.4z"/>
			</g>
		</g>
	</g>
	<g>
		<g>
			<g>
				<rect x="16.3" y="39.8" class="st0" width="50.6" height="3.5"/>
			</g>
		</g>
	</g>
	<g>
		<g>
			<g>
				<path class="st1" d="M16.3,30.7"/>
			</g>
		</g>
	</g>
	<g>
		<g>
			<g>
				<rect x="39.8" y="16.3" class="st0" width="3.5" height="66.8"/>
			</g>
		</g>
	</g>
	<g>
		<g>
			<g>
				<polygon class="st0" points="49.7,28.9 33.4,28.9 27.5,20 30.4,18 35.3,25.4 47.9,25.4 52.8,18 55.7,20 				"/>
			</g>
		</g>
	</g>
	<g>
		<g>
			<g>
				<polygon class="st0" points="28.9,41.6 25.4,41.6 25.4,35.3 18,30.4 20,27.5 28.9,33.4 				"/>
			</g>
		</g>
	</g>
	<g>
		<g>
			<g>
				<polygon class="st0" points="57.8,41.6 54.3,41.6 54.3,33.4 63.2,27.5 65.1,30.4 57.8,35.3 				"/>
			</g>
		</g>
	</g>
	<g>
		<g>
			<g>
				<path class="st0" d="M36.1,82.8L34,82.4c-6.3-1.2-12.3-3.8-17.4-7.6c-5-3.8-9.2-8.7-12-14.3l-1.3-2.6h23.8c5,0,9,4,9,9V82.8z
					 M9.2,61.4c5.2,8.5,13.7,14.7,23.4,17.1V66.9c0-3-2.5-5.5-5.5-5.5H9.2z"/>
			</g>
		</g>
	</g>
	<g>
		<g>
			<g>
				<path class="st0" d="M47,82.8V66.9c0-4.9,4-9,9-9h23.8l-1.3,2.6c-2.9,5.6-7,10.5-12.1,14.3S55.3,81.3,49,82.4L47,82.8z M56,61.4
					c-3,0-5.5,2.4-5.5,5.5v11.6c9.7-2.4,18.2-8.6,23.4-17.1H56z"/>
			</g>
		</g>
	</g>
	<g>
		<g>
			<g>
				<path class="st0" d="M43.3,66.9h-3.5c0-7-5.7-12.7-12.7-12.7H2l-0.4-1.3C0.6,49.2,0,45.4,0,41.6c0-5.6,1.1-11,3.3-16.2
					c2.1-4.9,5.1-9.4,8.9-13.2s8.2-6.8,13.2-8.9C30.5,1.1,35.9,0,41.6,0s11,1.1,16.2,3.3c4.9,2.1,9.4,5.1,13.2,8.9s6.8,8.2,8.9,13.2
					c2.2,5.1,3.3,10.5,3.3,16.2c0,3.8-0.5,7.7-1.6,11.3l-0.4,1.3H56C49,54.2,43.3,59.9,43.3,66.9z M4.7,50.7h22.4
					c6.3,0,11.8,3.6,14.5,8.9c2.7-5.3,8.2-8.9,14.4-8.9h22.4c0.7-3,1.1-6,1.1-9.1c0-21-17-38-38-38s-38,17-38,38
					C3.6,44.7,3.9,47.7,4.7,50.7z"/>
			</g>
		</g>
	</g>
</g>
<g>
	<g>
		<path class="st0" d="M107.5,19.5h12.4c9.7,0,16.2,3.3,16.2,12.7c0,9.1-6.5,13.4-16,13.4H113v17.2h-5.5V19.5z M119.4,41.2
			c7.6,0,11.2-2.7,11.2-8.9c0-6.2-3.8-8.3-11.4-8.3H113v17.2H119.4z"/>
		<path class="st0" d="M144.9,19.5h5.5v18.1h20.1V19.5h5.5v43.3h-5.5V42.4h-20.1v20.4h-5.5V19.5z"/>
		<path class="st0" d="M196.8,19.5h6.2l14.6,43.3h-5.8l-7.6-24.2c-1.6-4.8-2.9-9.6-4.3-14.6h-0.3c-1.3,5-2.7,9.8-4.3,14.6l-7.6,24.2
			h-5.6L196.8,19.5z M189.9,45.2h19.9v4.4h-19.9V45.2z"/>
		<path class="st0" d="M223.8,19.5h5.5v43.3h-5.5V19.5z"/>
		<path class="st0" d="M241.2,19.5H252c13.3,0,20.5,7.7,20.5,21.5s-7.1,21.8-20.2,21.8h-11.1L241.2,19.5L241.2,19.5z M251.6,58.3
			c10.1,0,15.2-6.3,15.2-17.3s-5-17-15.2-17h-4.9v34.3L251.6,58.3L251.6,58.3z"/>
		<path class="st0" d="M281.8,19.5h13.6c8.8,0,15.2,3.2,15.2,12.2c0,8.7-6.3,12.8-15.2,12.8h-8v18.3h-5.5V19.5z M294.5,40
			c6.7,0,10.5-2.7,10.5-8.4c0-5.7-3.7-7.7-10.5-7.7h-7.3V40L294.5,40L294.5,40z M294.2,43l4.3-2.8l13.2,22.7h-6.2L294.2,43z"/>
		<path class="st0" d="M328.2,19.5h6.2l14.6,43.3h-5.8l-7.5-24.2c-1.6-4.8-3-9.6-4.3-14.6h-0.3c-1.3,5-2.7,9.8-4.3,14.6l-7.6,24.2
			h-5.6L328.2,19.5z M321.3,45.2h19.9v4.4h-19.9V45.2z"/>
	</g>
</g>
</svg>
